<svg height="512" width="544.3" xmlns="http://www.w3.org/2000/svg"><path d="m544.3 147.5v30.7q0 145.9-272.4 334.3-271.9-187.9-271.9-334.3v-30.7q0-65.1 41.5-106t106-41q41.4 0 68.6 15.9t56.3 50.7q29.7-34.8 56.8-50.7t68.1-15.9q64.5 0 106 41t41.5 106z m-59.9 28.1v-25.6q0-29.7-20-58.4t-48.7-31.7q-6.1-1-18.9-1-27.1 0-42.5 10.2t-36.9 35.3l-45.5 53.8-45.6-53.8q-21.5-25-36.9-35.3t-42.5-10.2q-12.2 0-18.9 1-28.7 3.1-48.1 30.7t-21 58.9v25.6q0 15.4 8.7 38.4 34.8 101.9 203.8 225.8 168.4-122.4 204.2-225.8 8.2-25.6 8.2-38.4z" /></svg>