<svg height="512" width="512.0" xmlns="http://www.w3.org/2000/svg"><path d="m512 60.4v109.1h-342.5v-109.1h342.5z m0 171v109.1h-342.5v-109.1h342.5z m-389.6-116.7q0 15.9-11.8 27.6t-27.7 11.8-27.6-11.8-11.8-27.6 11.8-27.7 27.6-11.7 27.7 11.7 11.8 27.7z m389.6 288.2v109.1h-342.5v-109.1h342.5z m-389.6-116.7q0 16.4-11.8 27.7t-27.7 11.2-27.6-11.2-11.8-27.7 11.8-27.6 27.6-11.3 27.7 11.3 11.8 27.6z m0 171.5q0 15.9-11.8 27.7t-27.7 11.8-27.6-11.8-11.8-27.7q0-16.4 11.8-28.1t27.6-11.8 27.7 11.8 11.8 28.1z" /></svg>