<svg height="512" width="512.0" xmlns="http://www.w3.org/2000/svg"><path d="m512 45.6v421.9q0 18.4-13.3 31.7t-31.8 13.3h-421.8q-18.5 0-31.8-13.3t-13.3-31.7v-421.9q0-18.5 13.3-31.8t31.8-13.3h421.8q18.5 0 31.8 13.3t13.3 31.8z m-151 110.6q0-44.6-30.2-76.8t-74.8-32.3-74.8 32.3-30.2 76.8 30.2 76.8 74.8 32.2 74.8-32.2 30.2-76.8z m11.2 142.8q0-13.3-9.2-23t-22-9.8q-7.7 0-14.3 4.1-35.9 18.5-71.7 18.5-35.4 0-70.7-18.5-8.2-3.5-14.3-3.5-12.8 0-22 9.7t-9.2 23q0 34.8 75.2 49.7l-59.9 61.9q-9.2 9.3-9.2 22.6t9.2 23 22 9.7 22-9.2l57.4-59.4 57.3 59.4q9.2 9.2 22 9.2t22.1-9.7 9.2-23-9.2-22.6l-59.9-61.9q75.2-15.4 75.2-50.2z m-72.7-142.8q0 18.4-12.8 31.7t-31.2 13.3-31.2-13.3-12.8-31.7 12.8-31.8 31.2-13.3 31.2 13.3 12.8 31.8z" /></svg>