<svg height="512" width="512.0" xmlns="http://www.w3.org/2000/svg"><path d="m512 372.7q0 57.9-42 98.9t-100.3 40.9q-35.4 0-66.6-16.4-23.5 4.1-45.1 4.1-100.3 0-172.5-70.6t-72.2-171q0-21.5 5.1-48.2-19.4-32.7-19.4-70.6 0-57.9 42-98.8t100.3-41q41.5 0 75.3 21.5 19.4-3.6 41.4-3.6 66.1 0 122.4 32.3t89.1 87.5 33.3 121.4q0 28.6-5.6 51.7 14.8 29.7 14.8 61.9z m-111.1-52.2q0-25.6-11.3-44.5t-29.7-29.2-40.4-17.4-44-11.8-40.5-9.2-29.7-13.3-11.3-20q0-17.4 19-25.6t38.9-8.2q20.5 0 34.3 6.7t20 15.3 11.2 17.9 12.8 15.4 21 6.7q14.4 0 25.1-9.8t10.8-23.5-7.7-27.7q-15.4-28.1-49.7-40.9t-72.2-12.8q-23.5 0-46 4.6t-43.6 14.8-33.8 29.2-12.8 44.6q0 33.8 21 54.7t50.7 29.2 59.9 14.9 50.7 17.4 21 30.2q0 21.5-21.5 32.2t-46.1 10.8q-23 0-37.9-7.7t-21.5-18.4-11.7-22-13.4-19-21.5-7.7q-14.3 0-25 9.3t-10.8 23q0 21.5 15.9 43.5 36.8 53.3 127.5 53.3 25.6 0 49.6-5.7t45.6-17.4 34.8-32.7 13.3-48.7z" /></svg>