<svg height="512" width="513.5" xmlns="http://www.w3.org/2000/svg"><path d="m513.5 256.5q-21 23.6-58.3 23.6h-3.1q-18.9 77.8-91.1 124.9t-156.2 47.1q-62 0-115.7-27.1t-90.1-77.4q38.4 36.9 92.6 36.9 57.9 0 97.8-42.5-3 0.5-6.1 0.5l-18.4-4.1q-12.3-6.1-12.3-17.9 0-13.8 21-23-5.2 0.5-9.8 0.5-14.8 0-27.6-6.2-16.9-8.2-26.1-26.1 11.2-12.8 35.3-14.3-50.2-12.3-57.3-52.2 13.8-4.1 27.1-4.1h4.1q-18.9-10.3-31.7-26.7t-12.3-35.8l0.5-4.1q79.3 30.2 131.6 59.4 15.3 8.7 38.9 32.3 16.4-44.6 34.8-77.4t46.1-50.6q-0.5 8.2-7.7 15.8 16.9-16.4 39.9-19.4-1.5 11.8-27.1 21 3.6-1.1 13.3-5.2t16.9-6.1 13.3-2q7.7 0 7.7 5.6 0 4.1-8.7 8.2t-22 8.2-14.4 4.6q5.2-0.5 9.8-0.5 35.3 0 62.9 26.6 30.8 30.7 38.9 73.2 9.3 3.1 18.5 3.1 25.6 0 42.5-9.7-6.7 15.3-22.6 24t-34.3 9.7q17.5 7.7 42.5 7.7 8.2 0 15.9-1.5z" /></svg>