<svg height="512" width="547.8" xmlns="http://www.w3.org/2000/svg"><path d="m547.8 480.3q0 10.7-1 32.2h-546.3q0-5.1-0.5-15.9t-0.5-16.3q0-15.4 0.5-19 6.1-25.1 32.8-43.5t57.3-27.1 64.5-24.1 49.7-33.8q8.7-11.3 8.7-19.5 0-11.2-5.6-37.3-2.1-10.8-5.7-19t-8.2-16.9-8.2-16.4q-7.6-17.9-16.9-67.5-3-19.5-3-38.4 0-53.8 27.6-86.1t80.9-32.2 80.9 32.2 27.7 86.1q0 15.8-3.6 38.4-7.2 45.5-16.4 67.5-3.1 7.2-8.2 16.4t-8.2 16.9-5.6 19q-5.7 26.1-5.7 37.3 0 9.3 8.8 19.5 15.8 18.4 49.6 33.8t64 24.1 56.8 27.1 32.8 43.5q1 4.1 1 19z" /></svg>