<svg height="512" width="512.0" xmlns="http://www.w3.org/2000/svg"><path d="m512 45.6v421.9q0 18.4-13.3 31.7t-31.8 13.3h-421.8q-18.5 0-31.8-13.3t-13.3-31.7v-421.9q0-18.5 13.3-31.8t31.8-13.3h421.8q18.5 0 31.8 13.3t13.3 31.8z m-61.4 84.4q0-47.6-57.4-47.6-37.9 0-71.2 27.2t-45.5 64.5q6.1-1 11.8-1 4.1 0 7.6 0.5 9.3 1 16.4 3.6t11.3 10.2 4.1 20q0 22-19.5 60.9t-38.4 38.9q-9.7 0-18.4-9.7-12.3-12.8-19.5-48.7t-10.2-69.1-15.9-59.9-35.8-26.6q-19 0-41 13.3t-53.7 41.5-34.9 30.2v2.5q2.6 2.6 5.7 7.7t6.1 7.2 9.8 2.5q5.6 0 16.8-3.5t17.5-3.6q13.3 0 22 20.5 2.5 6.6 6.6 19.4t5.7 16.9q7.1 20.5 18.9 66.6l3.6 13.3 4.1 16.4t5.1 16.9 6.7 17.9 7.1 16.4 9.2 15.3 10.8 11.3 12.8 8.7 14.8 2.6q34.3 0 74.3-33.3t71.2-79.9 53.7-93.7 28.7-76.8q1.5-9.2 1.5-17.4z" /></svg>