<svg height="512" width="512.0" xmlns="http://www.w3.org/2000/svg"><path d="m512 45.6v421.9q0 18.4-13.3 31.7t-31.8 13.3h-421.8q-18.5 0-31.8-13.3t-13.3-31.7v-421.9q0-18.5 13.3-31.8t31.8-13.3h421.8q18.5 0 31.8 13.3t13.3 31.8z m-122.9 270.3q0-29.7-16.4-49.1t-46.6-25.6v-1.6q20-8.2 31.3-26.1t11.2-39.9q0-23.6-10.2-38.9t-28.7-22.1-35.3-8.7-39.9-2h-112.2v307.2h122.9q24.1 0 45.1-5.1t38.9-15.4 28.7-29.7 10.7-45z m-98.8-125.9q0 10.2-3.6 16.8t-8.2 10.3-13.3 5.1-14.3 2.1-15.9 0.5h-15.4v-65.1h20q9.2 0 14.4 0.6t13.3 2 12.3 4.6 7.6 9.2 3.6 14.9z m19.5 124.4q0 6.1-1.6 11.7t-3.6 9.3-6.6 7.1-7.7 5.1-9.2 3.6-9.7 2.1-10.8 1-10.2 0.5h-31.3v-76.8h39.5t11.7 0.5 12.8 2.1 9.8 4.1 9.2 6.6 5.1 10.3 2.6 14.3z" /></svg>