<svg height="512" width="512.0" xmlns="http://www.w3.org/2000/svg"><path d="m413.2 56.8v160.3h-32.8v-17.9q-18.9 19.9-37.9 19.9-23 0-23-28.6v-133.7h32.8v122.9q0 10.8 8.7 10.8t19.4-12.3v-121.4h32.8z m-121.4 37.4v83q0 21.5-12.8 32.7t-34.8 11.3q-21 0-34.3-12.3t-13.3-32.8v-82.9q0-20 14.3-30.7t34.9-10.8q19.4 0 32.7 11.3t13.3 30.2z m-33.2 85.5v-87.5q0-5.2-4.6-8.7t-9.8-3.6-9.2 3.6-4.1 8.7v87.5q0 13.3 13.3 13.3 14.4 0 14.4-13.3z m-97.3-179.7h37.4l-28.2 84.5q-2.1 6.1-5.1 14.3t-5.7 14.4-4.1 14.3v90.1h-36.8v-86q-1-6.2-14.9-43.5l-29.1-87.6h37.3l23.6 86.5h2.5z m312.8 378.4q0 25.1-3.1 74.2-2 25.6-19.9 41t-43.5 16.4q-50.7 2.5-152.1 2.5-101.9 0-152.1-2.5-25.6-1.1-43.5-16.4t-20-41q-3-49.1-3-74.2t3-74.3q2.1-25.6 20-40.9t43.5-16.4q50.2-2.6 152.1-2.6t152.1 2.6q25.6 1 43.5 16.4t19.9 40.9q3.1 49.2 3.1 74.3z m-36.3 46.6v-9.8h-27.2q0 1.1 0.5 6.7t0 8.2-1.5 6.1-3.6 5.1-7.2 1.6q-5.1 0-8.1-3.1t-3.1-6.1-0.5-8.7v-24.6h50.1v-32.8q0-17.9-9.7-28.1t-27.6-10.3q-17.4 0-29.2 10.8t-11.8 28.1v57.9q0 18.4 10.3 29.7t28.6 11.2q39.4 0 39.4-40.4z m-97.8 9.7v-71.7q0-32.2-25.6-32.2-12.8 0-23.6 11.7v-56.3h-26.6v175.6h26.6v-10.2q11.3 11.8 25.1 11.8 24.1 0 24.1-28.7z m-128 27.1h26.1v-129.5h-26.1v98.3q-8.7 9.7-15.9 9.7-6.7 0-6.7-8.7v-99.3h-26.6v109q0 22.6 18.4 22.6 15.4 0 30.8-16.4v14.3z m-79.9-150h31.2v-25.6h-91.6v25.6h30.7v150h29.7v-150z m278.5 53.8v14.3h-23v-14.3q0-13.9 11.8-13.9 11.2 0 11.2 13.9z m-97.8-1.6v68.1q0 10.8-9.2 10.8-7.2 0-12.8-5.7v-80.8q5.1-5.2 11.3-5.2 10.7 0 10.7 12.8z" /></svg>