<svg height="512" width="475.1" xmlns="http://www.w3.org/2000/svg"><path d="m442.4 155.1q24 49.7 24 100.4 0 18.4-4.6 42h-161.8z m-132.1 89.6v-204.8q74.2 24.6 116.7 88.1z m-62 83h205.3q-25.6 74.7-88 117.2z m31.8-132.6l-143.9-143.4q49.1-24.6 101.4-24.6 19.4 0 42.5 4.1v163.9z m-84 122.9l141.8 142.3q-49.6 24.1-100.3 24.1-17.4 0-41.5-4.7v-161.7z m-30.7-51.2v204.8q-74.3-24.6-116.8-88.1z m-152.1-53.3h162.3l-142.3 142.3q-24.1-49.6-24.1-100.3 0-18.4 4.1-42z m96.3-146.9l116.7 116.7h-204.3q24.6-74.2 87.6-116.7z" /></svg>