<svg height="512" width="475.1" xmlns="http://www.w3.org/2000/svg"><path d="m435.7 370.2h-83.4q-27.7 0-45.1-23.6-30.7 24.1-69.6 24.1-47.1 0-80.9-33.8t-33.8-80.9 33.8-80.9 80.9-33.8h114.7v171h46l0.5 0.5q10.3-27.6 10.3-57.8 0-71.2-50.7-121.4t-121.3-50.1-120.9 50.1-50.2 121.4 50.2 121.3 120.9 50.2q72.1 0 121.3-50.2l40.4 40.5q-67 67-161.7 67t-161.8-67-67.1-161.8 67.1-161.8 161.8-67.1 161.7 67.1 67.1 161.3q0 61.4-30.7 114.7z m-140.8-113.7v-57.3h-57.3q-23.1 0-40 16.9t-16.9 40.4 16.9 40.5 40.5 16.9 40.4-16.9 16.9-40z" /></svg>