<svg height="512" width="475.1" xmlns="http://www.w3.org/2000/svg"><path d="m352.3 84.5q47.1 0 80.9 33.3t33.7 80.9-33.7 80.9-80.9 33.7h-85.5v85.5h56.8l-86 86.1-85-86.1h56.8v-85.5h-86q-47.1 0-80.9-33.7t-33.8-80.9 33.8-80.9 80.9-33.3q5.6 0 15.4 1 14.8-26.6 41.4-42.5t57.9-15.9q30.7 0 57.8 15.9t42 42.5q9.7-1 15.4-1z m0 171q23 0 39.9-16.9t16.9-40.5-16.9-40.4-40.5-16.9-40.4 16.9-16.9 40.4h-57.3q0-55.8 46-91.1-16.9-23-46-23-23.1 0-40 16.9t-16.9 39.9q0 10.8 3.6 20l-53.2 19.9q-7.7-18.4-7.7-39.4-22.5 1-40 17.4t-17.4 39.4 16.9 40 40 16.9h228.8z" /></svg>