<svg height="512" width="475.1" xmlns="http://www.w3.org/2000/svg"><path d="m294.9 312.8v57.4h-28.1v85q0 11.7-8.8 20.4t-20.4 8.8-20-8.8-8.7-20.9v-85h-28.7v-57.4h28.7v-257.5q0-12.3 8.7-20.5t20-8.2q12.3 0 21 8.2t8.7 20v257.5h28.1z m171.5-171.5v57.4h-28.1v256.5q0 11.7-8.7 20.4t-21 8.8q-11.8 0-20-8.8t-8.2-20.9v-256.6h-28.7v-57.3h28.7v-86q0-12.3 8.2-20.5t20.5-8.2 21 8.2 8.7 20v86h28.1z m-343 57.4v56.8h-28.2v199.7q0 11.7-8.2 20.4t-20.4 8.8q-11.8 0-20.5-8.8t-8.7-20.9v-199.7h-28.7v-56.9h28.7v-143.3q0-12.3 8.2-20.5t20.4-8.2 20.5 8.2 8.2 20v143.3h28.2z" /></svg>