<svg height="512" width="475.1" xmlns="http://www.w3.org/2000/svg"><path d="m324.1 84.5q-35.8 0-60.9 25.1t-25.6 60.4q0 7.2 2 16.4l5.6 29.2q-29.6 29.6-89.6 89.6t-89 89v33.8h56.8v-56.8h57.3v-57.3h56.9v-24.1l40.9-40.5 29.2 5.7q9.2 1.5 15.9 1.5 35.8 0 60.9-25.1t25.1-60.9-25.1-60.4-60.4-25.1z m0-57.4q59.4 0 100.9 42t41.9 100.9-41.9 101.4-101.4 41.9q-14.4 0-26.1-2.5l-2.6 2.5v57.4h-57.3v56.8h-56.9v57.4h-171.5v-114.2l174.1-174.1q-2.6-11.8-2.6-26.6 0-58.9 42-100.9t101.4-42z m-29.2 142.4q0-28.2 28.7-28.2t28.7 28.2q0 29.2-28.7 29.2t-28.7-29.2z" /></svg>