<svg height="512" width="475.1" xmlns="http://www.w3.org/2000/svg"><path d="m9.2 85q0-29.2 28.7-29.2t28.7 29.2q0 28.2-28.7 28.2t-28.7-28.2z m114.2 28.2v-57.4h343v57.4h-343z m0 86q0-29.2 29.2-29.2 28.1 0 28.1 29.2 0 28.1-28.1 28.1-29.2 0-29.2-28.1z m114.2 28.1v-57.3h228.8v57.3h-228.8z m-114.2 200.2q0-28.7 29.2-28.7 28.1 0 28.1 28.7 0 28.2-28.1 28.2-29.2 0-29.2-28.2z m114.2 28.2v-56.9h228.8v56.9h-228.8z m0-142.4q0-28.6 29.2-28.6 28.1 0 28.1 28.6 0 28.2-28.1 28.2-29.2 0-29.2-28.2z m114.7 28.2v-56.8h114.1v56.8h-114.1z" /></svg>