<svg height="512" width="361.0" xmlns="http://www.w3.org/2000/svg"><path d="m180.7 255.5q-23.5 0-40.4-16.9t-16.9-39.9v-114.2q0-23.6 16.9-40.5t40.4-16.9 40.5 16.9 16.9 40.5v114.2q0 23-16.9 39.9t-40.5 16.9z m57.4 171.5q23.5 0 40.4 16.9t16.9 40.5h-228.3q0-23.6 16.9-40.5t39.9-16.9h29.2v-59.9q-61.5-10.7-102.4-58.4t-41-110.6v-27.6q0-12.3 8.2-21t20.5-8.7q11.8 0 20.5 8.7t8.7 21v27.6q0 47.1 33.3 80.9t80.9 33.8 80.9-33.8 33.7-80.9v-27.6q0-12.3 8.8-21t20.4-8.7 20 8.7 8.7 21v27.6q0 63-41 110.6t-102.4 58.4v59.9h28.2z" /></svg>