<svg height="512" width="475.1" xmlns="http://www.w3.org/2000/svg"><path d="m409.1 370.2q23.5 0 40.4 16.9t16.9 40.4-16.9 40.5-40.4 16.9-40.5-16.9-16.9-40.5q0-9.2 4.1-19.9l-86.5-62.5q-25.1 25.6-60.4 25.6t-60.9-25.6-25.6-60.9q0-4.6 1.5-13.4l-68.6-22.5q-8.2 7.2-18.4 7.2-12.3 0-20.5-8.7t-8.2-20.5 8.2-20 20.5-8.2q10.2 0 17.4 6.7t9.7 16.4l69.1 23q10.8-21 31.3-33.3t44.5-12.2q26.6 0 49.1 15.8l101.9-101.9q-8.2-15.3-8.2-28.1 0-23.6 16.9-40.5t40.5-16.9 40.4 16.9 16.9 40.5-16.9 40.4-40.4 16.9q-13.3 0-28.2-8.7l-101.9 102.4q15.9 22.5 15.9 49.2 0 18.9-8.7 37.3l86.5 62q16.9-13.3 36.4-13.3z" /></svg>