<svg height="512" width="475.1" xmlns="http://www.w3.org/2000/svg"><path d="m238.1 27.1q94.7 0 161.8 67.1t67 161.8-67 161.8-161.8 67.1-161.8-67.1-67.1-161.8 67.1-161.8 161.8-67.1z m0 57.4q-54.8 0-98.8 31.7t-62.5 82.5h322q-18.4-50.7-62.4-82.5t-98.8-31.7z m-0.5 199.7q12.3 0 21-8.7t8.7-20.5q0-12.3-8.7-20.5t-20.5-8.2-20 8.2-8.7 20.5 8.7 20.5 20 8.1z m-171-28.7q0 63.5 40.4 111.1t101.9 57.8q-1-70.1-42.5-119.2t-99.8-49.2z m200.2 168.4q61.4-10.2 101.8-57.8t40.5-111.1q-58.4 0-99.9 49.1t-42.4 119.3z" /></svg>