<svg height="512" width="475.1" xmlns="http://www.w3.org/2000/svg"><path d="m266.8 226.8v-82.9q30.7 8.2 52.7 30.7t30.2 52.7h-82.9z m0 57.9h82.9q-8.2 30.2-30.2 52.7t-52.7 30.7v-82.9z m-57.9-57.9h-82.9q8.1-30.2 30.2-52.7t52.7-30.7v82.9z m0 57.9v82.9q-30.7-8.2-52.7-30.7t-30.2-52.7h82.9z m57.9-199.7v-57.9q77.8 9.8 133.6 65.6t66.5 134.6h-57.8q-9.2-54.8-48.7-93.7t-93.1-48.1z m-199.7 141.8h-57.9q9.7-77.8 65.6-134.1t134.6-66.1v57.9q-54.3 9.2-93.7 48.1t-48.6 93.7z m141.8 199.7v57.9q-78.9-9.8-134.7-66.1t-65.5-134.1h57.9q9.2 54.7 48.6 93.7t93.7 48.1z m199.7-141.8h57.8q-10.7 78.3-66.5 134.1t-133.7 65.6v-57.9q53.8-9.2 93.2-48.1t48.7-93.7z" /></svg>