<svg height="512" width="475.1" xmlns="http://www.w3.org/2000/svg"><path d="m466.4 84.5v56.8h-57.3v257q0 35.4-25.1 61t-60.9 25.6h-171q-35.9 0-61-25.6t-25.1-61v-257h-57.3v-56.8h114.2q0-23.6 16.9-40.5t40.4-16.9h114.2q23.6 0 40.4 16.9t16.9 40.5h114.2z m-114.1 313.8v-257h-228.9v257q0 12.3 8.7 20.5t21 8.2h171q11.8 0 20.5-8.2t8.7-20.5z m-199.7-57.3q0-28.2 28.1-28.2 28.7 0 28.7 28.2 0 29.2-28.7 29.2-28.1 0-28.1-29.2z m0-114.2q0-28.1 28.1-28.1 28.7 0 28.7 28.1 0 28.7-28.7 28.7-28.1 0-28.1-28.7z m114.2 114.2q0-28.2 28.1-28.2 28.7 0 28.7 28.2 0 29.2-28.7 29.2-28.1 0-28.1-29.2z m0-114.2q0-28.1 28.1-28.1 28.7 0 28.7 28.1 0 28.7-28.7 28.7-28.1 0-28.1-28.7z" /></svg>