<svg height="512" width="475.1" xmlns="http://www.w3.org/2000/svg"><path d="m352.3 84.5h114.1v56.8h-57.3v257q0 35.4-25.1 61t-60.9 25.6h-171q-35.9 0-61-25.6t-25.1-61v-257h-57.3v-56.8h114.2q0-23.6 16.9-40.5t40.4-16.9h114.2q23.6 0 40.4 16.9t16.9 40.5z m-171.6 285.7q12.3 0 20.5-8.7t8.2-20.5-8.2-20-20.5-8.2-20.4 8.2-8.2 20q0 12.3 8.2 21t19.9 8.7z m0-114.7q12.3 0 20.5-8.7t8.2-20.5-8.2-20-20.5-8.2-20.4 8.2-8.2 20q0 12.3 8.2 20.5t19.9 8.2z m114.2 114.7q12.3 0 20.5-8.7t8.2-20.5-8.2-20-20.5-8.2-20.5 8.2-8.2 20q0 12.3 8.2 21t20 8.7z m0-114.7q12.3 0 20.5-8.7t8.2-20.5-8.2-20-20.5-8.2-20.5 8.2-8.2 20q0 12.3 8.2 20.5t20 8.2z" /></svg>