<svg height="512" width="417.2" xmlns="http://www.w3.org/2000/svg"><path d="m0 331.8q0-4.1 2.6-6.7l52.2-62.4 11.2 13.8 40 49.1q2.5 3.1 2 7.2t-3.6 6.1q-5.6 4.1-11.2 0l-11.8-9.7q8.2 31.2 32.3 51.7t58.3 28.2q3.1 0 5.2 0t5.1-3.6 3-10.2v-199.2q0-5.1-3-8.2t-6.2-3.6l-2.5-0.5h-20.5q-10.3 0-16.9-7.2t-7.2-16.9 7.2-16.9 17.4-7.1h21q1 0 2-0.5t2.1-1.1 2.5-1.5 2.1-2 1.5-3.1 0.5-4.1v-5.1q-15.8-7.2-25.6-21.5t-9.7-32.8q0-24.1 17.4-41.5t41.5-17.4 42 17.4 17.4 41.5q0 17.9-9.7 32.8t-25.6 21.5v5.1q0 2 0.5 4.1t1.5 3.1 2.1 2 2.5 1.5 2.1 1.1 1.5 0.5h22q9.7 0 16.9 7.1t7.2 16.9q0 9.8-7.2 16.9t-16.9 7.2h-21q-1 0-3 0.5t-5.2 3.6-3.6 8.2v199.2q0 7.1 3.1 10.2t5.7 3.6 5.1 0q34.3-7.7 58.3-28.2t32.3-51.7l-11.8 9.7q-3.1 2.6-6.6 2.1t-6.2-3.1q-4.1-6.1 0-11.8l40-49.1 10.7-13.8 52.2 62.4q2.6 3.1 2.1 7.7t-3.6 7.2q-3.1 2.5-7.2 2.5t-6.6-2.5l-15.4-12.8q-8.7 52.2-44.5 91.6t-87.6 52.3q-0.5 0.5-1 0.5-7.2 1.5-12.8 6.6t-7.2 10.8q-2 8.2-8.7 13.3t-14.8 5.1q-8.2 0-14.9-5.1t-8.2-13.3q-1.5-6.2-7.1-10.8t-12.8-6.6q-0.5 0-1.1-0.5-51.2-13.4-87.5-52.3t-44.6-91.6l-14.8 12.8q-3.1 2.5-7.7 2.5t-7.7-4.1q-2.5-3-2.5-6.6z m179.2-267.8q0 9.7 5.1 17.4v-2.6q0-10.2 7.2-16.8t16.9-7.2 16.9 6.6 7.1 16.9v2.6q5.7-8.2 5.7-17.4 0-11.8-8.7-20.5t-21-8.7-21 8.7-8.7 20.5z" /></svg>