<svg height="512" width="455.0" xmlns="http://www.w3.org/2000/svg"><path d="m0 261.1q0-100.8 66.6-170.5 70.1-73.7 179.2-73.7 89.6 0 147.4 50.7 62 53.2 62 141.8 0 69.1-39.5 119.3-38.9 50.2-89 50.2-25.6 0-40-15.9-13.8-15.9-13.8-33.3 0-0.5 0-2t0-2.6 0-2.5 0-3.1q-11.3 22.5-24.1 34.8-23.5 23.6-57.3 23.6t-56.8-26.7q-23.1-26.6-23.1-74.2 0-55.3 34.8-103.9 35.4-48.7 85-48.7 29.2 0 46.1 17.9 12.8 14.4 16.9 31.8l10.2-38.4h53.3l-36.4 133.1q-1.5 6.1-3.5 14.3t-2.6 9.8q-1.5 7.1-1.5 13.8 0 9.2 5.6 17.4t17.9 8.2q24.1 0 49.2-34.3 24.5-34.8 24.5-91.7 0-83.9-67-121.3-41-23-93.7-23-96.3 0-154.1 64-52.3 57.3-52.3 138.2 0 90.1 62 142.3 54.8 46.6 132.6 46.6 53.8 0 100.3-21.5 25.6-11.2 52.8-32.2l6.6-5.2q2.1-1.5 5.2-3t6.6-1.6 7.7 2.1 6.6 8.2q3.1 8.2 1.6 14.3t-4.1 9.7l-3.1 3.6q-39.9 33.8-86.5 51.7-47.1 18-96.8 18-117.2 0-181.7-79.4-53.3-65.5-53.3-155.7z m174.1 21.5q0 22 9.7 36.4 9.2 13.8 26.6 13.8 30.2 0 49.7-49.7 18.9-50.1 18.9-78.3 0-16.4-8.7-27.6-9.2-10.8-24-10.8-29.7 0-50.7 39.9-21 39.5-21 76.8z" /></svg>