<svg height="512" width="424.8" xmlns="http://www.w3.org/2000/svg"><path d="m0 410.6q0 35.4 24.6 60.4 25.1 25.1 59.9 25.1t59.9-25.1l246.8-247.8q33.2-33.2 33.2-81.4 0-47.6-33.2-80.9t-80.4-33.3-80.4 33.3l-187.4 188.4 28.2 28.7 187.4-188.9q22-22 52.7-22t52.7 22q21.5 21.5 21.5 52.2t-21.5 52.7l-246.8 247.9q-13.3 13.3-31.7 13.3t-31.7-13.3q-12.8-12.8-12.8-31.8t12.8-31.7l205.3-206.9q4.6-4.6 10.7-4.6t10.8 4.6q4.1 4.1 4.1 10.8 0 6.1-4.1 10.2l-154.1 155.7 28.1 28.6 154.1-155.6q16.4-16.4 16.4-38.9 0-23.6-16.4-39.5-15.8-16.3-38.4-16.3t-38.4 16.3l-205.8 206.9q-24.6 25.1-24.6 60.4z" /></svg>