<svg height="512" width="540.0" xmlns="http://www.w3.org/2000/svg"><path d="m0 386.6v-260.1q0-33.3 24.1-56.9t57.3-23.5h377.4q33.2 0 57.3 23.5t24.1 56.9v260.1q0 32.7-24.1 56.3t-57.3 23.5h-377.4q-33.3 0-57.3-23.5t-24.1-56.3z m58.4-260.1q0 9.2 6.6 15.8t15.9 6.7q9.2 0 15.9-6.7t6.6-15.8-6.6-15.9-15.9-6.7-15.9 6.7-6.6 15.9z m91.6 125.4q0 32.3 15.9 59.9t43.5 43.5 59.9 15.9 59.9-15.9 43.5-43.5 15.9-59.9-15.9-59.9-43.5-43.5-59.9-15.9-59.9 15.9-43.5 43.5-15.9 59.9z m45.1 0q0 31.2 22 53.3t52.7 22 52.8-22 22-53.3q0-31.2-22-52.7t-53.3-22-53.2 22-22.1 52.7z" /></svg>