<svg height="512" width="521.2" xmlns="http://www.w3.org/2000/svg"><path d="m1 210.4q2.6-4.1 10.3-4.1h35.3q8.7-40.4 30.7-75.2t52.2-60.4 70.2-40 81.9-14.3q48.6 0 93.2 18.9t76.8 51.2 51.2 76.3 18.9 93.2-18.9 93.2-51.2 76.8-76.8 51.2-93.2 18.9q-82.4 0-147.5-51.2-12.2-9.7-14.3-25.1t7.7-27.1q9.7-12.3 25.1-14.3t27.1 7.6q45.6 34.9 101.9 34.9 45.1 0 82.9-22.1t59.9-60.4 22.1-82.9q0-33.3-13.3-64t-35.4-52.7-52.7-35.4-64-13.3q-54.8 0-98.3 32.3t-59.4 83.4h22q7.7 0 10.2 4.1t-1.5 10.3l-69.1 113.6q-3.1 4.1-7.2 4.1-1.5 0-3.6-1t-2.5-2.1l-0.5-1-69.7-113.6q-4.1-6.2-1.5-10.3z" /></svg>