<svg height="512" width="480.0" xmlns="http://www.w3.org/2000/svg"><path d="m0 256q0-48.6 18.9-93.2t51.2-76.8 76.8-51.2 93.2-18.9 93.2 18.9 76.8 51.2 51.2 76.8 19 93.2-19 93.2-51.2 76.8-76.8 51.2-93.2 18.9-93.2-18.9-76.8-51.2-51.2-76.8-18.9-93.2z m59.9 0q0 49.2 24.1 90.1t65.5 65.5 90.1 24.1q49.2 0 90.1-24.1t65.6-65.5 24-90.1q0-48.6-24-90.1t-65.6-65.5-90.1-24.1q-36.3 0-69.6 14.3t-57.4 38.4-38.4 57.4-14.3 69.6z m150 0v-114.7q0-12.3 8.7-21t21-8.7 21 8.7 8.7 21v102.4l72.7 72.7q8.7 8.7 8.7 21t-8.7 21-21 8.7q-12.3 0-21-8.7l-81.4-81.4q-0.5-0.5-2-2.6t-1.6-2q-0.5-0.5-1-2.1l-0.5-1.5t-0.5-1.5q0 0-1-2.6-0.5-2-0.5-2.6-0.6-3-0.6-6.1z" /></svg>