<svg height="512" width="554.7" xmlns="http://www.w3.org/2000/svg"><path d="m0 335.4v-159.8q0-4.1 4.6-6.6t10.8-2.6 10.2 2.6 4.1 6.6v159.8q0 4.1-4.1 6.6t-10.2 3.1-10.8-3.1-4.6-6.6z m63.5 30.2v-219.2q0-4.1 4.6-6.6t10.7-3.1q6.2 0 10.3 3.1t4.6 6.6v219.2q0 4.1-4.6 6.6t-10.3 2.6q-6.1 0-10.7-2.6t-4.6-6.6z m72.2 19.9v-259q0-8.2 5.6-13.9t13.8-5.6h244.3q8.2 0 13.8 5.6t5.6 13.9v259q0 8.2-5.6 13.9t-13.8 5.6h-244.3q-8.2 0-13.8-5.6t-5.6-13.9z m44.5-25.1h194.1v-208.8h-194.1v208.8z m281.1 5.2v-219.2q0-4.1 4.1-6.6t10.2-3.1 10.8 3.1 4.6 6.6v219.2q0 4.1-4.6 6.6t-10.8 2.6-10.2-2.6-4.1-6.6z m63.5-30.2v-159.8q0-4.1 4.1-6.6t10.2-2.6 10.3 2.6 4.1 6.6v159.8q0 4.1-4.1 6.6t-10.3 3.1-10.2-3.1-4.1-6.6z" /></svg>