<svg height="512" width="554.7" xmlns="http://www.w3.org/2000/svg"><path d="m0 336.4q0 4.1 4.1 6.6t10.2 3.1 10.8-3.1 4.6-6.6v-160.8q0-4.1-4.6-6.6t-10.8-2.6-10.2 2.6-4.1 6.6v160.8z m63.5 30.2q0 4.1 4.6 6.6t10.7 3.1 10.8-3.1 4.6-6.6v-220.7q0-4.1-4.6-6.6t-10.8-2.6-10.7 2.6-4.6 6.6v220.7z m72.2 20q0 8.2 5.6 13.8t13.8 5.6h244.3q8.2 0 13.8-5.6t5.6-13.8v-260.1q0-8.7-5.6-14.4t-13.8-5.6h-244.3q-8.2 0-13.8 5.6t-5.6 14.4v260.1z m325.6-20v-220.7q0-4.1 4.6-6.6t10.3-2.6q6.1 0 10.7 2.6t4.6 6.6v220.7q0 4.1-4.6 6.6t-10.7 3.1q-6.2 0-10.3-3.1t-4.6-6.6z m63.5-30.2v-160.8q0-4.1 4.6-6.6t10.8-2.6 10.7 2.6 4.6 6.6v160.8q0 4.1-4.6 6.6t-10.7 3.1-10.8-3.1-4.6-6.6z" /></svg>