<svg height="512" width="480.0" xmlns="http://www.w3.org/2000/svg"><path d="m0 256q0-49.2 18.9-93.2t51.2-76.3 76.3-51.2 93.2-18.9q48.7 0 93.2 18.9t76.8 51.2 51.2 76.3 18.9 93.2q0 48.6-18.9 93.2t-51.2 76.8-76.8 51.2-93.2 18.9q-49.1 0-93.2-18.9t-76.3-51.2-51.2-76.8-18.9-93.2z m45.1 0q0 25.1 6.6 50.7 17.9-48.7 52.7-84-0.5-1-1-3.1t-0.5-2.5h-2.5q-25.1 0-52.3 7.2-2.5 16.3-2.5 31.7z m10.2-62.5q23.5-4.6 45.1-4.6 1 0 2.5 0t2.6 0q5.1-10.2 14.8-16.9t21.5-6.1q14.4 0 26.1 9.2 46.1-23.5 99.4-24.6 2.5-5.6 5.6-9.7-37.4-49.2-96.3-69.6-43 14.8-75.2 46.6t-46.6 74.7z m13.8 156.2q21.5 39.4 58.4 66t82.4 33.3q43.5-25.1 70.2-65.5-10.3-11.3-10.3-26.6 0-17.4 12.8-29.7-17.9-32.3-45.5-57.4t-62.5-37.9q-12.3 16.9-33.3 16.9-9.7 0-18.9-5.1-43 45.1-54.3 106z m114.2-149q0 0.5 0.5 2.1t0 2q41 15.4 73.2 44t52.8 66.6q6.1-24.6 6.1-47.6 0-28.2-9.7-59.9h-0.5q-13.9 0-24.6-8.2t-14.9-20.5q-44 1.5-83.4 21z m40.4-138.2q42.5 24.5 72.7 65 4.7-1 9.3-1 15.8 0 27.1 10.7t13.3 26.1q46.6 15.4 83 46.6-16.4-64-68.7-106t-120.3-41.9q-2.5 0-5.1 0t-6.1 0.5-5.2 0z m33.8 388.1q24.6-2.1 51.2-11.8 0-1.6 0.5-5.6t0.6-6.7q0-11.3-2.1-28.7-0.5 0-1.5 0-19.5 29.7-48.2 53.3z m75.8-252.5q10.8 36.4 10.8 70.2 0 28.7-7.2 56.3 15.9 12.3 15.9 32.3 0 21-18.5 34.3 2.6 17.9 2.6 33.8 44.5-25.6 71.2-70.7t26.6-97.8v-0.5q-38.9-47.1-95.2-65.5-3.6 4.6-6.7 7.6z" /></svg>