<svg height="512" width="480.0" xmlns="http://www.w3.org/2000/svg"><path d="m0 255.5q0-48.7 18.9-92.7t50.7-76.3 76.3-51.2 93.2-18.9q49.2 0 93.7 18.9t76.8 51.2 51.2 76.3 18.9 92.7q0 49.1-18.9 93.7t-51.2 76.8-76.8 51.2-93.7 18.9-93.2-18.9-76.3-51.2-50.7-76.8-18.9-93.7z m39.9 10.2q1.1 35.4 14.9 67.6t38.4 57.9q29.7-45.1 72.2-77.9t94.2-50.6q-5.6-11.3-11.8-28.2-92.2 32.3-179.7 32.3-4.1 0-13.3-0.6t-14.4-0.5z m1.6-39.9h26.6q84.5 0 162.3-28.2-31.2-58.3-82.4-119.3-42 22.6-70.2 61.5t-35.8 86z m80.9 193.5q55.8 37.4 116.7 37.4 33.8 0 63.5-10.7-6.7-73.3-29.7-144.4-46.1 15.3-84.5 45.5t-66 72.7z m65-355.3q46.6 57.9 79.9 119.3 60.4-27.1 110.6-70.7-27.7-27.1-63.5-41.4t-75.3-14.4q-23 0-51.7 7.2z m97.3 156.7q2 5.1 6.1 16.4t6.7 15.8q39.4-7.7 65-7.7 30.2 0 76.3 10.3 0-57.9-35.3-112.1-56.9 47.6-119.3 76.8z m26.6 70.6q20 60.4 29.7 137.2 36.3-20.9 60.9-55.8t33.3-77.3q-36.9-8.7-72.2-8.7-27.1 0-51.7 4.6z" /></svg>