<svg height="512" width="480.0" xmlns="http://www.w3.org/2000/svg"><path d="m0 256q0-48.6 18.9-93.2t51.2-76.8 76.8-51.2 93.2-18.9 93.2 18.9 76.8 51.2 51.2 76.8 19 93.2-19 93.2-51.2 76.8-76.8 51.2-93.2 18.9-93.2-18.9-76.8-51.2-51.2-76.8-18.9-93.2z m93.7-0.5q0 30.2 11.3 57.3t31.2 47.1 46.6 31.3 56.8 11.7q40 0 73.7-19.4t53.3-53.3 19.4-73.7q0-39.9-19.4-73.2t-53.3-53.3-73.7-19.4q-30.2 0-56.8 11.8t-46.6 31.2-31.2 46.6-11.3 56.8z m24.1 6.6q3 0 8.7 0.6t8.2 0.5q53.2 0 110-20 3.1 8.2 7.7 17.4-31.2 10.8-57.8 31.2t-44.1 47.7q-31.2-32.3-32.2-76.3z m0.5-24.5q4.6-28.7 22-52.8t43-37.3q30.7 36.8 50.2 72.7-46.6 16.9-99.4 16.9h-16.3z m49.6 118.2q34.9-53.2 92.2-72.2 14.3 42.5 17.9 88.6-17.4 6.2-38.9 6.2-36.9 0-71.2-22.6z m40-217q18.4-4.7 31.2-4.7 49.2 0 84.5 34.3-30.7 27.2-67.6 43.1-19.5-36.4-48.6-72.7z m59.4 95.7q37.3-16.9 72.7-47.1 21.5 32.2 21.5 68.6-28.2-6.7-46.6-6.7-15.4 0-40 4.7-1-3.1-4.1-9.8t-4-9.7z m16.3 43q15.4-2.6 31.8-2.6 21.5 0 44 5.7-5.6 26.1-21 47.1t-37.3 33.8q-6.2-48.2-18-84z" /></svg>