<svg height="512" width="300.7" xmlns="http://www.w3.org/2000/svg"><path d="m0 345.6q0-7.2 0.5-13.8h-0.5q0-29.2 6.1-59.9t13.9-52.8 14.8-47.6 9.2-44-3-42q1.5 0 4.1 1.5t10.7 6.7 15.9 14.8 17.9 26.7 18.4 40.9q13.9-12.8 24.1-26.6t18.9-32.8 13.9-44.5 4.6-56.3q2.5 1.5 7.7 5.1t18.4 16.4 26.1 29.2 27.6 44 26.2 59.9 18.4 77.8 7.7 97.8q0 41-20 75.3t-54.8 54.8-75.2 20.4q-41 0-75.8-20.4t-54.8-54.8-20-75.3z m97.3 37.4q0 22 15.9 37.9t37.3 15.8 37.4-15.8 15.9-37.9q0-25.1-4.6-46.1t-11.8-33.8-13.8-21-11.8-11.8l-4.6-3.5q0 20.9-5.6 33.7t-16.4 22.6q-4.6-12.8-10.8-21t-9.7-9.7l-3.6-1.6q2.6 10.3-0.5 24.1t-8.7 30.7-5.1 32.8q0 1.5 0 4.6z" /></svg>