<svg height="512" width="480.0" xmlns="http://www.w3.org/2000/svg"><path d="m0 256q0 66 32.3 120.3 32.2 55.8 87.5 87.6t120.3 31.7q65.1 0 120.9-31.7 55.3-32.3 87.5-87.6t31.8-120.3q0-66-31.8-120.8-32.2-55.3-87.5-87.6t-120.4-31.7q-66 0-120.3 32.2-55.8 32.3-87.5 87.6t-31.8 120.3z m39.9 0q0-39.9 15.9-77.3t43-64q27.2-27.1 64-43t76.8-15.9 77.3 15.9 64.5 43q27.2 27.1 42.5 64t15.9 77.3q0 43-17.4 81.9t-49.7 67.6-72.7 41v-70.7q0-26.1-21.5-41 52.8-4.6 77.3-26.6t24.6-69.6q0-36.9-22.5-62.5 4.6-13.3 4.6-26.1 0-18.4-8.7-33.8-16.9 0-30.2 5.7t-32.3 18.9q-23-5.1-48.1-5.1-28.2 0-52.7 5.6-19-13.8-32.3-19.4t-30.7-5.7q-8.2 15.9-8.2 33.8 0 12.8 4.1 26.1-22.5 24.6-22.5 62 0 47.6 24 69.6t77.9 26.6q-14.4 9.8-20 27.7-12.3 4.1-25.6 4.1-10.3 0-17.4-4.6-2.1-1.1-4.1-2.6t-4.1-3.6-3.1-3-3.1-4.1-2.5-3.6-3.1-4.1-2.6-3.6q-11.7-15.4-28.1-15.4-8.7 0-8.7 3.6 0 1.6 4.1 5.1 8.2 7.2 8.7 7.7 6.1 4.6 6.6 6.2 7.2 9.2 10.8 19.9 13.8 31.3 48.1 31.3 5.7 0 21.5-2.6v52.7q-40.9-12.8-72.7-40.9t-49.6-67.6-17.5-81.9z" /></svg>