<svg height="512" width="480.0" xmlns="http://www.w3.org/2000/svg"><path d="m0 406q0 20 8.7 34.8 15.4 28.2 53.3 42 32.2 12.8 69.6 12.8t68.1-10.2 51.2-26.6 31.2-37.9 10.8-44.6q0-32.2-17.4-55.3-13.4-17.9-35.4-34.8-7.7-5.6-16.4-13.8-17.4-14.4-17.4-28.7 0-16.4 23.1-37.4 7.7-6.6 18.9-18.4 10.3-10.7 16.4-27.6t6.1-36.9q0-26.1-11.2-49.2t-31.8-35.8h39l38.9-22.5h-126q-27.1 0-53.7 5.6-40.5 9.2-67.6 41t-27.2 72.2q0 41.9 30.8 70.6t73.7 28.7q4.6 0 19.9-1.6-0.5 3.1-4 12.3-2.1 5.2-2.1 12.3 0 20 18.4 43-18.9 0-43.5 3.6-56.3 9.2-86.5 30.7-17.4 12.8-27.7 32.8t-10.2 38.4z m53.2-13.3q0-17.4 7.7-31.2 13.9-24.1 48.2-34.8 29.7-9.3 61.9-9.3 4.6 0 14.3 0.6 0 0 8.2 5.6t10.3 6.6q7.1 4.6 18.4 13.9 0.5 0.5 4.6 4.1t6.7 6.6 4.6 5.1q0.5 1.1 1.5 2.6t2.1 3.6 2 3.1q3.1 4.6 5.1 9.7 4.1 12.3 4.1 22 0 17.9-7.7 31.2t-21.5 21.5q-26.1 14.9-61.4 14.9-38.9 0-71.7-17.9-16.9-8.7-27.1-24.1t-10.3-34.8z m31.3-288.3q0-29.1 15.3-48.1t41.5-19.4q18.4 0 33.8 11.2t24.6 30.7q17.9 37.9 17.9 74.3 0 30.2-12.8 47.1t-39.9 16.9q-14.4 0-28.2-7.7-23-12.8-38.9-46.1-13.3-29.2-13.3-58.3z m210.4 22.1h73.7v73.7h36.9v-73.7h73.7v-36.9h-73.7v-73.2h-36.9v73.2h-73.7v36.9z" /></svg>