<svg height="512" width="467.0" xmlns="http://www.w3.org/2000/svg"><path d="m0.5 329.2q2.6-12.8 13.3-21.5t23.6-8.7h76.3l18.4-86.5h-69.6q-14.4 0-23.6-10.8-8.7-11.2-5.6-26.1 2.5-12.8 12.8-21.5t23.5-8.7h76.3l16.4-76.8q2.6-12.8 13.3-21.5t23.6-8.7q14.8 0 23.5 10.8t5.7 26.1l-14.9 70.1h85.5l16.4-76.8q2.6-12.8 13.3-21.5t23.6-8.7q14.8 0 23.5 10.8 9.2 10.2 5.6 26.1l-14.8 70.1h69.1q14.3 0 23.6 10.8 8.7 11.2 5.6 26.1-2.6 12.8-12.8 21.5t-23.6 8.7h-76.2l-19 86.5h69.6q14.4 0 23.6 10.8 8.7 11.2 5.6 26.1-2.5 12.8-13.3 21.5t-23.5 8.7h-76.8l-15.9 76.8q-2.6 12.8-13.3 21.5t-23.6 8.7q-14.3 0-23.5-10.8-8.7-11.2-5.7-26.1l14.9-70.1h-86l-16.4 76.8q-2.6 12.8-13.3 21.5t-23.6 8.7q-14.3 0-23.5-10.8-8.7-11.2-5.7-26.1l14.9-70.1h-69.6q-14.9 0-23.6-11.3-9.2-10.2-5.6-26.1z m180.7-30.2h85.6l18.4-86.5h-86z" /></svg>