<svg height="512" width="514.3" xmlns="http://www.w3.org/2000/svg"><path d="m0 347.6v-102.4q0-13.3 8.7-23l47.6-62.5q10.8-15.3 29.7-15.3h33.8q57.4-15.4 137.7-15.4t137.3 15.4h33.7q19 0 29.7 15.3l47.7 62.5q8.7 10.2 8.7 23v102.4q0 14.9-10.3 25.1t-25.1 10.3h-442.3q-14.9 0-25.6-10.3t-10.3-25.1z m50.7-30.7q0 8.2 5.6 13.9t13.8 5.6h45.1q7.7 0 13.3-5.6t5.6-13.9-5.6-13.8-13.3-5.6h-45.1q-8.1 0-13.8 5.6t-5.6 13.8z m37.4-120.8q0 11.3 22.5 21t61.4 15.3 85 5.7 85-5.7 61.5-15.3 22.5-21-22.5-21-61.5-15.4-85-5.6-85 5.6-61.4 15.4-22.5 21z m74.7 120.8q0 8.2 5.6 13.9t13.9 5.6h5.6q7.7 0 13.3-5.6t5.6-13.9-5.6-13.8-13.3-5.6h-5.6q-8.2 0-13.9 5.6t-5.6 13.8z m43.5-120.8q0-5.1 14.9-8.7t35.8-4.1q20.5 0 35.4 4.1t14.8 8.7-14.8 8.7-35.4 3.6q-21 0-35.8-3.6t-14.9-8.7z" /></svg>