<svg height="512" width="480.0" xmlns="http://www.w3.org/2000/svg"><path d="m0 256q0-49.2 18.9-93.2t51.2-76.3 76.3-51.2 93.2-18.9q48.7 0 93.2 18.9t76.8 51.2 51.2 76.3 18.9 93.2q0 48.6-18.9 93.2t-51.2 76.8-76.8 51.2-93.2 18.9q-49.1 0-93.2-18.9t-76.3-51.2-51.2-76.8-18.9-93.2z m59.9 0q0 36.4 14.3 69.6t38.4 57.4 57.4 38.4 69.6 14.3 69.6-14.3 57.4-38.4 38.4-57.4 14.3-69.6-14.3-69.6-38.4-57.4-57.4-38.4-69.6-14.3-69.6 14.3-57.4 38.4-38.4 57.4-14.3 69.6z m143.9-87q0-14.4 9.7-23.1t26.1-8.7q16.4 0 26.1 8.7t9.8 23.6-9.8 23.5-26.1 8.7q-16.4 0-26.1-8.7t-9.7-23.5z m2 205.8v-153.1h67.6v153.1h-67.6z" /></svg>