<svg height="512" width="480.0" xmlns="http://www.w3.org/2000/svg"><path d="m0 256q0-48.6 18.9-93.2t51.2-76.8 76.8-51.2 93.2-18.9 93.2 18.9 76.8 51.2 51.2 76.8 19 93.2-19 93.2-51.2 76.8-76.8 51.2-93.2 18.9-93.2-18.9-76.8-51.2-51.2-76.8-18.9-93.2z m137.7 66.6q0 15.8 11.3 27.1t27.1 11.3h128q15.9 0 27.2-11.3t11.2-27.1v-63h-47.1q-5.1 18.4-20.5 30.2t-34.8 11.8-34.8-11.8-21-30.2h-46.6v63z m0-94.8h46.6q5.7-18.4 21-29.7t34.8-11.2 34.8 11.2 20.5 29.7h47.1v-32.7q0-15.9-11.2-27.2t-27.2-11.2h-128q-15.8 0-27.1 11.2t-11.3 27.2v32.7z m70.2 15.9q0 13.3 9.2 22.5t22.5 9.3 22.5-9.3 9.3-22.5-9.3-22.5-22.5-9.2-22.5 9.2-9.2 22.5z" /></svg>