<svg height="512" width="354.0" xmlns="http://www.w3.org/2000/svg"><path d="m0 193q0-35.8 13.8-68.6 12.8-31.2 37.9-56.3 24.1-24.1 56.3-37.4 32.3-13.8 68.6-13.8 36.9 0 69.2 13.8 31.7 13.3 56.3 37.4 25.1 25.1 37.9 56.3 13.8 32.8 13.8 68.6t-13.8 68.6q-9.2 20.5-18.5 33.3l-116.7 177.7q-11.3 17.4-27.6 17.4t-27.7-17.4l-116.7-177.7q-11.3-15.9-18.5-33.3-13.8-32.7-13.8-68.6z m111.1 0q0 27.7 18.9 46.6 19.5 19.5 46.6 19.5 27.7 0 46.6-19.5 19.5-18.9 19.5-46.6 0-27.1-19.5-46.6-18.9-19.4-46.6-19.4-27.1 0-46.6 19.4-18.9 19.5-18.9 46.6z" /></svg>