<svg height="512" width="352.8" xmlns="http://www.w3.org/2000/svg"><path d="m0 450.6v-201.3q0-7.1 5.1-12.2t12.3-5.2h23v-75.7q0-27.7 10.3-53.3t28.7-45q18.4-20 43.5-30.8t53.2-10.7q28.2 0 53.3 10.7t43.5 30.8q18.4 19.4 28.7 45t10.2 53.3v75.7h23.6q7.1 0 12.2 5.2t5.2 12.2v201.3q0 3.5-1.1 6.1t-4.1 4.6-5.1 3.1-7.1 3.6q-9.8 4.1-27.2 9.2t-56.3 12.3-75.3 6.6q-77.3 0-158.7-28.6-8.7-3.1-12.8-6.7t-4.6-10.2z m105.5-218.7h141.8v-75.7q0-32.3-21.5-54.8-20.5-21-49.7-21.5-29.2 0-49.6 21.5-21 22.5-21 54.8v75.7z" /></svg>