<svg height="512" width="480.0" xmlns="http://www.w3.org/2000/svg"><path d="m0 392.2q0 43 30.2 73.2t73.2 30.7h36.9q16.9 0 29.2-12.3t12.3-29.1-12.3-29.2-29.2-12.3h-36.9q-8.7 0-15.3-6.2t-6.2-15.3v-272.4q0-8.7 6.2-14.9t15.3-6.1h36.9q16.9 0 29.2-12.3t12.3-29.2-12.3-29.2-29.2-11.7h-36.9q-43 0-73.2 30.2t-30.2 73.2v272.4z m121.9-129q0-16.9 12.2-29.2t29.2-11.8h176.2l-56.4-56.8q-12.3-11.8-12.3-29.2t12.3-29.2q11.8-11.8 29.2-11.8t29.2 11.8l126.5 127q11.7 11.8 11.7 29.2t-11.7 29.2l-124.4 124.4q-11.8 11.7-29.2 11.7t-29.2-11.7q-11.8-11.8-11.8-29.2t12.3-29.2l53.8-53.8h-176.2q-16.9 0-29.2-12.2t-12.2-29.2z" /></svg>