<svg height="512" width="480.0" xmlns="http://www.w3.org/2000/svg"><path d="m0 256q0-49.2 18.9-93.2t51.2-76.3 76.3-51.2 93.2-18.9q48.7 0 93.2 18.9t76.8 51.2 51.2 76.3 18.9 93.2q0 48.6-18.9 93.2t-51.2 76.8-76.8 51.2-93.2 18.9q-49.1 0-93.2-18.9t-76.3-51.2-51.2-76.8-18.9-93.2z m45.1 0q0 39.4 15.3 75.8t41.5 62.4 62.5 41.5 75.7 15.4 75.8-15.4 62.5-41.5 41.4-62.4 15.4-75.8-15.4-75.8-41.4-62.4-62.5-41.5-75.8-15.4-75.7 15.4-62.5 41.5-41.5 62.4-15.3 75.8z m59.9-15.9q0-8.2 6.1-13.8t14.3-5.6h54.8l41.5 63.5 23-133.2h78.4q8.7 0 14.8 5.7t6.2 13.8-6.2 13.8-14.8 5.7h-43.5l-34.9 200.1-87.5-131.5h-32.3q-8.7 0-14.3-5.7t-6.2-13.8z" /></svg>