<svg height="512" width="451.5" xmlns="http://www.w3.org/2000/svg"><path d="m0 60.9q0 9.2 6.7 15.9l406.5 400.4q6.6 6.6 15.9 6.6t15.8-6.6q6.7-6.2 6.7-15.4t-6.7-15.3l-406.5-400.9q-6.7-6.2-15.9-6.2t-15.8 6.2q-6.7 6.6-6.7 15.8z m60.9 223.8v-54.3q0-9.2 6.7-15.9t15.9-6.6q9.2 0 15.8 6.6t6.7 15.9v54.3q0 45.5 32.8 77.8t78.8 32.3q30.2 0 55.3-14.4l32.3 32.3q-29.2 18.9-64 24.5v21.6h70.1q9.2 0 15.9 6.6t6.6 15.4q0 9.2-6.6 15.8t-15.9 6.7h-185.3q-9.3 0-15.9-6.7t-6.7-15.8q0-9.2 6.7-15.4t15.9-6.6h70.1v-21.6q-37.9-5.1-68.6-26.6t-49.2-54.8-17.9-71.6z m73.8-2.6v-37.4l114.6 113.2q-15.8 6.6-31.7 6.6-34.3 0-58.9-24t-24.6-57.9z m0-183.8v-7.7q0-33.8 24.5-57.8t58.9-24.1 58.9 24.1 24.6 57.8v171.5z m195 192q0-1 0-3.1t0-3v-54.3q0-9.2 6.7-15.9t15.9-6.6q9.7 0 15.8 6.6t6.7 15.9v54.3q0 21.5-6.7 44z" /></svg>