<svg height="512" width="314.3" xmlns="http://www.w3.org/2000/svg"><path d="m0 284.7v-54.3q0-9.2 6.7-15.9t15.8-6.6 15.9 6.6 6.7 15.9v54.3q0 45.5 32.7 77.8t79.4 32.3q46.1 0 78.8-32.3t32.8-77.8v-54.3q0-9.2 6.7-15.9t15.8-6.6 15.9 6.6 6.7 15.9v54.3q0 57.8-38.4 100.8t-95.3 51.7v21.6h70.2q9.2 0 15.8 6.6t6.7 15.4q0 9.2-6.7 15.8t-15.8 6.7h-184.9q-9.2 0-15.8-6.7t-6.7-15.8q0-9.2 6.7-15.4t15.8-6.6h70.2v-21.6q-37.9-5.1-68.6-26.6t-49.2-54.8-17.9-71.6z m73.7-2.6v-191.5q0-33.8 24.6-57.8t58.9-24.1q34.3 0 58.4 24.1t24 57.8v191.5q0 33.8-24 57.9t-58.4 24q-34.3 0-58.9-24t-24.6-57.9z" /></svg>