<svg height="512" width="480.0" xmlns="http://www.w3.org/2000/svg"><path d="m0 256q0-48.6 18.9-93.2t51.2-76.8 76.8-51.2 93.2-18.9 93.2 18.9 76.8 51.2 51.2 76.8 19 93.2-19 93.2-51.2 76.8-76.8 51.2-93.2 18.9-93.2-18.9-76.8-51.2-51.2-76.8-18.9-93.2z m102.4-102.4q-3.1 3.6 0.5 11.3l88.1 183.3q4.1 8.2 12.3 11.2t16.3-0.5l36.4-16.9 14.8 14.9 0.6 0.5 6.6 6.6q6.2 6.2 13.3 5.7t11.8-8.2l33.8-59.4 48.1-23.1q7.7-4.1 7.2-8.7t-8.2-8.2l-270.8-109q-8.8-3.1-11.8 0z m51.7 33.3q0.5-1 8.7 3.6l128.5 76.3q7.7 4.6 7.7 10.2t-7.2 9.2q-7.6 3.1-17.9 1.5t-16.9-7.6l-96.2-86.1q-7.2-6.1-6.2-7.1z" /></svg>