<svg height="512" width="472.5" xmlns="http://www.w3.org/2000/svg"><path d="m0 361.5q0 15.8 11.3 27.6l92.1 92.2q10.3 10.2 23.6 11.2t25.1-6.1l-49.2-49.2 21-20.9 49.7 50.1 21-21-50.2-49.6 21-21 49.6 49.6 21-20.9-49.6-50.2 21-21 50.1 49.7 20-20-50.2-49.7 21-21 50.2 49.7 21-21-49.7-50.2 21-21 49.7 50.2 21-21-50.2-49.6 21-21 49.7 50.1 20.9-21-49.6-50.1 21-21 50.1 49.6 21-21-50.1-49.6 21-21 49.1 48.6q6.7-11.2 5.1-24.5t-10.7-23.1l-92.2-92.1q-11.8-11.3-27.6-11.3t-27.7 11.8l-302.1 302q-11.7 11.8-11.7 27.7z" /></svg>