<svg height="512" width="457.0" xmlns="http://www.w3.org/2000/svg"><path d="m5.6 243.2q-11.7-44.5 0-88.6t44.6-76.8q24.6-24.6 56.3-37.4t65.5-12.8q33.3 0 65.1 12.8t56.3 37.4q26.6 26.6 39.4 61t10.8 70.1-18.5 67.6q14.4 4.1 25.1 14.8l89.1 89.1q17.9 17.9 17.9 43.5t-17.9 43.6q-17.9 17.9-43.5 17.9t-43.5-17.9l-88.6-88.6q-10.8-10.3-15.4-25.6-35.8 18.4-76.3 18.4-33.8 0-65.5-12.8t-56.3-37.4q-32.8-32.7-44.6-77.3z m52.3-44q0 47.6 33.2 80.9t81.4 33.2q47.1 0 80.9-33.2t33.3-80.9-33.3-80.9q-33.8-33.3-80.9-33.3t-81.4 33.3q-33.2 33.3-33.2 80.9z" /></svg>