<svg height="512" width="537.0" xmlns="http://www.w3.org/2000/svg"><path d="m0 351.2q0 10.3 7.2 15.4t15.3 3.6q7.7-1.6 10.8-5.7t3.1-13.3v-72.7q0-7.7-5.2-13.3t-13.3-5.1q-7.7 0-12.8 5.1t-5.1 13.3v72.7z m57.3 31.3q0 7.1 5.2 10.7t13.3 3.6q8.2 0 13.3-3.6t5.1-10.7v-169q0-7.7-5.1-12.8t-13.3-5.1q-7.7 0-12.8 5.1t-5.1 12.8v169z m57.4 8.2q0 7.1 5.1 10.7t13.3 3.6q8.2 0 13.3-3.6t5.2-10.7v-154.2q0-7.6-5.2-13.3t-12.8-5.6q-7.6 0-13.3 5.6t-5.6 13.3v154.2z m57.3 0.5q0 13.8 18.5 13.8t18.4-13.8v-249.9q0-21-12.8-23.5-8.2-2.1-16.4 4.6t-8.2 18.9v249.9z m58.4 7.1v-271.8q0-12.8 7.7-15.4 16.9-4.1 33.3-4.1 38.4 0 71.1 17.9t53.3 49.2 23.5 68.6q15.4-6.7 32.3-6.7 34.8 0 59.9 24.6t25.1 59.4q0 34.8-25.1 59.9t-59.4 24.6h-217.6q-2.1-0.5-3.6-2.6t-1-3.6z" /></svg>