<svg height="512" width="480.0" xmlns="http://www.w3.org/2000/svg"><path d="m0 256q0-48.6 18.9-93.2t51.2-76.8 76.8-51.2 93.2-18.9 93.2 18.9 76.8 51.2 51.2 76.8 19 93.2-19 93.2-51.2 76.8-76.8 51.2-93.2 18.9-93.2-18.9-76.8-51.2-51.2-76.8-18.9-93.2z m84 44q0 5.7 4.1 8.7t9.2 2.1q4.6-1 6.1-3.1t1.6-7.7v-42q0-4.6-3.1-7.6t-7.7-3.1-7.7 3.1-3 7.6v42z m33.2 18q0 4 3.1 6.1t7.7 2q4.6 0 7.7-2t3.1-6.1v-97.8q0-4.6-3.1-7.7t-7.7-3.1q-4.1 0-7.2 3.1t-3 7.7v97.8z m32.8 4.6q0 8.2 10.8 8.2 10.2 0 10.2-8.2v-89.6q0-4.6-3.1-7.7t-7.1-3.1q-4.6 0-7.7 3.1t-3.1 7.7v89.6z m33.3 0.5q0 7.7 10.2 7.7 10.8 0 10.8-7.7v-144.9q0-11.8-7.7-13.8-4.6-1.1-9.2 2.5t-4.6 11.3v144.9z m33.8 3.6q-0.5 3 2.5 4.1h125.5q20.5 0 34.8-14.4t14.3-34.8q0-20.5-14.3-34.8t-34.8-14.4q-9.2 0-19 4.1-2.5-33.2-27.6-55.8t-58.4-22.5q-10.2 0-19.4 2.1-4.6 1.5-4.6 9.2v156.6z" /></svg>