<svg height="512" width="480.0" xmlns="http://www.w3.org/2000/svg"><path d="m0 256q0-15.4 11.3-26.1t26.1-10.8h65.5q15.4 0 26.1 10.8t10.8 26.1-10.8 26.1-26.1 10.8h-65.5q-15.4 0-26.1-10.8t-10.8-26.1z m59.4 143.4q0-15.4 10.7-26.2l46.6-46.5q10.8-10.8 26.1-10.8t26.2 10.8q10.7 10.7 10.7 26.1t-10.7 26.1l-46.6 46.6q-10.8 10.7-26.1 10.7t-26.2-10.7q-10.7-10.8-10.7-26.1z m0-286.8q0-15.3 10.7-26.1t26.2-10.7 26.1 10.7l46.6 46.6q10.7 10.8 10.7 26.1t-10.7 26.1-26.2 10.8-26.1-10.8l-47.1-46.5q-10.7-10.8-10.7-26.2z m143.9 346.2v-66.1q0-15.4 10.7-26.1t26.1-10.8 26.1 10.8 10.8 26.1v66.1q0 15.3-10.8 26.1t-26.1 10.7-26.1-10.7-10.7-26.1z m0-340v-65.6q0-15.3 10.7-26.1t26.1-10.7q15.4 0 26.1 10.7t10.8 26.1v65.6q0 15.3-10.8 26.1t-26.1 11.3q-15.3 0-26.1-10.8t-10.7-26.1z m97.2 234q0-15.4 10.8-26.1t26.1-10.8 26.1 10.8l46.6 46.5q10.8 10.8 10.8 26.2t-10.8 26.1q-10.7 10.7-26.1 10.7t-26.1-10.7l-46.6-46.6q-10.8-10.8-10.8-26.1z m0-194.1q0-15.3 10.8-26.1l46.6-46.6q10.7-10.7 26.1-10.7t26.1 10.7q10.8 10.8 10.8 26.1t-10.8 26.1l-46.6 46.6q-10.7 10.8-26.1 10.8t-26.1-10.8-10.8-26.1z m40 96.8q0-15.4 10.7-26.1t26.1-10.8h65.6q15.3 0 26.1 10.8t10.7 26.1-10.7 26.1-26.1 10.8h-65.6q-15.3 0-26.1-10.8t-10.7-26.1z" /></svg>