<svg height="512" width="480.0" xmlns="http://www.w3.org/2000/svg"><path d="m0 469v-146.4q0-10.8 7.7-19t18.9-7.7h145.9q10.8 0 19 7.7t7.7 19v146.4q0 10.7-7.7 18.9t-19 7.7h-145.9q-10.7 0-18.9-7.7t-7.7-18.9z m0-279v-146.5q0-10.7 7.7-18.9t18.9-7.7h145.9q10.8 0 19 7.7t7.7 18.9v146.5q0 10.7-7.7 18.9t-19 7.7h-145.9q-10.7 0-18.9-7.7t-7.7-18.9z m280.1 279v-146.4q0-10.8 7.6-19t18.5-7.7h146.4q10.8 0 18.4 7.7t7.7 19v146.4q0 10.7-7.7 18.9t-18.9 7.7h-146.4q-10.8 0-18.5-7.7t-7.6-18.9z m0-279v-146.5q0-10.7 7.6-18.4t18.5-7.7h146.4q10.8 0 19 7.7t7.6 18.4v146.5q0 10.7-7.6 18.9t-18.5 7.7h-146.4q-10.8 0-18.4-7.7t-7.7-18.9z" /></svg>