<svg height="512" width="453.0" xmlns="http://www.w3.org/2000/svg"><path d="m0 85q0-19 30.2-34.3t82.4-25.1 113.7-9.2q62 0 114.2 9.2t82.4 25.1 30.2 34.3q-5.1 41.5-19.9 116.2t-28.2 141.3-14.9 70.7q-3 18.4-20.4 34.3t-41.5 26.1-51.2 15.9-51.2 5.6-51.2-5.6-51.2-15.9-41-26.1-20.4-34.3q-2.1-10.8-16.9-81.9t-28.7-142.4-17.4-103.9z m64.5 114.7l19.5 93.7 44.5-38.4z m2.6-99.3q0 16.3 46.6 27.6t112.6 11.3q66.1 0 112.6-11.3t46.6-27.6q0-16.4-46.6-28.2t-112.6-11.3-112.6 11.3-46.6 28.2z m28.1 249.8l10.8 52.2 25.1-21.5z m4.1-159.2l51.7 44.5 36.4-31.7q-48.6-3.1-88.1-12.8z m2.6 125.9l51.7 44.6 49.2-42-52.3-44.6z m25.1 107q36.3 15.4 75.8 19.5l-49.7-42z m46.1-168.9l52.2 44.5 49.1-42-51.2-45.5z m3 125.9l52.3 45.1 48.6-42.5-52.2-44.6z m71.7-61.9l51.7 44.5 47.1-40.9-50.2-45.6z m7.2 123.4q36.3-4.1 68.6-18.5l-24.1-21z m4.1-238.6l37.3 33.8 54.3-46.6q-40.4 10.2-91.6 12.8z m59.9 53.7l47.6 43 21-101.8z m3.6 125.5l23 19.9 10.2-49.1z" /></svg>