<svg height="512" width="617.0" xmlns="http://www.w3.org/2000/svg"><path d="m0 306.7q-1-23.1 5.1-44t17.9-40 29.7-33.3 39.5-23q39.4-14.8 79.8-6.7 19-41.4 56.9-66.5t85-25.1q31.7 0 60.4 12.3t49.6 33.3 33.3 49.6 12.3 60.4q0 4.7-1 13.9 0.5 0 2-0.5t1.6-0.6q40.9-15.8 81.4 2.1t56.3 58.9q10.2 28.6 6.1 55.3t-22 49.6-45 33.3q-18 6.7-36.9 7.2h-152.6v-86h34.8q9.8 0 12.8-5.7t-2-13.3l-87.6-140.8q-3.5-5.1-8.2-5.1-2 0-4.6 1t-3 2.6l-1.1 1-87.5 140.8q-5.1 7.7-1.5 13.3t12.8 5.7h34.3v86h-114.7q-43.5 0-80.4-25.1t-52.7-67.1q-8.8-21.5-9.8-44.5z" /></svg>