<svg height="512" width="535.5" xmlns="http://www.w3.org/2000/svg"><path d="m5.6 242.7q-12.3-46.6 0-92.7t47.1-80.9q26.1-26.1 58.9-39.4t68.1-13.3q35.3 0 68.6 13.3t58.9 39.4q27.6 27.7 41.5 63.5t11.2 73.2-18.9 71.2q15.9 5.1 26.6 15.9l93.2 93.1q18.9 19 18.9 45.6t-18.9 45.6-45.1 18.9q-26.6 0-45.5-18.9l-93.2-93.2q-11.3-11.3-15.9-26.6-38.9 18.9-80.4 18.9-35.3 0-68.1-13.3t-58.8-39.4q-34.9-34.8-47.1-80.9z m54.8-46.6q0 50.2 34.8 85 16.9 16.9 38.9 26.1t46.1 9.2 46.1-9.2 38.9-26.1q16.9-16.9 26.1-38.9t9.2-46.1q0-50.2-35.3-85-16.9-16.9-38.9-26.1t-46.1-9.2q-49.6 0-84.5 34.8t-34.8 85z m319.5-102.4q0-6.1 4.6-10.8t10.8-4.6h124.9q6.1 0 10.7 4.6t4.7 10.8-4.7 10.7-10.7 4.7h-124.9q-6.2 0-10.8-4.1-4.1-4.6-4.1-10.8z" /></svg>