<svg height="512" width="512.0" xmlns="http://www.w3.org/2000/svg"><path d="m24.1 95.2c-13.3 0-24.1 10.8-24.1 24.1v273.9c0 13.3 10.8 24.1 24.1 24.1h464.3c13.4 0 24.1-10.8 24.1-24.1v-273.9c0-13.3-10.7-24.1-24.1-24.1h-464.3z m-4.6 67.6h37.3l4.6 9.7v-9.7h43.6l9.7 21.5 9.2-21.5h138.8c6.1 0 11.7 1 16.3 5.1v-5.1h37.9v5.1c6.7-3.5 14.9-5.1 24.1-5.1h55.3l5.1 9.7v-9.7h41l5.6 9.7v-9.7h39.9v84h-39.9l-7.7-12.8v12.8h-50.2l-5.6-13.3h-12.3l-5.6 13.3h-26.1c-10.3 0-17.9-2.6-23.1-5.1v5.1h-61.9v-19c0-2.5-0.5-3-2.1-3h-2.5v22h-119.8v-10.3l-4.1 10.3h-25.1l-4.1-10.3v10.3h-48.1l-5.7-13.3h-12.3l-5.6 13.3h-24.6v-44l17.4-40z m-17.5 72.2h15.4l5.6-13.3h29.7l5.7 13.3h29.2v-47.1l20.9 47.1h12.8l20.5-47.1v47.1h14.9v-60.4h-24.1l-17.4 41-18.9-41h-23.6v56.8l-24.6-56.8h-21.5l-25.6 60.4z m164.9-60.4v60.4h47.6v-12.3h-33.3v-11.8h32.8v-12.2h-32.8v-10.8h33.3v-12.8h-47.6z m57.9 0v60.4h14.3v-22h15.4c5.1 0 8.2 0.5 10.2 2.6 2.6 3 2.1 8.1 2.1 11.7v7.7h14.3v-11.8c0-5.6-0.5-8.2-2.6-11.2-1-1.6-4.1-4.1-7.1-5.2 3.5-1.5 10.2-6.6 10.2-15.8 0-6.7-2.6-10.8-7.2-13.3s-10.2-3.1-17.4-3.1h-32.7z m65.5 0v60.4h14.9v-60.4h-14.9z m50.7 0c-9.7 0-16.9 2-21.5 7.2-6.2 6.6-7.7 14.8-7.7 23.5 0 10.8 2.6 17.9 7.7 23.1s13.8 6.6 21 6.6h16.9l5.6-13.3h29.7l5.6 13.3h29.2v-45l27.2 45h20.4v-60.4h-14.8v42l-25.1-42h-22v56.8l-24.1-56.8h-21.5l-20 47.1h-6.6c-3.6 0-7.7-0.5-9.7-3.1-2.6-3-4.1-7.7-4.1-14.3 0-6.2 1.5-11.3 4.1-13.8 3-2.6 5.6-3.6 11.2-3.6h13.9v-12.8h-13.9z m-303.6 9.7l9.7 24.1h-19.5l9.8-24.1z m339.9 0l9.8 24.1h-20l9.7-24.1z m-138.7 2.6h17.9c2.6 0 5.1 0 6.7 1 2 1 3 2.6 3 5.1s-1 4.6-3 5.7-4.1 1-7.2 1h-17.4v-13.3z m-136.2 78.8h77.3l11.3 12.8 11.8-12.8h51.7c6.1 0 15.8 0.5 19.9 5.1v-5.1h46.1c4.1 0 13.8 1.1 19.5 5.1v-5.1h70.1v5.1c3.6-3.5 10.8-5.1 16.9-5.1h38.9v5.1c4.1-3 9.7-5.1 17.9-5.1h26.7v11.8h-28.7c-14.9 0-20.5 9.2-20.5 17.9 0 19 16.9 17.9 30.2 18.5 2.6 0 4.1 0.5 5.1 1.5s1.6 2 1.6 4.1c0 1.5-0.5 3.1-1.6 4.1s-3 1.5-5.6 1.5h-27.6v12.8h27.6c9.2 0 15.9-2.5 19.5-7.7v15.9c-5.7 2.6-13.3 4.1-21 4.1h-36.9v-5.6c-4.1 3.6-12.3 5.6-19.4 5.6h-116.8v-19.4c0-2.6 0-2.6-2.5-2.6h-2.1v22h-38.4v-22.5c-6.6 2.5-13.8 3.1-20 3.1h-4.6v19.9h-46.6l-11.2-12.8-12.3 12.8h-75.8v-83.9z m12.8 12.3v60.4h56.8l18.5-19.9 17.4 19.9h27.6v-19.9h17.9c12.3 0 25.1-3.6 25.1-20 0-16.9-12.8-20-24-20h-45.6l-18.4 20-17.4-20h-57.4z m169.5 0v60.4h14.3v-22h15.4c5.1 0 8.2 0.5 10.7 2.6 2.6 2.5 2.6 8.2 2.6 11.8v7.6h14.3v-11.7c0-5.2-0.5-8.2-2.5-10.8-1.1-1.5-3.6-4.1-7.2-5.1 3.6-1.6 10.2-6.7 10.2-15.9 0-6.6-3-10.7-7.1-13.3-4.6-2.6-9.8-3.1-17.4-3.1h-32.8z m65.5 0v60.4h47.6v-12.3h-33.3v-11.7h32.8v-12.3h-32.8v-10.8h33.3v-12.3h-47.6z m74.8 0c-14.9 0-20.5 9.2-20.5 17.9 0 19 16.9 18.5 30.2 18.5 2.5 0 4.1 0.5 5.1 1.5s1.5 2.1 1.5 4.1c0 1.5-0.5 3.1-1.5 4.1s-3.1 1.5-5.6 1.5h-27.7v12.8h27.7c14.3 0 22.5-6.1 22.5-18.9 0-6.2-1.5-9.7-4.1-12.8-3.1-3.1-8.7-4.6-16.4-4.6h-7.7c-2.5 0-4.1 0-5.6-0.5-2-0.5-3.1-2.1-3.1-4.6 0-2.1 0.6-3.6 2.1-4.1 1.5-1.1 3.1-1.1 5.6-1.1h26.1v-12.8h-28.6z m-204.3 6.7v48.1l-22-24.6 22-23.5z m-92.2 6.1h35.9l15.8 17.4-16.4 17.9h-35.3v-11.7h31.2v-12.3h-31.2v-10.8z m106 0h18.9c5.2 0 8.7 2.1 8.7 7.7 0 5.1-3.5 8.2-8.7 8.2h-18.4v-15.4z m64 0h17.9c2.6 0 5.1 0 6.7 1 2 1.1 3 2.6 3 5.2s-1 4.6-3 5.6-4.1 1-7.2 1h-17.4v-13.3z m184.3 0.5h26.1v17.4c-0.5-0.5-0.5-1-1.5-1.5-3.1-3.1-8.2-4.6-16.4-5.1h-7.7c-2.5 0-4.1 0-5.6-0.5-2.1-0.5-3.1-2.1-3.1-4.6 0-2.1 0.5-3.6 2.1-4.6s3-1.1 5.6-1.1z" /></svg>