<svg height="512" width="512.0" xmlns="http://www.w3.org/2000/svg"><path d="m100.4 0c-55.3 0-100.4 45.1-100.4 100.4v311.2c0 55.3 45.1 100.4 100.4 100.4h311.2c55.3 0 100.4-45.1 100.4-100.4v-311.2c0-55.3-45.1-100.4-100.4-100.4h-311.2z m173 95.7c48.1 4.1 76.3 34.9 79.4 74.8 2.5 20.5 2 35.8-1.1 46.6 27.7 1 59.4 13.3 61.5 57.8v44.1c-3.1 38.4-16.4 86-86.5 95.7-15.9 2.1-33.3 0.5-56.4 0.5-23-0.5-43-0.5-60.9 0-71.2 1.6-110.1-30.2-110.6-96.7-0.5-22.6 0.5-47.7 0.5-78.4-0.5-19.4-0.5-39.9 0-58.3 0-3.6-0.5-7.7 0.5-11.8 3.1-43 37.9-68.6 78.4-74.3l95.7-0.5z m-79.9 59.9c-40.9 6.7-43 53.3 0 59.4h77.9c40.9-6.6 43-53.2 0-59.4h-77.9z m-17.9 129.6c-42 6.6-43 59.9 1.6 65l142.8 0.5c42-6.6 41.5-59.4-1.5-65l-142.9-0.5z" /></svg>