<svg height="512" width="507.4" xmlns="http://www.w3.org/2000/svg"><path d="m281.6 0l-154.1 0.5c-65 9.2-120.8 49.2-126 118.3-1.5 6.1-1 12.8-1 18.4-0.5 30.2-0.5 62.5 0 93.7 0 49.2-1.5 88.6-0.5 124.9 0.5 107 63.5 156.7 178.2 154.7 28.1-0.5 60.9-0.5 98.3 0.5 36.8 0 65.5 2.5 91.1-1 113.2-15.9 135.2-91.7 139.8-153.1v-70.2c-3.1-71.1-55.3-91.1-99.3-92.7 4.6-17.9 6.1-41.9 1.5-74.7-5.1-63.5-50.2-113.2-128-119.3z m-129 95.7h125.4c69.1 9.3 66.1 84 0 94.8h-125.4c-69.1-9.3-66.1-84 0-94.8z m-28.7 206.9l230.4 1c69.6 9.2 69.6 93.7 2.6 104l-230.4-1.1c-71.2-8.7-70.2-93.7-2.6-103.9z" /></svg>