<svg height="512" width="505.9" xmlns="http://www.w3.org/2000/svg"><path d="m505.9 176.1c0-0.5 0-0.5 0-1s0-1-0.6-2c0-0.6 0-0.6-0.5-1.1 0-0.5-0.5-1-0.5-1.5s-0.5-0.5-0.5-1-0.5-1.1-0.5-1.6-0.5-0.5-0.5-1c-0.5-0.5-0.5-1-1-1.5 0-0.5-0.6-0.5-0.6-1-0.5-0.6-0.5-1.1-1-1.1-0.5-0.5-0.5-0.5-1-1s-1-0.5-1-1c-0.5 0-0.5-0.5-1-0.5 0 0 0 0-0.6-0.5l-231.4-154.2c-7.2-5.1-16.9-5.1-24 0l-231.5 154.2s0 0-0.5 0.5c-0.5 0-0.5 0.5-1 0.5-0.5 0.5-1 0.5-1 1-0.5 0.5-0.5 0.5-1.1 1s-0.5 1.1-1 1.1c-0.5 0.5-0.5 0.5-0.5 1-0.5 0.5-0.5 1-1 1.5 0 0.5-0.5 0.5-0.5 1-0.5 0.5-0.5 1.1-0.5 1.6s-0.6 0.5-0.6 1-0.5 1-0.5 1.5 0 0.5-0.5 1.1c0 0.5-0.5 1-0.5 2 0 0.5 0 0.5 0 1 0 1.1 0 2.1 0 3.1v154.1c0 1 0 2.1 0 3.1 0 0.5 0 0.5 0 1s0 1 0.5 2.1c0 0.5 0 0.5 0.5 1 0 0.5 0.5 1 0.5 1.5s0.6 0.5 0.6 1 0.5 1.1 0.5 1.6 0.5 0.5 0.5 1c0.5 0.5 0.5 1 1 1.5 0 0.5 0.5 0.5 0.5 1.1 0.5 0.5 0.5 1 1 1 0.6 0.5 0.6 0.5 1.1 1s1 0.5 1 1c0.5 0 0.5 0.5 1 0.5 0 0 0 0 0.5 0.6l231.5 154.1c3.5 2.5 7.6 3.6 12.2 3.6 4.1 0 8.2-1.1 12.3-3.6l231.5-154.1s0 0 0.5-0.6c0.5 0 0.5-0.5 1-0.5 0.5-0.5 1-0.5 1-1 0.5-0.5 0.5-0.5 1-1s0.5-1 1.1-1c0-0.6 0.5-0.6 0.5-1.1 0.5-0.5 0.5-1 1-1.5 0-0.5 0.5-0.5 0.5-1 0.5-0.5 0.5-1 0.5-1.6s0.5-0.5 0.5-1 0.5-1 0.5-1.5 0-0.5 0.6-1c0-0.6 0.5-1.1 0.5-2.1 0-0.5 0-0.5 0-1 0-1 0-2.1 0-3.1v-154.1c0-1 0-2 0-3.1z m-231-110.6l170.5 113.7-76.2 50.7-94.3-63v-101.4z m-43.5 0v101.4l-94.2 63-76.3-50.7 170.5-113.7z m-187.9 154.1l54.3 36.4-54.3 36.4v-72.8z m187.9 226.9l-170.5-113.7 76.3-50.7 94.2 63v101.4z m21.5-139.3l-76.8-51.2 76.8-51.2 76.8 51.2-76.8 51.2z m21.5 139.3v-101.4l94.2-63 76.3 50.7-170.5 113.7z m187.9-154.1l-54.2-36.4 54.2-36.4v72.8z" /></svg>