<svg height="512" width="512.0" xmlns="http://www.w3.org/2000/svg"><path d="m23.6 95.2c-13.4 0-24.1 10.8-24.1 24.1v273.9c0 13.3 10.7 24.1 24.1 24.1h464.3c13.3 0 24.1-10.8 24.1-24.1v-273.9c0-13.3-10.8-24.1-24.1-24.1h-464.3z m245.7 90.7c0.5 0 0.5 0 1 0 22.6 0 40.5 17.9 40.5 40.4s-17.9 40.5-40.5 40.5-40.4-18-40.4-40.5c0-22 17.4-39.9 39.4-40.4z m-128 1.5c8.2 0 15.4 2.6 21.5 8.2l-7.7 9.7c-3.5-4.1-7.1-6.1-11.7-6.1-6.2 0-10.8 3.6-10.8 8.2 0 4.1 2.6 6.1 11.3 9.2 16.4 6.1 21 11.2 21 23 0 14.4-10.3 24.1-25.1 24.1-10.8 0-19-4.1-25.6-13.8l9.2-8.7c3.1 6.1 8.7 9.7 15.4 9.7 6.1 0 11.2-4.6 11.2-10.3 0-3-1.5-5.6-4.1-7.6-1.5-1.1-4.1-2.1-9.7-4.1-13.3-4.6-17.9-10.3-17.9-20 0-11.8 9.7-21 23-21z m67.1 0c6.1 0 11.2 1.5 17.4 4.6v16.9c-6.2-5.6-11.3-8.2-17.9-8.2-13.3 0-24.1 11.3-24.1 25.1 0 14.8 10.2 25.1 24.6 25.1 6.6 0 11.8-2.1 17.4-8.2v16.9c-6.7 3.1-11.8 4.1-17.9 4.1-21.5 0-38.4-16.4-38.4-37.9 0-21 17.4-38.4 38.9-38.4z m-180.8 1h21c23.6 0 39.5 14.9 39.5 36.4 0 10.7-5.2 21-13.3 27.6-7.2 5.6-15.4 8.2-26.2 8.2h-21v-72.7z m67.1 0h13.8v72.7h-13.8v-72.7z m209.4 0h15.4l19.4 49.2 20-49.2h15.4l-31.8 75.3h-7.7l-31.2-75.3z m76.3 0h40.5v12.3h-26.1v16.4h25v12.3h-25v19.4h26.1v12.3h-40.5v-72.7z m50.7 0h21c16.4 0 26.1 7.7 26.1 21.5 0 11.3-6.1 18.5-16.9 20.5l23.1 30.7h-17.5l-19.9-29.2h-2.1v29.2h-14.3v-72.7z m14.3 11.3v22h4.1c9.3 0 13.9-4.1 13.9-11.3s-4.6-10.7-13.9-10.7h-4.6z m-403.4 1v48.1h4.1c9.2 0 15.3-1.5 19.9-5.6 5.2-4.6 8.2-11.3 8.2-18.4s-3-13.9-8.2-18c-4.6-4-10.2-6.1-19.9-6.1h-4.1z m462.8 68.6s0 77.8 0 118.8c0 3.6-1.5 9.2-5.6 13.8s-10.2 7.2-14.3 7.2c-3.6 0-370.7 0-370.7 0 251.9-43.5 390.6-139.8 390.6-139.8z" /></svg>