<svg height="512" width="511.5" xmlns="http://www.w3.org/2000/svg"><path d="m100.4 0c-55.3 0-100.4 45.1-100.4 100.4v311.2c0 55.3 45.1 100.4 100.4 100.4h311.2c55.3 0 100.4-45.1 100.4-100.4v-311.2c0-55.3-45.1-100.4-100.4-100.4h-311.2z m244.7 70.7c17.9 0 33.8 3 47.6 5.1 29.7 7.7 42 19.9 41.5 41.4l1 34.4c-4.6 31.2-17.9 32.2-30.7 35.3 4.6 3.6 9.2 1.5 12.3 18.9v42c-9.2 22-23.1 24.6-36.4 26.6l-16.4-1-1 139.8c-2 25.6-17.9 27.1-31.7 30.7h-62.5c-18.9-0.5-29.2-13.3-31.7-36.3-7.2 28.6-21 40.9-41 38.4l-53.8-1.1c-35.8-4.1-33.2-21.5-35.3-37.3l-1-134.2c-15.4-5.1-29.7-12.3-28.7-58.4 1-40.4 15.4-44.5 30.7-46 4.1-52.3 31.8-89.1 104.5-95.8 32.2-2.5 55.3 4.1 76.8 12.3 19.4-10.2 38.4-13.3 56.3-13.3z m-124.9 32.7c-6.7 0-11.3 1-19 0.5-59.9 7.7-57.3 55.3-58.9 83.5l1.1 11.8-30.2-1.6 1 43h28.1l-1.5 169.5h57.3v-169.5l74.8-1.5v171l57.3 1.5-1-172.5h52.2v-37.9h-52.2c2.1-25.6-7.2-60.9 31.8-55.3 13.8 1.6 27.6 4.6 37.3 12.3l1.1-43c-19-8.2-44.6-11.8-72.2-8.2-63 8.2-52.8 56.8-54.8 95.2l-72.2-1v-28.7c2-14.8 4.6-29.1 32.8-28.1 9.2-1 20.4 4.1 33.2 8.7l-1-40.5c-25.1-8.2-36.8-9.2-45.6-9.2z" /></svg>