<svg height="512" width="490.0" xmlns="http://www.w3.org/2000/svg"><path d="m367.1 0c-24.1 0-50.2 4.1-76.8 18.4-29.7-10.7-61.4-19.9-105.5-16.4-99.3 9.3-137.2 59.4-142.8 130.6-21 2.6-40.5 7.7-42 63-1.5 62.4 18.4 72.7 38.9 79.9l1.5 183.3c3.1 21.5-1 45.5 48.2 51.2l73.7 1.5c27.1 3.6 45.6-13.8 55.8-52.7 3.6 31.7 17.4 49.1 43.5 49.6h85.5c19.5-5.1 40.5-6.6 43.6-42l1.5-190.9 22.5 1.5c18.5-2.6 36.9-5.6 49.7-35.8v-57.4c-3.6-23.5-10.3-20.5-16.4-25.6 17.4-4.1 35.8-5.6 42-48.1l-1.6-46.6c0.6-29.2-15.8-46.1-56.3-56.8-18.9-2.6-40.9-7.2-65-6.7z m-170.5 44.5c11.8 0 28.2 1.6 62 12.8l1 55.3c-17.9-6.1-33.3-13.3-45.6-11.7-38.4-2.1-42 17.9-44.5 38.4v39.4l98.8 1c2.5-52.2-11.8-118.8 74.7-130 37.9-5.2 72.2 0 98.3 11.2l-1 58.4c-13.3-10.8-31.7-14.3-51.2-16.9-53.2-7.7-40.9 40.4-43.5 75.3h71.2v52.2h-71.2l1 236-78.8-2v-234l-101.9 2v232h-78.9l2.1-232h-38.4l-1-58.3 41.4 2-1-15.9c2.1-37.8-1.5-103.9 80.4-114.1 10.2 0.5 16.4-0.5 25.6-0.5z" /></svg>