<svg height="512" width="512.0" xmlns="http://www.w3.org/2000/svg"><path d="m309.2 261.6c0-27.6-22.5-50.1-50.1-50.1s-50.2 22.5-50.2 50.1 22.5 50.2 50.2 50.2 50.1-22.5 50.1-50.2z m74.8-261.1h-256c-70.7 0-128 57.4-128 127.5v35.3h187.9c20-13.8 44-22.5 70.1-22.5s50.2 8.2 70.2 22.5h182.8v-35.3c0-70.1-57.4-127.5-128-127.5z m51.7 120.8c0 7.7-6.1 14.4-14.3 14.4h-44.1c-7.6 0-14.3-6.2-14.3-14.4v-43.5c0-7.7 6.2-14.3 14.3-14.3h44.1c7.7 0 14.3 6.1 14.3 14.3v43.5z m-55.8 140.3c0 66.6-54.3 120.9-121.3 120.9s-121.4-54.3-121.4-120.9c0-18.4 4.1-35.8 11.8-51.2h-148.5v174.1c0 70.2 57.4 127.5 128 127.5h256c70.7 0 128-57.3 128-127.5v-174.1h-143.3c7.1 15.4 11.7 32.8 11.7 51.2z" /></svg>