<svg height="512" width="512.0" xmlns="http://www.w3.org/2000/svg"><path d="m383.5 0.5h-255.5c-70.1 0-127.5 56.8-127.5 127v256.5c0 70.1 57.4 127 127.5 127h255.5c70.1 0 127.5-56.9 127.5-127v-256.5c0-70.2-57.4-127-127.5-127z m80.4 383.5c0 44-35.9 79.9-80.4 79.9h-255.5c-44.5 0-80.4-35.9-80.4-79.9v-165.9h100.9c-7.2 15.4-11.3 32.8-11.3 51.2 0 66.6 54.3 120.8 121.4 120.8s121.3-54.2 121.3-120.8c0-18.4-4.1-35.8-11.3-51.2h95.8v165.9z m-255.5-114.2c0-27.6 22.5-50.2 50.2-50.2s50.1 22.6 50.1 50.2-22.5 50.2-50.1 50.2-50.2-22.5-50.2-50.2z m255.5-98.3h-135.2c-20-13.8-44-22.5-70.1-22.5s-50.2 8.2-70.2 22.5h-140.3v-43.5c0-44 35.9-79.9 80.4-79.9h255.5c44.5 0 80.4 35.9 80.4 79.9v43.5z m-51.2-95.2h-44.1c-7.6 0-14.3 6.1-14.3 14.3v43.5c0 7.7 6.1 14.4 14.3 14.4h44.1c7.7 0 14.3-6.2 14.3-14.4v-43.5c0-7.7-6.1-14.3-14.3-14.3z" /></svg>