<svg height="512" width="509.4" xmlns="http://www.w3.org/2000/svg"><path d="m224.8 366.6l-18.5-50.7s-30.2 33.8-75.7 33.8c-40.5 0-68.6-34.8-68.6-91.1 0-71.7 36.3-97.3 71.6-97.3 51.2 0 67.6 33.3 82 75.8l18.4 58.3c18.4 56.9 53.7 101.9 154.6 101.9 72.2 0 121.4-22 121.4-80.4 0-47.1-26.7-71.7-76.8-83.4l-37.4-8.2c-25.6-5.7-33.3-16.4-33.3-33.8 0-20 15.9-31.8 41.5-31.8 28.1 0 43 10.8 45.5 35.9l58.4-7.2c-4.6-52.7-41-74.2-100.3-74.2-52.8 0-104 19.9-104 83.4 0 39.5 19.5 65.1 67.6 76.3l39.9 9.2c29.7 7.2 39.5 19.5 39.5 36.4 0 21.5-21 30.2-61 30.2-58.8 0-83.4-30.7-97.2-73.7l-19.5-58.4c-24.6-75.8-63.5-103.9-141.3-103.9-86 0-131.1 54.2-131.1 146.4 0 88.6 45.6 136.7 127 136.7 66 0 97.3-30.7 97.3-30.7z" /></svg>