<svg height="512" width="511.0" xmlns="http://www.w3.org/2000/svg"><path d="m255.5 0c-7.2 0-14.3 0.5-22 1-116.3 9.2-215.6 98.8-231.5 217.6-19.9 151.6 88.6 281.6 225.3 292.4 108.6 8.7 178.2-36.4 225.3-92.7 41.5-49.7 66.6-122.4 55.3-201.7-10.7-74.3-64-145.9-126.5-181.8-35.3-20.5-76.8-34.3-126.4-34.3z m1 49.2c25.6 0 52.2 4.6 79.9 14.8 70.1 37.9 125.9 93.7 126.4 190 0.6 110-77.3 200.1-187.9 209.4-120.3 10.2-250.8-89.1-225.2-243.2 15.8-94.8 101.3-171.6 206.8-171z m93.7 125.9c-33.8 0.5-67.6 21.5-65.5 63 31.2-20.5 87.5-24.1 130.5-7.7-1.5-36.9-33.2-55.3-65-54.8z m-191.5 0.5c-31.2 0-61.4 17.4-63.5 54.8 19-2 39.5-13.3 57.4-9.7-7.2 16.4-14.9 32.2-17.9 53.2-21.5-22.5-49.2 17.9-21.5 31.8-20 4.1-12.8 38.4 7.6 35.8 7.2-3.1 11.8-8.2 18-11.8 14.3 33.3 53.2-12.8 21.5-25.6 31.2-13.8-5.7-49.6-20-31.7 9.2-18.4 9.7-47.1 29.7-51.2 18.4-4.1 36.3 13.3 55.3 17.9 4.1-41-31.8-62.5-67.1-62.5z m-22.5 121.9c2 0 5.1 2 8.2 7.7-14.9 15.3-15.4-7.2-8.2-7.7z" /></svg>