<svg height="512" width="630.3" xmlns="http://www.w3.org/2000/svg"><path d="m630.3 60.4q-26.1 38.9-64.5 66.6 0.5 7.1 0.5 16.9 0 51.7-15.4 103.9t-46.1 99.3q-31.2 47.7-74.2 84-43 36.9-103.4 58.4-60.4 22-129.1 22-107.5 0-198.1-57.9 15.9 1.6 30.7 1.6 90.1 0 160.8-55.3-42-1.1-75.3-25.6-33.3-25.1-45.5-64 12.2 2.5 24.5 2.5 17.4 0 33.8-4.6-44.5-9.2-74.2-44.5-29.7-35.9-29.7-82.5v-1.5q27.6 15.4 58.4 16.4-26.7-17.9-42-46.1t-15.4-61.4q0-34.8 17.4-65 48.7 59.9 117.8 95.2 69.1 35.8 148.5 39.9-3.6-14.3-3.6-29.2 0-53.7 37.9-91.6t91.6-37.9q55.8 0 94.2 41 44.1-8.7 81.9-31.3-14.8 46.6-56.8 71.7 38.9-4.6 74.2-20.5z" /></svg>