<svg height="512" width="512.0" xmlns="http://www.w3.org/2000/svg"><path d="m20.5 95.2c-11.3 0-20.5 9.2-20.5 20.5v280.6c0 11.3 9.2 20.5 20.5 20.5h471c11.3 0 20.5-9.2 20.5-20.5v-280.6c0-11.3-9.2-20.5-20.5-20.5h-471z m285.2 95.8c12.3 0 22.5 2.5 28.6 5.1l-4.6 27.1-3-1.5c-6.2-2.6-13.4-5.1-24.1-4.6-12.8 0-18.4 5.6-18.4 10.7 0 6.2 6.6 9.8 17.9 15.9 18.4 9.2 27.1 20 27.1 34.3 0 26.1-22 43-55.8 43-14.3 0-28.2-3-35.8-6.6l4.6-28.2 4.1 2.1c10.7 4.6 17.4 6.6 30.2 6.6 9.2 0 18.9-4.1 19.4-12.3 0-5.6-4.1-9.7-16.9-15.8-12.2-6.2-28.1-16.4-28.1-34.4 0-24.5 22.5-41.4 54.3-41.4z m-260.6 4.1h51.7c7.1 0.5 12.8 2.5 14.3 10.2l11.3 57.9 3.6 17.4 31.7-85h34.3l-50.7 124.4h-34.3l-27.1-100.4c15.8 8.8 29.7 18.5 37.9 32.3-2.1-4.1-4.6-9.2-8.2-13.8-4.1-5.7-12.8-12.8-16.4-15.9-12.8-10.7-29.7-19.4-48.7-24.1l0.6-2.5z m160.2 0h33.3l-21 124.4h-33.3l21-124.4z m188.4 0h25.1l26.6 124.4h-30.2s-3-14.3-4.1-18.4c-4.6 0-37.9 0-41.9 0-1.1 3.5-6.7 18.9-6.7 18.9h-34.3l48.6-114.2c3.6-8.2 9.2-10.2 16.9-10.2z m2.6 33.3c-1.5 4.6-4.6 12.2-4.1 11.7 0 0-10.2 27.2-12.8 34.3h27.1c-1.5-6.1-7.7-35.8-7.7-35.8l-2-10.8z" /></svg>