<svg height="512" width="509.4" xmlns="http://www.w3.org/2000/svg"><path d="m257 0c-100.3 0-194.5 59.4-238.1 153.6l121.9 0.5v13.3c-37.4-4.6-34.3 14.9-28.7 35.9l79.9 200.2 58.9-137.8-27.2-64.5c-9.7-17.4-10.2-36.3-50.1-34.8l0.5-12.3 178.7 0.5v13.8c-21 1.1-46.1-5.1-32.8 37.4l72.2 190 39.4-110.6c12.8-46.6 0.5-91.2-14.8-134.7-8.7-29.2-4.6-53.7 33.8-63.5-58.4-59.9-127.5-86-194.1-86z m243.2 175.1l-115.7 302.1c31.8-27.7 65-37.9 105-114.7 26.6-64 24-122.9 10.7-187.4z m-493 5.1c-11.3 89.1-10.3 115.2 17.9 187.9 36.3 69.7 65 84.5 104.9 111.6l-122.8-299.5z m254.9 113.2l-86 207.3c60.4 17.4 114.2 14.9 163.4-4.1l-77.9-203.2z" /></svg>