<svg height="512" width="428.5" xmlns="http://www.w3.org/2000/svg"><path d="m214.5 14.3c-19.9 0-36.3 16.4-36.3 36.9s16.4 36.9 36.3 36.9 37.9-16.4 37.9-36.9-17.4-36.9-37.9-36.9z m-24.5 113.7c-20.5 60.9-51.8 77.8-51.8 77.8s-26.6-74.2-55.8-118.2c-11.7 26.6-24 44-49.1 50.6-0.5 23.1 26.1 107 28.7 149h307.2c1.5-40.4 28.6-131 28.6-147.9-19.4-7.7-43.5-26.1-49.1-51.7-32.3 44-55.8 118.2-55.8 118.2s-31.3-16.9-51.7-77.8c-13.9 6.7-40 6.7-51.2 0z m-152.1-113.7c-20 0-37.9 16.4-37.9 36.9s17.4 36.9 37.9 36.9c20 0 36.3-16.4 36.3-36.9s-16.3-36.9-36.3-36.9z m24.1 308.8v60.9h307.2c0-22 0-41 0-60.9z m329.7-308.8c-20.5 0-36.9 16.4-36.9 36.9s16.4 36.9 36.9 36.9 36.8-16.4 36.8-36.9-16.3-36.9-36.8-36.9z" /></svg>