<svg height="512" width="436.7" xmlns="http://www.w3.org/2000/svg"><path d="m214.5 14.3c-19.9 0-36.3 16.4-36.3 36.9s16.4 36.9 36.3 36.9 37.9-16.4 37.9-36.9-17.4-36.9-37.9-36.9z m-24.5 113.7c-20.5 60.9-51.8 77.8-51.8 77.8s-26.6-74.2-55.8-118.2c-11.7 26.6-24 44-49.1 50.6-0.5 23.1 26.1 107 28.7 149h185.3v-36.8h127c2.5-36.9 17.9-80.9 23.5-110.6-19.4-7.7-43.5-26.1-49.1-51.7-32.3 44-55.8 118.2-55.8 118.2s-31.3-16.9-51.7-77.8c-13.9 6.7-40 6.7-51.2 0z m-152.1-113.7c-20 0-37.9 16.4-37.9 36.9s17.4 36.9 37.9 36.9c20 0 36.3-16.4 36.3-36.9s-16.3-36.9-36.3-36.9z m24.1 308.8v60.9h117.7v-56.3h67.1v-4.6z m329.7-308.8c-20.5 0-36.9 16.4-36.9 36.9s16.4 36.9 36.9 36.9 36.8-16.4 36.8-36.9-16.3-36.9-36.8-36.9z m-100.4 418.3c-18.4 0-54.8 0-74.7 0 0-15.8 0-52.7 0-71.1 25.1 0 48.1 0 74.7 0 0-25.1 0-50.2 0-74.8 12.8 0 43.5 0 71.2 0 0 23.6 0 48.7 0 74.8 23.5 0 47.1 0 74.7 0 0 23 0 52.2 0 71.1-22 0-50.1 0-74.7 0 0 24.6 0 52.8 0 74.8-27.1 0-51.2 0-71.2 0 0-26.6 0-63 0-74.8z" /></svg>