<svg height="512" width="435.7" xmlns="http://www.w3.org/2000/svg"><path d="m142.3 32.3c-4.1 0-8.2 1-11.7 2.5l-65.6 31.8-40.9 19.4c-1.1 0.5-2.1 1-3.6 1.6 0 2.5-0.5 5.6-0.5 8.1v0.6c0 34.8 20.4 82.9 62.4 82.9h0.5c17.5 0 33.3-9.7 44.6-25.1 13.3-17.9 18.9-42 17.4-65.5l9.2-4.6c13.8-6.7 19.5-22.6 12.8-36.4-4.6-9.7-14.3-15.3-24.6-15.3z m108.6 0c-10.3 0-20 5.6-24.6 15.3-6.7 13.8-0.5 29.7 12.8 36.4l9.2 4.6c-1.5 23.5 4.1 47.6 17.4 65.5 11.3 15.4 27.2 25.1 44.6 25.1h0.5c42 0 61.9-48.1 62.4-82.9v-0.6c0-2.5 0-5.6-0.5-8.1-1-0.6-2-1.1-3.5-1.6l-41-19.4-65.5-31.8c-3.6-2-7.7-2.5-11.8-2.5z m142.8 154.6c-3.6 0-7.7 2-10.7 7.7-21.5 37.3-49.2 132.6 13.8 132.6s37.4-92.7 8.2-133.2c-3.1-4-7.2-7.1-11.3-7.1z m-262.1 70.6c-28.7 0-57.4 4.6-84.5 13.3-5.1 1.6-10.7 3.6-15.9 5.7-5.6 2-10.7 4.6-15.3 6.6h-0.5c-13.4 6.7-19.5 22.6-12.8 36.4 6.6 13.3 22.5 18.9 35.8 12.8 4.6-2.1 8.7-4.1 12.3-5.1 4.1-1.6 8.2-3.1 12.8-4.6 22-7.2 45-10.8 68.1-10.8 26.1 0 51.7 4.6 75.8 13.8 9.7 3.6 18.9 7.7 28.1 12.8 46.6 25.1 83.5 66.6 102.4 118.3 5.1 14.3 20.5 21.5 34.8 16.4s21.5-20.5 16.4-34.8c-23.5-64.5-69.6-116.8-128-148-11.2-6.1-23-11.3-35.3-15.9-29.7-10.7-61.4-16.9-94.7-16.9z" /></svg>