<svg height="512" width="511.5" xmlns="http://www.w3.org/2000/svg"><path d="m250.4 4.6c-58.9 0.5-117.3 5.6-164.4 15.4-52.7 11.2-85.5 29.2-85.5 52.2s32.8 41 85.5 52.2c97.3 20.5 243.2 20.5 340.5 0 52.7-11.2 85.5-29.2 85.5-52.2s-32.8-41-85.5-52.2c-50.2-10.8-113.2-15.9-176.1-15.4z m5.6 45.6c98.8 0 179.2 9.7 179.2 22s-80.4 22-179.2 22-179.2-9.7-179.2-22 80.4-22 179.2-22z m-171 183.8c-15.4 0-27.7 12.3-27.7 27.6s12.3 27.7 27.7 27.7h95.2c15.4 0 27.7-12.3 27.7-27.7s-12.3-27.6-27.7-27.6h-95.2z m246.8 0c-15.4 0-27.7 12.3-27.7 27.6s12.3 27.7 27.7 27.7h95.2c15.4 0 27.7-12.3 27.7-27.7s-12.3-27.6-27.7-27.6h-95.2z m77.8 154.1c-7.2 0-13.8 2.6-18.9 8.2-0.6 0.5-0.6 0.5-1.1 1-5.1 5.6-10.2 10.3-15.8 15.4-5.7 4.6-11.3 9.2-18 13.3-31.7 21-69.1 31.7-107.5 29.7-24-1-47.1-6.7-68.6-16.9-3.6-1.6-7.2-3.6-10.2-5.1-16.9-9.3-32.8-21.5-46.6-36.9-10.3-11.3-27.2-11.8-38.4-1.5s-11.8 27.1-1.6 38.4c17.5 18.9 37.9 34.8 61 47.6 4.6 2.5 9.2 4.6 13.3 6.6 27.6 12.8 57.8 20.5 89.1 21.5 50.1 2.1 98.8-11.7 139.7-38.9 7.7-5.1 15.4-10.7 23.1-17.4 7.2-6.1 13.8-12.8 20.5-19.9 10.2-10.8 10.2-27.7-0.5-38.4-5.2-5.2-12.3-7.7-19.5-7.7z" /></svg>