<svg height="512" width="916.0" xmlns="http://www.w3.org/2000/svg"><path d="m698.4 0c-14.9 0-29.7 3.6-44.1 10.2-2 1.1-4.1 2.1-6.1 3.6-19 11.3-19 6.7-41 7.2-16.4 0.5-31.7 6.1-45.5 14.8-13.3 8.2-25.1 20-32.8 32.8-8.7 13.8-13.3 29.7-12.8 45.6 0.5 13.3 11.3 23.5 24.6 23.5h316.9c13.3 0 24.6-10.7 24.6-24 1-16.9-3.6-32.8-12.3-46.6-7.7-12.3-18.4-23.1-31.2-30.7-12.8-8.2-27.2-13.4-42-14.9-10.8-1-21.5 0-31.8 3.1-1.5-1.6-3-2.6-5.1-4.1-18.4-13.3-40.4-20.5-61.9-20z m-355.9 24.1c-31.2 0-56.3 33.2-56.3 74.2s25.1 74.2 56.3 74.2 56.3-33.2 56.3-74.2-25-74.2-56.3-74.2z m355.9 25.6c15.3-0.5 30.7 6.1 42.5 18.9 7.6 9.7 21.5 12.3 32.2 5.6 5.7-3.5 12.3-4.6 19-4.1 7.1 0.6 13.8 3.6 20.4 7.2 4.7 3.1 8.7 6.7 12.3 10.8h-249.3c3.6-4.1 7.7-8.2 12.8-10.8 6.6-4.1 14.3-7.2 21-7.2 5.6 0 10.7 1.1 15.9 4.1 10.2 6.2 23.5 4.6 31.7-5.1 11.3-12.8 26.1-19.4 41.5-19.9z m-532.5 25.1h-137.7c-15.4 0-27.7 12.2-27.7 27.6s12.3 27.6 27.7 27.6h137.7c15.3 0 27.6-12.2 27.6-27.6s-12.3-27.6-27.6-27.6z m372.2 97.2c-12.3 0-22 9.8-22 22v1.6l-0.5 210.9c0 29.2 11.8 55.3 31.2 74.8 19 18.9 45.6 30.7 74.3 30.7h112.6c1 0 1.5 0 2.6 0 6.6 0 13.8-1 19.9-2.6 7.2-1.5 14.4-4.1 21-7.1 27.7-12.8 48.7-36.9 57.4-66.6h15.3c17.9 0 34.8-7.7 46.6-19.4s19.5-28.2 19.5-46.1v-132.1c0-17.9-7.7-34.8-19.5-46.6s-28.1-19-46.6-19.5h-312.3z m302.1 50.2c5.6 0 10.7 2.6 14.3 6.2s6.2 8.7 6.2 14.3v127.5c0 5.6-2.6 10.7-6.2 14.3s-8.7 6.2-14.3 6.2h-30.7c-10.3 0-19 7.6-20 18.4-2 20.5-14.8 38.4-33.3 46.6-3.6 1.5-7.1 3.1-11.2 3.6-3.6 1-7.2 1-10.8 1.5h-106c-15.3 0-29.7-6.1-39.9-16.4l-0.5-0.5c-10.3-10.2-16.9-24.6-16.9-40.4v-182.3h52.2v178.7c0 17.9 35.3 16.9 35.3 0v-178.7h52.3v180.7c0 17.9 35.3 16.9 35.3 0v-180.7h93.7z m-41 30.7v106.5h16.4c10.8 0 19-8.7 19-18.9v-68.1c0-10.8-8.7-19-19-19h-16.4z m-769 7.7c-3.1 0-6.1 0.5-9.2 1.5-14.3 5.2-21.5 21-16.4 34.9 23.6 65 70.2 117.2 128.5 149 11.3 6.1 23.1 11.2 35.3 15.8 29.7 10.8 62 16.9 95.3 16.9 29.2 0 57.8-4.6 85-13.3 5.1-1.5 10.7-3.6 15.8-5.6 5.7-2.1 10.8-4.6 15.4-6.7h0.5c13.8-6.6 19.5-23 12.8-36.3s-22.5-19.5-36.3-12.8c-4.6 2-8.7 4.1-12.3 5.1-4.1 1.5-8.7 3.1-12.8 4.6-22 7.2-45.1 10.7-68.1 10.7-26.6 0-52.2-4.6-76.3-13.8-9.7-3.6-19.5-7.7-28.2-12.8-47.1-25.1-84.4-67-103.4-119.3-4.1-11.2-14.3-17.9-25.6-17.9z" /></svg>