<svg height="512" width="506.9" xmlns="http://www.w3.org/2000/svg"><path d="m253.4 53.8c-78.8 0-158.2 0-237 0-9.2 0-16.4 7.6-16.4 16.9 1.5 78.3 66 157.1 142.3 158.2 43 0.5 83.5-18.5 111.7-48.7 28.1 30.7 68.6 49.7 111.6 48.7 76.3-1.6 139.7-80.4 140.8-158.2 0-9.3-7.2-16.9-16.4-16.9-78.9 0-158.2 0-237.1 0z m163.4 261.1c-9.2 0-18 4.6-23.1 13.3-0.5 0.5-0.5 1-1 1.5-3.6 6.2-7.7 11.8-12.3 17.4-5.1 6.2-9.7 11.8-14.8 16.4-27.7 25.6-64.5 41-103.5 41-11.2 0-22-1-32.7-3.6-1.6-0.5-3.1-0.5-5.1-1-8.7-2.1-17.5-5.7-26.2-9.2-13.8-6.2-29.7-0.6-36.3 13.3-6.2 13.8-0.5 29.7 13.3 36.3 11.3 5.1 23 9.2 35.3 12.8 2.1 0.5 4.6 1 7.2 1.6 14.3 3 29.7 4.6 44.5 5.1 52.8 0 103-20.5 140.8-55.8 7.7-7.2 14.4-14.4 20.5-22 5.7-7.2 11.3-15.4 16.4-24.1 0-0.5 0.5-0.5 0.5-1 7.7-12.8 3.6-29.7-9.2-37.4-4.6-2.6-9.2-4.1-14.3-4.1z" /></svg>