<svg height="512" width="511.5" xmlns="http://www.w3.org/2000/svg"><path d="m133.6 25.6c-31.2 0-56.3 33.3-56.3 73.7 0 41 25.1 73.8 56.3 73.8s56.4-33.3 56.4-73.8c0-40.9-25.1-73.7-56.4-73.7z m243.7 0c-31.2 0-56.3 33.3-56.3 73.7 0 41 25.1 73.8 56.3 73.8s56.4-33.3 56.4-73.8c0-40.9-25.1-73.7-56.4-73.7z m-124.9 306.7c-84.5 0-168.9 31.7-236 94.2l-1.6 1.5c-3 3.1-5.6 5.2-7.1 7.2-10.8 10.8-10.8 28.2-0.5 38.9s27.6 10.8 38.4 0.5l6.1-6.1 1.5-1c57.4-53.8 130.1-80.4 202.8-79.9 73.2 0.5 146.4 28.7 202.8 84.5 2 2 4 4.1 6.1 6.1 10.2 10.8 27.6 10.8 38.4 0.5 10.7-10.7 10.7-28.1 0.5-38.9-2.6-2.6-4.6-5.1-7.2-7.2-67-65.5-153-99.3-239.6-99.8-1.5 0-2.5 0-4.1 0z" /></svg>