<svg height="512" width="457.2" xmlns="http://www.w3.org/2000/svg"><path d="m105.5 55.3c-40 0-77.9 19.5-100.9 52.2-8.7 12.3-5.6 29.7 6.7 38.4s29.7 5.7 38.4-6.6c22-31.3 65.5-37.9 95.7-16.4 1.5 1.5 3.6 3.1 5.6 4.6l0.6 0.5c2 1.5 3.5 3.6 5.1 5.6l0.5 0.5 0.5 0.6c10.2 11.2 27.6 12.2 38.9 2s12.3-27.1 2.1-38.9c-23.1-27.1-57.9-43.5-93.7-43.5z m248.3 0c-39.9 0-77.8 19.5-100.9 52.2-8.7 12.3-5.6 29.7 6.7 38.4s29.7 5.7 38.4-6.6c22-31.3 65.5-37.9 95.7-16.4 1.6 1.5 3.6 3.1 5.7 4.6l0.5 0.5c2 1.5 3.6 3.6 5.1 5.6l0.5 0.5 0.5 0.6c10.3 11.2 27.7 12.2 38.9 2s12.3-27.1 2.1-38.9c-23.1-27.1-57.9-43.5-93.7-43.5z m76.3 215h-391.7c-14.8 0-26.6 12.3-26.6 27.7 1.5 102.9 121.8 179.7 216 181.7 95.3 1.6 226.3-80.3 229.4-181.7 0-14.9-12.3-27.2-27.1-27.2z m-358.4 54.3h324.1c-31.3 62-97.3 102.9-169 100.4-66.5-2.1-125.9-42-155.1-100.4z" /></svg>