<svg height="512" width="512.0" xmlns="http://www.w3.org/2000/svg"><path d="m56.8 0c-1 0-1.5 0-2.5 0-0.5 0-1.6 0-2.1 0s-1 0-1.5 0.5c0 0-0.5 0-0.5 0-4.1 1-8.2 3.1-12.3 6.2-0.5 0.5-1.5 1-2.1 1.5s-1.5 1-2 2c-5.6 5.7-10.2 11.3-14.3 16.9-1.1 1.1-1.6 2.6-2.6 3.6-0.5 1-1.5 2.6-2.1 3.6-3.5 6.1-6.1 12.8-8.7 19.5-0.5 1.5-1 2.5-1 4.1-0.5 1-0.5 2.5-1 4.1-8.7 33.2-2.1 69.6 9.7 96.2 2.1 5.1 4.6 9.7 7.7 14.3 2.6 4.7 5.6 8.2 8.2 11.8 2.6 3.1 6.1 4.6 10.2 5.1 3.6 0.6 7.7-1 10.8-3.5h0.5c0.5-0.6 1-1.1 2-2.1 0 0 0 0 0.6-0.5 0 0 0-0.5 0.5-0.5 2-2.6 4.1-5.1 5.6-7.7l1-1.5 1.1-1.6c2-2.5 4-5.1 6.1-7.1l1-1.6 1-1c11.3-11.8 24.1-22.5 37.9-31.7 2.6-2.1 5.7-3.6 8.2-5.2s5.1-3 8.2-4.6c0 0 0.5 0 0.5 0 3.6-2 6.2-5.1 7.2-9.2 1-3.6 1-7.7-1-11.2-1.6-2.6-3.1-4.7-5.7-5.7-0.5 0-0.5-0.5-1-0.5 0 0-0.5 0-0.5 0-0.5 0-1-0.5-1.5-0.5-3.6-1-6.7-2.6-10.3-4.1-0.5 0-1-0.5-2-1l-1.6-1s-0.5 0-0.5 0c-3-1.6-5.6-3.6-8.2-5.2 0 0-0.5-0.5-1.5-1l-1-1s0 0-0.5 0c-11.8-9.7-18.5-21.5-20.5-34.3-0.5-2.6-0.5-4.6-0.5-7.2s0-5.1 0.5-7.2c1-5.1 0.5-9.7 0-13.3 0-1-0.5-1.5-0.5-2s-0.5-1.6-0.5-2.1c-1.6-4.1-4.1-7.1-7.7-9.7-0.5-0.5-1.6-1-2.1-1-0.5-0.5-1.5-0.5-2-1-2.6-1.1-5.1-1.6-7.7-1.6z m397.9 0c-2.6 0-5.2 0.5-7.7 1.5-0.5 0.5-1.6 0.5-2.1 1.1s-1.5 0.5-2 1c-3.1 2-5.7 5.1-7.7 9.7-0.5 0.5-0.5 1.5-0.5 2.1s-0.5 1.5-0.5 2c-0.5 3.6-1 8.2 0 13.3 0.5 2.6 0.5 4.6 0.5 7.2s0 5.1-0.5 7.2c-2.1 12.2-8.7 24.5-20.5 34.3 0 0 0 0-0.5 0l-1 1c-0.6 0.5-1.1 1-1.6 1-2.5 2.1-5.1 3.6-8.2 5.1 0 0-0.5 0-0.5 0l-1.5 1.1c-0.5 0.5-1.6 0.5-2.1 1-3 1.5-6.6 3-10.2 4.1-0.5 0-1 0.5-1.5 0.5 0 0-0.6 0-0.6 0-0.5 0-0.5 0.5-1 0.5-2 1.5-4.1 3.1-5.6 5.6-2.1 3.6-2.1 7.7-1 11.3s3.6 7.2 7.1 9.2c0 0 0.5 0 0.5 0 2.6 1.5 5.7 3.1 8.2 4.6s5.7 3.6 8.2 5.1c13.9 9.3 26.7 20 37.9 31.8l1 1 1.1 1.5c2 2.1 4.1 4.6 6.1 7.2l1 1.5 1.1 1.6c2 2.5 4.1 5.1 5.6 7.7 0 0 0 0.5 0.5 0.5 0 0 0 0 0.5 0.5s1 1 2.1 2h0.5c3 2.6 7.1 3.6 10.7 3.6 3.6-0.5 7.7-2 10.3-5.1 3-3.1 5.6-7.2 8.2-11.8s5.1-9.2 7.6-14.3c11.8-26.6 18-63 9.8-96.3-0.5-1.5-0.5-2.5-1.1-4.1-0.5-1-0.5-2.5-1-4.1-2-6.6-5.1-13.3-8.7-19.4-0.5-1-1.5-2.6-2-3.6s-1.6-2.6-2.6-3.6c-4.1-6.1-8.7-11.8-14.3-16.9-0.5-0.5-1.6-1.5-2.1-2s-1.5-1.1-2-1.6c-4.1-3-8.2-5.1-12.3-6.1 0 0-0.5 0-0.5 0-0.5 0-1 0-1.6-0.5-0.5 0-1.5 0-2 0-1 0-1.5 0-2.6 0z m-341 198.7l-0.5 0.5c-23.6 32.2-23.6 83.9 0 116.2 11.2 15.4 27.1 25.1 44.5 25.1h0.5c42 0 62.5-48.1 62.5-83v-0.5c0-3 0-5.6-0.5-8.2-1.1-0.5-2.1-1-3.6-1.5l-102.9-48.6z m284.1 0l-102.9 48.6c-1 0.5-2 1-3.6 1.5 0 2.6-0.5 5.7-0.5 8.2v0.5c0 34.9 20.5 83 62.5 83h0.5c17.4 0 33.3-9.7 44.5-25.1 23.6-32.3 23.6-84 0-116.2l-0.5-0.5z m11.3 190.9c-7.2 0-13.8 2.6-19 8.2-0.5 0.5-0.5 0.5-1 1-5.1 5.7-10.2 10.3-15.9 15.4-5.6 4.6-11.2 9.2-17.9 13.3-31.7 21-69.1 31.8-107.5 29.7-24.1-1-47.1-6.6-68.6-16.9-3.6-1.5-7.2-3.6-10.2-5.1-16.9-9.2-32.8-21.5-46.6-36.9-10.3-11.2-27.2-11.7-38.4-1.5s-11.8 27.1-1.6 38.4c17.4 18.9 37.9 35.3 61 47.6 4.6 2.6 9.2 4.6 13.3 6.7 27.6 12.8 57.8 20.5 89.1 21.5 50.1 2 98.8-11.8 139.7-38.9 7.7-5.2 15.4-10.8 23.1-17.4 7.1-6.2 13.8-12.8 20.5-20 10.2-10.8 10.2-27.7-0.6-38.4-5.1-5.1-12.2-7.7-19.4-7.7z" /></svg>