<svg height="512" width="396.3" xmlns="http://www.w3.org/2000/svg"><path d="m340 25.6c-31.3 0-56.4 33.3-56.4 73.7 0 41 25.1 73.8 56.4 73.8s56.3-33.3 56.3-73.8c0-40.9-25.1-73.7-56.3-73.7z m-175.6 50.2h-136.8c-15.3 0-27.6 12.3-27.6 27.6s12.3 27.7 27.6 27.7h136.8c15.3 0 27.6-12.3 27.6-27.7s-12.3-27.6-27.6-27.6z m-134.2 184.8c-3.1 0-6.1 0.5-9.2 1.5-14.3 5.2-21.5 20.5-16.4 34.9 23.6 64.5 69.6 116.7 128 147.9 11.3 6.2 23 11.3 35.3 15.9 29.7 10.8 61.5 16.9 94.8 16.9 28.6 0 57.3-4.6 84.4-13.3 5.2-1.6 10.8-3.6 15.9-5.6 5.6-2.1 10.8-4.7 15.4-6.7h0.5c13.3-6.7 19.4-22.5 12.8-36.4-6.7-13.3-22.5-18.9-35.9-12.8-4.6 2.1-8.7 4.1-12.2 5.2-4.1 1.5-8.2 3-12.8 4.6-22.1 7.1-45.1 10.7-68.1 10.7-26.2 0-51.8-4.6-75.8-13.8-9.7-3.6-19-7.7-28.2-12.8-46.6-25.1-83.4-66.6-102.4-118.3-4.1-10.7-14.3-17.9-25.6-17.9z" /></svg>