<svg height="512" width="511.5" xmlns="http://www.w3.org/2000/svg"><path d="m65.5 124.4c-15.3 0-27.6 12.3-27.6 27.7s12.3 27.6 27.6 27.6h136.7c15.4 0 27.7-12.3 27.7-27.6s-12.3-27.7-27.7-27.7h-136.7z m243.7 0c-15.3 0-27.6 12.3-27.6 27.7s12.3 27.6 27.6 27.6h136.8c15.3 0 27.6-12.3 27.6-27.6s-12.3-27.7-27.6-27.7h-136.8z m175.2 207.9c-6.7 0-13.9 2.5-19 8.2-2 2-4.1 4.1-6.1 6.1-56.9 55.8-129.6 84-202.8 84.5-72.7 0.5-145.4-26.1-202.7-79.9l-1.6-1-6.1-6.1c-10.8-10.8-27.7-10.8-38.4 0.5-10.3 10.7-10.3 28.1 0.5 38.9 2 2 4.6 4.1 7.2 7.2l1.5 1.5c67.6 63.5 154.1 94.7 240.1 94.2 86.6-0.5 173.1-34.3 239.6-99.8 2.6-2.6 4.6-4.6 7.2-7.2 10.2-10.8 10.2-28.2-0.5-38.9-5.1-5.1-12.3-8.2-18.9-8.2z" /></svg>