<svg height="512" width="856.6" xmlns="http://www.w3.org/2000/svg"><path d="m631.8 0c-8.7 0-17.4 4.1-22.5 11.8-27.7 40.9-12.3 73.7 2 104.4 7.2 14.9 13.3 28.7 2.6 36.9-11.8 9.2-14.3 26.1-5.1 37.9s26.1 14.3 37.9 5.1c45.5-34.8 30.7-67.1 13.8-102.9-8.2-17.4-16.9-35.9-6.2-51.2 8.2-12.3 5.2-29.2-7.1-37.9-4.6-3.1-9.8-4.6-15.4-4.6z m-523.3 62c-40.9 0-79.8 19.9-103.4 53.7-9.2 12.8-6.1 30.2 6.7 39.4s30.2 6.2 39.4-6.6c22.5-32.3 67.1-39.4 98.3-16.9 2.1 1.5 3.6 3.1 5.6 4.6l0.5 0.5c2.1 1.5 3.6 3.6 5.7 5.6l0.5 0.5 0.5 0.6c10.2 11.7 28.2 12.2 39.9 2s12.8-28.2 2.1-39.9c-23.6-27.7-59.4-44.6-96.3-44.6z m255.5 0c-40.9 0-79.8 19.9-103.4 53.7-9.2 12.8-6.1 30.2 6.7 39.4s30.2 6.2 39.4-6.6c22.5-32.3 67.1-39.4 98.3-16.9 2 1.5 3.6 3.1 5.6 4.6l0.5 0.5c2.1 1.5 3.6 3.6 5.7 5.6l0.5 0.5 0.5 0.6c10.2 11.7 28.2 12.2 39.9 2s12.3-28.2 2.1-39.9c-23.6-27.7-59.4-44.6-96.3-44.6z m105.5 177.1c-12.3 0-22.5 10.2-22.5 22.5v142.4c0 29.7 12.3 56.8 31.7 76.3s46.1 31.2 75.8 31.7h115.2c1 0 1.5 0 2.6 0 7.1 0 13.8-1 20.4-2.6 7.7-1.5 14.4-4.1 21-7.1 28.2-12.8 49.7-37.9 58.4-68.1h15.9c18.4 0 35.3-7.7 47.6-20s19.4-28.7 19.4-47.1v-60.4c0-18.4-7.6-35.3-19.9-47.6s-28.7-19.5-47.6-20h-319z m309.3 51.7c5.6 0 10.7 2.6 14.8 6.2 3.6 3.5 6.1 9.2 6.1 14.8v55.8c0 5.6-2.5 10.8-6.1 14.9-3.6 3.5-9.2 6.1-14.8 6.1h-31.8c-10.7 0-19.4 8.2-20.5 19-2 20.9-15.3 39.4-34.3 47.6-3.6 1.5-7.7 3-11.2 4.1s-7.2 1.5-10.8 1.5h-108.5c-15.9 0-30.2-6.7-41-16.9l-0.5-0.5c-10.8-10.8-17.4-25.1-17.4-41.5v-111.6h274.9z m-42 28.2v49.6h16.9c10.7 0 19.4-8.7 19.4-19.4v-10.3c0-10.7-8.7-19.4-19.4-19.4h-16.9z m-579.1 6.1c-15.4 0-28.2 12.3-28.2 28.2s12.3 28.1 28.2 28.1h152.1c15.3 0 28.1-12.2 28.1-28.1s-12.3-28.2-28.1-28.2h-152.1z" /></svg>