<svg height="512" width="454.7" xmlns="http://www.w3.org/2000/svg"><path d="m27.1 80.4c-5.1 0-10.7 1.5-15.3 5.1-12.3 8.7-15.4 25.6-6.7 38.4 23.1 32.8 60.9 52.2 100.9 52.2 35.8 0 70.6-16.4 93.7-43.5 10.2-11.3 9.2-28.7-2.1-38.9s-28.6-9.2-38.9 2l-0.5 0.6-0.5 0.5c-1.5 2-3.6 3.6-5.1 5.6l-0.5 0.5c-2.1 2.1-4.1 3.6-5.7 4.6-30.2 22-73.7 15.4-95.7-16.4-5.6-7.6-14.3-11.7-23.1-11.7z m248.4 0c-5.2 0-10.8 1.5-15.4 5.1-12.3 8.7-15.4 25.6-6.7 38.4 23.1 32.8 61 52.2 100.9 52.2 35.8 0 70.7-16.4 93.7-43.5 10.2-11.3 9.2-28.7-2-38.9s-28.7-9.2-39 2l-0.5 0.6-0.5 0.5c-1.5 2-3.6 3.6-5.1 5.6l-0.5 0.5c-2.1 2.1-4.1 3.6-5.6 4.6-30.3 22-73.8 15.4-95.8-16.4-5.6-7.6-14.3-11.7-23-11.7z m-222.8 295.9c-15.3 0-27.6 12.3-27.6 27.7s12.3 27.6 27.6 27.6h349.2c15.4 0 27.7-12.3 27.7-27.6s-12.3-27.7-27.7-27.7h-349.2z" /></svg>