<svg height="512" width="512.0" xmlns="http://www.w3.org/2000/svg"><path d="m27.1 57.3c-10.2 0-19.9 5.7-24.5 15.4-6.7 13.8-0.6 29.7 12.8 36.4l77.8 40.9c-1.6 23.6 4.1 47.6 17.4 65.6 10.7 14.3 26.1 25 44.5 25 46.1 0 65.1-54.7 62-91.6-61.5-27.1-118.8-58.9-178.2-89.1-3.6-2-7.7-2.6-11.8-2.6z m457.8 0c-4.1 0-8.2 1.1-11.8 2.6-59.9 30.2-117.3 62-178.2 89.1-2.5 36.9 15.9 91.6 62 91.6 18.4 0 34.3-10.7 44.5-25 13.3-18 19-42 17.4-65.6l77.8-40.9c13.9-6.7 19.5-22.6 12.8-36.4-4.6-9.7-14.3-15.4-24.5-15.4z m-232 275c-84.5 0-168.9 31.7-236 94.2l-1.5 1.5c-3.1 3.1-5.7 5.2-7.2 7.2-10.8 10.8-10.8 28.2-0.5 38.9s27.6 10.8 38.4 0.5l6.1-6.1 1.6-1c57.3-53.8 130-80.4 202.7-79.9 73.2 0.5 146.4 28.7 202.8 84.5 2 2 4.1 4.1 6.1 6.1 10.2 10.8 27.7 10.8 38.4 0.5 10.8-10.7 10.8-28.1 0.5-38.9-2.5-2.6-4.6-5.1-7.1-7.2-67.1-65.5-153.1-99.3-239.7-99.8-1.5 0-2.5 0-4.1 0z" /></svg>