<svg height="512" width="512.0" xmlns="http://www.w3.org/2000/svg"><path d="m258 505.3c-110.5 0-198.1-64.5-238.5-156.6-45.1-102.4-9.3-266.8 71.1-339.5l-3 80.4c4-5.1 34.8-6.7 39.4 0 16.4-31.7 69.6-55.3 112.6-56.3-16.4 13.8-54.3 63.5-50.7 89.1 21 6.6 52.8 6.6 69.7 7.6 5.1 2.6 4.1 20.5-6.2 34.9-13.3 18.4-49.6 25.1-49.6 25.1l4 54.2-39.9-18.9c-12.8 32.2 17.9 61.4 50.2 55.8 35.3-6.2 47.6-29.2 72.7-27.7 24.6 1.6 34.3 14.9 31.2 28.2-4.1 15.4-30.7 12.8-30.7 12.8-22.5 35.8-52.2 51.2-100.9 47.1 73.8 60.9 173.1 5.6 198.2-44s3.1-123.9-22-144.9c29.7 12.8 50.7 26.1 60.9 54.8 5.6-64-23.6-136.7-76.3-179.2 98.8 28.6 159.2 105.4 160.8 227.8s-108.1 249.9-254 249.9z" /></svg>