<svg height="512" width="483.3" xmlns="http://www.w3.org/2000/svg"><path d="m432.1 0c-41.4 0.5-92.6 23.6-143.8 54.3-122.4-17.9-255.5 53.2-261.2 197.6 30.8-47.6 114.7-131.6 187.9-154.1v7.2c-91.6 46-292.3 313.3-184.8 395.7 46.6 35.4 159.2-18.9 176.6-38.9 14.9 2.6 29.7 4.1 45.6 4.1 102.9 0 190-63.5 217.1-149.5h-154.1c-6.2 29.2-28.2 47.6-61.4 47.6-52.8 0-64.6-35.3-64.6-77.8h287.3c14.8-103.9-58.4-196.6-156.7-224.8 89.1-58.3 185.9-82.4 153.1 53.3h9.7c17.9-55.8 11.3-97.8-19.4-109.1-9.3-3.6-19-5.1-29.7-5.1-0.5 0-1.6 0-2.1 0z m-180.2 155.1c40.5 0 65.5 24.1 65.5 65.6h-129c0-39.5 23.6-65.6 63.5-65.6z m-187.9 216.1c30.2 42.5 76.8 73.7 131.1 87-39.5 30.2-115.7 43-136.2 26.7-24.6-20.5-18.5-63.5 5.1-114.2z" /></svg>