<svg height="512" width="512.0" xmlns="http://www.w3.org/2000/svg"><path d="m252.9 0c-136.2 0-246.8 107.5-252.9 242.2-0.5 9.2 6.7 9.7 6.7 9.7h43c8.2 0 9.7-4.6 10.2-9.2 4.6-101.9 89.6-183.3 193-183.3 55.3 0 105 23 140.3 60.4l-30.2 29.2c-5.1 6.1-5.1 13.8 2.6 16.4l126.4 25.6c10.8 2.5 23.6-5.7 19.5-22.6l-29.7-116.7c-0.5-4.6-8.2-11.3-14.9-6.1l-32.7 30.7c-46.1-47.1-110.1-75.8-180.8-75.8z m209.9 260.6c-8.1 0-9.7 4.6-10.2 9.2-4.6 101.9-89.6 183.3-193 183.3-55.3 0-105-23-140.3-60.4l30.2-29.2c5.1-6.1 5.1-13.8-2.6-16.4l-126.4-25.6c-10.8-2.5-23.6 5.7-19.5 22.6l29.7 116.7c0.5 4.6 8.2 11.3 14.9 6.1l32.7-30.7c46.1 47.1 110.1 75.8 180.8 75.8 136.2 0 246.8-107.5 252.9-242.2 0.5-9.2-6.7-9.7-6.7-9.7h-43z" /></svg>