<svg height="512" width="282.7" xmlns="http://www.w3.org/2000/svg"><path d="m0.5 148.5q0-20 14.3-34.3t34.4-14.4q19.9 0 33.7 14.4t14.4 34.3-14.4 34.3-33.7 14.3-34.4-14.3-14.3-34.3z m23.6 0q0 10.2 7.6 17.9t17.5 7.7q10.2 0 17.9-7.7t7.7-17.9-7.7-17.9-17.9-7.7q-10.8 0-18 7.1t-7.1 18z m103.9 118.3q0 30.7 16.9 54.7 8.7 12.3 24.6 20t36.3 7.7q58.4 0 73.2-44.6 1.6-5.6-1.5-10.7t-8.7-6.2q-5.6-1.5-10.8 2.1t-6.1 9.2q0 0.5-0.5 1.5l-0.5 2.1q-4.6 7.7-11.8 11.8-12.8 7.6-32.8 7.6-12.8 0-22.5-4-15.9-6.7-22.5-23.6-4.6-11.3-4.6-26.1v-86q0-6.2 1-11.8 1.5-15.4 11.8-27.7 11.7-13.8 36.8-13.8 20.5 0 32.8 7.2 8.2 4.6 11.8 11.8 0.5 1 0.5 2t0.5 1.6q1.5 5.6 6.1 8.1t10.8 1.6q5.6-1 8.7-6.2t1.5-10.7v-0.5l-2-6.2q-2.1-4.6-7.2-11.2t-12.3-11.8q-19.4-13.8-51.2-13.8-20.4 0-35.8 7.1t-24.6 19.5q-17.4 23.5-17.4 55.3v86z" /></svg>