<svg height="512" width="554.2" xmlns="http://www.w3.org/2000/svg"><path d="m0 306.2q0 53.2 37.4 91.6t90.6 41q4.6 0 4.6-4.6v-35.4q0-5.1-4.6-5.1-34.3-2-58.4-27.1t-24-60.4q0-32.8 22.5-57.4t55.8-28.6h13.8q5.1 0 5.1-4.6l1.6-15.4q4.1-43.5 36.8-72.7t76.3-29.2q43.6 0 75.8 29.2t37.4 72.7l2 15.4q0 4.6 4.6 4.6h43.1q35.3 0 61.4 25.6t26.1 60.4q0 34.3-24.1 59.9t-58.3 27.1q-5.1 0-5.1 5.1v35.4q0 4.6 5.1 4.6 34.8-1.1 64-19t46.1-48.1 16.8-65q0-26.6-10.7-51.2t-28.2-42-42.5-28.2-51.2-10.2h-8.7q-13.3-53.8-56.3-87.6t-97.8-34.3q-56.3 0-100.3 35.4t-55.8 89.6q-44.1 10.2-72.7 46t-28.7 82z m185.3 16.9q0 10.2 6.7 16.9 6.1 6.1 16.4 6.1 9.7 0 16.4-6.1l29.7-30.8v106q0 9.8 6.1 16.4t15.9 6.7q9.2 0 15.9-6.7t6.6-16.4v-104.9l30.2 29.7q15.9 12.3 32.8 0 6.6-6.2 6.6-16.4 0-9.7-6.6-16.4l-69.1-68.6q-6.7-6.7-15.9-6.7-9.7 0-15.9 6.7l-68.6 68.6q-6.6 6.7-6.6 15.9z" /></svg>