<svg height="512" width="554.2" xmlns="http://www.w3.org/2000/svg"><path d="m1 306.2q0 53.2 37.4 91.6t90.6 41q4.6 0 4.6-4.6v-35.9q0-4.6-4.6-4.6-34.3-2-58.3-27.1t-24.1-60.4q0-33.3 23-57.9t56.4-28.7l13.8-1q5.1 0 5.1-4.6l2-14.8q4.1-43 36.4-72.2t76.3-29.2q43.5 0 76.3 29.2t37.3 72.2l2.1 15.3q0 4.6 4.6 4.6h43q35.3 0 61.5 25.6t26.1 61q0 34.8-24.1 60.4t-58.4 27.1q-5.1 0-5.1 4.6v35.9q0 4.6 5.1 4.6 53.3-1.6 90.1-40.5t36.9-92.1q0-35.9-17.9-66.1t-48.1-47.6-66.6-17.4h-8.7q-12.8-53.8-56.3-87.6t-98.3-34.3q-56.3 0-100.4 34.9t-56.3 89.6q-44 10.2-72.7 46.5t-28.7 82z m185.9 40.9q0 9.3 6.6 15.9l68.6 69.6q5.2 6.2 15.4 6.2 11.3 0 16.4-6.2l69.1-69.6q6.7-7.2 6.7-15.9 0-9.2-6.7-15.3t-16.4-6.2-16.4 6.2l-30.2 29.7v-106.5q0-9.8-6.6-15.9t-16.4-6.1-15.9 6.1-6.1 15.9v106.5l-29.7-29.7q-7.2-6.2-16.4-6.2-10.2 0-16.4 6.2t-6.6 15.8z" /></svg>