<svg height="512" width="594.2" xmlns="http://www.w3.org/2000/svg"><path d="m1 325.1q0-39.9 25.1-70.6t63.5-39.5q10.2-47.1 47.6-76.8t85.5-29.7q47.1 0 84.5 29.2t48.1 74.8h7.2q47.1 0 80.4 33.3t33.3 80.3q0 30.8-15.4 56.9t-41.5 41.4-56.8 15.4h-247.3q-23 0-44-9.2t-36.4-24.1-24-36.3-9.3-44.1z m38.9 0q0 30.7 22.1 52.2t52.7 22.1h247.3q31.2 0 53.2-22.1t22-52.2-22-52.2-53.2-22h-36.9q-4.1 0-4.1-4.1l-1.5-12.8q-4.1-37.9-31.8-62.5t-65.5-25.1-65.5 25.1-31.3 62.5l-1.5 11.2q0 4.1-4.1 4.1l-11.8 1.6q-28.6 2.5-48.1 23.5t-19.5 50.2z m236.1-232.4q-4.1 3.6 2 5.6 16.4 7.2 28.7 14.9 4.6 1 6.1-1.1 24.1-23 56.4-23 32.7 0 56.3 21.5t26.6 53.2l2.6 16.9h37.8q26.2 0 44.6 18.5t18.4 44.5q0 24.1-16.4 42t-40.4 20.5q-4.1 0-4.1 4.1v30.2q0 4.1 4.1 4.1 40.4-2.6 68.1-31.8t27.6-69.1q0-42.5-29.7-72.2t-72.2-29.7h-4.1q-10.7-39.9-44-66t-74.7-26.1q-56.4 0-93.2 42.5z" /></svg>