<svg height="512" width="554.2" xmlns="http://www.w3.org/2000/svg"><path d="m1 306.2q0 53.2 37.4 91.6t90.6 41q4.6 0 4.6-4.6v-35.9q0-4.6-4.6-4.6-34.3-2-58.3-27.1t-24.1-60.4q0-33.3 23-57.9t56.4-28.7h13.8q5.1 0 5.1-4.6l2-15.3q4.1-43 36.4-72.2t76.3-29.2q43.5 0 76.3 29.2t37.3 72.2l2.1 15.3q0 4.6 4.6 4.6h43q35.3 0 61.5 25.6t26.1 61q0 34.8-24.1 60.4t-58.4 27.1q-5.1 0-5.1 4.6v35.9q0 4.6 5.1 4.6 53.3-1.6 90.1-40.5t36.9-92.1q0-35.9-17.9-66.1t-48.1-47.6-66.6-17.4h-8.7q-12.8-53.8-56.3-87.5t-98.3-34.4q-56.3 0-100.4 34.9t-56.3 89.6q-44 10.2-72.7 46.6t-28.7 81.9z" /></svg>