<svg height="512" width="637.0" xmlns="http://www.w3.org/2000/svg"><path d="m-1 307.2q0 45.1 26.6 80.4t68.6 47.1q4.1 0.5 6.7-2.1l31.2-37.3q-35.8 0-60.9-26.1t-25.6-62q0-33.3 22.5-57.9t56.3-28.1l13.3-1q5.1 0 5.1-5.2l2.1-14.3q4.1-43.5 36.9-72.7t76.2-29.2 76.8 29.2 36.9 72.7l1.5 15.9q1.6 4.6 5.7 4.6h43.5q35.3 0 60.9 25.6t25.6 60.9q0 33.8-22.5 58.9t-55.3 28.2q-19.5 2-24.1 7.6l-58.8 75.3q-5.7 7.7-4.1 16.9t8.2 14.8q6.1 6.7 15.8 5.7t15.9-9.8l51.7-65.5q24.6-2.6 46.6-13.8t37.9-29.2 25.1-41 9.2-48.1q0-29.2-11.3-53.7 31.3-37.9 31.3-88.6 0-28.2-11.3-54.3t-30.2-44.5-45.1-30.2-54.2-11.3q-60.5 0-104 46.6-31.7-17.4-72.2-17.4-56.3 0-100.3 35.3t-55.3 90.1q-45.1 10.3-74.3 46.1t-29.1 82.4z m103.9 219.6q3.1 8.8 12.3 12.8 8.7 4.1 17.9 0.6t12.3-12.3q3.6-8.2 0-16.9t-11.8-12.3q-8.7-4.1-17.4-0.5t-12.3 12.3q-3 10.2-0.5 16.9z m48.1-73.2v3.1q1.1 8.7 8.2 14.9t16.9 5.1 15.4-7.7l58.4-75.3q5.6-7.1 5.1-16.9t-7.7-15.3q-7.2-6.2-16.9-5.1t-15.9 8.1l-57.3 74.8q-5.1 6.1-5.1 13.8z m13.9 130.1q0 3.6 1 8.2 3.6 8.7 12.3 12.3 4.6 1.5 9.7 1.5 3.6 0 8.2-1 8.7-3.1 11.8-11.8 4.1-8.7 1-17.9t-11.8-12.3q-8.7-4.1-17.9-0.5t-12.3 12.3q-2 4.1-2 9.2z m44.5-63.5v2.6q0.5 9.2 8.7 15.3 6.2 6.7 15.9 5.6t15.9-9.2l110.5-139.2q5.7-8.2 4.7-17.4t-8.2-15.9q-7.2-5.6-16.4-4.6t-14.9 8.2l-111.1 140.3q-4.6 5.6-4.6 13.8z m15.4-541.2q0 9.7 7.1 15.9l16.4 17.4q6.2 6.1 14.9 7.2 8.2 1 16.4-6.2t8.1-16.9q0-9.2-6.6-15.9l-17.4-17.4q-6.2-6.6-15.9-6.6t-16.4 6.6-6.6 15.9z m78.3 571.4q0 4.6 1.5 8.2 3.6 8.7 11.8 12.3 4.1 2 9.2 2 2.6 0 8.2-1.5 9.2-3.6 12.3-12.3 4.1-8.7 1-17.4t-11.7-12.3q-8.7-4.1-18-0.5t-12.2 11.8q-1.6 4.6-1.6 9.7z m64.5-453.6q28.2-25.6 66.1-25.6 39.4 0 67.5 27.1t28.2 66.6q0 26.6-13.8 49.6-38.9-38.9-93.2-38.9h-8.7q-11.3-46.1-46.1-78.8z m43-140.3q0 9.2 6.7 15.9t16.4 6.1q9.7 0 16.3-6.1t6.7-15.9v-55.3q0-9.2-7.2-15.9t-16.3-6.6-16.4 6.6-6.7 16.4v55.3z m149 60.9q0 9.7 6.2 15.9 7.1 6.6 16.3 7.1t15.4-7.1l39.9-38.4q6.7-6.7 6.7-16.4 0-9.2-6.7-16.4t-16.3-7.2q-8.7 0-15.9 6.7l-38.4 39.4q-6.2 6.7-6.2 15.9z m20.5 317.4q0 9.3 6.7 15.9l17.4 16.9q6.6 6.7 14.8 7.2h1q7.2 0 16.9-7.2 6.7-6.6 6.7-15.3 0-9.8-6.7-16.9l-17.4-16.4q-6.1-6.7-15.9-6.7-10.2 0-16.8 6.7t-6.7 16.4z m39.9-169.9q0 9.2 6.7 15.8 6.6 7.2 15.9 7.2h54.7q9.3 0 15.9-6.7t6.7-16.3q0-9.3-6.7-15.9t-16.4-6.7h-54.8q-9.7 0-15.8 6.7t-6.7 15.9z" /></svg>