<svg height="512" width="457.0" xmlns="http://www.w3.org/2000/svg"><path d="m-62 245.8q0-9.8 6.7-16.4 7.2-6.7 15.9-6.7h54.8q9.2 0 15.3 6.7t6.2 16.4-6.2 16.3-15.3 6.7h-54.8q-9.2 0-15.9-6.7t-6.7-15.8z m76.3 184.8q0-9.2 6.2-16.4l39.4-37.9q6.1-6.1 15.9-6.1t15.8 6.1 6.2 15.4q0 9.7-6.7 16.9l-37.9 37.9q-16.3 12.8-32.7 0-6.2-6.7-6.2-15.9z m0-369.2q0-9.2 6.2-16.3 7.7-6.7 16.9-6.7 8.7 0 15.8 6.7l37.9 39.4q6.7 6.1 6.7 15.9t-6.2 15.8-15.8 6.7q-9.8 0-15.9-6.7l-39.4-37.9q-6.2-6.6-6.2-16.3z m68.1 184.4q0-37.4 19-69.7t50.7-50.7 69.6-18.9q28.2 0 53.8 11.3t44.5 29.7 29.7 44.5 11.3 53.8q0 37.3-18.5 69.6t-50.7 50.7-69.6 18.4-69.6-18.4-50.7-50.7-19-69.6z m45.1 0q0 38.9 27.6 66.5t66.6 27.7 66.6-27.7 27.6-66.5q0-38.4-27.6-65.6t-66.6-27.1q-38.9 0-66.1 27.1t-27.6 65.6z m71.2 207.3q0-9.7 6.6-15.9t16.4-6.6q9.7 0 16.4 6.6t6.6 15.9v53.3q0 9.7-6.6 16.4t-16.4 6.6-16.4-6.6-6.6-16.4v-53.3z m0-413.2v-54.2q0-9.3 6.6-15.9t15.9-6.7 15.9 6.7 6.6 15.9v54.2q0 9.3-6.6 15.4t-16.4 6.1-16.4-6.1-6.7-15.4z m147.4 351.8q0-9.2 6.2-14.9 6.1-6.1 14.8-6.1 9.7 0 15.9 6.1l38.9 37.9q6.6 7.2 6.6 16.4t-6.6 15.9q-15.9 12.3-32.3 0l-37.9-37.9q-6.1-6.7-6.1-16.9z m0-291.3q0-10.3 6.2-15.9l37.8-39.4q7.2-6.7 15.9-6.7 9.7 0 16.4 6.7t6.7 15.8q0 10.3-6.7 16.4l-38.9 37.9q-7.2 6.7-15.9 6.7-9.2 0-14.8-6.7t-6.2-15.9z m60.4 145.9q0-9.8 6.7-16.4t15.3-6.7h54.3q9.2 0 16.4 7.2t6.7 16.4-6.7 15.9-16.4 6.6h-54.3q-9.2 0-15.3-6.6t-6.2-16.4z" /></svg>