<svg height="512" width="637.0" xmlns="http://www.w3.org/2000/svg"><path d="m-0.5 306.2q0 44.5 26.6 79.8t69.1 47.2l-17.4 45q-2 5.6 3.6 5.6h56.8l-37.8 112.2h7.6l116.3-151.1q1.5-1.5 0.5-3.6t-4.1-2h-58.4l66.1-123.9q3-5.6-3.6-5.6h-78.9q-3.6 0-6.1 4.1l-28.7 76.8q-28.7-7.2-47.6-30.8t-19-53.7q0-33.8 22.6-58.4t56.3-28.7l13.3-1q4.6 0 6.1-3.6l2.1-15.8q4.1-43.6 36.9-72.7t76.2-29.2q43.6 0 76.3 29.2t37.4 72.7l2.1 15.8q0 4.6 4.6 4.6h43.5q35.8 0 61.4 25.6t25.6 61q0 34.8-24 60.4t-58.4 27.1q-5.1 0-5.1 4.6v35.9q0 4.6 5.1 4.6 35.3-1.1 64.5-19t46.6-48.1 16.9-65.5q0-29.2-11.8-53.8 30.7-38.4 30.7-87.5 0-37.9-18.9-70.7t-51.2-51.2-70.1-18.9q-28.7 0-55.9 11.7t-47.1 33.3q-32.2-17.4-72.2-17.4-56.8 0-100.8 35.3t-56.3 90.1q-44.1 10.3-73.3 46.6t-28.6 82.5z m218.1 264.7q0 6.1 4.1 12.8t12.3 9.2q4.6 1 6.6 1 6.2 0 10.3-2 8.2-3.1 11.2-15.4l7.7-27.6q2.6-10.3-2-18t-14.4-9.7q-8.2-2.5-16.3 2.1t-11.3 13.8l-6.7 27.6q-1 5.7-1 6.7z m6.1-592.4q0 9.7 6.7 15.9l17.4 17.4q6.2 6.1 14.3 7.1 8.2 1.6 16.4-6.1t8.2-16.9q0-9.2-6.6-15.9l-16.9-17.4q-6.7-6.6-15.9-6.6-10.2 0-16.9 6.6t-6.7 15.9z m29.7 464.4q-0.5 6.6 3.6 12.8t12.8 8.7q8.7 2.5 16.9-1.6t11.3-14.8l8.2-27.6q2.5-8.8-2.1-16.9t-14.3-10.8q-9.2-2.6-16.9 2.1t-10.8 14.3l-6.6 28.1q-1 4.7-1 6.7z m75.8 44.5q0 5.7 2.6 10.8 5.1 8.7 14.3 11.2 4.6 1.6 7.7 1.6 5.1 0 8.2-2.1 8.2-3 12.3-15.8l6.6-27.2q2.6-9.7-1.5-17.4t-13.3-10.2q-9.2-2.6-17.4 1.5t-10.8 13.3l-7.7 27.7q-0.5 3.6-0.5 6.1z m36.4-128.5q0 7.2 4.6 13.3t13.3 8.7q6.6 2.1 16.4-1 7.7-3.1 11.2-15.4l7.7-26.6q2.6-10.2-2-17.9t-14.4-9.7q-9.2-2.6-16.9 1.5t-10.7 13.3l-7.7 28.2q-0.5 5.1-0.5 5.6z m2.5-262.6q26.7-25.6 65.6-25.6 39.4 0 67 27.6t27.7 66.6q0 26.1-12.3 48.1-38.4-38.4-93.7-38.4h-8.2q-11.8-47.6-45-77.8z m42.5-140.3q0 9.7 6.7 16.4t16.4 6.6 15.8-6.6 6.2-16.4v-55.3q0-9.8-6.2-16.4t-15.8-6.7-16.4 6.7-6.7 16.4v55.3z m149 60.9q0 9.7 6.2 15.9 5.6 6.1 14.8 6.6t16.9-6.6l38.4-38.4q6.7-6.2 6.7-15.9t-6.7-15.9q-6.7-7.1-15.9-7.1t-15.3 7.1l-38.4 38.4q-6.2 6.2-6.2 15.9z m21 317.9q0 9.3 6.7 15.9l17.4 16.9q7.1 6.7 16.4 6.7l1 0.5q8.7 0 14.3-7.2 6.7-6.6 6.7-15.9t-6.7-16.3l-16.4-16.4q-7.1-7.2-16.4-7.2-9.7 0-16.3 6.7t-6.7 16.3z m38.9-169.9q0 9.7 7.2 15.8 6.1 7.2 15.9 7.2h54.7q9.8 0 16.4-6.7t6.7-16.3-6.7-15.9-16.4-6.7h-54.7q-9.8 0-16.4 6.7t-6.7 15.9z" /></svg>