<svg height="512" width="637.0" xmlns="http://www.w3.org/2000/svg"><path d="m2 306.7q0 35.8 17.5 66.5t48.1 48.2 66 17.4h288.8q35.8 0 66-17.4t48.2-48.2 17.9-66.5q0-26.6-11.3-53.3 30.8-37.3 30.8-88 0-28.7-11.3-54.3t-29.7-44.5-44.6-29.7-54.2-11.3q-59.4 0-103.4 46.6-31.3-17.4-72.2-17.4-56.4 0-99.4 34.8t-55.3 89.6q-44.5 10.2-73.2 46.1t-28.1 81.9z m45.6 0q0-33.3 22.5-57.9t56.4-28.1l13.3-1.1q5.1 0 5.1-4.6l2-14.3q5.7-43.5 37.4-72.2t75.3-29.2q44 0 76.8 29.2t36.8 72.2l2.1 15.4q1 4.6 5.6 4.6h43q35.4 0 61 25.6t25.6 60.4q0 36.3-25.6 61.9t-61 25.6h-288.7q-34.8 0-60.4-26.1t-25.6-61.4z m178.7-327.2q0 9.7 6.7 16.9l17.4 16.9q10.2 7.7 16.9 6.7 8.2 0 14.8-7.2t6.7-16.4-7.2-15.9l-15.9-17.4q-7.1-6.6-16.4-6.6-9.7 0-16.3 6.6t-6.7 16.4z m142.3 117.8q27.7-26.6 65.6-26.6 39.4 0 67 27.6t27.7 67.1q0 25.1-13.3 49.1-38.9-38.4-93.2-38.4h-8.7q-10.2-43.5-45.1-78.3z m43.6-140.8q0 10.2 6.1 16.4t15.9 6.1q10.2 0 16.4-6.1t6.1-16.4v-54.3q0-9.7-6.7-15.9t-16.3-6.1q-9.8 0-15.9 6.1t-6.2 15.9v54.3z m147.4 61.4q0 10.3 6.2 16.4 8.7 6.7 16.3 6.7 7.2 0 15.9-6.7l38.4-38.4q6.7-7.2 6.7-16.9t-6.7-15.9-15.9-6.6q-9.7 0-15.3 6.6l-39.4 38.4q-6.2 7.2-6.2 16.4z m21.5 315.4q0 9.7 6.7 16.9l17.4 16.9q6.1 6.7 15.3 6.7t15.9-6.7 6.7-16.9q0-9.2-6.7-15.4l-17.4-17.4q-6.6-6.6-15.4-6.6-9.7 0-16.3 6.6t-6.7 15.9z m38.9-168.4q0 9.2 7.2 15.3 6.7 6.7 16.4 6.7h54.3q9.2 0 15.3-6.2t6.2-15.8-6.2-16.4-15.3-6.7h-54.3q-9.7 0-16.4 6.7t-6.7 15.9z" /></svg>