<svg height="512" width="637.0" xmlns="http://www.w3.org/2000/svg"><path d="m0.5 306.2q0 53.7 37.4 92.1t90.6 41q5.1 0 5.1-4.6v-35.9q0-4.6-5.1-4.6-34.3-1.5-58.4-27.1t-24-60.4q0-33.3 22.5-57.9t56.3-28.6l14.4-1.1q5.1 0 5.1-4.6l1.5-14.8q4.1-43 36.9-72.2t76.3-29.2q43.5 0 76.3 29.2t37.3 72.2l2.1 15.3q0 5.2 4.6 5.2h43q35.8 0 62 25.6t26.1 60.4q0 34.8-24.1 60.4t-58.4 27.1q-5.1 0-5.1 4.6v35.9q0 4.6 5.1 4.6 53.8-1.6 90.7-40.5t37.3-92.6q0-29.2-11.2-53.3 31.7-38.4 31.7-88.6 0-37.8-18.9-70.1t-51.2-51.2-70.2-18.9q-62.4 0-103.9 46.5-32.3-17.4-72.7-17.4-56.3 0-100.4 34.9t-56.3 89.6q-44 10.7-73.2 46.5t-28.7 82.5z m142.3 188.4q4.1 8.7 12.3 12.3 8.2 4.1 16.9 0.5t11.8-11.8q4.1-8.7 0.5-17.4t-11.8-11.8q-8.1-4.1-16.3-0.5t-12.3 12.3q-4.1 7.2-1.1 16.4z m17.5-75.8q0 5.6 2.5 10.3 7.7 12.2 23.6 12.2 12.8 0 18.4-17.4l27.6-86q3.1-9.7-2-17.9t-14.8-9.7q-8.8-2.6-16.9 1.5t-10.8 13.3l-27.6 86q-1.1 3.6-1.1 7.2z m49.6 150q0 5.2 1 7.7 3.6 8.7 12.3 11.8 3.6 2 9.2 2 2.6 0 8.2-1.5 8.7-3.1 12.8-12.3t0-17.4-12.2-12.3-16.4 0q-7.7 3.1-11.3 9.2t-3.6 12.3z m16.4-590.3q0 10.2 6.7 15.9l17.4 17.4q6.6 6.6 14.3 7.1 8.2 1.6 16.4-6.1t8.2-17.4q0-9.7-6.7-15.9l-16.9-16.9q-7.7-6.6-16.9-6.6-9.7 0-16.4 6.6t-6.6 15.9z m3.6 518.7q0 6.6 4.1 12.8t12.8 8.7q4.6 1 6.6 1 6.2 0 10.3-2.1 8.2-3 11.2-15.3l48.2-163.9q2.5-9.7-1.6-17.4t-13.3-10.2q-9.7-2.6-17.4 1.5t-10.7 13.3l-49.2 164.9q-0.5 3.6-0.5 6.1z m92.1-10.3q0 5.6 1.6 8.2 3.6 8.2 11.8 11.8 4.1 2 9.2 2 2.5 0 8.2-1.5 9.2-3.6 12.3-11.8 3-8.7 0-16.9t-11.3-12.3q-9.2-4.1-17.4-0.5t-12.8 12.3q-1.6 2.6-1.6 8.7z m19-68.6q0 6.1 4.1 12.3t12.3 8.2q3 1 6.6 1 15.4 0 21-16.4l27.7-85q3-9.2-1.6-17.4t-13.8-10.7q-9.7-2.6-16.9 1.5t-10.7 13.3l-27.2 85.5q-1 5.7-1 7.2z m28.7-322q26.6-25.6 66.5-25.6 38.9 0 66.6 27.6t27.6 66.6q0 25.1-13.8 49.1-38.4-38.4-93.7-38.4h-8.2q-11.8-46.1-45-78.8z m43.5-140.3q0 9.7 6.6 16.4t16.4 6.6q9.2 0 15.9-6.6t6.7-16.4v-54.8q0-9.7-6.7-16.4t-15.9-6.7q-9.7 0-16.4 6.7t-6.6 16.4v54.8z m148 60.9q0 9.7 6.6 15.9 6.2 7.1 15.4 6.6t16.4-6.6l38.4-38.4q7.1-6.2 7.1-15.9t-6.6-16.4-16.4-6.6q-8.7 0-15.4 7.1l-38.9 38.4q-6.6 6.2-6.6 15.9z m21.5 317.4q0 9.3 6.6 15.9l17.4 16.9q5.7 7.2 15.9 7.2 9.7 0 15.4-7.2 7.1-6.7 7.1-15.9t-7.1-16.4l-17.5-16.3q-6.1-7.2-15.3-7.2t-15.9 6.7-6.6 16.3z m38.9-169.9q0 9.7 7.1 15.8 7.2 7.2 16.4 7.2h54.3q9.7 0 16.4-6.7t6.6-16.3q0-9.3-6.6-15.9t-16.4-6.7h-54.3q-10.2 0-16.9 6.7t-6.6 15.9z" /></svg>