<svg height="512" width="637.0" xmlns="http://www.w3.org/2000/svg"><path d="m-0.5 306.7q0 44 26.1 78.8t68.6 47.7l-16.9 45q-2 5.6 3.6 5.6h56.3l-33.3 105.5h7.7l111.1-143.9q1.6-1.5 0.5-3.5t-4.1-2.1h-57.8l66-123.4q2.6-5.6-3.6-5.6h-78.3q-3.6 0-6.1 3.6l-28.7 76.8q-28.7-7.2-47.1-31.3t-19-53.7q0-33.3 22.6-57.9t56.3-28.7l13.8-2q5.1 0 5.1-4.6l1.6-13.3q4.1-43.5 36.8-72.7t76.3-29.2q43.5 0 75.8 29.2t37.4 72.7l1.5 15.3q0 4.6 4.6 4.6h43q36.4 0 62 25.1t25.6 61q0 33.8-23.6 58.8t-58.3 27.7q-5.2 0-5.2 4.6v36.4q0 4.6 5.2 4.6 53.2-1.6 90.1-40.5t36.8-92.1q0-30.3-11.2-53.8 31.2-37.9 31.2-88.6 0-37.4-18.9-69.6t-51.2-51.2-70.2-19q-61.4 0-103.4 46.1-32.3-17.4-72.2-17.4-56.3 0-100.4 34.8t-55.8 89.6q-44.5 10.3-72.7 46.1t-28.6 81.9z m215.5 255.5q-0.5 6.1 3.6 11.8t12.3 8.7q2.6 0.5 5.1 0.5 6.7 0 13.9-4.1t9.2-12.3l60.9-228.4q2.6-9.2-1.5-16.9t-12.8-10.7q-9.3-2.6-17.4 2t-10.8 13.3l-61.4 229.4q-1.1 3.1-1.1 7.2z m8.7-582.7q0 9.7 6.7 15.9l17.4 17.4q6.7 6.7 16.4 6.7t15.4-6.7q7.1-5.6 7.1-15.9 0-9.7-6.6-15.8l-16.9-17.5q-7.2-6.6-16.4-6.6-10.3 0-16.4 6.6t-6.7 15.9z m101.9 501.3q0 4.6 3.1 10.2 5.1 8.2 13.3 11.8 2.6 1 8.2 1 6.2 0 8.7-1.5 8.2-3.1 10.8-15.4l39.9-148q2.6-9.7-2-17.4t-13.4-10.7q-9.2-2.6-17.4 2t-10.7 13.3l-39.4 149q0 1.1-0.6 3.1t-0.5 3.1z m40.5-384q26.6-25.6 66-25.6 38.9 0 66.6 27.1t27.6 66.1q0 25-13.8 49.1-39.9-39.4-93.2-39.4h-8.2q-12.3-46.6-45-77.8z m43.5-140.3q0 9.7 6.7 16.4t15.8 6.6q9.8 0 15.9-6.6t6.1-16.4v-54.8q0-9.7-6.1-16.4t-15.9-6.6q-9.2 0-15.8 6.6t-6.7 16.4v54.8z m147.5 60.9q0 9.7 7.1 15.9 5.7 6.6 15.4 6.6t16.4-6.6l38.4-38.9q7.1-6.2 7.1-15.9t-6.6-16.4-16.4-6.6q-9.2 0-15.4 7.1l-38.4 38.4q-7.1 6.2-7.1 15.9z m21.5 316.4q0 8.7 6.6 15.9l17.4 16.9q5.1 5.6 14.9 6.6l0.5 0.6q0.5 0 1 0t1 0q7.7 0 13.9-7.2 7.1-6.7 7.1-15.9t-7.1-16.4l-17.5-16.3q-6.6-7.2-15.3-7.2-9.2 0-15.9 6.6t-6.6 16.4z m38.9-169.4q0 9.7 7.1 15.8 7.2 7.2 16.4 7.2h54.3q9.2 0 16.4-6.7t6.6-16.3q0-9.3-6.6-15.9t-16.4-6.7h-54.3q-10.2 0-16.9 6.7t-6.6 15.9z" /></svg>