<svg height="512" width="637.0" xmlns="http://www.w3.org/2000/svg"><path d="m1 306.7q0 53.2 36.9 91.6t90.6 41q4.6 0 4.6-4.6v-36.4q0-4.6-4.6-4.6-34.8-2.5-58.4-27.6t-23.5-58.9q0-33.3 23-58.4t55.8-27.6l13.9-2.1q5.1 0 5.1-4.6l2-13.3q4.1-43.5 36.9-72.2t76.3-29.2q43.5 0 75.8 29.2t37.3 72.7l1.6 15.4q0 4.6 4.6 4.6h43q36.3 0 61.9 25.1t25.6 60.9q0 33.8-23.5 58.9t-58.4 27.6q-5.1 0-5.1 4.6v36.4q0 4.6 5.1 4.6 53.3-1.5 90.1-40.4t36.9-92.2q0-27.1-12.3-55.3 31.8-37.4 31.8-87 0-28.7-11.3-54.3t-29.7-44.6-44.6-29.6-54.2-10.8q-62 0-103.4 46.1-34.4-16.4-71.2-16.4-56.8 0-100.4 34.8t-55.8 89.6q-44 10.3-72.7 46.1t-28.7 81.9z m200.2 300.5h8.2l141.3-209.4q1.6-1.5 0.5-3.6t-3.6-2h-58.3l60.9-112.1q3.1-5.7-3.6-5.7h-78.8q-3.1 0-5.7 3.6l-57.3 152.6q-1 5.6 3.6 5.6h57.3z m23.1-628.7q0 9.7 6.6 16.4l17.4 17.4q16.9 12.8 32.3 0 6.6-7.7 6.6-16.9t-6.6-15.9l-16.9-17.4q-7.7-6.6-16.4-6.6-9.7 0-16.4 6.6t-6.6 16.4z m142.8 118.3q27.1-27.2 66.1-27.2t66.5 27.7 27.7 67.1q0 24-13.4 48.1-38.9-37.4-92.1-37.4h-8.2q-10.8-45.6-46.1-78.3z m43-140.8q0 10.2 6.7 16.4t16.4 6.6q9.7 0 15.8-6.1t6.2-16.9v-54.8q0-9.7-6.2-15.9t-15.8-6.1-16.4 6.1-6.7 15.9v54.8z m147.5 61.9q0 9.7 7.1 15.9 7.2 6.6 14.9 6.6 6.6 0 16.4-6.6l38.4-38.4q7.1-7.7 7.1-16.9 0-9.7-6.6-16.4t-16.4-6.6q-8.7 0-15.4 6.6l-38.4 38.4q-7.1 7.7-7.1 16.9z m21.5 315.4q0 9.2 6.6 16.4l16.9 17.4q6.7 6.7 15.4 6.7 9.7 0 16.4-6.7t6.6-16.9q0-8.7-7.1-15.4l-16.4-17.4q-7.7-6.1-16.4-6.1-9.7 0-15.9 6.7t-6.6 15.8z m38.9-168.4q0 9.2 6.6 15.3 6.7 6.7 15.9 6.7h54.8q9.7 0 16.4-6.7t6.6-15.8q0-9.8-6.6-16.4t-15.9-6.7h-54.8q-9.2 0-15.8 6.7t-6.7 16.4z" /></svg>