<svg height="512" width="637.0" xmlns="http://www.w3.org/2000/svg"><path d="m0.5 306.2q0 53.2 37.4 91.6t90.6 41q4.6 0 4.6-4.6v-35.9q0-4.6-4.6-4.6-33.8-2-57.8-27.1t-23.6-60.4q0-33.3 22.5-57.9t56.4-28.1l12.8-1.1q5.1 0 5.1-4.6l1.5-14.3q4.1-43.5 36.9-72.2t76.3-29.2 76.2 29.2 36.4 72.2l2 15.4q0 4.6 4.7 4.6h44.5q34.8 0 60.4 25.6t25.6 60.4q0 34.3-24 59.4t-57.9 28.1q-4.6 0-4.6 4.6v35.9q0 4.6 4.6 4.6 34.8-1 64-19t45.6-48.1 16.9-65q0-28.7-11.3-52.2 30.2-37.4 30.2-87.6 0-28.7-11.3-54.3t-29.7-44.5-44.5-29.7-54.3-11.3q-60.4 0-101.3 44.6-31.8-16.9-72.8-16.9-56.3 0-99.8 34.8t-54.8 89.6q-45 10.2-74.2 46.1t-29.2 81.9z m144.4 178.7q0 7.1 4.1 14.3t12.3 9.7q7.7 2.6 16.4-1.5t11.7-14.9l6.7-28.1q2.6-8.2-2.1-16.4t-13.8-11.3q-10.2-2.5-17.9 2.1t-9.7 14.3l-7.2 26.6q-0.5 3.6-0.5 5.2z m34.8-126q0 15.4 16.9 21 8.7 3.1 16.9-1.5t11.3-14.4l6.6-27.6q2.6-8.2-2-16.4t-13.8-11.3q-9.8-2.5-18 2.1t-9.7 13.8l-8.2 27.1q-1 3.6-1 6.7z m32.8 210.4q0 6.7 4.6 13.4t12.8 9.7q0.5 0 2.5 0.5t4.1 0.5q5.7 0 9.8-2 7.7-3.1 11.2-15.4l7.2-26.6q2.6-9.2-2-17.4t-13.9-10.8q-9.2-2.5-17.4 2.1t-10.7 13.8l-7.2 27.1q-1 5.1-1 5.7z m12.3-588.2q0 10.2 7.1 16.3l17.4 17.4q13.4 13.4 31.3 0 6.6-7.1 6.6-16.3t-6.6-16.4l-16.4-17.4q-6.7-6.7-15.9-6.7t-16.4 6.7-6.6 15.8z m23.5 460.8q0 6.6 4.1 13.3t12.3 9.2q9.2 2.5 16.9-1t10.8-14.9l6.6-27.1q2.6-9.2-1.5-17.4t-13.3-10.8q-10.3-2.5-18 2.1t-9.7 14.3l-7.7 27.6q-0.5 1.6-0.5 5.2z m74.3 46q1 14.9 16.9 22.1l6.6 1q6.7 0 12.8-4.1t8.7-13.3l7.7-27.2q2.6-9.7-2.6-17.9t-14.3-9.7q-8.2-2.6-16.4 2t-11.2 13.9l-7.2 27.1z m37.3-126.9q0 6.6 4.1 12.8t12.3 8.7l6.7 1q7.7 0 13.8-4.6t7.7-12.3l7.7-26.6q2.5-9.2-2.1-17.4t-13.8-10.8q-9.2-2.6-16.9 1.5t-10.2 13.4l-8.2 28.1q-1.1 3.1-1.1 6.2z m8.7-263.2q26.7-25.6 64-25.6 39.5 0 67.1 27.6t28.2 67.1q0 22-12.8 47.1-38.4-38.4-92.7-38.4h-8.7q-10.8-45-45.1-77.8z m41.5-139.3q0 10.3 6.7 16.4t16.4 6.2 16.3-6.2 6.7-16.4v-53.7q0-10.3-6.7-16.4t-16.3-6.7-16.4 6.7-6.7 16.4v53.7z m148 61.5q0 10.2 6.1 16.4 8.2 6.6 16.4 6.6 7.7 0 15.9-6.6l38.4-38.4q6.6-7.2 6.6-16.9t-6.6-15.9-15.9-6.7-16.4 6.7l-38.4 38.4q-6.1 7.2-6.1 16.4z m21 315.4q0 9.2 7.1 16.9l16.4 16.9q8.2 8.1 16.4 8.1 7.7 0 15.4-8.1 7.1-7.2 7.1-16.4t-7.1-15.9l-17.4-17.4q-6.7-6.7-15.4-6.7-9.7 0-16.4 6.7t-6.6 15.9z m39.4-168.5q0 9.2 6.7 15.4t15.3 6.6h54.8q10.2 0 16.9-6.1t6.6-15.9q0-10.2-6.6-16.4t-16.4-6.6h-54.8q-9.2 0-15.8 6.6t-6.7 16.4z" /></svg>