<svg height="512" width="637.0" xmlns="http://www.w3.org/2000/svg"><path d="m-0.5 306.7q0 34.8 16.9 64.5t46.1 48.1 64 19.5q5.1 0 5.1-4.6v-35.4q0-5.1-5.1-5.1-33.8-2-57.9-27.1t-24.1-59.9q0-32.8 22.6-57.4t55.8-28.1l13.8-1q5.1 0 5.1-4.6l2.1-14.4q4.1-43.5 36.3-72.2t75.8-29.2q43 0 75.8 29.2t37.4 72.2l1.5 15.4q0 4.6 4.6 4.6h43q35.3 0 61.4 25.6t26.2 60.4q0 34.3-24.1 59.9t-58.4 27.1q-5.1 0-5.1 5.2v35.3q0 4.6 5.1 4.6 34.8-1 64-18.9t46.1-48.2 16.9-65q0-29.7-11.3-53.2 31.3-37.9 31.3-88.1 0-37.9-19-70.2t-50.7-50.6-69.6-18.5q-61.9 0-103.4 46.1-32.8-17.4-71.7-17.4-56.3 0-99.8 34.8t-55.8 89.1q-44.1 10.8-72.8 46.1t-28.6 81.4z m157.2 23.5q0 15.4 11.2 26.2t27.2 10.7q15.8 0 26.6-10.7t10.7-26.2q0-10.2-9.2-27.1t-17.4-26.6q-8.7-9.2-10.7-11.3l-9.8 10.8q-10.7 11.2-19.9 27.6t-9.2 26.1z m66.5-349.7q0 10.3 6.7 16.4l16.9 17.4q16.9 12.8 32.8 0 6.6-7.6 6.6-16.9t-6.6-15.8l-16.9-17.4q-7.7-6.7-16.4-6.7-9.8 0-16.4 6.7t-6.7 16.3z m12.8 455.2q0 26.1 18 44t44 18q26.1 0 44-18.5t17.9-43.5q0-22-21.5-52.7-18.4-24.1-33.8-40-3-2-7.1-6.1l-6.2 6.1q-14.3 12.8-33.8 39.5-22 30.2-22 53.2z m39.5-176.6q0 10.2 7.6 17.4t18.5 7.1q10.2 0 17.4-7.1t7.1-17.4q0-16.4-24.5-43l-6.7 6.6q-7.2 7.7-13.3 18.5t-6.1 17.4z m90.1-161.8q26.6-26.6 65.5-26.6t66.1 27.6 27.1 66.6q0 24-13.3 49.1-38.4-38.4-92.7-38.4h-8.7q-11.8-46.6-44.5-78.3z m43-140.3q0 9.7 6.6 16.4t16.4 6.6 15.4-6.6 6.1-16.4v-54.3q0-9.7-6.1-15.9t-15.4-6.1q-9.7 0-16.4 6.1t-6.6 15.9v54.3z m146.9 61.9q0 9.8 6.7 15.9 7.1 6.7 14.8 6.7 7.2 0 16.4-6.7l38.4-38.4q7.2-7.2 7.2-16.4 0-9.7-6.7-16.4t-16.4-6.6q-8.7 0-15.3 6.6l-38.4 38.4q-6.7 6.7-6.7 16.9z m21.5 313.9q0 10.2 6.2 16.9l17.4 15.4q5.6 7.1 15.8 7.1 9.8 0 15.4-7.1 7.2-6.2 7.2-15.4t-7.2-15.4l-16.4-17.4q-7.1-6.6-16.4-6.6t-15.8 6.6-6.7 15.9z m38.9-167.9q0 9.2 6.7 15.3 7.2 6.7 16.4 6.7h53.7q9.8 0 16.4-6.2t6.7-15.8-6.7-15.9-16.4-6.7h-53.7q-9.8 0-16.4 6.7t-6.7 15.9z" /></svg>