<svg height="512" width="571.2" xmlns="http://www.w3.org/2000/svg"><path d="m-3.1 280.1q0-10.8 7.2-16.4 5.6-6.2 16.4-6.2h55.3q9.7 0 16.4 6.7t6.6 16.4q0 9.7-6.6 16.4t-15.9 6.6h-55.3q-9.7 0-16.9-6.6t-7.2-16.4z m25.1 135.6q0-9.7 6.7-16.3 6.6-6.2 16.4-6.2h485.3q9.8 0 16.9 6.7t6.7 15.8-7.2 16.4-16.4 6.7h-485.3q-9.8 0-16.4-6.7t-6.7-16.4z m54.3-324.6q0-10.2 6.1-15.8 6.7-7.2 16.4-7.2t16.4 7.2l38.4 38.9q6.7 6.6 6.7 15.8 0 10.3-6.7 16.4t-15.9 6.2q-8.7 0-15.8-6.7l-40-39.4q-6.1-5.6-6.1-16.4z m69.6 189q0 34.8 14.4 62.4 1.5 3.6 6.1 3.6h44.5q3.1 0 3.6-1.5t-2-4.6q-21-25.6-21-59.9 0-40 28.7-67.6t68.1-28.2q39.9 0 68.1 28.2t28.1 67.6q0 33.8-21.5 59.9-1.5 2.5-1.5 3-0.5 1.6 1 2.1t2.6 1h45.5q3.6 0 5.7-3.6 14.8-27.6 14.8-62.4 0-38.4-18.9-71.2t-52.3-52.2-71.1-19.5-71.2 19.5-52.2 52.2-19 71.2z m118.8-211.5v-55.8q0-9.7 6.7-16.4t16.3-7.2 16.4 7.2 7.2 16.4v55.8q0 9.7-7.2 16.4t-16.4 7.2-16.3-7.2-6.7-16.4z m150 62q0-9.8 6.7-15.9l38.4-38.9q6.6-7.2 16.4-7.2 10.2 0 16.9 6.7t6.6 16.3q0 10.3-6.1 16.4l-40.5 39.5q-6.6 6.1-15.9 6.1-10.2 0-16.3-6.1t-6.7-16.4z m62 150q0-10.8 6.6-16.4 5.7-6.2 15.4-6.2h55.8q9.7 0 16.9 6.7t6.6 16.4q0 9.7-7.1 16.4t-16.4 6.6h-55.8q-9.2 0-15.9-6.6t-6.6-16.4z" /></svg>