<svg height="512" width="571.2" xmlns="http://www.w3.org/2000/svg"><path d="m18.4 415.2q0-10.7 7.7-16.4 5.6-6.1 16.9-6.1h489q10.2 0 16.9 6.7t7.1 16.3q0 9.8-7.1 16.9t-16.9 7.2h-489q-10.2 0-16.9-7.2t-7.2-16.9z m52.8-221.2q0-10.2 6.6-16.8 6.7-7.2 16.9-7.2 9.2 0 15.9 7.2l39.9 39.9q7.2 7.2 7.2 16.9 0 9.2-7.2 16.4-6.1 7.1-15.8 7.1t-16.9-7.1l-40-40q-6.6-6.1-6.6-16.4z m78.3 149q-1.5 6.2 4.1 6.2h39.4q2.6 0 6.2-4.6 11.7-25.6 35.3-40.5t52.2-14.8q29.2 0 53.3 14.8t35.8 40.5q3.1 4.6 6.2 4.6h39.9q5.1 0 4.1-6.2-13.3-45-52.2-73.2t-86.6-28.1q-48.1 0-86 28.1t-51.2 73.8z m114.7-172v-56.8q0-10.3 6.6-16.9t16.4-7.2q10.3 0 16.9 6.7t6.7 17.4v56.8q0 10.2-6.7 16.9t-16.9 6.7q-9.7 0-16.4-7.2t-6.6-16.9z m152.6 63.5q0-9.2 7.1-16.9l41-39.9q6.1-7.2 16.4-7.2 9.7 0 15.9 6.7t6.1 16.8q0 10.8-6.1 16.4l-39.5 40q-6.6 6.6-15.3 7.6-9.2 1.1-17.4-6.6t-8.2-17.4z" /></svg>