<svg height="512" width="574.3" xmlns="http://www.w3.org/2000/svg"><path d="m-0.5 306.7q0 53.2 37.4 91.6t90.6 41q4.6 0 4.6-4.6v-35.3q0-4.6-4.6-4.6-34.3-1.6-58.4-27.2t-24-60.4q0-33.3 22.5-57.9t55.8-28.6l13.8-2.1q5.1 0 5.1-4.6l2.1-13.3q4.1-43 36.8-72.2t76.3-29.2q43.6 0 76.3 29.2t37.4 72.2l1.5 15.4q0 4.6 5.2 4.6h43q36.3 0 61.9 25.1t25.6 60.9q0 34.8-24 60.4t-58.4 27.1q-5.1 0-5.1 4.6v35.4q0 4.6 5.1 4.6 34.8-1 64.5-19.5t46.1-48.1 16.9-65q0-29.7-11.8-53.8 31.7-38.4 31.7-88.6 0-37.8-18.9-70.1t-51.2-51.2-70.1-18.9q-62.5 0-103.5 46-32.7-17.4-72.2-17.4-56.3 0-100.3 35.4t-56.3 89.6q-44.1 10.7-72.7 46.5t-28.7 82z m142.8 185.8q3.6 8.7 12.3 12.3 8.2 4.1 16.9 0.5t11.8-11.7q3.6-8.7 0.5-17.4t-11.8-12.8q-8.2-3.1-16.4 0.5t-12.2 11.2q-4.1 7.2-1.1 17.4z m16.9-75.2q0 6.1 4.1 12.3t12.3 8.2q9.2 2.5 17.4-1.6t11.3-14.8l26.6-83q3.1-9.7-2-17.9t-14.9-10.2q-8.7-2.6-16.4 1.5t-10.7 13.3l-26.6 85q0 0.5-0.6 2.1t-0.5 2.5 0 2.1z m49.7 149.5q0 3.6 1 7.7 3.6 8.7 12.3 11.7 3.1 2.1 8.7 2.1 2.6 0 8.2-1.5 8.7-3.1 12.8-12.3t0-17.4-12.3-12.3-16.4-0.5q-7.6 3-11.2 9.7t-3.6 12.3z m20-71.2q0 7.2 4.1 12.8t12.8 7.7q0.5 0 3 0.5t3.6 0.5q17.4-1.5 21.5-16.4l46.6-161.8q2.6-9.7-1.5-17.4t-13.3-10.2q-9.3-2.6-17.4 1.5t-10.8 13.3l-48.1 161.8q0 1.1-0.5 2.6t-0.5 3.1 0 2.5z m91.6-10.7q0 3 1.5 8.7 3.1 8.7 12.3 11.7 3.6 2.1 9.8 2.1 4.6 0 7.6-1.5 9.3-3.6 12.3-11.3 3.1-8.7 0-17.4t-11.2-12.8q-8.7-3.1-17.4 0.5t-12.8 11.3q-2.1 4.1-2.1 9.2z m19.5-67.6q0 14.3 16.4 19.9 5.6 1.6 8.1 1.6 5.2 0 9.3-2.1 7.1-3.5 10.7-14.8l26.1-83q3.1-9.2-1.5-16.9t-13.8-10.7q-9.3-2.6-16.9 1.5t-10.8 13.3l-26.1 83.5q-1 6.7-1 7.7z m27.6-320.5q27.7-26.7 66.1-26.7 38.9 0 66.5 27.7t27.7 66.6q0 24.5-13.9 49.1-39.4-39.4-93.1-39.4h-8.7q-12.3-46.1-44.6-77.8z" /></svg>