<svg height="512" width="637.0" xmlns="http://www.w3.org/2000/svg"><path d="m-1 415.2q0 9.8 7.1 15.9 7.2 7.2 16.4 7.2h157.2q10.8 0 18.4 7.7t7.7 18.4q0 10.2-8.2 17.9t-18.4 7.7q-10.2 0-17.9-8.2-7.7-7.2-16.9-7.2t-15.9 6.7-6.6 16.4q0 9.2 6.6 15.8 21 21 50.2 21t50.2-20.5 21-50.1q0-29.7-21-50.7t-50.2-21h-157.2q-9.7 0-16.4 6.6t-7.1 15.9z m0-80.4q0 9.3 7.1 15.4 6.2 6.7 16.4 6.7h293.4q29.7 0 50.2-21t21-50.2-21-50.2-50.2-20.5q-30.7 0-50.7 20-6.1 6.7-6.1 16.9 0 9.7 6.1 15.9t15.9 6.1q10.2 0 16.4-6.1 7.7-7.7 18.4-7.7 10.2 0 17.9 7.7t7.7 18.4-7.7 18.4-17.9 7.7h-293.4q-9.7 0-16.4 6.7t-7.1 15.8z m70.6-62.4q0 3.1 4.1 3.1h38.4q3.1 0 5.7-3.6 9.2-21.5 27.6-35.9t42.5-15.8l13.8-1.6q5.1 0 5.1-5.1l1.6-13.3q4.1-43.5 36.8-72.2t76.3-29.2 76.3 28.7 37.4 72.7l1.5 15.4q0 4.6 4.6 4.6h43.6q35.8 0 61.4 25t25.6 61q0 35.8-25.6 60.9t-61.4 25.6h-184.4q-4.6 0-4.6 4.6v36.4q0 4.6 4.6 4.6h184.4q35.8 0 66-17.9t48.1-48.2 18-66.5q0-29.7-11.3-53.8 30.2-39.9 30.2-88.6 0-28.6-11.3-54.2t-29.7-44.6-44.5-29.7-54.3-11.2q-61.4 0-103.4 46-31.2-16.4-71.2-16.4-56.3 0-99.8 34.9t-55.3 89.6q-33.8 8.2-60.4 32.7t-36.9 58.4v1q-0.5 1.6-0.5 2.6z m360.5-176.7q28.7-27.1 66-27.1 38.9 0 67.1 28.2t28.2 66.5q0 24.1-13.4 49.2-38.4-38.4-92.6-38.4h-9.2q-9.3-43-46.1-78.4z" /></svg>