<svg height="512" width="574.3" xmlns="http://www.w3.org/2000/svg"><path d="m-0.5 305.7q0 44 26.6 79.3t68.6 48.2l-16.9 44q-2 5.6 3.6 5.6h56.3l-30.7 109.1h7.7l108.5-146.5q1.6-1.5 0.5-3.5t-4.1-2.1h-57.8l66-124.4q3.1-5.6-3.5-5.6h-78.9q-4.1 0-5.1 3.5l-29.2 77.9q-28.7-7.2-47.6-31.3t-19-53.7q0-33.3 22.6-58.4t56.3-28.2l13.8-1.5q5.1 0 5.1-4.6l2.1-13.8q4.1-43.5 36.8-72.7t76.3-29.2q43.6 0 76.3 29.2t37.4 72.7l1.5 15.3q0 4.6 4.6 4.6h43.1q36.3 0 61.9 25.6t25.6 61q0 34.3-24.1 59.4t-58.8 27.6q-5.2 0-5.2 4.6v36.9q0 4.6 5.2 4.6 53.2-1.5 90.6-40.5t37.4-92.6q0-28.7-11.3-53.3 30.7-40.4 30.7-87.5 0-28.7-11.2-54.3t-30.3-44.5-45-29.7-54.3-11.3q-29.7 0-56.3 11.8t-46.6 33.3q-32.8-17.5-72.2-17.5-56.8 0-100.3 34.9t-56.4 90.1q-44 10.2-73.2 46.1t-28.6 81.9z m218.1 263.1q0 7.2 4.1 13.9t12.3 8.1q0.5 0 2.5 0.6t3.6 0.5q17.4-1.6 21.5-16.4l7.7-28.2q2.6-8.7-2.5-16.9t-14.4-10.7q-8.7-2.6-16.9 2t-10.7 14.4l-7.2 26.6q-1 5.1-1 6.6z m35.8-127.5q0 6.2 4.1 11.8t12.3 9.2q8.7 3.1 16.9-1.5t10.8-14.3l8.2-27.7q2.5-10.2-2.1-17.9t-14.3-9.7q-9.2-2.6-17.4 2t-11.3 14.4l-6.6 27.1q0 1-0.6 2t-0.5 2.6 0 2z m75.3 43.6q0 7.6 4.6 13.8t12.8 8.7q6.2 1.5 7.2 1.5 15.9 0 21-15.8l6.6-28.2q2.6-8.7-1.5-16.9t-13.3-11.3q-10.3-2.5-18.5 2.6t-10.2 14.3l-7.2 26.7q-1 3-1 5.1z m36.4-126.5q0 6.7 4.1 12.8t12.8 9.2q6.6 1 7.1 1 4.6 0 10.3-2 7.6-4.1 10.7-13.8l7.7-27.7q2.6-8.7-2.6-16.9t-14.3-10.7q-9.2-2.6-16.9 2t-10.8 14.4l-7.6 27.1q-0.5 3.6-0.5 6.1z m2.5-262.7q26.6-25.6 65-25.6 39.5 0 66.6 27.7t27.6 67.1q0 25.1-12.8 47.6-39.4-38.4-93.1-38.4h-8.7q-12.3-46.6-44.6-77.8z" /></svg>