<svg height="512" width="574.3" xmlns="http://www.w3.org/2000/svg"><path d="m-0.5 307.2q0 26.1 10.2 50.2t27.2 41.4 40.9 28.2 50.2 11.8q4.6 0 4.6-4.6v-35.9q0-4.6-4.6-4.6-33.8-1.5-58.4-27.1t-24-59.9 22.5-58.9 55.8-27.6l14.3-1.6q4.1 0 4.1-4.1l2.1-14.3q4.6-44 37.4-72.7t76.8-29.2q43.5 0 76.2 28.7t37.4 72.2l1.6 15.3q0 5.1 4.6 5.1h43q35.3 0 60.9 25.6t25.6 61.5q0 33.8-23.5 59.9t-57.9 27.1q-5.1 0-5.1 4.6v35.9q0 4.6 5.1 4.6 53.8-2.6 90.6-40.5t36.9-91.1q0-25.1-11.3-53.2 30.7-40 30.7-87.6 0-37.9-18.9-70.1t-51.2-51.2-70.1-19q-61.5 0-103 44.6-34.8-17.5-72.2-17.5-56.8 0-100.3 35.4t-55.8 90.1q-45.1 10.7-73.7 46.1t-28.2 82.4z m143.9 180.2q0 6.7 4.1 12.8t12.8 9.2q4.6 2.1 9.7 2.1t10.7-5.1 7.2-12.8l7.7-27.2q2.5-10.2-2.1-17.9t-14.3-9.7q-8.7-2.6-16.9 2t-11.3 13.3l-7.6 27.7q-0.6 3.6-0.6 6.1z m34.8-127.5q0.5 7.7 4.6 13.9t12.8 7.1q6.6 1.6 8.2 1.6 14.8 0 20.5-17.4l7.6-26.7q2.6-9.2-2-17.4t-14.3-11.2q-9.3-2.6-16.9 2t-10.8 13.8l-8.2 28.2q-1 5.1-1 6.6z m33.3 211q0 7.1 4.1 13.3t12.8 8.7q5.6 1.5 7.6 1.5 3.6 0 10.3-2.5 6.6-3.1 10.2-14.9l8.2-27.1q2.6-10.3-2-17.9t-13.9-9.8q-8.7-2.5-17.4 2.1t-11.2 13.8l-7.7 27.7q-1 3.5-1 6.1z m35.3-128q0 6.6 4.6 13.3t13.3 8.7q9.2 2.6 16.9-1t10.8-14.9l7.6-27.1q2.6-10.3-2-17.9t-14.4-9.8q-8.7-3-16.8 1.6t-11.3 13.8l-7.7 27.6q-1.5 4.7-1.5 5.7z m76.3 46.6q-0.5 6.1 3.6 12.3t12.2 8.7l7.2 0.5q4.6 0.5 10.3-2.1 8.1-3 11.2-14.3l7.7-28.2q2.6-9.2-2.1-16.9t-13.8-10.7q-10.2-2.6-17.9 2t-9.7 14.4l-7.7 26.6q0 1-0.5 3.1t-0.5 4.1z m35.8-128q0 7.1 4.6 13.3t13.3 8.2q0.5 0 2.6 0.5t3.6 0.5q17.4 0 21.5-16.4l7.7-27.6q2.5-10.3-2.1-18t-14.3-9.7q-9.2-2.5-17.4 2.1t-10.3 14.3l-8.2 27.1q-1 5.7-1 6.7z m9.2-264.2q26.7-25.6 65.1-25.6 38.9 0 66.5 28.1t27.7 67.1q0 25.6-12.8 47.1-38.4-38.4-93.2-38.4h-8.7q-10.3-44-44.6-77.8z" /></svg>