<svg height="512" width="574.3" xmlns="http://www.w3.org/2000/svg"><path d="m0.5 307.7q0 26.1 10.3 50.2t27.1 41.5 40.9 28.1 49.7 11.8q4.6 0 4.6-4.6v-35.9q0-4.6-4.6-4.6-34.8-2.5-58.4-27.6t-23.5-59.4q0-33.3 22.5-58.4t55.8-27.6l13.9-1.6q5.1 0 5.1-5.1l1.5-13.3q4.1-43.5 36.4-72.2t76.2-28.6q44.1 0 76.3 28.6t36.9 71.7l1.5 15.4q0 4.6 5.2 4.6h43q35.8 0 61.9 25.6t25.6 60.9q0 34.3-23.5 59.4t-58.4 27.6q-5.1 0-5.1 4.6v35.9q0 4.6 5.1 4.6 53.8-2.6 90.6-40.5t36.9-91.1q0-28.1-11.8-53.2 31.8-38.4 31.8-89.6 0-37.4-19-69.7t-51.2-51.2-69.6-18.9q-62.5 0-103.4 46.1-35.4-17.4-72.2-17.4-56.4 0-100.4 35.3t-56.3 90.1q-44 10.2-72.7 46.1t-28.7 81.9z m146.4 178.2q0 15.9 17.5 21 8.1 2.5 16.8-1.6t11.3-13.3l39.9-152.5q2.6-8.7-2.5-16.9t-14.3-10.8q-8.8-2.6-16.9 2.1t-10.8 13.8l-39.9 152q-1.1 4.7-1.1 6.7z m69.2 81.4q0 4.6 2 9.7 4.1 8.2 13.3 11.3 1 0 2.6 0.5t3.1 0.5 2.5 0q17.4 0 20.5-17.4l61.4-233q2.6-8.7-1.5-16.9t-13.3-10.7q-9.7-2.6-17.9 2t-10.3 13.9l-61.4 233.4q-1 3.6-1 7.2z m110.6-81.9q0 6.1 4.1 12.3t11.7 8.7q2.6 0.5 6.2 0.5 6.6 0 12.8-3.6t8.7-12.3l39.9-152.6q3.1-8.2-1.5-16.4t-13.8-11.2q-9.8-2.6-17.5 2t-9.7 13.9l-39.9 152q-1 4.6-1 6.7z m40.9-387.1q26.6-26.6 66.1-26.6 38.9 0 66.5 27.1t27.7 66.1q0 25.1-13.9 49.1-38.4-38.4-93.1-38.4h-8.2q-11.3-46.6-44.6-77.8z" /></svg>