<svg height="512" width="637.0" xmlns="http://www.w3.org/2000/svg"><path d="m-36.4 417.3q0 9.7 6.7 15.9t16.4 6.1h250.9q9.7 0 15.8-6.1t6.2-15.9q0-10.3-6.2-16.4t-15.8-6.7h-250.9q-10.3 0-16.4 6.7t-6.7 16.4z m70.2-81.4q0 9.7 6.6 15.8 6.2 6.7 15.9 6.7h251.4q9.2 0 15.9-6.7t6.1-15.8q0-9.2-6.1-15.9t-15.9-6.1h-251.4q-9.7 0-16.4 6.1t-6.6 15.9z m27.6-62.5q0 3.6 4.6 3.6h37.9q3.6 0 6.2-3.6 9.2-22 27.6-35.8t42-15.9l14.3-2.1q5.2 0 5.2-4.6l2-13.8q4.1-43.5 36.9-72.7t76.8-29.2q43.5 0 75.8 28.7t37.3 72.2l2.1 15.4q0 4.6 4.6 4.6h43.5q36.4 0 61.4 25.6t25.6 61.4q0 35.3-25.6 60.9t-61.4 26.1h-184.3q-4.6 0-4.6 4.6v35.9q0 4.6 4.6 4.6h184.3q35.8 0 66.6-17.4t48.1-48.1 17.9-66.6q0-35.3-17.4-66 29.2-26.2 40.5-68.7l4.6-18.4q0.5-0.5 0.5-2 0-3.1-4.1-4.1l-16.4-5.7q-17.4-5.1-31.2-15.3t-21.5-22.6-11.8-25-4.1-25.1q0-10.8 2.5-23.1l3.6-16.4q1.6-3.5-3.6-6.1l-22-6.7q-17.4-4-32.7-4-14.9 0-30.2 3.5t-31.8 10.8-31.2 21.5-26.6 32.8q-31.3-12.8-63.5-12.8-56.4 0-99.9 35.3t-55.3 90.1q-34.8 8.2-60.9 32.8t-36.3 58.8v1.1q-0.6 0.5-0.6 2z m19 226.3q0 9.7 7.2 15.9 6.6 6.6 15.8 6.6h251.4q9.7 0 16.4-6.6t6.7-15.9-6.7-15.9-16.4-6.1h-251.4q-9.7 0-16.4 6.1t-6.6 15.9z m335.9-409.6q13.8-22 35.8-34.3t45.6-11.8q4.6 0 6.6 0.5v6.7q0 38.9 21 74.2t57.9 52.8q-6.7 15.3-20.5 28.6-35.3-31.7-85-31.7h-8.7q-10.2-48.1-53.3-85.5z" /></svg>