<svg height="512" width="582.8" xmlns="http://www.w3.org/2000/svg"><path d="m-0.5 306.7q0 53.2 37.4 91.6t90.6 41q4.6 0 4.6-4.6v-35.9q0-4.6-4.6-4.6-34.3-2-58.4-27.6t-24-60.4q0-33.3 22.5-57.9t56.3-28.7l14.3-1q5.2 0 5.2-4.6l1.5-14.3q4.1-43.5 36.9-72.7t76.2-29.2q43.6 0 76.3 29.2t37.4 72.7l2.1 15.3q0 4.6 4.6 4.6h43q35.8 0 61.9 25.6t26.1 61q0 34.3-24 60.4t-58.4 27.6q-5.1 0-5.1 4.6v35.9q0 4.6 5.1 4.6 53.3-1.5 90.6-40.5t37.4-92.1q0-35.3-18.4-65.5 32.2-29.2 42.5-69.7l3.6-19.4q0.5-0.5 0.5-2.1 0-3.1-4.1-4.1l-14.9-4.6q-22.5-6.6-38.9-22t-23-32.8-7.2-34.3q-0.5-9.2 2.1-22l3.5-16.4q1.6-4.1-3.5-6.6l-21-6.7q-18-4.1-33.8-4.1-14.9 0-30.8 3.6t-32.2 10.8-32.3 21.5-26.6 32.7q-33.3-11.8-62.5-11.8-56.3 0-100.3 35.4t-56.3 90.1q-44.1 10.2-73.2 46.1t-28.7 82.4z m148.5 182.3q0 6.6 4.6 13.3t13.3 8.7q9.2 2.5 17.4-1t10.7-14.9l38.4-156.7q2.6-10.2-2-17.9t-13.8-9.7q-8.7-2.6-16.9 2t-10.8 13.3l-38.9 157.2q-0.5 5.1-0.5 5.7z m69.6 81.9q0 6.1 4.1 12.3t11.8 8.2q4.6 1 6.6 1 17.4 0 21.5-15.9l59.9-238.1q2.6-9.7-2-17.4t-13.3-10.2q-9.2-2.6-17.4 2t-10.3 13.3l-60.4 238.1q0 0.5-0.5 3.1t-0.5 4.1z m111.1-79.9q0 14.3 16.9 20 5.6 1.5 8.2 1.5 4.6 0 9.2-2 8.2-3.1 10.2-15.4l38.4-156.7q2.6-9.7-2-17.4t-13.3-10.7q-9.2-2.6-17.4 2t-10.3 13.3l-38.4 157.2q-1 6.7-1 8.2z m31.7-401.4q12.8-23 34.9-35.3t47.1-11.8q4.6 0 7.1 0.5v8.2q-0.5 38.9 20.5 73.2t59.4 52.8q-9.2 18.4-21 28.6-36.8-30.2-86-30.2h-8.2q-11.3-50.7-53.2-85.5z" /></svg>