<svg height="512" width="577.0" xmlns="http://www.w3.org/2000/svg"><path d="m1 307.2q0 34.8 16.9 65t46.6 48.2 64.5 18.9q4.6 0 4.6-4.6v-35.9q0-4.6-4.6-4.6-34.3-1.5-58.9-27.1t-24.5-59.9q0-33.8 23-58.9t56.3-27.6l13.9-2.1q5.1 0 5.1-4.6l2-13.8q4.1-44 36.9-73.7t76.8-29.7q43.5 0 76.3 29.7t37.3 72.7l2.1 15.3q0 4.6 4.6 4.6h43.5q35.9 0 62 26.1t26.1 62q0 33.8-24.6 59.9t-58.4 27.1q-5.1 0-5.1 4.6v35.9q0 4.6 5.1 4.6 35.4-1 64.6-18.9t46-48.2 16.9-65q0-29.7-11.2-53.8 32.2-39.9 32.2-89.6 0-38.4-18.9-70.6t-51.2-51.2-70.7-19q-29.7 0-57.3 12.3t-47.6 34.3q-35.4-17.4-72.2-17.4-56.9 0-100.9 35.4t-56.3 90.1q-45.1 11.7-73.7 47.6t-28.7 82.4z m142.4 188.4q0 6.7 4.1 13.3t12.2 9.2q9.3 2.6 16.9-1t10.8-14.8l3.6-16.4q2-9.2-2.6-16.9t-13.8-10.8q-9.2-2.5-17.4 2.1t-10.8 14.3l-3.6 15.9q-0.5 1.5-0.5 5.1z m20.4-77.3q0 8.7 6.7 15.4 6.1 6.6 15.4 6.6 9.7 0 15.8-6.6t6.7-15.9-6.7-15.9-15.8-6.6q-9.3 0-15.4 6.1t-6.1 15.9z m16.4-60.9q-0.5 6.1 3.6 12.3t12.8 8.7q8.2 2.5 16.9-2.1t11.3-13.8l7.6-24.1q3.1-9.7-2-17.4t-14.8-10.2q-8.8-2.6-16.9 1.5t-10.8 13.3l-6.7 24.6q-0.5 6.7-0.5 7.2z m30.7 221.2q0 6.6 4.1 13.3t12.8 8.7q3.6 1 6.7 1 17.4 0 21.5-16.4l3.6-15.9q2.5-10.2-2.1-17.9t-14.3-9.7q-8.7-2.6-16.4 2t-10.7 13.9l-3.6 15.8q-1 4.6-1 6.2z m21-77.4q0 9.3 6.7 15.4t15.4 6.7q9.7 0 15.8-6.2t6.2-15.9q0-9.2-6.2-15.3t-15.8-6.2-15.9 6.2-6.2 15.3z m16.4-60.4q-0.5 6.2 3.6 12.8t12.3 8.2q9.2 2.6 16.9-1.5t11.3-14.9l7.1-24q2.6-8.7-2-16.9t-14.4-10.8q-8.7-2.5-16.9 2.1t-10.7 14.3l-6.2 24.1q-0.5 3.6-0.5 7.1z m73.7 57.4q0 6.6 4.1 12.8t12.3 8.7q1.1 0 3.6 0.5t3.6 0.5q16.4 0 20.5-17.4l3.6-15.9q2.5-8.7-2.1-16.9t-13.8-11.2q-9.7-2.6-17.9 2t-10.8 14.3l-2.5 15.9q0 0.5-0.6 3.1t-0.5 3.6z m20-78.9q0 9.2 6.7 15.4 6.1 6.6 15.3 6.6t15.9-6.1 6.1-15.4q0-9.7-6.1-15.8t-15.9-6.2-15.8 6.2-6.2 15.8z m16.4-61.9q0 6.6 4.6 12.8t13.3 8.7q1 0 3.1 0.5t3.6 0.5q4.1 0 9.7-2.6 8.2-4.1 10.8-13.8l6.6-24q2.6-9.3-2-16.9t-13.3-10.8q-9.3-2.6-16.9 1.5t-10.8 13.4l-7.7 24q0 1-0.5 3.1t-0.5 3.6z m12.3-261.1q27.6-27.7 67.1-27.7t67 27.7 27.7 67q0 26.1-13.8 49.2-38.4-38.4-94.3-38.4h-8.7q-10.7-46.6-45-77.8z" /></svg>