<svg height="512" width="574.3" xmlns="http://www.w3.org/2000/svg"><path d="m0.5 306.7q0 44.5 26.6 79.3t68.6 46.6l-17.4 44.6q-2 5.6 3.6 5.6h56.3l-27.6 111.6h7.7l106-150q1.5-1.5 0.5-3.6t-4.1-2h-57.9l66.1-122.9q2.5-5.6-3.6-5.6h-78.4q-3.5 0-6.1 3.6l-28.7 76.2q-28.6-7.1-47.1-30.7t-18.4-53.7q0-33.3 22.5-57.9t55.8-28.2l14.4-1q5.1 0 5.1-4.6l2-14.3q4.1-43.5 36.4-72.2t75.8-29.2q43.5 0 75.7 29.2t36.9 72.2l2 14.8q0 5.1 4.7 5.1h43q35.3 0 61.4 25.6t26.1 60.5q0 34.3-24 59.9t-57.9 27.1q-5.1 0-5.1 4.6v35.9q0 4.6 5.1 4.6 34.8-1.1 64-19t46.1-48.1 16.9-65q0-29.7-11.3-53.8 31.2-36.3 31.2-88.1 0-37.3-18.9-69.6t-50.7-51.2-69.6-18.9q-62 0-103.4 46-32.3-17.4-72.2-17.4-56.4 0-99.9 34.9t-55.8 89.6q-44 10.2-72.7 46t-28.7 82z m211.5 263.7q0 6.6 4.1 12.3t12.3 8.1q1 0 2 0.6t2.6 0.5 2 0q16.9 0 21.5-15.9l65-237.1q2.6-9.2-2-16.9t-12.8-10.7q-9.2-2.6-17.4 1.5t-10.8 13.3l-65.5 237.1q-0.5 6.7-0.5 7.2z m110.6-80.9q0 6.6 4.1 12.3t12.8 8.7q1 0 2 0.5t2.6 0.5 2 0q4.6 0 9.7-2.1 7.7-3 11.3-14.8l44-156.2q2.6-9.2-2-16.9t-13.3-10.7q-9.2-2.6-17.4 1.5t-10.3 13.3l-43.5 157.2q-1 5.6-1 6.7z m44.5-392.2q27.1-25.6 66.1-25.6t66 27.1 27.6 66.1q0 25.6-13.3 49.1-38.4-38.4-93.1-38.4h-8.8q-11.2-46.1-44.5-78.3z" /></svg>