<svg height="512" width="580.0" xmlns="http://www.w3.org/2000/svg"><path d="m-1 309.8q0 45 26.6 80.3t70.1 48.2q3.6 0.5 6.7-2.1l30.2-38.9q-35.8 0-61.4-25.6t-26.1-61.4q0-34.3 23-59.9t57.3-28.2l13.9-2q4.6 0 4.6-3.6l2-14.9q4.6-44 37.9-73.7t76.8-29.7q44.6 0 77.3 29.2t37.4 73.2l2 15.9q1.1 4.6 5.7 4.6h43.5q35.8 0 61.9 26.1t26.2 63q0 33.8-23.1 58.9t-56.3 28.1q-18.9 0-24.1 7.7l-58.3 64q-6.2 7.2-5.2 16.9t8.8 16.9q5.1 7.2 15.8 6.1t16.4-10.2l52.2-55.3q32.8-3.1 60.4-22t43.6-48.2 16.4-62.9q0-25.1-11.3-55.3 31.2-39.4 31.2-88.6 0-38.9-18.9-71.7t-51.7-51.7-71.2-18.9q-63 0-103.9 45.5-34.9-17.4-74.3-17.4-57.3 0-101.4 35.4t-56.3 91.6q-45.5 10.2-74.7 46.6t-28.7 84z m101.4 200.2q0 5.1 1.5 8.7 3.1 8.7 11.8 11.7 9.2 4.1 17.9 0.5t12.3-12.2q4.1-8.7 0.5-18t-12.3-12.3q-9.2-3-17.4 0t-12.3 11.8q-1.5 3.6-1.5 9.8z m49.1-65.1q0 9.2 8.7 17.9 16.9 14.4 33.3-4l58.4-65.1q6.1-7.1 4.6-16.4t-8.7-15.3q-7.2-5.6-16.9-4.1t-15.9 7.7l-58.9 63.5q-5.6 8.1-5.6 15.8z m16.9 131.6q0 4.6 2 8.7 3.6 9.2 11.3 12.3 4.6 2.1 9.7 2.1 3.1 0 8.7-1.6 8.7-3.6 11.8-11.8 4.1-8.2 0.5-16.9t-12.3-12.2q-9.2-4.1-17.4-0.6t-12.8 12.8q-1.5 4.7-1.5 8.2z m44.5-64v3.6q1.1 9.7 8.7 15.9 5.7 7.1 15.9 6.1t15.9-10.2l112.6-131.1q6.2-7.2 5.2-16.9t-9.3-15.4q-7.1-5.6-16.3-5.1t-15.4 8.2l-112.1 131.1q-5.2 5.1-5.2 13.3z m97.3 22q-2.5 9.2 0 16.4 3.6 8.7 11.8 12.8 4.1 2.1 9.7 2.1 2.6 0 8.2-1.6 9.2-3.6 12.3-12.3 4.1-9.2 0.5-17.4t-11.8-11.7q-9.2-4.1-17.4-1.1t-12.8 12.3z m64-437.7q27.2-27.2 66.1-27.2 40.4 0 68.1 28.2t28.1 68.6q0 25.1-13.8 48.6-38.9-38.9-94.7-38.9h-8.7q-10.3-45.5-45.6-78.8z" /></svg>