<svg height="512" width="552.8" xmlns="http://www.w3.org/2000/svg"><path d="m-1 308.2q0 52.8 37.4 91.2t90.1 39.9q5.1 0 5.1-4.6v-35.3q0-4.6-5.1-4.6-33.8-1.6-57.9-27.2t-24.1-58.9q0-33.8 22.6-58.3t55.8-27.7l13.8-2q5.1 0 5.1-4.6l2.1-13.3q4.1-43.6 36.3-73.3t76.3-29.7q43.5 0 75.8 29.2t37.4 72.2l1.5 15.4q0 4.6 4.6 4.6h43q35.9 0 62 25.6t25.6 61.4q0 33.8-24.1 58.9t-58.4 27.1q-5.1 0-5.1 4.6v35.4q0 4.6 5.1 4.6 53.3-1.6 90.1-40t36.9-91.1q0-35.8-17.9-66t-48.1-48.2-66.1-17.9h-8.2q-13.3-53.7-56.3-87.5t-97.8-34.3q-56.3 0-99.8 34.8t-55.8 89.1q-45.1 11.7-73.3 47.1t-28.1 81.9z m144.4 187.4q0 6.7 4.1 13.3t12.2 9.2q9.3 2.6 16.9-1t10.8-14.8l3.6-16.4q2-9.2-2.6-16.9t-13.8-10.8q-9.2-2.5-17.4 2.1t-10.8 14.3l-3.6 15.9q-0.5 1.5-0.5 5.1z m20.4-77.3q0 8.7 6.7 15.4 6.1 6.6 15.4 6.6 9.7 0 15.8-6.6t6.7-15.9-6.7-15.9-15.8-6.6q-9.3 0-15.4 6.1t-6.1 15.9z m16.4-60.9q-0.5 6.1 3.6 12.3t12.8 8.7q8.2 2.5 16.9-2.1t11.3-13.8l7.6-24.1q3.1-9.7-2-17.4t-14.8-10.2q-8.8-2.6-16.9 1.5t-10.8 13.3l-6.7 24.6q-0.5 6.7-0.5 7.2z m30.7 221.2q0 6.6 4.1 13.3t12.8 8.7q3.6 1 6.7 1 17.4 0 21.5-16.4l3.6-15.9q2.5-10.2-2.1-17.9t-14.3-9.7q-8.7-2.6-16.4 2t-10.7 13.9l-3.6 15.8q-1 4.6-1 6.2z m21-77.4q0 9.3 6.7 15.4t15.4 6.7q9.7 0 15.8-6.2t6.2-15.9q0-9.2-6.2-15.3t-15.8-6.2-15.9 6.2-6.2 15.3z m16.4-60.4q-0.5 6.2 3.6 12.8t12.3 8.2q9.2 2.6 16.9-1.5t11.3-14.9l7.1-24q2.6-8.7-2-16.9t-14.4-10.8q-8.7-2.5-16.9 2.1t-10.7 14.3l-6.2 24.1q-0.5 3.6-0.5 7.1z m73.7 57.4q0 6.6 4.1 12.8t12.3 8.7q1.1 0 3.6 0.5t3.6 0.5q16.4 0 20.5-17.4l3.6-15.9q2.5-8.7-2.1-16.9t-13.8-11.2q-9.7-2.6-17.9 2t-10.8 14.3l-2.5 15.9q0 0.5-0.6 3.1t-0.5 3.6z m20-78.9q0 9.2 6.7 15.4 6.1 6.6 15.3 6.6t15.9-6.1 6.1-15.4q0-9.7-6.1-15.8t-15.9-6.2-15.8 6.2-6.2 15.8z m16.4-61.9q0 6.6 4.6 12.8t13.3 8.7q1 0 3.1 0.5t3.6 0.5q4.1 0 9.7-2.6 8.2-4.1 10.8-13.8l6.6-24q2.6-9.3-2-16.9t-13.3-10.8q-9.3-2.6-16.9 1.5t-10.8 13.4l-7.7 24q0 1-0.5 3.1t-0.5 3.6z" /></svg>