<svg height="512" width="554.2" xmlns="http://www.w3.org/2000/svg"><path d="m0.5 307.2q0-46.1 28.7-81.9t72.7-46.1q12.3-54.3 56.3-89.6t99.8-34.8q54.8 0 98.4 34.3t56.3 87.5h8.7q35.8 0 66 17.4t48.2 47.7 17.9 66q0 26.1-10.3 50.2t-27.1 42-40.5 28.6-49.6 11.8q-5.1 0-5.1-4.6v-35.3q0-4.6 5.1-4.6 33.8-1.6 58.4-27.2t24-60.4q0-34.8-26.1-60.4t-61.4-25.6h-43.6q-4.6 0-4.6-4.6l-2-15.4q-4.6-43.5-37.4-72.2t-75.8-29.1q-44 0-76.3 29.1t-36.3 72.2l-2.1 14.4q0 5.1-5.1 5.1l-13.8 0.5q-33.3 4.1-55.8 28.7t-22.5 57.3q0 34.8 24 60.4t58.4 27.2q4.6 0 4.6 4.6v35.3q0 4.6-4.6 4.6-53.8-2.5-90.6-40.9t-37.4-91.7z m142.9 178.2q0-2.6 0.5-5.1l43.5-153.6q2.6-7.7 8.7-11.8t12.3-4.1q3.1 0 6.6 1 9.8 1.5 14.4 9.7t2 18l-43.5 152.5q-5.1 16.9-22 16.9-1 0-2.6-0.5-2-1-3-1-8.7-2.6-12.8-8.7t-4.1-13.3z m70.1 74.7l65-234q1.6-7.6 8.2-11.7t13.3-4.1q3.1 0 7.2 1 9.2 2.6 13.3 10.2t1.5 16.9l-65 234.5q-1.5 6.7-7.7 11.8t-13.3 4.6q-4.1 0-7.1-1.5-8.2-2.1-13.9-10.8-4.1-6.6-1-17.4z m110.1-74.2q0-2.6 1-6.2l43.5-153.6q2.1-7.6 8.2-11.7t12.3-4.1q3.6 0 7.2 1 8.2 2 12.3 8.2t4.1 12.3q0 1.5-0.6 3.6t-0.5 3l-43 152.6q-1.5 7.7-7.7 12.3t-13.8 4.6l-6.6-1.5q-8.2-2.1-12.3-8.7t-4.1-12.8z" /></svg>