<svg height="512" width="277.0" xmlns="http://www.w3.org/2000/svg"><path d="m-1.5 270.3q0 37.9 18.9 70.2t51.2 50.7 69.6 18.4q38.4 0 70.7-18.4t50.7-50.7 18.4-70.2q0-9.7-6.1-16.3t-15.9-6.7-16.4 6.7-6.6 16.3q0 39.5-27.7 67.1t-67.1 27.7q-38.9 0-66-27.7t-27.1-67.1q0-33.8 20.9-61.4t49.2-29.2l-10.2 9.7q-6.7 7.2-6.7 15.4 0 9.2 6.7 15.9 14.3 13.8 32.2 0l49.2-48.7q6.6-5.1 6.6-16.4 0-10.2-6.6-15.3l-49.2-49.7q-7.2-6.6-15.3-6.6-10.3 0-16.9 6.6t-6.7 16.4q0 9.7 6.7 16.4l10.2 9.7q-50.2 8.7-83.5 48.1t-33.2 89.6z" /></svg>