<svg height="512" width="554.2" xmlns="http://www.w3.org/2000/svg"><path d="m-0.5 308.2q0-46.1 28.1-81.9t73.3-47.1q12.3-54.3 56.3-89.6t100.3-34.8q55.3 0 98.3 34.3t56.4 87.5h8.7q35.8 0 66 18t48.1 48.1 18 66q0 53.3-36.9 91.2t-90.1 39.9q-5.1 0-5.1-4.6v-35.3q0-4.6 5.1-4.6 33.8-1.6 58.4-27.2t24-59.4q0-35.3-25.6-61.4t-61.9-25.6h-43q-4.7 0-4.7-4.6l-2-15.4q-4.6-43.5-37.4-72.7t-75.8-29.2q-44 0-76.2 29.7t-36.9 73.3l-1.5 13.3q0 5.1-5.2 5.1l-13.8 1.5q-33.3 2.6-55.8 27.7t-22.5 58.3q0 33.8 24 59.4t58.4 27.2q4.6 0 4.6 4.6v35.3q0 4.6-4.6 4.6-53.7-1.5-90.6-39.9t-37.4-91.2z m170 108.6q0-9.2 6.1-15.4t15.9-6.6 15.9 6.6 6.6 15.4q0 9.7-6.6 16.4t-15.9 6.6-15.9-6.6-6.1-16.4z m0 96.7q0-9.7 6.6-15.8t15.4-6.2q9.7 0 15.9 6.2t6.1 15.8-6.1 15.9-15.9 6.2-15.9-6.2-6.1-15.9z m85-45q0-9.2 6.6-16.4 6.7-6.7 15.4-6.7 9.7 0 16.4 7.2t6.6 16.4-6.6 15.9-16.4 6.6q-9.2 0-15.4-6.6t-6.6-15.9z m0-96.8q0-9.2 6.6-15.9 7.2-6.6 15.4-6.6 9.7 0 16.4 6.6t6.6 15.9-6.6 15.9-16.4 6.6q-9.2 0-15.4-6.6t-6.6-15.9z m0 194.1q0-9.3 6.6-16.4 6.7-6.7 15.4-6.7 9.7 0 16.4 6.7t6.6 15.8-6.6 15.9-16.4 6.7q-9.2 0-15.4-6.7t-6.6-15.9z m86-149q0-8.7 6.6-15.4t15.9-6.6 15.9 6.6 6.1 15.4q0 9.7-6.1 16.4t-15.9 6.6-15.9-6.6-6.6-15.9z m0 96.7q0-8.7 6.6-15.8 6.2-6.2 15.9-6.2 9.2 0 15.9 6.2t6.1 15.8-6.1 15.9-15.9 6.2q-9.7 0-16.4-6.2t-6.6-15.9z" /></svg>