<svg height="512" width="637.0" xmlns="http://www.w3.org/2000/svg"><path d="m1.5 308.2q0 10.3 7.2 16.4 6.7 7.7 16.9 7.7h391.7q11.8 0 19.4 8.2t7.7 19.9q0 11.8-7.7 19t-19.4 7.7-19.5-7.7q-6.6-7.2-15.8-7.2-10.3 0-17.5 6.7t-7.1 16.4q0 10.2 7.7 16.9 22.5 22 52.2 22 31.2 0 53.7-21.5t22.6-52.8-22.6-53.2-53.2-22.5h-391.7q-10.2 0-17.4 7.1t-7.2 16.9z m0-87.5q0 9.7 7.2 16.4 7.2 7.1 16.9 7.1h534.5q31.3 0 53.8-22t22.5-52.7q0-31.3-22.5-53.3t-53.8-22q-30.7 0-52.2 21.5-7.7 6.7-7.7 17.9 0 10.3 7.2 16.9t16.9 6.7 16.9-6.7q7.7-8.2 18.9-8.2 11.8 0 19.5 8.2t7.7 19.5-7.7 19.4-19.5 7.7h-534.5q-10.2 0-17.4 7.2t-7.2 16.9z" /></svg>