<svg height="512" width="171.3" xmlns="http://www.w3.org/2000/svg"><path d="m-2.6 344.6q0-22 10.3-41t28.1-31.7v-170.5q0-20.5 13.9-34.8t34.3-14.4q21 0 34.8 14.4t14.3 34.8v170.5q17.9 12.8 28.2 31.7t10.2 40.5q0 36.3-25.6 61.9t-61.9 25.6-61.5-25.6-25.6-61.9z m30.2 0q0 24 16.9 40.9t40.5 16.9q24.1 0 41.5-16.9t17.4-40.9q0-15.9-8.2-29.7t-23.1-21l-4.6-2.6q-2.5-1-2.5-4.6v-184.3q0-8.2-6.2-13.8t-14.3-5.7q-8.2 0-13.8 5.7t-5.7 13.8v184.3q0 3.6-2.5 4.6l-4.6 2.6q-14.4 7.7-22 21t-7.7 29.7z m14.9-1q0 17.9 12.3 30.7t29.7 12.8 30.2-12.8 12.8-30.7q0-15.9-11.3-28.2t-26.6-14.3v-123.9q0-1.6-1.5-3.1t-3.6-1.6q-4.6 0-4.6 4.7v123.9q-15.4 2-26.7 14.3t-10.7 28.2z" /></svg>