<svg height="512" width="385.5" xmlns="http://www.w3.org/2000/svg"><path d="m6.7 296.4q-13.4-49.6 0-99.3 5.6-20.5 15.8-39.9t27.2-38.4 36.8-32.8 48.2-22.5 58.3-8.7q79.4 0 135.7 56.3 36.9 36.9 50.2 86t0 98.8q-5.7 20.5-15.9 40t-26.6 38.4-36.9 32.7-48.1 22.6-58.4 8.7q-79.8 0-136.2-56.3-36.8-36.9-50.1-86.6z m36.3-49.6q0 62.4 44 106 44.1 44 106 44 40.5 0 74.8-20t54.8-54.8 19.9-75.2q0-40.5-19.9-74.8t-54.8-54.8-74.8-19.9q-40.9 0-75.2 19.9t-54.8 54.8-20 74.8z m87-57.9q-0.5-2.5 1.1-4.1t4.1-0.5l150.5 62.5q2.6 0.5 2.6 2.5t-2.6 3.6l-57.3 26.1q-2.6 1.1-3.6 3.6l-26.1 57.4q-1.1 2.5-3.6 2.5-2.1 0-2.6-2.5z" /></svg>