<svg height="512" width="552.8" xmlns="http://www.w3.org/2000/svg"><path d="m0.5 269.3q0-9.2 6.2-14.8t15.3-6.2h322.1q8.7 0 14.3 5.7t5.6 15.3q0 8.7-5.6 14.3t-14.3 5.7h-322.1q-9.2 0-15.3-5.7t-6.2-14.3z m64.5-77.3q0-8.7 6.2-14.8t14.8-6.2h322.6q8.7 0 14.3 6.2t6.2 14.8-6.2 14.8-14.3 6.2h-322.6q-8.7 0-14.8-6.2t-6.2-14.8z m43 153.1q0-8.7 6.7-14.3 5.6-5.7 14.8-5.7h322.6q9.2 0 14.8 5.7t6.2 14.3-6.2 14.8-14.8 6.2h-322.6q-8.7 0-14.8-6.2t-6.2-14.8z m282.1-75.8q0-9.2 6.2-15.3t15.3-5.7h120.4q9.2 0 15.3 6.2t6.2 14.8q0 8.7-6.2 14.3t-14.8 5.7h-120.3q-9.3 0-15.4-5.7t-6.1-14.3z" /></svg>