<svg height="512" width="512.0" xmlns="http://www.w3.org/2000/svg"><path d="m144.9 218.1q-6.7-14.3 0-29.7t21-20.5q14.8-6.1 30.2 0t21.5 21q3.1 6.2 3.1 13.9t-3.1 14.8q-6.1 13.8-21.5 20t-30.7 0-21-20z m18.9-14.8q0 7.1 5.2 11.7t12.2 5.2 12.3-5.2 5.2-11.7-5.2-11.8-12.3-5.1-12.2 5.1-5.2 11.8z m85 87v-66q0-26.2 20.5-41.5t46.6-15.4q35.3 0 53.8 16.9l-16.9 27.2q-13.9-11.8-35.9-11.8-13.3 0-23 7.7t-9.7 24v51.2q0 16.4 9.7 24.1t23 7.7q20 0 36.9-11.8l15.9 27.1q-22.1 17.9-52.8 17.9-27.1 0-47.6-15.3t-20.5-41.5z" /></svg>