<svg height="512" width="512.0" xmlns="http://www.w3.org/2000/svg"><path d="m0 368.1q0-46.1 32.8-78.8t78.8-32.8q9.2 0 15.9 1 0.5-2 2-2-2-9.7-2-14.9 0-36.8 26.1-62.9t63-26.1h7.1q36.9-46.1 95.8-46.1t95.7 46.1h7.2q36.9 0 63 26.1t26.1 62.9q0 33.8-24.1 59.9 24.1 31.3 24.1 68.1 0 46.1-32.8 78.9t-78.8 32.8q-21 0-40-7.2-45 38.9-103.9 38.9t-103.9-38.9q-19 7.2-40 7.2-46.1 0-78.8-32.8t-32.8-78.9z m31.7 0q0 32.8 23.6 56.3t56.3 23.6q25.1 0 46.1-14.8 38.9 47.1 97.8 47.1t97.8-47.1q21 14.8 46.1 14.8 32.7 0 56.3-23.6t23.5-56.3q0-26.6-16.9-49.1-11.7-14.9-28.6-23.1t-34.3-8.2l-12.8 1.1q-9.3 1.5-16.9 5.1-16.9-31.8-47.1-51.2-29.7-19-67.1-19-52.7 0-91.1 39-12.3 13.3-21 28.1 0 3.1-2.1 3.1-13.8-6.2-30.2-6.2-32.8 0-56.3 23.6t-23.6 56.3z m131.1-145.9q42-30.2 93.2-30.2 37.4 0 72.2 16.9 33.8 16.9 55.8 48.1 7.2-1 15.9-1 36.3 0 66 22 13.8-16.9 13.8-37.9 0-24-16.3-40.4t-40.5-16.4q-11.3 0-22 4.1-10.8-22-32.8-35.8t-48.1-13.9-48.1 13.9q-22 13.8-32.8 35.8-10.2-4.1-22-4.1-19 0-33.3 10.7t-20.5 28.2z" /></svg>