<svg height="512" width="512.0" xmlns="http://www.w3.org/2000/svg"><path d="m1 368.1q0-46.1 32.8-78.8t78.8-32.8q9.3 0 15.9 1 39.9-54.7 108-64-4.6-15.8-4.6-32.7 0-15.9 4.1-32.3 8.7-33.8 32.3-57.8 20-20 48.1-30.3 3.6-1.5 6.7-1.5 5.6 0 10.2 5.1 5.1 5.2 5.1 11.3 0 2.6-1 5.1-6.1 16.9-6.1 33.3 0 10.2 2 20 6.2 26.6 25.6 46.6 20 19.9 46.6 26.1 10.2 2 20.5 2 16.9 0 33.8-6.1 2.5-1.1 5.1-1.1 6.1 0 11.3 5.2 5.1 4.6 5.1 10.2 0 3.1-1.6 6.7-10.2 28.1-30.2 48.1-4.1 4.1-13.8 10.7 33.8 10.8 55.3 40t21.5 66q0 46.1-32.8 78.9t-78.8 32.7q-21 0-39.9-7.1-45.1 38.9-104 38.9t-103.9-38.9q-19 7.1-39.9 7.1-46.1 0-78.9-32.7t-32.8-78.9z m31.8 0q0 32.8 23.5 56.3t56.3 23.6q25.1 0 46.1-14.8 38.9 47.1 97.8 47.1t97.8-47.1q21 14.8 46.1 14.8 32.8 0 56.3-23.6t23.6-56.3-23.6-56.3-56.3-23.5q-15.9 0-30.2 6.1-1-1-2.6-3.6t-1.5-3.6q-13.3-20.4-30.2-34.8-19.5-14.8-43-22-18-6.1-36.9-6.1-7.2 0-7.2 1-35.3 1-62.9 19.9t-44.1 49.2q-13.8-6.1-30.2-6.1-32.8 0-56.3 23.5t-23.6 56.3z m232.9-227.8q-2 10.2-2 21 0 16.9 6.1 32.2 68.6 4.6 112.2 59.9 33.2-8.2 52.7-32.7-4.1 0-7.7 0-52.2 0-90.1-37.9-37.4-37.4-37.4-87.6 0-5.1 0-10.2-3.6 2.6-8.2 7.2-19.9 19.9-26.1 48.1z" /></svg>