<svg height="512" width="512.0" xmlns="http://www.w3.org/2000/svg"><path d="m0 176.1q0-46.1 32.8-78.8t78.8-32.8q9.2 0 15.9 1 22-31.2 55.8-48.1 34.3-16.9 72.2-16.9t72.2 16.9q33.8 16.9 55.8 48.1 7.2-1 15.9-1 46 0 78.8 32.8t32.8 78.8-32.8 78.9-78.8 32.7q-21 0-40-7.1-23.5 21-56.8 31.2l12.8-39.9q23-13.3 37.9-31.3 21 14.9 46.1 14.9 32.7 0 56.3-23.6t23.5-56.3-23.5-56.3-56.3-23.6q-15.9 0-30.2 6.2-16.9-31.8-47.2-51.2-29.6-19-67-19t-67.1 19q-30.2 19.4-47.1 51.2-13.8-6.2-30.2-6.2-32.8 0-56.3 23.6t-23.6 56.3 23.6 56.3 56.3 23.6q25.1 0 46.1-14.9 22.5 28.2 59.9 40l-25.1 25.1q-24.6-10.3-41-25.1-18.9 7.1-39.9 7.1-46.1 0-78.9-32.7t-32.7-78.9z m192 303.6l31.7-95.7-31.7-31.7 95.7-95.8-31.7 95.8 31.7 31.7z" /></svg>