<svg height="512" width="512.0" xmlns="http://www.w3.org/2000/svg"><path d="m0 176.1q0-46.1 32.8-78.8t78.8-32.8q9.2 0 15.9 1 22-31.2 55.8-48.1 34.3-16.9 72.2-16.9t72.2 16.9q33.8 16.9 55.8 48.1 7.2-1 15.9-1 46 0 78.8 32.8t32.8 78.8-32.8 78.9-78.8 32.7q-21 0-40-7.1-38.9 33.8-93.2 37.9l-10.7 32.7 31.7 31.8-95.7 95.7 31.7-95.7-31.7-31.8 34.8-34.8q-43-8.2-74.7-35.8-19 7.1-40 7.1-46.1 0-78.8-32.7t-32.8-78.9z m31.7 0q0 32.8 23.6 56.3t56.3 23.6q25.1 0 46.1-14.8 38.9 47.1 97.8 47.1l22-3.1q45.6-7.7 75.8-44 21 14.8 46.1 14.8 32.7 0 56.3-23.6t23.5-56.3-23.5-56.3-56.3-23.5q-15.9 0-30.2 6.1-16.9-31.7-47.2-51.2-29.6-18.9-67-18.9t-67.1 18.9q-30.2 19.5-47.1 51.2-13.8-6.1-30.2-6.1-32.8 0-56.3 23.5t-23.6 56.3z" /></svg>