<svg height="512" width="512.0" xmlns="http://www.w3.org/2000/svg"><path d="m0 263.2q0-46.1 32.8-78.9t78.8-32.7q9.2 0 15.9 1 0.5-2.1 2-2.1-2-9.7-2-14.8 0-36.9 26.1-63t63-26.1h7.1q36.9-46.1 95.8-46.1t95.7 46.1h7.2q36.9 0 63 26.1t26.1 63q0 33.8-24.1 59.9 24.1 30.2 24.1 68.1 0 46.1-32.8 78.8t-78.8 32.8q-21 0-40-7.2-41.4 36.9-98.8 37.9l-5.1 10.3 31.7 31.7-95.7 64 31.7-64-31.7-31.7 23-14.9q-36.8-10.2-62.9-32.8-19 7.2-40 7.2-46.1 0-78.8-32.8t-32.8-78.8z m31.7 0q0 32.7 23.6 56.3t56.3 23.5q25.1 0 46.1-14.8 37.9 45.6 95.7 47.1l24.1-3.1q45.6-7.7 75.8-44 21 14.8 46.1 14.8 32.7 0 56.3-23.5t23.5-56.3q0-26.7-16.9-49.2-11.7-14.8-28.6-23t-34.3-8.2l-12.8 1q-9.3 1.5-16.9 5.1-16.9-31.7-47.1-51.2-29.7-18.9-67.1-18.9-52.7 0-91.1 38.9-12.3 12.3-21 28.2-0.6 1.5-2.1 3-13.8-6.1-30.2-6.1-32.8 0-56.3 23.5t-23.6 56.4z m131.1-146q42-30.2 93.2-30.2 37.4 0 72.2 16.9 33.8 16.9 55.8 48.2 7.2-1.1 15.9-1.1 35.8 0 66 21 13.8-16.4 13.8-36.8 0-24.1-16.3-40.5t-40.5-16.4q-11.3 0-22 4.1-10.8-23-32.8-36.3t-48.1-13.3-48.1 13.3-32.8 36.3q-10.2-4.1-22-4.1-19 0-33.3 10.8t-20.5 28.1z" /></svg>