<svg height="512" width="512.0" xmlns="http://www.w3.org/2000/svg"><path d="m63 271.4q0-7.2 4.6-11.3t11.2-4.6h31.8q7.2 0 11.3 4.6t4.6 11.3-4.6 11.2-11.3 4.6h-31.8q-7.1 0-11.2-4.6t-4.6-11.2z m60.9 146.9q-5.6-5.6-5.6-11.3t5.6-11.7l23-22.1q5.7-6.1 11.3-6.1l10.8 5.6q5.6 5.7 5.6 11.3t-5.6 11.3l-22.1 23q-6.1 5.6-11.7 5.6t-11.3-5.6z m0-270.8q-5.6-6.2-5.6-11.8t5.6-11.3 11.3-5.6 11.7 5.6l22.1 23.1q5.6 5.6 5.6 10.7t-5.6 10.8-10.8 5.6l-10.7-5.6z m34.8 123.9q0-46.1 32.8-78.9t78.8-32.8q14.9 0 31.8 5.2 17.4-5.2 31.7-5.2 46.1 0 78.9 32.8t32.7 78.9-32.7 78.8-78.9 32.8q-14.8 0-31.7-5.1-17.4 5.1-31.8 5.1-46 0-78.8-32.8t-32.8-78.8z m31.8 0q0 28.6 18.4 51.2 18.4 22 45.6 27.1-31.8-31.7-31.8-77.8t31.8-77.9q-27.2 5.2-45.6 27.2t-18.4 51.2z m64 192v-31.8q0-7.2 4.6-11.2t11.2-4.7 11.3 4.7 4.6 11.2v31.8q0 7.1-4.6 11.2t-11.3 4.6-11.2-4.6-4.6-11.2z m0-351.8v-31.7q0-7.2 4.6-11.3t11.2-4.6 11.3 4.6 4.6 11.3v31.7q0 7.2-4.6 11.3t-11.3 4.6-11.2-4.6-4.6-11.3z" /></svg>