<svg height="512" width="512.0" xmlns="http://www.w3.org/2000/svg"><path d="m48.1 431.1q0-7.2 4.6-11.3t11.3-4.6h384q7.2 0 11.3 4.6t4.6 11.3-4.6 11.3-11.3 4.6h-384q-7.2 0-11.3-4.6t-4.6-11.3z m0-64q0-7.2 4.6-11.3t11.3-4.6h384q7.2 0 11.3 4.6t4.6 11.3-4.6 11.3-11.3 4.6h-384q-7.2 0-11.3-4.6t-4.6-11.3z m0-64q0-7.2 4.6-11.3t11.3-4.6h384q7.2 0 11.3 4.6t4.6 11.3-4.6 11.3-11.3 4.6h-384q-7.2 0-11.3-4.6t-4.6-11.3z m96.3-130q4.6-45.1 36.3-76.8 20-20 48.2-30.3 3-1 5.6-1 6.1 0 11.3 5.1t5.1 10.8q0 2.6-1 5.1-6.2 16.9-6.2 33.8 0 10.2 2.1 20.5 6.1 26.6 26.1 46.6 19.9 19.4 46.6 25.6 10.2 2 19.9 2l33.3-6.1q2.6-1 5.1-1 6.2 0 10.8 5.1t5.1 11.2q0 2.6-1 5.7-5.1 14.3-11.8 26.1h-42q8.2-7.2 9.2-9.2-5.1 0-10.2 0-50.7 0-87.6-37.4-37.8-38.4-37.8-90.1 0-3.6 0-7.7-3.6 2.6-8.2 7.2-28.2 28.1-28.2 68.1t28.2 68.1l1 1h-41q-20.5-31.2-20.5-68.1 0-7.2 0.6-13.8z" /></svg>