<svg height="512" width="512.0" xmlns="http://www.w3.org/2000/svg"><path d="m0 176.1q0-46.1 32.8-78.8t78.8-32.8q9.2 0 15.9 1 22-31.2 55.8-48.1 34.3-16.9 72.2-16.9t72.2 16.9q33.8 16.9 55.8 48.1 7.2-1 15.9-1 46 0 78.8 32.8t32.8 78.8-32.8 78.9-78.8 32.7q-21 0-40-7.1-45 38.9-103.9 38.9t-103.9-38.9q-19 7.1-40 7.1-46.1 0-78.8-32.7t-32.8-78.9z m95.7 207.9q0-17.9 31.8-64l8.2 11.8q9.2 13.8 15.9 28.1 8.1 16.4 8.1 24.1 0 12.8-9.7 22.5t-22.5 9.8-22.5-9.8-9.8-22.5z m129.1 95.7q0-17.9 31.7-64l8.2 11.8q9.2 13.8 15.9 28.2 8.2 16.4 8.2 24 0 12.8-9.8 22.6t-22.5 9.7-22.5-9.7-9.7-22.6z m126.9-31.7q0-17.9 31.8-64l8.2 11.8q9.2 13.8 15.9 28.1 8.1 16.4 8.1 24.1 0 12.8-9.7 22.5t-22.5 9.8-22.5-9.8-9.8-22.5z" /></svg>