<svg height="512" width="512.0" xmlns="http://www.w3.org/2000/svg"><path d="m0 176.1q0-46.1 32.8-78.8t78.8-32.8q9.2 0 15.9 1 22-31.2 55.8-48.1 34.3-16.9 72.2-16.9t72.2 16.9q33.8 16.9 55.8 48.1 7.2-1 15.9-1 46 0 78.8 32.8t32.8 78.8-32.8 78.9-78.8 32.7q-17.4 0-33.8-6.1-2.1-8.2-6.2-13.8-4.6-9.8-15.8-16.9 0.5-0.5 3-2.6t4.6-4.1 2.6-3q21 14.8 46.1 14.8 32.7 0 56.3-23.6t23.5-56.3-23.5-56.3-56.3-23.5q-15.9 0-30.2 6.1-16.9-31.7-47.1-51.2-29.7-18.9-67.1-18.9t-67.1 18.9q-30.2 19.5-47.1 51.2-13.8-6.1-30.2-6.1-32.8 0-56.3 23.5t-23.6 56.3 23.6 56.3 56.3 23.6q25.1 0 46.1-14.8 0 1 10.2 10.2-11.2 7.7-15.8 16.9-4.1 6.1-6.2 13.8-16.9 6.2-33.8 6.2-46.1 0-78.8-32.8t-32.8-78.9z m177.7 182.3q2-7.7 8.2-10.2l17.9-10.8q-1-4.6-1-9.7t1-9.7l-17.9-10.3q-6.2-4.1-8.2-10.7-0.5-2.6-0.5-4.6 0-4.1 2-8.8 3.6-6.6 10.2-8.7t13.9 2.1l17.9 10.7q7.2-7.1 15.9-10.2v-21q0-7.2 5.6-12.3t12.3-5.6 12.3 5.6 5.6 12.3v21q9.2 3.1 15.9 10.2l17.9-10.7q7.2-4.1 13.8-2.1t10.3 8.7q2 4.1 2 8.8 0 2-0.5 4.6-2.1 7.1-8.2 10.7l-17.9 10.3q1 4.6 1 9.7t-1 9.7l17.9 10.8q6.1 3 8.2 10.2 0.5 2.6 0.5 5.1 0 4.6-2 8.2-3.6 6.2-10.8 8.2t-13.8-2l-17.9-10.3q-7.2 6.2-15.9 9.2v21q0 7.7-5.1 12.8t-12.8 5.1-12.8-5.1-5.2-12.8v-21q-8.7-3-15.8-9.2l-17.9 10.3q-7.2 3.5-13.9 2t-10.7-8.2q-2.1-3.6-2.1-8.2 0-2.5 0.5-5.1z m59.9-31.2q0 7.6 5.6 12.3t12.3 5.1 11.8-5.1q6.1-5.2 6.1-12.3t-5.6-12.3-12.3-5.1-12.3 5.1-5.6 12.3z" /></svg>