<svg height="512" width="512.0" xmlns="http://www.w3.org/2000/svg"><path d="m0 176.1q0-46.1 32.8-78.8t78.8-32.8q9.2 0 15.9 1 22-31.2 55.8-48.1 34.3-16.9 72.2-16.9t72.2 16.9q33.8 16.9 55.8 48.1 7.2-1 15.9-1 46 0 78.8 32.8t32.8 78.8-32.8 78.9-78.8 32.7q-21 0-40-7.1-45 38.9-103.9 38.9t-103.9-38.9q-19 7.1-40 7.1-46.1 0-78.8-32.7t-32.8-78.9z m31.7 0q0 32.8 23.6 56.3t56.3 23.6q25.1 0 46.1-14.8 38.9 47.1 97.8 47.1t97.8-47.1q21 14.8 46.1 14.8 32.7 0 56.3-23.6t23.5-56.3-23.5-56.3-56.3-23.5q-15.9 0-30.2 6.1-16.9-31.7-47.2-51.2-29.6-18.9-67-18.9t-67.1 18.9q-30.2 19.5-47.1 51.2-13.8-6.1-30.2-6.1-32.8 0-56.3 23.5t-23.6 56.3z m146 278.6q2-7.7 8.2-10.3l17.9-10.7q-1-4.6-1-9.8t1-9.7l-17.9-10.2q-6.2-4.1-8.2-10.8-0.5-2.5-0.5-4.6 0-4.1 2-8.7 3.6-6.7 10.2-8.7t13.9 2l17.9 10.8q7.2-7.2 15.9-10.2v-21q0-7.2 5.6-12.3t12.3-5.7 12.3 5.7 5.6 12.3v21q9.2 3 15.9 10.2l17.9-10.8q7.2-4 13.8-2t10.3 8.7q2 4.1 2 8.7 0 2.1-0.5 4.6-2.1 7.2-8.2 10.8l-17.9 10.2q1 4.6 1 9.7t-1 9.8l17.9 10.7q6.1 3.1 8.2 10.3 0.5 2.5 0.5 5.1 0 4.6-2 8.2-3.6 6.1-10.8 8.2t-13.8-2.1l-17.9-10.2q-7.2 6.1-15.9 9.2v21q0 7.7-5.1 12.8t-12.8 5.1-12.8-5.1-5.2-12.8v-21q-8.7-3.1-15.8-9.2l-17.9 10.2q-7.2 3.6-13.9 2.1t-10.7-8.2q-2.1-3.6-2.1-8.2 0-2.6 0.5-5.1z m59.9-31.3q0 7.7 5.6 12.3t12.3 5.1 11.8-5.1q6.1-5.1 6.1-12.3t-5.6-12.3-12.3-5.1-12.3 5.1-5.6 12.3z" /></svg>