<svg height="512" width="512.0" xmlns="http://www.w3.org/2000/svg"><path d="m48.1 256q0-7.2 4.6-11.3t11.3-4.6h31.7q7.2 0 11.3 4.6t4.6 11.3-4.6 11.3-11.3 4.6h-31.7q-7.2 0-11.3-4.6t-4.6-11.3z m61 146.9q-10.8-10.7 0-23l23-22q10.7-10.8 22 0t0 22l-22 23q-11.8 10.8-23 0z m0-270.8q-10.8-11.8 0-23t23 0l22 23q10.8 10.7 0 22t-22 0z m34.8 123.9q0-46.1 32.7-78.8t78.9-32.8 78.8 32.8 32.8 78.8-32.8 78.8-78.8 32.8-78.9-32.8-32.7-78.8z m95.7 192v-31.7q0-7.2 4.6-11.3t11.3-4.6 11.3 4.6 4.6 11.3v31.7q0 7.2-4.6 11.3t-11.3 4.6-11.3-4.6-4.6-11.3z m0-351.7v-31.8q0-7.2 4.6-11.3t11.3-4.6 11.3 4.6 4.6 11.3v31.8q0 7.1-4.6 11.2t-11.3 4.6-11.3-4.6-4.6-11.2z m117.3 261.6q11.2-10.8 22.5 0l23 22q10.8 11.8 0 23t-23 0l-22-23q-12.3-10.7-0.5-22z m0-203.8q-11.8-10.7 0.5-22l22-23q11.8-10.8 23 0t0 23l-23 22q-10.8 10.8-22.5 0z m42.5 101.9q0-7.2 4.6-11.3t11.2-4.6h31.8q7.1 0 11.2 4.6t4.6 11.3-4.6 11.3-11.2 4.6h-31.8q-7.1 0-11.2-4.6t-4.6-11.3z" /></svg>