<svg height="512" width="512.0" xmlns="http://www.w3.org/2000/svg"><path d="m109.1 180.2q-5.7-6.1-5.7-11.8t5.7-11.2 11.2-5.6 11.8 5.6l22 23q5.6 5.7 5.6 10.8t-5.6 10.7-10.7 5.7l-10.8-5.7z m34.8 156.2q0-7.2 4.6-11.3t11.2-4.6h192q7.2 0 11.3 4.6t4.6 11.3-4.6 11.2-11.3 4.7h-192q-7.1 0-11.2-4.7t-4.6-11.2z m2-48.1q6.2-41.5 36.9-68.7 31.2-27.6 72.7-27.6t72.7 27.6q31.2 27.2 36.9 68.7h-31.8q-4.6-28.2-27.1-46.1-22-17.9-51.2-17.9t-51.2 17.9q-22 17.9-27.2 46.1h-31.7z m30.2 112.1q0-7.2 4.6-11.3t11.3-4.6h128q7.2 0 11.3 4.6t4.6 11.3-4.6 11.2-11.3 4.7h-128q-7.2 0-11.3-4.7t-4.6-11.2z m64-256v-31.8q0-7.1 4.6-11.2t11.3-4.6 11.3 4.6 4.6 11.2v31.8q0 7.2-4.6 11.2t-11.3 4.7-11.3-4.7-4.6-11.2z m117.8 57.8q-5.6-5.6-5.6-10.7t5.6-10.8l22-23q6.1-5.6 11.8-5.6t11.2 5.6 5.7 11.3-5.7 11.7l-23 22.1q-5.6 5.6-10.7 5.6z" /></svg>