<svg height="512" width="512.0" xmlns="http://www.w3.org/2000/svg"><path d="m0 368.1q0-7.1 4.6-11.2t11.3-4.6h128q7.1 0 11.2 4.6t4.6 11.2-4.6 11.3-11.2 4.6h-128q-7.2 0-11.3-4.6t-4.6-11.3z m0-64q0-7.1 4.6-11.2t11.3-4.6h64q7.1 0 11.2 4.6t4.6 11.2-4.6 11.3-11.2 4.6h-64q-7.2 0-11.3-4.6t-4.6-11.3z m31.7-64q0-7.1 4.7-11.2t11.2-4.6h64q7.2 0 11.3 4.6t4.6 11.2-4.6 11.3-11.3 4.6h-64q-7.2 0-11.2-4.6t-4.7-11.3z m107.1 26.1q0-39.9 27.6-69.1t67.6-31.2q37.9-38.9 91.6-38.9t91.7 38.9q39.9 1.5 67.6 31.2 27.6 29.2 27.6 69.1 0 41-29.2 70.2t-71.1 29.2q-9.3 0-16.9-1.1-31.8 21-69.7 21t-69.6-21q-8.2 1.1-17.9 1.1-41 0-70.2-29.2t-29.1-70.2z" /></svg>