<svg height="512" width="512.0" xmlns="http://www.w3.org/2000/svg"><path d="m0 272.4q0-6.7 4.6-10.8t11.3-4.6h128q7.1 0 11.2 4.6t4.6 10.8q0 6.6-4.6 11.8t-11.2 5.1h-128q-6.7 0-11.3-5.1t-4.6-11.8z m0-64q0-6.7 4.6-10.8t11.3-4.6h64q7.1 0 11.2 4.6t4.6 10.8q0 6.6-4.6 11.8t-11.2 5.1h-64q-6.7 0-11.3-5.1t-4.6-11.8z m31.7-64q0-6.7 4.7-10.8t11.2-4.6h64q7.2 0 11.3 4.6t4.6 10.8q0 6.6-4.6 11.8t-11.3 5.1h-64q-6.6 0-11.2-5.1t-4.7-11.8z m107.1 25.6q0-40 27.6-68.6t67.6-30.7q37.9-39 91.6-39t91.7 39q39.9 1.5 67.6 30.7t27.6 68.6q0 42-29.2 71.2t-71.1 29.1q-9.3 0-16.9-1-31.8 20-69.7 20t-69.6-20q-8.2 1-17.9 1-41 0-70.2-29.1t-29.1-71.2z m84.9 214q0-17.9 31.8-64l8.2 11.8q9.2 13.8 15.9 28.1 8.1 16.4 8.1 24.1 0 12.8-9.7 22.5t-22.5 9.8-22.5-9.8-9.8-22.5z m128 64q0-17.9 31.8-64l8.2 11.8q9.2 13.8 15.9 28.1 8.1 16.4 8.1 24.1 0 12.8-9.7 22.5t-22.5 9.8-22.5-9.8-9.8-22.5z" /></svg>