<svg height="512" width="315.4" xmlns="http://www.w3.org/2000/svg"><path d="m254 316.9h1.5l60.4 114.7-64 5.1-40.4 47.7-53.3-84-53.2 84-43-48.2-62-4.6 60.4-114.7 0.5-0.5c0.5 4.6 2.6 7.7 5.1 11.8 4.7 6.6 11.8 10.2 20 14.8 7.2 2.6 13.3 4.1 19.5 4.1 6.6 0 12.8-1.5 16.9-4.1 3 2.6 6.6 5.7 10.2 7.7 6.7 4.1 14.9 6.7 24.6 6.7 9.2 0 16.9-2.6 23.5-6.7 4.1-2 6.7-5.1 9.3-7.7 5.6 2.6 11.7 4.1 17.9 4.1 5.6 0 11.7-1.5 18.4-4.1 9.7-4.6 15.4-8.2 20-14.8 2.5-4.1 5.1-7.2 6.6-11.8 0.5 0.5 1.6 0.5 2.6 0.5z m51.2-151c2.5 4.1 4 9.7 4 15.9s-1.5 11.7-4 15.3c-3.1 7.2-40.5 5.1-47.7 5.1 6.7 3.1 41 14.9 41.5 22.1 1.5 5.1 0 10.2-2.6 16.9-5.1 14.3-14.8 17.4-20.4 17.4-4.1 0-32.3-16.9-33.3-18l-2.1-0.5 0.6 0.5c4 4.1 33.2 29.7 30.7 35.9-1.6 5.1-4.1 9.7-8.2 14.3-6.7 6.7-12.3 9.7-19.5 9.7-4.1 0-27.6-27.6-31.2-31.2l-0.5-0.5v2c2.5 5.2 18.4 39 14.8 44.1-3 4.1-7.1 7.7-13.3 9.7-4.6 2.1-9.2 3.1-12.8 3.1-8.2 0-22-35.9-25.6-42.5 0 6.6 2.1 43.5-4.6 46.6-4.1 3-9.7 4.6-15.4 4.6-7.1 0-12.2-1.6-15.8-4.6-6.7-3.1-4.6-40.5-4.6-46.6v-1.6l-0.5 1.6c-2.6 6.6-16.9 42.5-25.6 42.5-3.1 0-7.7-1.6-12.8-3.1-5.7-2-9.8-5.6-12.8-9.7-4.7-5.1 11.7-38.9 14.3-44.1l1.5-2-2.5 0.5c-4.1 4.1-27.2 31.2-30.8 31.2-5.6 0-12.2-3-18.4-9.7-4.6-4.6-7.7-9.2-8.2-14.3-2-6.7 25.6-32.3 29.7-35.9l2.1-0.5-2.6 0.5c-1.5 1.6-29.7 18-32.2 18-7.2 0-15.4-3.1-22.1-17.4-2.5-6.7-3-11.8-2.5-16.9 0.5-7.2 35.8-18.5 42.5-22.1-6.7 0-43.5 2.1-47.6-5.1-3.1-4.1-4.1-9.2-4.1-15.3s0.5-12.3 4.1-15.9c4.1-5.6 40.9-4.1 47.6-4.1h1.5l-1.5-0.5c-6.7-2.6-41.5-14.9-42.5-22.5-0.5-4.7 0-10.3 2.5-15.9 6.7-14.4 14.9-16.9 22.1-16.9 2.5 0 30.7 16.9 32.2 17.9l2.6 0.5-2.1-2c-4.1-4.1-31.2-28.7-29.7-35.9 0.5-4.6 4.1-9.2 8.2-14.3 6.7-5.6 12.8-8.2 18.4-8.2 4.1 0 27.2 25.6 30.8 30.2l2.5 2.1-1.5-2.6c-2.6-5.1-18.4-38.4-14.3-45.1 3-4.1 7.1-6.6 12.8-9.2 5.1-2 9.7-2.5 12.8-2.5 9.2 0 23 35.3 25.6 42.5l0.5 1.5v-1.5c0-7.2-2.1-44.1 4.6-48.2 4.1-2.5 9.2-4.1 15.8-4.1 5.7 0 11.8 1.6 15.4 4.1 6.7 4.1 4.6 41 4.6 48.2 4.1-7.2 17.4-42.5 25.6-42.5 4.1 0 8.2 0.5 12.8 2.5 6.7 2.6 10.3 5.1 13.3 9.2 4.1 6.7-12.3 40-14.8 45.1v2.6l0.5-2.1c4.1-4.6 27.6-30.2 31.2-30.2 7.2 0 12.8 2.6 19.5 8.2 4.6 5.1 7.1 9.7 8.2 14.3 2.5 7.2-27.2 32.3-30.7 35.9l-0.6 2 2.1-0.5c1.5-1.5 29.7-17.9 33.3-17.9 5.6 0 15.3 2.5 20.4 16.9 2.6 5.6 4.1 11.8 2.6 15.9-0.5 7.6-35.3 19.9-41.5 22.5l-1.5 0.5h1.5c7.2 0 44.1-2.1 47.7 4.1z m-149 115.2c54.2 0 98.8-45.1 98.8-99.3 0-55.3-44.1-99.9-98.8-99.9-55.3 0-100.4 45.1-100.4 99.9 0 54.2 45.6 99.3 100.4 99.3z m0-23.1c-43 0-77.4-33.7-77.4-76.2 0-43 34.9-76.8 77.4-76.8s75.7 33.8 75.7 76.8c0 42.5-33.2 76.2-75.7 76.2z" /></svg>