<svg height="512" width="364.0" xmlns="http://www.w3.org/2000/svg"><path d="m181.8 389.1c-15.9 0-28.7-14.3-28.7-32.2 0-4.1 20-4.6 28.7-4.6 22.5 0 28.6 2 28.6 4.6 0 17.9-12.8 32.2-28.6 32.2z m174-23c5.2 5.6 8.2 12.3 8.2 19.4 0 45.1-114.7 65.6-182.2 65.6s-181.8-20.5-181.8-65.6c0-7.1 2.6-13.3 7.7-19.4 61.9-127.5 46.1-186.9 79.9-234.5 15.3-21 33.2-34.8 61.9-41 1.5-16.9 14.9-29.7 32.3-29.7 16.9 0 30.7 12.8 32.2 29.7 28.7 6.7 46.6 20 62 41 33.8 47.6 17.9 107 79.8 234.5z m-174 45c50.6 0 118.2-6.6 144.9-38.4-26.2-31.2-94.3-37.9-144.9-37.9-50.2 0-118.3 6.7-144.9 37.9 26.1 31.3 94.7 38.9 144.9 38.4z" /></svg>