<svg height="512" width="621.1" xmlns="http://www.w3.org/2000/svg"><path d="m128.5 220.2c4.6 0 8.2-4.6 8.2-9.3s-4.1-8.1-8.2-8.1h-51.2c-4.6 0-9.2 4-9.2 8.1s4.6 9.3 9.2 9.3h51.2z m0 37.3c4.6 0 8.2-4.6 8.2-9.2s-4.1-8.2-8.2-8.2h-51.2c-4.6 0-9.2 4.1-9.2 8.2s4.6 9.2 9.2 9.2h51.2z m107.5 7.2c61 0 108.1 22 148.5 62v-192.6c-39.9 42.5-87.5 64.6-148.5 64.6v66z m255-112.6l-17.4-17.4 70.7-69.7 17.4 16.9z m12.8 89.6v-24.6h117.8v24.6h-117.8z m-30.2 87.5l17.4-17.4 70.7 70.7-17.4 16.9z m-65.5-264.2c10.2 0 18.4 7.7 18.4 17.4v296c0 9.7-8.2 17.4-18.4 17.4s-18-7.7-18-17.4c-30.2-37.4-83.4-84.5-162.8-84.5h-32.7l71.6 120.8-43.5 31.3c-10.7 5.6-22.5-1.6-28.7-9.3l-89-143.3h-48.2s-45-24.6-45-63 45-60.4 45-60.4h170.5c79.4 0 132.6-49.2 162.8-88.6 0-9.7 7.7-17.4 18-17.4z" /></svg>