<svg height="512" width="502.3" xmlns="http://www.w3.org/2000/svg"><path d="m354.8 65h114.2c18.4 0 33.8 15.4 33.8 33.8v56.3c0 18.5-15.4 33.8-33.8 33.8h-51.2v250.4c0 23.5-10.8 35.3-35.8 35.3h-260.7c-23 0-35.8-11.8-35.8-35.3v-250.4h-51.2c-18.4 0-33.8-15.3-33.8-33.8v-56.3c0-18.4 15.4-33.8 33.8-33.8h114.2v-2.5c0-13.3 11.8-25.1 25.6-25.1h5.6c14.3 0 25.1 11.8 25.1 25.1v2.5h94.7v-2.5c0-13.3 10.8-25.1 24.6-25.1h6.7c14.3 0 25 11.8 25 25.1v2.5z m-164.3 369.2c12.3 0 22.5-10.3 22.5-22.6 0-12.8-10.2-23-22.5-23-13.3 0-23.6 10.2-23.6 23 0 12.3 10.3 22.6 23.6 22.6z m0-58.4c12.3 0 22.5-10.2 22.5-23 0-12.3-10.2-22.6-22.5-22.6-13.3 0-23.6 10.3-23.6 22.6 0 12.8 10.3 23 23.6 23z m0-58.9c12.3 0 22.5-9.7 22.5-23 0-12.3-10.2-22.5-22.5-22.5-13.3 0-23.6 10.2-23.6 22.5 0 13.3 10.3 23 23.6 23z m0-58.9c12.3 0 22.5-10.2 22.5-22.5 0-12.8-10.2-23-22.5-23-13.3 0-23.6 10.2-23.6 23 0 12.3 10.3 22.5 23.6 22.5z m61.4 176.2c12.3 0 22.5-10.3 22.5-22.6 0-12.8-10.2-23-22.5-23-12.8 0-23 10.2-23 23 0 12.3 10.2 22.6 23 22.6z m0-58.4c12.3 0 22.5-10.2 22.5-23 0-12.3-10.2-22.6-22.5-22.6-12.8 0-23 10.3-23 22.6 0 12.8 10.2 23 23 23z m0-58.9c12.3 0 22.5-9.7 22.5-23 0-12.3-10.2-22.5-22.5-22.5-12.8 0-23 10.2-23 22.5 0 13.3 10.2 23 23 23z m0-58.9c12.3 0 22.5-10.2 22.5-22.5 0-12.8-10.2-23-22.5-23-12.8 0-23 10.2-23 23 0 12.3 10.2 22.5 23 22.5z m61.4 176.2c13.4 0 23.1-10.3 23.1-22.6 0-12.8-9.7-23-23.1-23-12.8 0-23 10.2-23 23 0 12.3 10.2 22.6 23 22.6z m0-58.4c13.4 0 23.1-10.2 23.1-23 0-12.3-9.7-22.6-23.1-22.6-12.8 0-23 10.3-23 22.6 0 12.8 10.2 23 23 23z m0-58.9c13.4 0 23.1-9.7 23.1-23 0-12.3-9.7-22.5-23.1-22.5-12.8 0-23 10.2-23 22.5 0 13.3 10.2 23 23 23z m0-58.9c13.4 0 23.1-10.2 23.1-22.5 0-12.8-9.7-23-23.1-23-12.8 0-23 10.2-23 23 0 12.3 10.2 22.5 23 22.5z" /></svg>