<svg height="512" width="414.2" xmlns="http://www.w3.org/2000/svg"><path d="m207.4 294.4c-20.5 0-38.4-17.9-38.4-38.4 0-22 17.4-38.9 38.4-38.9 22 0 38.9 17.4 38.9 38.9 0 20.5-17.4 38.4-38.9 38.4z m0-58.4c-11.8 0-19.5 8.2-19.5 20s7.7 19.5 19.5 19.5 19.9-7.7 19.9-19.5-8.2-20-19.9-20z m-0.6-186.8c114.7 0 207.4 92.6 207.4 206.8 0 114.7-92.7 206.8-207.4 206.8-114.1 0-206.8-92.1-206.8-206.8 0-114.2 92.7-206.8 206.8-206.8z m-150.5 322c5.1 7.2 10.8 12.8 16.9 19.5 12.3 12.2 26.1 22.5 41 30.7l46.6-88.6c13.3 8.2 29.7 12.8 46.6 12.8 50.6 0 89.6-39.9 89.6-89.6 0-24.6-9.8-46.6-25.1-63l84.5-53.7c-4.7-6.7-9.8-12.3-15.4-17.4-12.8-12.8-26.1-23.1-41.5-32.3l-46.6 88.6c-12.8-7.7-28.6-12.3-45.5-12.3-50.2 0-89.6 39.9-89.6 89.6 0 23.5 9.2 45.6 23.5 61.4z" /></svg>