<svg height="512" width="407.6" xmlns="http://www.w3.org/2000/svg"><path d="m185.9 474.1v-58.9l-76.8 29.7-7.7-13.3 84.5-51.7v-29.7h-162.9c-12.8 0-23-10.2-23-23 0-12.3 9.2-22 21-23.1v-211.9c-12.3-0.6-21-10.8-21-22.6 0-12.8 10.2-23 23-23h167l9.7-25.1h5.6l9.7 25.1h169.5c12.8 0 23.1 10.2 23.1 23s-10.3 23.1-23.1 23.1v211.4c12.8 0 23.1 10.3 23.1 23.1s-10.3 23-23.1 23h-167.9v29.7l85 51.7-7.7 13.3-77.3-29.7v58.9c0 9.2-7.2 16.9-15.9 16.9-9.7 0-15.4-7.7-15.4-16.9z m169.4-172v-207.4h-304.6v207.4h304.6z" /></svg>