<svg height="512" width="223.2" xmlns="http://www.w3.org/2000/svg"><path d="m209.4 52.7c8.2 0 14.3 6.7 14.3 13.3v351.3c0 22.5-18.4 40.9-40.9 40.9h-141.3c-22.6 0-41-18.4-41-40.9v-351.3c0-7.1 6.7-13.3 13.3-13.3h196.1z m-17.4 65.6h-160.8v124.9h160.8v-124.9z m-113.2 298.5v-28.2h-47.6c0 15.9 11.8 28.2 27.7 28.2h19.9z m0-40.5v-27.1h-47.6v27.1h47.6z m0-38.9v-27.1h-47.6v27.1h47.6z m0-38.9v-27.1h-47.6v27.1h47.6z m55.9 118.3v-28.2h-45.6v28.2h45.6z m0-40.5v-27.1h-45.6v27.1h45.6z m0-38.9v-27.1h-45.6v27.1h45.6z m0-38.9v-27.1h-45.6v27.1h45.6z m10.7 118.3h18.4c17.4 0 28.2-12.3 28.2-28.2h-46.6v28.2z m46.6-40.5v-27.1h-46.6v27.1h46.6z m0-38.9v-27.1h-46.6v27.1h46.6z m0-38.9v-27.1h-46.6v27.1h46.6z m-96.8-217.6c-5.1 0-8.2 4.1-8.2 8.2 0 5.1 3.1 9.2 8.2 9.2h32.8c4.6 0 7.7-4.1 7.7-9.2 0-4.6-3.1-8.2-7.7-8.2h-32.8z" /></svg>