<svg height="512" width="334.8" xmlns="http://www.w3.org/2000/svg"><path d="m121.9 241.7c7.1-8.2 17.9-10.8 33.2-12.3v43.5c-25.6-2.6-38.4-4.6-38.4-20 0-4.1 1.6-7.7 5.2-11.7z m55.3 123.4v-46.6c30.2 2.5 39.9 4.6 39.9 17.9 0 15.3-12.3 25.1-39.9 28.7z m35.8-125c15.4 8.2 18.4 12.3 18.4 19.5l4.1 2 23.1-46-3.1-2.6c-3.1 2.6-5.1 4.1-7.2 4.1s-4.1 0-6.6-2.1c-31.3-12.2-46.1-17.9-64.5-17.9v-9.2c0-4.6 2.5-7.7 10.2-9.7v-4.6h-40.5v4.6c7.2 2 8.2 5.6 8.2 9.7v7.7c-49.1 2-78.3 25.6-78.3 63 0 37.8 20.5 51.2 78.3 56.3v49.1c-39.9-4.1-59.4-19.4-59.4-32.7l-4.1-2.1-20.9 48.1 3 2.1c3.1-2.1 4.6-2.6 6.7-2.6 0.5 0 3.1 0 4.6 1.6 24.6 12.3 48.1 19.4 70.6 20.4v9.8c0 5.1-1.5 8.2-8.1 10.2v4.6h40.4v-4.6c-7.7-2-10.2-4.6-10.2-10.2v-9.8c49.1-2.5 81.4-27.6 81.4-64.5 0-35.8-27.2-54.2-76.3-58.8h-5.1v-45.1c11.7 0.5 23.5 4.1 35.8 10.2z m21-92.6c59.4 25.6 101.4 84.4 101.4 153.6 0 92.6-74.8 167.9-167 167.9-92.6 0-167.9-74.8-167.9-167.9 0-69.2 41.5-128 101.4-153.6l-41.5-91.7c0-9.2 5.6-12.8 14.4-12.8h187.3c8.2 0 14.4 3.1 14.4 12.8z" /></svg>