<svg height="512" width="481.8" xmlns="http://www.w3.org/2000/svg"><path d="m443.4 146.4c20.5 0 38.4 18 38.4 40v187.4c0 22-17.9 39.9-38.4 39.9h-38.9l17.4 78.3h-353.8l14.3-78.3h-42.5c-23 0-39.9-17.9-39.9-39.9v-187.4c0-22 16.9-40 39.9-40h49.2v-60.4h17.4v-66h270.3v66h17.4v60.4h50.2z m-319.5-101.9v149h234.5v-149h-234.5z m-57.9 199.2c15.4 0 28.2-12.3 28.2-27.6 0-14.9-12.8-27.7-28.2-27.7-14.8 0-27.6 12.8-27.6 27.7 0 15.3 12.8 27.6 27.6 27.6z m32.3 224.3h290.8l-24.6-123.4h-247.8z m129.5-57.9h-71.1v-17.9h71.1v17.9z m101.4 0h-71.2v-17.9h71.2v17.9z" /></svg>