<svg height="512" width="389.1" xmlns="http://www.w3.org/2000/svg"><path d="m348.2 304.1c-28.2 28.2-64.6 42.5-101.4 42.5-33.3 0-66.1-11.8-92.7-33.8l-26.1 64-66.6 66.6c-7.1 5.1-14.8 7.7-23 7.7-21 0-38.4-18.5-38.4-38.9 0-8.2 2.6-16.9 7.7-23.1l66-66.5 64.5-26.2c-22.5-27.1-33.8-60.4-33.8-93.6 0-77.4 65.6-141.4 142.9-141.4 76.8 0 142.3 65.6 142.3 142.4 0 37.4-13.3 73.7-40.9 101.4z m-163.4-38.4c17.4 16.9 40 25.6 62 25.6 47.6 0 87-39.9 87-88.5 0-47.7-40.4-87.1-87-87.1-48.1 0-87.6 40.5-87.6 87.1 0 23 8.2 45.5 25.6 62.9z" /></svg>