<svg height="512" width="437.2" xmlns="http://www.w3.org/2000/svg"><path d="m217.1 105.5c-15.9 0-29.7-13.3-29.7-29.7s13.3-29.7 29.7-29.7c16.9 0 29.7 13.3 29.7 29.7s-12.8 29.7-29.7 29.7z m167.9 380.9c4.6 12.3-1.5 25.6-13.3 30.2-2.5 1.5-5.1 1.5-8.2 1.5-9.2 0-17.9-5.1-21-14.8l-7.1-17.9h-235.6l-7.1 17.9c-3.1 9.7-12.3 14.8-21 14.8-3.1 0-5.7 0-8.2-1.5-12.3-4.6-17.9-17.9-13.3-30.2l142.3-365.6 22-14.8h8.2l21 14.8z m-91.6-108l-22.6-56.9-36.3 36.4 39.9 38.9z m-76.3-196.1l-35.9 92.6h71.7z m45 115.7h-87l43.5 43z m-97.7 21l-22.6 56.8 21 20.5 40-38.9z m-55.9 142.8h87.1l-63-61.9z m110.1-9.2l40-39.9-40-40-39.9 40z m23.1 9.2h84.4l-23.5-60.9z m84.4-298.5l-19.4-18.4c13.3-12.8 20.5-31.2 20.5-48.6 0-15.4-6.7-32.8-18.5-45.6l18-17.9c16.9 18.4 28.1 41.4 28.1 66 0 22.5-9.2 45.6-28.7 64.5z m68.7 37.4l-20-20c22.5-22 33.8-51.2 33.3-82.4 0.5-30.7-10.8-60.9-33.3-83.5l19.4-18.4c28.7 28.2 43 66.1 43.6 104-0.6 35.3-12.8 71.6-43 100.3z m-282.2-169.5l18.5 19.5c-13.3 12.8-20.5 31.2-20.5 48.1s6.6 33.3 18.4 45.6l-17.9 17.9c-17.4-17.4-28.2-41.5-28.2-65.5 0-22.6 9.3-45.6 29.7-65.6z m-69.1-37.3l20 20.4c-22.5 22.1-33.8 51.2-33.8 82.5 0 30.7 11.8 60.4 33.8 82.4l-19.5 20c-28.6-28.7-43-66.6-43.5-104.5 0.5-35.3 12.8-71.7 43-101.4z" /></svg>