<svg height="512" width="396.3" xmlns="http://www.w3.org/2000/svg"><path d="m13.8 185.9c-11.8-23.1-2-46.6 14.4-58.4-37.4-115.7 214-53.3 233.4-34.8v-29.7c0-8.2 7.2-15.4 14.9-15.4h104.4c8.2 0 15.4 7.2 15.4 15.4v246.2c0 7.7-7.2 14.9-15.4 14.9h-104.4c-7.7 0-14.9-7.2-14.9-14.9v-16.8c-50.7 32.7-75.7 114.6-76.3 117.7-8.1 33.3-27.1 52.7-55.3 52.7s-61.9-27.6-61.9-87.5c0-14.9 5.1-37.9 14.8-55.3h-9.7c-37.4 0-79.9-17.9-66.5-72.2-14.4-25.1-4.7-52.7 7.1-63z m56.3 1.5c8.2 0.5 8.2 7.7 0 7.7-36.3 0-37.8 38.4-4.6 39.9 7.2 0.5 7.2 7.7 0 7.7-33.2 0-27.6 42.5 7.7 42.5h38.4c13.3 0 19.5 8.2 19.5 16.9 0 15.3-26.1 48.6-26.1 74.2 0 32.8 15.3 51.7 25.6 51.7 10.7 0 17.4-9.2 18.4-19.9 7.7-50.7 64-136.2 112.6-157.7v-115.7c-68.6-33.8-128.5-36.4-157.7-37.4-43.5-2.1-65.5 32.7-20.4 42.5 9.7 1.5 9.2 9.7 1.5 9.7-45.6 0-48.1 33.8-14.9 38.4z" /></svg>