<svg height="512" width="416.8" xmlns="http://www.w3.org/2000/svg"><path d="m393.7 56.8c12.3 0 23.1 10.3 23.1 23.1s-10.8 23-23.1 23h-3l-69.2 352.3h-224.2l-68.6-352.3h-5.7c-12.8 0-23-10.2-23-23s10.2-23.1 23-23.1h370.7z m-202.7 55.3l-9.8-9.2h-60.4l-9.7 9.2 39.9 40z m-99.4 132.1l12.8 66.1 30.8-30.7-40-39z m20-20.5l40 40 39.9-40-39.9-38.9z m95.2 16.9l-38.9 39 38.9 39.9 40-39.9z m16.9-16.9l39 40 39.9-40-39.9-38.9z m-16.9-15.8l40-40-40-38.9-38.9 38.9z m-111.6-78.9l-22.5 22 9.2 43.6 13.3 13.3 40-40z m55.8 166.9l-39.9 40 39.9 38.9 40-38.9z m55.8 55.8l-38.9 40 29.7 29.7h19.5l30.2-29.7z m55.9 23.1l39.9-38.9-39.9-40-39 40z m51.2-60.4l12.8-66.1-8.2-8.2-38.9 38.9z m25-127l6.7-32.8-27.1-26.1-38.9 38.9 38.9 40z m-36.3-75.8l-9.7-9.2h-60.5l-9.2 9.2 38.9 40z m-234.5 11.8l20.5-20.5h-24.6z m49.1 249.8l9.3 47.7h38.4z m186.4-6.6l-54.3 53.8h43.6z m46.6-239.6l5.1-24.6h-30.2z" /></svg>