<svg height="512" width="358.4" xmlns="http://www.w3.org/2000/svg"><path d="m122.9 333.8c0-16.9-12.8-35.3-12.8-35.3s-1.6 7.2-9.2 4.1c-7.2-4.1-14.4-13.3-15.9-22-0.5-7.7-7.2-22-9.7-25.1-2.6-5.1-0.5-15.4 11.7-16.9 0 0-4.6-9.7-0.5-14.3 0 0-12.8 0.5-7.1-10.8 0 0-26.2-9.2-4.6-30.2 0 0-14.4-14.9 2.5-17.4 0 0-24.6-27.7 8.2-38.9 0 0-29.7-72.2 24.6-75.8 28.1-4.1 47.6 13.3 73.2 24.6 0 0 35.3-28.7 55.3-25.1 35.3 7.2 45.6 41.5 25.1 71.7 22-5.7 29.7 28.1 12.3 40.9 0 0 10.2 11.8 0 24.6 0 0 15.3 22-4.1 30.7 0 0-3.1 12.8-7.7 18.5 0 0 8.2-1.6 10.7 5.1 3.1 7.7 4.7 14.3-2 24.6-6.7 9.7-7.7 15.8-10.2 22-2.1 5.1-4.1 21-18 12.3-19.4 23.5-25.6 61.4-12.8 94.7l3.1 5.6c44 9.2 97.8 18.4 123.4 29.7v29.7h-358.4v-24.6c21-14.3 64.5-25.1 107-34.8 5.6-22.5 16.9-22.5 15.9-68.1z" /></svg>