<svg height="512" width="490.5" xmlns="http://www.w3.org/2000/svg"><path d="m241.2 450.6c-10.8 0-18-7.7-21-20l-28.2-102.9h89.6l35.3 122.9h-75.7z m187.3-312.4l61.5-45v177.1l-61.5-45.5v-87.1z m-23 0.6v86.5h-73.7v33.3c0 23.5-17.9 41.4-41.5 41.4-4.6 0-128 4.6-165.4-0.5-27.6-4.1-125.4-32.7-125.4-74.7v-86.6c0-40.9 90.1-69.1 125.9-73.7 45.1-5.6 160.3-1.5 164.4-1.5 23.5 0 41.5 18.4 41.5 40.9v34.9h73.7z m-291.3 100.3c20.5 0 37.4-16.9 37.4-37.4s-16.9-37.3-37.4-37.3-37.4 16.8-37.4 37.3 16.9 37.4 37.4 37.4z" /></svg>