<svg height="512" width="350.7" xmlns="http://www.w3.org/2000/svg"><path d="m0 299c-59.4-60.4-59.4-158.2 0-218.1 60.9-60.4 158.2-60.4 219.1 0 56.9 56.8 55.3 153.6 7.2 209.4l58.9 20.5 66 66.5c11.8 14.9 10.3 36.4-4.1 50.7-13.3 13.3-34.8 14.9-50.1 4.1l-66.6-66.5-20.5-57.9c-56.3 47.6-152.6 48.7-209.9-8.2z m189.4-28.7c45.1-45 45.1-116.7 0-160.7-44-45.1-115.7-45.1-160.7 0-44.1 44-44.1 115.7 0 160.7 45 44.1 116.7 44.1 160.7 0z m-148.4-97.8h51.2v-51.7h34.8v51.7h50.7v32.8h-50.7v51.2h-34.8v-51.2h-51.2v-32.8z" /></svg>