<svg height="512" width="506.9" xmlns="http://www.w3.org/2000/svg"><path d="m293.4 242.7q5.6 0 9.7 4.1t4.1 9.7-4.1 9.7-9.7 4.1h-79.9q-5.6 0-9.7-4.1t-4.1-9.7 4.1-9.7 9.7-4.1h79.9z m186.9-186.9q10.7 0 18.9 8.2t8.2 18.9-8.2 19-18.9 8.2h-453.2q-10.7 0-18.9-8.2t-8.2-19 8.2-18.9 18.9-8.2h453.2z m-53.3 79.9q10.8 0 18.4 8.2t7.7 18.9v213q0 33.3-23.5 56.8t-56.9 23.6h-240.1q-33.3 0-56.8-23.6t-23.6-56.8v-213q0-10.7 8.2-18.9t19-8.2h347.1z m-53.8 266.7q10.8 0 19-8.2t8.2-18.9v-186.4h-293.4v186.4q0 10.7 7.7 18.9t18.4 8.2h240.1z" /></svg>