<svg height="512" width="399.9" xmlns="http://www.w3.org/2000/svg"><path d="m399.9 255q0 82.4-58.9 141.3-55.8 55.8-131.1 58.4l35.9 35.3q7.6 7.7 7.6 18.9t-7.6 19-19.5 7.7q-10.7 0-18.4-7.7l-99.4-98.8 99.4-99.4q7.7-7.7 18.9-7.7t19 7.7 7.6 19-7.6 18.9l-33.3 33.3q53.2-4.1 91.6-42.5 43-43 43-103.9 0-28.2-9.2-49.2t-30.7-42.5q-7.7-7.7-7.7-18.9t7.7-19 18.9-7.7 19 7.7q55.3 55.3 55.3 129.6z m-347.2 0.5q0 28.1 9.3 49.1t30.7 42.5q7.7 7.7 7.7 19t-7.7 18.9-18.5 7.7q-11.7 0-19.4-7.7-55.3-55.3-55.3-129.5 0-82.4 58.9-141.3 54.2-54.3 130.5-58.4l-35.3-35.3q-7.7-7.7-7.7-18.5t7.7-18.4 18.9-7.7 19 7.7l99.3 98.8-99.3 98.8q-8.2 8.2-18.4 8.2-10.8 0-19.5-8.2-7.7-7.6-7.7-18.4t7.7-18.4l33.8-34.8q-53.3 4.1-92.2 43-43 43-43 103.9z" /></svg>