<svg height="512" width="480.3" xmlns="http://www.w3.org/2000/svg"><path d="m235.5 135.7q49.2 0 83.5 35.3t33.8 85v6.7q0 19.9-12.3 33.2t-31.3 13.3q-17.9 0-32.2-15.8-14.9 15.8-38.4 15.8-22.5 0-37.9-15.8t-15.4-37.4q0-22.5 15.4-37.9t37.4-15.3q14.3 0 27.1 7.6 3.1-7.6 10.8-7.6 10.2 0 10.2 13.3v46q0 8.2 5.6 14.4t14.4 6.1 14.3-6.1 5.6-14.4v-6.6q0-38.4-26.1-66.1t-64.5-27.6q-37.9 0-63.5 27.1t-26.1 66.1q0 38.4 27.7 66t66 27.7q28.2 0 52.8-15.9 6.6-4.6 12.8-0.5t7.1 10.7-5.6 11.8q-31.2 21-68.1 21-49.2 0-85-35.3t-35.3-85q0-50.2 34.3-85t83.4-35.3z m4.1 147.4q10.8 0 18.4-8.2t7.7-18.9-7.7-18.9-18.4-8.2-18.9 8.2-8.2 18.9 8.2 18.9 18.9 8.2z m0.5 213q-99.3 0-169.4-70.6t-70.7-169.5 70.7-169.5 169.4-70.6 169.5 70.6 70.7 169.5-70.7 169.5-169.5 70.6z m0-427q-77.3 0-132.1 54.8t-54.8 132.1 54.8 132.1 132.1 54.8 132.1-54.8 54.8-132.1-54.8-132.1-132.1-54.8z" /></svg>