<svg height="512" width="401.9" xmlns="http://www.w3.org/2000/svg"><path d="m145.9 321q-27.1 0-46.6-19.4t-19.9-47.1q0-28.2 19.4-47.7l120.8-120.8q31.3-31.2 75.8-31.2t75.8 31.2 31.2 75.8-31.2 75.8l-188.9 188.9q-31.3 31.2-74.8 31.2-44 0-75.8-31.2t-31.2-75.8 31.2-75.8l21-20.9q0 31.2 19.5 56.3l-2.6 2.5q-15.3 15.4-15.3 37.9t15.3 37.9 37.9 15.4 37.9-15.4q31.2-31.2 94.2-94.2t94.2-94.2q15.4-15.4 15.4-37.9t-15.4-37.9q-15.8-15.3-37.9-15.3t-37.3 15.3l-120.9 120.8q-4.1 4.1-4.1 9.8t4.1 9.7 9.8 4.1 9.7-4.1l94.2-94.2q15.9 15.9 15.9 37.9 0 21-15.9 37.4l-56.3 56.8q-19.5 19.4-47.6 19.4z" /></svg>