<svg height="512" width="525.3" xmlns="http://www.w3.org/2000/svg"><path d="m507.4 340q32.8 54.2 5.6 101.9-26.1 47.6-90.1 47.6h-320q-64.5 0-91.1-47.6-27.2-47.7 5.6-101.9l158.2-263.2q32.3-54.3 87.1-54.3 54.2 0 86.5 54.3z m-244.7-185.9q-17.5 0-29.7 12.3t-12.3 29.7 12.3 29.2 29.7 11.8 29.1-11.8 11.8-29.2-11.8-29.7-29.1-12.3z m45 225.8q4.1-4.6 0-9.2t-8.2-2.1q-14.8 5.7-18.4 5.7-14.3 0-6.7-23.1l10.3-32.7q8.2-26.1-1.6-45.6t-32.7-20.5q-15.9-0.5-30.8 5.6t-20.9 11.8-7.7 7.2q-4.1 4.6 0 8.7t8.2 1.5q12.8-5.1 19.4-5.1 14.4 0 6.7 23.1l-10.8 32.7q-9.2 27.7 2.1 46.6t36.8 19.5q15.4 0 29.2-6.2t19.5-11.2 6.6-7.2z" /></svg>