<svg height="512" width="513.5" xmlns="http://www.w3.org/2000/svg"><path d="m486.4 69.1q11.8 0 20 9.7t6.6 21l-27.1 186.9q-1.5 9.7-8.7 15.9t-17.4 6.6h-302.1l4.6 27.2h270.9q10.7 0 18.9 8.2t8.2 18.9-8.2 18.5-18.9 7.6h-293.4q-10.3 0-17.4-6.6t-8.7-15.4l-50.2-298.5h-37.4q-10.7 0-18.9-7.7t-8.2-18.4 8.2-18.9 18.9-8.2h59.4q9.7 0 17.4 6.6t9.2 15.9l5.7 30.7h368.1z m-30.7 53.8h-102.4v53.2h94.7z m-129.6 0h-79.8v53.2h79.8v-53.2z m0 79.9h-79.8v53.2h79.8v-53.2z m-106.5-79.9h-93.6l9.7 53.7q1.5-0.5 4.1-0.5h79.8v-53.2z m-79.8 79.9l9.2 53.2h71.2v-53.2h-79.9z m213 53.2h83.9l7.2-53.2h-91.1v53.2z m-213 199.7q0-40 39.9-40 40.5 0 40.5 40 0 40.4-40.5 40.4-39.9 0-39.9-40.4z m240.1 0q0-40 39.9-40 40.5 0 40.5 40 0 40.4-40.5 40.4-39.9 0-39.9-40.4z" /></svg>