<svg height="512" width="506.9" xmlns="http://www.w3.org/2000/svg"><path d="m79.9 176.1h293.3v160.3h-293.3v-160.3z m155.6 130.6l84.5-62-69.1 11.8-31.3-50.7-86.5 62 70.7-11.8z m217.6-130.6q22.5 0 37.9 15.9t15.9 37.4v53.2q0 22.6-15.9 37.9t-37.9 15.9q0 33.3-23.5 56.8t-56.9 23.6h-293.3q-33.3 0-56.9-23.6t-23.5-56.8v-160.3q0-33.3 23.5-56.8t56.9-23.6h293.3q33.3 0 56.9 23.6t23.5 56.8z m-53.2 160.3v-160.3q0-10.7-8.2-18.9t-19-8.2h-293.3q-10.8 0-19 8.2t-8.2 18.9v160.3q0 10.7 8.2 18.4t19 7.7h293.3q10.8 0 19-7.7t8.2-18.4z" /></svg>