<svg height="512" width="453.1" xmlns="http://www.w3.org/2000/svg"><path d="m133.1 376.3q0 5.1-4.1 9.2t-9.2 4.1-9.2-4.1-4.1-9.2v-160.2q0-5.2 4.1-9.3t9.2-4 9.2 4 4.1 9.3v160.2z m53.8 0q0 5.1-4.1 9.2t-9.2 4.1-9.2-4.1-4.1-9.2v-160.2q0-5.2 4.1-9.3t9.2-4 9.2 4 4.1 9.3v160.2z m53.2 0q0 5.1-4.1 9.2t-9.2 4.1-9.2-4.1-4.1-9.2v-160.2q0-5.2 4.1-9.3t9.2-4 9.2 4 4.1 9.3v160.2z m119.8-280.6q38.4 0 66.1 27.7t27.6 66v133.2q0 38.4-27.6 66t-66.1 27.7h-12.8q0 33.2-23.5 56.8t-56.8 23.5h-186.9q-33.3 0-56.9-23.5t-23.5-56.8v-347.2q0-22 15.3-37.4t37.9-15.8h240.2q22.5 0 37.9 15.8t15.8 37.4v27.2h12.8z m-306.7-27.1v40.5q0 15.8 11.8 27.6t28.7 11.8q23 0 34.8-20.5l4.6-8.2 9.7 2.1q9.3 1.5 17.5-3.6t11.7-13.9l3.1-9.2h118.3v-27.1h-240.2z m240.2 347.1v-293.3h-100.4q-15.8 26.1-46.1 26.1-20.4 27.1-53.2 27.1-23 0-40.5-13.3v253.4q0 10.8 8.2 19t19 8.2h186.9q10.7 0 18.4-8.2t7.7-19z m107-93.7v-133.1q0-16.9-11.8-28.6t-28.7-11.8h-39.9v214h39.9q16.9 0 28.7-11.8t11.8-28.7z" /></svg>