<svg height="512" width="453.1" xmlns="http://www.w3.org/2000/svg"><path d="m226.8 482.8q-93.7 0-160.2-66.5t-66.6-160.3 66.6-160.3 160.2-66.5 160.3 66.5 66.5 160.3-66.5 160.3-160.3 66.5z m0-399.9q-71.7 0-122.4 50.7t-50.6 122.4 50.6 122.4 122.4 50.7 122.4-50.7 50.7-122.4-50.7-122.4-122.4-50.7z m0 79.9q-10.7 0-15.9 1.6l108.1 109q1.5-5.1 1.5-16.9 0-38.4-27.6-66t-66.1-27.7z m0-27.1q49.2 0 85 35.3t35.3 85q0 33.3-18.4 63.5l-165.4-164.4q30.7-19.4 63.5-19.4z m-91.6 103.9q-2.1 7.7-2.1 16.9 0 38.4 27.7 66.1t66 27.6q11.8 0 16.9-1.5z m-9.8-47.6l165.4 165.4q-30.7 19.4-64 19.4-50.2 0-85-35.3t-34.8-85q0-33.8 18.4-64z" /></svg>