<svg height="512" width="427.0" xmlns="http://www.w3.org/2000/svg"><path d="m347.1 29.2q33.3 0 56.9 23.5t23.5 56.9v293.3q0 33.3-23.5 56.9t-56.9 23.5h-266.7q-33.3 0-56.8-23.5t-23.6-56.9v-293.3q0-33.3 23.6-56.9t56.8-23.5h266.7z m26.1 373.2v-194q-12.2 7.2-26.1 7.2h-40.4q0 38.4-27.7 66t-66 27.6-65.5-27.6-27.2-66h-40.4q-14.9 0-27.2-7.2v194q0 10.8 8.2 19t19 8.2h266.7q10.8 0 18.5-8.2t7.6-19z m-226.8-186.8q0 27.6 19.5 47.1t47.1 19.4 47.6-19.4 20-47.1h-133.7z m226.8-53.3v-53.2q0-10.8-7.6-19t-18.5-8.2h-266.7q-10.8 0-19 8.2t-8.2 19v53.2q0 10.8 8.2 18.9t19 8.2h266.7q10.8 0 18.5-8.2t7.6-18.9z" /></svg>