<svg height="512" width="533.0" xmlns="http://www.w3.org/2000/svg"><path d="m453.1 469h-373.2q-33.3 0-56.9-23.6t-23.5-56.8v-213q0-33.3 23.5-56.8t56.9-23.6h42.5l27.1-27.1q11.8-11.8 29.7-18.9t34.8-7.2h107q16.9 0 34.8 7.2t29.7 18.9l26.1 27.1h42.5q33.3 0 56.9 23.6t23.5 56.8v213q0 33.3-23.5 56.8t-56.9 23.6z m-373.2-320q-10.8 0-19 8.2t-8.2 18.9v213q0 10.8 8.2 19t19 8.2h373.2q10.8 0 19-8.2t8.2-19v-213q0-10.7-8.2-18.9t-19-8.2h-53.2q-10.8 0-18.5-7.7l-34.8-34.8q-10.7-10.8-27.1-10.8h-107q-15.4 0-26.1 10.8l-34.8 34.8q-7.7 7.7-19.5 7.7h-53.3z m186.9 53.8q-27.7 0-47.7 19.4t-19.9 47.1 19.9 47.1 47.7 19.5 47.1-19.5 19.4-47.1-19.4-47.1-47.1-19.4z m0-27.2q38.9 0 66 27.2t27.1 66q0 38.4-27.1 66t-65.5 27.7q-38.9 0-66.1-27.7t-27.1-66q0-38.9 27.1-66t66.1-27.2z m160.2-8.2q14.3 0 24.6 10.3t10.2 25.1-9.7 24.5-24.6 9.8-25.1-10.3-10.2-24.6q0-14.8 10.2-25t25.1-10.3z" /></svg>