<svg height="512" width="533.0" xmlns="http://www.w3.org/2000/svg"><path d="m453.1 95.7q33.3 0 56.9 23.6t23.5 56.8v213q0 33.3-23.5 56.9t-56.9 23.5h-373.2q-33.3 0-56.9-23.5t-23.5-56.9v-213q0-33.3 23.5-56.8t56.9-23.6h42.5l27.1-27.1q11.8-11.8 29.7-18.9t34.8-7.2h107q16.9 0 34.8 7.2t29.7 18.9l26.1 27.1h42.5z m-186.3 266.8q38.4 0 65.5-27.7t27.1-66q0-38.9-27.1-66t-66.1-27.2-66 27.2-27.1 66q0 38.4 27.1 66t66 27.7z m160.2-125.4q14.9 0 24.6-9.8t9.7-24.5-10.2-25.1-24.6-10.3q-14.9 0-25.1 10.3t-10.2 25.1q0 14.3 10.2 24.5t25.1 10.3z" /></svg>