<svg height="512" width="559.6" xmlns="http://www.w3.org/2000/svg"><path d="m479.2 469.5h-266.7q-28.7 0-59.4-15.4t-47.1-38.9l-69.6-97.8q-7.2-9.7-14.9-21t-12.3-16.8-4.1-6.2q-5.1-7.2-5.1-16.9t4.6-16.9q2.6-2.5 32.8-45l69.1-97.3q16.9-23.6 47.1-39.4t59.4-15.9h266.7q33.3 0 56.9 23.5t23.5 56.9v266.7q0 33.3-23.5 56.9t-56.9 23.5z m-420.3-213q3.1 4.6 10.7 14.9t10.8 14.3l69.6 97.8q9.2 12.8 28.2 22.5t34.8 9.7h266.7q10.8 0 18.5-8.1t7.7-19v-266.7q0-10.8-7.7-18.5t-18.5-7.7h-266.7q-15.4 0-34.8 9.8t-28.2 22.5l-69.1 97.3q-4.1 5.1-11.3 15.9t-10.7 14.8z m279 0l71.2 70.7q6.6 6.6 2.5 14.8t-12.2 8.2q-5.2 0-9.8-4.6l-70.6-70.7-70.7 70.7q-4.6 4.6-9.7 4.6-8.2 0-12.3-8.2t2.6-14.8l70.6-70.7-70.6-71.2q-5.7-5.6-3.1-12.8t9.2-9.2 13.3 3.1l70.7 70.7 70.6-70.7q9.2-9.2 18.5 0.5t0.5 18.4z" /></svg>