<svg height="512" width="373.2" xmlns="http://www.w3.org/2000/svg"><path d="m373.2 362q0 32.8-23.5 56.3t-56.3 23.6-56.3-23.6l-50.2-50.2-50.7 50.2q-22.5 22.5-56.3 22.5t-56.3-22.5q-23.6-23.5-23.6-56.3 0-33.3 23.6-56.8l50.1-50.2-50.1-50.2q-23.6-23.6-23.6-56.8 0-32.8 23.6-56.4 22.5-22.5 56.3-22.5t56.3 22.5l50.7 50.2 50.2-50.2q22.5-22.5 56.8-22.5t56.8 22.5q23.1 23.1 23.1 56.4 0 33.8-23.1 56.8l-50.7 50.2 50.7 50.2q23.1 23 23.1 56.8z m-186.3-69.1l87.5 87.5q7.7 7.7 19 7.7t18.9-7.7 7.7-18.4q0-11.8-7.7-19.5l-87.5-87.5 87.5-87.6q7.7-7.7 7.7-19.4 0-10.8-7.7-18.5t-18.9-7.6-19 7.6l-87.5 87.6-88.6-87.6q-7.7-7.6-18.4-7.6t-18.5 7.6q-8.2 8.2-8.2 18.5 0 10.7 8.2 19.4l87.6 87.6-87.6 87.5q-8.2 8.2-8.2 19.5 0 10.2 8.2 18.4 7.7 7.7 18.5 7.7t18.4-7.7z" /></svg>