<svg height="512" width="533.0" xmlns="http://www.w3.org/2000/svg"><path d="m521.7 233q11.8 7.6 11.8 22.5t-11.8 22.5l-49.1 32.8 26.1 53.2q7.2 13.3-1.5 25.1t-21 13.3l-58.9 4.1-4.1 59.4q-1.6 12.8-12.8 21t-25.6 1l-53.3-26.1-33.2 49.2q-8.2 12.3-22.1 12.3-14.3 0-22.5-12.3l-32.8-49.2-53.2 26.1q-13.3 7.2-25.1-1t-13.3-21l-4.1-59.4-59.4-4.1q-12.8-1.5-21-12.8t-1-25.6l26.1-53.2-49.1-32.8q-12.3-8.2-12.3-22.5t12.3-22.5l49.1-32.8-26.1-53.3q-7.2-14.3 1-25.6t21-12.8l59.4-4.1 4.1-58.8q1.5-12.8 13.3-21t25.1-1.6l53.2 26.2 32.8-49.2q7.2-10.8 22-10.8t22 10.8l33.3 49.2 53.3-26.2q13.3-7.1 25.6 1.6t12.8 21l4.1 58.8 58.8 4.1q12.8 1.6 21 12.8t1.6 25.6l-26.1 53.3z m-107.5 79.8q-4.6-9.2-2-18.4t10.7-15.4l35.9-23.5-35.9-23.6q-18.4-13.3-9.2-33.8l19.5-38.4-43.1-2.5q-10.2-0.5-17.4-7.7t-7.6-17.4l-2.6-43-38.4 19.4q-20.5 9.8-33.8-9.2l-23.5-35.8-23.6 35.8q-13.3 18.5-33.8 9.2l-38.4-19.4-2.6 43q-0.5 10.2-7.6 17.4t-17.4 7.7l-43 2.5 19.4 38.4q4.6 9.3 1.5 18.5t-11.2 15.3l-35.3 23.6 35.3 23.5q8.2 5.7 11.2 15.4t-1.5 18.4l-19.4 38.4 43 2.6q10.2 0.5 16.9 7.7t7.1 17.4l3.1 43 38.4-19.5q5.1-2.5 11.8-2.5 14.8 0 22.5 11.7l23.6 35.9 23.5-35.3q5.6-8.2 15.4-11.3t18.4 1.5l38.4 19.5 2.6-43q0.5-10.3 7.6-17.4t17.4-7.7l42.5-2.6z" /></svg>