<svg height="512" width="480.3" xmlns="http://www.w3.org/2000/svg"><path d="m399.9 15.9q33.3 0 56.8 24t23.6 55.8v266.8q0 10.7-8.2 18.4t-19 7.7h-426.5q-10.7 0-18.9-7.7t-8.2-18.4v-79.9q0-28.6 17.4-50.2l107-133.6q20-24.6 52.7-28.7t57.9 14.4l44 33.8 58.9-73.2q24.6-30.3 62-30.3z m27.1 79.8q0-10.2-8.2-18.4t-18.4-8.2q-12.8 0-21 10.3l-74.2 92.6q-7.2 9.2-17.5 10.3t-19.4-5.1l-65.5-49.2q-8.2-6.7-19.5-5.1t-17.4 9.7l-107 133.6q-5.7 7.2-5.7 16.9v53.3h373.8v-240.1z m26.1 399.9h-426.5q-10.7 0-18.9-8.2t-8.2-18.9 8.2-18.5 18.9-7.6h426.5q10.8 0 19 7.6t8.2 18.5-8.2 18.9-19 8.2z" /></svg>