<svg height="512" width="480.3" xmlns="http://www.w3.org/2000/svg"><path d="m79.9 375.8q-23.6 0-43-13.3t-28.7-32.3-7.7-42.5 16.9-42.5l107-133.1q20-24.5 52.8-28.6t57.8 14.8l44 33.3 58.4-72.2q24.6-30.2 63-30.2 32.2 0 55.3 22t25.1 50.7-17.4 56.8l-107 133.1q-20 24.6-52.8 28.7t-58.4-14.3l-45-33.3-58.4 72.2q-24.6 30.2-61.9 30.2z m107-240.1q-12.8 0-21 10.2l-107 133.1q-10.3 14.4-2.1 28.7t23.6 14.9q12.8 0 21-10.3l90.1-113.1 86 64.5q8.2 6.6 19.5 5.1t17.4-9.7l107-133.1q10.2-14.4 2-28.7t-23.5-14.9q-12.8 0-21 10.3l-90.1 112.6-86-64q-6.7-5.6-15.9-5.6z m240.1 347.1h-373.8q-10.7 0-18.4-8.2t-7.7-18.9 7.7-18.5 18.4-7.6h373.8q10.8 0 18.4 7.6t7.7 18.5-7.7 18.9-18.4 8.2z" /></svg>