<svg height="512" width="427.0" xmlns="http://www.w3.org/2000/svg"><path d="m347.1 95.7q33.3 0 56.9 23.6t23.5 56.8v240.2h-427v-160.3q0-33.3 23.6-56.8t56.8-23.6q30.2 0 53.2 21v-127.5q0-33.3 23.6-56.8t56.8-23.6 56.9 23.6 23.5 56.8v47.6q23.1-21 53.8-21z m-133.6-53.2q-10.7 0-18.4 8.2t-7.7 18.9v293.4h53.2v-293.4q0-10.7-8.2-18.9t-18.9-8.2z m-106.5 320v-107q0-10.8-8.2-18.4t-18.9-7.7-19 7.7-8.2 18.4v107h53.8z m266.2 0v-186.9q0-10.7-7.6-18.4t-18.5-7.7-18.9 7.7-8.2 18.4v186.9h53.2z m27.2 160.3h-373.3q-10.7 0-18.9-8.2t-8.2-19 8.2-18.4 18.9-7.7h373.3q10.7 0 18.9 7.7t8.2 18.4-8.2 19-18.9 8.2z" /></svg>