<svg height="512" width="640.0" xmlns="http://www.w3.org/2000/svg"><path d="m560.1 82.9q33.3 0 56.9 23.6t23.5 56.8v186.4q0 33.3-23.5 56.8t-56.9 23.6h-27.1v79.9l-79.9-79.9h-213q-33.3 0-56.8-23.6t-23.6-56.8l-79.8 79.9v-79.9q-33.3 0-56.9-23.6t-23.5-56.8v-186.4q0-33.2 23.5-56.8t56.9-23.5h320q33.3 0 56.8 23.5t23.6 56.8h79.8z m-480.2 213h107v-119.8q0-27.6 19.4-47.6t47.1-20h173.6v-26.1q0-10.7-8.2-18.9t-18.9-8.2h-320q-10.8 0-19 8.2t-8.2 18.9v186.4q0 10.8 8.2 18.9t19 8.2z m506.9 53.3v-186.4q0-10.7-8.2-18.9t-19-8.2h-306.7q-16.9 0-28.6 11.8t-11.8 28.6v173.1q0 10.7 8.2 18.9t18.9 8.2h320q10.8 0 19-8.2t8.2-18.9z" /></svg>