<svg height="512" width="506.9" xmlns="http://www.w3.org/2000/svg"><path d="m427 42.5q33.3 0 56.8 23.5t23.6 56.9v186.9q0 33.2-23.6 56.8t-56.8 23.5h-240.1l-79.9 79.9v-79.9h-27.1q-33.3 0-56.9-23.5t-23.5-56.8v-186.9q0-33.3 23.5-56.9t56.9-23.5h347.1z m26.1 266.7v-186.8q0-10.8-7.7-19t-18.4-8.2h-347.1q-10.8 0-19 8.2t-8.2 19v186.8q0 10.8 8.2 18.5t19 7.7h347.1q10.8 0 18.4-7.7t7.7-18.5z m-320-40.4q-22 0-37.4-15.4t-15.8-37.8 15.8-37.9 37.4-15.4q22.5 0 37.9 15.9t15.9 37.4-15.9 37.3-37.9 15.9z m0-79.9q-10.7 0-18.4 8.2t-7.7 19 7.7 18.4 18.4 7.7 19-7.7 8.2-18.4-8.2-19-19-8.2z m120.3 79.9q-22.5 0-37.8-15.9t-15.9-37.3 15.9-37.4 37.8-15.9q22.1 0 37.4 15.4t15.9 37.9-15.9 37.8-37.4 15.4z m0-79.9q-10.7 0-18.9 8.2t-8.2 19 8.2 18.4 18.9 7.7 19-7.7 8.2-18.4-8.2-19-19-8.2z m119.8 79.9q-22.5 0-37.8-15.4t-15.4-37.8 15.4-37.9 37.8-15.4 37.9 15.9 15.9 37.4-15.9 37.3-37.9 15.9z m0-79.9q-10.7 0-18.4 8.2t-7.7 19 7.7 18.4 18.4 7.7 19-7.7 8.2-18.4-8.2-19-19-8.2z" /></svg>