<svg height="512" width="373.2" xmlns="http://www.w3.org/2000/svg"><path d="m293.4 442.9h-213q-33.3 0-56.8-23.6t-23.6-56.8v-214q0-33.3 23.6-56.9t56.8-23.5h133.1q10.8 0 18.9 8.2t8.2 18.9-8.2 19-18.9 8.2h-133.1q-10.8 0-19 7.6t-8.2 18.5v214q0 10.7 8.2 18.4t19 7.7h213q10.7 0 18.9-7.7t8.2-18.4v-79.9q0-10.7 8.2-18.9t18.9-8.2 18.5 8.2 7.7 18.9v79.9q0 33.3-23.6 56.8t-56.8 23.6z m-75.8-111.6q-14.8 0-25.1-10.3l-71.2-71.1q-10.2-10.8-10.2-25.6t10.2-25.1 25.1-10.3 25.1 10.3l38.4 37.9 92.2-145.5q7.1-12.8 21.5-16.8t27.1 3 16.9 21.5-3.1 27.2l-115.2 186.3q-9.7 18.5-31.2 18.5z" /></svg>