<svg height="512" width="480.3" xmlns="http://www.w3.org/2000/svg"><path d="m347.1 256q0 10.8-8.2 18.4t-18.9 7.7h-79.9q-10.7 0-18.9-7.7t-8.2-18.4 8.2-18.9 18.9-8.2h79.9q10.8 0 18.9 8.2t8.2 18.9z m-107-186.9q-77.3 0-132.1 54.8t-54.8 132.1 54.8 132.1 132.1 54.3 132.1-54.3 54.8-132.1-54.8-132.1-132.1-54.8z m0-53.2q99.4 0 169.5 70.6t70.7 169.5-70.7 169.5-169.5 70.6-169.4-70.6-70.7-169.5 70.7-169.5 169.4-70.6z m27.2 160.2v79.9q0 10.8-8.2 18.4t-19 7.7-18.9-7.7-8.2-18.4v-79.9q0-10.7 8.2-18.9t18.9-8.2 19 8.2 8.2 18.9z m-27.2-53.7q-55.3 0-94.2 39.4t-38.9 94.2 38.9 94.2 94.2 38.9 94.2-38.9 38.9-94.2-38.9-94.2-94.2-39.4z m0-26.1q66.1 0 113.2 46.5t47.1 113.2-47.1 113.2-113.2 46.5-113.1-46.5-47.1-113.2 47.1-113.2 113.1-46.5z" /></svg>