<svg height="512" width="533.0" xmlns="http://www.w3.org/2000/svg"><path d="m74.8 369.2q-5.7 0-10.8-2.1-29.7-12.8-46.6-39.4t-17.4-58.4q0-37.4 22.5-65.5t57.9-37.4v-4.1q0-66 47.1-113.1t113.1-47.2q58.9 0 103.5 37.9t54.2 96.3q2.1 10.7-4.6 20t-17.4 10.7q-10.7 1.5-19.9-4.6t-10.8-16.9q-7.2-38.4-36.4-63.5t-68.6-25.1q-44 0-75.7 31.3t-31.3 75.2q0 7.7 2.6 22l6.6 33.8-37.8-2.5q-20.5 0-35.9 15.8t-15.3 37.9q0 15.9 8.7 29.2t23.5 19.5q12.8 5.6 15.4 18.4t-4.6 22.5-21 10.3z m378.3-233q33.3 0 56.9 23.5t23.5 56.9-23.5 56.8-56.9 23.6h-58.3q5.1 13.3 5.1 26.1 0 33.3-23.6 56.8t-56.8 23.6h-133.1q-10.8 0-19 8.1t-8.2 19 8.2 18.9 19 8.2 18.4 7.7 7.7 18.4-7.7 19-18.4 8.2q-33.3 0-56.9-23.6t-23.5-56.8 23.5-56.8 56.9-23.6h133.1q10.7 0 18.9-8.2t8.2-18.9-8.2-18.5-18.9-7.6h-122.9q-10.7 0-18.4-8.2t-7.7-19 7.7-18.9 18.4-8.2h256q10.8 0 19-7.7t8.1-18.4-8.1-19-19-8.2-18.4-8.2-7.7-18.9 7.7-18.4 18.4-7.7z" /></svg>