<svg height="512" width="367.6" xmlns="http://www.w3.org/2000/svg"><path d="m128 390.7q-2.6-10.3-12.3-15.9t-20.5-2.6l-38.9 11.8q-10.7 3.1-22.5-1.5t-16.9-14.4l-13.3-23q-5.1-9.7-3.1-22t9.7-20l28.7-28.2q7.7-7.6 7.7-18.4t-7.7-18.4l-28.7-28.2q-8.2-7.7-9.7-19.9t4.1-22.1l12.8-23.5q5.1-9.7 16.9-14.4t22.5-1.5l38.9 10.8q10.8 3 20.5-2.6t12.3-15.9l9.7-38.9q3.1-10.7 12.8-18.4t20.5-7.7h26.1q10.8 0 20.5 7.7t12.8 18.4l10.3 38.9q3 10.8 12.2 15.9t19.5 2.6l38.9-10.8q10.8-3.1 22.5 1.5t16.9 14.4l13.3 23.5q5.2 9.8 3.1 22.1t-9.7 19.9l-28.7 28.2q-8.2 7.7-8.2 18.4t8.2 18.4l28.7 28.2q7.7 7.7 9.7 20t-3.1 22l-13.3 23q-5.1 9.8-16.9 14.4t-22.5 1.5l-38.9-11.8q-10.2-2.5-19.5 2.6t-12.2 15.9l-10.3 39.9q-3.1 10.7-12.8 18.4t-20.5 7.2h-26.1q-10.7 0-20.5-7.2t-12.8-18.4z m56.3-187.4q-22.5 0-37.9 15.8t-15.8 37.4 15.8 37.4 37.9 15.9q22 0 37.4-15.4t15.9-37.9-15.9-37.9-37.4-15.3z" /></svg>