<svg height="512" width="506.9" xmlns="http://www.w3.org/2000/svg"><path d="m427 15.9q33.3 0 56.8 23.5t23.6 56.9v320q0 33.2-23.6 56.8t-56.8 23.5h-293.9q-33.3 0-56.8-23.5t-23.6-56.8v-27.2h-26.1q-10.7 0-18.9-7.7t-8.2-18.4 8.2-18.9 18.9-8.2h26.1v-53.3h-26.1q-10.7 0-18.9-8.2t-8.2-18.9 8.2-19 18.9-8.1h26.1v-53.3h-26.1q-10.7 0-18.9-8.2t-8.2-18.9 8.2-18.5 18.9-7.6h26.1v-27.2q0-33.3 23.6-56.8t56.8-23.6h293.9z m-320 79.8v27.2h26.1v-53.8q-10.7 0-18.4 8.2t-7.7 19z m0 79.9v53.3h26.1v-53.3h-26.1z m0 107v53.3h26.1v-53.3h-26.1z m0 133.1q0 10.8 7.7 19t18.4 8.2v-53.8h-26.1v27.2z m346.1 0v-320q0-10.7-7.7-18.9t-18.4-8.2h-266.7v373.8h266.7q10.8 0 18.4-8.2t7.7-19z m-213-199.6q0-53.8 53.3-53.8 53.7 0 53.7 53.8 0 53.2-53.7 53.2-53.3 0-53.3-53.2z m53.3 75.7q28.6 0 47.6 11.8t18.9 27.2q0 7.6-19.4 13.3t-47.6 5.6q-30.2 0-48.2-5.6t-18.4-13.3q0-15.4 18.4-27.2t48.2-11.8z" /></svg>