<svg height="512" width="373.2" xmlns="http://www.w3.org/2000/svg"><path d="m373.2 166.9v169q0 77.3-54.2 132.1t-132.1 54.8-132.1-54.8-54.8-132.1v-168l0.5-1.5q3.1-74.2 57.4-126t129-51.7 129 51.7 57.3 126z m-186.3 235.5q43.5 0 79.9-23.5t53.2-62v-10.2q-55.3 56.3-133.1 56.3-78.9 0-133.7-56.3v10.2q17.5 38.4 53.8 62t79.9 23.5z m0-359.9q-55.3 0-94.2 38.9t-39.5 94.2 39.5 94.2 94.2 39.4 94.2-39.4 38.9-94.2-38.9-94.2-94.2-38.9z m0 427q45 0 79.9-27.1t47.6-69.7q-51.7 56.4-127.5 56.4t-127.5-56.4q12.3 42.5 47.6 69.7t79.9 27.1z" /></svg>