<svg height="512" width="427.0" xmlns="http://www.w3.org/2000/svg"><path d="m293.4 256q10.7 0 18.9 8.2t8.2 18.9-8.2 18.5-18.9 7.6h-53.3v53.8q0 10.8-8.2 18.4t-18.9 7.7-18.4-7.7-7.7-18.4v-53.8h-53.8q-10.7 0-18.4-7.6t-7.7-18.5 7.7-18.9 18.4-8.2h53.8v-53.2q0-10.8 7.7-19t18.4-8.2 18.9 8.2 8.2 19v53.2h53.3z m125.4-125.4q8.2 8.2 8.2 18.4v266.7q0 33.3-23.5 56.9t-56.9 23.5h-266.7q-33.3 0-56.9-23.5t-23.5-56.9v-320q0-33.2 23.5-56.8t56.9-23.5h213q11.7 0 19.4 7.6z m-56.3 18.4l-69.1-68.6v28.7q0 15.8 11.8 27.6t28.6 11.8h28.7z m-15.4 293.9q10.8 0 18.5-8.2t7.6-19v-240.1h-39.9q-27.6 0-47.1-19.4t-19.4-47.1v-40.5h-186.9q-10.8 0-19 8.2t-8.2 18.9v320q0 10.8 8.2 19t19 8.2h266.7z" /></svg>