<svg height="512" width="427.0" xmlns="http://www.w3.org/2000/svg"><path d="m347.1 496.1h-266.7q-33.3 0-56.8-23.5t-23.6-56.9v-320q0-33.2 23.6-56.8t56.8-23.5h266.7q33.3 0 56.9 23.5t23.5 56.8v320q0 33.3-23.5 56.9t-56.9 23.5z m-266.7-427q-10.8 0-19 8.2t-8.2 19v320q0 10.7 8.2 18.9t19 8.2h266.7q10.8 0 18.5-8.2t7.6-18.9v-320q0-10.8-7.6-19t-18.5-8.2h-266.7z m240.1 160.3h-213q-13.3 0-13.3-12.8 0-5.7 4.1-9.8t9.7-4h213q5.7 0 9.8 4t4 9.8q0 12.8-13.3 12.8z m0-79.9h-213q-5.6 0-9.7-4.1t-4.1-9.7q0-12.8 13.3-12.8h213q13.3 0 13.3 12.8 0 5.6-4.1 9.7t-9.7 4.1z m0 160.3h-213q-5.6 0-9.7-4.1t-4.1-9.8q0-12.8 13.3-12.8h213q13.3 0 13.3 12.8 0 5.7-4.1 9.8t-9.7 4.1z m0 79.8h-213q-13.3 0-13.3-12.8 0-5.6 4.1-9.7t9.7-4.1h213q5.7 0 9.8 4.1t4 9.7q0 12.8-13.3 12.8z" /></svg>