<svg height="512" width="480.3" xmlns="http://www.w3.org/2000/svg"><path d="m479.2 402.4l0.5 133.7q0 10.7-8.1 18.4t-19 7.7h-426.5q-10.7 0-18.9-7.7t-8.2-18.4q0-133.7 0.5-133.7 0-5.6 0.5-8.2l53.8-160.2q6.6-17.9 25-17.9h14.9l-17.9-18.5q-23.6-23.5-23.6-56.3t23.6-56.3q15.8-15.9 38.9-21t44 2v-36.3q0-33.3 23.6-56.8t56.8-23.6 56.8 23.6 23.6 56.8v36.3q21-7.1 44-2t38.9 21q23.6 23.5 23.6 56.3t-23.6 56.3l-17.9 18.5h14.9q18.4 0 25 17.9l53.8 160.2q0.5 2.6 0.5 8.2z m-365-279.5q-7.7 7.7-7.7 18.9t7.7 19l125.4 124.9 125.5-125.4q7.6-7.7 7.6-18.5t-7.6-18.4-19-7.7-18.9 7.7l-61 60.9v-154.1q0-10.7-8.2-18.9t-18.9-8.2-18.9 8.2-8.2 18.9v154.1l-61-60.9q-8.2-8.2-19.4-8.2-10.3 0-18.4 8.2z m-15.4 146.4l-44 133.1h370.7l-45.1-133.1h-49.1l-91.7 91.1-91.6-91.1h-49.2z m327.7 240.1v-79.8h-373.8v79.8h373.8z" /></svg>