<svg height="512" width="533.0" xmlns="http://www.w3.org/2000/svg"><path d="m399.9 397.3q-10.8 0-19-8.2t-8.2-18.9 8.2-18.5 19-7.6q33.3 0 56.8-23.6t23.6-56.8-23.6-56.9-56.8-23.5q-11.8 0-22 3.1l-28.7 8.2-4.6-29.7q-7.2-38.4-36.4-63.5t-68.6-25.1q-44 0-75.8 31.2t-31.2 75.8q0 7.2 2.6 21l6.6 32.2h-37.9q-20.4 0-35.8 15.9t-15.4 37.4q0 22.5 15.9 37.9t37.9 15.9q10.7 0 18.4 7.6t7.7 18.5-7.7 18.9-18.4 8.2q-44 0-75.8-31.2t-31.2-75.8q0-37.4 22.5-65.5t57.9-37.4v-3.1q0-66 47.1-113.1t113.1-47.1q51.7 0 92.7 29.6t57.9 77.4q58.3-4.6 100.3 35.3t42.5 97.8q0 55.3-38.9 94.2t-94.2 38.9z m-173.6 0l27.1-79.9 27.2 79.9q4.1 10.8-1.6 21.5t-16.3 14.4q-14.9 5.1-28.2-6.7t-7.7-29.7z m79.9 53.3l27.1-79.9 26.1 79.9q4.1 10.7-1.5 21.5t-15.9 14.3q-14.8 5.1-28.1-6.7t-7.7-29.7z m-160.3 0l27.2-79.9 26.1 79.9q4.1 10.7-1.6 21.5t-15.8 14.3q-14.9 5.1-28.2-6.7t-7.7-29.7z" /></svg>