<svg height="512" width="413.7" xmlns="http://www.w3.org/2000/svg"><path d="m240.1 409.1q49.2 0 84.5-35.3t35.3-84.5-35.3-85-84.5-35.3q-10.7 0-18.9-8.2t-8.2-19 8.2-18.4 18.9-7.7q71.7 0 122.4 50.7t50.7 122.4-50.7 122.3-122.4 50.7-122.3-50.7-50.7-122.3q0-10.8 8.2-19t18.9-8.2 19 8.2 8.1 19q0 49.1 35.4 84.4t84.5 35.4z m-62.9-359.9q10.7 0 18.9 7.6t8.2 18.5-8.2 18.9-18.9 8.2h-86.6l155.2 155.1q7.6 7.7 7.6 19t-7.6 18.9-19.5 7.7q-10.7 0-18.4-7.7l-155.2-155.1v86.5q0 10.8-7.6 19t-18.5 8.2-18.9-8.2-8.2-19v-177.1h177.1z" /></svg>