<svg height="512" width="480.3" xmlns="http://www.w3.org/2000/svg"><path d="m240.1 149q-50.1 0-87.5 27.1-40 28.2-84.5 79.9 43.5 50.7 84.5 79.4 37.9 27.1 87.5 27.1t87.6-27.1q40.9-28.7 84.5-79.4-45.1-51.7-84.5-79.9-37.9-27.1-87.6-27.1z m0-53.3q68.1 0 118.3 36.4 30.7 22 60.9 52.7t45.1 50.7l15.3 20q-5.6 8.2-16.3 22t-42.5 46.6-63 54.8q-50.7 36.3-118.3 36.3-68.6 0-119.3-36.3-30.7-22-60.9-52.8t-45.1-50.6l-14.8-20q5.6-8.2 16.4-22t42.5-46.6 62.4-54.8q50.7-36.4 119.3-36.4z m0 133.2q10.8 0 19 8.2t8.2 18.9-8.2 18.4-19 7.7-18.9-7.7-8.2-18.4 8.2-18.9 18.9-8.2z m0 107q-33.3 0-56.8-23.6t-23.6-56.8 23.6-56.8 56.8-23.6 56.9 23.6 23.5 56.8-23.5 56.8-56.9 23.6z m0-133.7q-22 0-37.3 15.9t-15.9 37.9q0 22 15.3 37.4t37.9 15.8 37.9-15.8 15.4-37.4q0-22.5-15.9-37.9t-37.4-15.9z" /></svg>