<svg height="512" width="535.0" xmlns="http://www.w3.org/2000/svg"><path d="m529.4 240.6q10.8 14.9 0 30.2-4.1 5.7-17.4 23.6t-45.6 50.7-64.5 55.8q-57.8 41-133.6 41-76.8 0-134.7-41-32.7-23-64.5-55.8t-45.5-50.7-17.5-23.6q-10.7-14.8 0-30.2 3.1-5.6 17.5-23.5t46-50.7 64.5-55.8q58.4-41.5 134.7-41.5 75.8 0 133.6 41.5 32.8 23 64.5 55.8t46.1 50.7 17.4 23.5z m-261.6 109.1q38.4 0 65.5-27.7t27.1-66q0-38.9-27.1-66t-65.5-27.2q-38.9 0-66.1 27.2t-27.1 66q0 38.4 27.1 66t66.1 27.7z m53.2-93.7q0 22-15.3 37.4t-37.9 15.8-37.9-15.8-15.9-37.4 15.9-37.9 37.9-15.9q22 0 37.4 15.9t15.8 37.9z" /></svg>