<svg height="512" width="453.1" xmlns="http://www.w3.org/2000/svg"><path d="m231.9-36.9q96.8 18 159.3 93.2t62.4 173.1q0 92.1-55.8 164.8t-143.8 96.3v32.8q0 10.7-8.2 18.4t-19 7.7-18.9-7.7-8.2-18.4v-32.8q-88.6-23.6-143.9-96.3t-55.8-164.8q0-97.8 63-173.1t159.2-93.2l4.6-0.5z m22.1 471.6q64-22.5 104.4-76.8t42.5-122.9l-84 84q-4.1 4.1-9.7 4.1-8.2 0-12.3-7.7t2.6-14.9l100.3-100.3q-5.6-38.9-23-72.2l-58.4 58.4q-4.1 4.1-9.7 4.1-8.2 0-12.3-8.2t2.6-14.9l62.9-63q-49.1-69.6-133.1-87-84 17.4-133.1 87l63 63q6.6 6.7 2.5 14.9t-12.3 8.2q-5.6 0-9.7-4.1l-58.4-58.4q-17.4 33.3-23 72.2l100.4 100.3q6.6 7.2 2.5 14.9t-12.3 7.7q-5.6 0-9.7-4.1l-83.5-84q2.1 68.6 42 122.9t104 76.8v-311.8q0-10.8 8.2-19t18.9-8.2 18.9 8.2 8.2 19v311.8z" /></svg>