<svg height="512" width="427.0" xmlns="http://www.w3.org/2000/svg"><path d="m347.1 362.5q33.3 0 56.9 23.5t23.5 56.9-23.5 56.8-56.9 23.6q-25.6 0-46.6-14.9t-29.1-38.9h-84.5q-55.3 0-94.2-38.9t-39.5-94.2v-191.5q-23-8.2-37.8-29.2t-14.9-46.6q0-33.3 23.6-56.8t56.8-23.6 56.8 23.6 23.6 56.8q0 25.6-14.9 46.6t-37.9 29.2v4.6q0 33.3 23.6 56.8t56.8 23.6h84.5q8.2-23.1 29.2-37.9t46.6-14.8q33.3 0 56.8 23.5t23.6 56.8-23.6 56.9-56.8 23.5q-25.6 0-46.6-14.8t-29.2-37.9h-84.5q-43 0-79.8-27.7v80.9q0 33.3 23.5 56.9t56.8 23.5h84.5q8.2-23 29.2-37.9t46.6-14.8z m0-133.6q-10.7 0-18.9 8.2t-8.2 18.9 8.2 18.9 18.9 8.2 18.5-8.2 7.6-18.9-7.6-18.9-18.5-8.2z m-266.7-186.4q-10.8 0-19 7.7t-8.2 18.4 8.2 19 19 8.1 18.9-8.1 8.2-19-8.2-18.4-18.9-7.7z m266.7 426.5q10.8 0 18.5-7.7t7.6-18.4-7.6-19-18.5-8.2-18.9 8.2-8.2 19 8.2 18.4 18.9 7.7z" /></svg>