<svg height="512" width="417.3" xmlns="http://www.w3.org/2000/svg"><path d="m177.2 95.7q-44.1 0-75.3 31.3t-31.2 75.8 31.2 75.2 75.3 31.2 75.7-31.2 31.3-75.2-31.3-75.8-75.7-31.3z m0-53.2q66 0 113.1 47.1t47.1 113.2-47.1 113.1-113.1 47.1-113.2-47.1-47.1-113.1 47.1-113.2 113.2-47.1z m160.2 426.5q10.8 0 19 8.2t8.1 18.9-8.1 19-19 8.2h-266.2q-10.8 0-19-8.2t-8.2-19 8.2-18.9 19-8.2h106.5v-26.1q-99.4 0-169.5-70.7-7.7-7.7-7.7-18.9t7.7-19 18.9-7.6 19 7.6q54.3 54.3 132.1 54.3 78.3 0 132.6-54.3t54.3-132.1q0-78.3-54.3-132.6l-19.5-18.4 55.3-54.3q7.7-7.7 19-7.7t18.9 7.7 7.2 19-8.2 18.9l-17.9 17.9q52.7 65.6 52.7 150.1 0 99.3-70.7 169.4-49.1 49.2-115.7 64v32.8h106.5z" /></svg>