<svg height="512" width="417.3" xmlns="http://www.w3.org/2000/svg"><path d="m177.2 469v-26.1q-99.4 0-169.5-70.7-7.7-7.7-7.7-18.9t7.7-19 18.9-7.6 19 7.6q54.2 54.3 132.1 54.3 78.3 0 132.6-54.3t54.2-132.1q0-78.3-54.2-132.6l-19.5-18.4 55.3-54.3q7.7-7.7 19-7.7t18.9 7.7 7.2 18.5-8.2 18.4l-17.9 18.4q52.7 65.6 52.7 150 0 99.4-70.7 169.5-49.1 49.2-115.7 64v32.8h106.5q10.8 0 19 8.2t8.2 18.9-8.2 19-19 8.2h-266.2q-10.8 0-19-8.2t-8.2-19 8.2-18.9 19-8.2h106.5z m-160.3-266.2q0-66.1 47.1-113.2t113.2-47.1 113.1 47.1 47.1 113.2-47.1 113.1-113.1 47.1-113.2-47.1-47.1-113.1z" /></svg>