<svg height="512" width="480.3" xmlns="http://www.w3.org/2000/svg"><path d="m240.1 15.9q99.4 0 169.5 70.6t70.7 169.5-70.7 169.5-169.5 70.6-169.4-70.6-70.7-169.5 70.7-169.5 169.4-70.6z m0 160.2q0 22.6-3 38.9t-6.7 24.1-7.7 11.8-6.6 4.6l-3.1 0.5v-79.9q0-22 10.7-37.3t29.7-15.9q17.4 0 27.7-13.3t12.3-32.3q-25.1-7.7-53.3-7.7-53.7 0-97.8 27.2t-68.1 73.2q10.3 9.7 29.7 29.7t29.2 30.2q0-3.1 0.5-7.7t7.2-11.8 18.9-7.1v53.2l53.3 53.8v53.2q25.1 0 35.8 0.5t23.6 3.1 16.9 8.2 4.1 15.4q16.9-8.2 22.5-11.8t14.3-10.8 9.8-11.2 4.1-16.9 2.5-23.1v-33.8l26.1-27.1-26.1-26.1v53.2h-27.1q0 10.8-8.2 19t-18.9 8.2-18.5-8.2-7.7-19 7.7-18.9 18.5-8.2v-79.9q0-10.7-7.7-18.4t-18.5-7.7-18.9 7.7-8.2 18.4z m79.9 53.8q0-10.3 7.7-18.4t19.4-8.2q10.8 0 18.5 7.6l27.1 27.2q7.7 7.7 7.7 18.9t-7.7 19l-19.5 18.4q-0.5 57.9-11.2 77.3t-56.8 42.5q-5.2 2.6-11.8 2.6-10.8 0-18.5-7.2t-8.7-17.4q-7.1-2.1-53.7-2.1-10.8 0-18.5-8.1t-7.6-19v-42.5l-123.4-123.4q-10.3 29.7-10.3 58.9 0 77.3 54.8 132.1t132.1 54.8 132.1-54.8 54.8-132.1q0-55.8-29.7-101.4t-78.3-68.1q-5.2 28.2-22.6 45.1 23.6 15.9 23.6 44v53.8z" /></svg>