<svg height="512" width="480.3" xmlns="http://www.w3.org/2000/svg"><path d="m480.3 256v69.1q0 0.5-0.6 1.6t-0.5 1.5q0.5 6.6 0.5 21v53.2q0 38.4-27.6 66.1t-66.1 27.6-66-27.6-27.6-66.1v-53.2q0-30.2 14.8-54.3t38.4-33.8q-2-42.5-32.8-72.2t-73.7-29.7-73.7 29.7-32.8 72.2q23.6 9.7 38.4 33.8t14.9 54.3v53.2q0 38.4-27.7 66.1t-66 27.6-66.1-27.6-27.6-66.1v-53.2q0-14.9 0.5-21 0-0.5-0.5-1.5t-0.5-1.6v-69.1q0-99.3 70.6-169.5t169.5-70.6 169.5 70.6 70.6 169.5z m-427.1 0v26.1h27.2q0-26.1 0.5-26.1 4.1-50.7 34.8-89.1l-23.5-23.5q-38.4 50.6-38.4 112.6z m79.9 146.4v-53.2q0-17.4-8.2-28.7t-18.4-11.8h-50.7q-3.1 22.6-3.1 40.5v53.2q0 15.9 11.8 27.7t28.7 11.8 28.1-11.8 11.8-27.7z m197.7-240.1q7.1-7.2 20.4-20t20-19.4l16.9-16.9q-61.4-61.5-148-61.5t-147.9 61.5l47.6 47.6 9.7 9.2q37.4-37.4 91.1-37.4t91.2 37.4z m96.2 240.1v-53.2q0-17.9-3.1-40.5h-50.7q-10.2 0-18.4 11.8t-8.2 28.7v53.2q0 15.9 11.8 27.7t28.2 11.8 28.6-11.8 11.8-27.7z m0-120.3v-26.1q0-62-38.4-112.6l-23.5 23.5q31.2 39.9 35.3 89.1v26.1h27.1z" /></svg>