<svg height="512" width="519.7" xmlns="http://www.w3.org/2000/svg"><path d="m260.1 469q-8.2 0-14.9-4.6-13.3-9.2-43-29.7t-78.8-57.9-68.6-55.8q-54.3-54.2-54.3-135.1 0-59.4 42-101.4t101.4-42q73.2 0 116.7 60.4 20-28.1 50.7-44t66-15.9q59.4 0 101.4 42t41.5 101.4q0 80.9-54.3 135.1-19.4 19.5-68.1 55.8t-79.3 57.9-43 29.7q-6.7 4.6-15.4 4.6z m-116.7-373.3q-37.4 0-63.5 26.2t-26.7 64q0 58.3 39 97.2 40.4 40.5 167.9 127 127.5-86.5 167.9-127 38.9-38.9 38.9-97.2 0-37.9-26.1-64t-63.5-26.2q-37.8 0-64 26.2t-26.1 64q0 10.7-8.2 18.4t-18.9 7.7-18.4-7.7-7.7-18.4q0-37.9-26.6-64t-63.5-26.2z" /></svg>