<svg height="512" width="466.4" xmlns="http://www.w3.org/2000/svg"><path d="m0 256q0-47.6 33.8-81.4t81.4-33.8 81.4 33.8l37.4 35.3 37.4-35.8q33.2-33.3 80.9-33.3 46.5 0 80.9 33.8t34.3 81.4-34.3 81.4-80.9 33.8q-47.7 0-81.5-33.8l-36.3-35.3-37.9 35.8q-33.3 33.3-80.9 33.3t-81.4-33.8-33.8-81.4z m115.2-48.6q-20 0-34.3 14.3t-14.3 34.3q0 20.5 14.3 34.8t34.8 14.4 34.8-14.4l35.4-34.8-35.4-33.8q-14.8-14.8-34.8-14.8z m270.8 83.4q14.4-14.3 14.4-34.8t-14.4-34.8-34.3-14.4-34.3 14.4l-35.8 34.8 35.3 33.8q14.4 14.3 34.8 14.3t34.9-13.8z" /></svg>