<svg height="512" width="293.4" xmlns="http://www.w3.org/2000/svg"><path d="m219.6 376.3q25.6 3.1 40 26.1 9.7 15.9 6.6 35.4t-17.4 31.2q-47.6 40.4-110 40.4-82 0-112.7-62.9-27.1-55.8 6.7-121.9l15.3-29.7q-26.1-3.1-40.4-26.1-9.7-15.9-6.7-35.3t17.4-31.3q32.8-27.6 78.9-36.3-16.9-27.1-16.9-56.8 0-44.1 31.2-75.8t75.8-31.3 75.3 31.3 31.2 75.8q0 32.2-17.4 58.3t-46.6 39.4q20.5 27.2 22.5 63t-17.4 76.3z m-32.7-320q-22.5 0-37.9 15.9t-15.9 37.4 15.9 37.3 37.9 15.9q22 0 37.4-15.9t15.8-37.3-15.8-37.4-37.4-15.9z m-48.7 399.9q20 0 39-6.7t27.6-13.8l8.2-6.6q-16.9 5.6-32.3 5.6-23.5 0-28.6-16.9t7.6-42l27.2-53.2q22.5-46.6 5.1-76.8t-63.5-30.2q-20 0-38.9 6.6t-27.6 13.3l-9.3 6.7q17.4-5.7 32.8-5.7 23.6 0 28.7 17.5t-7.7 41.4l-27.1 53.3q-22.6 46.6-5.2 77.3t63.5 30.2z" /></svg>