<svg height="512" width="413.7" xmlns="http://www.w3.org/2000/svg"><path d="m160.3 469.5h-160.3v-117.8l101.4-101.3q-7.7-23.1-7.7-48.2 0-66.5 46.6-113.1t113.1-46.6 113.2 46.6 46.6 113.1-46.6 113.2-113.2 46.6h-40.4v53.7h-53.3v53.3z m-107.1-53.2h53.8v-53.8h53.3v-53.3h93.7q44 0 75.2-31.2t31.2-75.8-31.2-75.2-75.2-31.3-75.8 31.3-31.3 75.2q0 23.1 9.8 44.1l7.7 16.9-110.6 110.6v42.5z m200.2-240.2q-10.7 0-18.9 7.7t-8.2 18.4 8.2 19 18.9 8.2 19-8.2 8.2-19-8.2-18.4-19-7.7z m0-27.1q22.1 0 37.4 15.9t15.9 37.3q0 22.6-15.9 37.9t-37.4 15.9-37.8-15.9-15.9-37.9 15.9-37.3 37.8-15.9z" /></svg>