<svg height="512" width="399.9" xmlns="http://www.w3.org/2000/svg"><path d="m305.2 367.1q94.7 0 94.7-63.5 0-51.7-60.4-66l-30.3-6.7q-25-6.6-25-27.1 0-23.6 31.2-23.6 34.8 0 36.3 27.2l46.1-5.2q-4.6-58.3-79.3-58.3-80.9 0-80.9 66.5 0 47.6 52.7 60.4l31.2 5.7q32.3 7.7 32.3 28.7 0 25-49.2 25-60.4 0-79.3-58.3l-15.4-46.1q-14.3-45.6-35.8-64-20.5-17.9-67.1-17.9-43 0-74.7 31.2-32.8 31.2-32.8 84 0 49.1 30.7 78.3 30.2 29.7 73.7 29.7 42.5 0 68.1-20.5l-14.3-39.9q-22.5 22.5-51.7 22.5-27.2 0-44.6-21t-17.4-50.2q0-39.9 20-57.8 20.5-18.4 45.1-18.4 27.1 0 38.9 14.3 10.7 14.3 21 45.1l14.8 45.5q25.1 80.9 121.9 80.9z" /></svg>