<svg height="512" width="480.3" xmlns="http://www.w3.org/2000/svg"><path d="m240.1 496.1q-99.8 0-170.5-70.6-69.6-69.7-69.6-169.5 0-100.4 69.6-170.5 69.2-69.6 170.5-69.6 99.9 0 169.5 69.6 70.7 70.7 70.7 170.5 0 99.3-70.7 169.5t-169.5 70.6z m0-427q-78.3 0-132.6 54.3t-54.3 132.6q0 76.8 54.3 132.1t132.6 55.3q76.8 0 132.1-55.3t55.3-132.1q0-78.3-55.3-132.6t-132.1-54.3z m58.9 248.9q53.3 0 53.3-35.4 0-30.2-33.8-37.9l-16.9-3q-14.4-4.1-14.4-15.4 0-13.3 17.4-13.3 19.5 0 20.5 15.4l26.1-2.6q-3-33.3-45-33.3-45.6 0-45.6 37.9 0 27.6 29.7 33.8l17.9 3.1q17.9 5.1 17.9 15.8 0 14.4-27.6 14.4-33.8 0-45.1-32.8l-9.2-25.6q-7.7-25.6-19.4-36.3t-38.4-10.8q-25.6 0-43 19.5t-17.4 46q0 25.6 16.8 43t41.5 17.5q24.6 0 38.4-11.8l-7.7-22.6q-12.8 12.8-29.7 12.8-15.3 0-25-11.7t-9.8-28.7q0-19.5 9.8-30.7t27.1-11.8q10.7 0 17.4 4.6t9.7 10.3 6.7 17.4l8.2 25.6q14.8 45.5 68.6 45.5z" /></svg>