<svg height="512" width="480.3" xmlns="http://www.w3.org/2000/svg"><path d="m187.4 344.1h-43v-138.8h43v138.8z m-44-178.2q0-9.2 6.6-15.4t16.4-6.6q23 0 23 22 0 21-23 21t-23-21z m152.5 35.3q24.6 0 37.4 16.9t12.8 44v82h-43.5v-77.3q0-30.8-21-30.8-10.8 0-17.4 7.2t-6.7 20v80.9h-43.5v-94.8q0-35.8-0.5-44h37.4l2.5 18.4q14.9-22.5 43.6-22.5z m-55.8 294.4q-99.3 0-169.4-70.6t-70.7-169.5 70.7-169.5 169.4-70.6 169.5 70.6 70.7 169.5-70.7 169.5-169.5 70.6z m0-427q-77.3 0-132.1 54.8t-54.8 132.1 54.8 132.1 132.1 54.8 132.1-54.8 54.8-132.1-54.8-132.1-132.1-54.8z" /></svg>