<svg height="512" width="378.9" xmlns="http://www.w3.org/2000/svg"><path d="m370.2 74.8q9.2 8.1 9.2 20.4t-9.2 21l-45.6 46.1 7.7 8.2q24.6 24.6 24.6 58.4t-24.6 58.3l-110.6 111.6q-24.6 24.6-58.9 24.6-33.8 0-58.4-24.6l-8.1-8.1-46.1 46q-9.2 9.3-20.5 9.3-12.3 0-21-9.3-8.2-9.2-8.2-21t8.2-20.4l46.1-45.6-8.2-8.2q-23.6-23.5-23.6-58.9 0-34.8 23.6-58.3l111.6-111.7q23.6-23.5 58.4-23.5t58.3 23.5l8.2 8.2 45.6-46q8.2-8.2 20.5-8.2t21 8.2z m-78.9 171.5q6.7-6.7 6.7-17.4 0-10.3-6.7-16.9l-8.2-8.2-19.4 19.4q-8.2 8.2-21 8.2-12.3 0-20.5-8.2t-8.2-20.4 8.2-21l19.5-19.5-8.2-8.2q-7.2-7.2-16.9-7.2-10.3 0-17.4 7.2l-111.6 111.6q-7.2 7.2-7.2 16.9 0 10.3 7.2 17.4l8.1 8.2 19.5-19.4q9.2-9.2 21-9.2t20.5 9.2q8.2 8.2 8.2 20.4t-8.2 21l-19.5 19.5 8.2 7.7q7.2 7.1 16.9 7.1 10.2 0 17.4-7.1z" /></svg>