<svg height="512" width="426.5" xmlns="http://www.w3.org/2000/svg"><path d="m213 55.8q-66.1 0-113.2 46.1-46.6 45.6-46.6 110.6 0 64.5 46.6 110.1l113.2 112.1 114.2-112.1q46-45.1 46-110.1 0-66.1-46-110.6-47.6-46.1-114.2-46.1z m0-53.2q89.1 0 151 61.4t62 148.5-62 148.5l-151 148.4-150.5-148.4q-63-61.5-63-148.5t63-148.5 150.5-61.4z m0 146.4q-27.1 0-46.6 20t-20 47.1 20 47.1q19.5 19.4 46.6 19.4 28.2 0 47.6-19.4 20-20 20-47.1t-20-47.1-47.6-20z m0-27.1q38.4 0 66 27.6t27.7 66.1-27.7 66-66 27.6-66.1-27.6-27.6-66 27.6-66.1 66.1-27.6z" /></svg>