<svg height="512" width="453.1" xmlns="http://www.w3.org/2000/svg"><path d="m347.1 29.2q44.1 0 75.3 31.2t31.2 75.3v79.9q0 10.7-7.6 18.9t-18.5 8.2-18.9-8.2-8.2-18.9v-79.9q0-22.5-15.9-37.9t-37.4-15.4q-22.5 0-37.9 15.9t-15.8 37.4v53.7h27.1q22 0 37.4 15.9t15.9 37.4v186.9q0 22-15.9 37.3t-37.4 15.9h-266.7q-22.6 0-37.9-15.9t-15.4-37.3v-186.9q0-22 15.4-37.4t37.9-15.9h79.8v26.2h107v-79.9q0-44.1 31.3-75.3t75.7-31.2z m-160.2 380.9q14.3 0 24.6-10.2t10.2-24.6-10.2-24.6-24.6-10.2-24.6 10.2-10.2 24.6 10.2 24.6 24.6 10.2z" /></svg>