<svg height="512" width="533.0" xmlns="http://www.w3.org/2000/svg"><path d="m386.6 42.5q-38.4 0-66.1 27.1t-27.6 65.6v40.4h-53.3v-40.4q0-38.4-27.6-65.6t-66.1-27.1-66 27.1-27.7 65.6 27.7 66 66 27.7h40.5v53.7h-40.5q-38.4 0-66 27.7t-27.7 66 27.7 65.6 66 27.1 66.1-27.1 27.6-65.6v-40.4h53.3v40.4q0 38.4 27.6 65.6t66.1 27.1 66-27.1 27.7-65.6-27.7-66-66-27.7h-40v-53.7h40q38.4 0 66-27.7t27.7-66-27.7-65.6-66-27.1z m-40 133.1v-40.4q0-16.9 11.8-28.2t28.2-11.8 28.6 11.8 11.8 27.7q0 16.9-11.8 28.6t-28.6 11.8h-40z m-200.2 0q-15.8 0-27.6-11.8t-11.8-28.6 11.8-28.2 27.6-11.8q16.9 0 28.7 11.8t11.8 27.7v40.4h-40.5z m240.2 240.1q-16.9 0-28.2-11.7t-11.8-28.2v-40.4h40q16.9 0 28.6 11.7t11.8 28.7q0 15.9-11.8 27.7t-28.6 11.7z m-240.2 0q-15.8 0-27.6-11.7t-11.8-28.2 11.8-28.7 27.6-11.7h40.5v40.4q0 15.9-11.8 27.7t-28.7 11.7z m240.2-427q60.4 0 103.4 43t43 103.5q0 36.3-16.9 68.1t-45.6 52.2q28.7 20.5 45.6 52.2t16.9 68.1q0 60.4-43 103.4t-103.4 43q-36.4 0-68.1-16.9t-51.7-45.5q-20.5 28.6-52.3 45.5t-68.1 16.9q-60.9 0-103.9-43t-43-103.4q0-36.3 16.9-68.1t45.6-52.2q-28.7-20.5-45.6-52.2t-16.9-68.1q0-60.4 43-103.5t103.9-43q36.4 0 68.1 16.9t52.3 45.6q20.4-28.7 51.7-45.6t68.1-16.9z m-93.7 240.2v53.7h-53.3v-53.7h53.3z" /></svg>