<svg height="512" width="533.0" xmlns="http://www.w3.org/2000/svg"><path d="m453.1 415.7h-373.2q-10.8 0-19 8.2t-8.2 19 8.2 18.4 19 7.7h373.2q10.8 0 19-7.7t8.2-18.4-8.2-19-19-8.2z m0-53.2q33.3 0 56.9 23.5t23.5 56.9-23.5 56.8-56.9 23.6h-373.2q-33.3 0-56.9-23.6t-23.5-56.8 23.5-56.9 56.9-23.5h373.2z m0-133.6h-373.2q-10.8 0-19 8.2t-8.2 18.9 8.2 18.9 19 8.2h373.2q10.8 0 19-8.2t8.2-18.9-8.2-18.9-19-8.2z m0-53.3q33.3 0 56.9 23.6t23.5 56.8-23.5 56.8-56.9 23.6h-373.2q-33.3 0-56.9-23.6t-23.5-56.8 23.5-56.8 56.9-23.6h373.2z m0-133.1h-373.2q-10.8 0-19 7.7t-8.2 18.4 8.2 19 19 8.1h373.2q10.8 0 19-8.1t8.2-19-8.2-18.4-19-7.7z m0-53.8q33.3 0 56.9 23.6t23.5 56.8-23.5 56.9-56.9 23.5h-373.2q-33.3 0-56.9-23.5t-23.5-56.9 23.5-56.8 56.9-23.6h373.2z" /></svg>