<svg height="512" width="373.2" xmlns="http://www.w3.org/2000/svg"><path d="m186.9 362.5q-44.1 0-75.8-31.2t-31.2-75.8v-160.3q0-44 31.2-75.7t75.8-31.3 75.2 31.3 31.3 75.7v160.3q0 44-31.3 75.8t-75.2 31.2z m0-320q-22.5 0-37.9 15.9t-15.9 37.3v160.3q0 22 15.9 37.4t37.9 15.8q22 0 37.4-15.8t15.8-37.4v-160.3q0-22-15.8-37.3t-37.4-15.9z m186.3 213q0 69.6-45.5 122.4t-114.2 61.9v28.7h79.9q10.7 0 18.9 8.2t8.2 18.9-8.2 19-18.9 8.2h-213q-10.8 0-19-8.2t-8.2-19 8.2-18.9 19-8.2h79.9v-28.7q-68.7-9.7-114.2-61.9t-45.6-122.4v-53.3q0-10.7 8.2-18.9t18.9-8.2 18.5 8.2 7.7 18.9v53.3q0 55.3 39.4 94.2t94.2 38.9 94.2-38.9 38.9-94.2v-53.3q0-10.7 8.2-18.9t18.9-8.2 18.5 8.2 7.7 18.9v53.3z" /></svg>