<svg height="512" width="347.1" xmlns="http://www.w3.org/2000/svg"><path d="m266.8 15.9q33.2 0 56.8 23.5t23.5 56.9v320q0 33.2-23.5 56.8t-56.8 23.5h-186.9q-33.3 0-56.9-23.5t-23.5-56.8v-320q0-33.3 23.5-56.9t56.9-23.5h186.9z m26.1 399.8v-320q0-10.7-7.7-18.9t-18.4-8.2h-186.9q-10.8 0-19 8.2t-8.2 18.9v320q0 10.8 8.2 19t19 8.2h186.9q10.7 0 18.4-8.2t7.7-19z m-53.3-320q10.8 0 19 8.2t8.2 19v240.1q0 10.8-8.2 18.4t-19 7.7h-40.4q0 10.8-7.7 19t-18.4 8.2-19-8.2-8.2-19h-39.9q-10.8 0-19-7.7t-8.2-18.4v-240.1q0-10.8 8.2-19t19-8.2h133.1z m0 266.8v-240.1h-133.1v240.1h133.1z" /></svg>