<svg height="512" width="609.8" xmlns="http://www.w3.org/2000/svg"><path d="m593.9 218.1q15.9 15.4 15.9 37.4t-15.9 37.9l-251.4 250.9q-15.8 15.8-37.3 15.8-22.1 0-37.9-15.8l-251.4-250.9q-15.9-15.9-15.9-37.9t15.9-37.4l251.4-250.9q15.8-15.8 37.9-15.8 20.9 0 37.3 15.8z m-155.6 144.9q10.2 0 18.4-8.2l99.3-98.8-99.3-98.8q-8.2-8.2-18.4-8.2-10.8 0-19.5 8.2-7.7 7.7-7.7 18.4t7.7 18.4l34.8 34.9h-122.3v-122.4l34.8 34.8q7.7 7.7 19.4 7.7 10.8 0 18.5-7.7t7.6-18.9-7.6-19l-98.8-98.8-99.4 98.8q-7.7 7.7-7.7 19t7.7 18.9 19.5 7.7q10.7 0 18.4-7.7l34.8-34.8v122.4h-122.3l34.8-34.9q7.7-7.6 7.7-18.4t-7.7-18.4q-8.2-8.2-19.5-8.2-10.2 0-18.4 8.2l-99.3 98.8 99.3 98.8q8.2 8.2 18.4 8.2 10.8 0 19.5-8.2 7.7-7.7 7.7-18.4t-7.7-18.4l-34.8-34.9h122.3v122.4l-34.8-34.8q-7.7-7.7-18.4-7.7-11.8 0-19.5 7.7t-7.7 18.9 7.7 19l99.4 98.8 98.8-98.8q7.6-7.7 7.6-19t-7.6-18.9-18.5-7.7q-11.7 0-19.4 7.7l-34.8 34.8v-122.4h122.3l-34.8 34.9q-7.7 7.6-7.7 18.4t7.7 18.4q8.2 8.2 19.5 8.2z m-46.1-53.8h-33.8v33.8q12.8-7.1 27.1-7.1 0-14.4 7.2-27.2z m-174.6 0q7.7 14.4 7.7 27.2 13.3 0 26.1 7.2v-33.8h-33.8z m0-106.4h33.8v-33.8q-12.8 7.1-26.1 7.1 0 12.8-7.7 27.2z m174.6 0q-7.2-12.8-7.2-27.2-14.3 0-27.1-7.2v33.8h33.8z" /></svg>