<svg height="512" width="586.8" xmlns="http://www.w3.org/2000/svg"><path d="m533 42.5q22.5 0 37.9 15.9t15.9 37.3v320q0 22.1-15.9 37.4t-37.9 15.9h-480.3q-22.5 0-37.9-15.9t-15.3-37.4v-320q0-22 15.3-37.3t37.9-15.9h480.3z m-480.3 53.2v320h214.1v-320h-214.1z m480.3 320v-320h-240.1v320h240.1z m-26.1-120.3v80.9q0 5.1-4.1 9.2t-9.2 4.1h-27.2q-5.1 0-9.2-4.1t-4.1-9.2v-80.9q0-5.1 4.1-9.2t9.2-4.1h27.2q5.1 0 9.2 4.1t4.1 9.2z m-79.9-160.2v133.6q0 5.1-4.1 9.2t-9.2 4.1h-79.9q-5.1 0-9.2-4.1t-4.1-9.2v-133.6q0-5.2 4.1-9.2t9.2-4.1h79.9q5.1 0 9.2 4.1t4.1 9.2z m39.9 67q-5.1 0-9.2-4.1t-4.1-9.2 4.1-9.2 9.2-4.1h27.2q5.1 0 9.2 4.1t4.1 9.2-4.1 9.2-9.2 4.1h-27.2z m0 53.3q-5.1 0-9.2-4.1t-4.1-9.2 4.1-9.2 9.2-4.1h27.2q5.1 0 9.2 4.1t4.1 9.2-4.1 9.2-9.2 4.1h-27.2z m-133.1 79.9q-5.1 0-9.2-4.1t-4.1-9.3 4.1-9.2 9.2-4.1h79.9q5.1 0 9.2 4.1t4.1 9.2-4.1 9.3-9.2 4.1h-79.9z m79.9 27.1q5.1 0 9.2 4.1t4.1 9.2-4.1 9.2-9.2 4.1h-79.9q-5.1 0-9.2-4.1t-4.1-9.2 4.1-9.2 9.2-4.1h79.9z m53.2-214q-5.1 0-9.2-4.1t-4.1-9.2 4.1-9.2 9.2-4.1h27.2q5.1 0 9.2 4.1t4.1 9.2-4.1 9.2-9.2 4.1h-27.2z m-226.8-13.3v80.9q0 5.1-4.1 9.2t-9.2 4.1h-133.1q-5.1 0-9.2-4.1t-4.1-9.2v-80.9q0-5.2 4.1-9.2t9.2-4.1h133.1q5.1 0 9.2 4.1t4.1 9.2z m-13.3 173.5q5.1 0 9.2 4.1t4.1 9.2-4.1 9.3-9.2 4.1h-133.1q-5.1 0-9.2-4.1t-4.1-9.3 4.1-9.2 9.2-4.1h133.1z m0-53.2q5.1 0 9.2 4.1t4.1 9.2-4.1 9.2-9.2 4.1h-133.1q-5.1 0-9.2-4.1t-4.1-9.2 4.1-9.2 9.2-4.1h133.1z m0 107q5.1 0 9.2 4.1t4.1 9.2-4.1 9.2-9.2 4.1h-133.1q-5.1 0-9.2-4.1t-4.1-9.2 4.1-9.2 9.2-4.1h133.1z" /></svg>