<svg height="512" width="347.1" xmlns="http://www.w3.org/2000/svg"><path d="m79.9 456.2q-33.3 0-56.9-23.6t-23.5-56.8v-240.1q0-33.3 23.5-56.9t56.9-23.5 56.8 23.5 23.6 56.9v240.1q0 33.3-23.6 56.8t-56.8 23.6z m0-346.1q-10.8 0-19 7.7t-8.2 18.4v240.1q0 10.8 8.2 19t19 8.2 18.9-8.2 8.2-19v-240.1q0-10.8-8.2-18.4t-18.9-7.7z m186.9 346.1q-33.3 0-56.9-23.6t-23.5-56.8v-240.1q0-33.3 23.5-56.9t56.9-23.5 56.8 23.5 23.5 56.9v240.1q0 33.3-23.5 56.8t-56.8 23.6z m0-346.1q-10.8 0-19 7.7t-8.2 18.4v240.1q0 10.8 8.2 19t19 8.2 18.4-8.2 7.7-19v-240.1q0-10.8-7.7-18.4t-18.4-7.7z" /></svg>