<svg height="512" width="491.5" xmlns="http://www.w3.org/2000/svg"><path d="m480.3 125.4q11.7 11.8 11.7 28.2t-11.7 28.2l-291.9 291.8q-10.7 10.8-30.2 19.5t-37.4 8.7h-120.3v-119.8q0-18 8.7-37.9t19.5-30.8l291.8-291.8q11.8-11.8 28.2-11.8t28.1 11.8z m-406.6 218.2l33.3 32.7 220.7-221.7-32.8-32.7z m46.6 104.9q7.2 0 16.9-4.6-5.1-5.1-13.3-13.3t-25.6-25.6-28.7-28.7l-11.7-11.8q-4.7 10.8-4.7 16.9v40l27.2 27.1h40.4z m37.9-20.5l221.7-221.7-32.8-32.7-221.7 220.6z m240.1-240.1l34.9-34.8-84.5-84.5-34.8 33.8z" /></svg>