<svg height="512" width="454.7" xmlns="http://www.w3.org/2000/svg"><path d="m289.8 151l-11.8-11.7q-11.8-11.8-11.8-28.2t11.8-28.2l42.5-43q11.8-11.7 28.2-11.7t28.1 11.7l12.3 12.3z m-179.2 156.2l11.8 11.8-98.8 99.3-12.3-11.8q-11.8-11.7-11.8-28.6t11.8-28.2l42.5-42.5q11.7-11.8 28.6-11.8t28.7 11.8z m314.4-219.1q5.1 5.1 11.7 14.3t13.3 36.4 3.1 57.8-30.7 78.9-77.3 98.8q-109.6 109.5-204.3 109.5-51.7 0-81.4-29.7l-9.7-9.2 99.3-99.3 17.4 17.4q9.2 9.2 18.4 0l149-149q4.1-4.1 4.1-9.2 0-5.6-4.1-9.7l-17.4-17.4 98.8-99.4z" /></svg>