<svg height="512" width="534.5" xmlns="http://www.w3.org/2000/svg"><path d="m493.6 59.9q15.8 15.9 27.1 37.9t13.8 55.8-6.1 70.1-37.9 84-76.3 94.7q-120.8 120.9-232.4 120.9-68.6 0-110.1-41.5l-47.6-47.6q-23.6-23.6-23.6-56.9t23.6-56.8l42.5-42.5q23.5-23.5 56.3-23.5t56.3 23.5l37.4 36.4 111.6-110.6-37.4-37.4q-23.5-23.6-23.5-56.8t23.5-56.9l42.5-42.5q23.1-23 56.8-23 33.3 0 56.4 23z m-165.9 32.3q-7.7 7.6-7.7 18.9t7.7 18.9l28.7 28.7 79.8-79.9-28.6-28.6q-7.7-7.7-18.5-7.7-11.8 0-19.4 7.7z m-266.8 304.6l29.7 28.7 79.9-79.9-29.7-28.7q-7.7-7.7-18.4-7.7t-18.5 7.7l-43 42.5q-7.7 7.7-7.7 19t7.7 18.9z m314.9-32.3q41.5-41.4 66.6-81.4t32.7-68.1 5.7-53.7-8.7-40-16.4-24l-79.9 79.9 7.7 7.6q7.7 7.7 7.7 19t-7.7 18.9l-149 149q-7.7 7.7-18.4 7.7-11.8 0-19.5-7.7l-7.7-8.2-79.8 80.9q25.6 25.6 72.1 25.6 89.1 0 194.6-105.5z" /></svg>