<svg height="512" width="533.0" xmlns="http://www.w3.org/2000/svg"><path d="m173.6 149q-15.9 0-28.2 11.8t-12.3 28.6q0 15.9 11.8 27.7t28.7 11.8q15.8 0 27.6-11.8t11.8-28.2-11.8-28.6-27.6-11.8z m0-26.1q27.6 0 47.1 19.4t19.4 47.7-19.4 47.6-47.1 19.4-47.1-19.4-19.5-47.6 19.5-47.7 47.1-19.4z m79.8 213q-25 0-48.1-13.3t-45.6-13.4q-20.4 0-43 53.8h303.7q-9.8-43.5-23.6-74.7t-23.6-32.3q-17.4 0-49.1 35.8-12.8 14.4-21 21.5t-22 14.9-27.7 7.7z m119.8-107q23.6 0 43.6 39.9t28.1 80.4l8.2 39.9h-373.2q1.5-4.6 3-11.8t9.8-25 15.8-32.3 22.6-25.6 28.6-11.8q28.2 0 51.8 13.3t41.4 13.3q12.8 0 27.7-12.2t27.1-27.7 29.7-27.6 35.3-12.3z m160.3-133.2v320q0 22.1-15.9 37.4t-37.3 15.9h-427.1q-22.5 0-37.8-15.9t-15.4-37.4v-320q0-22 15.4-37.3t37.8-15.9h427.1q22 0 37.3 15.9t15.9 37.3z m-53.2 320v-320h-427.1v320h427.1z" /></svg>