<svg height="512" width="453.6" xmlns="http://www.w3.org/2000/svg"><path d="m438.3 151.6q15.3 15.3 15.3 37.3t-15.3 37.9q-8.2 8.2-18.5 12.3-54.2 26.1-73.7 64-26.1 52.7-26.1 126 0 23-14.8 37.8t-37.9 14.9q-24.6 0-38.4-15.4l-86.1-86.5-142.8 101.9 101.9-142.9-86.5-86q-10.3-9.7-13.9-25.1t2.1-32.7q14.3-33.3 49.1-33.3 74.8 0 126-25.6l5.6-3.1q35.3-19.4 60.4-72.2 4.1-10.2 10.8-17.4 15.3-15.3 37.9-14.8t37.4 15.8z m-140.3 128q27.6-55.3 100.3-89.6l-104.9-108.1q-35.4 74.8-90.1 102.4l-6.7 3.1q-61.4 28.7-143.9 28.7l213 213q0-86.1 32.3-150.1z" /></svg>