<svg height="512" width="480.3" xmlns="http://www.w3.org/2000/svg"><path d="m240.1 496.1q-99.3 0-169.4-70.6t-70.7-169.5 70.7-169.5 169.4-70.6 169.5 70.6 70.7 169.5-70.7 169.5-169.5 70.6z m0-427q-77.3 0-132.1 54.8t-54.8 132.1 54.8 132.1 132.1 54.8 132.1-54.8 54.8-132.1-54.8-132.1-132.1-54.8z m9.2 79.9q38.4 0 63 23.5t24.6 55.9q0 40.9-21 68t-54.3 27.2q-10.7 0-20.4-5.1t-13.4-12.3q-0.5-0.5-1 1.5t-1 6.2-2.1 9.7-3.5 13.8-5.7 15.9-9.2 17.4-12.3 18.4q-1.5 1.6-2 1t-1-1.5q-5.7-24.6 0.5-53.2l17.4-74.8q-4.6-9.7-4.6-22.5 0-15.4 8.2-25.6t18.9-10.3q18.4 0 18.4 21 0 7.7-5.6 26.1t-6.7 23.1q-2.5 10.7 4.1 18.4t17.4 7.7q19.5 0 31.8-21.5t12.3-52.2q0-23.1-15.4-37.9t-42.5-14.9q-30.7 0-49.6 19.5t-19 47.1q0 15.9 9.7 27.1 2.1 3.1 2.1 9.2t-3.1 10.8-6.6 3.1q-28.7-11.8-28.7-53.3 0-32.7 26.6-59.4t72.7-27.1z" /></svg>