<svg height="512" width="480.3" xmlns="http://www.w3.org/2000/svg"><path d="m240.1 496.1q-33.3 0-56.8-23.5t-23.6-56.9l1.6-81.4-80.9 1.6q-33.3 0-56.8-23.6t-23.6-56.8 23.6-56.8 56.8-23.6l81.4-1.5-1.5-78.4q0-33.2 23.5-56.8t56.8-23.6 56.9 23.6 23.5 56.8l1.6 78.9 79.3 1.5q32.8 0 55.8 23.6t23.6 56.8-23.6 56.8-56.8 23.6l-78.9-1.6-1.5 82q0 32.7-23.5 55.8t-56.9 23.5z m-27.1-213v133.7q0 10.7 8.2 18.4t18.9 7.7 19-8.2 8.2-19v-133.1h133.6q10.7 0 18.4-8.2t7.7-18.9-8.2-19-18.9-8.1h-133.1v-133.2q0-11.7-8.2-19.4t-19-7.7-18.9 8.2-8.2 18.9v133.2h-133.1q-11.8 0-19.5 8.1t-7.7 19 8.2 18.9 19 8.2h133.1z" /></svg>