<svg height="512" width="453.1" xmlns="http://www.w3.org/2000/svg"><path d="m373.2 82.4q33.3 0 56.9 23.6t23.5 56.8v266.8q0 33.2-23.5 56.8t-56.9 23.6h-293.3q-33.3 0-56.9-23.6t-23.5-56.8v-266.8q0-33.3 23.5-56.8t56.9-23.6v-53.2q0-10.8 8.2-19t18.9-8.2h240.1q10.8 0 18.5 8.2t7.6 19v53.2z m-240.1-26.1v133.1h186.9v-133.1h-186.9z m-53.2 79.9q-10.8 0-19 7.7t-8.2 18.4v67.1q0 15.8 11.8 27.6t28.7 11.8h266.2q16.9 0 28.7-11.8t11.8-27.6v-67.1q0-10.7-8.2-18.4t-19-7.7v79.9q0 10.7-7.6 18.4t-18.5 7.7h-240.1q-10.8 0-18.9-7.7t-8.2-18.4v-79.9z m293.3 320q10.8 0 19-8.2t8.2-18.9v-147.5q-18.4 14.3-40.5 14.3h-266.2q-22 0-40.5-14.3v147.5q0 10.7 8.2 18.9t19 8.2h293.4z m-92.6-320q12.8 0 12.8 12.8 0 13.3-12.8 13.3h-107q-5.7 0-9.8-4.1t-4.1-9.7q0-12.8 13.4-12.8h107z m39.9 240.1q5.6 0 9.7 4.1t4.1 9.7q0 12.8-13.3 12.8h-186.9q-12.8 0-12.8-12.8 0-13.3 12.8-13.3h186.9z m-39.9-293.9q12.8 0 12.8 13.3t-12.8 13.4h-107q-5.7 0-9.8-4.1t-4.1-9.8 4.1-9.7 9.8-4.1h107z" /></svg>