<svg height="512" width="453.1" xmlns="http://www.w3.org/2000/svg"><path d="m0 349.2q0-41.5 34.8-60.4-34.8-18-34.8-59.4v-46.6q0-38.4 27.6-66.1t66.1-27.6h20q3-39.9 35.3-66.6t77.8-27.1 77.8 27.1 35.4 66.6h19.9q38.4 0 66.1 27.6t27.6 66.1v46.6q0 41.4-34.8 60.4 34.8 17.9 34.8 59.4v73.7q0 38.4-27.6 66.1t-66.1 27.6h-73.2q-41.5 0-60.4-34.8-17.9 34.8-60.4 34.8h-73.2q-38.4 0-66.1-27.6t-27.6-66.1v-73.7z m399.9 73.7v-73.7q0-12.8-9.8-12.8-6.6 0-15.3 6.6t-22 6.7q-19.5 0-32.8-17.4t-13.8-42.5 13.8-42.5 32.8-17.4q14.3 0 26.1 10.2 4.6 3.1 10.2 3.1 10.3 0 10.3-13.3v-46.6q0-16.9-11.8-28.7t-28.7-11.8h-73.2q-8.2 0-11.8-4.6t1.6-15.8q10.2-12.3 10.2-26.1 0-19.5-17.4-32.8t-42.5-13.3-42.5 13.3-17.4 32.8q0 10.7 7.2 22.5 9.2 13.3 5.6 18.9t-12.8 5.7h-73.2q-16.9 0-28.7 11.7t-11.8 28.7v46.6q0 13.3 10.3 13.3 4.6 0 14.8-7.2 9.2-6.6 22-6.6 19.5 0 32.8 17.4t13.8 42.5-13.8 42.5-32.8 17.4q-14.3 0-26.1-10.2-5.1-3.1-10.2-3.1-10.3 0-10.3 13.3v73.7q0 15.9 11.8 27.7t28.7 11.7h73.2q9.7 0 12.3-5.6t-5.6-18.9q-7.2-10.3-7.2-22.6 0-19.4 17.4-32.7t42.5-13.3 42.5 13.3 17.4 32.7q0 14.4-10.2 26.2-5.2 10.7-1.6 15.8t11.8 4.6h73.2q16.9 0 28.7-11.7t11.8-27.7z m-347.2-155.1v42.5q3.1-1.6 10.3-1.6 16.9 0 28.1 10.3 4.1 4.1 8.2 4.1 7.7 0 14.4-9.8t6.6-24-6.6-23.6-14.4-9.7q-1.5 0-9.2 4.1-14.8 9.7-27.6 9.7-4.1 0-10.3-1.5z m337.4 41.4q3.1 0 9.8 1.6v-42.5q-3.1 1.5-10.3 1.5-15.8 0-27.6-10.2-4.1-4.1-9.2-4.1-7.7 0-13.9 9.7t-6.1 23.6 6.1 24 13.9 9.8q2 0 9.7-4.1 14.8-9.8 27.6-9.8z m-185.8 153.1h43q-6.7-21 8.2-37.9 4.1-4 4.1-9.2 0-7.6-9.7-13.8t-23.6-6.1-23.5 6.1-9.8 13.8q0 2.1 4.1 9.8 12.8 18.4 7.7 37.3z" /></svg>