<svg height="512" width="533.0" xmlns="http://www.w3.org/2000/svg"><path d="m347.1 469.5q-10.7 0-18.9-8.2t-8.2-18.9v-160.3q0-10.7 8.2-18.9t18.9-8.2 18.5 8.2 7.6 18.9v160.3q0 10.7-7.6 18.9t-18.5 8.2z m-160.2 0q-10.8 0-19-8.2t-8.2-18.9v-160.3q0-10.7 8.2-18.9t19-8.2 18.4 8.2 7.7 18.9v160.3q0 10.7-7.7 18.9t-18.4 8.2z m79.9 53.3q-10.8 0-19-8.2t-8.2-19v-160.2q0-10.8 8.2-18.5t19-7.7 18.4 7.7 7.7 18.5v160.2q0 10.8-7.7 19t-18.4 8.2z m-160.3-160.3q-44 0-75.8-31.2t-31.2-75.8q0-37.4 22.5-65.5t57.9-37.4v-3.1q0-66 47.1-113.1t113.1-47.2q51.7 0 92.7 29.7t57.9 77.4q58.3-4.7 100.3 35.3t42.5 97.8q0 45-27.1 80.4t-70.2 47.6q-10.7 3-21-2.6t-12.3-15.9q-3-10.7 2.6-20.4t15.9-12.3q26.1-7.2 42.5-28.7t16.4-48.1q0-33.3-23.6-56.9t-56.8-23.5q-11.8 0-22 3.1l-28.7 8.2-4.6-29.7q-7.2-38.4-36.4-63.5t-68.6-25.1q-44 0-75.8 31.2t-31.2 75.8q0 7.2 2.6 21l6.6 32.2h-37.9q-20.4 0-35.8 15.9t-15.4 37.4q0 22.5 15.9 37.9t37.9 15.8q10.7 0 18.4 7.7t7.7 18.5-7.7 18.9-18.4 8.2z" /></svg>