<svg height="512" width="426.5" xmlns="http://www.w3.org/2000/svg"><path d="m56.3 282.6h130.6v133.1q0 11.8-6.7 19.5t-17.4 7.7-18.9-8.2-8.2-19v-45.5l-91.2 91.1q-7.6 7.7-18.4 7.7-11.8 0-19.4-7.7t-7.7-18.9 7.7-19l87.5-87.5h-38.9q-10.8 0-18.4-8.2t-7.7-19 7.7-18.4 18.4-7.7z m23.6-53.7q-10.8 0-19-7.7t-8.2-18.4v-107.1h107q10.8 0 19 8.2t8.2 19-8.2 18.4-19 7.7h-53.2v53.8q0 10.7-8.2 18.4t-18.9 7.7z m266.7 53.7q10.8 0 18.5 7.7t7.6 18.4v107h-106.5q-10.7 0-18.9-8.1t-8.2-19 8.2-18.4 18.9-7.7h53.3v-53.8q0-10.7 8.2-18.4t18.9-7.7z m34.8-232.4q7.7-7.7 18.5-7.7t18.4 7.7 7.7 18.9-7.7 19l-87.5 87.5h42.4q10.8 0 19 8.2t8.2 19-8.2 18.4-19 7.7h-133.1v-133.2q0-10.7 8.2-18.9t19-8.2 18.4 8.2 7.7 18.9v42.5z" /></svg>