<svg height="512" width="506.9" xmlns="http://www.w3.org/2000/svg"><path d="m313.9 2.6h193.5v186.8q0 25.6-14.9 46.1t-38.9 28.7v191.5h-186.3q-8.2 23.5-31.3 38.9t-49.1 14.8h-186.9v-186.8q0-25.6 14.8-46.1t39-28.7q0-0.5-0.6-1.5t-0.5-1.6v-188.9h185.9q8.2-23.5 28.7-38.4t46-14.8z m86.5 399.8v-135.1q0-10.8-8.2-19t-19-8.2-18.4 8.2-7.7 19v81.9h-79.8q-10.8 0-19 7.7t-8.2 18.4 8.2 18.9 19 8.2h133.1z m-293.4-293.3v135.1q0 10.8 7.7 18.5t18.4 7.6 19-7.6 8.2-18.5v-81.9h81.9q10.7 0 18.4-8.2t7.7-18.9-7.7-18.5-18.4-7.6h-135.2z m346.1 79.8v-133.6h-133.1q-10.8 0-18.9 8.2t-8.2 18.9 8.2 19 18.9 8.2h42.5l-87.6 87.5q-7.6 7.7-7.6 19t7.6 18.9 18.5 7.7q11.8 0 19.4-7.7l87.6-87.5v42.5q0 10.7 8.2 18.4t18.9 7.7 18.5-7.7 7.6-18.4z m-266.2 266.3q10.7 0 18.4-7.7t7.7-18.4-7.7-19-18.4-8.2h-42.5l87.5-87.5q7.7-7.7 7.7-19t-7.7-18.9-19.4-7.7q-10.8 0-18.5 7.7l-87.5 87.5v-42.5q0-10.7-8.2-18.9t-18.9-8.2-19 8.2-8.2 18.9v133.2h133.7z m26.1-213q22 0 37.9 15.8t15.9 37.4q0 14.4-8.2 27.7 3-0.5 9.7-0.5h51.7v-55.3q0-0.5 0.5-2.6t0.5-3.1q-12.3 7.7-27.6 7.7-22 0-37.4-15.9t-15.9-37.8q0-14.4 7.7-27.2-0.5 0-2.6 0.5t-3 0.5h-55.3v55.3q0 0.5-0.5 2.6t-0.5 3.1q12.2-7.7 27.1-7.7z" /></svg>