<svg height="512" width="480.3" xmlns="http://www.w3.org/2000/svg"><path d="m324.1 451.1q42.5 0 72.7-31.8t30.2-74.7q0-23.1-10.7-48.2 4.1-19.9 4.1-38.9 0-76.3-51.8-130-51.2-53.3-125.4-53.3-15.9 0-30.7 3.1-25.6-16.9-55.8-16.9-43 0-73.2 31.2t-30.3 74.8q0 30.2 14.9 54.3-4.1 19.4-4.1 36.3 0 75.8 52.7 130.1 51.7 53.7 126 53.7 9.2 0 32.8-3 22 12.8 48.6 12.8z m-186.9-141.3q0-10.3 7.2-17.4t18.4-7.2q18.4 0 26.1 22.5 2.6 2.6 10.8 18.4 11.8 15.9 40.4 15.9 20 0 34.8-8.2t14.9-24.6q0-7.1-2.1-12.2t-9.2-8.7-9.7-5.2-13.3-4.1-12.3-3q-10.2-3.1-11.8-3.1-27.1-5.6-47.6-14.9-17.4-7.1-29.7-22t-12.3-36.8q0-35.4 28.2-52.8t70.6-17.4q45.1 0 71.7 21 22.5 21 22.5 40.5 0 10.2-7.6 18.4t-18 8.2q-7.1 0-12.2-3.1t-7.2-6.1-6.7-10.8q-11.7-27.6-45.5-27.6-16.9 0-29.7 6.6t-12.8 18.5q0 22.5 53.7 31.2 5.2 0.5 38.9 10.2 38.4 13.3 51.2 36.4 6.7 13.3 6.7 32.8 0 38.4-29.2 58.3t-74.7 20q-66.6 0-93.7-41-11.8-17.9-11.8-33.3z m19.5-301.6q34.8 0 64.5 14.3 14.3-1.5 22-1.5 96.3 0 163.8 69.6 67.1 70.7 67.1 166.9 0 10.3-2.5 33.3 9.2 27.2 9.2 53.8 0 65.5-45.6 112.1-46.1 47.6-110.6 47.6-31.2 0-57.8-10.7-9.8 1.5-23.6 1.5-96.3 0-164.4-69.6t-68-166.9q0-13.4 2-28.2-12.3-28.2-12.3-63 0-65.5 45.1-111.6 46-47.6 111.6-47.6z" /></svg>