<svg height="512" width="560.6" xmlns="http://www.w3.org/2000/svg"><path d="m80.4 389.6q-10.8 0-19-8.2t-8.2-18.9v-170.5l-14.8 7.7q-10.2 5.1-21 1.5t-14.8-13.8q-5.2-10.2-1.6-21t13.8-14.8l53.3-26.2q14.3-7.1 26.6 1.6t12.3 22v213q0 10.7-8.2 18.9t-18.9 8.2z m240.1 0h-133.1q-16.9 0-24.6-16.4t5.1-29.1l107-107q10.3-10.3 10.3-25.1 0-15.4-10.3-25.6t-25-10.3-25.1 10.3q-10.8 9.7-10.8 25.6 0 10.7-7.7 18.4t-18.4 7.7-18.9-7.7-8.2-18.4q0-37.4 26.1-63.5 25.6-25.6 63-25.6t62.9 25.6q26.1 26.1 26.1 63.5 0 36.3-26.1 62.9l-61.4 61.5h69.1q10.8 0 19 7.7t8.1 18.4-8.1 18.9-19 8.2z m212-150q28.1 26.1 28.1 63.5 0 35.8-25 60.9t-61 25.1-61.4-25.1-25.6-60.9q0-10.7 8.2-18.9t18.9-8.2 19 8.2 8.2 18.9q0 14.3 9.7 23.6t23.5 9.7 23.6-9.7 9.7-23.6-9.7-24.1-23.6-9.7q-10.7 0-18.9-7.7t-8.2-18.4 8.2-18.9 18.9-8.2q8.2 0 14.4-5.7t5.6-14.3-5.6-14.3-14.4-5.7q-12.8 0-17.9 10.8-5.1 9.7-15.9 12.8t-19.9-2.1-13.3-15.8 1.5-20q21-39.9 65.5-39.9 30.2 0 51.7 22t21.6 51.7q0 23.5-14.9 43.5z" /></svg>