<svg height="512" width="641.5" xmlns="http://www.w3.org/2000/svg"><path d="m150.5 282.6l37.4-73.7 36.4 73.7h-73.8z m197.1 139.8q-23 20.5-53.7 20.5-23.1 0-42-11.8t-29.2-32.3l-5.1-9.2h-60.9l-4.6 9.2q-10.3 20.5-29.7 32.3t-42.5 11.8q-28.2 0-48.2-15.4t-27.6-38.9q-10.8-31.2 4.6-61.4l107-213q10.3-20 29.7-31.3t42.5-11.7 42.5 11.7 29.7 31.3l48.1 96.7q13.3-7.6 27.2-7.6h7.1q-20.5-22.6-20.5-53.3 0-33.3 23.6-56.8t56.8-23.6h160.3q23 0 42.5 11.8t29.7 32.3q22 45-7.7 83.9l-64 85q33.3 0 56.8 23.6t23.6 56.8-23.6 56.8-56.8 23.6h-160.3q-30.7 0-53.2-20.5z m-53.7-32.8q15.3 0 23-12.8t1.6-25.6l-107-214q-7.2-13.3-23.6-13.3t-23.5 13.3l-107.1 214q-6.6 12.8 1.1 25.6t22.5 12.8q16.9 0 23.5-14.8l20-38.4h127l19.4 38.4q7.2 14.8 23.6 14.8z m40.4-107h27.2q10.7 0 18.4-7.7t7.7-18.4-7.7-18.9-18.4-8.2h-27.2q-10.7 0-18.9 8.2t-8.2 18.9 8.2 18.4 18.9 7.7z m226.9 107q10.7 0 18.9-8.2t8.2-18.9-8.2-18.4-18.9-7.7h-107.1l128-171q10.3-14.4 2.1-28.7t-23.6-14.3h-160.2q-10.8 0-19 8.2t-8.2 18.9 8.2 18.9 19 8.2h107l-128 170.5q-10.2 14.9-2.1 28.7t23.6 14.3h160.3z" /></svg>