<svg height="512" width="499.7" xmlns="http://www.w3.org/2000/svg"><path d="m379.4 495.6q-9.7 0-20-5.6l-109.5-62-110.1 62q-22.6 12.3-43-2.1-21-14.8-15.9-40.4l25.6-124.4q-5.1-4.6-20-17.9t-23-20.5l-50.7-46.1q-19.5-17.9-10.8-42.5t33.8-27.7l125-13.3 52.7-115.2q10.8-23.5 36.4-23.5 24.5 0 36.3 23.5l51.7 115.2 125.5 14.4q24.5 2 32.7 26.6t-10.7 42.5l-93.7 85 25.6 123.4q3.1 17.9-8.2 32.7t-30.7 14.9z m-217.6-175.6q-0.5 2-4.1 18.4t-8.7 43-9.7 47.7l97.2-55.3q13.4-7.2 26.2 0l97.2 55.3-22.5-109.6q-3.1-14.9 8.2-25.1l82.4-75.8-111.6-12.3q-15.3-2-21-15.3l-46.1-101.9-46 101.9q-6.7 13.3-22.1 15.3l-110.5 12.3 82.4 75.8q10.7 9.7 7.7 25.6z" /></svg>