<svg height="512" width="501.8" xmlns="http://www.w3.org/2000/svg"><path d="m277.5 43l-26.1 78.3-27.1-78.3q-4.1-10.7 1.5-21.5t15.9-14.3q15.3-5.2 28.6 6.1t7.2 29.7z m-240.1 186.4l78.3 27.1-78.3 27.1q-10.8 4.1-21.5-1.5t-14.4-16.4q-5.1-15.3 6.2-28.6t29.7-7.2z m186.9 240.1l27.1-78.3 26.1 78.3q4.1 10.8-1.5 21.5t-15.9 14.3q-15.4 5.2-28.7-6.1t-7.1-29.7z m240.1-186.4l-78.4-27.1 78.4-27.1q10.7-4.1 21.5 1.5t14.3 16.4q5.1 15.3-6.1 28.7t-29.7 7.1z m-345.6-196.6l36.3 74.3-74.2-36.4q-10.8-5.1-14.3-15.9t1.5-22q8.2-15.8 25.6-15.3t25.1 15.3z m-37.9 301.6l74.2-36.4-36.3 74.3q-5.1 10.7-15.9 14.3t-22-1.5q-15.9-8.2-15.4-25.6t15.4-25.1z m302.1 37.9l-36.4-74.3 74.3 36.4q10.7 5.1 14.3 15.9t-1.5 22q-8.2 15.9-25.6 15.3t-25.1-15.3z m37.9-301.6l-74.3 36.4 36.4-74.3q5.1-10.7 15.8-14.3t22.1 1.5q15.8 8.2 15.3 25.6t-15.3 25.1z m-169.5 252.4q-49.2 0-85-35.3t-35.3-85 35.3-85 85-35.3 84.5 35.3 35.3 85-35.3 85-84.5 35.3z m0-186.8q-27.7 0-47.6 19.4t-20 47.1 20 47.1 47.6 19.5 47.1-19.5 19.5-47.1-19.5-47.1-47.1-19.4z" /></svg>