<svg height="512" width="560.1" xmlns="http://www.w3.org/2000/svg"><path d="m186.9 29.7q-55.8 0-94.7 38.9t-39 94.2 39 94.2l81.4 79.4 146.4 146.4 186.9-186.9q-188.9-188.9-225.8-227.3-38.9-38.9-94.2-38.9z m0-53.8q77.3 0 132.6 55.3 55.8 57.9 225.3 227.4 15.3 15.8 15.3 37.8t-15.3 37.9l-186.9 186.9q-15.4 15.4-37.9 15.4t-37.9-15.4l-138.2-138.2q-4.6-3.1-9.8-7.7l-79.8-79.9q-54.3-54.2-54.3-132.1t54.3-132.1q55.3-55.3 132.6-55.3z m0 146.5q-16.9 0-28.7 11.7t-11.8 28.7 11.8 28.2 28.7 11.8 28.1-11.8 11.8-28.2-11.8-28.7-28.1-11.7z m0-26.1q27.6 0 47.1 19.4t19.4 47.1-19.4 47.1-47.1 19.5-47.1-19.5-19.5-47.1 19.5-47.1 47.1-19.4z" /></svg>