<svg height="512" width="453.1" xmlns="http://www.w3.org/2000/svg"><path d="m226.8 29.2q93.7 0 160.3 66.5t66.5 160.3-66.5 160.3-160.3 66.5-160.2-66.5-66.6-160.3 66.6-160.3 160.2-66.5z m0 399.3q71.7 0 122.4-50.6t50.7-122.4-50.7-122.4-122.4-50.7-122.4 50.7-50.6 122.4 50.6 122.4 122.4 50.6z m93.7-199.6q-10.7 0-18.9 8.2t-8.2 18.9 8.2 18.4 18.9 7.7h23.6q-7.7 33.8-32.3 58.4t-57.8 32.2v-23q0-10.8-8.2-18.9t-19-8.2-18.9 8.2-8.2 18.9v23q-33.3-7.6-57.9-32.2t-32.2-58.4h23q10.8 0 19-7.7t8.1-18.4-8.1-18.9-19-8.2h-23q7.6-33.8 32.2-58.4t57.9-32.3v23.6q0 10.7 8.2 18.9t18.9 8.2 19-8.2 8.2-18.9v-23.6q33.2 7.7 57.8 32.3t32.3 57.9h-23.6z m-15.9 77.3q-16.9-5.1-27.1-19.5t-10.2-31.2 10.2-31.2 27.1-19.5q-10.7-15.9-27.1-27.1-5.1 16.9-19.5 27.1t-31.2 10.2-31.2-10.2-19.5-27.1q-15.8 10.7-27.1 27.1 16.9 5.1 27.1 19.5t10.8 31.2-10.8 31.2-27.1 19.5q9.7 15.3 27.1 26.1 5.1-16.9 19.5-27.1t31.2-10.3 31.2 10.3 19.5 27.1q17.4-10.8 27.1-26.1z" /></svg>