<svg height="512" width="266.8" xmlns="http://www.w3.org/2000/svg"><path d="m146.4 337.9q17.4 4.6 28.7 18.5t11.8 32.7q0 22-15.9 37.9t-37.9 15.9-37.4-15.9-15.8-37.9q0-18.4 11.7-32.7t28.7-18.5v-148.5q0-5.1 4.1-9.2t9.2-4.1 9.2 4.1 4.1 9.2v148.5z m79.9-43q40.5 40.5 40.5 94.2 0 55.3-39.5 94.2t-94.2 39.5-94.2-39.5-38.9-94.2q0-54.3 39.9-94.2v-212.5q0-38.4 27.7-66t66-27.7 66.1 27.7 27.6 66v212.5z m-93.7 174.1q33.3 0 56.8-23.6t23.6-56.8q0-45-39.9-68.6v-238.1q0-15.9-11.8-27.6t-28.7-11.8-28.2 11.8-11.7 27.6v238.1q-40.5 23.6-40.5 68.6 0 33.3 23.6 56.8t56.8 23.6z" /></svg>