<svg height="512" width="493.6" xmlns="http://www.w3.org/2000/svg"><path d="m440.3 389.1q22 0 37.4 15.9t15.9 37.9q0 22-15.9 37.4t-37.4 15.8h-186.9q-22.5 0-37.8-15.8t-15.9-37.4 15.9-37.9 37.8-15.9h186.9z m0-186.3q22 0 37.4 15.8t15.9 37.4-15.9 37.4-37.4 15.8h-186.9q-22.5 0-37.8-15.8t-15.9-37.4 15.9-37.4 37.8-15.8h186.9z m0-186.9q22 0 37.4 15.8t15.9 37.4q0 22.5-15.9 37.9t-37.4 15.9h-186.9q-22 0-37.8-15.9t-15.9-37.9 15.9-37.4 37.8-15.8h186.9z m-440.3 427q0-66.6 66.6-66.6t66.5 66.6-66.5 66.5-66.6-66.5z m0-186.9q0-66.6 66.6-66.6t66.5 66.6-66.5 66.6-66.6-66.6z m0-186.9q0-66.5 66.6-66.5t66.5 66.5-66.5 66.6-66.6-66.6z" /></svg>