<svg height="512" width="533.0" xmlns="http://www.w3.org/2000/svg"><path d="m186.9-11.3q22 0 37.4 15.9t15.8 37.9v133.1q0 22.5-15.8 37.9t-37.4 15.4h-133.7q-22.5 0-37.8-15.4t-15.4-37.9v-133.1q0-22.5 15.9-37.9t37.3-15.9h133.7z m0 186.9v-133.1h-133.7v133.1h133.7z m293.4-186.9q22 0 37.3 15.9t15.9 37.9v133.1q0 22.5-15.9 37.9t-37.3 15.4h-133.2q-22.5 0-37.9-15.9t-15.8-37.4v-133.1q0-22.5 15.8-37.9t37.9-15.9h133.2z m0 186.9v-133.1h-133.2v133.1h133.2z m-293.4 107q22 0 37.4 15.4t15.8 37.9v133.1q0 22.5-15.8 37.9t-37.4 15.9h-133.7q-22 0-37.3-15.9t-15.9-37.9v-133.1q0-22.6 15.4-37.9t37.8-15.4h133.7z m0 186.4v-133.1h-133.7v133.1h133.7z m293.4-186.4q22 0 37.3 15.4t15.9 37.9v133.1q0 22.5-15.9 37.9t-37.3 15.9h-133.2q-22 0-37.9-15.9t-15.8-37.9v-133.1q0-22 15.8-37.4t37.9-15.9h133.2z m0 186.4v-133.1h-133.2v133.1h133.2z" /></svg>