<svg height="512" width="533.0" xmlns="http://www.w3.org/2000/svg"><path d="m453.1 415.7h-186.3q-10.8 0-19 8.2t-8.2 19 8.2 18.4 19 7.7h186.3q10.8 0 19-7.7t8.2-18.4-8.2-19-19-8.2z m0-53.2q33.3 0 56.9 23.5t23.5 56.9-23.5 56.8-56.9 23.6h-186.3q-33.3 0-56.9-23.6t-23.5-56.8 23.5-56.9 56.9-23.5h186.3z m0-133.6h-186.3q-10.8 0-19 8.2t-8.2 18.9 8.2 18.9 19 8.2h186.3q10.8 0 19-8.2t8.2-18.9-8.2-18.9-19-8.2z m0-53.3q33.3 0 56.9 23.6t23.5 56.8-23.5 56.8-56.9 23.6h-186.3q-33.3 0-56.9-23.6t-23.5-56.8 23.5-56.8 56.9-23.6h186.3z m0-133.1h-186.3q-10.8 0-19 7.7t-8.2 18.4 8.2 19 19 8.1h186.3q10.8 0 19-8.1t8.2-19-8.2-18.4-19-7.7z m0-53.8q33.3 0 56.9 23.6t23.5 56.8-23.5 56.9-56.9 23.5h-186.3q-33.3 0-56.9-23.5t-23.5-56.9 23.5-56.8 56.9-23.6h186.3z m-346.1 373.8q22.5 0 37.9 15.9t15.4 37.3v53.3q0 22.5-15.9 37.9t-37.4 15.9h-53.8q-22 0-37.3-15.9t-15.9-37.9v-53.3q0-22 15.4-37.3t37.8-15.9h53.8z m0 106.5v-53.3h-53.8v53.3h53.8z m0-293.4q22.5 0 37.9 15.9t15.4 37.4v53.7q0 22-15.4 37.4t-37.9 15.9h-53.8q-22.5 0-37.8-15.9t-15.4-37.4v-53.7q0-22.1 15.4-37.4t37.8-15.9h53.8z m0 107v-53.7h-53.8v53.7h53.8z m0-293.9q22 0 37.4 15.9t15.9 37.9v53.2q0 22.1-15.4 37.4t-37.9 15.9h-53.8q-22.5 0-37.8-15.9t-15.4-37.4v-53.2q0-22.5 15.9-37.9t37.3-15.9h53.8z m0 107v-53.2h-53.8v53.2h53.8z" /></svg>