<svg height="512" width="506.9" xmlns="http://www.w3.org/2000/svg"><path d="m0 442.9q0-66.6 66.6-66.6t66.5 66.6-66.5 66.5-66.6-66.5z m0-186.9q0-66.6 66.6-66.6t66.5 66.6-66.5 66.6-66.6-66.6z m0-186.9q0-66.5 66.6-66.5t66.5 66.5-66.5 66.6-66.6-66.6z m186.9 373.8q0-66.6 66.5-66.6t66.6 66.6-66.6 66.5-66.5-66.5z m0-186.9q0-66.6 66.5-66.6t66.6 66.6-66.6 66.6-66.5-66.6z m0-186.9q0-66.5 66.5-66.5t66.6 66.5-66.6 66.6-66.5-66.6z m186.3 373.8q0-66.6 67.1-66.6 66.6 0 66.6 66.6t-66.6 66.5q-67.1 0-67.1-66.5z m0-186.9q0-66.6 67.1-66.6 66.6 0 66.6 66.6t-66.6 66.6q-67.1 0-67.1-66.6z m0-186.9q0-66.5 67.1-66.5 66.6 0 66.6 66.5t-66.6 66.6q-67.1 0-67.1-66.6z" /></svg>