<svg height="512" width="453.1" xmlns="http://www.w3.org/2000/svg"><path d="m373.2 42q33.3 0 56.9 23.5t23.5 56.9v160.2q0 33.3-23.5 56.9t-56.9 23.5q-38.9 0-63.4-32.2-22.1 22-32.3 43t-10.7 55.8q0 27.6-19.5 47.1t-47.1 19.4-47.6-19.4-20-47.1q0-48.7 8.2-96.8-89.1-9.7-102.9-14.8-19.5-7.2-30.2-26.7t-7.7-39.9l17.9-159.2q3.1-19.5 16.4-35.4t29.7-22.5q2.6-0.5 13.3-4.6t14.9-5.6 14.8-4.1 23-3.1 29.2-0.5q42.5 0 89.1 13.3t67.1 28.7q1.5 0.5 2.6 2.5t2 2.6q23.6-20.5 52.7-20.5z m-160.2 386.5q0-27.6 5.6-50.1t16.9-40 18.5-26.1 20.9-22q18.5-18.4 18.5-35.3v-133.1q0-5.7-3.1-12.8t-6.7-9.8q-12.2-9.2-50.6-19.9t-73.3-10.8q-13.3 0-23.5 0.5t-17.9 2.1-11.8 3-11.8 4.6-11.8 4.7q-3 1.5-7.1 6.6t-4.6 9.7l-17.4 159.3q-1.6 6.6 2.5 8.2 7.7 2 55.3 7.6t60.9 7.2l35.4-5.1-7.7 37.9q-12.8 63-12.8 114.2 0 5.1 4.1 9.2t9.2 4.1 9.2-4.1 4.1-9.2z m186.9-146.4v-160.2q0-10.8-8.2-18.5t-19-7.7-18.4 7.7-7.7 18.5v160.2q0 10.8 7.7 19t18.4 8.1 19-8.1 8.2-19z" /></svg>