<svg height="512" width="453.1" xmlns="http://www.w3.org/2000/svg"><path d="m415.2 194.6q19.5 7.1 29.7 26.1t7.2 39.9l-17.9 159.2q-3.1 20-16.4 35.9t-29.7 22.5q-2.6 0.5-13.3 4.6t-14.9 5.6-14.8 4.1-23.1 3.1-29.1 0.5q-42.5 0-89.1-13.3t-66.6-28.7q-0.5-0.5-1.5-1.5t-2.1-2-1.5-2.1q-23.6 20.5-52.7 20.5-33.3 0-56.9-23.6t-23.5-56.8v-160.2q0-33.3 23.5-56.9t56.9-23.5q38.9 0 63.4 32.2 22.6-22.5 32.8-43t10.8-55.3q0-27.6 19.4-47.6t47.1-20 47.1 20 19.5 47.6q0 48.1-8.2 96.3 87 9.2 103.9 15.3z m-335.3 221.7q10.7 0 18.9-7.7t8.2-18.5v-160.2q0-10.8-8.2-19t-18.9-8.1-19 8.1-8.2 19v160.2q0 10.8 8.2 18.5t19 7.7z m302.1-4.1l17.9-159.3q1.5-6.6-3.1-8.2-7.7-2-55.3-7.6t-60.9-7.2l-35.4 5.1 8.2-37.9q12.8-59.4 12.8-114.2 0-5.1-4.1-9.2t-9.2-4.1-9.2 4.1-4.1 9.2q0 27.7-5.6 50.2t-16.9 40-18.4 26.1-21 22q-18.5 18.4-18.5 35.3v133.1q0 15.4 9.8 22.6 12.2 9.2 50.6 19.9t73.3 10.8q13.3 0 23.5-0.5t17.9-2.1 11.8-3.1 11.8-4.6 11.8-4.6q3-1.5 7.1-6.6t4.6-9.8z" /></svg>