<svg height="512" width="546.8" xmlns="http://www.w3.org/2000/svg"><path d="m523.8 150.5q23 23.1 22.5 56.9t-23.5 56.8l-243.8 240.1q-24.5 23.1-56.3 23.1-33.3 0-56.8-23.6l-143.4-142.8q-23-23.1-22.5-56.9t23.6-56.8l243.7-240.1q22.5-22.6 56.8-22t56.8 22.5z m-37.9 74.8q7.7-7.7 7.7-18.5t-7.7-18.4l-33.8-33.8q-15.9 14.9-37.4 14.4t-36.3-15.9-15.9-36.4 14.3-37.3l-34.8-33.8q-7.7-7.7-19.4-7.7-10.8 0-18.5 7.7l-243.7 240.1q-7.7 7.7-8.2 18.4t7.2 18.5l33.8 33.8q15.9-14.9 37.4-14.4t36.3 15.9q14.9 15.3 15.4 36.3t-13.3 37.4l33.8 33.8q7.6 7.7 19.4 8.2t19.5-7.2z m-225.8 164.3l-124.4-124.4 150.5-144.9 124.4 124.4z m-86.5-123.4l87 86.6 112.1-108.1-86.5-86.5z" /></svg>