<svg height="512" width="480.8" xmlns="http://www.w3.org/2000/svg"><path d="m474.6 386q10.8 14.4 2.6 28.7t-23.6 14.9h-186.3v79.8q0 10.8-8.2 18.5t-19 7.7-18.9-7.7-8.2-18.5v-79.8h-186.4q-15.3 0-23.5-14.9t2.5-28.7l72.2-90.1h-25.1q-14.8 0-23-13.3t1.5-28.1q186.9-266.8 187.4-267.8 7.7-10.3 21-10.8t22 11.3l186.9 266.8q9.2 14.8 1 28.1t-22.5 13.3h-25.1z m-207.3-10.2h131l-72.2-89.6q-10.7-14.3-2.5-28.7t23.5-14.8h28.7l-135.7-193.5-135.7 193.5h28.7q15.4 0 23.6 14.8t-2.6 28.7l-72.2 89.6h131.1v-133.1q0-10.8 8.2-19t18.9-8.1 19 8.1 8.2 19v133.1z" /></svg>