<svg height="512" width="480.3" xmlns="http://www.w3.org/2000/svg"><path d="m303.6 351.7v-33.2q-16.9 10.7-31.2 10.7-6.7 0-13.8-4.1t-8.2-9.2q-2.6-5.1-2.6-23v-52.8h48.6v-32.7h-48.6v-52.8h-28.7q-4.1 20-7.1 27.7t-13.9 16.4q-10.7 8.1-20.4 12.2v28.7h22.5v72.2q0 33.8 32.2 46.1 14.4 4.1 24.6 4.1 25.6 0 47.6-11.8z m-63.5 143.9q-99.3 0-169.4-70.6t-70.7-169.5 70.7-169.5 169.4-70.6 169.5 70.6 70.7 169.5-70.7 169.5-169.5 70.6z m0-427q-77.3 0-132.1 54.8t-54.8 132.1 54.8 132.1 132.1 54.8 132.1-54.8 54.8-132.1-54.8-132.1-132.1-54.8z" /></svg>