<svg height="512" width="480.3" xmlns="http://www.w3.org/2000/svg"><path d="m243.2 226.3q0-17.9 12.8-30.7t31.2-12.8 31.3 13.3q14.3-3.1 27.6-10.2-5.1 15.3-18.4 23.5 15.3-2 25.1-7.2-8.2 12.3-22.6 23.1v5.6q0 68.1-56.8 105-28.7 19.4-67.1 19.4-36.3 0-67-19.9 2 0.5 10.7 0.5 30.2 0 54.3-18.5-14.9-0.5-26.1-9.2t-14.9-21.5q2.6 1.6 7.7 1.6 7.7 0 11.8-1.6-14.9-3.1-24.6-14.8t-9.7-28.7q7.1 4.1 19.9 5.1-19.9-14.3-19.9-36.3 0-10.3 6.6-22 35.4 43.5 90.1 45.5-1.5-5.1-1.5-9.7z m-3.1 269.3q-99.8 0-170.5-70.6-69.6-69.7-69.6-169.5 0-100.4 69.6-170.5 69.2-69.6 170.5-69.6 99.9 0 169.5 69.6 70.7 70.6 70.7 170.5 0 99.3-70.7 169.5t-169.5 70.6z m0-427q-78.3 0-132.6 54.3t-54.3 132.6q0 76.8 54.3 132.1t132.6 55.3q76.8 0 132.1-55.3t55.3-132.1q0-78.3-55.3-132.6t-132.1-54.3z" /></svg>