<svg height="512" width="480.3" xmlns="http://www.w3.org/2000/svg"><path d="m479.2 401.9l0.5 133.7q0 10.7-8.1 18.4t-19 7.7h-426.5q-10.7 0-18.9-7.7t-8.2-18.4v-133.7q0-3.1 1.5-8.2l53.3-160.2q4.1-10.8 15.3-15.9-17.9-23.6-15.9-53.2t23.1-50.7l163.3-163.4 163.3 163.4q21 21 23.1 50.7t-15.9 53.2q10.8 5.1 14.9 15.9l53.7 160.2q0.5 2.6 0.5 8.2z m-365-250.9q-7.7 7.7-7.7 19t7.7 18.9 18.9 7.7 19-7.7l60.9-60.9v154.1q0 10.8 8.2 18.4t18.9 7.7 19-7.7 8.2-18.4v-154.1l60.9 60.9q7.7 7.7 18.9 7.7t19-7.7 7.7-18.9-7.7-19l-125.5-125.4z m-15.4 117.8l-44 133.1h370.2l-44.1-133.1h-60.9v13.3q0 33.3-23.6 56.8t-56.8 23.6-56.8-23.6-23.6-56.8v-13.3h-60.9z m-46.1 240.1h373.8v-79.8h-373.8v79.8z" /></svg>