<svg height="512" width="540.2" xmlns="http://www.w3.org/2000/svg"><path d="m406.5 176.1q55.3 0 94.2 38.9t39.5 94.2-39.5 94.3-94.2 39.4h-293.3q-45.1 0-78.9-31.8t-34.3-75.2q0-33.8 24.6-63t49.1-40.5v-4q0-66.1 50.2-113.2t116.7-47.1q52.8 0 96.8 30.2t60.4 77.3q2.1 0 4.6-0.5t4.6-0.5z m0 213q33.3 0 56.9-23.5t23.5-56.9-23-56.8-56.3-23.5q-9.3 0-22.1 4l-28.6 7.7-5.2-28.6q-7.1-38.4-36.3-63.5t-68.6-25.1q-44 0-75.3 31.2t-31.2 75.3q0 11.8 2 22l6.7 32.2-37.9-0.5q-20.5 0-35.3 15.9t-14.9 37.9q0 22.5 15.4 37.9t37.9 15.3h146.4v-101.3l-56.8 57.8q-4.1 4.1-9.8 4.1-8.1 0-12.2-8.2t2.5-14.8l79.9-79.9q3.1-3.1 9.2-3.6t9.7 3.6l79.9 79.9q6.7 6.6 2.6 14.8t-12.3 8.2q-5.7 0-9.7-4.1l-56.9-57.8v101.3h119.8z" /></svg>