<svg height="512" width="613.4" xmlns="http://www.w3.org/2000/svg"><path d="m306.7 295.4q-55.3 0-94.2-38.9t-38.9-94.2 38.9-94.2 94.2-38.9 94.2 38.9 39.4 94.2-39.4 94.2-94.2 38.9z m0-213q-33.3 0-56.8 23.6t-23.6 56.8 23.6 56.8 56.8 23.6 56.8-23.6 23.6-56.8-23.6-56.8-56.8-23.6z m213 240.2q-28.2 0-47.6-19.5t-19.5-47.1 19.5-47.1 47.6-19.5 47.6 19.5 19.5 47.1-19.5 47.1-47.6 19.5z m0-107q-15.9 0-27.7 11.7t-11.7 28.7q0 15.9 11.7 27.6t28.2 11.8 28.7-11.8 11.7-27.6-11.7-28.2-28.7-12.2z m0 122.8q40.9 0 67.1 17.4t26.1 40.5q0 11.8-27.2 20.5t-66.5 9.2q-22 0-42.5-3.1 0 1.5 0.5 3.6t0.5 3.6q0 21-49.2 37.4t-122.3 15.8q-76.8 0-123.9-15.8t-47.1-37.4q0-1.6 0.5-4.1t0.5-4.1q-25.6 4.1-43 4.1-41.5 0-67.6-9.2t-26.1-20.5q0-23.1 25.6-40.5t68.1-17.4q50.7 0 77.3 25.6 50.7-41.4 135.7-41.4t135.7 41.4q27.1-25.6 77.3-25.6z m-426.5 60.4q30.7 0 52.7-5.6 2.6-4.1 6.7-9.2-19.5-19.5-58.9-19.5-50.2 0-64.5 25.1 22.5 9.2 64.5 9.2z m213 30.8q67 0 110.6-15.4-12.8-15.4-42-27.1t-68.6-11.8q-41.5 0-70.7 11.8t-40.9 27.1q43 15.4 111.6 15.4z m213-30.8q43 0 64.5-9.7-6.7-9.7-23.6-16.9t-41.4-7.1q-39 0-58.9 18.4 2.5 3.1 6.6 9.7 20.5 5.6 52.8 5.6z m-426.5-76.2q-28.2 0-47.6-19.5t-19.5-47.1 19.5-47.1 47.1-19.5 47.1 19.5 19.4 47.1-19.4 47.1-47.7 19.5z m0-107q-16.9 0-28.7 12.2t-11.8 28.2 11.8 27.6 28.7 11.8 28.1-11.8 11.8-27.6q0-16.9-11.8-28.7t-27.6-11.7z" /></svg>