<svg height="512" width="613.4" xmlns="http://www.w3.org/2000/svg"><path d="m440.3 162.3q0 55.3-39.4 94.2t-94.2 38.9-94.2-38.9-38.9-94.2 38.9-94.2 94.2-38.9 94.2 38.9 39.4 94.2z m146.5 93.7q0 27.6-19.5 47.1t-47.6 19.5-47.6-19.5-19.5-47.1 19.5-47.1 47.6-19.5 47.6 19.5 19.5 47.1z m-67.1 82.4q40.9 0 67.1 17.4t26.1 40.5q0 11.8-27.2 20.5t-66.5 9.2q-22 0-42.5-3.1 0 1.5 0.5 3.6t0.5 3.6q0 21-49.2 37.4t-122.3 15.8q-76.8 0-123.9-15.8t-47.1-37.4q0-1.6 0.5-4.1t0.5-4.1q-25.6 4.1-43 4.1-41.5 0-67.6-9.2t-26.1-20.5q0-23.1 25.6-40.5t68.1-17.4q50.7 0 77.3 25.6 50.7-41.4 135.7-41.4t135.7 41.4q27.1-25.6 77.3-25.6z m-360-82.4q0 27.6-19.4 47.1t-47.6 19.5-47.6-19.5-19.5-47.1 19.5-47.1 47.6-19.5q27.6 0 47.1 19.5t19.4 47.1z" /></svg>