<svg height="512" width="506.9" xmlns="http://www.w3.org/2000/svg"><path d="m293.4 162.3q0 55.3-38.9 94.2t-94.2 38.9-94.3-38.9-38.9-94.2 38.9-94.2 94.3-38.9 94.2 38.9 38.9 94.2z m-133.1 320q-71.7 0-115.8-15.9t-44-37.3q0-42.5 44-74.8t115.8-32.3q69.6 0 114.6 32.3t45.1 74.8q0 20.9-45.6 37.3t-114.1 15.9z m320-240.1q10.7 0 18.9 8.2t8.2 18.9-8.2 18.4-18.9 7.7h-53.3v53.8q0 10.7-8.2 18.4t-18.9 7.7-19-7.7-8.2-18.4v-53.8h-53.2q-10.8 0-19-7.7t-8.1-18.4 8.1-18.9 19-8.2h53.2v-53.3q0-10.7 8.2-18.9t19-8.2 18.9 8.2 8.2 18.9v53.3h53.3z" /></svg>