<svg height="512" width="533.0" xmlns="http://www.w3.org/2000/svg"><path d="m107 202.2q0-26.1 26.1-26.1 27.2 0 27.2 26.1 0 27.2-27.2 27.2-26.1 0-26.1-27.2z m266.2-160.2q30.8 0 53.3 20.5t26.1 49.1l45.6-14.8q12.8-4.6 24 4.1t11.3 21v160.2q0 12.8-10.7 21.5t-24.6 4.1l-45.6-15.3q-4.1 28.6-26.1 49.1t-53.3 20.5h-53.2v27.6q0 32.3-23.6 55.8t-56.3 23.6-54.8-22-25-54.8v-30.2h-79.9q-32.8 0-56.3-23.6t-23.6-56.3v-160.2q0-32.8 23.6-56.4t56.3-23.5h293.4z m-133.1 373.7q10.3 0 18.5-8.1t8.2-18.5v-53.7h-53.8v53.7q1.5 10.8 8.7 18.5t18.4 7.6z m133.1-107q11.8 0 19.5-7.6t7.7-19.5v-160.3q0-10.7-8.2-18.4t-19-7.7h-293.3q-10.8 0-19 7.7t-8.2 18.4v160.3q0 10.8 8.2 18.9t19 8.2h293.3z m107.1-64v-86l-53.3 15.9v53.8q3.1 0 53.3 15.8z" /></svg>