<svg height="512" width="399.9" xmlns="http://www.w3.org/2000/svg"><path d="m392.2 61.4q7.7 7.7 7.7 18.5t-7.7 18.4l-72.2 72.2v229.4q0 27.6-14.8 43t-34.9 15.3q-17.9 0-35.8-12.2l-71.2-47.7q-18.4-12.8-50.7-20.4l-67 67q-7.7 7.7-18.5 7.7-11.7 0-19.4-7.7t-7.7-18.9 7.7-19l40.9-40.9q-22-9.2-35.3-29.2t-13.3-44.5v-53.3q0-33.3 23.6-56.8t56.8-23.6q18.4 0 43.5-7.1t39.9-17.5l71.2-47.6q17.9-12.3 35.8-12.3 30.3 0 43.1 27.2l41.4-41q7.7-7.7 19-7.7t18.9 7.7z m-128.5 70.7l-50.7 33.3v56.3l53.8-53.8v-34.8q0-0.5-0.6-2v-1.6q-1.5 1.6-2.5 2.1z m-210.5 108v53.3q0 10.7 8.2 18.9t19 8.2q13.3 0 31.2 3.1l75.8-75.8v-64.5q-22.5 12.8-52.7 21.5t-54.3 8.7q-10.8 0-19 8.2t-8.2 18.9z m88.6 91.2q25.6 7.6 45.6 19.9v-65.5z m125 72.2v-1.6q0.5-1.5 0.5-2v-194.6l-53.8 53.3v109.5l50.7 33.3q1.5 0.5 2.6 2.1z" /></svg>