<svg height="512" width="422.4" xmlns="http://www.w3.org/2000/svg"><path d="m270.3 64.5q20 0 34.9 14.9t14.8 42.5v266.7q0 27.7-14.8 43t-34.9 15.4q-17.9 0-35.8-12.3l-71.2-47.6q-14.8-10.3-39.9-17.9t-43-7.7q-33.3 0-56.8-23.6t-23.6-56.8v-53.3q0-33.2 23.6-56.8t56.8-23.5q18.4 0 43.5-7.2t39.9-17.4l71.2-47.6q17.9-12.3 35.8-12.3z m-189.9 244.7q23.5 0 54.3 9.3t52.7 22v-168q-22.5 12.8-52.7 21.5t-54.3 8.8q-10.8 0-19 8.1t-8.2 19v53.2q0 10.8 8.2 19t19 8.2z m186.9 79.9v-266.7q0-0.5-0.5-2.1v-1.5q-1.6 1.5-2.6 2l-50.7 33.3v202.8l50.7 33.2q1.5 0.6 2.6 2.1v-1.5q0.5-1.6 0.5-2.1z m87.5-205.3q7.7-7.7 19-7.7t18.9 7.7q30.2 30.2 30.2 72.2 0 41.5-30.2 71.7-8.2 8.2-19.5 8.2-10.2 0-18.4-8.2-7.7-7.7-7.7-18.5t7.7-18.4q14.4-14.3 14.4-34.8t-14.4-34.8q-7.7-7.7-7.7-19t7.7-18.9z" /></svg>