<svg height="512" width="560.1" xmlns="http://www.w3.org/2000/svg"><path d="m318 453.6q-15.4 15.9-37.4 15.9t-37.9-15.9-15.9-37.3 15.9-37.9q15.3-15.9 37.4-15.9t37.9 15.9q15.8 15.3 15.8 37.9t-15.8 37.8z m188.4-210.4q-21 0-37.4-15.9-78.3-77.3-188.9-77.3t-189 77.3q-15.8 15.9-37.9 15.9t-37.8-15.9q-15.9-15.8-15.9-37.3t15.9-37.4q71.6-71.7 167.9-96.8t192.5 0 167.9 96.8q15.9 15.8 15.9 37.4t-15.9 37.3-37.8 15.9z m-339.5 113.2q-22 0-37.9-15.9t-15.8-37.9 15.8-37.9q41-41 96.3-55.3t110.1 0 96.2 55.3q15.9 15.9 15.9 37.9t-15.9 37.9-37.9 15.9-37.9-15.9q-31.2-31.3-75.7-31.3t-75.8 31.3q-15.9 15.9-37.9 15.9z" /></svg>