<svg height="512" width="297.0" xmlns="http://www.w3.org/2000/svg"><path d="m297 187.4q0 54.3-34.9 95.7t-87.5 50.2q0 0.5 0.5 1.5t0.5 1.6v107h26.1q10.8 0 19 7.7t8.2 18.4-8.2 18.9-19 8.2h-106.5q-10.7 0-18.9-8.2t-8.2-18.9 8.2-18.4 18.9-7.7h26.1v-107q0-0.5 0.6-1.6t0.5-1.5q-52.8-9.2-87.6-50.2t-34.8-95.7q0-30.2 6.7-68.1t11.7-58.9 7.2-25.1q2.6-8.2 9.7-13.8t15.9-5.6h196.1q9.2 0 15.9 5.6t9.7 13.8q2 4.6 7.2 25.1t11.7 58.9 6.7 68.1z m-148.5 95.2q35.3 0 61.9-22.5t31.8-57.3h-186.9q5.1 34.8 31.7 57.3t62 22.5z m-94.7-107h189.4q-2.6-50.7-17.4-107h-155.1q-14.9 56.3-17.5 107z" /></svg>