<svg height="512" width="506.9" xmlns="http://www.w3.org/2000/svg"><path d="m107 376.3q0-27.1 26.1-27.1 27.2 0 27.2 27.1 0 26.1-27.2 26.1-26.1 0-26.1-26.1z m53.8-189.9q0-1.6-0.5-5.2t-0.6-5.1q0-71.7 50.7-122.3 51.2-51.2 122.9-51.2 55.8 0 102.4 33.8 7.7 7.6 7.7 18.4t-7.7 18.4q7.7-7.7 18.4-7.7t18.5 7.7q33.8 46.6 33.8 102.4 0 71.7-51.2 122.9-50.7 50.7-122.4 50.7-2 0-5.1-0.5t-5.1-0.5q-70.7 92.1-88.6 113.1-38.9 47.6-101.9 47.6-55.3 0-94.2-38.9t-38.9-94.2q0-60.4 47.6-101.9 55.3-46.6 113.1-88.6z m-107.6 189.9q0 32.8 23.6 56.3t56.3 23.6q37.4 0 60.9-28.7 26.2-30.2 61.5-77.3 33.3-44 46.1-58.9 18.4 5.1 32.2 5.1 49.2 0 84.5-35.3t35.3-85q0-14.3-5.1-33.3l-74.7 73.8-66.6-13.3-13.3-66.6 76.3-74.2q-19.5-5.7-35.9-5.7-49.1 0-85 35.4t-35.3 84.4q0 13.4 5.1 32.3-17.4 14.3-59.4 46.1-38.4 28.6-76.8 60.9-28.6 25.1-28.6 61.4z m384-260.1q-14.8-25.6-42.4-42.5l-72.2 71.2 7.1 34.8 35.4 7.7z" /></svg>