<svg height="512" width="373.2" xmlns="http://www.w3.org/2000/svg"><path d="m186.9 282.6q-10.8 0-19-8.2t-8.2-18.9v-53.3q0-10.7 8.2-18.9t19-8.2 18.4 8.2 7.7 18.9v26.2h27.1q10.8 0 19 8.1t8.2 19-8.2 18.9-19 8.2h-53.2z m133.1-157.7q53.2 54.3 53.2 130.6t-53.2 130.5v56.4q0 33.2-23.6 56.8t-56.8 23.6h-107q-33.3 0-56.8-23.6t-23.6-56.8v-56.4q-53.2-54.2-53.2-130.5t53.2-130.6v-56.3q0-33.3 23.6-56.8t56.8-23.6h107q33.3 0 56.8 23.6t23.6 56.8v56.3z m-213-56.3v48.6q38.4-22 79.9-22t79.9 22v-48.6q0-10.7-8.2-18.4t-19-7.7h-107q-10.7 0-18.4 7.7t-7.7 18.4z m160.3 373.8v-48.7q-38.4 22-79.9 22t-79.9-22v48.7q0 10.7 7.7 18.4t18.4 7.7h107q10.8 0 19-7.7t8.2-18.4z m-79.9-53.8q55.3 0 94.2-38.9t38.9-94.2-38.9-94.2-94.2-38.9-94.2 38.9-39.4 94.2 39.4 94.2 94.2 38.9z" /></svg>