<svg height="512" width="448.0" xmlns="http://www.w3.org/2000/svg"><path d="m253.4 204.8q5.7 0 9.8 4.1t4.1 9.7-4.1 9.8-9.8 4h-53.7v53.3q0 13.3-12.8 13.3-5.7 0-9.7-4.1t-4.1-9.7v-53.3h-53.8q-12.8 0-12.8-13.3t12.8-13.3h53.8v-53.2q0-5.7 4.1-9.8t9.7-4.1q12.8 0 12.8 13.4v53.2h53.7z m130.6 91.6q6.7 6.7 19.5 20t19.9 21q24.6 24.6 24.6 58.9t-24.6 59.4-58.9 24.6q-35.3 0-59.3-24.6l-60.5-60.4q-30.7 9.7-58.3 9.7-77.3 0-132.1-54.8t-54.8-132.1 54.8-132.1 132.1-54.3 132.1 54.3 54.2 132.1q0 29.7-9.2 58.4z m-330.8-78.3q0 55.3 39.5 94.2t94.2 39.4 94.2-39.4 38.9-94.2-38.9-94.2-94.2-38.9-94.2 38.9-39.5 94.2z" /></svg>