<svg height="512" width="512.0" xmlns="http://www.w3.org/2000/svg"><path d="m0 384.5q0-46.6 32.8-79.3l232.9-231q42-41.9 101.9-41.9t101.9 41.9 42 101.9-42 101.9l-176.1 175.1q-10.8 11.8-22.6 0.5t0.6-22.5l173-174.1q32.8-31.7 32.8-78.3t-32.8-79.4-79.3-32.7-78.4 32.7l-231.9 228.9q-23.1 23-23.1 55.8t23.6 56.3 56.3 23.6 55.8-23.1l234-230.9q13.8-13.8 13.8-33.8t-13.8-33.8-33.8-13.8-33.8 13.8l-175.1 176.2q-11.8 10.7-23-0.5t0-22.6l175.1-176.1q24-23 56.8-23t56.3 23.5 23.6 56.3-23.1 56.9l-233.9 229.8q-32.8 32.8-79.4 32.8t-78.8-32.2-32.3-78.9z" /></svg>