<svg height="512" width="512.0" xmlns="http://www.w3.org/2000/svg"><path d="m1 254q5.1-25.1 28.2-34.9l217.1-87q-6.2-10.2-6.2-21 0-16.9 11.8-29.2l22-22q11.8-11.8 28.7-11.8t28.7 11.8l122.8 122.9q11.8 11.8 11.8 28.7t-11.8 28.6l-22 23.1q-11.7 10.7-28.1 10.7-11.8 0-22-6.1l-86.1 214q-9.2 24.1-34.8 29.2-4.1 1-9.2 1h-2q-19 0-31.8-13.8l-203.8-201.2q-17.9-18-12.8-43z m31.8 5.6q-1.6 8.7 4.6 14.3l202.7 201.2q5.1 5.2 10.8 5.2h4.1q8.2-2.1 11.8-10.3l74.7-189.9q-30.2-31.3-63-43.6t-74.7-16.9-63-11.2l-98.8 39.9q-8.2 3.1-9.7 11.3z m95.7 12.3q0-12.8 9.7-22.6t22.6-9.7 22.5 9.7 9.7 22.6-9.7 22.5-22.5 9.7-22.6-9.7-9.7-22.5z m15.9 0q0 7.1 4.6 11.2t11.3 4.6 11.2-4.6 4.6-11.2-4.6-11.3-11.2-4.6-11.3 4.6-4.6 11.3z m22-74.3q14.8 3.1 41 7.2 30.2 3.1 47.6 6.7t44.5 16.9 50.2 35.3l21-52.2 28.1 28.1q6.2 6.2 10.8 0l23-23q6.2-5.1 0-10.8l-123.9-123.9q-5.1-5.1-10.7 0l-23.1 23.1q-5.1 6.1 0 10.7l28.2 28.2z m26.1 170q0-7.2 4.6-11.2t11.3-4.7 11.2 4.7 4.7 11.2-4.7 11.3-11.2 4.6-11.3-4.6-4.6-11.3z m31.8-72.2q0-16.9 11.2-28.6t28.7-11.3 28.7 11.3 11.2 28.6-11.2 28.7-28.7 11.3-28.7-11.3-11.2-28.7z m15.8 0q0 10.3 7.2 16.9t16.9 7.2 16.9-7.2 7.2-16.9-7.2-16.9-16.9-7.1-16.9 7.1-7.2 16.9z m192-256q0-16.9 11.3-28.6t28.7-11.3 28.6 11.3 11.3 28.6-11.3 28.7-28.6 11.3-28.7-11.3-11.3-28.7z m15.9 88.1q0-7.2 4.6-11.3t11.3-4.6 11.2 4.6 4.6 11.3-4.6 11.3-11.2 4.6-11.3-4.6-4.6-11.3z m0-88.1q0 10.3 7.2 16.9t16.9 7.2 16.9-7.2 7.1-16.9-7.1-16.9-16.9-7.1-16.9 7.1-7.2 16.9z" /></svg>