<svg height="512" width="512.0" xmlns="http://www.w3.org/2000/svg"><path d="m0 469v-377.9q0-17.9 12.3-30.7t30.7-12.3h69.1v-31.7q0-7.2 4.6-11.3t11.3-4.6 11.3 4.6 4.6 11.3v31.7h95.7v-31.7q0-7.2 4.6-11.3t11.3-4.6 11.3 4.6 4.6 11.3v31.7h95.7v-31.7q0-7.2 4.6-11.3t11.3-4.6 11.2 4.6 4.6 11.3v31.7h69.2q17.9 0 30.7 12.3t12.3 30.7v377.9q0 17.9-12.3 30.7t-30.7 12.3h-426q-17.9 0-30.7-12.3t-12.3-30.7z m31.7 0q0 5.1 3.1 8.2t8.2 3.1h426q5.1 0 8.2-3.1t3.1-8.2v-377.9q0-5.1-3.1-8.2t-8.2-3h-69.1v31.7q0 7.2-4.6 11.3t-11.3 4.6-11.3-4.6-4.6-11.3v-31.7h-95.7v31.7q0 7.2-4.6 11.3t-11.3 4.6-11.3-4.6-4.6-11.3v-31.7h-95.7v31.7q0 7.2-4.6 11.3t-11.3 4.6-11.2-4.6-4.6-11.3v-31.7h-69.2q-5.1 0-8.2 3t-3 8.2v377.9z m79.9-69.1v-48.2h64v48.2h-64z m0-79.9v-48.1h64v48.1h-64z m0-79.9v-48.1h64v48.1h-64z m112.1 159.8v-48.2h64v48.2h-64z m0-79.9v-48.1h64v48.1h-64z m0-79.9v-48.1h64v48.1h-64z m112.2 159.8v-48.2h64v48.2h-64z m0-79.9v-48.1h64v48.1h-64z m0-79.9v-48.1h64v48.1h-64z" /></svg>