<svg height="512" width="351.7" xmlns="http://www.w3.org/2000/svg"><path d="m0 256q0-62 44-109.1l22-120.8q2.1-10.7 10.8-18.4t21-7.7h128q10.7 0 20 7.7t10.7 18.4l23.1 124.9q29.1 32.8 36.8 74.3l1-0.5q1.1-0.5 2.1-0.5 12.8 0 22.5 9.7t9.7 22.5-9.7 22.5-22.5 9.8q-1 0-2.1-0.5l-1-0.6q-9.2 43.1-38.9 75.8l-23 122.9q-2.1 10.8-10.8 18.4t-20.5 7.7h-128q-11.7 0-20.4-7.7t-10.8-18.4l-23-122.9q-42-46.1-42-107z m31.7 0q0 53.2 37.4 90.6t90.6 37.4 90.7-37.4 37.3-90.6-37.3-90.6-90.7-37.4-90.6 37.4-37.4 90.6z m15.9 0q0-7.2 4.6-11.3t11.3-4.6 11.3 4.6 4.6 11.3-4.6 11.3-11.3 4.6-11.3-4.6-4.6-11.3z m28.2 67.6q0-6.7 4.6-10.8t11.2-4.6 11.3 4.6 4.6 10.8-4.6 11.2-11.3 5.2-11.2-5.2-4.6-11.2z m0-135.7q0-7.2 4.6-11.3t11.2-4.6 11.3 4.6 4.6 11.3-4.6 11.3-11.3 4.6-11.2-4.6-4.6-11.3z m4.1 205.8l15.8 86h128l15.9-86q-37.9 22-79.9 22t-79.8-22z m2-275.9q37.9-22.1 79.9-22.1t79.9 22.1l-15.9-86.1h-128z m62 233.9q0-7.1 4.6-11.2t11.2-4.6 11.3 4.6 4.6 11.2-4.6 11.3-11.3 4.6-11.2-4.6-4.6-11.3z m0-95.7q0-7.2 5.1-10.8l82.9-69.1q4.1-3 7.2 0.5t1 7.7l-38.9 48.1-30.2 35.9q-4.1 4.1-10.7 4.1t-11.3-4.6-4.6-11.3z m0-95.7q0-7.2 4.6-11.3t11.2-4.6 11.3 4.6 4.6 11.3-4.6 11.2-11.3 4.6-11.2-4.6-4.6-11.2z m68.1 163.3q0-6.7 4.6-10.8t10.7-4.6 11.3 4.6 5.1 11.3q0 6.1-5.1 10.7t-11.3 5.2-10.7-5.2-4.6-11.2z m28.1-67.6q0-7.2 4.6-11.3t11.3-4.6 11.3 4.6 4.6 11.3-4.6 11.3-11.3 4.6-11.3-4.6-4.6-11.3z" /></svg>