<svg height="512" width="512.0" xmlns="http://www.w3.org/2000/svg"><path d="m0 278v-44q0-10.8 7.7-20t18.4-10.7l49.2-10.3q3-10.2 8.2-21l-27.2-40.9q-7.1-10.3-5.6-21.5t9.7-19.5l30.2-30.2q10.3-10.2 23.1-10.2 10.2 0 17.9 6.1l40.9 27.1q10.8-5.1 21-8.1l10.3-49.2q2-10.8 10.7-18.4t20-7.7h44q10.8 0 20 7.7t10.7 18.4l10.3 49.2q10.2 3 21 8.1l40.9-27.1q8.2-6.1 18-6.1 12.8 0 23 10.2l30.2 30.2q9.2 8.2 10.2 19.5t-6.1 21.5l-27.1 40.9q5.1 10.8 8.2 21l49.1 10.3q10.8 2 18.4 10.7t7.7 20v44q0 10.8-7.7 20t-18.4 10.7l-49.1 10.3q-3.1 10.2-8.2 21l27.1 40.9q7.2 10.3 6.1 21.5t-10.2 19.5l-30.2 30.2q-10.2 10.2-23 10.2-10.3 0-18-6.1l-40.9-27.1q-10.8 5.1-21 8.1l-10.3 49.2q-2 10.8-10.7 18.4t-20 7.7h-44q-10.8 0-20-7.2t-10.7-18.9l-10.3-49.2q-10.2-3-21-8.1l-40.9 27.1q-8.2 6.1-17.9 6.1-12.8 0-23.1-10.2l-30.2-30.2q-8.2-8.2-9.7-19.5t5.6-21.5l27.2-40.9q-5.2-10.8-8.2-21l-49.2-10.3q-10.7-2-18.4-10.7t-7.7-20z m31.7 0l49.2 10.3q17.9 3 24.1 19.9 3 9.2 7.1 17.9 8.2 15.9-2 31.3l-28.2 42 31.3 31.2 41.9-28.2q8.2-5.1 16.9-5.1 8.2 0 13.9 3.1 9.2 4.1 17.9 7.2 16.9 6.1 19.9 24l10.3 49.2h44l10.3-49.2q3-17.9 19.9-24 9.2-3.1 17.9-7.2 6.2-3.1 13.9-3.1 9.2 0 16.9 5.1l41.9 28.2 31.3-31.2-28.2-42q-10.2-14.9-2-31.3 4.1-9.2 7.1-17.9 6.2-16.9 24.1-19.9l49.2-10.3v-44l-49.2-10.3q-17.9-3-24.1-19.9-3-9.2-7.1-17.9-8.2-15.9 2-31.3l28.2-42-31.3-31.2-41.9 28.2q-8.2 5.1-16.9 5.1-8.2 0-13.9-3.1-9.2-4.1-17.9-7.2-16.9-6.1-19.9-24l-10.3-49.2h-44l-10.3 49.2q-3 17.9-19.9 24-9.2 3.1-17.9 7.2-6.2 3.1-13.9 3.1-9.2 0-16.9-5.1l-41.9-28.2-31.3 31.2 28.2 42q10.2 14.9 2 31.3-4.1 9.2-7.1 17.9-6.2 16.9-24.1 19.9l-49.2 10.3v44z m112.2-22q0-46.1 32.7-78.8t78.9-32.8 78.8 32.8 32.8 78.8-32.8 78.8-78.8 32.8-78.9-32.8-32.7-78.8z m13.8 0q0 41 28.7 69.6t69.6 28.7 69.6-28.7 28.7-69.6-28.7-69.6-69.6-28.7-69.6 28.7-28.7 69.6z m33.8 0q0-27.1 18.4-45.6t45.6-18.4 45.6 18.9 18.4 45.6-18.4 45.1-45.6 18.4-45.6-18.4-18.4-45.6z m15.9 0q0 20 13.8 33.8t33.8 13.8 33.8-13.8 13.8-33.8-13.8-33.8-33.8-13.8-33.8 13.8-13.8 33.8z" /></svg>