<svg height="512" width="512.0" xmlns="http://www.w3.org/2000/svg"><path d="m0 384v-320q0-20 13.8-33.8t33.8-13.8h415.8q19.9 0 33.8 13.8t13.8 33.8v320q0 20-13.8 33.8t-33.8 13.8h-159.8v19l99.9 12.8q11.7 3 11.7 15.8 0 7.2-4.6 11.3t-11.2 4.6h-287.8q-7.2 0-11.2-4.6t-4.7-11.3q0-12.8 11.8-15.8l99.9-12.8v-19h-159.8q-20 0-33.8-13.8t-13.8-33.8z m31.7 0q0 7.2 4.7 11.3t11.2 4.6h415.8q7.1 0 11.2-4.6t4.6-11.3v-320q0-7.2-4.6-11.3t-11.2-4.6h-415.8q-7.2 0-11.2 4.6t-4.7 11.3v320z m31.8-64v-223.7q0-7.2 4.6-11.3t11.3-4.6h351.7q7.2 0 11.3 4.6t4.6 11.3v223.7q0 7.2-4.6 11.3t-11.3 4.6h-351.7q-7.2 0-11.3-4.6t-4.6-11.3z m15.9 0h351.7v-223.7h-351.7v223.7z" /></svg>