<svg height="512" width="512.0" xmlns="http://www.w3.org/2000/svg"><path d="m0 448v-320q0-20 13.8-33.8t33.8-13.8h15.9v-31.8q0-19.9 13.8-33.8t33.8-13.8h351.7q20 0 33.8 13.8t13.9 33.8v399.9q0 27.1-18.5 45.6t-45.5 18.4h-384q-27.2 0-45.6-18.4t-18.4-45.6z m31.7 0q0 12.8 9.8 22.5t22.5 9.8h384q12.8 0 22.5-9.8t9.8-22.5v-399.9q0-7.1-4.7-11.2t-11.2-4.6h-351.8q-7.1 0-11.2 4.6t-4.6 11.2v384q0 7.2-4.6 11.3t-11.3 4.6-11.3-4.6-4.6-11.3v-320h-15.8q-7.2 0-11.3 4.6t-4.6 11.3v320z m95.8-8.2q0-8.2 8.2-8.2h128q8.2 0 8.2 8.2t-8.2 8.2h-128q-8.2 0-8.2-8.2z m0-48.1q0-8.2 8.2-8.2h128q8.2 0 8.2 8.2t-8.2 8.2h-128q-8.2 0-8.2-8.2z m0-48.1q0-8.2 8.2-8.2h128q8.2 0 8.2 8.2 0 3-2.6 5.6t-5.6 2.5h-128q-8.2 0-8.2-8.1z m0-48.2q0-8.2 8.2-8.2h304.1q8.2 0 8.2 8.2t-8.2 8.2h-304.1q-8.2 0-8.2-8.2z m0-48.1q0-8.2 8.2-8.2h304.1q8.2 0 8.2 8.2t-8.2 8.2h-304.1q-8.2 0-8.2-8.2z m0-55.8v-112.1q0-7.2 4.6-11.3t11.3-4.6h112.1q7.2 0 11.3 4.6t4.6 11.3v112.1q0 7.2-4.6 11.3t-11.3 4.6h-112.1q-7.2 0-11.3-4.6t-4.6-11.3z m31.7-15.9h79.9v-79.9h-79.9v79.9z m143.9 264.2q0-8.2 8.2-8.2h128q8.2 0 8.2 8.2t-8.2 8.2h-128q-8.2 0-8.2-8.2z m0-48.1q0-8.2 8.2-8.2h128q8.2 0 8.2 8.2t-8.2 8.2h-128q-8.2 0-8.2-8.2z m0-48.1q0-8.2 8.2-8.2h128q8.2 0 8.2 8.2 0 3-2.6 5.6t-5.6 2.5h-128q-8.2 0-8.2-8.1z m0-143.9q0-8.2 8.2-8.2h128q8.2 0 8.2 8.2t-8.2 8.2h-128q-8.2 0-8.2-8.2z m0-48.1q0-8.2 8.2-8.2h128q8.2 0 8.2 8.2t-8.2 8.1h-128q-8.2 0-8.2-8.1z m0-48.2q0-8.2 8.2-8.2h128q8.2 0 8.2 8.2t-8.2 8.2h-128q-8.2 0-8.2-8.2z" /></svg>