<svg height="512" width="352.3" xmlns="http://www.w3.org/2000/svg"><path d="m0 366.1q0-38.9 9.2-85.5t16.9-79.9 7.2-87-16.9-113.7l10.2 7.2q10.3 7.1 26.1 22.5t32.8 35.3 32.8 49.7 25.1 60.4q31.7-48.1 32.7-95.2l15.9 17.9q14.8 17.9 31.2 53.8t15.9 71.1l8.2-10.2q8.2-10.8 16.4-30.7t8.7-38.4q49.1 60.9 69.1 128.5t5.1 127.5q-7.1 26.1-15.8 43t-28.7 34.3-54.3 26.1-87 8.7q-70.2 0-115.2-43.5t-45.1-102.4z m31.7 0q0 45 35.4 79.3t92.6 34.3q37.9 0 66.1-5.6t43-12.8 25.1-21.5 13.3-22.5 7.7-25.6q19.9-80.9-32.8-176.1-31.2 53.2-74.2 88 0-47.1-5.7-90.1t-12.2-57.9q-11.8 30.3-57.9 95.3 0-4.1-6.1-26.1t-22.6-62.5-38.4-70.7q4.1 64-16.9 159.3-15.8 73.2-15.8 115.2z m26.2 11.8q0-74.8 20.9-135.2l8.2-24.1 8.2 21q10.3 29.2 33.8 84 10.3-14.9 25.1-37.9l24.1-37.9v27.1q0 33.8 11.8 69.2 19.9-10.3 34.8-21t22-18.5 17.9-20.4l13.8-14.9 3.1 15.9q10.8 60.9-10.2 112.1-2.1 5.1-7.2 5.1-2.1 0-3.1-1-7.1-3.1-4.1-10.2 13.8-36.9 10.3-86-30.2 33.7-78.9 57.8l-8.2 3.1-3-8.2q-11.8-33.8-13.9-56.8-15.8 23-30.2 43l-8.2 10.7-6.1-11.8q-22-50.1-32.8-75.7-12.8 43-12.8 111.1 0 8.2-8.2 8.2t-8.2-8.2z" /></svg>