<svg height="512" width="512.0" xmlns="http://www.w3.org/2000/svg"><path d="m0 191.5q0-62.5 45.1-107.5 43-43 104.4-44.1t106.5 40q45.1-41 106.5-40t104.4 44.1q45.1 45 45.1 107.5t-45.1 107.5q-2 2.1-177.1 175.1-13.8 13.8-33.8 13.8t-33.8-13.8q-1 0-177.1-175.1-45.1-45-45.1-107.5z m31.7 0q0 49.7 35.9 84.5l177.1 175.1q10.8 11.7 22.1 0l177.1-175.1q35.8-34.8 35.8-84.5t-35.8-84.5q-33.8-33.8-81.9-34.8t-84 31.2l-22 20-22-20q-35.9-31.7-84-31.2t-81.9 34.8q-35.8 34.8-35.8 84.5z m48.2-3.6q0-28.2 19.9-48.1t48.2-20q8.2 0 8.2 8.2t-8.2 8.2q-21 0-36.4 14.8t-15.3 36.9q0 8.2-8.2 8.2t-8.2-8.2z" /></svg>