<svg height="512" width="351.7" xmlns="http://www.w3.org/2000/svg"><path d="m0 463.9v-415.8q0-19.9 13.8-33.8t33.8-13.8h256q20 0 33.8 13.8t13.8 33.8v415.8q0 19.9-13.8 33.8t-33.8 13.8h-256q-20 0-33.8-13.8t-13.8-33.8z m31.7 0q0 7.1 4.7 11.2t11.2 4.6h256q7.2 0 11.3-4.6t4.6-11.2v-31.8h-287.8v31.8z m0-48.2h287.8v-320h-287.8v320z m0-335.8h287.8v-31.8q0-7.1-4.6-11.2t-11.3-4.6h-256q-7.2 0-11.2 4.6t-4.7 11.2v31.8z m112.2-24.1q0-8.2 8.2-8.2h48.1q8.2 0 8.2 8.2t-8.2 8.2h-48.1q-8.2 0-8.2-8.2z m15.8 399.9q0-8.2 8.2-8.2h15.9q8.2 0 8.2 8.2t-8.2 8.2h-15.9q-8.2 0-8.2-8.2z" /></svg>