<svg height="512" width="512.0" xmlns="http://www.w3.org/2000/svg"><path d="m4.6 458.2q-10.7-29.1 3.1-59.9 18.9-38.9 67.1-54.7 19.9-7.2 39.9-7.2 34.8 0 60.9 18.9v-274.9q0-11.8 7.7-20.5t18.4-11.3l271.9-48.1h6.1q11.8 0 21 8.2 10.8 9.2 10.8 24.1v335.8q0 18-8.2 33.8-18.9 38.9-67.1 54.8-19.9 7.2-39.9 7.2-31.2 0-54.8-14.4t-32.8-39.4q-10.7-29.2 3.1-59.9 19-38.9 67.1-54.8 19.9-7.1 39.9-7.1 34.8 0 60.9 18.9v-194l-265.7 47.1h-6.1v256q0 17.9-8.2 33.8-19 38.9-67.1 54.7-20 7.2-39.9 7.2-31.3 0-54.8-14.3t-32.8-39.4z m29.7-10.7q7.7 21 33.3 29.7t54.8-1.6 43.5-31.7 6.6-42.5-33.2-29.7-54.3 1.5-43.5 31.8-7.2 42.5z m172.5-319l271.9-48.1v-48.1l-271.9 48.1v48.1z m131.1 270.9q8.2 21 33.8 29.7t54.3-1.6 43.5-31.7 7.2-42.5-33.8-29.7-54.3 1.5-43.5 31.8-7.2 42.5z" /></svg>