<svg height="512" width="512.0" xmlns="http://www.w3.org/2000/svg"><path d="m0 448v-384q0-20 13.8-33.8t33.8-13.8h335.9q12.8 0 23 9.2l95.8 95.7q9.2 10.3 9.2 23.1v304.1q0 20-13.8 33.8t-33.8 13.8h-415.8q-19.9 0-33.8-13.8t-13.8-33.8z m31.7 0q0 7.2 4.7 11.3t11.2 4.6h415.8q7.1 0 11.2-4.6t4.6-11.3v-287.7h-64q-19.9 0-33.8-13.9t-13.8-33.8v-64h-320q-7.2 0-11.2 4.6t-4.7 11.3v384z m31.8-39.9q0-8.2 8.2-8.2h368.1q8.2 0 8.2 8.2t-8.2 8.2h-368.1q-8.2 0-8.2-8.2z m0-48.2q0-8.2 8.2-8.2h368.1q8.2 0 8.2 8.2t-8.2 8.2h-368.1q-8.2 0-8.2-8.2z m0-48.1q0-8.2 8.2-8.2h368.1q8.2 0 8.2 8.2t-8.2 8.2h-368.1q-8.2 0-8.2-8.2z m0-48.1q0-8.2 8.2-8.2h368.1q8.2 0 8.2 8.2t-8.2 8.2h-368.1q-8.2 0-8.2-8.2z m0-55.8v-95.8q0-7.1 4.6-11.2t11.3-4.6h112.1q7.2 0 11.3 4.6t4.6 11.2v95.8q0 7.1-4.6 11.2t-11.3 4.6h-112.1q-7.2 0-11.3-4.6t-4.6-11.2z m31.7-15.9h79.9v-64h-79.9v64z m143.9 24.1q0-8.2 8.2-8.2h192q8.2 0 8.2 8.2t-8.2 8.2h-192q-8.2 0-8.2-8.2z m0-48.2q0-8.2 8.2-8.2h79.9q8.2 0 8.2 8.2t-8.2 8.2h-79.9q-8.2 0-8.2-8.2z m0-48.1q0-8.2 8.2-8.2h79.9q8.2 0 8.2 8.2t-8.2 8.2h-79.9q-8.2 0-8.2-8.2z m143.9-8.2q0 12.8 9.7 22.5t22.5 9.8h64l-95.7-95.8v64z" /></svg>