<svg height="512" width="479.7" xmlns="http://www.w3.org/2000/svg"><path d="m0 448v-384q0-27.1 18.4-45.6t45.6-18.4h351.7q27.2 0 45.6 18.4t18.4 45.6v384q0 27.1-18.4 45.6t-45.6 18.4h-351.7q-27.1 0-45.6-18.4t-18.4-45.6z m31.7 0q0 12.8 9.8 22.5t22.5 9.8h351.7q12.8 0 22.6-9.8t9.7-22.5v-384q0-12.8-9.7-22.5t-22.6-9.8h-351.7q-12.8 0-22.5 9.8t-9.8 22.5v384z m31.8-79.9v-287.7q0-7.2 4.6-11.3t11.3-4.6h320q7.1 0 11.2 4.6t4.6 11.3v287.7q0 7.2-4.6 11.3t-11.2 4.6h-320q-7.2 0-11.3-4.6t-4.6-11.3z m15.9 0h246.7l-45-51.2-9.2-10.7-129.1-145.9-64 74.2v134.1z m0-159.2l52.2-59.9q5.1-5.1 11.8-5.1t11.7 5.1l126 143.9 42-48.2q5.1-5.1 11.7-5.1t11.8 5.1l52.2 56.9v-222.2h-320v129z m176.1-49.2q0-19.9 13.8-33.7t33.8-13.9 33.8 13.9 13.8 33.7-13.8 33.8-33.8 13.9-33.8-13.9-13.8-33.8z m15.9 0q0 12.8 9.7 22.6t22.5 9.7 22.5-9.7 9.8-22.6-9.8-22.5-22.5-9.7-22.5 9.7-9.7 22.5z m21 144.9l54.7 63h52.3v-42l-64-70.1z" /></svg>