<svg height="512" width="512.0" xmlns="http://www.w3.org/2000/svg"><path d="m0 456.2q0-24.1 16.9-41l133.1-133.1q-22-42-22-90.1 0-78.8 55.8-135.7t136.2-56.3 136.2 56.3 55.8 136.2-55.8 135.7-136.2 55.8q-48.1 0-90.1-22l-133.1 133.1q-16.9 16.9-41 16.9-23 0-39.4-16.4t-16.4-39.4z m28.2-0.5q0 11.2 8.7 19.9t19.9 8.8 20.5-9.3l129-129q-23-16.9-39.9-39.9l-129 129q-9.2 9.2-9.2 20.5z m132.1-263.7q0 66 47.1 113.2t113.1 47.1 113.2-47.1 47.1-113.2-47.1-113.2-113.2-47.1-113.1 47.1-47.1 113.2z m48.1 0q0-46.1 32.8-78.8t78.8-32.8q8.2 0 8.2 8.2t-8.2 8.2q-39.9 0-68.1 28.1t-28.2 68.1q0 8.2-8.1 8.2t-8.2-8.2z" /></svg>