<svg height="512" width="513.0" xmlns="http://www.w3.org/2000/svg"><path d="m0 384v-256q0-26.1 18.4-45.1t45.6-18.9h304.1q34.8 0 53.8 30.2l79.9 128q22 33.8 0 68.1l-79.9 128q-19 30.2-53.8 30.2h-304.1q-27.1 0-45.6-18.4t-18.4-45.6z m31.7 0q0 12.8 9.8 22.5t22.5 9.8h304.1q17.9 0 27.2-14.9l79.8-128q10.8-16.9 0-33.8l-79.8-128q-9.3-14.8-27.2-14.8h-304.1q-12.8 0-22.5 9.7t-9.8 22.5v256z m287.8-128q0-20 13.8-33.8t33.8-13.8 33.8 13.8 13.8 33.8-13.8 33.8-33.8 13.8-33.8-13.8-13.8-33.8z m15.9 0q0 12.8 9.7 22.5t22.5 9.8 22.5-9.8 9.8-22.5-9.8-22.5-22.5-9.8-22.5 9.8-9.7 22.5z" /></svg>