<svg height="512" width="512.0" xmlns="http://www.w3.org/2000/svg"><path d="m0 271.9v-176.2q0-19.9 13.8-33.7t33.8-13.9h240.1q20 0 33.8 13.9t13.9 33.7v31.8h64q26.1 0 39.9 21l64 95.7q8.2 11.8 8.2 27.2v95.7q0 20-13.8 33.8t-33.8 13.8h-17.9q-6.2 21-23.1 34.3t-38.9 13.3-38.9-13.3-23.1-34.3h-83.9q-6.2 21-23.1 34.3t-38.9 13.3-38.9-13.3-23-34.3h-17.9q-20 0-33.8-13.8t-13.9-33.8v-48.1q-19.9 0-33.8-13.8t-13.8-33.8z m31.7 0q0 7.1 4.7 11.2t11.2 4.6h240.1q7.2 0 11.3-4.6t4.6-11.2v-176.2q0-7.1-4.6-11.2t-11.3-4.6h-240.1q-7.2 0-11.2 4.6t-4.7 11.2v176.2z m48.2 95.7q0 7.2 4.6 11.3t11.2 4.6h18q6.1-21 23-34.3t38.9-13.3 38.9 13.3 23.1 34.3h83.9q6.2-21 23.1-34.3t38.9-13.3 38.9 13.3 23 34.3h18q7.1 0 11.2-4.6t4.6-11.3v-95.7q0-5.1-3-9.2l-64-95.8q-4.1-7.2-12.8-7.2h-64v112.2q0 19.9-13.9 33.8t-33.8 13.8h-207.8v48.1z m64 31.8q0 12.8 9.7 22.5t22.5 9.7 22.6-9.7 9.7-22.5-9.7-22.6-22.6-9.7-22.5 9.7-9.7 22.6z m207.8 0q0 12.8 9.8 22.5t22.5 9.7 22.5-9.7 9.8-22.5-9.8-22.6-22.5-9.7-22.5 9.7-9.8 22.6z m0-112.2v-95.7q0-7.2 4.7-11.3t11.2-4.6h15.9q9.2 0 12.8 7.2l48.1 72.2q3.1 4.1 3.1 9.2v24.1q0 7.1-4.6 11.2t-11.3 4.6h-64q-7.2 0-11.2-4.6t-4.7-11.2z m15.9 0h64v-24l-48.1-72.2h-15.9v95.7z" /></svg>