<svg height="512" width="512.0" xmlns="http://www.w3.org/2000/svg"><path d="m0 384v-256q0-20 13.8-33.8t33.8-13.8h304.1q20 0 33.8 13.8t13.9 33.8v20l43-43q10.2-9.3 23-9.3h13.8q12.8 0 22.6 9.8t9.7 22.5v256q0 13.8-9.7 23t-22.6 9.3h-13.8q-12.8 0-23-9.3l-43-43v20q0 20-13.9 33.8t-33.8 13.8h-304.1q-20 0-33.8-13.8t-13.8-33.8z m31.7 0q0 7.2 4.7 11.3t11.2 4.6h304.1q7.2 0 11.3-4.6t4.6-11.3v-256q0-7.2-4.6-11.3t-11.3-4.6h-304.1q-7.2 0-11.2 4.6t-4.7 11.3v256z m351.8-79.9l15.9 15.9 64 64h15.8v-256h-15.8l-79.9 79.9v95.7z" /></svg>