<svg height="512" width="4687.596" xmlns="http://www.w3.org/2000/svg"><path d="M337.793,236.219c-142.506-15.06-246.699-60.896-246.699-115.073c0-66.374,155.732-120.168,347.861-120.168c192.109,0,347.855,53.794,347.855,120.168c0,66.375-155.746,120.197-347.855,120.197c-10.459,0-20.713-0.266-30.929-0.622V41.048L337.793,236.219L337.793,236.219z M328.775,265.755L247.14,500.607C106.301,485.193,0,439.641,0,385.92C0,321.343,143.974,268.576,328.775,265.755L328.775,265.755z M408.028,267.484c163.476,9.838,287.698,59.101,287.698,118.436c0,59.271-124.223,108.223-287.698,118.043V267.484L408.028,267.484z"/></svg>