<svg height="512" width="2460.553" xmlns="http://www.w3.org/2000/svg"><path d="M2200.305,117.184c-0.019-5.277-3.593-11.665-7.464-15.621c-22.736-23.227-45.732-46.222-69.431-68.453
	c-4.922-4.616-13.152-7.985-19.887-8.038c-71.719-0.569-143.44-0.363-215.168-0.322c-3.969,0.001-7.942,0.427-11.922,0.656
	c-0.531,2.431-1.125,3.876-1.125,5.323c-0.064,115.582-0.186,231.164,0.229,346.743c0.018,5.232,3.793,11.547,7.7,15.5
	c27.188,27.528,54.563,54.903,82.69,81.468c5.25,4.959,14.104,8.43,21.366,8.552c45.912,0.761,91.841,0.387,137.765,0.387
	c24.64,0,49.281,0,75.57-0.001C2200.629,359.661,2200.723,238.421,2200.305,117.184z M2137.702,294.305
	c-47.903-0.074-18.353-0.064-66.26-0.011c-8.121,0.013-16.484,0.115-16.183-11.169c0.308-11.382,9.102-10.432,16.914-10.43
	l64.719-0.01c7.849-0.01,16.623-0.885,16.968,10.396C2154.199,294.282,2145.885,294.318,2137.702,294.305z M2055.23,208.812
	c0.305-11.383,9.101-10.432,16.912-10.43l64.719-0.009c7.85-0.009,16.625-0.883,16.969,10.396
	c0.339,11.202-7.976,11.238-16.157,11.223c-47.905-0.076-18.353-0.065-66.261-0.01
	C2063.291,219.996,2054.926,220.097,2055.23,208.812z M2055.23,354.408c0.305-11.383,9.101-10.435,16.912-10.43l64.719-0.01
	c7.85-0.009,16.625-0.883,16.969,10.396c0.339,11.201-7.976,11.241-16.157,11.22c-47.905-0.073-18.353-0.062-66.261-0.007
	C2063.291,365.591,2054.926,365.694,2055.23,354.408z M1921.752,93.007c-0.139-12.894,6.124-18.889,18.898-18.63
	c8.26,0.168,16.521,0.032,24.783,0.03c45.244-0.543,43.017-2.32,43.156,42.48c0.118,38.295,0.139,38.814-38.393,37.99
	c-9.803-0.208-19.618-0.194-29.426,0.006c-12.731,0.26-19.133-5.584-19.014-18.516
	C1921.893,121.915,1921.91,107.459,1921.752,93.007z M1941.166,368.59c-13.57,0.031-19.468-7.029-19.376-20.232
	c0.147-22.139,0.038-44.281,0.033-66.422c0-21.625-0.112-43.25,0.038-64.875c0.113-16.131,5.292-21.529,20.842-21.739
	c14.928-0.202,29.867,0.173,44.794-0.106c14.038-0.264,20.972,6.01,20.928,20.292c-0.127,44.281-0.114,88.562,0,132.841
	c0.03,13.201-5.8,20.268-19.376,20.237C1973.089,368.553,1957.129,368.553,1941.166,368.59z M2138.021,436.842
	c-47.906-0.074-102.707-0.078-150.613-0.02c-8.121,0.01-16.486,0.115-16.184-11.172c0.307-11.382,9.103-10.432,16.913-10.432
	c24.212,0.007,48.425,0.002,72.634,0.002c23.182,0,53.257,0.035,76.438,0.005c7.848-0.012,16.623-0.884,16.968,10.396
	C2154.516,436.821,2146.203,436.855,2138.021,436.842z"/>
</svg>
