<svg height="512" width="2460.553" xmlns="http://www.w3.org/2000/svg"><path d="M2590.305,358.377v153.248h-153.246V381.032h-60.262v82.916h-82.916v-82.916h-61.113v130.593H2079.52
	V358.377h131.445v-60.261h-82.914V215.2h82.914v-61.114H2079.52V0.839h153.248v131.447h61.113V49.371h82.916v82.915h60.262V0.839
	h153.246v153.247h-130.592V215.2h82.914v82.916h-82.914v60.261H2590.305z M2460.91,486.068h103.84V382.23h-103.84V486.068z
	 M2207.211,382.23h-103.84v103.838h103.84V382.23z M2207.211,24.691h-103.84V128.53h103.84V24.691z M2293.881,215.203h-82.912
	v82.912h82.912V215.203z M2376.795,132.288h-82.912V215.2h82.912V132.288z M2376.795,298.116h-82.912v82.914h82.912V298.116z
	 M2460.91,128.53h103.84V24.691h-103.84V128.53z M2459.711,215.203h-82.914v82.912h82.914V215.203z M2485.588,49.369h56.186v56.187
	h-56.186V49.369L2485.588,49.369z M2184.236,105.556h-56.188V49.369h56.188V105.556z M2184.236,463.095h-56.188v-56.187h56.188
	V463.095z M2485.588,406.908h56.186v56.187h-56.186V406.908L2485.588,406.908z"/>
</svg>
