<svg height="512" width="1710.555" xmlns="http://www.w3.org/2000/svg"><path d="M441.058,510.593c57.329,0,104.089-46.758,104.089-104.085c0-57.332-46.76-104.088-104.089-104.088c-57.326,0-104.084,46.756-104.084,104.088C336.973,463.835,383.732,510.593,441.058,510.593z M226.189,511.396c54.041,0,98.116-44.073,98.116-98.116c0-54.036-44.076-98.109-98.116-98.109c-54.038,0-98.113,44.073-98.113,98.109C128.077,467.322,172.152,511.396,226.189,511.396z M82.447,372.336c45.201,0,82.064-36.865,82.064-82.066c0-45.204-36.865-82.068-82.064-82.068c-45.2,0-82.066,36.865-82.066,82.068C0.38,335.471,37.247,372.336,82.447,372.336z M88.139,200.563c39.09,0,70.97-31.884,70.97-70.972c0-39.093-31.88-70.973-70.97-70.973c-39.09,0-70.973,31.88-70.973,70.973C17.167,168.679,49.049,200.563,88.139,200.563z M201.669,110.487c30.52,0,55.412-24.89,55.412-55.41c0-30.519-24.892-55.411-55.412-55.411c-30.521,0-55.412,24.892-55.412,55.411C146.257,85.597,171.148,110.487,201.669,110.487z M305.582,120.107c22.833,0,41.457-18.624,41.457-41.458c0-22.83-18.624-41.453-41.457-41.453c-22.832,0-41.455,18.624-41.455,41.453C264.127,101.483,282.75,120.107,305.582,120.107z M365.055,176.601c19.476,0,35.36-15.881,35.36-35.356c0-19.48-15.885-35.362-35.36-35.362c-19.474,0-35.358,15.882-35.358,35.362C329.695,160.72,345.581,176.601,365.055,176.601z M369.391,247.589c17.087,0,31.023-13.934,31.023-31.022s-13.937-31.021-31.023-31.021c-17.087,0-31.024,13.933-31.024,31.021S352.304,247.589,369.391,247.589z M334.03,294.604c13.432,0,24.387-10.953,24.387-24.385c0-13.43-10.956-24.386-24.387-24.386c-13.431,0-24.386,10.956-24.386,24.386C309.644,283.65,320.599,294.604,334.03,294.604z M1500.038,304.158h18.603v-85.035c0.297-31.89,13.288-56.102,45.471-56.102c23.619,0,32.181,17.126,31.886,37.797v103.34h18.603v-86.214c0-28.345,9.153-54.923,41.336-54.923c26.572,0,36.023,13.585,36.023,38.681v102.456h18.598v-103.34c0-36.023-17.121-53.44-50.486-53.44c-20.078,0-39.268,9.743-48.424,29.821c-5.609-20.078-23.618-29.821-43.697-29.821c-24.21,0-40.151,11.807-49.9,30.112h-0.883v-25.688h-17.126v152.356H1500.038z M1409.904,163.021c35.726,0,53.438,32.484,53.438,64.961c0,32.479-17.713,64.956-53.438,64.956c-35.729,0-53.445-32.477-53.445-64.956C1356.459,195.505,1374.176,163.021,1409.904,163.021L1409.904,163.021z M1409.904,147.378c-46.65,0-72.043,36.908-72.043,80.604c0,43.7,25.393,80.653,72.043,80.653c46.652,0,72.04-36.953,72.04-80.653C1481.943,184.286,1456.557,147.378,1409.904,147.378L1409.904,147.378z M1328.034,199.638c-4.134-34.843-29.233-52.26-61.71-52.26c-46.651,0-72.042,36.908-72.042,80.604c0,43.7,25.391,80.653,72.042,80.653c33.951,0,57.867-22.49,62.891-59.098h-18.602c-2.361,25.387-21.258,43.398-44.289,43.398c-35.729,0-53.441-32.476-53.441-64.955c0-32.477,17.713-64.961,53.441-64.961c24.211,0,38.085,13.882,43.107,36.617L1328.034,199.638L1328.034,199.638z M1188.884,304.158v-31.299h-24.799v31.299H1188.884z M1153.251,93.345h-58.462v41.041h58.462V93.345L1153.251,93.345z M1094.79,304.158h58.462v-153.24h-58.462V304.158L1094.79,304.158z M919.79,353.807h58.462v-66.479h0.592c8.86,12.99,24.509,20.72,41.924,20.72c51.376,0,65.254-43.751,65.254-79.775c0-38.378-20.963-81.192-64.363-81.192c-28.641,0-37.5,10.924-44.883,20.666h-0.588v-16.828H919.79V353.807L919.79,353.807z M976.188,227.687c0-18.307,4.721-38.088,25.688-38.088c20.963,0,25.688,19.781,25.688,38.088c0,18.009-4.726,37.79-25.688,37.79C980.908,265.477,976.188,245.695,976.188,227.687L976.188,227.687z M898.033,93.345h-58.458v41.041h58.458V93.345L898.033,93.345z M839.574,304.158h58.458v-153.24h-58.458V304.158L839.574,304.158z M831.396,240.678c0-59.643-26.277-93.597-87.101-93.597c-48.423,0-80.897,36.315-80.897,80.901c0,51.075,36.904,80.066,85.918,80.066c34.841,0,67.021-15.407,78.832-48.478h-54.62c-4.724,7.385-15.059,10.928-24.505,10.928c-18.309,0-28.345-12.405-29.821-29.82L831.396,240.678L831.396,240.678z M719.496,210.264c2.657-16.533,12.695-25.688,30.118-25.688c15.059,0,25.686,11.516,25.686,25.688H719.496L719.496,210.264z M599.121,227.39c0,18.306-4.723,38.086-25.688,38.086c-20.963,0-25.687-19.781-25.687-38.086c0-18.01,4.724-37.791,25.687-37.791C594.398,189.599,599.121,209.38,599.121,227.39L599.121,227.39z M655.518,93.345h-58.464v74.401h-0.59c-8.858-12.991-24.504-20.666-41.928-20.666c-51.372,0-65.251,43.698-65.251,79.722c0,38.384,20.965,81.246,64.368,81.246c28.639,0,37.497-10.978,44.877-20.72h0.59v16.83h56.396V93.345H655.518z M1037.333,359.37c-0.117,10.494,8.705,15.156,18.131,15.156c11.569,0,17.708-5.854,17.708-13.664c0-9.664-9.537-11.635-12.637-12.404c-10.675-2.747-12.707-3.16-12.707-6.442c0-3.574,3.461-4.831,6.438-4.831c4.474,0,8.115,1.314,8.41,6.442h9.065c0-9.842-8.17-13.72-17.057-13.72c-7.689,0-15.924,4.177-15.924,12.884c0,7.989,6.382,10.435,12.706,12.106c6.261,1.667,12.645,2.443,12.645,7.033c0,4.355-5.013,5.308-8.294,5.308c-5.005,0-9.42-2.207-9.42-7.868H1037.333L1037.333,359.37z M1117.884,352.395c0,12.281,7.753,22.133,20.931,22.133c13.179,0,20.932-9.852,20.932-22.133c0-12.644-7.752-22.486-20.932-22.486C1125.637,329.907,1117.884,339.751,1117.884,352.395L1117.884,352.395z M1127.246,352.395c0-7.457,3.16-14.61,11.568-14.61c8.409,0,11.568,7.153,11.568,14.61c0,7.096-3.159,14.252-11.568,14.252C1130.406,366.646,1127.246,359.489,1127.246,352.395L1127.246,352.395z M1207.143,373.505h30.109v-7.877h-20.75v-34.702h-9.361v42.579H1207.143z M1319.652,330.926h-9.365v26.477c0,6.322-2.146,9.244-8.824,9.244c-7.574,0-8.763-4.596-8.763-9.244v-26.477h-9.362v26.477c0,11.567,6.678,17.125,18.125,17.125c11.395,0,18.189-5.613,18.189-17.125V330.926L1319.652,330.926z M1378.135,373.505h9.362v-34.712h12.765v-7.867h-34.886v7.867h12.759V373.505L1378.135,373.505z M1446.167,373.505h9.358v-42.579h-9.358V373.505L1446.167,373.505z M1502.918,352.395c0,12.281,7.752,22.133,20.932,22.133c13.181,0,20.937-9.852,20.937-22.133c0-12.644-7.756-22.486-20.937-22.486C1510.67,329.908,1502.918,339.751,1502.918,352.395L1502.918,352.395z M1512.28,352.395c0-7.457,3.159-14.61,11.569-14.61c8.406,0,11.566,7.153,11.566,14.61c0,7.096-3.16,14.252-11.566,14.252C1515.439,366.646,1512.28,359.489,1512.28,352.395L1512.28,352.395z M1592.175,373.505h8.765v-28.509h0.119l17.715,28.509h9.361v-42.579h-8.767v28.563h-0.118l-17.773-28.563h-9.302V373.505L1592.175,373.505z M1674.689,359.37c-0.115,10.494,8.711,15.156,18.131,15.156c11.568,0,17.707-5.854,17.707-13.664c0-9.664-9.535-11.635-12.637-12.404c-10.682-2.747-12.707-3.16-12.707-6.442c0-3.574,3.461-4.831,6.439-4.831c4.473,0,8.113,1.314,8.409,6.442h9.065c0-9.842-8.172-13.72-17.058-13.72c-7.69,0-15.924,4.177-15.924,12.884c0,7.989,6.385,10.435,12.707,12.106c6.261,1.667,12.644,2.443,12.644,7.033c0,4.355-5.014,5.308-8.295,5.308-5.006,0-9.42-2.207-9.42-7.868H1674.689z"/></svg>