<svg height="512" width="2296.993" xmlns="http://www.w3.org/2000/svg"><path d="M452.386,237.717c-62.952-1.519-113.864-27.995-106.838-97.834c8.344-82.591-23.984-139.785-90.172-139.785c0,0-65.771-3.184-104.076,57.194c-33.067,52.091-10.282,100.581-10.916,140.048c0,0,11.548,63.76-53.322,98.596C62.103,309.366,4.185,331.456,0.318,399.188c-3.868,67.706,28,108.523,64.881,112.414c32.993,3.497,94.82-14.688,91.221-108.479c-2.978-78.277-19.913-147.283,90.59-170.938C357.535,208.51,360.105,328.179,360.737,347.9c0.631,19.724,12.2,98.624,71.33,126.886c59.096,28.272,144.553,2.621,158.04-71.021C603.583,330.151,572.979,240.593,452.386,237.717z M876.164,161.473c-7.646-2.236-20.758-4.478-31.117-4.478c-92.239,0-139.188,59.744-139.188,152.963c0,103.294,54.041,158.11,154.474,158.11c51.854,0,96.622-9.585,121.708-22.433V26.129H876.164V161.473z M876.164,381.975c-3.844,1.678-10.916,2.247-18.006,2.247c-30.014,0-46.403-23.998-46.403-75.36c0-43.545,15.821-72.032,45.3-72.032c7.66,0,15.833,1.689,19.109,3.355V381.975z M1173.64,377.512c-4.37,1.68-12.542,2.795-22.386,2.795c-19.625,0-30.025-8.354-30.025-27.331V159.784h-105.887v190.385c0,84.295,45.3,117.899,135.912,117.899c49.145,0,99.898-9.034,128.283-22.433V159.784H1173.64V377.512z M1737.871,152.534c-49.092,0-96.043,11.718-123.336,22.342l25.109,71.436c22.364-8.925,56.227-17.849,85.168-17.849c26.729,0,38.744,10.054,38.744,26.234v7.829c-88.437,5.599-164.863,25.683-164.863,103.268c0,66.438,47.506,102.276,144.662,102.276c49.67,0,96.607-10.727,119.543-22.433V268.659C1862.898,186.031,1823.607,152.534,1737.871,152.534z M1763.559,391.488c-4.382,1.667-14.191,2.227-23.48,2.227c-25.117,0-43.123-10.062-43.123-30.72c0-26.222,24.036-32.372,66.604-34.039V391.488L1763.559,391.488z M2191.087,159.784v217.728c-4.36,1.68-12.535,2.795-22.345,2.795c-19.668,0-30.025-8.354-30.025-27.331V159.784H2032.82v190.385c0,84.295,45.289,117.899,135.923,117.899c49.122,0,99.845-9.034,128.25-22.433V159.784H2191.087z M1460.576,155.881c-12.575,0-31.086,3.356-41.497,7.816V26.129h-105.877v419.508c25.11,11.706,69.864,22.433,116.288,22.433c105.865,0,159.906-56.483,159.906-168.714C1589.396,207.808,1537.005,155.881,1460.576,155.881z M1437.096,384.222c-7.091,0-14.193-1.118-18.017-2.247V240.758c4.938-2.241,12.028-3.931,19.121-3.931c30.013,0,45.311,26.25,45.311,72.032C1483.511,353.524,1468.761,384.222,1437.096,384.222z M1893.641,460.711h105.909V26.129h-105.909V460.711z"/></svg>