<svg height="512" width="2296.993" xmlns="http://www.w3.org/2000/svg"><path d="M612.094,503.612h44.048V263.505h92.729v-33.188h-92.729V42.152h129.821V6.945H612.094V503.612z M830.045,503.612h44.047
	V6.945h-44.047V503.612z M1115.248,400.298L957.313,6.945h-33.902v496.667h37.959V118.631l158.226,384.981h33.032V6.945h-37.381
	V400.298z M1424.25,6.945h-45.495l-133.013,261.171V6.945h-44.049v496.667h44.049V328.439l48.688-87.156l106.637,262.329h46.65
	L1321.09,211.846L1424.25,6.945z M1566.342,0.016c-96.787,0-127.208,67.533-127.208,151.513v208.076
	c0,83.404,28.104,151.801,127.208,151.801c99.108,0,127.212-68.396,127.212-151.801V151.528
	C1693.554,67.548,1663.129,0.016,1566.342,0.016z M1649.506,369.414c0,58.875-18.254,106.785-83.164,106.785
	c-64.914,0-83.167-47.91-83.167-106.785V141.713c0-58.868,18.253-106.487,83.167-106.487c64.91,0,83.164,47.619,83.164,106.487
	V369.414z M1854.195,211.846L1957.357,6.945h-45.496l-133.01,261.171V6.945h-44.049v496.667h44.049V328.439l48.685-87.156
	l106.636,262.329h46.656L1854.195,211.846z"/></svg>