<svg height="512" width="478.2" xmlns="http://www.w3.org/2000/svg"><path d="m0 338.9q1-55.8 31.7-98.8 32.8-44 83-64 22-5.1 29.2 12.8 3 9.2-0.5 16.9t-12.3 10.3q-40 16.9-63 49.1-23 34.8-24.1 74.3 2.1 54.7 40 92.1 42 37.9 95.2 37.9 44-1 77.8-24.1 35.9-25 50.2-61.9 3.1-8.2 5.1-15.9 6.2-21 26.1-15.9 21 6.2 16.9 25.1-3 11.8-7.1 21-20 53.3-65.1 84-49.1 31.2-103.9 31.2-74.2-2-126-51.2-52.2-52.2-53.2-121.8z m135.2-287.7q1-22 15.3-36.4t35.4-14.3q22 1 36.3 15.4t14.3 35.3q-1 22-15.8 36.4t-34.8 14.3q-22.1-1-36.4-15.4t-14.3-35.3z m24 107h1.1q-4.1-17.9 10.7-32.8 11.8-10.7 30.2-10.7 13.8 0 24.1 8.2 5.1 4.1 8.7 8.2t5.6 10.2 2.6 9.2 2 11.3 2.6 11.3h85q15.8 1 21 15.8 2 11.8-5.2 20t-18.9 7.2h-73.2l10.7 53.7h93.2q24.1 1 32.8 20l82.9 144.9q8.2 16.9-5.1 30.2-10.7 10.2-24.6 7.7t-19.4-15.4l-72.2-124.9q-25.1-1-74.2-0.5t-55.9 0.5q-30.2-2.1-34.8-28.2z" /></svg>