<svg height="512" width="458.8" xmlns="http://www.w3.org/2000/svg"><path d="m0 401.9q4.1-34.8 33.8-65l196.1-196.1q59.9-58.9 108-16.9 43 44-17.9 107l-180.7 180.2-33.8-35.8 179.2-179.2q1 0 4.1-3.1l4.1-4.1t3.5-4.6 3.6-5.1 3.1-5.1 2.1-5.7v-5.1t-1.1-6.1q-10.2-9.2-37.9 18.9l-195 195.1q-19 17.9-21 34.8-2.1 20 17.9 40 21 16.8 35.3 14.3t36.4-23.6q42-40.9 111.6-110t99.3-99.9q1-1 9.2-8.7t9.3-9.2 7.6-8.2 8.2-9.2 6.2-8.7 6.6-10.3 5.7-10.2 5.6-12.8q8.2-29.2-16.9-63t-58.9-37.9q-34.8-4.1-77.8 36.9l-214 214-34.8-33.8 214-215q50.1-49.2 101.9-51.7t96.7 42.5q53.8 54.8 37.9 120.8-10.2 37.9-48.1 76.8-44 43-126 124.9l-107 107q-35.8 35.9-76.8 36.9-34.8 0-64-29.2-35.8-35.8-32.7-79.9z" /></svg>