<svg height="512" width="508.4" xmlns="http://www.w3.org/2000/svg"><path d="m1 30.2q4.1-10.2 13.3-14.8t19.5-2.1l76.8 25.1q15.9 5.1 17.9 22l5.1 43 351.3 38.9q11.7 3.1 17.9 11.3t5.1 19.5l-22 121.8q-4.1 22-25.1 22h-310.8l-6.1 34.8h295.9q10.8 0 18.4 7.7t7.7 18.5q-1 10.7-8.7 18.4t-17.4 7.7h-328.2q-12.8-1.1-20-10.3t-6.1-21l13.8-75.7-21-214.1-60.9-19.9q-23-9.2-16.9-32.8z m111.1 429.6q0-16.4 11.8-28.7t28.7-11.8 28.6 11.8 11.8 28.7-11.8 28.6-28.6 11.8-28.7-11.8-11.8-28.6z m240.2 0q0-16.4 11.7-28.7t28.7-11.8 28.7 11.8 11.8 28.7-11.8 28.6-28.7 11.8-28.7-11.8-11.7-28.6z" /></svg>