<svg height="512" width="512.0" xmlns="http://www.w3.org/2000/svg"><path d="m0 512v-512h512v512h-512z m79.9-80.9h131q25.1-1 41-15.9 15.9-16.9 15.9-43 0-24-10.8-37.9-9.2-11.7-26.1-15.8v-2.1q14.9-5.1 23.1-14.8 10.2-13.9 10.2-35.9-1-23-15.9-37.9-15.9-14.8-37.9-14.8h-130v219.1z m61.9-51.2v-37.9h48.2q7.1 1 10.2 5.1 5.1 5.2 5.1 11.8v4.1q0 7.2-5.1 11.8-4.1 5.1-10.2 5.1h-48.2z m0-82.9v-36.9h44.1q6.1 0 10.2 5.1t4.1 11.8v3.1q0 7.1-4.1 11.7t-10.2 5.2h-44.1z m128 50.1q0 22.1 6.2 38.9 6.1 15.9 17.4 27.2t27.6 16.4 36.9 5.6q39.9-1 59.9-17.9 21-16.9 21-47.1h-54.8q0 5.1-2 9.2-5.2 14.8-26.2 14.8-15.8 0-23-9.7t-7.2-27.6h113.2q0-31.8-6.2-50.2-5.1-15.9-15.8-27.1t-27.2-15.9-35.8-5.1q-19 0-34.3 5.6t-26.6 16.4-16.9 27.1-6.2 38.9z m37.9-98.8h96.8v-35.8h-96.8v35.8z m19 78.9q1-12.8 8.1-20.5t21-7.7q11.8 0 19 7.7t7.2 20.5h-54.8z" /></svg>