<svg height="512" width="466.4" xmlns="http://www.w3.org/2000/svg"><path d="m2.6 483.3q-6.7-11.7 2.5-26.1l66.1-85 26.1-94.2v-76.8l-13.8 19-5.2 54.7q-2 12.8-12.3 16.9t-18.9-2.5-7.7-18.5l7.2-58.8q0-5.2 3.1-9.2l53.2-72.2q10.3-15.9 29.2-18t32.8 10.8l57.8 73.2 56.9 11.8q10.7 2 14.8 14.8t-10.8 19l181.8 249.8q3.1 5.2-2 7.7t-8.2-1.5l-195.1-257-53.3-10.3q-7.1-2-10.7-7.2l-22-28.1v80.9l56.8 65q3.1 3.1 4.1 9.2l28.2 124.9q2 13.9-9.2 22.6t-24.6 5.1-17.4-18.4l-25.1-118.8-47.1-53.3-21 74.3q-3.1 7.1-4.1 9.2l-69.1 89.1q-10.8 10.2-24.1 9.7t-19.5-12.3z m91.6-427.5q0-20.5 14.3-34.8t34.9-14.3 34.8 14.3 14.3 34.8-14.3 34.8-34.8 14.4-34.9-14.4-14.3-34.8z" /></svg>