<svg height="512" width="512.0" xmlns="http://www.w3.org/2000/svg"><path d="m0 419.8v-328.2l256-50.1 256 50.1v328.2l-256 50.2z m89.1-161.8q0 35.9 13.8 60 22 36.8 68.1 36.8 20 0 34.8-7.2 36.9-15.8 40-64h-29.2q-8.2 44.1-45.1 44.1-13.8 0-24-6.2-28.2-15.8-28.2-64 0-22 5.1-38.9 12.8-34.8 46.1-34.8l9.2 1q30.2 5.2 34.8 38.9h29.2q-2-25-11.8-39.9l-3-3.1q-20-24-57.9-24-29.2 0-50.2 16.9-31.7 27.1-31.7 83.9z m177.1 0q0 35.9 13.9 60 22 36.8 68.1 36.8 18.9 0 34.8-7.2 35.8-15.8 39.9-64h-29.2q-8.2 44.1-46.1 44.1-13.8 0-24-6.2-28.2-15.8-28.2-64 0-22 6.2-38.9 11.7-34.8 46-34.8l9.3 1q30.2 5.2 33.8 38.9h30.2q-2.1-25-11.8-39.9l-3.1-3.1q-21-24-57.8-24-29.2 0-50.2 16.9-31.8 27.1-31.8 83.9z" /></svg>