<svg height="512" width="512.0" xmlns="http://www.w3.org/2000/svg"><path d="m0 295.9v-79.8l76.8-8.2q7.2-23.1 18.9-45.1l-49.1-59.9 55.8-55.8 59.9 49.2q21-11.8 45.1-19l8.2-76.8h79.8l8.2 76.8q23.1 7.2 45.1 19l59.9-49.2 55.8 55.8-49.2 59.9q11.8 22 19 45.1l76.8 8.2v79.8l-76.8 8.2q-7.2 24.1-19 45.1l49.2 59.9-55.8 55.8-59.9-49.2q-22 11.8-45.1 19l-8.2 76.8h-79.8l-8.2-76.8q-24.1-7.2-45.1-19l-59.9 49.2-55.8-55.8 49.1-59.9q-11.7-21-18.9-45.1z m181.8-39.9q0 31.2 21.5 52.7t52.7 21.5 52.7-21.5 21.5-52.7-21.5-52.7-52.7-21.5-52.7 21.5-21.5 52.7z" /></svg>