<svg height="512" width="512.0" xmlns="http://www.w3.org/2000/svg"><path d="m0 309.8v-50.2l48.1-4.1q4.1-14.9 11.8-28.2l-31.2-37.9 34.8-34.8 37.9 31.3q12.8-8.2 28.1-11.8l4.1-48.1h50.2l5.1 48.1q14.9 4.1 28.2 11.8l37.9-31.3 34.8 34.8-31.2 37.9q8.2 12.8 11.7 28.2l48.2 4.1v50.2l-48.2 5.1q-4.1 14.8-11.7 28.1l31.2 36.9-34.8 35.8-37.9-31.2q-12.8 8.2-28.2 11.8l-5.1 48.1h-50.2l-4.1-48.1q-14.8-4.1-28.1-11.8l-37.9 31.2-34.8-35.8 31.2-36.9q-8.2-12.8-11.8-28.1z m113.2-25.1q0 18.9 13.3 32.2t32.2 13.3 32.3-13.3 13.3-32.2-13.3-32.3-32.3-13.3-32.2 13.3-13.3 32.3z m162.8-121.9l4.1-36.8 35.8 1q4.1-10.8 10.2-20l-18.9-29.2 28.2-23 25 25.1q10.3-5.1 21-7.2l7.2-33.8 36.9 4.1-1.1 34.8q10.8 4.1 20 10.8l29.2-20 23 28.2-25 25.1q5.1 10.2 6.1 22l34.8 7.1-4.1 35.9h-34.8q-4.1 10.2-10.8 18.9l20 30.2-29.2 23.1-24-25.1q-10.8 4.1-22 6.1l-7.2 33.8-35.9-3.1v-35.8q-10.2-4.1-18.9-10.2l-30.2 18.9-23-28.1 25-25.1q-4.1-10.3-6.1-21z m15.8 227.9l3.1-26.2h25.1q3.1-8.1 7.2-13.8l-12.8-22 18.9-16.9 17.9 19q7.2-4.1 14.9-5.2l5.1-25.1 25.1 3.1v25.1q8.2 3.1 13.8 8.2l21-13.8 15.9 21-17.9 17.9q3 7.2 5.1 14.8l24 6.2-3 26.1h-25.1q-2.1 8.2-7.2 13.8l13.8 22-19.9 16.9-18-18.9q-7.1 4.1-14.8 5.1l-5.1 25.1-25.1-3.1v-26.1q-7.2-2-13.8-7.2l-21 13.9-15.9-21 17.9-18q-3-7.1-4.1-14.8z m59.9-7.2q-2 10.7 4.7 18.4t15.8 9.2 17.4-5.1 9.2-16.9-5.6-17.9-15.3-9.7h-3.1q-9.2 0-15.9 6.6t-7.2 15.4z m9.3-230.9q-2.1 13.8 7.1 25.1t23.1 12.3 24.5-7.7 11.8-23.1-7.1-24.5-22.6-12.3h-4.1q-12.8 0-22.5 8.7t-10.8 21.5z" /></svg>