<svg height="512" width="512.0" xmlns="http://www.w3.org/2000/svg"><path d="m0 426v-340h512v340h-512z m31.7-31.8h448v-152h-448v152z m0-224.7h448v-51.2h-448v51.2z m31.3 184.8q0-7.2 2.5-10.7t7.7-4.1 7.7 4.1 2.6 10.7-2.6 10.8-7.7 4.1-7.7-4.1-2.5-10.8z m4.1 0q0 6.1 1.5 9.2t4.6 3.1 4.6-3.1 1.6-9.2-1.6-9.2-4.6-3.1-4.6 3.1-1.5 9.2z m22 0q0-7.2 2.5-10.7t7.7-4.1 7.7 4.1 2.6 10.7-2.6 10.8-7.7 4.1-7.7-4.1-2.5-10.8z m4.1 0q0 6.1 1.5 9.2t4.6 3.1 4.6-3.1 1.6-9.2-1.6-9.2-4.6-3.1-4.6 3.1-1.5 9.2z m21 0q0-7.2 2.5-10.7t7.7-4.1 7.7 4.1 2.6 10.7-2.6 10.8-7.7 4.1-7.7-4.1-2.5-10.8z m4.1 0q0 6.1 1.5 9.2t4.6 3.1 4.6-3.1 1.6-9.2-1.6-9.2-4.6-3.1-4.6 3.1-1.5 9.2z m22 0q0-7.2 2.5-10.7t7.7-4.1 7.7 4.1 2.6 10.7-2.6 10.8-7.7 4.1-7.7-4.1-2.5-10.8z m4.1 0q0 6.1 1.5 9.2t4.6 3.1 4.6-3.1 1.6-9.2-1.6-9.2-4.6-3.1-4.6 3.1-1.5 9.2z m20 5.1v-3h10.7v3h-10.7z m15.8-5.1q0-7.2 2.6-10.7t7.7-4.1 7.6 4.1 2.6 10.7-2.6 10.8-7.6 4.1-7.7-4.1-2.6-10.8z m4.1 0q0 6.1 1.6 9.2t4.6 3.1 4.6-3.1 1.5-9.2-1.5-9.2-4.6-3.1-4.6 3.1-1.6 9.2z m21 0q0-7.2 2.6-10.7t7.7-4.1 7.6 4.1 2.6 10.7-2.6 10.8-7.6 4.1-7.7-4.1-2.6-10.8z m4.1 0q0 6.1 1.5 9.2t4.7 3.1 4.6-3.1 1.5-9.2-1.5-9.2-4.6-3.1-4.7 3.1-1.5 9.2z m21 0q0-7.2 3.1-10.7t7.7-4.1 7.6 4.1 3.1 10.7-3.1 10.8-7.6 4.1-7.7-4.1-3.1-10.8z m4.1 0q0 6.1 2 9.2t5.2 3.1 4.6-3.1 1.5-9.2-1.5-9.2-4.6-3.1-5.2 3.1-2 9.2z m22 0q0-7.2 2.6-10.7t7.7-4.1 7.6 4.1 2.6 10.7-2.6 10.8-7.6 4.1-7.7-4.1-2.6-10.8z m4.1 0q0 6.1 1.5 9.2t4.7 3.1 4.6-3.1 1.5-9.2-1.5-9.2-4.6-3.1-4.7 3.1-1.5 9.2z" /></svg>