<svg height="512" width="512.0" xmlns="http://www.w3.org/2000/svg"><path d="m0 406v-395.8h512v395.8l-256 95.8z m55.8-172q0 29.2 17.4 48.1t49.7 19q60.9 0 61.9-54.8h-38.9q0 23-24 24-11.8 0-18-8.7t-6.1-21.5q0-25.1 6.1-33.8 10.3-12.8 28.2-6.1 12.8 5.1 12.8 23h39.9q0-27.1-16.9-40.9t-45-14.9q-29.2 0-48.7 17.9t-18.4 49.2z m144.9 21q0 45 64 46.1 55.8 0 56.8-45.1-1-29.2-38.9-36.9-1 0-8.7-1.5t-12.8-2.6-10.7-4.1-5.2-7.1q0-8.2 16.9-9.2 15.9 0 16.9 12.8v1h37.9v-2.1q0-19.9-16.9-30.2t-39.9-10.2q-55.8 0-57.9 40.9 0 30.3 37.9 39 2.1 1 9.8 2.5t12.8 2.6 10.7 4.1 5.1 7.1q0 8.2-17.9 8.2-21 0-21-15.8h-38.9z m136.2 0q0 45 64 46.1 55.8 0 56.8-45.1 0-9.2-4.1-14.8-8.2-14.9-34.8-22.1-1 0-9.2-1.5t-12.8-2.6-10.2-4.1-6.2-7.1q1-8.2 17.9-9.2 16.9 0 15.9 13.8h38.9q0-21-16.4-31.8t-40.4-10.7q-55.8 0-57.9 40.9 0 30.3 37.9 39 2.1 1 9.7 2.5l12.3 2.6t10.8 4.1 5.6 7.1q0 10.3-27.1 8.2-11.8-3-11.8-15.8h-38.9z" /></svg>