<svg height="512" width="512.0" xmlns="http://www.w3.org/2000/svg"><path d="m0 256q0-106 74.8-180.7t180.7-74.8 180.7 74.8 74.8 180.7-74.8 180.7-180.7 74.8-180.7-74.8-74.8-180.7z m36.9 0q0 84 55.8 146.9 27.1-51.2 74.2-84.9t112.7-63l-9.3-17.9-9.2-18q-106 30.2-224.7 31.3v6.1z m5.1-44q99.8-1.1 202.2-27.2-18.9-33.8-80.9-126.9-47.1 22-78.8 62.4t-42 91.7z m79.9 217.1q58.8 46 134.1 46 45.1 0 86-16.9-16.9-89-47.1-165.8-112.1 36.8-173 137.2z m81.9-386.1q46.1 60.9 82.9 129 76.8-31.2 114.2-79.8-62-54.8-144.9-54.8-26.1 0-52.2 6.1z m98.8 160.8q2 5.1 6.6 13.8t7.7 15.9 6.2 12.8q74.7-8.2 152 8.2-1-77.9-49.1-137.3-45.1 54.8-122.9 86.1z m31.7 77.8q20 51.2 43 156.2 78.9-53.8 94.3-147-47.2-12.8-94.3-12.8-23 1-43 4.1z" /></svg>