<svg height="512" width="512.0" xmlns="http://www.w3.org/2000/svg"><path d="m0 256q3.1-25.1 32.8-55.8 39.9-41 90.1-66.1 66-31.2 133.1-31.2 70.1 1 133.1 31.2 53.3 27.2 90.1 66.1 32.8 36.9 32.8 55.8-3.1 25.1-32.8 55.8-39.9 41-90.1 66.1-66 31.2-133.1 31.2-70.1-1-133.1-31.2-53.3-27.2-90.1-66.1-32.8-36.9-32.8-55.8z m135.2 0q0 48.1 35.3 81.4t85.5 33.3 85.5-33.3 35.3-81.4-35.3-81.4-85.5-33.3-85.5 33.3-35.3 81.4z m44-0.5q0-30.7 22.5-52.2t54.3-21.5 54.3 21.5 22.5 52.2-22.5 52.7-54.3 22-54.3-22-22.5-52.7z" /></svg>