<svg height="512" width="383.0" xmlns="http://www.w3.org/2000/svg"><path d="m3.6 313.9q5.1-21 25.6-67.6t22.5-74.3q20 36.9 23.1 74.3 75.7-94.2 78.8-219.2 5.1 3.1 12.8 8.7t29.7 23.6 37.9 37.4 31.2 49.6 17.4 59.9q8.2-17.9 10.3-39.9t-5.2-41q8.2 6.2 21 20t29.2 37.9 28.7 51.2 15.9 60.4-4.6 65-36.9 65.1-77.8 61.4q32.7-66 12.8-142.3t-78.9-117.3q5.1 22-5.6 72.7t-33.3 76.3q4.1-31.7 2.1-52.2t-6.2-30.2l-5.1-9.2q-6.2 35.8-31.2 72.2-12.8 18.9-19.5 34.8t-5.1 40.9 15.3 53.8q-69.1-38.9-92.6-78.9t-12.3-93.1z" /></svg>