<svg height="512" width="512.0" xmlns="http://www.w3.org/2000/svg"><path d="m0 512v-512h431.1l-117.2 159.7-34.9-33.7q-17.9-15.9-33.8 0l-9.2 8.1q-2-3-4.6-6.6t-5.6-6.7q-32.8-35.8-77.8-36.8-38.9 1-67.1 25.1-31.7 30.2-35.8 71.1-2.1 44.1 24 74.8 31.3 32.7 71.2 35.8l104.9 104q18 15.8 33.8 0l117.8-117.8q15.9-16.9 0-32.8l115.2-96.7v365h-512z m65-324.1q0-33.8 24.1-58.4t58.4-24.5 58.3 24.5 24.1 58.4q0 15.9-6.2 31.2v2.1q12.8 17.9 21 28.1 8.2 10.8 9.3 11.8 2 3.1 6.1 3.1t6.1-4.1l190-260.1h55.8v119.8l-246.8 208.9q-2 1-5.1 1h-1q-2.1 0-4.1-1l-77.8-64h-1.1q-13.8 5.1-29.2 5.1-33.7 0-57.8-24t-24.1-57.9z" /></svg>