<svg height="512" width="485.9" xmlns="http://www.w3.org/2000/svg"><path d="m0 196.1q1-26.1 7.7-39.9t13.8-17.4 20.5-4.7q9.2-117.7 140.8-130 49.1-4.1 104.9 15.9 33.8-18 75.8-18 16.9 0 64 7.2 31.3 8.2 44.1 21t11.7 34.8l2.1 46.1q-2.1 14.9-6.2 24.6t-11.2 13.8-10.8 6.1-13.3 3.6q1 1.1 4.6 2.6t5.1 3.1 3.6 6.6 3.1 12.8v56.9q-5.1 13.8-13.8 22t-15.9 10.2-19 4.1l-22-2-2 188.9q0 7.2-1.6 11.8t-3 9.2-5.1 7.1-5.7 4.7-7.1 3.5-6.7 2.6-7.7 2-7.1 1.6h-85q-37.9-1-43-49.2-14.9 56.9-54.8 52.3l-73.2-1.1q-10.3-1-18-3t-12.3-6.2-8.1-6.6-5.2-8.7-2-8.8-1.6-9.7-1-9.2l-1-181.8q-12.8-4.1-20.5-9.7t-13.3-23-5.1-46.6z m50.2-22l1 57.8h37.9l-3.1 229.9h77.8v-229.9l101.9-2v231.9l77.9 2.1-1.1-234h70.2v-52.2h-70.2q1.1-10.8 0-22.1t0.5-21.5 5.2-17.9 12.8-11.2 24.5-2.1q34.9 5.1 50.2 16.9l1-57.8q-41.9-18-96.7-10.8-21 3.1-35.4 10.8t-21.5 15.8-11.2 23.6-5.1 24.6-0.6 28.6v25.6l-97.8-1v-38.9q1.1-9.2 2.6-14.3t5.6-11.8 12.8-9.2 23.1-2.6q9.2-1 45 11.8l-1-54.8q-39.9-12.8-60.9-12.8-3.1 0-11.3 1t-14.3 0q-11.8 2.1-22 5.1t-16.9 6.7-12.8 10.7-10.3 10.8-7.1 13.3-4.6 12.8-3.1 14.3-1.6 13.4-0.5 13.8l-0.5 11.2 1 15.9z" /></svg>