<svg height="512" width="512.0" xmlns="http://www.w3.org/2000/svg"><path d="m0 512v-512h512v512h-512z m76.8-298q-1 21 3.6 33.8t10.2 16.9 14.4 7.2l1 134.1q0 1 1 8.2t1.5 8.7 3.1 6.7 5.6 7.1 9.8 4.6 15.3 3.6l53.8 1.1q29.2 4 39.9-39 4.1 35.9 31.8 36.9h63q1-1 5.1-2t5.6-1.6 5.1-1.5 5.1-2.6 4.1-3.6 3.6-5.1 2.1-6.6 2-8.7l1-139.8 15.9 1q13.8-2 22-6.6t14.9-19.5v-42q-1-6.1-2.6-9.7t-3.1-4.6-3.5-2.6-3.1-2.5q9.2-2.1 12.8-3.6t9.7-9.8 7.7-22l-1-33.8q1-30.2-41-41.9-34.8-5.2-48.1-5.2-31.2 0-55.8 13.9-41-14.9-76.8-11.8-97.8 9.2-105 95.7-13.8 1-22 10.3t-8.2 35.8z m35.8-16.9l31.3 2.1-1.1-11.8 1.1-9.2v-9.8t1-10.2 2-10.7 3.6-9.8 5.1-10.2 7.2-8.2 10.3-7.7 12.8-5.1 16.3-3.6q4.1 0 10.3-0.5t8.2-0.5q15.8 0 46.1 9.2l1 41q-27.2-10.3-33.8-9.3-12.8 0-20.5 4.7t-9.2 9.7-3.6 13.8v29.2l73.2 1v-19.4t0.5-21 3.6-18 8.7-17.4 15.9-11.2 26.6-7.7q40-6.1 72.2 8.2l-1 43q-11.8-10.2-36.9-12.8-11.8-1-18.9 1.5t-9.2 8.2-3.6 13.3-1 15.9 0.5 15.9h52.2v37.9h-52.2v173l-56.9-1v-172l-74.7 2v170h-57.9l2.1-170h-28.2z" /></svg>