<svg height="512" width="512.0" xmlns="http://www.w3.org/2000/svg"><path d="m0 338.9q0-105.9 74.8-180.7t180.7-74.7 180.7 74.7 74.8 180.7q0 47.1-15.9 90.2h-70.1q22-42 22-90.2 0-78.8-55.8-135.6t-136.2-56.4-136.2 56.4-55.8 135.6q0 48.2 22 90.2h-70.2q-15.8-43.1-15.8-90.2z m128-92.1q0-12.8 9.7-22.5t22.6-9.8 22.5 9.8 9.7 22.5-9.7 22.5-22.5 9.7-22.6-9.7-9.7-22.5z m95.7-31.2q0-12.8 9.8-22.6t22.5-9.7 22.5 9.7 9.8 22.6-9.8 22.5-22.5 9.7-22.5-9.7-9.8-22.5z m7.2 212.9v-25l25.1-126 25.1 126v25h-50.2z m89.1-181.7q0-12.8 9.7-22.5t22.6-9.8 22.5 9.8 9.7 22.5-9.7 22.5-22.5 9.7-22.6-9.7-9.7-22.5z" /></svg>