<svg height="512" width="512.0" xmlns="http://www.w3.org/2000/svg"><path d="m0 256q0-106 74.8-180.7t180.7-74.8 180.7 74.8 74.8 180.7-74.8 180.7-180.7 74.8-180.7-74.8-74.8-180.7z m60.4 20q2.6 28.1 13.3 54.8 14.9 36.8 43 65t64 43q1.1-9.2 3.1-34.3t4.1-39.4q-2-8.2-11.3-26.2t-10.7-29.1q0-10.3 0.5-14.9t0.5-8.2q-2-1-5.1-4.1l-4.1-4.1q-4.1-4.1-6.1-5.1-6.2-2-17.5-6.1t-16.9-6.2-14.3-6.1-15.3-9.2-13.4-11.3-11.7-14.3q-4.1 27.1-1.6 54.7z m72.7-174.1q9.2-1 17.9 0 9.3 4.1 19.5 15.9t17.4 15.8q2.1 2.1 6.1 2.1 2.1 5.1 11.8 6.6t11.8 3.6q11.8 7.2 18.9 16.9-11.7 16.9-18.9 20 0 1 1 1 2.1 4.1-2 6.2-3.1 1-11.8 3t-11.8 5.7-5.1 12.2q0 2.1-2 4.1 2 13.9 1 25.1t-7.2 11.8q-3.1 0-6.1-1-4.1-1-9.8-4.1t-12.2-9.2q0 3 2 7.6t2 6.7h3.1q4.1-1 6.2 1.5t0 4.6l-1.1 3.1-1 1 4.1 2.1q5.1 4.1 9.7 4.1t11.3-1q10.2-1.1 15.9-1.1t13.3 4.6 11.3 7.7 10.7 9.2 11.8 9.3q2 1 10.7 6.6t13.3 10.3 4.7 10.7q-1.1 35.8-12.8 49.2-4.1 4.1-11.3 9.7t-11.8 10.7-7.7 11.8q-3 6.2-3 13.8-3.1 6.2-8.2 16.9t-8.2 14.9q51.2 10.2 99.3-6.2t82.4-53.7q26.1-28.2 38.9-62t13.9-70.1l-19 10.7q-11.7-1-11.7 4.1l8.1 3.1q2.1 1 2.1 2.1 2 5.1-2.1 10.7-3 6.1-14.8 17.9-1 12.8-2.1 16.9-2 5.1-5.1 10.8v7.1q-1 4.1-4.6 11.3t-4.6 12.3q-2 13.8-11.8 26.1-14.8 13.8-25.1 11.8-4-1-7.1-5.1-2.1-7.2-7.2-19t-6.1-14.8q-2.1-5.2-2.1-10.3t1-11.7 1.1-10.3q0-5.1-3.6-12.3t-3.6-10.7q-1-3.1 2-10.3l-4.6-1.5q-4.6-1.5-16.3-1.5h-6.2q-23 0-29.2-28.2-3-16.9 7.2-32.8 1-2 1-4.6v-3.6q5.1-1 9.2-10.2 4.1 0 18.5-2t21.5-2.6 17.9 2.6q4.1 3 8.2 5.1 7.2 5.1 11.8 7.1l15.8-10.7q-5.1-8.2-10.2-12.8-13.8-15.9-29.2 0l-34.8-3.1q-8.2 5.1-20 6.2-1-6.2-3-10.3-3.1-6.1-3.6-9.7t1.5-5.6l4.1-4.1q4.1-3.1 5.6-8.7t2.6-12.3 2-10.3q3.1-7.1 9.3-15.8 3-7.2 11.2-10.8t17.9-7.2 20-4.1 19.5-2q-19-15.9-38.9-27.1-6.2 0-16.4-2.6t-14.4-2.6q-10.7-1-25.1 7.2-10.7 8.2-26.1 8.2-18.9 0-37.9-6.7t-32.7-14.3q-32.8 10.8-59.9 32.8z" /></svg>