<svg height="512" width="512.0" xmlns="http://www.w3.org/2000/svg"><path d="m0 380.9v-69.1q0-12.8 9.2-15.9l88.1-40.9q-33.8-20-34.8-67.1 0-29.2 17.9-53.2 18.9-21 46.1-22.1 15.8 0 31.7 10.3-25.1 64 11.8 120.8-6.2 6.2-12.8 10.3l-57.9 28.1q-25.1 11.8-27.1 43v73.2h-57.9q-12.8 0-13.8-16.9z m98.8 30.2v-86q0-13.8 10.8-18.9l77.8-35.9 29.2-13.8q-19-11.8-30.7-33.8t-11.3-48.1q0-38.9 23.5-66.6t56.4-27.6 55.8 27.6 23 66.6q0 53.8-39.9 80.9l31.2 14.8 74.8 35.9q11.7 5.1 11.7 18.9v86q-1 19-18.9 21h-277q-7.2-1-11.8-7.1t-5.1-13.9z m242.2-168.9q34.8-53.8 10.7-117.8 15.9-10.2 33.8-10.7 25.1 0 46.1 22 17.9 21 17.9 53.2 0 42-32.7 67.1l86 41q9.2 5.1 9.2 15.8v69.2q0 15.8-13.8 16.8h-59.9v-73.2q0-29.2-26.1-43l-55.8-27.1q-8.2-4.1-14.9-12.8z" /></svg>