<svg height="512" width="512.0" xmlns="http://www.w3.org/2000/svg"><path d="m0 256q0-106 74.8-180.7t180.7-74.8 180.7 74.8 74.8 180.7-74.8 180.7-180.7 74.8-180.7-74.8-74.8-180.7z m91.1 80.9q0 10.7 9.3 10.7h36.8v-47.1q0-9.2 4.6-16.3t12.3-11.3l37.9-17.9q5.1-3.1 8.2-7.2-6.2-9.2-10.2-21t-4.1-25.1q0-8.2 2-15.8t5.1-14.9q-10.2-7.2-21-7.2-18.9 1.1-30.2 15.4t-10.7 32.3q1 31.2 22 44l-56.8 26.1q-5.2 3.1-5.2 10.2v45.1z m63 10.7q-1 21 11.8 22.1h179.2q6.1-2.1 8.7-6.2t2.6-6.6v-56.4q0-9.2-7.2-11.7l-48.1-24.1-21-10.2q18.9-10.8 25.1-37.9 4-14.9 0-31.3-5.2-17.9-18.5-30.7t-31.7-13.3q-17.9 1-31.3 13.3t-17.9 29.7q-6.1 23.1 4.1 47.1 8.2 14.9 21 24.1l-18.9 9.2-50.2 23q-8.2 4.1-8.2 12.8v47.1z m157.2-99.8q4.1 4.1 10.2 8.2t10.8 6.1 12.8 5.7 11.8 5.6q8.2 4.1 12.3 11.3t4.6 16.4v47.1h37.8q9.3-1.1 9.3-10.8v-45q0-7.2-5.2-10.3l-55.8-27.1q21-14.9 21-43 0-19-11.7-33.3t-29.2-14.3q-10.8 0-22 7.1 6.1 14.9 6.1 31.3 0 25-12.8 46z" /></svg>