<svg height="512" width="512.0" xmlns="http://www.w3.org/2000/svg"><path d="m0 399.9v-128q0-106 74.8-180.8t180.7-74.7 180.7 74.7 74.8 180.8v128q-2.1 21-17.9 27.6t-31.3-2.5-14.8-25.1v-128q0-79.9-55.8-136.2t-136.2-55.8-136.2 55.8-55.8 136.2v128q-2.1 21-17.9 27.6t-31.3-2.5-14.8-25.1z m95.7 79.8v-159.7q0-7.2 4.7-11.3t11.2-4.6h31.8q7.1 0 11.2 4.6t4.6 11.3v159.7q0 7.2-4.6 11.3t-11.2 4.6h-31.8q-7.2 0-11.2-4.6t-4.7-11.3z m256 0v-159.7q0-7.2 4.7-11.3t11.2-4.6h31.8q7.1 0 11.2 4.6t4.6 11.3v159.7q0 7.2-4.6 11.3t-11.2 4.6h-31.8q-7.2 0-11.2-4.6t-4.7-11.3z" /></svg>