<svg height="512" width="487.9" xmlns="http://www.w3.org/2000/svg"><path d="m0.5 168.4q3.6-58.8 40.5-97.7h1l1-1.1q45.1-38.9 101.9-38.9t97.8 35.9q15.9-13.9 33.8-23.1l1-1h1q29.2-11.8 59.9-11.8 45.1-1 82.5 22.5t56.3 63.5v1.1l1 2q14.9 53.8 5.1 102.9t-40.9 90.1q-31.8 45.1-83 88.1 0 1-1 1-25.1 23.1-54.8 46.1-16.9 12.8-30.2 21-16.9 11.8-28.2 11.8l-3 1-3.1-1q-13.8-2.1-30.2-14.9-5.1-3.1-10.8-8.7t-8.1-6.6h-1.1q-125.9-95.8-167.9-174.1v-1q-25.1-48.2-21.5-107.1z m43.5 5.2q-3 44 16.9 82.9 37.9 69.1 155.2 159.2h1q3.1 3.1 9.7 8.2t9.7 7.2q4.1 3.1 8.2 5.1 4.1-1 7.2-3 10.8-7.2 26.1-19 30.2-22 53.8-45 48.1-41 76.8-82 54.8-73.2 30.2-153.1-13.8-29.1-40-45t-57.8-14.9q-22 0-44 9.3-20 10.7-34.9 29.1l-15.8 22.1-17.9-22.1q-27.2-32.7-72.8-36.8t-82.4 27.1q-25.1 28.2-28.1 72.2z" /></svg>