<svg height="512" width="491.5" xmlns="http://www.w3.org/2000/svg"><path d="m0 466.9q0-11.2 8.2-19.4l127-128q9.2-8.2 20.4-8.2t19.5 8.2q8.2 9.2 8.2 21t-8.2 19.9l-127 128q-21 18-39.9 0-8.2-10.2-8.2-21.5z m64-244.7q2-67.1 46.1-112.1 48.1-46.1 112.1-47.1 66.1 2 111.1 47.1 46.1 48.1 46.1 112.1 0 26.1-5.6 42.5t-18.5 38.4q-5.1 11.8-21 31.2t-21 27.2q-3 9.2-3.5 19.9t0.5 24.6 1 21.5q-1 46.1-28.2 68.1-27.1 14.9-57.8 14.9-10.8-1.1-17.9-8.2t-7.7-16.9 6.6-17.9q5.2-5.2 10.8-7.2t13.3-2.1 11.8-2q12.8-4.1 13.8-8.2 3.1-10.2 3.1-30.2 1-5.1 0-30.7t2-29.7q5.1-21 14.9-34.8 3-3.1 8.2-9.3t8.2-9.2l15.8-24q3.1-4.1 7.7-12.3t6.7-11.3q6.1-15.9 6.1-34.8-1-46.1-31.2-75.8-32.8-31.2-74.8-31.2-45 1-74.7 31.2-31.3 32.8-31.8 75.8 0 10.7-7.1 18.4t-18 7.7q-10.7-1-18.4-8.7t-7.7-17.4z m78.8 4.1q1.1-33.8 23.1-55.8 24.1-23 55.8-24.1 32.8 2.1 54.8 24.1 23 24.1 24 55.8-1 10.2-7.1 15.9t-14.9 6.1q-21-2-21-22-1-14.8-11.2-25.6t-24.6-10.7q-14.9 1-25.6 11.2t-10.8 24.6q-1 10.2-7.1 15.9t-14.9 6.1q-21-2-21-22z m222.3-127.5q0-11.2 9.2-19.4l69.1-70.2q10.2-8.2 21-8.2t18.9 8.2q9.2 9.2 8.7 20.5t-8.7 19.5l-69.1 70.1q-21 18.9-39.9 0-9.2-9.2-9.2-20.5z" /></svg>