<svg height="512" width="512.0" xmlns="http://www.w3.org/2000/svg"><path d="m0 256q0-106 74.8-180.7t180.7-74.8 180.7 74.8 74.8 180.7-74.8 180.7-180.7 74.8-180.7-74.8-74.8-180.7z m191-33.8l4.1 20 17.9-4.1q12.8 0 12.8 17.9v124.9q0 10.3-7.2 14.9-9.2 6.1-27.1 10.2l4.1 17.9q43-4.1 60.4-4.1t60.4 4.1l4.1-17.9q-17.9-5.1-27.1-10.2-5.1-3.1-6.2-6.2-1-2-1-9.2v-122.9q0-25.1 8.2-46l-10.2-11.8q-15.9 0-46.1 7.1t-48.1 14.9z m17.9-99.3q0 15.3 10.2 25.6 10.8 9.2 29.2 9.2t29.2-9.7 10.8-25.1-10.8-25.1-29.2-9.7-29.2 9.2q-10.2 10.2-10.2 25.6z" /></svg>