<svg height="512" width="512.0" xmlns="http://www.w3.org/2000/svg"><path d="m0 242.2q0-28.2 18.4-45.6t47.6-19.4q112.2-1.1 139.8-1.1-23-48.1-9.2-87 10.2-28.2 39.9-42t58.9-2q10.8 11.7 15.4 40.4t9.7 39.4q7.2 11.8 17.9 21 10.8 8.2 30.2 29.2t31.3 30.2h78.8q12.8 0 22.5 9.7t10.8 22.6v178.1q0 12.8-9.7 22.6t-23.6 10.7h-87q-13.8 0-48.1 7.7t-63.5 12.3-59.9 4.1-50.2-20-21.5-55.8q-22-26.1-16.9-60.9-8.2-12.8-10.8-29.2h-54.8q-27.1-1-46.5-18.9t-19.5-45.1z m32.8 0q1 11.8 10.2 21t23 10.2h97.8q-25 25.1 5.2 54.8-8.2 12.8-3.6 30.2t18.4 24.1q-5.1 31.7 9.7 46.6t42.5 13.3 55.8-6.7 58.9-12.8 43-7.7v-178.1h-2q-19-8.2-44.6-35.9t-34.3-34.8q-12.8-10.8-21-27.6t-10.7-28.7-6.7-34.8q0-2.1-0.5-3.6t-2.5-2.6q-10.8-2-24.1 5.1-17.9 10.8-21.5 29.7t2 33.8 13.9 37.4 10.7 33.8h-186.9q-13.8 1-23 9.7t-10.2 23.6z" /></svg>