<svg height="512" width="512.0" xmlns="http://www.w3.org/2000/svg"><path d="m0 256q0-106 74.8-180.7t180.7-74.8 180.7 74.8 74.8 180.7-74.8 180.7-180.7 74.8-180.7-74.8-74.8-180.7z m144.9 73.2q10.2 9.2 22 15.9 27.1 17.9 58.9 24.1v-10.8h59.9v10.8q31.7-6.2 58.9-24.1 11.8-7.2 22-15.9v-94.2h-22v83q-38.9 31.7-89.1 31.7t-89.1-31.7v-83h-22v94.2z m35.8-30.2q32.8 27.1 74.8 27.1t74.7-27.1v-182.8q-10.2-8.2-23-13.8v36.9h-17.9v-45.1q-11.8-3.1-25.1-4.1v49.2h-17.9v-49.2q-12.8 0-25.1 4.1v45.1h-17.9v-37.9q-12.8 7.1-23.1 14.8v182.8z m8.2 122.9h134.2v-22h-36.9v-31.3q-14.8 3.1-30.2 3.1t-30.2-3.1v31.3h-36.9v22z" /></svg>