<svg height="512" width="342.0" xmlns="http://www.w3.org/2000/svg"><path d="m0 368.1v-143.8h32.8v126.9q60.9 49.2 138.2 49.2t138.2-49.2v-126.9h32.8v143.8q-15.9 13.9-32.8 26.1-41.9 27.2-91.1 35.9v-15.9h-94.2v15.9q-49.1-9.2-91.1-35.9-16.9-11.7-32.8-26.1z m55.8-46.1v-281q14.9-12.8 34.8-23.1v57.9h28.2v-69.1q18.9-6.2 37.9-7.2v75.8h28.1v-75.8q19 2 38.9 7.2v69.1h28.2v-56.9q18.9 9.3 33.8 22.1v281q-50.2 41-115.2 41t-115.2-41z m12.8 155.2h54.8v-47.1q23 4.1 47.1 4.1t47.1-4.1v47.1h54.8v34.8h-203.8v-34.8z" /></svg>