<svg height="512" width="476.2" xmlns="http://www.w3.org/2000/svg"><path d="m0 257v-2q118.8-10.3 187.9-58.9 22 10.2 44-1 47.1 47.1 97.8 62.9 6.2 14.9 19 24.1-15.9 38.9-44.1 69.1-21-14.8-44.5-7.1t-32.3 30.2q-67 0-128-28.2t-98.8-77.8q-1-3.1-1-10.8z m3.1-35.8q10.2-65 51.2-115.7t100.8-72.7q4.1 43 19 78.8-26.1 27.2-10.8 59.9-67 41-159.7 49.2z m7.1 106q45.1 38.9 101.9 60.4t115.2 21.5q-71.1 35.8-138.7 31.7-55.8-46-77.8-114.1z m129.1 145.9q57.8-8.2 109-36.9 24.1 12.8 48.1 2.1t30.3-35.9q79.8-16.9 135.1-61.9-18.9 47.1-54.2 82.4t-78.9 53.3-93.2 17.9-95.7-21z m50.1-450.1q45.1-10.2 92.2-1-14.8 43-47.1 83-21-9.3-28.2-6.2-16.9-40.9-16.9-75.8z m66.1 147q8.2-20 1-38.9 43-53.3 57.9-99.9 31.2 10.3 54.8 27.2 9.2 68.1 2 131-31.2 5.2-42 32.8-34.8-12.8-74.2-52.2z m84 194q27.1-31.7 43-74.2 24-3.1 36.8-21 38.9-3.1 56.9-6.1 0 3-0.6 7.6t-0.5 6.7q-49.1 64-136.2 87z m66-166.9q6.1-56.8 2.1-108 56.8 58.9 67 138.7-19.9 5.2-46.1 6.2-3-24.1-23-36.9z" /></svg>