<svg height="512" width="476.2" xmlns="http://www.w3.org/2000/svg"><path d="m0 197.1q2-88 67.1-141.8 69.1-53.8 171-54.8 107 2.1 172 53.8 31.8 27.1 48.7 65t17.4 77.8q-2.1 84-64 135.2-65.1 51.2-169 52.2v31.2q-1 29.2-16.9 53.3t-41 35.8q-16.9 8.2-36.8 8.2-24.1 0-48.1-11.8v-89q20.9 14.8 38.9 10.2 16.9-7.2 16.9-25.1v-245.7h87v153q30.2 0 56.8-6.1 41-10.2 64-30.2 30.2-29.2 30.2-70.2 0-58.8-49.1-90.1-45.1-26.1-107-26.1-65 2.1-108.1 28.2-23 14.8-35.3 38.4t-12.3 49.6q4.1 53.8 24.1 73.3l-54.8 58.8q-24.1-24-37.9-61.9-11.8-39.9-12.8-70.2z" /></svg>