<svg height="512" width="512.0" xmlns="http://www.w3.org/2000/svg"><path d="m0 256q0-106 74.8-180.7t180.7-74.8 180.7 74.8 74.8 180.7-74.8 180.7-180.7 74.8-180.7-74.8-74.8-180.7z m101.9-82.9q-2.1 26.1 21 73.2 35.8 68.1 117.2 126.9 54.8 35.9 98.8 36.9 14.9 0 24.1-8.2l43-44q5.1-5.1 4.1-11.8t-8.2-11.8l-63-36.8q-10.2-6.2-23 3l-17.9 19q-3.1 3.1-9.2 1-6.2-1-12.3-4.1t-12.8-8.2-10.8-8.7-10.7-10.7-10.3-9.2q-32.7-31.3-40.9-61 0-2 2-5.1l15.9-15.9q9.2-9.2 4.1-22l-34.8-66q-6.2-9.2-13.8-8.2-5.2 0-10.3 4.1l-43 44q-9.2 8.2-9.2 23z" /></svg>