<svg height="512" width="512.0" xmlns="http://www.w3.org/2000/svg"><path d="m0 249.9q0-11.8 4.6-22.6t12.3-18.9 18.4-12.8 23.6-4.6q22 0 37.9 14.8 30.2-18.9 69.1-30.7t82.9-12.3l41-117.2 99.8 24q5.2-12.8 16.9-21.5t27.2-8.7q19.9 0 34.3 13.8t14.3 33.8-14.3 33.8-33.8 13.9-33.8-13.9-14.4-33.8l-83.9-19.9-33.8 95.2q43 2.1 79.9 13.3t66 29.7q16.9-14.8 38.9-14.8 11.8 0 23.1 4.6t18.9 12.8 12.3 18.9 4.6 22.5q0 15.9-7.7 29.2t-20.5 21q2.1 9.2 2.1 17.9 0 31.3-17.9 59.4t-49.7 49.7-73.7 32.8-90.1 11.7q-47.1 0-89.1-11.7t-73.8-32.8-49.6-49.7-17.9-59.4q0-5.1 1-10.2 0-5.1 1-9.2-11.8-8.2-19.4-20.5t-7.7-28.7z m44 68.1q0 28.1 16.4 52.7t45.1 43 67.6 29.2 82.4 10.7 81.9-10.7 67.6-29.2 45.6-43 16.3-52.7-16.3-53.3-45.6-43.5-67.6-29.2-81.9-10.8-82.4 10.8-67.6 29.2-45.1 43.5-16.4 53.3z m101.9-27.7q0-14.3 10.8-25.6t26.1-10.7 25.6 10.7 10.7 25.6-10.7 25.1-25.6 10.7-26.1-10.7-10.8-25.1z m27.2 84.5q6.1-5.1 16.9 4.1 3 3.1 6.6 5.1t7.7 3.6 6.6 2.5 7.2 2.1 6.7 1.5 7.6 1.6 7.2 1 8.2 0.5 8.7 0.5q38.9-2 68.1-17.9 10.8-10.2 17.9-4.1 5.1 9.2-6.1 17.9-30.2 23.1-79.9 23.1-53.7-1.1-77.8-23.1-12.8-10.2-4.1-17.9z m123.9-85q0-14.9 10.7-25.6t26.1-10.8 26.1 10.8 10.8 25.6-10.8 25.6-26.1 10.7-26.1-10.7-10.7-25.6z" /></svg>