<svg height="512" width="361.0" xmlns="http://www.w3.org/2000/svg"><path d="m0 330.8q1-53.8 29.2-96.8 9.2-13.8 28.7-41t27.6-39.9q46.1-71.2 65-131.1 8.2-23 30.2-21 24.1-1 30.2 21 19 60.9 66.1 131.1 9.2 14.8 28.2 40.9t28.1 40q28.2 45 29.2 96.8-2.1 75.7-53.3 128-53.7 52.2-128 53.2-75.7-2-126.9-53.2-53.3-54.8-53.3-128z m78.8 39.9q1.1 18.9 13.9 31.7t31.2 12.8q18.9-1 31.7-13.8t12.8-31.2q0-13.8-7.1-24.1-9.2-11.8-13.8-21-12.8-21-16.9-31.7-1.1-7.2-7.2-6.2-6.2-1-8.2 6.2-4.1 13.8-14.8 31.7-3.1 5.1-8.2 11.3t-7.2 9.7q-7.2 10.3-7.2 24.1z" /></svg>