<svg height="512" width="432.6" xmlns="http://www.w3.org/2000/svg"><path d="m0 220.7q1-30.7 20-50.2t55.8-21.5q26.1-22 60.9-16.9 12.8-8.2 29.2-10.8v-54.7q1-27.2 18.9-46.6t45.1-19.5q28.1 0 45.6 18.4t19.4 47.7q1 112.1 1 139.7 48.2-23 87.1-9.2 28.1 10.3 42 40t2 58.8q-11.8 10.8-40.4 15.4t-39.5 9.7q-11.7 7.2-21 17.9-8.1 10.8-29.1 30.3t-30.2 31.2v78.8q0 12.8-9.8 22.6t-22.5 10.7h-178.2q-12.8 0-22.5-9.7t-10.8-23.6v-87q0-13.8-7.6-48.1t-12.3-63.5-4.1-59.9z m30.2 15.3q1 28.2 6.7 55.8t12.8 58.9 7.6 43h178.2v-2q8.2-19 35.9-44.6t34.8-34.3q10.7-12.8 27.6-21t28.7-10.7 34.8-6.7q2.1 0 3.6-0.5t2.6-2.5q2-10.8-5.2-24.1-10.7-17.9-29.7-21.5t-33.8 2-37.3 13.9-33.8 10.7v-186.9q-1-13.8-9.7-23t-23.6-10.2q-11.8 1-21 10.2t-10.2 23v97.8q-25.1-25.1-54.8 5.1-12.8-8.1-30.2-3.5t-24.1 18.4q-31.7-5.1-46.6 9.7t-13.3 42.5z" /></svg>