<svg height="512" width="512.0" xmlns="http://www.w3.org/2000/svg"><path d="m0 512v-512h512v512h-512z m68.1-307.2q1 2 4.1 6.1t4.1 5.2q6.1 6.1 18.9 2 12.8-5.1 21-4.6t14.9 13.3q13.8 37.9 37.9 129 15.8 52.3 38.9 62 12.8 3.1 26.6 0t23.5-9.2q61-38.9 109.1-121.9 1-2 13.3-26.1t16.9-34.8 11.3-31.2 6.1-34.3-9.2-24.6q-27.1-21-55.3-13.3t-51.7 29.7-31.7 48.1q25 0 30.2 2 14.8 8.2 12.8 32.8-6.2 26.1-19 51.2t-30.2 28.2q-7.2 0-14.8-9.2-10.3-11.8-13.9-25.6t-6.6-36.4-3.6-28.2q0-1-2.6-15.8t-4.1-21.5-5.6-18-10.2-17.9-13.9-9.7q-33.7-5.1-79.8 37.9-19 16.9-37.9 32.8v2z" /></svg>