<svg height="512" width="512.0" xmlns="http://www.w3.org/2000/svg"><path d="m0 512v-512h512v512h-512z m50.2-358.9q1 13.8 10.2 33.8 24.1 51.2 73.2 120.8 18 20 27.7 29.2t25.6 20 35.3 14.3 45.6 2.6q8.2-1.1 11.2-1.6t8.7-4.6 6.2-11.8l2-26.1q3.1-10.7 13.3-10.2t14.4 8.2q7.2 11.8 27.1 30.2t33.8 16.9l66.1-3.1q9.2 0 11.2-8.7t-4.6-19.4q-14.8-22.1-53.2-56.9-18-16.9 7.1-45 18-20 37.4-50.2t12.3-38.9q-4.1-4.1-6.1-4.6t-12.8-0.5h-62q-10.2 0-12.3 1.5t-6.6 10.7l-1.6 3.1t-6.1 12.3-7.2 15.4-7.2 13.8-9.2 14.8-8.7 11.8-10.7 11.3-10.8 7.7q-5.1-2.1-8.2-10.3t-3-19.4 0.5-22.1 1.5-22 1-14.3q0-24.1-30.2-24.1-1 0-13.8-1t-22-1q-35.9 0-42 15.9 26.1 8.1 25.1 38.9 0 49.1-2.1 49.1-5.1 20-21 5.1-24-31.2-49.1-87-6.2-11.8-15.9-10.8-4.1 0-25.1-0.5t-31.7 0.5-14.9 5.2z" /></svg>