<svg height="512" width="512.0" xmlns="http://www.w3.org/2000/svg"><path d="m0 392.2v-392.2h512v392.2l-256 119.8z m43-236l31.8 140.8q2 7.1 9.2 7.1h24q7.2 0 9.2-7.1l11.8-57.9 10.8 57.9q2 7.1 9.2 7.1h25.1q7.1 0 9.2-7.1l31.2-140.8q1.1-5.2-1.5-8.2t-6.7-3.1h-26.1q-7.1 0-8.2 7.2l-11.7 61.9-12.8-61.9q-2.1-7.2-9.3-7.2h-18.9q-7.2 0-8.2 7.2l-12.8 61.9-12.8-61.9q-1-7.2-8.2-7.2h-26.1q-10.2 0-8.2 10.7z m176.1 123.9q19 26.1 53.3 27.1 23-1 38.9-14.8t15.9-34.9q-1.1-22-16.9-34.8 14.8-13.8 14.8-31.7-1-23.1-16.4-34.8t-36.3-11.8q-32.8 0-51.2 26.1-4.1 6.1 1 11.8l13.8 12.8q7.2 6.1 12.8-1.1 9.2-11.7 21-11.7 10.3 0 11.8 5.1 3.1 6.1 0 12.8-4.1 5.1-23 5.1-10.3 0-10.3 8.2v21q1 10.7 10.3 9.2 23 0 25 5.1t2.1 8.2q0 12.8-13.8 12.8-14.9 0-24.1-12.8-6.1-8.2-12.8-1l-14.8 14.8q-5.2 5.2-1.1 10.8z m118.8-54.8q0 36.8 18.5 59.4t48.6 22.5q35.8 0 53.2-37.9 2.1-10.2-5.1-11.8l-18.9-9.2q-3.1-1-7.2 0.5t-5.1 4.6q-6.2 14.9-16.9 14.9t-17.9-11.8-7.2-31.7 7.2-31.8 17.9-11.8q10.7 1.1 16.9 13.9 4.1 7.1 11.8 5.1l18.9-9.2q9.2-5.1 5.1-12.8-16.9-35.9-53.2-35.9-30.2 0-48.7 23.1t-18.4 59.9z" /></svg>