<svg height="512" width="512.0" xmlns="http://www.w3.org/2000/svg"><path d="m0 256q2-107 77.3-180.7t178.7-74.8q106 2.1 180.7 77.3t75.3 178.7q-2 106-77.3 180.7t-178.7 75.3q-107-2-180.7-77.3t-74.8-178.7z m17.9 0q1 98.8 71.7 167.9t166.4 70.2q98.8-2.1 167.9-72.2t70.2-165.9q-2.1-98.8-72.2-167.9t-165.9-70.2q-98.8 2.1-168.4 72.2t-69.7 165.9z m21 15.4q-4.1-55.3 16.9-102.4l105 283.1q-55.8-28.2-89.1-78.9-29.2-46-32.8-101.3z m34.8-135.7q31.8-46.1 80.4-71.7t101.4-26.6q86 2 146.9 56.8-24-1-35.8 20-2.1 12.8-3.1 19.9t3.6 18 7.7 16.9 9.2 15.8l9.2 14.9q16.9 31.7 4.1 74.2l-31.7 112.1-78.9-235q22-2 24.1-2 6.1-2.1 7.7-7.2t-3.6-8.2q-3.1-3-6.2-3l-48.1 4.1h-35.8q-2.1 0-13.3-2.1t-19-1-8.7 7.2q-2 8.1 7.2 10.2 16.9 2 24 3.1l34.9 92.1-48.2 141.8-79.8-235q22-2 25-2 9.3-1 8.2-10.2-2-8.2-10.2-8.2-35.8 5.1-70.1 4.1z m119.8 329.2l66.1-187.9 68.1 183.8q-67.1 23-134.2 4.1z m171-20q3.1-10.2 10.8-31.7l60.9-177.2q8.2-25.1 11.8-56.8 1-13.8-1-25.1 38.9 83 16.9 159.8-26.1 88-99.9 131z" /></svg>