<svg height="512" width="512.0" xmlns="http://www.w3.org/2000/svg"><path d="m0 368.1q0-46.1 32.8-78.8t78.8-32.8q9.2 0 15.9 1 39.9-54.7 108-64-9.2-31.2-0.5-65t32.3-57.8q19.9-20 48.1-30.3 9.7-4 16.9 3.6t4.1 16.4q-10.3 26.6-4.1 53.3t25.6 46.6q20 19.9 46.6 26.1 27.1 6.1 53.7-4.1 9.3-3.1 16.4 4.1 7.7 7.1 3.6 16.9-10.2 28.1-30.2 48.1-4.1 4.1-13.8 10.7 33.8 10.8 55.3 40t21.5 66q0 46.1-32.8 78.9t-78.8 32.7q-21 0-40-7.1-45 38.9-103.9 38.9t-103.9-38.9q-19 7.1-40 7.1-46.1 0-78.8-32.7t-32.8-78.9z m264.7-227.8q-6.1 28.1 4.1 52.7 68.6 4.6 112.1 59.9 33.3-8.2 52.8-32.7-56.9 3-97.8-37.4-41-41-36.9-97.3-3.6 2.6-8.2 7.2-20 19.9-26.1 48.1z" /></svg>