<svg height="512" width="512.0" xmlns="http://www.w3.org/2000/svg"><path d="m0 368.1q0-45 31.2-77.3t76.3-34.3q-11.8-23-11.8-48.1 0-46.1 32.8-78.9t78.9-32.7q45.5 0 78.3 31.7 32.3 31.2 33.3 77.8 38.9 16.9 64 51.2 7.1-1 15.8-1 46.1 0 78.9 32.8t32.8 78.8-32.8 78.9-78.9 32.7q-20.9 0-39.9-7.1-45 38.9-103.9 38.9t-104-38.9q-18.9 7.1-39.9 7.1-46.1 0-78.8-32.7t-32.8-78.9z m0-159.7q0-7.2 4.6-11.3t11.3-4.6h31.7q7.2 0 11.3 4.6t4.6 11.3-4.6 11.2-11.3 4.7h-31.7q-7.2 0-11.3-4.7t-4.6-11.2z m31.7 159.7q0 32.8 23.6 56.3t56.3 23.6q25.1 0 46.1-14.8 38.9 47.1 97.8 47.1t97.8-47.1q21 14.8 46.1 14.8 32.7 0 56.3-23.6t23.5-56.3-23.5-56.3-56.3-23.5q-15.9 0-30.2 6.1-19-35.8-54.8-54.8-14.4-8.2-30.2-10.7-14.4-4.1-29.2-4.1-58.9 0-97.8 46-9.7 11.8-15.9 24.1-0.5 0-8.2-2-11.8-4.1-22-4.1-32.8 0-56.3 23.5t-23.6 56.3z m29.2-283.6q-5.6-6.2-5.6-11.8t5.6-11.3 11.3-5.6 11.8 5.6l22 23.1q5.6 5.6 5.6 10.7t-5.6 10.8-10.8 5.6l-10.7-5.6z m67.1 123.9q0 19.4 10.2 36.8 47.1-52.7 117.8-52.7 13.8 0 31.2 3.1-5.1-29.2-27.1-48.1t-52.2-19q-32.8 0-56.3 23.6t-23.6 56.3z m64-159.8v-31.7q0-7.2 4.6-11.3t11.3-4.6 11.2 4.6 4.6 11.3v31.7q0 7.2-4.6 11.3t-11.2 4.6-11.3-4.6-4.6-11.3z m117.8 57.9q-5.7-5.6-5.7-10.8t5.7-10.7l22-23q6.1-5.7 11.8-5.7t11.2 5.7 5.6 11.2-5.6 11.8l-23 22q-5.7 5.6-10.8 5.6z m41.9 101.9q0-7.2 4.7-11.3t11.2-4.6h31.8q7.1 0 11.2 4.6t4.6 11.3-4.6 11.2-11.2 4.7h-31.8q-7.2 0-11.2-4.7t-4.7-11.2z" /></svg>