<svg height="512" width="512.0" xmlns="http://www.w3.org/2000/svg"><path d="m0 368.1q0-45 31.2-77.3t76.3-34.3q-11.8-23-11.8-48.1 0-46.1 32.8-78.9t78.9-32.7q45.5 0 78.3 31.7 32.3 31.2 33.3 77.8 38.9 16.9 64 51.2 7.1-1 15.8-1 46.1 0 78.9 32.8t32.8 78.8-32.8 78.9-78.9 32.7q-20.9 0-39.9-7.1-45 38.9-103.9 38.9t-104-38.9q-18.9 7.1-39.9 7.1-46.1 0-78.8-32.7t-32.8-78.9z m0-159.7q0-7.2 4.6-11.3t11.3-4.6h31.7q7.2 0 11.3 4.6t4.6 11.3-4.6 11.2-11.3 4.7h-31.7q-7.2 0-11.3-4.7t-4.6-11.2z m60.9-123.9q-10.7-11.8 0-23.1t23.1 0l22 23.1q10.7 10.7 0 22t-22 0z m67.1 123.9q0 19.4 10.2 36.8 47.1-52.7 117.8-52.7 13.8 0 31.2 3.1-5.1-29.2-27.1-48.1t-52.2-19q-32.8 0-56.3 23.6t-23.6 56.3z m64-159.8v-31.7q0-7.2 4.6-11.3t11.3-4.6 11.2 4.6 4.6 11.3v31.7q0 7.2-4.6 11.3t-11.2 4.6-11.3-4.6-4.6-11.3z m117.8 57.9q-10.8-10.8 0-22l22-23.1q11.8-10.7 23 0t0 23.1l-23 22q-10.8 10.7-22 0z m41.9 101.9q0-7.2 4.7-11.3t11.2-4.6h31.8q7.1 0 11.2 4.6t4.6 11.3-4.6 11.2-11.2 4.7h-31.8q-7.2 0-11.2-4.7t-4.7-11.2z" /></svg>