<svg height="512" width="512.0" xmlns="http://www.w3.org/2000/svg"><path d="m0 208.4q0-46.1 32.8-78.9t78.8-32.7q9.2 0 15.9 1 22-31.2 55.8-48.1 34.3-16.9 72.2-16.9t72.2 16.9q33.8 16.9 55.8 48.1 7.2-1 15.9-1 46 0 78.8 32.7t32.8 78.9-32.8 78.8-78.8 32.8q-21 0-40-7.2-45 38.9-103.9 38.9t-103.9-38.9q-19 7.2-40 7.2-46.1 0-78.8-32.8t-32.8-78.8z m31.7 0q0 32.8 23.6 56.3t56.3 23.6q25.1 0 46.1-14.9 38.9 47.1 97.8 47.1t97.8-47.1q21 14.9 46.1 14.9 32.7 0 56.3-23.6t23.5-56.3-23.5-56.3-56.3-23.6q-15.9 0-30.2 6.2-16.9-31.8-47.2-51.2-29.6-19-67-19t-67.1 19q-30.2 19.4-47.1 51.2-13.8-6.2-30.2-6.2-32.8 0-56.3 23.6t-23.6 56.3z m192 239.6q0-17.9 31.8-64l8.2 11.8q9.2 13.8 15.9 28.1 8.1 16.4 8.1 24.1 0 12.8-9.7 22.5t-22.5 9.8-22.5-9.8-9.8-22.5z" /></svg>