<svg height="512" width="512.0" xmlns="http://www.w3.org/2000/svg"><path d="m48.1 431.1q0-7.2 4.6-11.3t11.3-4.6h384q7.2 0 11.3 4.6t4.6 11.3-4.6 11.3-11.3 4.6h-384q-7.2 0-11.3-4.6t-4.6-11.3z m0-64q0-7.2 4.6-11.3t11.3-4.6h384q7.2 0 11.3 4.6t4.6 11.3-4.6 11.3-11.3 4.6h-384q-7.2 0-11.3-4.6t-4.6-11.3z m0-64q0-7.2 4.6-11.3t11.3-4.6h384q7.2 0 11.3 4.6t4.6 11.3-4.6 11.3-11.3 4.6h-384q-7.2 0-11.3-4.6t-4.6-11.3z m0-64q0-7.2 4.6-11.3t11.3-4.6h31.7q7.2 0 11.3 4.6t4.6 11.3-4.6 11.3-11.3 4.6h-31.7q-7.2 0-11.3-4.6t-4.6-11.3z m61-123.9q-5.7-6.1-5.7-11.8t5.7-11.2 11.2-5.7 11.8 5.7l22 23q5.6 5.6 5.6 10.8t-5.6 10.7-10.7 5.6l-10.8-5.6z m34.8 123.9q0-46.1 32.7-78.8t78.9-32.8 78.8 32.8 32.8 78.8q0 4.6-2 15.9h-31.8q2.1-8.7 2.1-15.9 0-32.8-23.6-56.3t-56.3-23.6-56.3 23.6-23.6 56.3q0 7.7 2.1 15.9h-31.8q-2-11.3-2-15.9z m95.7-159.7v-31.8q0-7.2 4.6-11.2t11.3-4.7 11.3 4.7 4.6 11.2v31.8q0 7.1-4.6 11.2t-11.3 4.6-11.3-4.6-4.6-11.2z m117.8 57.8q-5.7-5.6-5.7-10.7t5.7-10.8l22-23q6.1-5.7 11.8-5.7t11.2 5.7 5.7 11.2-5.7 11.8l-23 22q-5.6 5.7-10.8 5.7z m42 101.9q0-7.2 4.6-11.3t11.2-4.6h31.8q7.1 0 11.2 4.6t4.6 11.3-4.6 11.3-11.2 4.6h-31.8q-7.1 0-11.2-4.6t-4.6-11.3z" /></svg>