<svg height="512" width="512.0" xmlns="http://www.w3.org/2000/svg"><path d="m0 432.1q0-7.1 4.6-11.2t11.3-4.6h479.7q7.2 0 11.3 4.6t4.6 11.2-4.6 11.3-11.3 4.6h-479.7q-7.2 0-11.3-4.6t-4.6-11.3z m0-64q0-7.1 4.6-11.2t11.3-4.6h479.7q7.2 0 11.3 4.6t4.6 11.2-4.6 11.3-11.3 4.6h-479.7q-7.2 0-11.3-4.6t-4.6-11.3z m0-64q0-7.1 4.6-11.2t11.3-4.6h479.7q7.2 0 11.3 4.6t4.6 11.2-4.6 11.3-11.3 4.6h-479.7q-7.2 0-11.3-4.6t-4.6-11.3z m0-64q0-46.1 32.8-78.8t78.8-32.8q9.2 0 15.9 1 22-31.2 55.8-48.1 34.3-16.9 72.2-16.9t72.2 16.9q33.8 16.9 55.8 48.1 7.2-1 15.9-1 46 0 78.8 32.8t32.8 78.8q0 4.6-2.1 15.9h-31.7q2-8.7 2-15.9 0-32.7-23.5-56.3t-56.3-23.5q-15.9 0-30.2 6.1-16.9-31.7-47.2-51.2-29.6-18.9-67-18.9t-67.1 18.9q-30.2 19.5-47.1 51.2-13.8-6.1-30.2-6.1-32.8 0-56.3 23.5t-23.6 56.3q0 7.7 2.1 15.9h-31.8q-2-11.3-2-15.9z" /></svg>