<svg height="512" width="512.0" xmlns="http://www.w3.org/2000/svg"><path d="m95.7 335.9q0-7.2 4.7-11.3t11.2-4.6h287.8q7.1 0 11.2 4.6t4.6 11.3-4.6 11.2-11.2 4.6h-287.8q-7.2 0-11.2-4.6t-4.7-11.2z m0-64q0-7.2 4.7-11.3t11.2-4.6h287.8q7.1 0 11.2 4.6t4.6 11.3-4.6 11.2-11.2 4.6h-287.8q-7.2 0-11.2-4.6t-4.7-11.2z m0-64q0-7.2 4.7-11.3t11.2-4.6h287.8q7.1 0 11.2 4.6t4.6 11.3-4.6 11.2-11.2 4.6h-287.8q-7.2 0-11.2-4.6t-4.7-11.2z m0-64q0-7.2 4.7-11.3t11.2-4.6h287.8q7.1 0 11.2 4.6t4.6 11.3-4.6 11.2-11.2 4.6h-287.8q-7.2 0-11.2-4.6t-4.7-11.2z" /></svg>