<svg height="512" width="512.0" xmlns="http://www.w3.org/2000/svg"><path d="m0 176.1q0-46.1 32.8-78.8t78.8-32.8q9.2 0 15.9 1 22-31.2 55.8-48.1 34.3-16.9 72.2-16.9t72.2 16.9q33.8 16.9 55.8 48.1 7.2-1 15.9-1 46 0 78.8 32.8t32.8 78.8-32.8 78.9-78.8 32.7q-21 0-40-7.1-45 38.9-103.9 38.9t-103.9-38.9q-19 7.1-40 7.1-46.1 0-78.8-32.7t-32.8-78.9z m31.7 0q0 32.8 23.6 56.3t56.3 23.6q14.4 0 28.2-5.1l17.9-7.2 14.8 12.8q35.9 31.2 83 31.2t82.9-31.2l14.9-12.8 17.9 7.2q13.3 5.1 28.2 5.1 32.7 0 56.3-23.6t23.5-56.3-23.5-56.3-56.3-23.5q-6.7 0-10.8 1l-18.9 3.1-11.8-15.9q-37.9-52.2-101.9-52.2t-101.9 52.2l-11.8 15.9-18.9-3.1q-4.1-1-10.8-1-32.7 0-56.3 23.5t-23.5 56.3z m31.8 176.2q0-12.8 9.7-22.6t22.5-9.7 22.1 10.2q10.2 9.3 10.2 22.1t-9.7 22.5-22.6 9.7-22.5-9.7-9.7-22.5z m64 128q0-12.8 9.7-22.6t22.5-9.7 22.1 10.2q10.2 9.3 10.2 22.1t-9.7 22.5-22.6 9.7-22.5-9.7-9.7-22.5z m95.7-95.8q0-12.8 9.8-22.5t22.5-9.7 22 10.2q10.2 9.2 10.2 22t-9.7 22.5-22.5 9.8-22.5-9.8-9.8-22.5z m95.8 95.8q0-12.8 9.7-22.6t22.5-9.7 22 10.2q10.3 9.3 10.3 22.1t-9.7 22.5-22.6 9.7-22.5-9.7-9.7-22.5z m64-128q0-12.8 9.7-22.6t22.5-9.7 22 10.2q10.3 9.3 10.3 22.1t-9.7 22.5-22.6 9.7-22.5-9.7-9.7-22.5z" /></svg>