<svg height="512" width="512.0" xmlns="http://www.w3.org/2000/svg"><path d="m0 176.1q0-46.1 32.8-78.8t78.8-32.8q9.2 0 15.9 1 22-31.2 55.8-48.1 34.3-16.9 72.2-16.9t72.2 16.9q33.8 16.9 55.8 48.1 7.2-1 15.9-1 46 0 78.8 32.8t32.8 78.8-32.8 78.9-78.8 32.7q-21 0-40-7.1-45 38.9-103.9 38.9t-103.9-38.9q-19 7.1-40 7.1-46.1 0-78.8-32.7t-32.8-78.9z m64 176.2q0-12.8 9.7-22.6t22.6-9.7 22 10.2q10.2 9.3 10.2 22.1t-9.7 22.5-22.5 9.7-22.6-9.7-9.7-22.5z m64 128q0-12.8 9.7-22.6t22.6-9.7 22 10.2q10.2 9.3 10.2 22.1t-9.7 22.5-22.5 9.7-22.6-9.7-9.7-22.5z m95.7-95.8q0-12.8 9.8-22.5t22.5-9.7 22 10.2q10.3 9.2 10.3 22t-9.8 22.5-22.5 9.8-22.5-9.8-9.8-22.5z m95.8 95.8q0-12.8 9.7-22.6t22.5-9.7 22.1 10.2q10.2 9.3 10.2 22.1t-9.7 22.5-22.6 9.7-22.5-9.7-9.7-22.5z m64-128q0-12.8 9.7-22.6t22.5-9.7 22.1 10.2q10.2 9.3 10.2 22.1t-9.7 22.5-22.6 9.7-22.5-9.7-9.7-22.5z" /></svg>