<svg height="512" width="512.0" xmlns="http://www.w3.org/2000/svg"><path d="m31.2 303.1q0-7.2 5.7-11.3t13.3-4.6h86q-5.1-15.8-7.2-31.7h-50.2q-7.1 0-11.2-4.6t-4.6-11.3 4.6-11.2 11.2-4.7h50.2q1.6-15.8 7.2-31.7h-89.1q-7.2 0-11.3-4.6t-4.6-11.3 4.6-11.2 11.3-4.6h103.9q20-28.7 51.8-46.6 31.2-17.4 68.6-17.4 55.3 0 95.2 36.8 40.4 37.4 46.6 91.2h81.9q7.2 0 11.3 4.6t4.6 11.2-4.6 11.3-11.3 4.6h-81.9q-1.6 15.9-7.2 31.7h22q8.2 0 13.3 4.7t5.7 11.2-5.7 11.3-13.3 4.6h-36.8q-20 28.7-51.7 46.6-31.3 17.4-68.7 17.4t-68.6-17.4q-31.7-17.9-51.7-46.6h-100.8q-8.2 0-13.3-4.6t-5.7-11.3z m130.1-48.1q2 16.9 9.2 31.7h201.7q7.2-14.8 9.2-31.7h-219.6z m0-31.8h219.6q-6.1-41.4-36.8-68.6-31.3-27.6-72.7-27.6-44.6 0-77.9 31.7h77.9q7.1 0 11.2 4.6t4.6 11.3-4.6 11.3-11.2 4.6h-100.9q-7.2 14.8-9.2 31.7z m31.7 95.8q33.3 31.7 77.8 31.7t77.9-31.7h-156.2z" /></svg>