<svg height="512" width="512.0" xmlns="http://www.w3.org/2000/svg"><path d="m131.1 252.9q0-52.7 37.9-91.1 19.9-20 48.1-30.2 2.5-1 5.1-1 6.2 0 10.8 5.1t5.1 11.2q0 2.6-1 5.7-5.7 15.3-5.2 31.2 0 10.8 2.1 21.5 6.1 27.1 25.6 46.6t46.6 25.6q10.7 2.6 21.5 2.1 15.9 0 31.2-5.2 3.1-1 5.6-1 6.2 0 11.3 5.1t5.1 10.8q0 2.5-1 5.1-10.2 28.2-30.2 48.1-37.9 37.9-91.1 37.9t-90.7-37.4-37.3-90.6z m31.7-0.5q0 40 28.2 68.6 27.6 27.7 67 27.7 3.1 0 6.7 0 43.5-2.6 69.6-36.4-5.1 0-10.2 0-50.7 0-87.6-36.8t-36.8-87.6q0-5.1 0-10.2-5.1 3-9.2 7.1-28.2 28.2-28.2 67.6z" /></svg>