<svg height="512" width="512.0" xmlns="http://www.w3.org/2000/svg"><path d="m0 176.1q0-46.1 32.8-78.8t78.8-32.8q9.2 0 15.9 1 22-31.2 55.8-48.1 34.3-16.9 72.2-16.9t72.2 16.9q33.8 16.9 55.8 48.1 7.2-1 15.9-1 46 0 78.8 32.8t32.8 78.8-32.8 78.9-78.8 32.7q-21 0-40-7.1-45 38.9-103.9 38.9t-103.9-38.9q-19 7.1-40 7.1-46.1 0-78.8-32.7t-32.8-78.9z m30.7 200.7q-2.5-10.2 7.7-12.8l11.8-3q0-6.2 3-10.8l-9.2-9.2q-7.1-7.2 0-14.3 7.2-7.7 14.9-0.6l9.2 9.3q4.6-1.6 10.7-3.1l3.1-11.8q3.1-10.2 12.8-7.2t7.2 12.8l-3.1 11.8q2.6 1.6 4.1 3.1 2.1 2 4.1 5.1l11.8-4.1q10.2-1.5 12.8 8.2 3.1 10.2-8.2 12.8l-11.8 3.1q0 6.1-3.1 10.7l9.3 9.2q8.2 7.2 0.5 14.4-7.7 7.7-15.4 0.5l-8.2-9.2q-5.6 1.5-10.7 3.1l-4.1 11.7q-2.1 10.3-12.3 7.7t-7.7-13.3l3.1-11.8q-3.6-1.5-8.2-8.2l-11.8 4.1q-10.2 1.6-12.3-8.2z m43-6.1q7.7 7.2 14.9 0t-0.5-13.8q-7.2-8.2-14.4-0.5-7.7 7.6 0 14.3z m104.5 83.4q2-7.6 8.2-10.2l17.9-10.7q-1.5-9.8 0-19l-17.9-10.2q-6.2-4.1-8.2-10.8t1.5-13.8q3.6-6.7 10.3-8.7t13.8 2l17.9 10.8q7.2-7.2 15.9-10.3v-20.9q0-7.2 5.6-12.3t12.3-5.7 12.3 5.7 5.6 12.3v20.9q9.2 3.1 15.9 10.3l17.9-10.8q7.2-4.1 13.8-2t10.3 8.7q3.5 6.6 1.5 13.8t-8.2 10.8l-17.9 10.2q1.5 9.7 0 19l17.9 10.7q6.2 3.1 8.2 10.2t-1.5 13.4q-3.6 6.1-10.8 8.1t-13.8-2l-17.9-10.2q-7.2 6.1-15.9 9.2v21q0 7.6-5.1 12.8t-12.8 5.1-12.8-5.1-5.1-12.8v-21q-8.7-3.1-15.9-9.2l-17.9 10.2q-7.2 3.6-13.9 2t-10.7-8.1q-3.6-6.2-1.5-13.4z m59.9-31.2q0 7.7 5.6 12.3t12.3 5.1 11.8-5.1q6.1-5.1 6.1-12.3t-5.6-12.3-12.3-5.1-12.3 5.1-5.6 12.3z m141.8-41.5q3.1-10.2 12.8-7.1l11.8 3q1.5-2.5 4.1-5.1 1.5-1.5 4.1-3l-3.1-11.8q-3.1-10.3 7.2-12.8t12.8 7.1l3 11.8q6.2 1 10.8 3.1l9.2-9.2q7.7-7.2 14.9 0.5t0 14.3l-9.3 9.2q3.1 5.2 3.1 10.8l11.8 3.1q10.2 3 7.7 12.8t-12.3 8.2l-11.8-4.1q-4.1 6.1-8.2 8.2l3.1 11.7q3.1 10.8-7.7 13.3-10.2 2.6-12.3-7.6l-4.1-11.8q-6.1-1-10.7-3.1l-8.2 9.2q-8.2 7.2-15.4-0.5-7.7-7.2 0.5-14.3l9.2-9.2q-3-4.6-3-10.8l-11.8-3.1q-10.8-3-8.2-12.8z m43.5 21q7.7 7.2 14.9 0t-0.5-13.8q-7.2-8.2-14.4-0.5-7.7 7.7 0 14.3z" /></svg>