<svg height="512" width="512.0" xmlns="http://www.w3.org/2000/svg"><path d="m114.7 312.3q3.1-12.8 14.3-19.9l32.8-19q-2.1-8.7-2.1-17.4t2.1-17.9l-32.8-17.9q-11.2-7.2-14.3-20-1-4.6-1-8.7 0-8.2 4.1-15.9 6.1-11.2 19.4-14.3 4.1-1 8.7-1 8.2 0 15.4 4.1l32.7 18.9q14.4-10.8 30.3-16.9v-37.9q0-12.8 9.7-22.5t22.5-9.7 22.5 9.7 9.8 22.5v37.9q15.8 6.1 30.2 16.9l32.7-18.9q6.7-3.6 14.4-3.6 4.6 0 9.7 1 12.8 3.1 19.5 14.3 4.1 7.2 4.1 15.4 0 4.1-1.1 8.7-3 12.8-14.3 20l-32.8 18.9q2.1 8.7 2.1 16.9t-2.1 16.9l32.8 18.9q11.3 7.2 14.3 20 1.1 4.6 1.1 8.7 0 8.2-4.1 15.4-6.7 11.2-19.5 14.3-5.1 1-9.7 1-7.7 0-14.4-3.6l-32.7-18.9q-13.3 10.8-30.2 16.9v37.9q0 12.8-9.8 22.5t-22.5 9.7-22.5-9.7-9.7-22.5v-37.9q-15.9-6.1-30.3-16.9l-32.7 18.9q-6.7 3.6-14.4 3.6-4.6 0-9.7-1-12.8-3.1-19.4-14.3-4.1-7.2-4.1-15.4 0-4.1 1-8.7z m109.6-55.8q0 12.8 9.2 23.1 10.2 9.2 23 9.2t22.5-9.8 9.8-22.5-9.8-22.5-22.5-9.7-22.5 9.7-9.7 22.5z" /></svg>