<svg height="512" width="512.0" xmlns="http://www.w3.org/2000/svg"><path d="m0 176.1q0-46.1 32.8-78.8t78.8-32.8q9.2 0 15.9 1 22-31.2 55.8-48.1 34.3-16.9 72.2-16.9t72.2 16.9q33.8 16.9 55.8 48.1 7.2-1 15.9-1 46 0 78.8 32.8t32.8 78.8-32.8 78.9-78.8 32.7q-21 0-40-7.1-45 38.9-103.9 38.9t-103.9-38.9q-19 7.1-40 7.1-46.1 0-78.8-32.7t-32.8-78.9z m177.7 278.6q2-7.7 8.2-10.3l17.9-10.7q-1.6-9.8 0-19l-17.9-10.2q-6.2-4.1-8.2-10.8t1.5-13.8q3.6-6.7 10.2-8.7t13.9 2l17.9 10.8q7.2-7.2 15.9-10.2v-21q0-7.2 5.6-12.3t12.3-5.7 12.3 5.7 5.6 12.3v21q9.2 3 15.9 10.2l17.9-10.8q7.2-4 13.8-2t10.3 8.7q3.5 6.7 1.5 13.8t-8.2 10.8l-17.9 10.2q1.5 9.7 0 19l17.9 10.7q6.1 3.1 8.2 10.3t-1.5 13.3q-3.6 6.1-10.8 8.2t-13.8-2.1l-17.9-10.2q-7.2 6.1-15.9 9.2v21q0 7.7-5.1 12.8t-12.8 5.1-12.8-5.1-5.2-12.8v-21q-8.7-3.1-15.8-9.2l-17.9 10.2q-7.2 3.6-13.9 2.1t-10.7-8.2q-3.6-6.2-1.6-13.3z m59.9-31.3q0 7.7 5.6 12.3t12.3 5.1 11.8-5.1q6.1-5.1 6.1-12.3t-5.6-12.3-12.3-5.1-12.3 5.1-5.6 12.3z" /></svg>