<svg height="512" width="512.0" xmlns="http://www.w3.org/2000/svg"><path d="m48.1 256q0-7.2 4.6-11.3t11.3-4.6h31.7q7.2 0 11.3 4.6t4.6 11.3-4.6 11.3-11.3 4.6h-31.7q-7.2 0-11.3-4.6t-4.6-11.3z m61 146.9q-5.7-5.6-5.7-11.2t5.7-11.8l23-22q5.6-6.2 11.3-6.2l10.7 5.7q5.6 5.6 5.6 11.2t-5.6 11.3l-22 23q-6.1 5.7-11.8 5.7t-11.2-5.7z m0-270.8q-5.7-6.1-5.7-11.8t5.7-11.2 11.2-5.7 11.8 5.7l22 23q5.6 5.6 5.6 10.7t-5.6 10.8-10.7 5.6l-10.8-5.6z m34.8 123.9q0-46.1 32.7-78.8t78.9-32.8 78.8 32.8 32.8 78.8-32.8 78.8-78.8 32.8-78.9-32.8-32.7-78.8z m31.7 0q0 32.8 23.6 56.3t56.3 23.6 55.8-23.1q24.1-24 24.1-56.8t-23.6-56.3-56.3-23.6-56.3 23.6-23.6 56.3z m64 192v-31.7q0-7.2 4.6-11.3t11.3-4.6 11.3 4.6 4.6 11.3v31.7q0 7.2-4.6 11.3t-11.3 4.6-11.3-4.6-4.6-11.3z m0-351.7v-31.8q0-7.2 4.6-11.3t11.3-4.6 11.3 4.6 4.6 11.3v31.8q0 7.1-4.6 11.2t-11.3 4.6-11.3-4.6-4.6-11.2z m117.8 283.6q-5.7-5.6-5.7-10.7t5.7-10.8 10.7-5.6l10.8 5.6 23 22q5.7 6.2 5.7 11.8t-5.7 11.3-11.2 5.6-11.8-5.6z m0-225.8q-5.7-5.6-5.7-10.7t5.7-10.8l22-23q6.1-5.7 11.8-5.7t11.2 5.7 5.7 11.2-5.7 11.8l-23 22q-5.6 5.7-10.8 5.7z m42 101.9q0-7.2 4.6-11.3t11.2-4.6h31.8q7.1 0 11.2 4.6t4.6 11.3-4.6 11.3-11.2 4.6h-31.8q-7.1 0-11.2-4.6t-4.6-11.3z" /></svg>