<svg height="512" width="512.0" xmlns="http://www.w3.org/2000/svg"><path d="m63 335.9q0-7.2 6.1-11.3t14.9-4.6h250.8q20 0 33.8 13.8t13.9 33.8-13.9 33.8-33.8 13.8-33.7-13.8-13.9-33.8q0-8.2 3.1-15.9h-205.8q-9.2 0-14.9-4.6t-6.1-11.2z m0-64q0-7.2 4.6-11.3t11.2-4.6h306.7q-3-7.7-3-15.9 0-19.9 13.8-33.8t33.8-13.8 33.8 13.8 13.8 33.8-13.8 33.8-33.8 13.8h-351.8q-7.1 0-11.2-4.6t-4.6-11.2z m0-64q0-7.2 4.6-11.3t11.2-4.6h147q-3.1-8.2-3.1-15.9 0-19.9 13.8-33.8t33.8-13.8 33.8 13.8 13.9 33.8-13.9 33.8-33.8 13.8h-192q-7.1 0-11.2-4.6t-4.6-11.2z" /></svg>