<svg height="512" width="402.3" xmlns="http://www.w3.org/2000/svg"><path d="m0 342.6v-122.9q0-12 8.6-20.6t20.8-8.5q12 0 20.6 8.5t8.6 20.6v122.9q0 12.3-8.5 20.8t-20.7 8.6-20.8-8.6-8.6-20.8z m68.9-156.9q0-33.4 18.2-61.6t49.2-43.8l-20.3-37.4q-2-3.8 1.4-5.8 3.7-1.7 5.7 1.8l20.6 37.7q27.2-12 57.4-12t57.5 12l20.5-37.7q2-3.5 5.8-1.8 3.4 2 1.4 5.8l-20.3 37.4q30.6 15.7 48.9 43.8t18.2 61.6h-264.2z m1.1 200.6v-190.3h262.3v190.3q0 13.1-9.2 22.3t-22 9.1h-21.4v64.9q0 12.3-8.6 20.8t-20.8 8.6-20.9-8.6-8.5-20.8v-64.9h-39.5v64.9q0 12.3-8.5 20.8t-20.9 8.6q-12 0-20.6-8.6t-8.5-20.8l-0.3-64.9h-21.2q-13.1 0-22.3-9.1t-9.1-22.3z m60-259.4q0 4.5 3.1 7.8t7.8 3.3 7.8-3.3 3.3-7.8-3.3-7.9-7.8-3.3-7.8 3.3-3.1 7.9z m120.3 0q0 4.5 3.3 7.8t7.8 3.3 7.7-3.3 3.2-7.8-3.2-7.9-7.7-3.3-7.8 3.3-3.3 7.9z m93.4 215.7v-122.9q0-12.3 8.6-20.7t20.6-8.4q12.2 0 20.8 8.4t8.6 20.7v122.9q0 12.3-8.6 20.8t-20.8 8.6q-12 0-20.6-8.6t-8.6-20.8z" /></svg>