<svg height="512" width="292.6" xmlns="http://www.w3.org/2000/svg"><path d="m3.7 393.1q0-3.7 2.9-6.5l112.3-112.3-112.3-112.3q-2.9-2.9-2.9-6.6t2.9-6.5l14.3-14.3q2.8-2.9 6.5-2.9t6.6 2.9l133.1 133.1q2.9 2.9 2.9 6.6t-2.9 6.6l-133.1 133.1q-2.9 2.9-6.6 2.9t-6.5-2.9l-14.3-14.3q-2.9-2.8-2.9-6.6z m109.7 0q0-3.7 2.9-6.5l112.3-112.3-112.3-112.3q-2.9-2.9-2.9-6.6t2.9-6.5l14.3-14.3q2.8-2.9 6.5-2.9t6.6 2.9l133.2 133.1q2.8 2.9 2.8 6.6t-2.8 6.6l-133.2 133.1q-2.8 2.9-6.6 2.9t-6.5-2.9l-14.3-14.3q-2.9-2.8-2.9-6.6z" /></svg>