<svg height="512" width="402.3" xmlns="http://www.w3.org/2000/svg"><path d="m0 257.7q0-65.1 32.3-106.8 32-41.2 81.1-41.2 20.6 0 50.6 8.6 29.7 8.6 39.4 8.6 12.9 0 40.9-9.8 29.1-9.7 49.4-9.7 34 0 60.9 18.6 14.8 10.3 29.7 28.6-22.6 19.1-32.6 33.7-18.6 26.8-18.6 59.1 0 35.5 19.8 63.7t45.1 36q-11.1 35.8-35.1 71.5-36.9 56-73.5 56-14 0-40-9.2-24.5-9.1-43.1-9.1-17.4 0-40.6 9.4-23.1 9.7-37.7 9.7-43.4 0-86-74-42-74.5-42-143.7z m195.1-142q0.9-42.6 22.3-73.4 21.2-30.6 71.5-42.3 0.2 0.9 0.7 3.1t0.7 3.2q0 1.1 0.1 2.8t0.2 2.9q0 17.4-8.3 38.9-8.6 21.4-26.6 39.4-15.4 15.4-30.8 20.6-10.6 3.1-29.8 4.8z" /></svg>