<svg height="512" width="438.9" xmlns="http://www.w3.org/2000/svg"><path d="m0 256q0-59.7 29.4-110.1t79.9-79.9 110.1-29.4 110.2 29.4 79.8 79.9 29.5 110.1-29.5 110.1-79.8 79.9-110.2 29.4-110.1-29.4-79.9-79.9-29.4-110.1z m73.1 18.3q0 7.4 5.5 12.8t12.8 5.5h143.5l-54 54q-5.5 5.4-5.5 12.8t5.5 12.9l26 26q5.1 5.1 12.8 5.1t12.9-5.1l103.4-103.4 26-26q5.1-5.2 5.1-12.9t-5.1-12.9l-26-26-103.4-103.4q-5.2-5.1-12.9-5.1t-12.8 5.1l-26 26q-5.2 5.2-5.2 12.9t5.2 12.8l54 54h-143.5q-7.4 0-12.8 5.5t-5.5 12.8v36.6z" /></svg>