<svg height="512" width="438.9" xmlns="http://www.w3.org/2000/svg"><path d="m0 457.1v-128q0-12 11.4-16.8 11.2-4.9 19.7 4l41.2 41.1 101.4-101.4-101.4-101.4-41.2 41.1q-5.4 5.4-12.8 5.4-3.4 0-6.9-1.4-11.4-4.8-11.4-16.8v-128q0-7.5 5.4-12.9t12.9-5.4h128q12 0 16.8 11.4 4.9 11.1-4 19.7l-41.1 41.2 101.4 101.4 101.5-101.4-41.2-41.2q-8.8-8.6-4-19.7 4.9-11.4 16.9-11.4h128q7.4 0 12.8 5.4t5.5 12.9v128q0 12-11.2 16.8-3.7 1.4-7.1 1.4-7.5 0-12.9-5.4l-41.1-41.1-101.5 101.4 101.5 101.4 41.1-41.1q8.3-8.9 20-4 11.2 4.8 11.2 16.8v128q0 7.5-5.5 12.9t-12.8 5.4h-128q-12 0-16.9-11.4-4.8-11.1 4-19.7l41.2-41.2-101.5-101.4-101.4 101.4 41.1 41.2q8.9 8.6 4 19.7-4.8 11.4-16.8 11.4h-128q-7.4 0-12.9-5.4t-5.4-12.9z" /></svg>