<svg height="512" width="438.9" xmlns="http://www.w3.org/2000/svg"><path d="m0 256q0-59.7 29.4-110.1t79.9-79.9 110.1-29.4 110.2 29.4 79.8 79.9 29.5 110.1-29.5 110.1-79.8 79.9-110.2 29.4-110.1-29.4-79.9-79.9-29.4-110.1z m72 0.3q0 7.7 5.1 12.8l103.5 103.5 26 26q5.1 5.1 12.8 5.1t12.9-5.1l26-26 103.4-103.5q5.2-5.1 5.2-12.8t-5.2-12.9l-26-26q-5.1-5.1-12.8-5.1t-12.9 5.1l-54 54v-143.4q0-7.4-5.4-12.9t-12.9-5.4h-36.6q-7.4 0-12.8 5.4t-5.4 12.9v143.4l-54-54q-5.5-5.4-12.9-5.4t-12.9 5.4l-26 26q-5.1 5.2-5.1 12.9z" /></svg>