<svg height="512" width="438.9" xmlns="http://www.w3.org/2000/svg"><path d="m0 256q0-59.7 29.4-110.1t79.9-79.9 110.1-29.4 110.2 29.4 79.8 79.9 29.5 110.1-29.5 110.1-79.8 79.9-110.2 29.4-110.1-29.4-79.9-79.9-29.4-110.1z m64 0q0 42.3 20.9 78t56.5 56.6 78 20.8 78-20.8 56.6-56.6 20.9-78-20.9-78-56.6-56.6-78-20.8-78 20.8-56.5 56.6-20.9 78z m54.9-9.1q0-3.5 2.8-6.9l91.2-91.1q3.1-2.6 6.5-2.6t6.6 2.6l91.4 91.4q4.3 4.6 2 10-2.3 5.7-8.5 5.7h-54.9v100.6q0 4-2.6 6.5t-6.5 2.6h-54.9q-4 0-6.6-2.6t-2.5-6.5v-100.6h-54.9q-4 0-6.6-2.6t-2.5-6.5z" /></svg>