<svg height="512" width="512.0" xmlns="http://www.w3.org/2000/svg"><path d="m0 438.9v-402.3h18v402.3h-18z m26.9-0.3v-402h9.1v402h-9.1z m27.1 0v-402h8.9v402h-8.9z m44.9 0v-402h8.8v402h-8.8z m36 0v-402h17.7v402h-17.7z m44.8 0v-402h8.9v402h-8.9z m18 0v-402h8.9v402h-8.9z m18 0v-402h8.9v402h-8.9z m35.7 0v-402h18v402h-18z m44.9 0v-402h18v402h-18z m36 0v-402h18v402h-18z m36 0v-402h18v402h-18z m26.8 0v-402h18v402h-18z m45.2 0v-402h26.8v402h-26.8z m35.7 0v-402h9.1v402h-9.1z m18 0.3v-402.3h18v402.3h-18z" /></svg>