<svg height="512" width="585.1" xmlns="http://www.w3.org/2000/svg"><path d="m0 432.6v-360h169.7q24.9 0 44.3 4t36.1 13.5 25.8 27.6 9 44q0 51.7-49.2 75.2 32.6 9.1 49.2 32.8t16.5 58.3q0 21.4-7 39t-18.8 29.6-28.2 20.3-34.5 12-38.3 3.7h-174.6z m79.1-61.2h84.6q58.6 0 58.6-47.7 0-51.4-56.9-51.4h-86.3v99.1z m0-153.4h80.3q22.3 0 35.3-10.4t13-32.5q0-41.1-54.3-41.1h-74.3v84z m245.8 84.6q0-59.5 37.2-98.7t96.2-39.3q39.4 0 68.7 19.4t43.7 51.1 14.4 70.9q0 4.9-0.5 13.4h-188q0 31.7 16.4 49t47.6 17.3q18 0 34.8-9.1t21.7-24.9h63.2q-28.6 87.7-122 87.7-61.2 0-97.3-37.7t-36.1-99.1z m57.1-170.3h146v-35.4h-146v35.4z m14.6 142h116.5q-5.1-55.7-57.1-55.7-25.7 0-41.7 15t-17.7 40.7z" /></svg>