<svg height="512" width="438.9" xmlns="http://www.w3.org/2000/svg"><path d="m0 393.1v-274.2q0-34 24.1-58.2t58.2-24.1h274.3q34 0 58.1 24.1t24.2 58.2v274.2q0 34-24.2 58.2t-58.1 24.1h-274.3q-34 0-58.2-24.1t-24.1-58.2z m36.6-26.8h109.1q33.4 0 56.3-16.4t22.9-48.8q0-45.1-40.9-57.1 30.6-14.9 30.6-46.9 0-16.2-5.6-27.5t-16.1-17.3-22.6-8.4-27.7-2.5h-106v224.9z m49.4-38.3v-62h54q35.4 0 35.4 32.3 0 29.7-36.5 29.7h-52.9z m0-95.7v-52.6h46.6q34 0 34 25.7 0 26.9-30.3 26.9h-50.3z m153.4 52.8q0 38.6 22.6 62t60.9 23.5q58.5 0 76.2-54.6h-39.4q-3.1 9.7-13.6 15.4t-21.5 5.7q-19.5 0-29.7-10.8t-10.3-30.6h117.4q0.3-2.8 0.3-8.6 0-37.7-21.3-63t-58.1-25.2q-36.6 0-60 24.5t-23.5 61.7z m36-106.5v-22h91.2v22h-91.2z m9.2 88.8q1.1-16 11.1-25.4t26-9.4q32.3 0 35.4 34.8h-72.5z" /></svg>