<svg height="512" width="475.4" xmlns="http://www.w3.org/2000/svg"><path d="m0 402.3q54.3-46 82-113.6t27.7-142.4q0-47.2 27.4-74.9t75.5-33.4q-2.3-5.1-2.3-10.6 0-11.4 8-19.4t19.4-8 19.4 8 8 19.4q0 5.5-2.2 10.6 48 5.7 75.4 33.4t27.4 74.9q0 74.8 27.7 142.4t82 113.6q0 14.8-10.8 25.7t-25.7 10.9h-128q0 30.2-21.5 51.7t-51.7 21.4-51.7-21.4-21.4-51.7h-128q-14.9 0-25.7-10.9t-10.9-25.7z m52.3 0h370.8q-46.8-51.7-70.4-117.6t-23.6-138.4q0-73.2-91.4-73.2t-91.4 73.2q0 72.6-23.6 138.4t-70.4 117.6z m135.1 36.6q0 20.8 14.7 35.5t35.6 14.7q4.6 0 4.6-4.5t-4.6-4.6q-16.8 0-29-12.1t-12.1-29q0-4.6-4.6-4.6t-4.6 4.6z" /></svg>