<svg height="512" width="438.9" xmlns="http://www.w3.org/2000/svg"><path d="m0 393.1v-274.2q0-34 24.1-58.2t58.2-24.1h274.3q34 0 58.1 24.1t24.2 58.2v274.2q0 34-24.2 58.2t-58.1 24.1h-274.3q-34 0-58.2-24.1t-24.1-58.2z m74.3-257.1q2.3 19.4 5.4 39.4t8.3 48.9 6.9 39.1q0.2 1.5 1.4 8.9t2 10.3 3.4 7.7 6.3 8q30 22.8 81.1 28.6 74 8 125.8-18 6.8-3.8 11.2-6.6t8.9-8.3 5.6-11.4q13.7-76.3 22.8-135.2 2.6-15.1-2.3-21.4-12.2-15.7-44.2-25.1-61.8-18-139.2-10.3-37.7 3.4-64.6 13.1-10.8 4.3-17 7.2t-13.4 9.7-8.4 15.4z m35.7 193.1q7.4 44 11.7 60 13.4 23.2 58.3 30.9 71.1 13.1 122.3-15.1 9.7-5.5 14-14.8t6.4-24.4 3.6-20.3q0-2 1.6-7.5t0.8-9.2-5-4.7q-46 30.3-104.3 30.3t-104.5-30.3l-3.5 1.7z m14.6-196.8q3.7-5.4 10.3-8.9t11.4-4.4 13.4-2.4q56.6-10 116.6-0.3 9.4 1.4 14.6 2.4t12.2 4.6 11.2 9q-5.7 6-15.3 9.7t-15.1 4.6-18.2 2.3q-44.3 5.7-92.6 0-12.5-1.8-18-2.8t-15-4.5-15.5-9.3z m48.8 120q-0.5-14 7.3-26.6t20.7-18.3q20-8.8 40.5 2.9t23.2 33.7q2.3 18.9-10.2 34.6t-31.5 17.4-34-11.4-16-32.3z m23-2.2q0.2 15 12.5 20.2 11.1 6.6 23.1-1.2t10.3-20.5q0-12.3-11.7-18.9t-22-0.3q-12.3 5.7-12.2 20.7z" /></svg>