<svg height="512" width="402.3" xmlns="http://www.w3.org/2000/svg"><path d="m0 89.7q0.9-7.4 5-13.8t9-10.8 12.9-8.5 13.1-6.5 13.7-5.2q35.7-13.2 89.4-18.3 108.3-10.6 193.2 14.3 44.3 13.1 61.4 34.8 4.6 5.7 4.7 14.6t-1.5 15.4q-7.5 47.7-31.8 187.2-1.4 8.5-7.7 16t-12.4 11.4-15.6 8.8q-72 36-174.3 25.2-70.8-7.7-112.5-39.7-4.3-3.5-7.3-7.6t-4.9-10-2.5-9.7-1.8-11.3-1.5-10q-2.6-14.3-7.6-42.9t-8-46.1-6.7-42.1-6.3-45.2z m49.4 267.7l1.7-4.5 5.2-2.6q63.7 42.3 144.7 42.3t145-42.3q6 1.7 6.9 6.6t-1.5 12.8-2.3 10.6q-2.2 7.4-4.4 21.8t-4 24-8.1 20-16.6 16.2q-24.6 13.7-54.1 20.4t-57.8 6.3-57.5-5.3q-13.2-2.3-23.3-5.1t-21.9-7.7-20.8-12.5-14.9-17.5q-7.1-27.5-16.3-83.5z m20-272.8q8.6 8 21.7 13t21 6.3 25 3.2q65.2 8.3 128 0.3 18-2.3 25.6-3.4t20.7-6.1 21.5-13.3q-5.8-7.7-16-12.7t-16.6-6.3-20.3-3.6q-83.1-13.4-161.7 0.6-12.3 2-18.9 3.4t-15.7 6.3-14.3 12.3z m68 166.5q1.2 26 22.2 44.3t47.3 16q26-2.3 43.4-24t14.3-48q-4-30.5-32.3-46.8t-56.3-3.7q-18 8-28.7 25.2t-9.9 37z m33.7-15.1q4-11.7 14.9-16.6 10.3-5.1 20.7-3.4t18.3 10.1 7.9 19.3q2.2 18-14.5 28.9t-31.8 1.7q-11.2-4.9-15.3-16.6t-0.2-23.4z" /></svg>