<svg height="512" width="402.3" xmlns="http://www.w3.org/2000/svg"><path d="m0 475.4l0.6-26.8q4.3-1.2 24.3-4.6t30.2-7.7q2-3.4 3.6-7.7t2.4-9.6 1.6-9.3 0.9-10.7 0.1-9.7v-10.2-8.5q0-280.6-6.3-292.9-1.1-2.3-6.3-4.1t-12.7-3.2-14.1-2-13.9-1.3-8.7-0.8l-1.1-23.7q28-0.6 97.1-3.3t106.6-2.7q6.6 0 19.6 0.1t19.2 0.2q20 0 39 3.7t36.8 12 30.8 20.3 21.2 29.8 8 39.3q0 14.9-4.8 27.3t-11.1 20.6-18.4 16.4-20.9 12.8-24 11.5q44 10 73.3 38.3t29.3 70.8q0 28.6-10 51.3t-26.7 37.3-39.5 24.4-46.7 13.9-50.3 4q-12.5 0-37.7-0.9t-37.7-0.8q-30.3 0-87.7 3.1t-66 3.4z m152.3-405.7q0 14.3 1.1 43.2t1.2 43.4q0 7.7-0.2 22.8t-0.1 22.6q0 13.2 0.3 19.7 12 2 31.1 2 23.4 0 40.9-3.7t31.4-12.7 21.3-25.6 7.3-40.5q0-20-8.3-35t-22.6-23.5-30.8-12.4-35.5-4q-14.3 0-37.1 3.7z m1.6 322q0.1 10.6 1.2 23.9t3.5 19q21.1 9.1 40 9.1 107.4 0 107.4-95.7 0-32.6-11.7-51.4-7.7-12.6-17.6-21.2t-19.3-13.3-23-7.1-24-3-27-0.6q-20.8 0-28.8 2.9 0 15.1-0.2 45.4t-0.1 45.2q0 2.2-0.3 19.2t-0.1 27.6z" /></svg>