<svg height="512" width="512.0" xmlns="http://www.w3.org/2000/svg"><path d="m0 310.9q0-40.9 15.9-78.2t42.8-64.3 64.3-42.8 78.1-15.9q52 0 98 25.4l18.3-18.2q5.5-5.5 13-5.5t13 5.5l19.5 19.4 69.4-69.7 13.1 13.1-69.7 69.4 19.4 19.5q5.5 5.4 5.5 13t-5.5 13l-18.2 18.3q25.4 46 25.4 98 0 40.8-15.9 78.1t-42.8 64.3-64.3 42.8-78.2 15.9-78.1-15.9-64.3-42.8-42.8-64.3-15.9-78.1z m48.6-47.8q2.8 6.9 10 9.8 3.7 1.4 6.8 1.4 12 0 17.2-11.4 9.7-24 28.1-42.5t42.4-28.1q7.2-3.2 10-10t0-14-9.7-10-14 0q-30.8 12.6-54.5 36.3t-36.3 54.5q-2.9 7.2 0 14z m344.5-244.8q0-3.7 2.6-6.6 2.9-2.6 6.6-2.6t6.6 2.6l25.7 26q2.8 2.6 2.8 6.4t-2.8 6.5q-2.9 2.8-6.3 2.8-3.7 0-6.6-2.8l-26-25.7q-2.6-2.9-2.6-6.6z m45.8 18.3v-27.5q0-4 2.5-6.5t6.6-2.6 6.6 2.6 2.5 6.5v27.5q0 4-2.5 6.5t-6.6 2.6-6.6-2.6-2.5-6.5z m19.7 47.3q0-3.9 2.8-6.5 2.6-2.8 6.5-2.8t6.4 2.8l26 25.7q2.6 2.9 2.6 6.6t-2.6 6.6q-3.2 2.6-6.6 2.6t-6.6-2.6l-25.7-26q-2.8-2.6-2.8-6.4z m0-39.8q0-3.8 2.8-6.4l25.7-26q2.9-2.6 6.6-2.6t6.6 2.6q2.6 2.9 2.6 6.6t-2.6 6.6l-26 25.7q-2.9 2.8-6.3 2.8-3.7 0-6.6-2.8-2.8-2.6-2.8-6.5z m7.7 19.9q0-4 2.6-6.6t6.5-2.5h27.5q4 0 6.5 2.5t2.6 6.6-2.6 6.6-6.5 2.5h-27.5q-4 0-6.5-2.5t-2.6-6.6z" /></svg>