<svg height="512" width="475.4" xmlns="http://www.w3.org/2000/svg"><path d="m2.9 386.3q0-1.2 0.8-7.7t1.2-10.6q0.2-2.3-0.9-6.1t-0.9-5.6q0.6-3.2 2.3-6t4.7-6.7 4.8-6.7q6.5-10.9 12.8-26.2t8.6-26.1q0.8-2.9 0.1-8.6t-0.1-8q0.8-3.1 4.8-8t4.9-6.6q6-10.3 12-26.3t7.1-25.7q0.3-2.5-0.7-9.1t0.2-8q1.1-3.7 6.3-8.7t6.2-6.5q5.5-7.4 12.2-24.1t7.8-27.6q0.3-2.3-0.8-7.3t-0.6-7.5q0.6-2.3 2.6-5.2t5.1-6.5 4.9-6q2.3-3.5 4.7-8.8t4.3-10 4.6-10.2 5.5-9.2 7.6-6.7 10.3-3.3 13.6 1.6l-0.3 0.8q10.8-2.5 14.5-2.5h217.5q21.1 0 32.5 16t5.2 37.1l-78.3 258.9q-10.3 34-20.4 43.8t-36.7 9.9h-248.3q-7.7 0-10.9 4.3-3.1 4.5-0.3 12.3 6.9 20 41.2 20h263.7q8.3 0 16-4.5t10-11.8l85.7-282q2-6.3 1.4-16.3 10.9 4.3 16.9 12.3 11.4 16.3 5.1 36.8l-78.5 258.9q-5.5 18.3-21.9 30.7t-35 12.4h-263.7q-22 0-42.4-15.3t-28.5-37.5q-6.8-19.2-0.5-36.3z m137.7-176q-1.2 3.7 0.5 6.4t5.8 2.7h173.7q3.7 0 7.3-2.7t4.7-6.4l6-18.3q1.1-3.7-0.6-6.4t-5.7-2.7h-173.7q-3.7 0-7.3 2.7t-4.7 6.4z m23.7-73.2q-1.2 3.8 0.6 6.5t5.7 2.7h173.7q3.7 0 7.3-2.7t4.7-6.5l6-18.2q1.1-3.8-0.6-6.5t-5.7-2.7h-173.7q-3.7 0-7.3 2.7t-4.7 6.5z" /></svg>