<svg height="512" width="402.3" xmlns="http://www.w3.org/2000/svg"><path d="m0 493.7v-475.4q0-7.4 5.4-12.9t12.9-5.4h365.7q7.4 0 12.9 5.4t5.4 12.9v475.4q0 7.4-5.4 12.9t-12.9 5.4h-365.7q-7.4 0-12.9-5.4t-5.4-12.9z m36.6-18.3h109.7v-64q0-3.7 2.7-6.4t6.4-2.7h91.5q3.7 0 6.4 2.7t2.7 6.4v64h109.7v-438.8h-329.1v438.8z m36.5-82.3v-18.2q0-3.8 2.8-6.5t6.4-2.7h18.3q3.7 0 6.4 2.7t2.7 6.5v18.2q0 3.8-2.7 6.5t-6.4 2.7h-18.3q-3.7 0-6.4-2.7t-2.8-6.5z m0-73.1v-18.3q0-3.7 2.8-6.4t6.4-2.7h18.3q3.7 0 6.4 2.7t2.7 6.4v18.3q0 3.7-2.7 6.4t-6.4 2.7h-18.3q-3.7 0-6.4-2.7t-2.8-6.4z m0-73.1v-18.3q0-3.7 2.8-6.5t6.4-2.7h18.3q3.7 0 6.4 2.7t2.7 6.5v18.3q0 3.7-2.7 6.4t-6.4 2.7h-18.3q-3.7 0-6.4-2.7t-2.8-6.4z m0-73.2v-18.3q0-3.7 2.8-6.4t6.4-2.7h18.3q3.7 0 6.4 2.7t2.7 6.4v18.3q0 3.7-2.7 6.4t-6.4 2.8h-18.3q-3.7 0-6.4-2.8t-2.8-6.4z m0-73.1v-18.3q0-3.7 2.8-6.4t6.4-2.8h18.3q3.7 0 6.4 2.8t2.7 6.4v18.3q0 3.7-2.7 6.4t-6.4 2.7h-18.3q-3.7 0-6.4-2.7t-2.8-6.4z m73.2 219.4v-18.3q0-3.7 2.7-6.4t6.4-2.7h18.3q3.7 0 6.4 2.7t2.8 6.4v18.3q0 3.7-2.8 6.4t-6.4 2.7h-18.3q-3.7 0-6.4-2.7t-2.7-6.4z m0-73.1v-18.3q0-3.7 2.7-6.5t6.4-2.7h18.3q3.7 0 6.4 2.7t2.8 6.5v18.3q0 3.7-2.8 6.4t-6.4 2.7h-18.3q-3.7 0-6.4-2.7t-2.7-6.4z m0-73.2v-18.3q0-3.7 2.7-6.4t6.4-2.7h18.3q3.7 0 6.4 2.7t2.8 6.4v18.3q0 3.7-2.8 6.4t-6.4 2.8h-18.3q-3.7 0-6.4-2.8t-2.7-6.4z m0-73.1v-18.3q0-3.7 2.7-6.4t6.4-2.8h18.3q3.7 0 6.4 2.8t2.8 6.4v18.3q0 3.7-2.8 6.4t-6.4 2.7h-18.3q-3.7 0-6.4-2.7t-2.7-6.4z m73.1 219.4v-18.3q0-3.7 2.7-6.4t6.5-2.7h18.3q3.7 0 6.4 2.7t2.7 6.4v18.3q0 3.7-2.7 6.4t-6.4 2.7h-18.3q-3.7 0-6.5-2.7t-2.7-6.4z m0-73.1v-18.3q0-3.7 2.7-6.5t6.5-2.7h18.3q3.7 0 6.4 2.7t2.7 6.5v18.3q0 3.7-2.7 6.4t-6.4 2.7h-18.3q-3.7 0-6.5-2.7t-2.7-6.4z m0-73.2v-18.3q0-3.7 2.7-6.4t6.5-2.7h18.3q3.7 0 6.4 2.7t2.7 6.4v18.3q0 3.7-2.7 6.4t-6.4 2.8h-18.3q-3.7 0-6.5-2.8t-2.7-6.4z m0-73.1v-18.3q0-3.7 2.7-6.4t6.5-2.8h18.3q3.7 0 6.4 2.8t2.7 6.4v18.3q0 3.7-2.7 6.4t-6.4 2.7h-18.3q-3.7 0-6.5-2.7t-2.7-6.4z m73.2 292.5v-18.2q0-3.8 2.7-6.5t6.4-2.7h18.3q3.7 0 6.4 2.7t2.7 6.5v18.2q0 3.8-2.7 6.5t-6.4 2.7h-18.3q-3.7 0-6.4-2.7t-2.7-6.5z m0-73.1v-18.3q0-3.7 2.7-6.4t6.4-2.7h18.3q3.7 0 6.4 2.7t2.7 6.4v18.3q0 3.7-2.7 6.4t-6.4 2.7h-18.3q-3.7 0-6.4-2.7t-2.7-6.4z m0-73.1v-18.3q0-3.7 2.7-6.5t6.4-2.7h18.3q3.7 0 6.4 2.7t2.7 6.5v18.3q0 3.7-2.7 6.4t-6.4 2.7h-18.3q-3.7 0-6.4-2.7t-2.7-6.4z m0-73.2v-18.3q0-3.7 2.7-6.4t6.4-2.7h18.3q3.7 0 6.4 2.7t2.7 6.4v18.3q0 3.7-2.7 6.4t-6.4 2.8h-18.3q-3.7 0-6.4-2.8t-2.7-6.4z m0-73.1v-18.3q0-3.7 2.7-6.4t6.4-2.8h18.3q3.7 0 6.4 2.8t2.7 6.4v18.3q0 3.7-2.7 6.4t-6.4 2.7h-18.3q-3.7 0-6.4-2.7t-2.7-6.4z" /></svg>