<svg height="512" width="438.9" xmlns="http://www.w3.org/2000/svg"><path d="m0 256q0-59.7 29.4-110.1t79.9-79.9 110.1-29.4 110.2 29.4 79.8 79.9 29.5 110.1-29.5 110.1-79.8 79.9-110.2 29.4-110.1-29.4-79.9-79.9-29.4-110.1z m36.6 0q0 37.1 14.5 71t39 58.3 58.3 39 71 14.6 71-14.6 58.3-39 39-58.3 14.6-71-14.6-71-39-58.3-58.3-39-71-14.6-71 14.6-58.3 39-39 58.3-14.5 71z m36.5 0q0-60.6 42.9-103.4t103.4-42.9 103.5 42.9 42.8 103.4-42.8 103.4-103.5 42.9-103.4-42.9-42.9-103.4z m36.6 0q0 45.4 32.2 77.6t77.5 32.1 77.6-32.1 32.1-77.6-32.1-77.6-77.6-32.1-77.5 32.1-32.2 77.6z m36.6 0q0-30.3 21.4-51.7t51.7-21.4 51.7 21.4 21.5 51.7-21.5 51.7-51.7 21.4-51.7-21.4-21.4-51.7z" /></svg>