<svg height="512" width="475.4" xmlns="http://www.w3.org/2000/svg"><path d="m0 475.4v-365.7q0-14.8 10.9-25.7t25.7-10.9h36.5v-27.4q0-18.8 13.5-32.3t32.3-13.4h18.2q18.9 0 32.3 13.4t13.5 32.3v27.4h109.7v-27.4q0-18.8 13.4-32.3t32.3-13.4h18.3q18.8 0 32.3 13.4t13.4 32.3v27.4h36.6q14.8 0 25.7 10.9t10.8 25.7v365.7q0 14.9-10.8 25.7t-25.7 10.9h-402.3q-14.9 0-25.7-10.9t-10.9-25.7z m36.6 0h82.3v-82.3h-82.3v82.3z m0-100.5h82.3v-91.5h-82.3v91.5z m0-109.8h82.3v-82.2h-82.3v82.2z m73.1-137.1q0 3.7 2.7 6.4t6.5 2.7h18.2q3.8 0 6.5-2.7t2.7-6.4v-82.3q0-3.7-2.7-6.4t-6.5-2.7h-18.2q-3.8 0-6.5 2.7t-2.7 6.4v82.3z m27.4 347.4h91.5v-82.3h-91.5v82.3z m0-100.5h91.5v-91.5h-91.5v91.5z m0-109.8h91.5v-82.2h-91.5v82.2z m109.8 210.3h91.4v-82.3h-91.4v82.3z m0-100.5h91.4v-91.5h-91.4v91.5z m0-109.8h91.4v-82.2h-91.4v82.2z m82.2-137.1q0 3.7 2.8 6.4t6.4 2.7h18.3q3.7 0 6.4-2.7t2.7-6.4v-82.3q0-3.7-2.7-6.4t-6.4-2.7h-18.3q-3.7 0-6.4 2.7t-2.8 6.4v82.3z m27.5 347.4h82.3v-82.3h-82.3v82.3z m0-100.5h82.3v-91.5h-82.3v91.5z m0-109.8h82.3v-82.2h-82.3v82.2z" /></svg>