<svg height="512" width="512.0" xmlns="http://www.w3.org/2000/svg"><path d="m0 438.9v-365.8q0-15.1 10.7-25.8t25.9-10.7h438.8q15.2 0 25.9 10.7t10.7 25.8v365.8q0 15.1-10.7 25.8t-25.9 10.7h-438.8q-15.2 0-25.9-10.7t-10.7-25.8z m36.6 0h438.8v-36.6h-438.8v36.6z m0-292.6h438.8v-33.7-39.5h-236.5l-18.3 36.6h-184v36.6z m36.5-54.9h109.8v-36.5h-109.8v36.5z m73.2 183.5q0 45.4 32.1 77.5t77.6 32.2 77.6-32.2 32.1-77.5-32.1-77.6-77.6-32.2-77.6 32.2-32.1 77.6z m36.6 0q0-30.3 21.4-51.8t51.7-21.4 51.7 21.4 21.4 51.8-21.4 51.7-51.7 21.4-51.7-21.4-21.4-51.7z m27.4-0.6q0 4 2.6 6.6t6.5 2.5 6.6-2.5 2.6-6.6q0-11.4 8-19.4t19.4-8q4 0 6.6-2.6t2.5-6.6-2.5-6.6-6.6-2.5q-18.9 0-32.3 13.4t-13.4 32.3z" /></svg>