<svg height="512" width="548.6" xmlns="http://www.w3.org/2000/svg"><path d="m0 402.3v-256q0-30.3 21.4-51.7t51.7-21.5h64l14.6-38.8q5.4-14 19.9-24.2t29.5-10.1h146.3q15.2 0 29.6 10.1t19.9 24.2l14.5 38.8h64q30.3 0 51.7 21.5t21.5 51.7v256q0 30.3-21.5 51.7t-51.7 21.4h-402.3q-30.2 0-51.7-21.4t-21.4-51.7z m146.3-128q0 52.8 37.6 90.4t90.4 37.6 90.4-37.6 37.6-90.4-37.6-90.4-90.4-37.6-90.4 37.6-37.6 90.4z m45.7 0q0-34 24.1-58.2t58.2-24.1 58.1 24.1 24.2 58.2-24.2 58.1-58.1 24.2-58.2-24.2-24.1-58.1z" /></svg>