<svg height="512" width="438.9" xmlns="http://www.w3.org/2000/svg"><path d="m0 393.1v-274.2q0-34 24.1-58.2t58.2-24.1h274.3q34 0 58.1 24.1t24.2 58.2v274.2q0 34-24.2 58.2t-58.1 24.1h-274.3q-34 0-58.2-24.1t-24.1-58.2z m73.1 0q0 3.8 2.8 6.5t6.4 2.7h274.3q3.7 0 6.4-2.7t2.7-6.5v-274.2q0-3.8-2.7-6.5t-6.4-2.7h-274.3q-3.7 0-6.4 2.7t-2.8 6.5v274.2z m54.9-137.1q0-9.4 7.7-14.9l128-91.4q4.9-3.4 10.6-3.4 7.4 0 12.8 5.4t5.5 12.9v182.8q0 7.5-5.5 12.9t-12.8 5.4q-5.7 0-10.6-3.4l-128-91.4q-7.7-5.5-7.7-14.9z" /></svg>