<svg height="512" width="438.9" xmlns="http://www.w3.org/2000/svg"><path d="m0.6 314.6q-2.9-12 5.7-20l39.4-38.6-39.4-38.6q-8.6-8-5.7-20 3.4-11.7 14.8-14.5l53.7-13.8-15.1-53.1q-3.4-11.7 5.4-20 8.3-8.9 20-5.4l53.2 15.1 13.7-53.7q2.8-11.7 14.6-14.6 11.7-3.4 20 5.5l38.5 39.7 38.6-39.7q8.3-8.6 20-5.5 11.7 2.9 14.6 14.6l13.7 53.7 53.1-15.1q11.7-3.5 20 5.4 8.9 8.3 5.5 20l-15.2 53.1 53.7 13.8q11.5 2.8 14.9 14.5 2.8 12-5.7 20l-39.5 38.6 39.5 38.6q8.5 8 5.7 20-3.4 11.7-14.9 14.5l-53.7 13.8 15.2 53.1q3.4 11.7-5.5 20-8.3 8.9-20 5.4l-53.1-15.1-13.7 53.7q-2.9 11.4-14.6 14.9-3.4 0.5-5.4 0.5-8.9 0-14.6-6.3l-38.6-39.4-38.5 39.4q-8 8.6-20 5.8-11.8-3.2-14.6-14.9l-13.7-53.7-53.2 15.1q-11.7 3.5-20-5.4-8.8-8.3-5.4-20l15.1-53.1-53.7-13.8q-11.4-2.8-14.8-14.5z" /></svg>