<svg height="512" width="438.9" xmlns="http://www.w3.org/2000/svg"><path d="M148.4,424.3c22.534,9.733,46.2,14.601,71,14.601c24.8,0,48.466-4.867,71-14.601c22.534-9.733,41.967-22.733,58.301-39c16.333-16.267,29.333-35.7,39-58.3s14.533-46.267,14.6-71c0.067-24.733-4.8-48.4-14.6-71c-9.801-22.6-22.801-42.033-39-58.3c-16.2-16.267-35.634-29.267-58.301-39c-22.666-9.733-46.333-14.6-71-14.6s-48.333,4.867-71,14.6c-22.667,9.733-42.1,22.733-58.3,39c-16.2,16.267-29.2,35.7-39,58.3c-9.8,22.6-14.633,46.267-14.5,71c0,24.733,4.833,48.4,14.5,71s22.667,42.033,39,58.3S125.867,414.566,148.4,424.3z"/></svg>