<svg height="512" width="512.0" xmlns="http://www.w3.org/2000/svg"><path d="m0 334v-156q0-11.7 9.7-18.3l234-156q6-3.7 12.3-3.7t12.3 3.7l234 156q9.7 6.6 9.7 18.3v156q0 11.7-9.7 18.3l-234 156q-6 3.7-12.3 3.7t-12.3-3.7l-234-156q-9.7-6.6-9.7-18.3z m44-41.1l55.1-36.9-55.1-36.9v73.8z m17.7 41.1l172.3 114.9v-102.6l-95.4-63.7z m0-156l76.9 51.4 95.4-63.7v-102.6z m116.6 78l77.7 52 77.7-52-77.7-52z m99.7 192.9l172.3-114.9-76.9-51.4-95.4 63.7v102.6z m0-283.2l95.4 63.7 76.9-51.4-172.3-114.9v102.6z m134.9 90.3l55.1 36.9v-73.8z" /></svg>