<svg height="512" width="548.6" xmlns="http://www.w3.org/2000/svg"><path d="m12.9 274.3q0-3.7 2.8-6.6l133.2-133.1q2.8-2.9 6.5-2.9t6.6 2.9l14.3 14.3q2.8 2.8 2.8 6.5t-2.8 6.6l-112.3 112.3 112.3 112.3q2.8 2.8 2.8 6.5t-2.8 6.6l-14.3 14.3q-2.9 2.9-6.6 2.9t-6.5-2.9l-133.2-133.1q-2.8-2.9-2.8-6.6z m190.5 179.4l106.6-368.8q1.1-3.8 4.4-5.6t6.7-0.7l17.8 4.8q3.7 1.2 5.5 4.5t0.7 7l-106.5 368.8q-1.2 3.7-4.5 5.6t-6.7 0.7l-17.7-4.9q-3.7-1.1-5.6-4.4t-0.7-7z m166-60.6q0-3.7 2.9-6.5l112.3-112.3-112.3-112.3q-2.9-2.9-2.9-6.6t2.9-6.5l14.3-14.3q2.8-2.9 6.5-2.9t6.6 2.9l133.2 133.1q2.8 2.9 2.8 6.6t-2.8 6.6l-133.2 133.1q-2.8 2.9-6.6 2.9t-6.5-2.9l-14.3-14.3q-2.9-2.8-2.9-6.6z" /></svg>