<svg height="512" width="292.6" xmlns="http://www.w3.org/2000/svg"><path d="m0 420.6q0-14.9 7.4-27.6t20-19.9v-234.2q-12.5-7.2-20-19.9t-7.4-27.6q0-22.8 16-38.8t38.9-16 38.8 16 16 38.8q0 14.9-7.4 27.6t-20 19.9v142q15.4-7.5 44-16.3 15.7-4.9 25-8.5t20.1-8.8 16.9-11.3 11.6-14.6 8-19.8 2.4-26.2q-12.6-7.1-20-19.8t-7.4-27.6q0-22.9 16-38.9t38.8-16 38.9 16 16 38.9q0 14.9-7.5 27.6t-20 19.8q-0.5 82-64.5 118.3-19.5 10.9-58 23.2-36.6 11.4-48.5 20.2t-11.8 28.6v7.4q12.6 7.2 20 19.9t7.4 27.6q0 22.8-16 38.8t-38.8 16-38.9-16-16-38.8z m27.4 0q0 11.4 8 19.4t19.5 8 19.4-8 8-19.4-8-19.5-19.4-8-19.5 8-8 19.5z m0-329.2q0 11.5 8 19.5t19.5 8 19.4-8 8-19.5-8-19.4-19.4-8-19.5 8-8 19.4z m182.9 36.6q0 11.4 8 19.4t19.4 8 19.4-8 8-19.4-8-19.4-19.4-8-19.4 8-8 19.4z" /></svg>