<svg height="512" width="438.9" xmlns="http://www.w3.org/2000/svg"><path d="m0 287.1v-63.4q0-3.4 2.3-6.6t5.4-3.7l53.2-8q4-13.1 11.1-26.3-11.4-16.2-30.6-39.4-2.8-3.4-2.8-6.8 0-2.9 2.5-6.6 7.5-10.3 28.2-30.7t27-20.5q3.7 0 7.4 2.9l39.4 30.6q12.6-6.6 26-10.9 4.6-38.8 8.3-53.1 2-8 10.3-8h63.4q4 0 7 2.4t3.3 6.1l8 52.6q14 4.6 25.7 10.6l40.6-30.6q2.6-2.6 6.9-2.6 3.7 0 7.1 2.9 36.9 34 47.2 48.6 2 2.3 2 6.3 0 3.4-2.3 6.5-4.3 6-14.6 19t-15.4 20.2q7.4 14.3 11.7 28l52.3 8q3.7 0.5 6 3.5t2.3 6.8v63.4q0 3.4-2.3 6.6t-5.7 3.7l-52.9 8q-5.4 15.4-11.1 26 10 14.3 30.5 39.4 2.9 3.4 2.9 7.1t-2.6 6.6q-7.7 10.6-28.3 30.9t-26.8 20.3q-3.5 0-7.5-2.6l-39.4-30.9q-12.6 6.6-26 10.9-4.6 38.8-8.3 53.1-2 8-10.3 8h-63.4q-4 0-7-2.4t-3.3-6.1l-8-52.6q-14-4.6-25.7-10.6l-40.3 30.6q-2.8 2.6-7.1 2.6-4 0-7.2-3.2-36-32.6-47.1-48-2-2.8-2-6.6 0-3.4 2.3-6.5 4.3-6 14.6-19t15.4-20.2q-7.7-14.3-11.7-28.3l-52.3-7.7q-3.7-0.5-6-3.5t-2.3-6.8z m146.3-31.1q0 30.3 21.4 51.7t51.7 21.4 51.7-21.4 21.5-51.7-21.5-51.7-51.7-21.4-51.7 21.4-21.4 51.7z" /></svg>