<svg height="512" width="512.0" xmlns="http://www.w3.org/2000/svg"><path d="m0 256q0-49.7 34.3-91.9t93.1-66.5 128.6-24.5 128.6 24.5 93.1 66.5 34.3 91.9-34.3 91.9-93.1 66.5-128.6 24.5q-20 0-41.4-2.3-56.6 50-131.5 69.1-14 4-32.5 6.3h-1.5q-4.2 0-7.7-3t-4.5-7.9v-0.2q-0.9-1.2-0.2-3.5t0.6-2.8 1.3-2.7l1.7-2.6t2-2.4 2.3-2.6q2-2.3 8.8-9.9t9.9-10.8 8.8-11.3 9.3-14.6 7.7-16.8 7.5-21.8q-44.9-25.4-70.7-62.8t-25.9-80.3z m36.6 0q0 32 20.4 61t57.6 50.1l24.8 14.3-7.7 27.5q-6.8 26-20 49.1 43.4-18 78.6-48.9l12.3-10.8 16.3 1.7q19.7 2.3 37.1 2.3 58.3 0 109-19.9t80.6-53.5 29.8-72.9-29.8-72.9-80.6-53.5-109-19.9-109 19.9-80.6 53.5-29.8 72.9z" /></svg>