<svg height="512" width="402.3" xmlns="http://www.w3.org/2000/svg"><path d="m0 201.1v-182.8q0-7.4 5.4-12.9t12.9-5.4 12.8 5.4 5.5 12.9v118.8q0 7.5 5.4 12.9t12.9 5.4 12.8-5.4 5.4-12.9v-118.8q0-7.4 5.5-12.9t12.8-5.4 12.9 5.4 5.4 12.9v118.8q0 7.5 5.4 12.9t12.9 5.4 12.9-5.4 5.4-12.9v-118.8q0-7.4 5.4-12.9t12.9-5.4 12.8 5.4 5.5 12.9v182.8q0 17.5-10.2 31.8t-26.4 20v222.5q0 14.9-10.9 25.7t-25.7 10.9h-36.6q-14.8 0-25.7-10.9t-10.8-25.7v-222.5q-16.3-5.8-26.5-20t-10.1-31.8z m219.4 118.9v-228.6q0-37.7 26.9-64.5t64.6-26.9h73.1q7.4 0 12.9 5.4t5.4 12.9v457.1q0 14.9-10.9 25.7t-25.7 10.9h-36.6q-14.8 0-25.7-10.9t-10.8-25.7v-146.3h-64q-3.7 0-6.5-2.7t-2.7-6.4z" /></svg>