<svg height="512" width="438.9" xmlns="http://www.w3.org/2000/svg"><path d="m0 435.7v-359.4q0-16.6 11.6-28.2t28.1-11.5h359.4q16.6 0 28.2 11.5t11.6 28.2v359.4q0 16.6-11.6 28.2t-28.2 11.5h-359.4q-16.6 0-28.1-11.5t-11.6-28.2z m20.3 0q0 8 5.7 13.7t13.7 5.7h359.4q8 0 13.8-5.7t5.7-13.7v-359.4q0-8-5.7-13.7t-13.8-5.7h-359.4q-8 0-13.7 5.7t-5.7 13.7v359.4z m14.3 0v-40.3l203.1-55.7-60.6-125.4q1.2-0.3 3.5-0.7t3.4-0.5q48.6-9.1 86.7-6.1t63.2 13.1 41 27q7.7 8-7.2 12-18.3 4.6-73.1 17.8l-27.7-56.6q-31.8-2-68.6 4.6l53.7 110.5 152.3-41.4v141.7q0 2-1.6 3.6t-3.6 1.6h-359.4q-2 0-3.6-1.6t-1.5-3.6z m0-199.4v-160q0-2 1.5-3.6t3.6-1.6h359.4q2 0 3.6 1.6t1.6 3.6v122.3q-24.3-8.6-53.7-14.9-84-18.3-184.3-3.4l-5.2 0.8-18.5-38.2h-66.6l24.3 54.2q-37.7 14.6-65.7 39.2z m35.7 84.6q-6.9-58 47.4-87.2l36.9 77.2-72.9 17.4q-4 0.8-7.4-1.3t-4-6.1z" /></svg>