<svg height="512" width="438.9" xmlns="http://www.w3.org/2000/svg"><path d="m0 256q0-59.7 29.4-110.1t79.9-79.9 110.1-29.4 110.2 29.4 79.8 79.9 29.5 110.1-29.5 110.1-79.8 79.9-110.2 29.4-110.1-29.4-79.9-79.9-29.4-110.1z m32 0q0 35.4 12.6 67.6t35.4 57.5q14.3-25.4 35.3-47.5t40.7-35.6 37.3-23.1 28.4-13.8l10.6-3.7q1.1-0.3 3.7-1t3.7-1.3q-6-14-15.1-31.7-88.9 26.6-192.3 26.6-0.3 2-0.3 6z m4-38.6q86.3 0 173.1-22.8-34.2-60.9-69.7-108-39.4 18.5-66.8 53.1t-36.6 77.7z m64 183.2q52.6 42.8 119.4 42.8 37.7 0 73.2-14.8-12-68.9-40-142.3h-0.6l-0.6 0.3q-4.5 1.7-12.3 4.7t-28.8 14-39.2 23.4-37.4 32.7-29.4 42.3z m74-326.3q0.3-0.3 0.6-0.3-0.3 0-0.6 0.3z m1.1-0.3q37.5 48.6 70.3 109.1 19.7-7.4 37.2-17.2t27.5-17.6 18.8-16.3 10.7-11.6l3.5-5q-52.8-46.8-123.7-46.8-21.7 0-44.3 5.4z m84.6 137.1q7.2 15.2 12.6 27.2 0.6 1.7 1.8 5t2.2 4.7q10.3-1.4 21.3-2t21-0.6 19.7 0.5 18.3 1.1 16.1 1.6 13.7 1.8 10.5 1.7 7.1 1.3l2.9 0.6q-0.9-66.3-42.6-117.1l-0.3 0.2q-2.6 3.5-5.4 7t-12.5 12.8-20.2 17.2-28.6 18.6-37.6 18.4z m28 66.3q24.9 68.3 36.6 134 31.7-21.4 52.8-54.1t27.5-71.6q-60-17.1-116.9-8.3z" /></svg>