<svg height="512" width="512.0" xmlns="http://www.w3.org/2000/svg"><path d="m0 429.7v-310.8q0-18.9 13.4-32.3t32.3-13.5h420.6q18.8 0 32.3 13.5t13.4 32.3v310.8q0 18.9-13.4 32.3t-32.3 13.4h-420.6q-18.8 0-32.3-13.4t-13.4-32.3z m36.6 0q0 3.7 2.7 6.4t6.4 2.8h420.6q3.7 0 6.4-2.8t2.7-6.4v-219.4q-9.1 10.3-19.7 18.8-76.6 58.9-121.7 96.6-14.6 12.3-23.7 19.2t-24.7 13.8-29.3 7h-0.3-0.3q-13.7 0-29.3-7t-24.7-13.8-23.7-19.2q-45.1-37.7-121.7-96.6-10.6-8.5-19.7-18.8v219.4z m0-310.8q0 48 42 81.1 55.1 43.4 114.5 90.6 1.8 1.4 10 8.4t13.2 10.7 12.7 9 14.4 7.9 12.3 2.5h0.3 0.3q5.7 0 12.3-2.5t14.4-7.9 12.7-9 13.2-10.7 10-8.4q59.4-47.2 114.5-90.6 15.5-12.3 28.7-33t13.3-37.6v-3.1-3.9t-0.1-3.7-0.9-3.6-1.5-2.5-2.6-2.2-4-0.7h-420.6q-3.7 0-6.4 2.7t-2.7 6.5z" /></svg>