<svg height="512" width="438.9" xmlns="http://www.w3.org/2000/svg"><path d="m0 393.1v-274.2q0-34 24.1-58.2t58.2-24.1h274.3q34 0 58.1 24.1t24.2 58.2v274.2q0 34-24.2 58.2t-58.1 24.1h-274.3q-34 0-58.2-24.1t-24.1-58.2z m73.1-54.8q0 11.4 8 19.4t19.5 8h237.7q11.4 0 19.4-8t8-19.4v-124.6q-8.8 10-18.3 15.7-9.7 6.3-37.8 24.3t-43.3 28.3q-28 19.7-46.9 19.7t-46.8-19.7q-13.2-9.1-40.5-26.4t-40.7-26.5q-3.4-2.2-9.4-7.7t-8.9-7.7v124.6z m0-164.6q0 10.6 8.8 21.9t19.2 18.4q13.5 9.1 39.3 25.4t37 23.7q0.9 0.6 4.9 3.3t6 4 6 3.7 6.7 3.8 6.1 2.7 6.5 2.1 5.8 0.7 5.9-0.7 6.4-2.1 6.2-2.7 6.7-3.8 6-3.7 6-4 4.8-3.3l76.3-49.7q10-6.5 19-17.8t9-21q0-11.7-7.8-20t-19.6-8.3h-237.7q-11.5 0-19.5 8t-8 19.4z" /></svg>