<svg height="512" width="512.0" xmlns="http://www.w3.org/2000/svg"><path d="m0 365.7q0-4 2.6-6.6l91.4-91.4q2.6-2.6 6.6-2.6 3.7 0 6.4 2.8t2.7 6.4v54.8h393.2q3.7 0 6.4 2.8t2.7 6.4v54.8q0 3.8-2.7 6.5t-6.4 2.7h-393.2v54.8q0 3.8-2.7 6.5t-6.4 2.7q-3.5 0-6.9-2.9l-91.1-91.4q-2.6-2.6-2.6-6.3z m0-155.4v-54.9q0-3.7 2.7-6.4t6.4-2.7h393.2v-54.9q0-4 2.6-6.5t6.5-2.6q3.5 0 6.9 2.8l91.1 91.2q2.6 2.6 2.6 6.6t-2.6 6.5l-91.4 91.5q-2.6 2.5-6.6 2.5-3.7 0-6.4-2.7t-2.7-6.4v-54.9h-393.2q-3.7 0-6.4-2.7t-2.7-6.4z" /></svg>