<svg height="512" width="438.9" xmlns="http://www.w3.org/2000/svg"><path d="m0 457.1v-128q0-7.4 5.4-12.8t12.9-5.4 12.8 5.4l41.2 41.1 94.8-94.8q2.9-2.9 6.6-2.9t6.6 2.9l32.6 32.5q2.8 2.9 2.8 6.6t-2.8 6.6l-94.9 94.8 41.1 41.2q5.5 5.4 5.5 12.8t-5.5 12.9-12.8 5.4h-128q-7.4 0-12.9-5.4t-5.4-12.9z m223.1-246.8q0-3.7 2.9-6.6l94.9-94.8-41.2-41.2q-5.4-5.4-5.4-12.8t5.4-12.9 12.9-5.4h128q7.4 0 12.8 5.4t5.5 12.9v128q0 7.4-5.5 12.8t-12.8 5.4-12.9-5.4l-41.1-41.1-94.9 94.8q-2.8 2.9-6.6 2.9t-6.5-2.9l-32.6-32.5q-2.9-2.9-2.9-6.6z" /></svg>