<svg height="512" width="512.0" xmlns="http://www.w3.org/2000/svg"><path d="m0 274.3q0-10.9 5.7-19.7 43.7-67.2 108.6-106t141.7-38.9q25.4 0 51.4 4.9l15.5-27.7q2.8-4.6 8-4.6 1.4 0 5.1 1.7t8.9 4.4 9.4 5.3 9 5.3 5.6 3.3q4.5 2.8 4.5 7.7 0 2-0.3 2.6-30 53.7-90 161.7t-90.2 162l-14 25.4q-2.9 4.6-8 4.6-3.5 0-38.3-20-4.6-2.9-4.6-8 0-3.4 12.6-24.9-40.9-18.5-75.3-49.4t-59.6-70q-5.7-8.9-5.7-19.7z m36.6 0q47.7 73.7 122 107.1l22.3-40.3q-24.9-18-38.9-45.4t-14-58q0-34.6 17.4-64.3-65.4 33.5-108.8 100.9z m132.5-36.6q0 5.7 4 9.7t9.8 4 9.7-4 4-9.7q0-24.6 17.4-42t42-17.4q5.7 0 9.7-4t4-9.7-4-9.7-9.7-4q-35.7 0-61.3 25.5t-25.6 61.3z m86.9 201.2l21.1-37.8q60.6-5.1 112.2-39.1t86.1-87.7q-32.8-51.2-80.5-84l18-32q27.1 18.3 52.1 43.7t41.3 52.6q5.7 9.7 5.7 19.7t-5.7 19.7q-11.2 18.3-31.2 41.4-42.8 49.2-99.2 76.3t-119.9 27.2z m45.7-81.8l80-143.4q2.3 12.9 2.3 24 0 39.7-22.6 72.4t-59.7 47z" /></svg>