<svg height="512" width="512.0" xmlns="http://www.w3.org/2000/svg"><path d="m0 274.3q0-9.7 5.7-19.7 40-65.5 107.6-105.2t142.7-39.7 142.7 39.7 107.6 105.2q5.7 10 5.7 19.7t-5.7 19.7q-40 65.7-107.6 105.3t-142.7 39.6-142.7-39.8-107.6-105.1q-5.7-10-5.7-19.7z m36.6 0q38 58.6 95.3 93.3t124.1 34.7 124.1-34.7 95.3-93.3q-43.4-67.4-108.8-100.9 17.4 29.7 17.4 64.3 0 52.9-37.6 90.4t-90.4 37.6-90.4-37.6-37.6-90.4q0-34.6 17.4-64.3-65.4 33.5-108.8 100.9z m132.5-36.6q0 5.7 4 9.7t9.8 4 9.7-4 4-9.7q0-24.6 17.4-42t42-17.4q5.7 0 9.7-4t4-9.7-4-9.7-9.7-4q-35.7 0-61.3 25.5t-25.6 61.3z" /></svg>