<svg height="512" width="512.0" xmlns="http://www.w3.org/2000/svg"><path d="m0 466.3v-310.9q0-18.8 13.4-32.3t32.3-13.4h36.6q18.8 0 32.3 13.4t13.4 32.3v310.9q0 18.8-13.4 32.3t-32.3 13.4h-36.6q-18.8 0-32.3-13.4t-13.4-32.3z m146.3 0v-438.9q0-11.4 8-19.4t19.4-8h192q11.4 0 25.2 5.7t21.7 13.7l43.4 43.5q8 8 13.7 21.7t5.7 25.1v46.6q16.6 9.7 26.6 26.6t10 36.5v219.5q0 30.2-21.4 51.7t-51.7 21.4h-246.9q-18.9 0-32.3-13.4t-13.4-32.3z m36.6-283.4h256v-73.2h-45.8q-11.4 0-19.4-8t-8-19.4v-45.7h-182.8v146.3z m27.4 256q0 4 2.6 6.5t6.5 2.6h36.6q4 0 6.6-2.6t2.5-6.5v-36.6q0-4-2.5-6.6t-6.6-2.6h-36.6q-4 0-6.5 2.6t-2.6 6.6v36.6z m0-73.2q0 4 2.6 6.6t6.5 2.6h36.6q4 0 6.6-2.6t2.5-6.6v-36.6q0-4-2.5-6.5t-6.6-2.6h-36.6q-4 0-6.5 2.6t-2.6 6.5v36.6z m0-73.1q0 4 2.6 6.5t6.5 2.6h36.6q4 0 6.6-2.6t2.5-6.5v-36.6q0-4-2.5-6.6t-6.6-2.5h-36.6q-4 0-6.5 2.5t-2.6 6.6v36.6z m73.1 146.3q0 4 2.6 6.5t6.6 2.6h36.5q4 0 6.6-2.6t2.6-6.5v-36.6q0-4-2.6-6.6t-6.6-2.6h-36.5q-4 0-6.6 2.6t-2.6 6.6v36.6z m0-73.2q0 4 2.6 6.6t6.6 2.6h36.5q4 0 6.6-2.6t2.6-6.6v-36.6q0-4-2.6-6.5t-6.6-2.6h-36.5q-4 0-6.6 2.6t-2.6 6.5v36.6z m0-73.1q0 4 2.6 6.5t6.6 2.6h36.5q4 0 6.6-2.6t2.6-6.5v-36.6q0-4-2.6-6.6t-6.6-2.5h-36.5q-4 0-6.6 2.5t-2.6 6.6v36.6z m73.2 146.3q0 4 2.5 6.5t6.6 2.6h36.6q4 0 6.6-2.6t2.5-6.5v-36.6q0-4-2.5-6.6t-6.6-2.6h-36.6q-4 0-6.6 2.6t-2.5 6.6v36.6z m0-73.2q0 4 2.5 6.6t6.6 2.6h36.6q4 0 6.6-2.6t2.5-6.6v-36.6q0-4-2.5-6.5t-6.6-2.6h-36.6q-4 0-6.6 2.6t-2.5 6.5v36.6z m0-73.1q0 4 2.5 6.5t6.6 2.6h36.6q4 0 6.6-2.6t2.5-6.5v-36.6q0-4-2.5-6.6t-6.6-2.5h-36.6q-4 0-6.6 2.5t-2.5 6.6v36.6z" /></svg>