<svg height="512" width="438.9" xmlns="http://www.w3.org/2000/svg"><path d="m0 484.6v-457.2q0-11.4 8-19.4t19.4-8h256q11.5 0 25.2 5.7t21.7 13.7l89.1 89.2q8 8 13.7 21.7t5.8 25.1v329.2q0 11.4-8 19.4t-19.5 8h-384q-11.4 0-19.4-8t-8-19.4z m36.6-9.2h365.7v-292.5h-118.9q-11.4 0-19.4-8t-8-19.5v-118.8h-219.4v438.8z m86-36.5h80.3v-30.3h-21.5l29.5-46q1.4-2 2.8-4.7t2.2-3.9 1-1.1h0.5q0.3 1.1 1.5 2.8 0.5 1.2 1.2 2.2t1.8 2.2 1.8 2.5l30.6 46h-21.7v30.3h83.1v-30.3h-19.4l-54.9-78 55.7-80.6h19.2v-30.6h-79.7v30.6h21.1l-29.4 45.4q-1.2 2-2.9 4.7t-2.5 3.9l-0.6 0.9h-0.6q-0.3-1.2-1.4-2.9-1.7-3.1-4.9-6.6l-30.3-45.4h21.8v-30.6h-82.9v30.6h19.4l54 77.7-55.4 80.9h-19.4v30.3z m170-292.6h107.4q-2.9-8.3-6.3-11.7l-89.4-89.5q-3.4-3.4-11.7-6.2v107.4z" /></svg>