<svg height="512" width="438.9" xmlns="http://www.w3.org/2000/svg"><path d="m0 484.6v-457.2q0-11.4 8-19.4t19.4-8h256q11.5 0 25.2 5.7t21.7 13.7l89.1 89.2q8 8 13.7 21.7t5.8 25.1v329.2q0 11.4-8 19.4t-19.5 8h-384q-11.4 0-19.4-8t-8-19.4z m36.6-9.2h365.7v-292.5h-118.9q-11.4 0-19.4-8t-8-19.5v-118.8h-219.4v438.8z m30-225.4h20l46.8 188.9h45.5l36.5-138.6q2-5.7 2.9-13.2 0.6-4.5 0.6-6.8h1.1l0.9 6.8q0.2 0.9 1 5.8t1.5 7.4l36.6 138.6h45.4l46.9-188.9h20v-30.6h-85.7v30.6h25.7l-28.3 125.1q-1.4 5.8-2 13.2l-0.6 6h-1.1l-0.9-6q-0.3-1.4-1.1-6t-1.4-7.2l-41.2-155.7h-32.6l-41.1 155.7q-0.6 2.6-1.3 7t-1 6.2l-1.1 6h-1.2l-0.5-6q-0.6-7.4-2-13.2l-28.3-125.1h25.7v-30.6h-85.7v30.6z m226-103.7h107.4q-2.9-8.3-6.3-11.7l-89.4-89.5q-3.4-3.4-11.7-6.2v107.4z" /></svg>