<svg height="512" width="438.9" xmlns="http://www.w3.org/2000/svg"><path d="m0 484.6v-457.2q0-11.4 8-19.4t19.4-8h256q11.5 0 25.2 5.7t21.7 13.7l89.1 89.2q8 8 13.7 21.7t5.8 25.1v329.2q0 11.4-8 19.4t-19.5 8h-384q-11.4 0-19.4-8t-8-19.4z m36.6-9.2h365.7v-292.5h-118.9q-11.4 0-19.4-8t-8-19.5v-118.8h-36.6v36.5h-36.5v-36.5h-146.3v438.8z m73.1-91.4q0-7.1 2.3-14.9 6-18 34.3-113.1v-36.6h36.6v36.6h22.5q6.3 0 11.2 3.7t6.5 9.7l30.6 99.7q2.3 7.8 2.3 14.9 0 23.7-20.7 39.3t-52.4 15.6-52.5-15.6-20.7-39.3z m36.6 0q0 7.4 10.7 12.9t25.9 5.4 25.8-5.4 10.7-12.9-10.7-12.9-25.8-5.4-25.9 5.4-10.7 12.9z m0-201.1h36.6v-36.6h-36.6v36.6z m0-73.2h36.6v-36.6h-36.6v36.6z m36.6 109.7h36.5v-36.5h-36.5v36.5z m0-73.1h36.5v-36.6h-36.5v36.6z m109.7 0h107.4q-2.9-8.3-6.3-11.7l-89.4-89.5q-3.4-3.4-11.7-6.2v107.4z" /></svg>