<svg height="512" width="438.9" xmlns="http://www.w3.org/2000/svg"><path d="m0 484.6v-457.2q0-11.4 8-19.4t19.4-8h228.6v155.4q0 11.5 8 19.5t19.4 8h155.5v301.7q0 11.4-8 19.4t-19.5 8h-384q-11.4 0-19.4-8t-8-19.4z m109.7-91.5q0 4 2.6 6.6t6.6 2.6h201.1q4 0 6.6-2.6t2.5-6.6v-18.2q0-4-2.5-6.6t-6.6-2.6h-201.1q-4 0-6.6 2.6t-2.6 6.6v18.2z m0-73.1q0 4 2.6 6.6t6.6 2.5h201.1q4 0 6.6-2.5t2.5-6.6v-18.3q0-4-2.5-6.6t-6.6-2.5h-201.1q-4 0-6.6 2.5t-2.6 6.6v18.3z m0-73.1q0 4 2.6 6.5t6.6 2.6h201.1q4 0 6.6-2.6t2.5-6.5v-18.3q0-4-2.5-6.6t-6.6-2.6h-201.1q-4 0-6.6 2.6t-2.6 6.6v18.3z m182.9-100.6v-134.9q6.3 4 10.3 8l116.5 116.6q4 4 8 10.3h-134.8z" /></svg>