<svg height="512" width="438.9" xmlns="http://www.w3.org/2000/svg"><path d="m0 484.6v-457.2q0-11.4 8-19.4t19.4-8h256q11.5 0 25.2 5.7t21.7 13.7l89.1 89.2q8 8 13.7 21.7t5.8 25.1v329.2q0 11.4-8 19.4t-19.5 8h-384q-11.4 0-19.4-8t-8-19.4z m36.6-9.2h365.7v-292.5h-118.9q-11.4 0-19.4-8t-8-19.5v-118.8h-219.4v438.8z m36-159.1q-4-5.4 0-10.9l64.5-86q2.3-3.1 6-3.5t6.9 1.8l14.6 10.9q3.1 2.3 3.5 6t-1.8 6.8l-52 69.5 52 69.4q2.3 3.1 1.8 6.8t-3.5 6l-14.6 10.9q-3.1 2.3-6.9 1.9t-6-3.6z m109.1 110.3l39.4-237.5q0.6-3.7 3.8-5.8t6.8-1.6l18 2.9q3.7 0.5 5.9 3.7t1.5 6.8l-39.4 237.5q-0.6 3.7-3.7 5.8t-6.9 1.6l-18-2.9q-3.7-0.5-5.8-3.7t-1.6-6.8z m89-39.5q-0.4-3.7 1.9-6.8l52-69.4-52-69.5q-2.3-3.1-1.9-6.8t3.6-6l14.6-10.9q3.1-2.3 6.8-1.8t6 3.5l64.6 86q4 5.5 0 10.9l-64.6 86q-2.3 3.1-6 3.6t-6.8-1.9l-14.6-10.9q-3.2-2.2-3.6-6z m21.9-240.8h107.4q-2.9-8.3-6.3-11.7l-89.4-89.5q-3.4-3.4-11.7-6.2v107.4z" /></svg>