<svg height="512" width="512.0" xmlns="http://www.w3.org/2000/svg"><path d="m0 374.9v-192q0-11.5 5.7-25.2t13.7-21.7l116.6-116.6q8-8 21.7-13.7t25.2-5.7h118.8q11.4 0 19.4 8t8 19.4v93.7q19.5-11.4 36.6-11.4h118.9q11.4 0 19.4 8t8 19.4v347.5q0 11.4-8 19.4t-19.4 8h-274.3q-11.4 0-19.4-8t-8-19.4v-82.3h-155.5q-11.4 0-19.4-8t-8-19.4z m36.6-9.2h146.3v-73.1q0-11.5 5.7-25.2t13.7-21.7l90.3-90.3v-118.8h-109.7v118.8q0 11.5-8 19.5t-19.5 8h-118.8v182.8z m24.3-219.4h85.4v-85.4z m158.5 329.1h256v-329.1h-109.7v118.8q0 11.5-8 19.5t-19.4 8h-118.9v182.8z m24.3-219.4h85.4v-85.4z" /></svg>