<svg height="512" width="438.9" xmlns="http://www.w3.org/2000/svg"><path d="m0 484.6v-457.2q0-11.4 8-19.4t19.4-8h256q11.5 0 25.2 5.7t21.7 13.7l89.1 89.2q8 8 13.7 21.7t5.8 25.1v329.2q0 11.4-8 19.4t-19.5 8h-384q-11.4 0-19.4-8t-8-19.4z m36.6-9.2h365.7v-292.5h-118.9q-11.4 0-19.4-8t-8-19.5v-118.8h-219.4v438.8z m36.8-53.7q2.6-11.4 16-26.1t37.7-27.6q4-2.6 6.6 1.7 0.6 0.6 0.6 1.2 14.8-24.3 30.6-56.3 19.4-38.9 29.7-74.9-6.9-23.4-8.7-45.6t1.8-36.4q3.2-11.4 12-11.4h6 0.3q6.6 0 10 4.3 5.1 6 2.6 19.4-0.6 1.7-1.2 2.3 0.3 0.8 0.3 2.3v8.5q-0.6 35.2-4 54.9 15.7 46.9 41.7 68 9.5 7.4 24 16 16.9-2 33.5-2 42 0 50.5 14 4.6 6.3 0.6 14.9 0 0.2-0.3 0.5l-0.6 0.6v0.3q-1.7 10.8-20.2 10.8-13.8 0-32.9-5.7t-37.1-15.1q-63.2 6.8-112 23.7-43.8 74.9-69.2 74.9-4.3 0-8-2l-6.8-3.5q-0.3-0.3-1.8-1.4-2.8-2.9-1.7-10.3z m17.5 1.7q14.8-6.8 39.1-45.1-14.6 11.4-25 24t-14.1 21.1z m78.2-74q38.6-15.4 81.2-23.1-0.6-0.3-3.7-2.7t-4.6-3.9q-21.7-19.1-36.3-50.3-7.7 24.6-23.7 56.3-8.6 16-12.9 23.7z m34.9-151.1q0.3-2 2-12.6 0-0.8 2-12.3 0.3-1.1 1.1-2.3-0.2-0.2-0.2-0.5t-0.2-0.5-0.1-0.4q-0.3-6.3-3.7-10.3 0 0.3-0.3 0.6v0.6q-4.3 12-0.6 37.7z m88.6-52h107.4q-2.9-8.3-6.3-11.7l-89.4-89.5q-3.4-3.4-11.7-6.2v107.4z m21.1 191.7q21.7 8 35.4 8 4 0 5.2-0.3 0-0.3-0.6-0.8-6.8-6.9-40-6.9z" /></svg>