<svg height="512" width="475.4" xmlns="http://www.w3.org/2000/svg"><path d="m0 475.4l0.6-22.5q6.5-2 16-3.6t16.3-3 14.1-4.2 12.7-8.2 8.9-14.5l67.7-176 80-206.8h21.4 15.2q2.2 4 3.1 6l58.6 137.1q9.4 22.3 30.3 73.6t32.5 78.4q4.3 9.7 16.6 41.3t20.6 48.1q5.7 12.9 10 16.3 5.4 4.3 25.1 8.5t24 5.8q1.7 10.9 1.7 16.3 0 1.1-0.1 3.7t-0.2 3.7q-18 0-54.2-2.3t-54.6-2.2q-21.7 0-61.4 2t-50.9 2.2q0-12.2 1.1-22.2l37.5-8q0.3 0 3.5-0.8t4.5-1 4.1-1.2 4.3-1.9 3.1-2.3 2.6-3.1 0.7-4q0-4.6-8.8-27.6t-20.6-50.7-12-28.6l-128.6-0.6q-7.4 16.6-21.8 55.9t-14.5 46.4q0 6.3 4 10.7t12.5 7 13.8 3.9 16.3 2.4 11.7 1.2q0.3 5.4 0.3 16.5 0 2.6-0.6 7.8-16.5 0-49.8-2.9t-49.9-2.9q-2.3 0-7.5 1.2t-6.2 1.1q-22.8 4-53.7 4z m158.6-187.1q9.4 0 39 0.6t45.8 0.5q5.5 0 16.3-0.5-24.8-72.3-52.6-129.2z" /></svg>