<svg height="512" width="292.6" xmlns="http://www.w3.org/2000/svg"><path d="m0 429.7v-42.8q0-3.8 2.7-6.5t6.4-2.7h27.8v-109.4h-27.2q-4 0-6.6-2.7t-2.5-6.5v-37.4q0-4 2.5-6.6t6.6-2.5h27.2v-63.7q0-48.9 35.2-80.6t89.9-31.7q52.9 0 95.7 35.7 2.6 2.3 2.9 5.8t-2 6.5l-29.5 36.3q-2.5 3.1-6.2 3.4-3.8 0.6-6.6-2-1.4-1.4-7.4-5.4t-19.8-9.2-26.5-5.1q-24.3 0-39.2 13.4t-14.8 35.1v61.5h87.1q3.7 0 6.4 2.5t2.8 6.6v37.4q0 3.8-2.8 6.5t-6.4 2.7h-87.1v108.3h118.3v-51.7q0-3.8 2.5-6.5t6.6-2.7h46.3q4 0 6.6 2.7t2.5 6.5v104.8q0 4-2.5 6.6t-6.6 2.6h-273.2q-4 0-6.5-2.6t-2.6-6.6z" /></svg>