<svg height="512" width="438.9" xmlns="http://www.w3.org/2000/svg"><path d="m0 283.4v-91.4q0-4 2.6-6.6t6.5-2.5h125.8q-26.6 0-45.3-18.8t-18.7-45.2 18.7-45.3 45.3-18.7q30.5 0 48 22l36.5 47.1 36.6-47.1q17.4-22 48-22 26.6 0 45.3 18.7t18.7 45.3-18.7 45.2-45.3 18.8h125.7q4 0 6.6 2.5t2.6 6.6v91.4q0 4-2.6 6.6t-6.6 2.6h-27.4v118.8q0 11.5-8 19.5t-19.4 8h-310.9q-11.4 0-19.4-8t-8-19.5v-118.8h-27.5q-4 0-6.5-2.6t-2.6-6.6z m107.4-164.5q0 11.4 8 19.4t19.5 8h55.7l-36-46q-7.5-8.9-19.7-8.9-11.5 0-19.5 8t-8 19.5z m66.3 268.5q0 7.2 5.2 11t13.1 3.9h54.9q8 0 13.1-3.9t5.1-11v-16-133.7-54.8h-91.4v54.8 133.7 16z m74.9-241.1h55.4q11.4 0 19.4-8t8-19.4-8-19.5-19.4-8q-12.3 0-19.7 8.9z" /></svg>