<svg height="512" width="438.9" xmlns="http://www.w3.org/2000/svg"><path d="m0 393.1v-274.2q0-34 24.1-58.2t58.2-24.1h274.3q34 0 58.1 24.1t24.2 58.2v274.2q0 34-24.2 58.2t-58.1 24.1h-274.3q-34 0-58.2-24.1t-24.1-58.2z m73.1-16.5q0 12.8 5.8 22.4t15.4 14.6 20.6 7.3 23.1 2.2q64 0 64-53.7 0-19.1-13.7-28.3t-36-13.1q-7.7-1.4-14.7-5.9t-7-11.2q0-12.6 14-14.9 22-4.3 34.8-20t12.9-38.3q0-6.8-2.9-14.8 10.6-2.6 14-3.8v-35.7q-22.3 8.3-38.5 8.3-14.3-8.3-31.5-8.3-24.5 0-41.4 16.3t-16.9 40.9q0 14.3 8.5 29.1t21 19.2v0.8q-10.9 4.9-10.9 24.3 0 15.1 11.7 22v0.9q-32.3 10.5-32.3 39.7z m36-2q0-18.3 28-18.3 29.2 0 29.2 17.4 0 18.9-26.6 18.9-30.6 0-30.6-18z m3.8-133.7q0-25.8 22-25.8 10.2 0 15.7 7.3t5.4 18.2q0 24.3-21.1 24.3-22 0-22-24z m102.8-108.3q0 10.3 7.2 17.8t17.1 7.6 17-7.7 7-17.7q0-10.3-6.9-18.2t-17.1-7.8-17.3 7.7-7 18.3z m4.6 206.3h39.1q-0.5-7.8-0.5-23.5v-110.5q0-13.2 0.5-19.8h-39.1q0.8 6.6 0.8 20.3v112q0 14.3-0.8 21.5z m55.7-120.3q10.3-0.9 10.6-0.9 0.8 0 3.1 0.2t3.4 0.1v0.6h-0.5v62q0 10.5 0.7 18.3t3.3 16.1 7 13.9 12.4 8.8 18.9 3.4q18.2 0 30.8-6.8v-34.6q-8.6 6-19.4 6-15.2 0-15.2-23.4v-64.3h14.9q2.6 0 7.6 0.3t7.5 0.3v-33.5h-30q0-23.4 0.9-29.1h-40q1.1 6.9 1.1 15.7v13.4h-17.1v33.5z" /></svg>