<svg height="512" width="475.4" xmlns="http://www.w3.org/2000/svg"><path d="m0 297.1q0-67.7 38.9-113.1-7.8-23.4-7.8-48.6 0-33.1 14.6-62.3 30.9 0 54.3 11.3t54 35.3q42-10 88.3-10 42.3 0 80 9.2 30-23.5 53.4-34.6t54-11.2q14.6 29.2 14.6 62.3 0 24.9-7.7 48 38.8 45.7 38.8 113.7 0 59.2-17.4 94.6-10.9 22-30.1 38t-40.3 24.6-48.6 13.6-49 6.2-47.7 1.3q-22.3 0-40.6-0.8t-42.1-3.6-43.6-8.6-39.1-14.7-34.6-23.1-24.6-32.9q-17.7-35.1-17.7-94.6z m64 50.3q0 25.2 9.1 43.9t23.2 29.4 34.8 17.2 40 8.4 42.6 2h48q23.4 0 42.6-2t40-8.4 34.8-17.2 23.2-29.4 9.1-43.9q0-34.3-19.7-58.3t-53.4-24q-11.7 0-55.7 6-20.3 3.2-44.9 3.2t-44.8-3.2q-43.5-6-55.8-6-33.7 0-53.4 24t-19.7 58.3z m45.7 0q0-11.4 3.6-23.4t12.3-21.7 20.7-9.7 20.7 9.7 12.3 21.7 3.6 23.4-3.6 23.5-12.3 21.7-20.7 9.7-20.7-9.7-12.3-21.7-3.6-23.5z m182.9 0q0-11.4 3.5-23.4t12.3-21.7 20.7-9.7 20.8 9.7 12.2 21.7 3.6 23.4-3.6 23.5-12.2 21.7-20.8 9.7-20.7-9.7-12.3-21.7-3.5-23.5z" /></svg>