<svg height="512" width="438.9" xmlns="http://www.w3.org/2000/svg"><path d="m0 256q0-59.7 29.4-110.1t79.9-79.9 110.1-29.4 110.2 29.4 79.8 79.9 29.5 110.1q0 71.7-41.9 129t-108.1 79.3q-7.8 1.4-11.3-2t-3.6-8.6v-60.3q0-27.7-14.9-40.5 16.3-1.8 29.3-5.2t26.9-11.1 23.1-19 15.2-30 5.8-43q0-34.6-22.5-58.9 10.5-26-2.3-58.3-8-2.5-23.2 3.2t-26.3 12.5l-10.8 6.9q-26.6-7.4-54.9-7.4t-54.8 7.4q-4.6-3.1-12.2-7.7t-23.8-11-24.6-3.9q-12.6 32.3-2 58.3-22.6 24.3-22.6 58.9 0 24.3 5.9 42.8t15 30 23 19.2 26.8 11.1 29.3 5.2q-11.4 10.2-14 29.4-6 2.8-12.8 4.3t-16.3 1.4-18.7-6.1-15.9-17.9q-5.4-9.1-13.8-14.9t-14.2-6.8l-5.7-0.9q-6 0-8.3 1.3t-1.4 3.3 2.6 4 3.7 3.4l2 1.5q6.3 2.8 12.4 10.8t9 14.6l2.9 6.6q3.7 10.8 12.5 17.5t19.2 8.6 19.8 2 15.9-1l6.6-1.1q0 10.8 0.1 25.4t0.1 15.4q0 5.2-3.7 8.6t-11.4 2q-66.3-22-108.1-79.3t-41.9-129z" /></svg>