<svg height="512" width="365.7" xmlns="http://www.w3.org/2000/svg"><path d="m31.7 386.9q0-23.2 12.7-42.9t33.9-32.9q37.4-23.4 115.4-28.5-9.1-11.7-13.6-21t-4.4-21q0-11.5 6-24.3-13.1 1.1-19.4 1.1-42.3 0-71.3-27.5t-29-69.9q0-23.4 10.3-45.4t28.3-37.5q21.7-18.8 52-28t62.3-9.1h119.1l-39.1 25.1h-37.8q21.5 18 32.3 38t10.9 45.8q0 20.5-7 37t-17 26.5-19.9 18.6-16.8 17.6-7 18.8q0 10.3 9.1 20.2t22 19.4 25.9 21 22.1 29.7 9.2 40.6q0 26-14 49.4-20.3 34.9-59.9 51.3t-85.3 16.4q-37.7 0-70.4-11.8t-49.3-39.3q-10.3-16.9-10.3-37.4z m53.2-13.2q0 16 6.7 29.2t17.4 21.5 24.9 14.3 28.5 8.3 29 2.4q16.6 0 31.9-3.7t28.3-11.1 20.8-20.9 7.9-31.1q0-7.2-2-14t-4.2-12-7.7-11.9-8.4-10-11-9.8-10.4-8.3-11.9-8.6-10.4-7.4q-4.6-0.6-14-0.6-15.2 0-29.9 2t-30.5 7.1-27.8 13.2-19.5 21.3-7.7 30.1z m30.2-284q0 13.2 2.9 27.9t9 29.4 14.9 26.4 21.4 19.2 27.6 7.4q10.5 0 22.1-4.7t18.7-12.4q15.2-16 15.2-45.5 0-16.8-4.9-35.8t-13.7-36.9-24-29.6-33.4-11.7q-12 0-23.6 5.6t-19 15q-13.2 16.9-13.2 45.7z" /></svg>