<svg height="512" width="438.9" xmlns="http://www.w3.org/2000/svg"><path d="m0 393.1v-274.2q0-34 24.1-58.2t58.2-24.1h274.3q34 0 58.1 24.1t24.2 58.2v274.2q0 34-24.2 58.2t-58.1 24.1h-274.3q-34 0-58.2-24.1t-24.1-58.2z m78.9-42.5q0 12.3 5.2 22.1t13.9 16.2 19.7 10.5 22.2 6 21.8 1.7q17.2 0 34.4-4.4t32.5-13.1 24.5-23.6 9.5-33.4q0-14-5.7-25.6t-14-19-16.6-13.6-14-12.5-5.7-12.8 4.4-12.1 10.7-11.3 12.6-12 10.7-17 4.4-23.6q0-17.1-6.4-28.4t-20.7-25.8h23.7l25.1-18.3h-75.7q-24.3 0-46 9.1t-36.4 28-14.7 43.7q0 26.6 18.4 44.2t45.3 17.5q6.3 0 12.3-0.8-3.7 8.3-3.7 15.4 0 12.6 11.4 26.9-50 3.4-73.4 18-13.5 8.3-21.6 20.8t-8.1 27.2z m34-8.3q0-13.2 7.1-22.9t18.7-14.7 23.4-7.1 24.2-2.2q5.7 0 8.8 0.6 0.6 0.3 6.6 4.7t7.4 5.4 6.6 5.2 7 6.3 5.4 6.4 4.9 7.4 2.6 7.6 1.3 9q0 21.7-16.8 32.1t-39.8 10.5q-11.7 0-23-2.7t-21.6-8.2-16.6-15.1-6.2-22.3z m19.1-180.3q0-17.4 9.1-29.7t26.3-12.3q15.2 0 26.7 12.9t16.6 28.8 5 30.6q0 17.1-9.4 28.4t-26.3 11.3q-15.1 0-26.6-12.1t-16.4-27.6-5-30.3z m142.3 84.9h36.6v45.7h18.2v-45.7h36.6v-18.3h-36.6v-36.6h-18.2v36.6h-36.6v18.3z" /></svg>