<svg height="512" width="658.3" xmlns="http://www.w3.org/2000/svg"><path d="m0 146.3q0-6.6 6.3-8.9l320-100.5q1.1-0.3 2.8-0.3t2.9 0.3l320 100.5q6.3 2.3 6.3 8.9t-6.3 8.8l-320 100.6q-1.1 0.3-2.9 0.3t-2.8-0.3l-186.3-58.8q-12.3 9.7-20.3 31.8t-9.7 51q18 10.3 18 31.2 0 19.7-16.6 30.5l16.6 123.7q0.6 4-2.3 7.2-2.6 3.1-6.8 3.1h-54.9q-4.3 0-6.9-3.1-2.8-3.2-2.2-7.2l16.5-123.7q-16.5-10.8-16.5-30.5 0-20.9 18.5-31.8 3.2-59.1 28-94.2l-95.1-29.8q-6.3-2.2-6.3-8.8z m146.3 182.8l5.1-90.2 164 51.7q6.3 2 13.7 2t13.8-2l164-51.7 5.1 90.2q1.1 19.8-23.4 36.6t-67.2 26.7-92.3 9.9-92.2-9.9-67.2-26.7-23.4-36.6z" /></svg>