<svg height="512" width="512.0" xmlns="http://www.w3.org/2000/svg"><path d="m0 219.1q0-29.4 21.7-51.1t51.4-21.7h106.9q-6.3-17.2-6.3-36.6 0-34.8 23.3-54t59-19.1q10.9 0 19.9 5t15.7 14.1 11.5 18 10.6 20.6 9.4 17.7q10 15.7 28.6 36.9 0.6 0.8 4 4.8t5.4 6.2 5.9 6.1 6.9 6.4 6.4 5.2 6.7 4 6.1 1.3h82.3q15.2 0 25.9 10.7t10.7 25.8v182.9q0 15.1-10.7 25.8t-25.9 10.8h-82.3q-16.8 0-63.7 16.8-54.3 19.7-90.5 19.7-40.6 0-65.8-22.1t-24.8-62.2l0.3-1.4q-17.5-21.7-17.5-50.8 0-6.3 0.9-12.3-9.4-16.3-10.6-34h-48.3q-30 0-51.5-21.7t-21.6-51.8z m36.6 0.3q0 14.9 10.8 25.7t25.7 10.9h94.6q-4.3 4.9-7.1 13.6t-2.9 15.8q0 19.7 15.2 34-5.2 9.2-5.2 19.7t5 21 13.6 15q-1.2 6.9-1.2 16 0 24.3 13.9 36t38.7 11.8q24 0 52.3-9.2t55.4-18.3 47.7-9.1h9.2v-182.9h-9.2q-10 0-19.2-3.4t-17.9-10.6-14.3-13.1-14-15.4q-0.6-0.9-1-1.3t-1.1-1.3-1.3-1.4q-20.6-23.2-32-41.5-4-6.3-10.9-19.4-0.3-0.9-3-6.4t-5.3-10.3-5.7-10.2-6.1-8.7-5.3-3.3q-20.3 0-33 8.8t-12.7 27.8q0 12.3 4.3 24.2t9.4 19.4 9.4 15.7 4.3 13.9h-164.6q-14.2 0-25.4 11t-11.1 25.5z m402.3 164.6q0 7.4 5.4 12.9t12.8 5.4 12.9-5.4 5.4-12.9-5.4-12.9-12.9-5.4-12.8 5.4-5.4 12.9z" /></svg>