<svg height="512" width="438.9" xmlns="http://www.w3.org/2000/svg"><path d="m0 393.1v-91.4q0-7.1 4.6-21.4l56.3-173.2q4.8-15.1 18-24.5t28.8-9.5h223.4q15.8 0 28.9 9.5t18 24.5l56.3 173.2q4.6 14.3 4.6 21.4v91.4q0 18.9-13.5 32.3t-32.3 13.5h-347.4q-18.8 0-32.3-13.5t-13.4-32.3z m36.6 0q0 3.8 2.7 6.5t6.4 2.7h347.4q3.8 0 6.5-2.7t2.7-6.5v-91.4q0-3.7-2.7-6.4t-6.5-2.7h-347.4q-3.7 0-6.4 2.7t-2.7 6.4v91.4z m14.3-137.1h337.1l-44.9-137.7q-1.1-3.7-4.5-6.2t-7.5-2.4h-223.4q-4 0-7.4 2.4t-4.6 6.2z m200.5 91.4q0-9.4 6.7-16.1t16.2-6.7 16.1 6.7 6.7 16.1-6.7 16.2-16.1 6.7-16.2-6.7-6.7-16.2z m73.2 0q0-9.4 6.7-16.1t16.1-6.7 16.2 6.7 6.7 16.1-6.7 16.2-16.2 6.7-16.1-6.7-6.7-16.2z" /></svg>