<svg height="512" width="475.4" xmlns="http://www.w3.org/2000/svg"><path d="m0 253.1q0-43.1 19.1-83.1t51.2-69.3 76-46.7 91.4-17.4 91.4 17.4 76 46.7 51.2 69.3 19.1 83.1q0 47.5-17.1 89.8l-5.7 14-52.9 9.4q-6.3 23.7-25.8 39t-44.8 15.3v9.1q0 4-2.5 6.6t-6.6 2.6h-18.3q-4 0-6.6-2.6t-2.5-6.6v-164.6q0-4 2.5-6.5t6.6-2.6h18.3q4 0 6.6 2.6t2.5 6.5v9.2q20.3 0 37.2 10.1t26.6 27.3l19.4-3.4q8.3-27.2 8.3-55.2 0-42.2-25.2-79.7t-67.5-59.7-90.2-22.3-90.1 22.3-67.6 59.7-25.1 79.7q0 28 8.2 55.2l19.5 3.4q9.7-17.1 26.5-27.3t37.2-10.1v-9.2q0-4 2.6-6.5t6.5-2.6h18.3q4 0 6.6 2.6t2.6 6.5v164.6q0 4-2.6 6.6t-6.6 2.6h-18.3q-4 0-6.5-2.6t-2.6-6.6v-9.1q-25.2 0-44.7-15.3t-25.9-39l-52.8-9.4-5.8-14q-17.1-42.3-17.1-89.8z" /></svg>