<svg height="512" width="548.6" xmlns="http://www.w3.org/2000/svg"><path d="m0 429.7v-347.4q0-18.9 13.4-32.3t32.3-13.4h457.2q18.8 0 32.2 13.4t13.5 32.3v347.4q0 18.9-13.5 32.3t-32.2 13.4h-457.2q-18.8 0-32.3-13.4t-13.4-32.3z m36.6 0q0 3.7 2.7 6.4t6.4 2.8h457.2q3.7 0 6.4-2.8t2.7-6.4v-347.4q0-3.7-2.7-6.4t-6.4-2.8h-457.2q-3.7 0-6.4 2.8t-2.7 6.4v347.4z m36.5-27.4v-54.9l91.5-91.4 45.7 45.7 146.3-146.3 118.8 118.9v128h-402.3z m0-237.7q0-22.9 16-38.9t38.9-16 38.9 16 16 38.9-16 38.8-38.9 16-38.9-16-16-38.8z" /></svg>