<svg height="512" width="512.0" xmlns="http://www.w3.org/2000/svg"><path d="m0 429.7v-54.8q0-3.8 2.7-6.5t6.4-2.7h493.8q3.7 0 6.4 2.7t2.7 6.5v54.8q0 3.7-2.7 6.4t-6.4 2.8h-493.8q-3.7 0-6.4-2.8t-2.7-6.4z m0-109.7v-164.6q0-3.7 2.7-6.4t6.4-2.7q4 0 6.6 2.6l82.3 82.2q2.6 2.6 2.6 6.6t-2.6 6.6l-82.3 82.3q-2.6 2.5-6.6 2.5-3.7 0-6.4-2.7t-2.7-6.4z m0-219.4v-54.9q0-3.7 2.7-6.4t6.4-2.7h493.8q3.7 0 6.4 2.7t2.7 6.4v54.9q0 3.7-2.7 6.4t-6.4 2.7h-493.8q-3.7 0-6.4-2.7t-2.7-6.4z m182.9 219.4v-54.9q0-3.7 2.7-6.4t6.4-2.7h310.9q3.7 0 6.4 2.7t2.7 6.4v54.9q0 3.7-2.7 6.4t-6.4 2.7h-310.9q-3.7 0-6.4-2.7t-2.7-6.4z m0-109.7v-54.9q0-3.7 2.7-6.4t6.4-2.7h310.9q3.7 0 6.4 2.7t2.7 6.4v54.9q0 3.7-2.7 6.4t-6.4 2.7h-310.9q-3.7 0-6.4-2.7t-2.7-6.4z" /></svg>