<svg height="512" width="256.6" xmlns="http://www.w3.org/2000/svg"><path d="m0 266v-36.3q0-3.7 2.7-6.4t6.4-2.7h32q37.8 0 60.8-12.3t29.2-35.7h-122q-4 0-6.5-2.6t-2.6-6.6v-29.1q0-4 2.6-6.6t6.5-2.6h118q-16.2-32.2-76.5-32.2h-41.5q-3.7 0-6.4-2.8t-2.7-6.4v-38q0-4 2.6-6.6t6.5-2.5h237.8q4 0 6.5 2.5t2.6 6.6v29.2q0 4-2.6 6.5t-6.5 2.6h-66.6q13.4 17.4 18.3 41.1h48.8q4 0 6.6 2.6t2.6 6.6v29.1q0 4-2.6 6.6t-6.6 2.6h-48q-6.5 41.1-36.8 66.8t-78.9 31.5q47.7 50.8 131.2 153.1 4 4.6 1.1 9.7-2.3 5.2-8.3 5.2h-55.7q-4.6 0-7.1-3.5-87.5-104.8-142.3-163.1-2.6-2.6-2.6-6.3z" /></svg>