<svg height="512" width="292.6" xmlns="http://www.w3.org/2000/svg"><path d="m0 474.9l4.9-24.3q1.7-0.6 23.2-6.2t31.9-10.7q8-10 11.7-28.8 0.3-2 17.7-82.6t32.6-155.3 14.9-84.7v-7.2q-6.9-3.7-15.6-5.2t-19.9-2.3-16.5-1.6l5.4-29.4q9.4 0.5 34.3 1.8t42.7 2 34.4 0.7q13.7 0 28.2-0.7t34.5-2 28.2-1.8q-1.5 11.1-5.5 25.4-8.5 2.9-29 8.1t-31 9.6q-2.2 5.4-4 12.2t-2.5 11.4-2.2 13-1.8 12q-7.7 42.3-25 119.8t-22.2 101.6q-0.5 2.6-3.7 16.6t-5.7 25.7-4.6 23.9-1.7 16.4l0.3 5.1q4.9 1.2 52.9 8.9-0.9 12.6-4.6 28.3-3.2 0-9.3 0.4t-9.3 0.4q-8.3 0-24.8-2.8t-24.6-2.9q-39.4-0.6-58.9-0.6-14.5 0-40.8 2.6t-34.6 3.2z" /></svg>