<svg height="512" width="585.1" xmlns="http://www.w3.org/2000/svg"><path d="m0 322.6q0-31.5 15.7-58t42-42q-3.4-11.2-3.4-23.5 0-32.8 23.4-56t56.9-23.1q27.1 0 49.1 16.6 21.4-44 63.6-70.9t93.3-26.8q47.4 0 87.4 23t63.3 62.4 23.3 86q0 1.7-0.2 5.1t-0.1 5.2q31.7 13.1 51.3 41.5t19.5 63.3q0 46.9-33.7 80.2t-81.4 33.3q-1.1 0-3.3-0.2t-3-0.1h-345.4-0.3-0.6-1.4q-48.6-2.9-82.3-35.9t-33.7-80.1z m133.7-26q0 34.8 24 55.1t59.4 20.3q39.2 0 68.6-28.3-4.6-5.7-13.6-16.1t-12.4-14.5q-19.1 18.6-41.1 18.6-15.7 0-26.7-9.6t-11-25q0-15.1 11-24.8t26.1-9.7q12.6 0 24.1 6t20.9 15.7 18.6 21.4 19.7 23.4 22 21.5 27.7 15.7 34.7 6q34.6 0 58.4-20.4t23.9-54.5q0-34.5-24-54.8t-59.1-20.3q-40.9 0-68.9 27.7 4 4.6 8.4 9.7t9.9 11.4 8.3 9.8q18.8-18.3 40.5-18.3 14.9 0 26.3 9.4t11.5 24q0 16.3-10.6 26.1t-26.9 9.9q-12.3 0-23.5-6t-20.6-15.7-18.7-21.4-19.9-23.5-22.1-21.4-27.6-15.7-33.9-6q-34.8 0-59.1 20.1t-24.3 54.2z" /></svg>