<svg height="512" width="548.6" xmlns="http://www.w3.org/2000/svg"><path d="m0 402.3v-256q0-15.2 10.7-25.9t25.9-10.7h475.4q15.1 0 25.9 10.7t10.7 25.9v256q0 15.1-10.7 25.8t-25.9 10.8h-475.4q-15.2 0-25.9-10.8t-10.7-25.8z m36.6 0h475.4v-256h-475.4v256z m36.5-41.2v-27.4q0-4.6 4.6-4.6h27.4q4.6 0 4.6 4.6v27.4q0 4.6-4.6 4.6h-27.4q-4.6 0-4.6-4.6z m0-73.1v-27.4q0-4.6 4.6-4.6h64q4.6 0 4.6 4.6v27.4q0 4.6-4.6 4.6h-64q-4.6 0-4.6-4.6z m0-73.1v-27.5q0-4.5 4.6-4.5h27.4q4.6 0 4.6 4.5v27.5q0 4.5-4.6 4.5h-27.4q-4.6 0-4.6-4.5z m73.2 146.2v-27.4q0-4.6 4.6-4.6h246.8q4.6 0 4.6 4.6v27.4q0 4.6-4.6 4.6h-246.8q-4.6 0-4.6-4.6z m0-146.2v-27.5q0-4.5 4.6-4.5h27.4q4.6 0 4.6 4.5v27.5q0 4.5-4.6 4.5h-27.4q-4.6 0-4.6-4.5z m36.6 73.1v-27.4q0-4.6 4.5-4.6h27.5q4.5 0 4.5 4.6v27.4q0 4.6-4.5 4.6h-27.5q-4.5 0-4.5-4.6z m36.5-73.1v-27.5q0-4.5 4.6-4.5h27.4q4.6 0 4.6 4.5v27.5q0 4.5-4.6 4.5h-27.4q-4.6 0-4.6-4.5z m36.6 73.1v-27.4q0-4.6 4.6-4.6h27.4q4.6 0 4.6 4.6v27.4q0 4.6-4.6 4.6h-27.4q-4.6 0-4.6-4.6z m36.6-73.1v-27.5q0-4.5 4.5-4.5h27.5q4.5 0 4.5 4.5v27.5q0 4.5-4.5 4.5h-27.5q-4.5 0-4.5-4.5z m36.5 73.1v-27.4q0-4.6 4.6-4.6h27.4q4.6 0 4.6 4.6v27.4q0 4.6-4.6 4.6h-27.4q-4.6 0-4.6-4.6z m36.6-73.1v-27.5q0-4.5 4.6-4.5h27.4q4.6 0 4.6 4.5v27.5q0 4.5-4.6 4.5h-27.4q-4.6 0-4.6-4.5z m36.6 73.1v-27.4q0-4.6 4.6-4.6h32v-68.6q0-4.5 4.5-4.5h27.5q4.5 0 4.5 4.5v100.6q0 4.6-4.5 4.6h-64q-4.6 0-4.6-4.6z m36.6 73.1v-27.4q0-4.6 4.5-4.6h27.5q4.5 0 4.5 4.6v27.4q0 4.6-4.5 4.6h-27.5q-4.5 0-4.5-4.6z" /></svg>