<svg height="512" width="438.9" xmlns="http://www.w3.org/2000/svg"><path d="m0 443.4v-308q0.9-2.5 1.1-2.8 1.5-1.7 5.8-3.2 30.2-10 42.5-14.3v-109.7l159.5 56.6q0.5 0 45.8-15.7t90.3-31 46.1-15.3q5.8 0 5.8 6v119.4l42 13.5v308.2l-221.2-70.2q-4 1.7-107.1 36.4t-105.2 34.7q-3.7 0-5.1-3.7 0-0.3-0.3-0.9z m11.1-8.8l198.3-66.3v-294.9l-198.3 66.6v294.6z m30.9-79.5q1.7-1.1 23.4-26.2 6-6.9 24.5-32.9t22.4-33.7q4.8-8.6 14.6-28.2t10.2-22.1q-2.2-0.3-31.4 9.4-2.3 0.6-7.8 2.2t-9.9 2.7-4.9 1.4q-0.5 0.6-0.5 3t-0.3 2.7q-1.4 2.9-8.9 4.3-6.5 2-13.4 0-5.1-1.1-8-6-1.1-1.7-1.4-6.6 1.7-0.5 7-1.4t8.4-1.7q16.6-4.6 30-9.1 28.6-10 29.1-10 2.9-0.6 12.3-5.6t12.6-6.2q2.6-0.8 6.1-2.2t4.2-1.6 1.7 0.1q0.6 3.5-0.3 9.5 0 0.5-3.6 7.7t-7.5 15.3-4.9 9.5q-7.1 14.3-22 37.5l18.3 8q3.4 1.7 21.3 9.1t19.3 8q1.1 0.3 3 7.3t1.3 8.7q-0.3 0.9-3.6-0.1t-9-3.3l-5.7-2.6q-12.6-5.7-24.9-14-2-1.4-11.7-9t-10.9-8.1q-19.1 29.4-38.2 51.7-23.2 27.1-30 31.4-1.2 0.6-5.6 1.1t-5.3 0z m34.6-182.8l0.3-0.9q0.8 0.9 5.5 1.5t7.6 0 16.6-4.6q10.3-3.4 15.7-4 4.8 0 6 4.8 0.8 4.3-1.2 8-3.4 6.6-14.2 10.9-8.6 3.4-17.2 3.4-7.4-0.8-14-7.4-4-4.3-5.1-11.7z m12 299.7q0-2.3 1.4-3.9t3.7-1.5q1.2 0 5.2 2.1t8.7 4.7 5.8 3.2q20.9 10.5 45.6 17.5t45 7q27.1 0 47.7-4.1t44.9-14.4q4.3-2 8.7-4.5t9.7-5.4 8.1-4.7l-12.2-20.9 45.1 3.8-15.4 45.7-11.5-18.9q-37.1 23.7-78.8 30.9-16.6 3.4-26 3.4h-24q-22.6 0-57-11.1t-52.4-24.3q-2.3-2-2.3-4.6z m133.4-402.9l163.7 52.6v-108.6z m30.9 240.3l29.1 8.9 12.9-31.4 60.2 18.5 10.6 38.6 29.2 8.9-51.8-187.8-28.5-8.8z m53.1-50.5l21.7-52.9 18 64.9z" /></svg>