<svg height="512" width="548.6" xmlns="http://www.w3.org/2000/svg"><path d="m0 411.4v-27.4h45.7 457.2 45.7v27.4q0 11.5-13.5 19.5t-32.2 8h-457.2q-18.8 0-32.3-8t-13.4-19.5z m73.1-91.4v-201.1q0-18.9 13.5-32.3t32.3-13.5h310.8q18.9 0 32.3 13.5t13.4 32.3v201.1q0 18.9-13.4 32.3t-32.3 13.4h-310.8q-18.9 0-32.3-13.4t-13.5-32.3z m36.6 0q0 3.7 2.7 6.4t6.5 2.7h310.8q3.7 0 6.4-2.7t2.8-6.4v-201.1q0-3.8-2.8-6.5t-6.4-2.7h-310.8q-3.8 0-6.5 2.7t-2.7 6.5v201.1z m137.2 86.9q0 4.5 4.5 4.5h45.7q4.6 0 4.6-4.5t-4.6-4.6h-45.7q-4.5 0-4.5 4.6z" /></svg>