<svg height="512" width="512.0" xmlns="http://www.w3.org/2000/svg"><path d="m0 404.3q0-10 8.9-21t19.4-18.7 19.4-16 8.9-13.7q0-1.2-4-10.9t-4.6-12.6q-2.6-14.5-2.6-29.7 0-32.8 12.5-62.8t34-52.8 48.7-39.7 58.3-27.3q15.7-5.1 41.4-7.2t51.3-2.6 51-1.7 46.7-6.9 32.4-16.1l8.4-8.5t8.5-8 7.7-5.7 10.4-4.5 12.4-1.3q11.2 0 20.2 13.1t13.6 32 6.8 35.4 2.3 27.5q0 27.1-5.7 55.1-13.2 64-52.7 109.4t-102.2 76.6q-61.1 30.9-125.1 30.9-42.3 0-81.7-13.5-4.3-1.4-25.2-12t-27.4-10.5q-4.6 0-11.3 9.1t-12.8 20-15 20-17.2 9.2q-8.6 0-14.6-3.2t-8.8-6.8-7.7-12q-0.6-1.2-1.7-3.2t-1.6-2.8-0.9-2.8-0.4-3.8z m109.7-93.4q0 7.4 5.4 12.8t12.9 5.4q6.9 0 12.9-5.4 7.7-6.8 21.1-20.3t19.1-18.8q39.2-35.5 76.8-50.3t89.5-14.9q7.5 0 12.9-5.4t5.4-12.9-5.4-12.8-12.9-5.4q-49.1 0-90.8 14.1t-74.2 38.3-67.3 62.7q-5.4 6-5.4 12.9z" /></svg>