<svg height="512" width="438.9" xmlns="http://www.w3.org/2000/svg"><path d="m0 315.1q0-31.7 5.1-62.1t15.6-59.9 28.7-55.4 42.9-44.6q22.3-16.8 66.3-34.2 55.4-22.3 90.3-22.3 17.1 0 50.1 6.8t49.6 6.9q5.4 0 16.3-1.4t16.5-1.5q23.2 0 33.7 14.5t10.6 38.4q0 6.6-1.4 19.4t-1.4 19.4q0 2.9 0.2 5.3t0.9 4.9 1.1 3.8 1.9 4.6 1.9 4.9q4.5 11.4 7.1 33.8t2.6 39q0 47.2-20 93.6t-56 82.3-80.3 51.6q-35.4 12.5-93.2 12.5-16.2 0-48.5-4.1t-48.3-4.2q-6.9 0-20.7 4.2t-21 4.1q-20.9 0-35.3-15.8t-14.4-36.7q0-6.9 3.1-19.5t3.1-19.1q0-11.4-3.5-34.4t-3.6-34.8z m36.6-0.2q0 11.4 3.5 34.2t3.6 34.6q0 6.6-3.1 19t-3.2 18.7 3.5 10.5 9.7 4.1q6.8 0 20.7-3.1t21-3.2q16.3 0 48.4 4.4t48.4 4.5q51.8 0 81.2-10.3 36.8-12.9 67.3-43.6t47.4-70.1 17-78.6q0-12.6-2-32.4t-5.1-27.6q-3.5-8.6-4.9-12.6t-2.6-10.4-1.1-13.9q0-6.5 1.4-19.5t1.4-19.3q0-10.6-2.8-15.7-1.2-0.3-3.7-0.3-5.5 0-16.6 1.3t-16.9 1.3q-17.1 0-50.2-6.9t-50-6.9q-12.3 0-27 3.3t-24.3 6.7-25.6 9.8q-39.1 15.4-57.7 29.4-27.4 20.8-45.6 54.1t-25.1 67.5-7 71z" /></svg>