<svg height="512" width="292.6" xmlns="http://www.w3.org/2000/svg"><path d="m0 164.6q0-28.3 12.7-52.7t33.4-40.6 46.9-25.4 53.3-9.3 53.3 9.3 46.8 25.4 33.5 40.6 12.7 52.7q0 44.3-29.5 76.5-12.8 14-21.2 24.9t-17 27.3-9.8 30.7q13.5 8 13.5 23.4 0 10.6-7.2 18.3 7.2 7.7 7.2 18.3 0 14.9-12.9 23.1 3.7 6.6 3.7 13.5 0 13.1-9 20.3t-22.1 7.1q-5.7 12.6-17.2 20t-24.8 7.4-24.9-7.4-17.1-20q-13.2 0-22.2-7.1t-9-20.3q0-6.9 3.8-13.5-12.9-8.2-12.9-23.1 0-10.6 7.1-18.3-7.1-7.7-7.1-18.3 0-15.4 13.4-23.4-1.1-14.3-9.7-30.7t-17-27.3-21.3-24.9q-29.4-32.2-29.4-76.5z m36.6 0q0 28.8 19.4 51.4 2.9 3.1 8.7 9.4t8.7 9.5q36.6 43.7 40.3 85.1h65.2q3.7-41.4 40.2-85.1 2.9-3.2 8.8-9.5t8.7-9.4q19.4-22.6 19.4-51.4 0-20.6-9.9-38.3t-25.7-29-35.1-17.7-39-6.5-39 6.5-35.2 17.7-25.7 29-9.8 38.3z m100.5-36.6q0-3.7 2.8-6.4t6.4-2.7q14.3 0 28.4 4.5t24.9 15.5 10.7 25.7q0 3.7-2.7 6.4t-6.5 2.7-6.4-2.7-2.7-6.4q0-13.2-15.4-20.3t-30.3-7.2q-3.7 0-6.4-2.7t-2.8-6.4z" /></svg>