<svg height="512" width="438.9" xmlns="http://www.w3.org/2000/svg"><path d="m0 393.1v-274.2q0-34 24.1-58.2t58.2-24.1h274.3q34 0 58.1 24.1t24.2 58.2v274.2q0 34-24.2 58.2t-58.1 24.1h-274.3q-34 0-58.2-24.1t-24.1-58.2z m63.7-248.5q0 14.5 10.2 24.4t26.4 9.9h0.3q16.8 0 27.1-9.9t10.3-24.4q-0.3-14.9-10.3-24.6t-26.6-9.7-27 9.7-10.4 24.6z m4 259.4h66v-198.3h-66v198.3z m102.3 0h66v-110.9q0-10.8 2-16 4.3-10 12.9-17t21.1-7q33.1 0 33.1 44.9v106h66v-113.7q0-44-20.8-66.6t-55.2-22.6q-38.8 0-59.7 33.5h0.6v-28.9h-66q0.9 18.9 0 198.3z" /></svg>