<svg height="512" width="512.0" xmlns="http://www.w3.org/2000/svg"><path d="m0 402.3q0-22.9 16-38.9t38.9-16 38.8 16 16 38.9-16 38.8-38.8 16-38.9-16-16-38.8z m0-146.3q0-22.9 16-38.9t38.9-16 38.8 16 16 38.9-16 38.9-38.8 16-38.9-16-16-38.9z m0-146.3q0-22.8 16-38.8t38.9-16 38.8 16 16 38.8-16 38.9-38.8 16-38.9-16-16-38.9z m146.3 320v-54.8q0-3.8 2.7-6.5t6.4-2.7h347.5q3.7 0 6.4 2.7t2.7 6.5v54.8q0 3.7-2.7 6.4t-6.4 2.8h-347.5q-3.7 0-6.4-2.8t-2.7-6.4z m0-146.3v-54.8q0-3.7 2.7-6.5t6.4-2.7h347.5q3.7 0 6.4 2.7t2.7 6.5v54.8q0 3.7-2.7 6.5t-6.4 2.7h-347.5q-3.7 0-6.4-2.7t-2.7-6.5z m0-146.3v-54.8q0-3.7 2.7-6.4t6.4-2.8h347.5q3.7 0 6.4 2.8t2.7 6.4v54.8q0 3.8-2.7 6.5t-6.4 2.7h-347.5q-3.7 0-6.4-2.7t-2.7-6.5z" /></svg>