<svg height="512" width="475.4" xmlns="http://www.w3.org/2000/svg"><path d="m7.7 393.1q0-7.7 5.2-12.8l367.4-367.4q5.1-5.2 12.8-5.2t12.9 5.2l56.6 56.5q5.1 5.2 5.1 12.9t-5.1 12.8l-367.5 367.5q-5.1 5.1-12.8 5.1t-12.9-5.1l-56.5-56.6q-5.2-5.1-5.2-12.9z m28.9-356.5l28-8.6 8.5-28 8.6 28 28 8.6-28 8.5-8.6 28-8.5-28z m54.8 54.8l56-17.1 17.2-56 17.1 56 56 17.1-56 17.2-17.1 56-17.2-56z m128-54.8l28-8.6 8.6-28 8.6 28 28 8.6-28 8.5-8.6 28-8.6-28z m90 98.8l30.6 30.6 83.7-83.7-30.6-30.6z m92.9 84l28-8.5 8.6-28 8.5 28 28 8.5-28 8.6-8.5 28-8.6-28z" /></svg>