<svg height="512" width="438.9" xmlns="http://www.w3.org/2000/svg"><path d="m0 274.3v-36.6q0-7.4 5.4-12.8t12.9-5.5h109.7q7.4 0 12.9 5.5t5.4 12.8v36.6q0 14.8 6.7 25.7t15.3 16.3 20.3 8.6 18.3 3.7 12.5 0.5 12.6-0.5 18.3-3.7 20.3-8.6 15.3-16.3 6.7-25.7v-36.6q0-7.4 5.4-12.8t12.9-5.5h109.7q7.4 0 12.8 5.5t5.5 12.8v36.6q0 57.4-28.2 103.4t-78.3 71.9-113 25.8-113-25.8-78.3-71.9-28.1-103.4z m0-109.7v-109.7q0-7.5 5.4-12.9t12.9-5.4h109.7q7.4 0 12.9 5.4t5.4 12.9v109.7q0 7.4-5.4 12.8t-12.9 5.5h-109.7q-7.4 0-12.9-5.5t-5.4-12.8z m292.6 0v-109.7q0-7.5 5.4-12.9t12.9-5.4h109.7q7.4 0 12.8 5.4t5.5 12.9v109.7q0 7.4-5.5 12.8t-12.8 5.5h-109.7q-7.5 0-12.9-5.5t-5.4-12.8z" /></svg>