<svg height="512" width="512.0" xmlns="http://www.w3.org/2000/svg"><path d="m0 182.9q0-7.5 5.4-12.9l146.3-146.3q8.3-8.8 20-4 11.2 4.9 11.2 16.9v19.7l-113.5 113.7q-5.4 5.4-5.4 12.9t5.4 12.8l113.5 113.4v20q0 12-11.2 16.9-3.7 1.4-7.1 1.4-7.7 0-12.9-5.4l-146.3-146.3q-5.4-5.4-5.4-12.8z m109.7 0q0-7.5 5.4-12.9l146.3-146.3q8.3-8.8 20-4 11.2 4.9 11.2 16.9v74.8q117.4 8 171.1 63.2 48.3 49.4 48.3 145.4 0 16.6-4.9 38.1t-11 39.5-13.7 35.7-11.5 25.8l-5.8 11.5q-2.2 4.8-8 4.8-1.7 0-2.5-0.3-7.2-2.2-6.6-9.7 12.3-114.3-30.3-161.4-18.3-20.3-48.7-31.6t-76.4-15v71.7q0 12-11.2 16.9-3.7 1.4-7.1 1.4-7.7 0-12.9-5.4l-146.3-146.3q-5.4-5.4-5.4-12.8z" /></svg>