<svg height="512" width="512.0" xmlns="http://www.w3.org/2000/svg"><path d="m0 411.4v-237.7q0-26.3 18.9-45.1t45.1-18.9h9.1v365.7h-9.1q-26.3 0-45.1-18.8t-18.9-45.2z m100.6 64v-365.7h45.7v-45.7q0-11.4 8-19.4t19.4-8h164.6q11.4 0 19.4 8t8 19.4v45.7h45.7v365.7h-310.8z m45.7-155.4q0 4 2.6 6.6t6.5 2.5h64v64q0 4 2.6 6.6t6.6 2.6h54.8q4 0 6.6-2.6t2.6-6.6v-64h64q4 0 6.5-2.5t2.6-6.6v-54.9q0-4-2.6-6.5t-6.5-2.6h-64v-64q0-4-2.6-6.6t-6.6-2.5h-54.8q-4 0-6.6 2.5t-2.6 6.6v64h-64q-4 0-6.5 2.6t-2.6 6.5v54.9z m36.6-210.3h146.2v-36.6h-146.2v36.6z m256 365.7v-365.7h9.1q26.3 0 45.1 18.9t18.9 45.1v237.7q0 26.3-18.9 45.2t-45.1 18.8h-9.1z" /></svg>