<svg height="512" width="329.1" xmlns="http://www.w3.org/2000/svg"><path d="m0 237.7v-36.6q0-7.4 5.4-12.8t12.9-5.4 12.8 5.4 5.5 12.8v36.6q0 52.9 37.5 90.4t90.5 37.6 90.4-37.6 37.6-90.4v-36.6q0-7.4 5.4-12.8t12.9-5.4 12.8 5.4 5.4 12.8v36.6q0 63.2-42.1 109.9t-104.1 53.5v37.8h73.1q7.4 0 12.9 5.4t5.4 12.8-5.4 12.9-12.9 5.4h-182.9q-7.4 0-12.8-5.4t-5.4-12.9 5.4-12.8 12.8-5.4h73.2v-37.8q-62-6.8-104.2-53.5t-42.1-109.9z m73.1 0v-146.3q0-37.7 26.9-64.5t64.6-26.9 64.5 26.9 26.9 64.5v146.3q0 37.7-26.9 64.6t-64.5 26.8-64.6-26.8-26.9-64.6z" /></svg>