<svg height="512" width="548.6" xmlns="http://www.w3.org/2000/svg"><path d="m0 420.6v-329.2q0-7.4 5.4-12.8t12.9-5.5h512q7.4 0 12.8 5.5t5.5 12.8v329.2q0 7.4-5.5 12.8t-12.8 5.5h-512q-7.4 0-12.9-5.5t-5.4-12.8z m36.6-91.5q30.3 0 51.7 21.5t21.4 51.7h329.2q0-30.3 21.4-51.7t51.7-21.5v-146.2q-30.3 0-51.7-21.5t-21.4-51.7h-329.2q0 30.3-21.4 51.7t-51.7 21.5v146.2z m146.3-73.1q0-20 6-40.6t17-38.3 29-28.8 39.4-11.2 39.4 11.2 29 28.8 17 38.3 6 40.6-6 40.6-17 38.3-29 28.8-39.4 11.2-39.4-11.2-29-28.8-17-38.3-6-40.6z m34.8-43.1l22 22.8q12-10.6 15.7-16.3h0.6v82.3h-36.6v27.4h109.7v-27.4h-36.5v-128h-32.6z" /></svg>