<svg height="512" width="402.3" xmlns="http://www.w3.org/2000/svg"><path d="m0 499.1q0-5.4 3.7-9t9.2-3.5q49.4-0.3 92.1-30.7t71.9-84.2q-10.3 4-20.6 6.6t-23.7 3.7-26-0.7-26.6-8.2-26.3-16.8-24.1-28.6-21.3-41.7q32.6-13.4 61.1-16.3t47.9 2.2 35.6 16.1 25.2 22 16.2 23.4q15.1-37.4 22.6-83.1-2 0.3-5.2 0.7t-13.3 0.7-19.8-0.1-23.3-2.9-25.3-6.6-24-12.1-21.4-18.6-15.6-27-8.1-36.4q20-8 38.1-10.4t32.1 0.3 26.3 8.5 21 14.3 16 17.4 12 18 7.9 16 4.6 11.3l1.1 4.6q3.4-34.9 3.4-55.7-2.3-1.7-6.1-4.6t-14-12.7-18.2-20.4-15.4-26.6-9.4-32.1 3.4-36.3 20-39.6q20.9 7.1 36.4 17.6t24.2 21.8 13.7 24.3 5.9 25.4-0.2 24.5-3.7 21.8-5.4 17.7-4.9 12l-2 4.3q0.3 1.5 0.3 14.5t-0.3 20.4q0.9-2 2.9-5.3t8.7-12.3 14.4-16.6 20.3-15.8 26.1-12.7 32-4.2 37.9 6.9q-0.6 22.3-6.1 40.4t-14.3 29.9-19.9 20.4-23.3 13-24.1 6.9-22.9 2.7-19.3-0.3-13.2-1.3l-4.9-0.9q-6.6 42-20.9 80.9 1.8-2 5.2-5.3t14.1-11.7 22.2-15 28.4-12 33.6-5.7 36.8 6.7 39.2 22.1q-9.2 22.9-21.7 39.5t-26 25.3-28.3 13.2-29 4.2-27.6-2.4-24.7-6.3-19.9-7.9-13.1-6.4l-4.9-2.9q-32.3 65.2-82.7 102.7t-109.8 37.9q-5.5 0-9.2-3.7t-3.7-9.2z" /></svg>