<svg height="512" width="402.3" xmlns="http://www.w3.org/2000/svg"><path d="m1.1 146.6q0-45.5 31.5-77.2t76.8-31.7q45.2 0 78 32.3l172.9 173.1q2.8 2.9 2.8 6.3 0 4.6-8.7 13.3t-13.3 8.7q-3.7 0-6.5-2.8l-173.2-173.5q-22.5-22-51.7-22-30.3 0-51.1 21.5t-20.9 51.7q0 30 21.7 51.7l221.7 222q18 18 41.5 18 18.3 0 30.3-12t12-30.3q0-23.4-18-41.4l-166-166q-7.5-6.9-17.2-6.9-8.3 0-13.7 5.5t-5.4 13.7q0 9.1 7.1 16.8l117.2 117.2q2.8 2.8 2.8 6.3 0 4.5-8.8 13.4t-13.5 8.8q-3.4 0-6.3-2.8l-117.1-117.2q-18-17.4-18-42.5 0-23.5 16.3-39.7t39.7-16.3q25.1 0 42.6 18l166 166q28.5 28 28.5 67.1 0 33.4-22.5 56t-56 22.6q-38.6 0-67.2-28.6l-222-221.7q-32.3-32.9-32.3-77.4z" /></svg>