<svg height="512" width="438.9" xmlns="http://www.w3.org/2000/svg"><path d="m0 393.1v-274.2q0-34 24.1-58.2t58.2-24.1h274.3q34 0 58.1 24.1t24.2 58.2v274.2q0 34-24.2 58.2t-58.1 24.1h-274.3q-34 0-58.2-24.1t-24.1-58.2z m73.1 9.2h82.3l155.5-155.4-82.3-82.3-155.5 155.4v82.3z m27.5-54.9v-16l14.8-14.8 43.5 43.4-14.9 14.9h-16v-27.5h-27.4z m40.5-49.7q-4-3.7 0.9-8.6l83.1-83.1q4.9-4.9 8.6-0.9 4 3.8-0.8 8.6l-83.2 83.2q-4.8 4.8-8.6 0.8z m105.8-151.4l82.2 82.3 26.3-26.3q8-8 8-19.4t-8-19.5l-43.4-43.4q-8-8-19.4-8t-19.5 8z" /></svg>