<svg height="512" width="438.9" xmlns="http://www.w3.org/2000/svg"><path d="m0 393.1v-274.2q0-34 24.1-58.2t58.2-24.1h274.3q34 0 58.1 24.1t24.2 58.2v274.2q0 34-24.2 58.2t-58.1 24.1h-274.3q-34 0-58.2-24.1t-24.1-58.2z m73.1-212.8q0 4.6 0.8 9.7t1.4 8.7 2.6 9.4 2.8 8.5 3.6 9.4 3.1 8.6q17.2 46.8 61.9 91.5t91.6 61.9q1.7 0.6 8.5 3.1t9.5 3.6 8.4 2.9 9.4 2.5 8.7 1.5 9.7 0.7q16.3 0 37.3-9.7t27-22.9q6.3-15.1 6.3-28.8 0-3.2-0.6-4.6-0.8-2.3-11-8.4t-25.2-14.2l-15.2-8.3q-1.4-0.8-5.4-3.7t-7.2-4.3-6-1.4q-5.1 0-13.4 9.3t-16.3 18.7-12.5 9.4q-2 0-4.8-1t-4.4-1.8-4.8-2.7-4-2.5q-28.3-15.7-48.8-36.1t-36.1-48.7q-0.6-0.9-2.4-4t-2.7-4.9-1.9-4.4-1-4.7q0-3.7 5.9-9.6t12.8-11 12.9-11.3 5.8-10.4q0-2.9-1.4-6t-4.3-7.2-3.7-5.4q-0.9-1.7-4.3-8.1t-7.1-13-7.6-13.6-7.1-11.6-4.8-5.1-4.5-0.6q-13.7 0-28.9 6.3-13.1 6-22.8 27t-9.8 37.3z" /></svg>