<svg height="512" width="582.3" xmlns="http://www.w3.org/2000/svg"><path d="m11.7 308.9q0-4.3 2.4-7.6t6.5-4.2l138.8-30.2q-2.3-4-2.3-7.2t1.6-5 4.6-3.3 5.7-2 6.6-1.3 5.3-1.2q1.1-0.3 4.4-2.2t5-1.8q4.3 0 8 4.5t5.7 9.5q46.6-10.6 49.1-10.6 4.9 0 8.5 3.1t3.5 8q0 4.3-2.4 7.5t-6.7 4l-52 11.4-0.3 4.6q-0.3 7.4 23.3 33.5t29.9 26.2q13.4 0 34-22.9t20.5-36.8q0-10.3-6.7-15.2t-14.6-5.3-14.5-3.3-6.7-9.7q0-4.5 2.8-9.7l-19.4-5.4q12.3-12.6 12.3-33.4 0-7.5-1.5-16.6 23.5-4.6 41.2-4.6 12.6 0 20.4 0.4t13.9 2.5 8.8 3.8 5.9 7 4.4 9.6 4.9 13.6 6.8 17.1l14.3-7.1q-0.8 11.4-6.6 17.1t-12.1 6-11.4 1.9-4.7 5.8l0.2 6q21.5-0.8 41 5.9t33.8 16.7 28.8 27 24 30.9 21.6 34.4q9.4 16 22.4 31.1t21.6 23 28.3 25.3q-13.7 8.6-31 16.4t-39.6 16.9-32.6 13.6q-12.5-10.6-21.1-32.9t-12.4-47-9.5-51.6-12.1-48.1-20.7-35.1-35-13.9l-2.9 0.6-1.7 1.1q1.1 1.4 3.7 4 1.7 1.4 8 6.7t7.3 6.3 5.4 5.2 5.2 5.8 3.3 6 3 7.9 1.2 8.8 1.2 11.6l0.3 9.4q0.3 7.5-0.7 16.5t-2.2 14.8-3.6 16.7-3.2 15.2q-10-0.3-28.9 2.7t-28 3q-11.1 0-20.6-2.9-0.5-4.5-0.5-13.4 0-21.1 0.8-27.4 0.6-3.7 9-11.9t16.3-16.8 7.6-14.8q-6.9-0.5-12.3 6.9-10.3 15.1-31.9 28.4t-39 13.3q-7.1 0-21.5-18t-30.5-39.8-24-27.6q-1.7-1.2-7.7-8.6-137.7 32-146.6 32-4.5 0-8-3.1t-3.4-7.7z m206.6-63.2q2.8-0.3 9.3-2t9.8-1.7q5.5 0 10 2.9l-27.4 5.7z m16.6 30.9l13.7-3.5 31.1 50.6-20.8 13.7z m10.5-90.3q4.6-8.6 10.3-13.3t15.4-8.4 18.8-10.3 13.1-10.4 14.3-15.8 12.4-14.4q3.4 2.6 8 9t9.2 10.4 10.8 3.8l3.4-0.3v21.7l6.3 0.3q70.6-27.2 106-54.3 8-6 14.3-11.2t12.2-10.7 9.4-8.8 8.4-9.7 6.9-8.9 7-10.6 6.5-10.8 7.8-13.6 8.4-15.1l2-2.6q-0.6 15.1-12.3 39.7-22.6 47.1-58.6 75.4t-87.4 40.6q-4 0.9-12 2.1t-14.3 2.8-11.1 4q0.8 5.4 7 13.1t6.1 9.7q0 3.2-7.4 8.6-1.4-1.4-3.9-4.4t-3.4-4.2-3-3.3-2.9-3l-2.2-2.3t-2.5-2.1-2.3-1.4-2.4-1.3q-2-0.9-4.1-1.4t-5.9-0.8-6.3-0.1h-9.3-10.7q-36 0-62 12.3z m57.7 239.7h8.9l2.9 23.7-11.8 3.4v-27.1z m0 35.4q11.2-7.4 37.6-13.5t41.9-6.2q2.5 0 6.4 4.4t8 12.2 7.4 14.3 6.9 14.5 4.1 9.5q-34.5 12.8-69.7 12.8-17.4 0-35.7-3.1z m15.8-30.8q6-0.6 17.2-2.5t20.6-2.8 17.3-1h4q0.9 4.3 0.9 4.6 0 2-5 4.1t-13.2 3.7-15.4 2.7-15.3 2.2-9.1 1.3z m237.4-428.3l0.3-0.9 0.5-1.1-0.2 1.4z m0.8-2v-0.3 0.3z m0 0l0.3-0.3z" /></svg>