<svg height="512" width="438.9" xmlns="http://www.w3.org/2000/svg"><path d="m0 393.1v-274.2q0-34 24.1-58.2t58.2-24.1h274.3q34 0 58.1 24.1t24.2 58.2v274.2q0 34-24.2 58.2t-58.1 24.1h-207.2q24.3-34.8 30.9-60 2.6-9.7 15.1-59.7 6 11.2 21 19.2t32.2 8q51.7 0 84.4-42.2t32.7-106.7q0-24-10-46.4t-27.6-39.7-43.5-27.8-56.3-10.4q-29.7 0-55.6 8.2t-43.7 21.8-30.7 31.3-19 36.6-6.2 37.8q0 29.2 11.3 51.5t33.3 31.4q3.7 1.4 6.7 0t4.2-5.4q2.8-12.6 4.3-17.5 1.7-6.5-3.2-12-14.3-17.7-14.3-42.8 0-42.9 29.6-73.3t77.3-30.4q42.6 0 66.4 23.1t23.9 60q0 48-19.3 81.7t-49.6 33.7q-17.1 0-27.7-12.4t-6.6-29.6q2.3-9.7 7.6-26.4t8.4-29.1 3.2-21.3q0-14-7.6-23.3t-21.6-9.3q-17.4 0-29.5 16.1t-12.2 39.9q0 20.6 6.9 34.6l-28 118.3q-6.9 28.5-2 72.5h-52.3q-34 0-58.2-24.1t-24.1-58.2z" /></svg>