<svg height="512" width="438.9" xmlns="http://www.w3.org/2000/svg"><path d="m0 256q0-52 23-98t64.7-77.1q12.3-9.2 27.3-7.2t23.9 14.3q9.1 12 7 27t-14.2 24.1q-28 21.2-43.3 51.8t-15.3 65.1q0 29.7 11.6 56.7t31.3 46.7 46.7 31.3 56.7 11.6 56.7-11.6 46.8-31.3 31.2-46.7 11.6-56.7q0-34.6-15.3-65.1t-43.3-51.8q-12-9.1-14.1-24.1t7-27q8.9-12.3 24-14.3t27.1 7.2q41.8 31.1 64.8 77.1t23 98q0 44.6-17.5 85.1t-46.8 70-70 46.9-85.2 17.4-85.1-17.4-70-46.9-46.9-70-17.4-85.1z m182.9-36.6v-182.8q0-14.9 10.8-25.7t25.7-10.9 25.7 10.9 10.9 25.7v182.8q0 14.9-10.9 25.7t-25.7 10.9-25.7-10.9-10.8-25.7z" /></svg>