<svg height="512" width="475.4" xmlns="http://www.w3.org/2000/svg"><path d="m0 393.1v-118.8q0-22.6 16.1-38.7t38.8-16.2h18.2v-155.4q0-11.4 8-19.4t19.5-8h192q11.4 0 25.1 5.7t21.7 13.7l43.5 43.4q8 8 13.7 21.7t5.7 25.2v73.1h18.3q22.5 0 38.7 16.2t16.1 38.7v118.8q0 3.8-2.7 6.5t-6.4 2.7h-64v45.7q0 11.4-8 19.4t-19.4 8h-274.3q-11.5 0-19.5-8t-8-19.4v-45.7h-64q-3.7 0-6.4-2.7t-2.7-6.5z m109.7 45.8h256v-73.2h-256v73.2z m0-182.9h256v-109.7h-45.7q-11.4 0-19.4-8t-8-19.4v-45.8h-182.9v182.9z m292.6 18.3q0 7.4 5.4 12.8t12.9 5.5 12.8-5.5 5.5-12.8-5.5-12.9-12.8-5.4-12.9 5.4-5.4 12.9z" /></svg>