<svg height="512" width="475.4" xmlns="http://www.w3.org/2000/svg"><path d="m0 438.9v-292.6q0.6 0.3 5 1t9.7 1.4 6.2 1q42.8 6.9 70 6.9 22.8 0 33.4-10 13.1-12.6 13.1-25.5 0-6.2-4.3-14.4t-9.5-15.1-9.6-18.5-4.3-23.7q0-23.4 16.9-36.4t41.1-13q22.9 0 38.3 12.7t15.4 35.3q0 11.7-5 22.1t-10.8 16.9-10.9 16.1-5 20.3q0 16.3 12 23.9t29.4 7.6q18.3 0 51.5-4.3t46.5-4.9v0.6q-0.2 0.6-1 5t-1.4 9.7-1 6.1q-6.8 42.9-6.8 70 0 22.9 10 33.5 12.5 13.1 25.4 13.1 6.3 0 14.4-4.3t15.2-9.5 18.4-9.6 23.7-4.3q23.4 0 36.4 16.9t13 40.8q0 23.2-12.7 38.6t-35.3 15.4q-11.7 0-22.1-5t-16.9-10.8-16.1-10.9-20.3-5q-31.4 0-31.4 35.4 0 11.2 4.5 32.9t4.3 32.8v1.5q-6.3 0-9.4 0.3-9.7 0.8-27.9 3.2t-33 3.9-28 1.4q-17.4 0-29.4-7.5t-12-23.9q0-10.6 5-20.3t10.9-16.1 10.8-16.9 5-22.1q0-22.6-15.4-35.3t-38.6-12.7q-24 0-40.8 13t-16.9 36.4q0 12.3 4.3 23.7t9.6 18.4 9.5 15.2 4.3 14.4q0 12.9-13.1 25.4-10.6 10-33.4 10-27.2 0-70-6.8-2.6-0.6-7.9-1.2t-7.9-1.1l-3.7-0.6q-0.3 0-0.8-0.3-0.6 0-0.6-0.2z" /></svg>