<svg height="512" width="292.6" xmlns="http://www.w3.org/2000/svg"><path d="m27.6 157.1q-0.7-4.2 1.5-8 45.8-76 132.6-76 22.9 0 46 8.9t41.7 23.7 30.3 36.4 11.7 45.3q0 15.5-4.4 28.9t-10 21.8-15.7 17-16.4 12.5-17.5 10.1q-11.7 6.6-19.5 18.6t-7.9 19.1q0 4.9-3.4 9.3t-8 4.4h-68.6q-4.3 0-7.3-5.2t-3-10.8v-12.8q0-23.7 18.6-44.7t40.8-31q16.9-7.7 24-16t7.2-21.7q0-12-13.3-21.2t-30.7-9.1q-18.6 0-30.9 8.3-10 7.1-30.5 32.8-3.8 4.6-8.9 4.6-3.4 0-7.1-2.3l-46.9-35.7q-3.7-2.9-4.4-7.2z m82.1 270.3v-68.5q0-4.6 3.4-8t8-3.5h68.6q4.6 0 8 3.5t3.4 8v68.5q0 4.6-3.4 8t-8 3.5h-68.6q-4.5 0-8-3.5t-3.4-8z" /></svg>