<svg height="512" width="475.4" xmlns="http://www.w3.org/2000/svg"><path d="m0 201.1v-109.7q0-22.8 16-38.8t38.9-16h109.7q22.8 0 38.8 16t16 38.8v201.2q0 29.7-11.5 56.7t-31.3 46.7-46.7 31.3-56.8 11.6h-18.2q-7.5 0-12.9-5.5t-5.4-12.8v-36.6q0-7.4 5.4-12.9t12.9-5.4h18.2q30.3 0 51.8-21.4t21.4-51.7v-9.2q0-11.4-8-19.4t-19.4-8h-64q-22.9 0-38.9-16t-16-38.9z m256 0v-109.7q0-22.8 16-38.8t38.9-16h109.7q22.8 0 38.8 16t16 38.8v201.2q0 29.7-11.5 56.7t-31.3 46.7-46.7 31.3-56.8 11.6h-18.2q-7.5 0-12.9-5.5t-5.4-12.8v-36.6q0-7.4 5.4-12.9t12.9-5.4h18.2q30.3 0 51.8-21.4t21.4-51.7v-9.2q0-11.4-8-19.4t-19.4-8h-64q-22.9 0-38.9-16t-16-38.9z" /></svg>