<svg height="512" width="475.4" xmlns="http://www.w3.org/2000/svg"><path d="m0 384v-201.1q0-29.8 11.6-56.8t31.3-46.7 46.7-31.3 56.7-11.5h18.3q7.4 0 12.8 5.4t5.5 12.9v36.5q0 7.5-5.5 12.9t-12.8 5.4h-18.3q-30.3 0-51.7 21.4t-21.5 51.8v9.1q0 11.4 8 19.4t19.5 8h64q22.8 0 38.8 16t16 38.9v109.7q0 22.9-16 38.9t-38.8 16h-109.7q-22.9 0-38.9-16t-16-38.9z m256 0v-201.1q0-29.8 11.6-56.8t31.3-46.7 46.7-31.3 56.7-11.5h18.3q7.4 0 12.8 5.4t5.5 12.9v36.5q0 7.5-5.5 12.9t-12.8 5.4h-18.3q-30.3 0-51.7 21.4t-21.5 51.8v9.1q0 11.4 8 19.4t19.5 8h64q22.8 0 38.8 16t16 38.9v109.7q0 22.9-16 38.9t-38.8 16h-109.7q-22.9 0-38.9-16t-16-38.9z" /></svg>