<svg height="512" width="512.0" xmlns="http://www.w3.org/2000/svg"><path d="m5.4 249.7q2.3-62 33.2-116t87.1-90.8h1.4q0 0.2-0.2 0.8-2.3 2.3-8 9.6t-14.9 21.8-17.1 31.6-12.8 38.7-4 43 11.2 45 31 44q14.3 14.3 29.1 19.9t25.9 3.3 19.8-6.7 13.5-9.3l4.5-4.6q11.2-14.6 15.2-33.3t1.8-35-6-30.6-7.5-22.8l-4-8.3q-2.9-7.1-8.7-14.1t-12.3-11.8-12.5-8.4-10-5.4l-3.7-1.7 29.7-32.9q11.2 4.9 22.3 14.9t16.9 17.4l5.4 7.7q0.3-13.7-5.3-29.6t-11.5-25l-5.8-8.8 46-52.3 45.8 51.7q-9.5 13.2-15 29.3t-6.5 25.9l-1.1 9.4q6.3-10.6 17.6-20.7t19.2-15l8-4.9 29.5 32.9q-12.6 4-24.3 14.3t-17.2 18.5l-5.4 8.3q-8.8 16-13.7 38.2t-2 48.5 16.3 44.7q9.4 12.9 22.1 17.3t24.3 1.6 21.7-7.6 16.5-9.5l6-4.6q17.1-15.2 27.5-32.9t13.9-34.7 2.8-34.7-5.1-33.7-10.6-30.7-13-26.6-12.8-20.6-9.9-13.5l-3.7-4.9q-4-3.7-2-3.7l2.9 0.8q11.4 8.3 17.8 13.2t17.7 14.3 18.3 16.5 16.7 18.6 15.9 22 13 25.2 10.8 29.4 6.8 33.4 3 38.9q0.8 74-30.9 132.8t-89.1 91.7-130.3 32.9q-52.9 0-100.3-21.1t-81-56.6-52.6-83.7-17.3-100.9z" /></svg>