<svg height="512" width="512.0" xmlns="http://www.w3.org/2000/svg"><path d="m4.6 161.7l123.7 4.9 51.4 108.3-42-26.3q-18 20.5-31.8 41.3t-20.8 35.7-11.2 27-5.3 18l-1.2 6-54.3-102q-4.8-7.5-5.1-16t1.7-13.5l2.3-5.1q10-18 32.6-53.7z m72.7 232q-1-8 1.1-18.6t3.5-15.7 6.1-18.3 5.4-15.1q22.3 3.4 145.5 8l-4.3 105.1-0.6 6.3-120-8.3q-10.3-0.8-19.1-9t-13.5-18.7q-3.1-7.7-4.1-15.7z m6.7-276l64.3-101.7q5.7-8.9 17.1-12.9t22.9-2.8q6.8 0.6 13.8 3.4t12 6 11.9 9.4 10.3 9.9 10.3 11.3 9.1 10q-13.4 18-75.7 124.3l-90.6-53.5z m139.4-114.3l115.7 0.3q8.9-0.8 16.6 3t11.2 8.2l3.1 4.2q11.1 17.5 32 54.3l40.6-23.7-62.9 106.6-119.7-5.7 43.1-24.6q-9.7-25.4-21.4-47.4t-21.6-35.3-18.4-22.9-13.4-13.3z m48.9 379.2l60.3-103.5 2 49.5q48.5 4.5 80.8 1.4t48.6-9.4l16-6.3-53.7 102.6q-3.4 8.2-10.4 13.2t-12.5 5.9l-5.1 1.1q-20.3 2-62.6 3.5l2.3 46.8z m75.7-185.7l89.4-55.8 5.5-3.1 60.5 103.7q5.2 10.6 3.6 21.7t-7.9 21.2q-3.7 5.7-9.4 10.5t-10.8 8-13.9 6.3-13.4 4.6-14.7 4-13.2 3.4q-9.7-20.5-75.7-124.5z" /></svg>