<svg height="512" width="438.9" xmlns="http://www.w3.org/2000/svg"><path d="m0 438.9v-128q0-7.5 5.4-12.9t12.9-5.4h128q7.4 0 12.8 5.4t5.5 12.9-5.5 12.8l-39.1 39.2q20.3 18.8 46 29.1t53.4 10.3q38.3 0 71.5-18.6t53.1-51.1q3.1-4.9 15.1-33.5 2.3-6.5 8.6-6.5h54.9q3.7 0 6.4 2.7t2.7 6.4q0 1.4-0.3 2-18.3 76.6-76.5 124.2t-136.6 47.5q-41.7 0-80.7-15.7t-69.6-44.8l-36.9 36.8q-5.4 5.4-12.8 5.4t-12.9-5.4-5.4-12.8z m5.1-228.6v-2q18.6-76.6 77.2-124.2t137.1-47.5q41.7 0 81.2 15.8t70 44.7l37.1-36.8q5.4-5.4 12.9-5.4t12.8 5.4 5.5 12.8v128q0 7.5-5.5 12.9t-12.8 5.4h-128q-7.5 0-12.9-5.4t-5.4-12.9 5.4-12.8l39.4-39.4q-42.2-39.2-99.7-39.2-38.3 0-71.4 18.6t-53.1 51.1q-3.2 4.9-15.2 33.5-2.3 6.5-8.6 6.5h-56.8q-3.7 0-6.4-2.7t-2.8-6.4z" /></svg>