<svg height="512" width="475.4" xmlns="http://www.w3.org/2000/svg"><path d="m10.3 306.3l64-109.7q2.8-4 7.4-4.6l108.3-5.7q27.4-32.6 50.3-55.7 53.7-53.5 102.3-73.7t123.1-20.3q4 0 6.9 2.7t2.8 6.4q0 71.2-21.5 123t-72.5 103q-23.1 22.9-55.7 50.3l-5.7 108.3q-0.6 4.6-4.6 7.4l-109.7 64q-2 1.2-4.6 1.2-3.4 0-6.5-2.6l-18.3-18.3q-3.7-4-2.3-9.1l24.3-78.9-80.3-80.3-78.9 24.3q-0.8 0.3-2.5 0.3-4 0-6.6-2.6l-18.3-18.3q-4.8-5.4-1.4-11.1z m346.3-178.3q0 11.4 8 19.4t19.4 8 19.4-8 8-19.4-8-19.4-19.4-8-19.4 8-8 19.4z" /></svg>