<svg height="512" width="438.9" xmlns="http://www.w3.org/2000/svg"><path d="m0 393.1v-274.2q0-34 24.1-58.2t58.2-24.1h274.3q34 0 58.1 24.1t24.2 58.2v274.2q0 34-24.2 58.2t-58.1 24.1h-274.3q-34 0-58.2-24.1t-24.1-58.2z m73.1-27.4q0 15.2 10.8 25.9t25.8 10.7 25.9-10.7 10.7-25.9-10.7-25.8-25.9-10.8-25.8 10.8-10.8 25.8z m0-91.1q0 3.7 2.5 6.3t6.1 2.8q44 3.2 75.4 34.6t34.6 75.4q0.3 3.7 2.9 6.2t6.3 2.4h36.5q3.7 0 6.6-2.9t2.6-6.8q-3.7-66.3-50.6-113.2t-113.1-50.5q-4-0.3-6.9 2.5t-2.9 6.6v36.6z m0-109.7q0 3.7 2.6 6.2t6.3 2.9q58.3 2 108 31.9t79.6 79.5 31.8 108q0.3 3.7 2.9 6.3t6.3 2.6h36.5q3.8 0 6.6-2.9 3.2-2.5 2.6-6.5-1.4-44-16-85t-39.9-74.3-58.5-58.6-74.3-39.9-85-16q-4-0.2-6.6 2.6-2.9 2.9-2.9 6.6v36.6z" /></svg>