<svg height="512" width="512.0" xmlns="http://www.w3.org/2000/svg"><path d="m0.3 394q2-21.7 16-42t37.4-35.4q37.7-24 79.4-24 23.8 0 43.2 8.8 2.6-3.7 6.3-6.3l34.8-20.8-34.8-20.9q-3.7-2.5-6.3-6.3-19.4 8.9-43.2 8.9-41.7 0-79.4-24-23.4-15.1-37.4-35.4t-16-42q-1.4-16.9 4.4-32.3t18.2-26.6q24.2-22.6 63.4-22.6 41.4 0 79.1 24 23.7 14.9 37.7 35.2t16 42.3q1.2 13.7-2.8 27.7 1.1 0.3 3.4 1.4l31.4 18.9 197.2-110.6q4-2.3 8.8-2.3 4.6 0 8.3 2l36.6 18.3q8.6 4.6 10 14.6 0.9 10.3-7.1 16l-144.9 113.7 144.9 113.7q8 5.7 7.1 16-1.4 10-10 14.6l-36.6 18.3q-3.7 2-8.3 2-4.8 0-8.8-2.3l-197.2-110.6-31.4 18.9q-2.3 1.1-3.4 1.4 4 14 2.8 27.7-2 22-16 42.1t-37.7 35.3q-37.7 24-79.1 24-38.9 0-63.4-22.3-25.8-24-22.6-59.1z m47.7-5.4q-7.1 18.8 6 30.8 11.1 10.3 32.3 10.3 28.6 0 54.8-16.8 23.2-14.6 30.3-33.5t-6-30.8q-11.1-10.3-32.3-10.3-28.5 0-54.8 16.8-23.2 14.6-30.3 33.5z m0-228.6q7.1 18.9 30.3 33.4 26.3 16.9 54.8 16.9 21.2 0 32.3-10.3 13.2-12 6-30.9t-30.3-33.4q-26.2-16.8-54.8-16.8-21.2 0-32.3 10.2-13.1 12-6 30.9z m144 150.9l2.6 2.2q0.5 0.6 2 1.8 1.1 1.1 3.1 3.4t3.2 3.4l7.4 7.4 45.7-27.4 27.4 9.2 210.3-164.6-36.6-18.3-219.4 123.1v32.3z m0-73.2l27.4 16.6v-3.2q0-10.2 9.5-16l4-2.2-22.6-13.5-7.4 7.5q-0.9 0.8-2.9 3.1t-3.4 3.4q-0.6 0.6-1.2 1t-0.8 0.7z m64 36.6q0-7.4 5.4-12.9t12.9-5.4 12.8 5.4 5.5 12.9-5.5 12.8-12.8 5.5-12.9-5.5-5.4-12.8z m34.9 52.8l166.2 93.5 36.6-18.3-148.6-116.6-50.5 39.4q-0.6 0.9-3.7 2z" /></svg>