<svg height="512" width="475.4" xmlns="http://www.w3.org/2000/svg"><path d="m0 91.4q0-7.4 5.4-12.8t12.9-5.5h73.1q4.6 0 8.2 1.9t5.7 4.4 3.7 7 2.1 7.6 1.6 8.4 1.3 7.3h343.1q7.5 0 12.9 5.4t5.4 12.9v146.3q0 6.8-4.5 12.1t-11.8 6.2l-298.2 34.8q0.2 2 1.2 6.2t1.8 7.5 0.7 6.3q0 4.6-6.9 18.3h262.9q7.4 0 12.8 5.4t5.5 12.9-5.5 12.9-12.8 5.4h-292.6q-7.4 0-12.9-5.4t-5.4-12.9q0-4 3.2-11.3t8.4-17 5.8-10.8l-50.5-235.2h-58.3q-7.4 0-12.9-5.4t-5.4-12.9z m109.7 347.5q0-15.2 10.7-25.9t25.9-10.7 25.8 10.7 10.8 25.9-10.8 25.8-25.8 10.7-25.9-10.7-10.7-25.8z m256 0q0-15.2 10.7-25.9t25.9-10.7 25.8 10.7 10.8 25.9-10.8 25.8-25.8 10.7-25.9-10.7-10.7-25.8z" /></svg>