<svg height="512" width="512.0" xmlns="http://www.w3.org/2000/svg"><path d="m0 466.3v-54.9q0-4 2.6-6.5t6.5-2.6h54.9q4 0 6.6 2.6t2.5 6.5v54.9q0 4-2.5 6.6t-6.6 2.5h-54.9q-4 0-6.5-2.5t-2.6-6.6z m109.7 0v-91.4q0-4 2.6-6.6t6.6-2.6h54.8q4 0 6.6 2.6t2.6 6.6v91.4q0 4-2.6 6.6t-6.6 2.5h-54.8q-4 0-6.6-2.5t-2.6-6.6z m109.7 0v-164.6q0-4 2.6-6.6t6.6-2.5h54.8q4 0 6.6 2.5t2.6 6.6v164.6q0 4-2.6 6.6t-6.6 2.5h-54.8q-4 0-6.6-2.5t-2.6-6.6z m109.7 0v-274.3q0-4 2.6-6.6t6.6-2.5h54.8q4 0 6.6 2.5t2.6 6.6v274.3q0 4-2.6 6.6t-6.6 2.5h-54.8q-4 0-6.6-2.5t-2.6-6.6z m109.8 0v-420.6q0-4 2.5-6.6t6.6-2.5h54.9q4 0 6.5 2.5t2.6 6.6v420.6q0 4-2.6 6.6t-6.5 2.5h-54.9q-4 0-6.6-2.5t-2.5-6.6z" /></svg>