<svg height="512" width="438.9" xmlns="http://www.w3.org/2000/svg"><path d="m0 310.9v-109.8q0-7.4 5.4-12.8t12.9-5.4h128v-82.3q0-7.5 5.4-12.9t12.9-5.4 12.8 5.4l155.5 155.4q5.4 5.5 5.4 12.9t-5.4 12.9l-155.5 155.4q-5.4 5.4-12.8 5.4t-12.9-5.4-5.4-12.9v-82.3h-128q-7.4 0-12.9-5.4t-5.4-12.8z m255.6 105.5q0.1-3 0.8-6.7t2.9-5.6 5.8-1.8h91.5q18.8 0 32.3-13.4t13.4-32.3v-201.2q0-18.8-13.4-32.3t-32.3-13.4h-82.3-3.2-3.7t-3.3-0.3-3.2-0.8-2.3-1.6-2-2.6-0.6-3.8q0-1.2-0.3-5.7t-0.1-7.6 0.8-6.7 2.9-5.6 5.8-1.9h91.5q34 0 58.1 24.2t24.2 58.1v201.2q0 34-24.2 58.1t-58.1 24.2h-91.5q-3.7 0-6.4-2.8t-2.7-6.4q0-1.1-0.3-5.7t-0.1-7.6z" /></svg>