<svg height="512" width="438.9" xmlns="http://www.w3.org/2000/svg"><path d="m0 146.3q0-45.4 32.1-77.6t77.6-32.1q37.2 0 66.9 22.8 22-4.5 42.8-4.5 40.9 0 78.2 15.8t64.3 42.9 42.8 64.3 15.9 78.1q0 20.9-4.6 42.9 22.9 29.7 22.9 66.8 0 45.4-32.2 77.6t-77.6 32.1q-37.1 0-66.8-22.8-22 4.5-42.9 4.5-40.8 0-78.1-15.8t-64.3-42.9-42.9-64.3-15.8-78.1q0-20.9 4.6-42.9-22.9-29.7-22.9-66.8z m107.4 178.6q0 26.2 34.9 45t83.1 18.7q20.9 0 40-5.3t35-15.3 25.3-26.7 9.4-37.6q0-14.3-5.5-26.1t-13.9-19.6-20.8-14-23.6-9.7-25-6.6l-29.7-6.8q-8.6-2-12.6-3t-10-3.3-8.6-4.6-4.7-6-2.1-8.6q0-22 41.1-22 12.3 0 22 3.5t15.4 8.1 10.9 9.6 11.4 8.3 13.7 3.4q13.5 0 21.6-9.2t8.2-22q0-15.7-16-28.4t-40.6-19.3-52-6.5q-19.4 0-37.7 4.4t-34.2 13.4-25.4 24.9-9.6 36.7q0 17.4 5.5 30.4t16 21.6 22.8 13.8 29.4 9.3l41.8 10.3q25.7 6.3 32 10.3 9.1 5.7 9.1 17.1 0 11.2-11.4 18.5t-30 7.3q-14.6 0-26.2-4.6t-18.5-11-13-12.9-13.2-11-15.4-4.5q-14.3 0-21.6 8.5t-7.3 21.5z" /></svg>