<svg height="512" width="475.4" xmlns="http://www.w3.org/2000/svg"><path d="m0 211.4q0-13.4 7.9-24.3t20.4-15.1l44.8-15.1-15.1-45.5q-2.3-6.8-2.3-13.4 0-17.1 12-29.3t29.2-12.1q13.4 0 24.2 7.7t15.2 20.6l15.4 45.7 88.6-30-15.4-45.7q-2.3-6.9-2.3-13.5 0-16.8 12.1-29.1t29-12.3q13.4 0 24.4 7.9t15.3 20.4l15.2 46 46.3-15.7q6-1.7 12.2-1.7 17.2 0 29.3 11.2t12.2 28.2q0 12.8-8.6 23.3t-21.1 14.7l-44.9 15.4 30 90.3 46.9-16q6.8-2.3 13.1-2.3 17.7 0 29.6 11.6t11.8 29q0 27.7-26.5 37.1l-49.2 16.9 16 47.7q2 6 2 13.4 0 16.9-12 29.2t-28.8 12.3q-13.5 0-24.5-7.8t-15.3-20.5l-15.7-47.2-88.5 30.3 15.7 46.9q2.3 6.8 2.3 13.4 0 16.9-12 29.1t-29.2 12.3q-13.4 0-24.3-7.7t-15.1-20.6l-15.7-46.5-43.7 15.1q-8.3 2.6-14.3 2.6-17.5 0-29-11.4t-11.6-28.9q0-13.4 7.9-24.3t20.4-15.1l44.6-15.2-30-89.4-44.6 15.4q-7.4 2.3-13.7 2.3-17.2 0-28.9-11.6t-11.7-28.7z m177.1-4.3l30 89.5 88.6-30-30-90z" /></svg>