<svg height="512" width="438.9" xmlns="http://www.w3.org/2000/svg"><path d="m0 228.6v-18.3q0-11.4 8-19.4t19.4-8h91.5q11.4 0 19.4 8t8 19.4v18.3q0 11.4-8 19.4t-19.4 8h-91.5q-11.4 0-19.4-8t-8-19.4z m36.6 237.7v-192h73.1v192q0 4-2.6 6.6t-6.5 2.5h-54.9q-4 0-6.6-2.5t-2.5-6.6z m0-301.7v-118.9q0-4 2.5-6.6t6.6-2.5h54.9q4 0 6.5 2.5t2.6 6.6v118.9h-73.1z m109.7 210.3v-18.3q0-11.5 8-19.5t19.4-8h91.4q11.5 0 19.5 8t8 19.5v18.3q0 11.4-8 19.4t-19.5 8h-91.4q-11.4 0-19.4-8t-8-19.4z m36.6 45.7h73.1v45.7q0 4-2.6 6.6t-6.5 2.5h-54.9q-4 0-6.6-2.5t-2.5-6.6v-45.7z m0-109.7v-265.2q0-4 2.5-6.6t6.6-2.5h54.9q4 0 6.5 2.5t2.6 6.6v265.2h-73.1z m109.7-155.5v-18.3q0-11.4 8-19.4t19.4-8h91.4q11.5 0 19.5 8t8 19.4v18.3q0 11.5-8 19.5t-19.5 8h-91.4q-11.4 0-19.4-8t-8-19.5z m36.5 310.9v-265.2h73.2v265.2q0 4-2.6 6.6t-6.6 2.5h-54.8q-4 0-6.6-2.5t-2.6-6.6z m0-374.9v-45.7q0-4 2.6-6.6t6.6-2.5h54.8q4 0 6.6 2.5t2.6 6.6v45.7h-73.2z" /></svg>