<svg height="512" width="438.9" xmlns="http://www.w3.org/2000/svg"><path d="m0 256q0-59.7 29.4-110.1t79.9-79.9 110.1-29.4 110.2 29.4 79.8 79.9 29.5 110.1-29.5 110.1-79.8 79.9-110.2 29.4-110.1-29.4-79.9-79.9-29.4-110.1z m36.6 0q0 37.1 14.5 71t39 58.3 58.3 39 71 14.6 71-14.6 58.3-39 39-58.3 14.6-71-14.6-71-39-58.3-58.3-39-71-14.6-71 14.6-58.3 39-39 58.3-14.5 71z m73.1-73.1q0-15.2 10.7-25.9t25.9-10.7 25.8 10.7 10.8 25.9-10.8 25.8-25.8 10.7-25.9-10.7-10.7-25.8z m5.2 124.2q-2.3-7.1 1.1-13.8t10.9-9q7.1-2.3 13.8 1.1t9 10.9q7.2 22.8 26.4 37t43.3 14.1 43.3-14.1 26.4-37q2.3-7.4 9.2-10.9t14-1.1 10.6 9 1.1 13.8q-10.6 34.6-39.4 55.8t-65.2 21.1-65.1-21.1-39.4-55.8z m141.1-124.2q0-15.2 10.7-25.9t25.9-10.7 25.8 10.7 10.7 25.9-10.7 25.8-25.8 10.7-25.9-10.7-10.7-25.8z" /></svg>