<svg height="512" width="438.9" xmlns="http://www.w3.org/2000/svg"><path d="m9.7 408q2.3-5.7 8.6-5.7h54.8v-393.2q0-4 2.6-6.5t6.6-2.6h54.8q4 0 6.6 2.6t2.6 6.5v393.2h54.8q4 0 6.6 2.6t2.6 6.5q0 3.5-2.9 6.9l-91.1 91.1q-2.9 2.6-6.6 2.6-3.4 0-6.6-2.6l-91.4-91.4q-4.3-4.6-2-10z m260.6-43.7q0-30 20.6-50.9t51.7-20.8q35.1 0 58.5 27t23.5 72.1q0 17.7-3.7 34.7t-11.8 32.6-19.4 27.3-28.1 18.7-36.5 7q-17.7 0-30.8-4.6-6.9-2.3-12-4.3l11.1-32.2q4.3 2 8.9 3.1 10.6 3.7 21.4 3.7 24 0 38.4-16.7t19-41.6h-0.5q-6 6.6-17.6 10.6t-24.1 4q-30.3 0-49.5-20.4t-19.1-49.3z m8.6-311.4l54.8-52.9h35.2v186.9h47.1v32.5h-134v-32.5h47.7v-123.5q0-2 0.2-5.4t0.1-4.9v-4.5h-0.6l-2 3.4q-2.3 3.7-7.4 8.9l-17.7 16.5z m31.1 311.4q0 16.3 10.4 27.1t29.9 10.9q14.3 0 24.3-7.7t10-19.5q0-18-12.6-33.1t-29.4-15.1q-14.9 0-23.7 10.5t-8.9 26.9z" /></svg>