<svg height="512" width="475.4" xmlns="http://www.w3.org/2000/svg"><path d="m9.7 408q2.3-5.7 8.6-5.7h54.8v-393.2q0-4 2.6-6.5t6.6-2.6h54.8q4 0 6.6 2.6t2.6 6.5v393.2h54.8q4 0 6.6 2.6t2.6 6.5q0 3.5-2.9 6.9l-91.1 91.1q-2.9 2.6-6.6 2.6-3.4 0-6.6-2.6l-91.4-91.4q-4.3-4.6-2-10z m247.2-188.6v-30.3h20l65.7-189.1h46.3l65.7 189.1h20v30.3h-82.3v-30.3h21.4l-13.4-41.1h-69.4l-13.5 41.1h21.5v30.3h-82z m25.4 266.9l105.4-151.2q3.4-5.1 6-7.7l3.2-2.5v-0.9q-0.6 0-1.9 0.1t-2.1 0.2q-3.5 0.8-8.6 0.8h-66.3v32.9h-34.3v-65.4h162v25.4l-105.4 151.4q-1.7 2.3-6 7.5l-3.2 3.1v0.6l4-0.6q2.6-0.6 8.6-0.6h70.9v-34h34.5v66.6h-166.8v-25.7z m58-369.7h50.6l-20.6-62.3-3.4-13.4q-0.6-4.6-0.6-5.8h-1.2l-0.8 5.8q0 0.2-1 5.1t-2.2 8.3z" /></svg>