<svg height="512" width="658.3" xmlns="http://www.w3.org/2000/svg"><path d="m0 323.1l4.9-36.5q0.5-2.6 2.5-2.6t2.6 2.6l5.7 36.5-5.7 36q-0.6 2.6-2.6 2.6t-2.5-2.6z m22.6 0l6.5-59.1q0-2.6 2.6-2.6 2.3 0 2.9 2.6l7.4 59.1-7.4 58q-0.6 2.6-2.9 2.6-2.6 0-2.6-2.8z m25.7 0l6-70q0.6-3.4 3.4-3.4 3.2 0 3.2 3.4l7.1 70-7.1 67.8q0 3.1-3.2 3.1-2.8 0-3.4-3.1z m25.7 0l6-72q0-3.7 3.7-3.7 3.4 0 4 3.7l6.6 72-6.6 69.8q-0.6 3.7-4 3.7-3.7 0-3.7-3.7z m26 0l5.7-66.8q0-1.7 1.3-3t3-1.3q4 0 4.6 4.3l6 66.8-6 70.3q-0.6 4.6-4.6 4.6-1.7 0-3-1.3t-1.3-3.3z m14.6 70.3z m11.7-70.3l5.1-108.5q0.6-5.2 5.2-5.2 2 0 3.4 1.6t1.4 3.6l6 108.5-6 70.3q0 2-1.4 3.6t-3.4 1.6q-4.6 0-5.2-5.2z m26.3 0.6l4.5-133.7q0.6-5.4 5.8-5.4 2.2 0 3.8 1.5t1.6 3.9l5.4 133.7-5.4 69.7q0 2.3-1.6 3.9t-3.8 1.6q-5.2 0-5.8-5.5z m26.8-0.6l4.6-144.5q0-2.6 1.9-4.5t4.1-1.8q2.6 0 4.3 1.8t2 4.5l5.1 144.5-5.1 69.2q-0.6 6-6.3 6-5.4 0-6-6z m27.2 0l4 68.9q0.3 2.9 2.1 4.7t4.4 1.9q6.3 0 6.9-6.6l4.6-68.9-4.6-149.4q-0.3-2.8-2.1-4.8t-4.8-2q-2.5 0-4.5 2t-2 4.8z m17.4 68.9z m9.4-68.9l4-145.7q0-3.1 2.2-5.1t5-2 5 2 2.1 5.1l4.3 145.7-4.3 68.3q0 2.9-2.1 5t-5 2.2-4.9-2-2.3-5.2z m27.5 0.3l3.4-140.5q0.3-3.5 2.6-5.8t5.4-2.2 5.3 2.2 2.4 5.8l4 140.5-4 67.5q0 3.1-2.3 5.4t-5.4 2.3-5.4-2.3-2.6-5.4z m27.7-0.3q0 0.3 3.1 67.5v0.3q0 2.8 1.7 4.8 2.6 3.2 6.6 3.2 3.1 0 5.7-2.6 2.6-2 2.6-5.7l0.3-6.9 3.1-60.3-3.4-167.4q0-4.6-3.7-6.9-2.3-1.4-4.6-1.4t-4.6 1.4q-3.7 2.3-3.7 6.9l-0.3 1.7z m19.7 67.5z m6.8-67.2l3.5-181.7v-0.8q0.5-4.3 3.4-6.9 2.6-2 5.7-2 2.3 0 4.3 1.4 4 2.3 4.6 7.5l4 182.5-4 66q0 3.7-2.6 6.3t-6.3 2.6-6.3-2.6-2.8-6.3l-1.7-32.5z m28.9 65.7v-256.8q0-6.6 8-9.4 24.3-9.8 51.7-9.8 55.7 0 96.6 37.6t45.7 92.4q15.1-6.2 31.4-6.2 33.5 0 57.2 23.7t23.7 57.4q0 33.4-23.7 57t-57.2 23.6h-224.5q-3.8-0.6-6.3-3.2t-2.6-6.3z" /></svg>