<svg height="512" width="448.0" xmlns="http://www.w3.org/2000/svg"><path d="m0 256q0-18.9 13.4-32.3t32.3-13.4 32.3 13.4 13.4 32.3-13.4 32.3-32.3 13.4-32.3-13.4-13.4-32.3z m50.3-128q0-20.9 14.7-35.6t35.6-14.7 35.5 14.7 14.8 35.6-14.8 35.6-35.5 14.7-35.6-14.7-14.7-35.6z m9.1 256q0-17.1 12-29.1t29.2-12q16.8 0 29 12t12.1 29.1-12.1 29.1-29 12q-17.2 0-29.2-12t-12-29.1z m114.3-310.9q0-22.8 16-38.8t38.9-16 38.8 16 16 38.8-16 38.9-38.8 16-38.9-16-16-38.9z m18.3 365.8q0-15.2 10.7-25.9t25.9-10.7 25.8 10.7 10.7 25.9-10.7 25.8-25.8 10.7-25.9-10.7-10.7-25.8z m132.6-54.9q0-13.1 9.4-22.6t22.6-9.4 22.5 9.4 9.5 22.6-9.5 22.6-22.5 9.4-22.6-9.4-9.4-22.6z m9.1-256q0-9.4 6.7-16.1t16.2-6.8 16.1 6.8 6.7 16.1-6.7 16.1-16.1 6.8-16.2-6.8-6.7-16.1z m50.3 128q0-11.4 8-19.4t19.4-8 19.5 8 8 19.4-8 19.4-19.5 8-19.4-8-8-19.4z" /></svg>