<svg height="512" width="438.9" xmlns="http://www.w3.org/2000/svg"><path d="m0 393.1v-274.2q0-34 24.1-58.2t58.2-24.1h274.3q34 0 58.1 24.1t24.2 58.2v274.2q0 34-24.2 58.2t-58.1 24.1h-274.3q-34 0-58.2-24.1t-24.1-58.2z m36.6-152.2q0 15.1 10.8 26t26.3 10.8q10.3 0 18.9-5.1l139.7 56.3q2.8 12.5 13 20.8t23.3 8.3q14.3 0 24.7-9.7t11.8-23.7l47.8-34.9q20.2 0 34.8-14.4t14.6-35-14.6-35.2-34.8-14.5q-20.6 0-35 14.4t-14.8 34.7l-30.8 44.3q-0.6 0-1.9-0.1t-1.8-0.2q-10 0-19.2 5.4l-139.7-56.2q-2.8-12.6-13-20.9t-23-8.3q-15.4 0-26.3 10.9t-10.8 26.3z m9.7 0q0-11.5 8-19.5t19.4-8q7.7 0 14.2 4t9.8 10.6l-13.7-5.4q-8.3-3.2-16.1 0.5t-11 11.8q-3.5 8.2-0.2 16.2t11.3 11.5v0.3l11.4 4.5q-4 0.6-5.7 0.6-11.4 0-19.4-7.9t-8-19.2z m198 92.5q1.4 0.6 13.4 5.5 8.3 3.4 16.6-0.2t11.7-11.8q3.1-8.3-0.3-16.5t-11.7-11.5l-11.4-4.6q4-0.6 6-0.6 11.1 0 19.1 7.9t8 19.3-8 19.2-19.1 7.9q-16.9 0-24.3-14.6z m75.1-93.1q0-13.7 9.7-23.4t23.8-9.8q13.7 0 23.4 9.8t9.7 23.4-9.7 23.4-23.4 9.7q-14 0-23.8-9.7t-9.7-23.4z m6.9-0.3q0 11.1 7.8 18.9t18.8 7.7 18.7-7.7 7.8-18.9q0-10.9-7.8-18.7t-18.7-7.9-18.8 7.9-7.8 18.7z" /></svg>