<svg height="512" width="402.3" xmlns="http://www.w3.org/2000/svg"><path d="m0 219.4v-146.3q0-7.4 5.4-12.8t12.9-5.4q1.7 0 4.6 0.5 4.8-8.5 13.4-13.7t18.6-5.1q15.1 0 25.8 10.7t10.7 25.8-10.7 25.9-25.8 10.7q-9.5 0-18.3-5.1v114.8q0 30.3 26.8 51.7t64.6 21.5 64.6-21.5 26.8-51.7v-114.8q-8.8 5.1-18.3 5.1-15.1 0-25.8-10.7t-10.7-25.9 10.7-25.8 25.8-10.7q10 0 18.6 5.1t13.4 13.7q2.9-0.5 4.6-0.5 7.4 0 12.9 5.4t5.4 12.8v146.3q0 41.2-31.4 72t-78.3 36.6v37.7q0 30.3 26.8 51.7t64.6 21.5 64.6-21.5 26.8-51.7v-112.8q-16.2-6-26.4-20t-10.1-31.8q0-22.8 16-38.8t38.8-16 38.9 16 16 38.8q0 17.8-10.2 31.8t-26.4 20v112.8q0 45.4-37.6 77.6t-90.4 32.1-90.4-32.1-37.6-77.6v-37.7q-46.8-5.7-78.3-36.6t-31.4-72z m329.1-18.3q0 7.5 5.5 12.9t12.8 5.4 12.9-5.4 5.4-12.9-5.4-12.8-12.9-5.4-12.8 5.4-5.5 12.8z" /></svg>