<svg height="512" width="512.0" xmlns="http://www.w3.org/2000/svg"><path d="m0 283.4v-18.3q0-4 2.6-6.5t6.5-2.6h493.8q4 0 6.5 2.6t2.6 6.5v18.3q0 4-2.6 6.6t-6.5 2.6h-493.8q-4 0-6.5-2.6t-2.6-6.6z m109.7-122.3q0-51.7 38.3-88.2 38-36.3 112.3-36.3 14.3 0 47.7 5.4 18.9 3.4 50.6 13.7 2.8 10.9 6 33.7 4 35.2 4 52.3 0 5.2-1.5 12.9l-3.4 0.8-24-1.7-4-0.6q-14.3-42.5-29.4-58.5-25.2-26-60-26-32.6 0-52 16.8-19.2 16.6-19.2 41.7 0 20.9 18.9 40t79.7 36.9q19.7 5.7 49.4 18.9 16.6 8 27.2 14.8h-212.3q-8-10-14.6-22.8-13.7-27.8-13.7-53.8z m8.6 233.8q-0.3-8.6 0-19.5l0.6-10.5v-12.6l29.1-0.6q4.3 9.7 8.6 20.3t6.4 16 3.6 7.7q10 16.3 22.8 26.9 12.3 10.3 30 16.3 16.9 6.2 37.7 6.2 18.3 0 39.8-7.7 22-7.4 34.8-24.5 13.4-17.5 13.4-36.9 0-24-23.1-44.9-9.7-8.2-39.1-20.2h117.4q2 11.1 2 26.2 0 31.8-11.7 60.6-6.6 15.7-20.3 29.7-10.6 10-31.2 23.2-22.8 13.7-43.7 18.8-22.8 6-58 6-32.5 0-55.7-6.5l-40-11.5q-16.3-4.5-20.6-8-2.2-2.3-2.2-6.3v-3.7q0-30.8-0.6-44.5z" /></svg>