<svg height="512" width="438.9" xmlns="http://www.w3.org/2000/svg"><path d="m0 256q0-59.7 29.4-110.1t79.9-79.9 110.1-29.4 110.2 29.4 79.8 79.9 29.5 110.1-29.5 110.1-79.8 79.9-110.2 29.4-110.1-29.4-79.9-79.9-29.4-110.1z m91.4 39.4q0 23.5 16.5 39.7t39.8 16.3q23.2 0 39.6-16.1t16.4-39v-80q0-5.4 3.9-9.4t9.5-4q5.5 0 9.3 4t3.9 9.4v15.4l17.1 8 25.7-7.7v-17.7q0-22.6-16.5-38.6t-39.5-16-39.4 15.9-16.6 38.4v80.9q0 5.7-4 9.5t-9.4 3.9-9.3-3.9-3.8-9.5v-34.3h-43.2v34.8z m138.9 0.6q0 22.9 16.6 39.1t39.7 16.3 39.5-16.3 16.5-39.7v-34.8h-42.9v36q0 5.7-3.8 9.5t-9.6 3.9q-5.4 0-9.3-4t-3.9-9.4v-35.2l-25.7 7.5-17.1-8v35.1z" /></svg>