<svg height="512" width="548.6" xmlns="http://www.w3.org/2000/svg"><path d="m0 192v-118.9q0-14.8 10.9-25.7t25.7-10.8h118.8q15.2 0 33.5 7.5t29.1 18.5l204.3 204q10.6 11.1 10.6 26 0 15.1-10.6 25.7l-140.3 140.6q-11.1 10.5-26 10.5-15.1 0-25.7-10.5l-204.3-204.6q-10.9-10.6-18.4-28.9t-7.6-33.4z m54.9-64q0 15.1 10.7 25.9t25.8 10.7 25.9-10.7 10.7-25.9-10.7-25.9-25.9-10.7-25.8 10.7-10.7 25.9z m146.2-91.4h64q15.2 0 33.5 7.5t29.1 18.5l204.3 204q10.6 11.1 10.6 26 0 15.1-10.6 25.7l-140.3 140.6q-11.1 10.5-26 10.5-10.3 0-16.8-4t-15.2-12.8l134.3-134.3q10.6-10.6 10.6-25.7 0-14.9-10.6-26l-204.3-204q-10.8-10.9-29.1-18.5t-33.5-7.5z" /></svg>