<svg height="512" width="512.0" xmlns="http://www.w3.org/2000/svg"><path d="m0 420.6v-73.2q0-7.4 5.4-12.8t12.9-5.5h475.4q7.4 0 12.9 5.5t5.4 12.8v73.2q0 7.4-5.4 12.8t-12.9 5.5h-475.4q-7.4 0-12.9-5.5t-5.4-12.8z m0-146.3v-73.2q0-7.4 5.4-12.8t12.9-5.4h475.4q7.4 0 12.9 5.4t5.4 12.8v73.2q0 7.4-5.4 12.8t-12.9 5.5h-475.4q-7.4 0-12.9-5.5t-5.4-12.8z m0-146.3v-73.1q0-7.5 5.4-12.9t12.9-5.4h475.4q7.4 0 12.9 5.4t5.4 12.9v73.1q0 7.4-5.4 12.9t-12.9 5.4h-475.4q-7.4 0-12.9-5.4t-5.4-12.9z m182.9 128h292.5v-36.6h-292.5v36.6z m109.7 146.3h182.8v-36.6h-182.8v36.6z m73.1-292.6h109.7v-36.6h-109.7v36.6z" /></svg>