<svg height="512" width="512.0" xmlns="http://www.w3.org/2000/svg"><path d="m0 146.6v-109.5l23.1-0.2 15.5 7.7q3.4 1.4 60.3 1.4 12.5 0 37.7-0.6t37.7-0.5q10.3 0 30.7 0.1t30.7 0.1h83.7q1.7 0 6 0.2t5.9 0 4.6-0.9 5-2.5 4.2-5l12-0.3q1.2 0 4 0.1t4 0.2q0.6 32 0.6 96 0 22.8-1.4 31.1-11.2 4-19.4 5.1-7.2-12.5-15.5-36.5-0.8-2.6-3.1-13.7t-4.2-21-2.1-10.2q-1.7-2.3-3.4-3.6t-4.5-1.7-3.7-0.7-5.1-0.1-4.7 0.1q-4.9 0-19-0.1t-21.3-0.2-18.3 0.6-20.3 1.7q-2.6 23.2-2.3 38.9 0 26.8 0.6 110.8t0.6 130q0 4.6-0.7 20.5t0 26.1 3.5 19.7q11.5 6 35.5 12.2t34.2 10.7q1.5 11.4 1.5 14.3 0 4-0.9 8.2l-9.7 0.3q-21.7 0.6-62.3-2.3t-59.1-2.8q-14.3 0-43.2 2.6t-43.4 2.5q-0.9-14.5-0.9-14.8v-2.6q4.9-7.7 17.6-12.3t28.2-8.3 22.2-7.7q5.5-12 5.5-109.4 0-28.9-0.9-86.6t-0.8-86.6v-33.4q0-0.6 0.1-4.4t0.1-7.2-0.2-7.2-0.9-6.9-1.4-4q-3.2-3.4-46.3-3.4-9.4 0-26.6 3.4t-22.8 7.4q-5.5 3.7-9.8 20.7t-9 31.8-12.1 15.2q-12-7.4-16-12.5z m404 261q2.6-5.3 12-5.3h22.9v-292.6h-22.9q-9.4 0-12-5.3t3.1-12.7l36-46.3q5.8-7.4 14-7.4t14 7.4l36 46.3q5.8 7.4 3.2 12.7t-12 5.3h-22.9v292.6h22.9q9.4 0 12 5.3t-3.2 12.7l-36 46.3q-5.7 7.4-14 7.4t-14-7.4l-36-46.3q-5.7-7.4-3.1-12.7z" /></svg>