<svg height="512" width="512.0" xmlns="http://www.w3.org/2000/svg"><path d="m0 411.4v-54.8q0-11.5 8-19.5t19.4-8h91.5q11.4 0 19.4 8t8 19.5v54.8q0 11.5-8 19.5t-19.4 8h-91.5q-11.4 0-19.4-8t-8-19.5z m0-146.3v-54.8q0-11.4 8-19.4t19.4-8h91.5q11.4 0 19.4 8t8 19.4v54.8q0 11.5-8 19.5t-19.4 8h-91.5q-11.4 0-19.4-8t-8-19.5z m0-146.2v-54.9q0-11.4 8-19.4t19.4-8h91.5q11.4 0 19.4 8t8 19.4v54.9q0 11.4-8 19.4t-19.4 8h-91.5q-11.4 0-19.4-8t-8-19.4z m182.9 292.5v-54.8q0-11.5 8-19.5t19.4-8h274.3q11.4 0 19.4 8t8 19.5v54.8q0 11.5-8 19.5t-19.4 8h-274.3q-11.4 0-19.4-8t-8-19.5z m0-146.3v-54.8q0-11.4 8-19.4t19.4-8h274.3q11.4 0 19.4 8t8 19.4v54.8q0 11.5-8 19.5t-19.4 8h-274.3q-11.4 0-19.4-8t-8-19.5z m0-146.2v-54.9q0-11.4 8-19.4t19.4-8h274.3q11.4 0 19.4 8t8 19.4v54.9q0 11.4-8 19.4t-19.4 8h-274.3q-11.4 0-19.4-8t-8-19.4z" /></svg>