<svg height="512" width="475.4" xmlns="http://www.w3.org/2000/svg"><path d="m0 402.3v-109.7q0-14.9 10.9-25.7t25.7-10.9h146.3q14.8 0 25.7 10.9t10.8 25.7v109.7q0 14.8-10.8 25.7t-25.7 10.9h-146.3q-14.9 0-25.7-10.9t-10.9-25.7z m0-219.4v-109.8q0-14.8 10.9-25.7t25.7-10.8h146.3q14.8 0 25.7 10.8t10.8 25.7v109.8q0 14.8-10.8 25.7t-25.7 10.8h-146.3q-14.9 0-25.7-10.8t-10.9-25.7z m256 219.4v-109.7q0-14.9 10.9-25.7t25.7-10.9h146.3q14.8 0 25.7 10.9t10.8 25.7v109.7q0 14.8-10.8 25.7t-25.7 10.9h-146.3q-14.9 0-25.7-10.9t-10.9-25.7z m0-219.4v-109.8q0-14.8 10.9-25.7t25.7-10.8h146.3q14.8 0 25.7 10.8t10.8 25.7v109.8q0 14.8-10.8 25.7t-25.7 10.8h-146.3q-14.9 0-25.7-10.8t-10.9-25.7z" /></svg>