<svg height="512" width="438.9" xmlns="http://www.w3.org/2000/svg"><path d="m0 292.6v-182.9q0-15.1 10.7-25.8t25.9-10.8h82.3q6.2 0 39.4-11.4 36.6-12.6 63.7-18.8t57.1-6.3h32q40 0 64.8 22.5t24.4 61.8v1.4q17.1 22 17.1 50.8 0 6.3-0.8 12.3 10.8 19.2 10.8 41.2 0 10.3-2.5 19.7 14 21.1 14 46.6 0 29.4-21.8 51.1t-51.4 21.7h-50.3q13.7 28.3 13.7 54.9 0 33.7-10 53.1-10 19.7-29.1 29t-43.1 9.3q-14.6 0-25.8-10.6-9.7-9.4-15.4-23.4t-7.3-25.9-5-24.1-8.8-18.3q-13.7-14.3-30.6-36.3-28.9-37.4-39.1-44.3h-78.3q-15.2 0-25.9-10.7t-10.7-25.8z m36.6-164.6q0 7.4 5.4 12.9t12.9 5.4 12.8-5.4 5.4-12.9-5.4-12.9-12.8-5.4-12.9 5.4-5.4 12.9z m73.1 164.6h9.2q4.5 0 10.1 2.5t11.4 7.8 11 10.1 11.5 12.6 9.8 12.1 9 11.7 6.6 8.6q15.7 19.4 22 26 11.7 12.3 17 31.3t8.7 35.8 10.9 24.3q27.4 0 36.5-13.4t9.2-41.4q0-16.9-13.7-45.9t-13.8-45.6h100.6q14.3 0 25.4-11t11.2-25.5q0-10-6.2-23.2t-15.2-13.4q4.2-4.9 7.1-13.6t2.9-15.8q0-19.7-15.2-34 5.2-9.2 5.2-19.7t-5-21-13.6-15q1.4-8.6 1.4-16 0-24.3-14-36t-38.8-11.8h-36.6q-37.4 0-97.7 20.9-1.5 0.6-8.3 3t-10.2 3.6-10 3.3-10.8 3.1-9.4 1.9-9 0.8h-9.2v182.9z" /></svg>