<svg height="512" width="475.4" xmlns="http://www.w3.org/2000/svg"><path d="m0 310.9q0 7.4 5.4 12.8t12.9 5.4h82.3q7.4 0 12.8-5.4t5.5-12.8v-182.9q0-7.4-5.5-12.9t-12.8-5.4h-82.3q-7.4 0-12.9 5.4t-5.4 12.9v182.9z m36.6-146.3q0-7.7 5.3-13t13-5.3q7.4 0 12.8 5.3t5.4 13q0 7.4-5.4 12.8t-12.8 5.5q-7.8 0-13-5.5t-5.3-12.8z m100.5 146.5v-183.1q0-7.4 5.5-12.7t12.8-5.6q10-0.3 45.2-12.6 22-7.4 34.4-11.2t34.7-8.3 41.2-4.5h4.8 21.7 10.3q38 0.6 56.3 22.3 16.6 19.7 14 51.7 11.1 10.6 15.4 26.9 4.9 17.4 0 33.4 13.2 17.5 12.3 39.2 0 9.1-4.3 21.7 15.7 17.4 15.7 42.6-0.2 22.2-16.4 38.5t-38.4 16.3h-79.2q1.2 4 2.3 6.9t3.2 6.3 2.8 5.1q5.2 10.6 7.7 16.3t5.5 16.7 2.8 21.9q0 6.8-0.1 11.1t-1.4 12.9-3.5 14.2-6.8 12.9-11.5 11.6-17.1 7.4-23.6 3q-7.4 0-12.8-5.4-5.7-5.7-9.7-14.3t-5.6-14.9-3.6-17.4q-2.6-12-3.8-17.3t-5-13.8-8.9-13.8q-9.4-9.4-28.9-34.2-14-18.3-28.8-34.6t-21.7-16.9q-7.2-0.5-12.3-5.8t-5.2-12.5z" /></svg>