<svg height="512" width="475.4" xmlns="http://www.w3.org/2000/svg"><path d="m0 420.6v-182.9q0-7.4 5.4-12.8t12.9-5.5h82.3q7.4 0 12.8 5.5t5.5 12.8v182.9q0 7.4-5.5 12.8t-12.8 5.5h-82.3q-7.4 0-12.9-5.5t-5.4-12.8z m36.6-36.6q0 7.7 5.3 13t13 5.3q7.4 0 12.8-5.3t5.4-13q0-7.4-5.4-12.9t-12.8-5.4q-7.8 0-13 5.4t-5.3 12.9z m100.5 36.6v-183.2q0-7.1 5.2-12.4t12.3-5.9q6.8-0.5 21.7-16.8t28.8-34.6q19.5-24.8 28.9-34.3 5.1-5.1 8.9-13.7t5-13.8 3.8-17.3q2-11.2 3.6-17.5t5.6-14.8 9.7-14.3q5.4-5.4 12.8-5.4 13.2 0 23.6 3t17.1 7.4 11.5 11.6 6.8 12.8 3.5 14.3 1.4 12.9 0.1 11.1q0 10.9-2.7 21.7t-5.4 17.2-7.9 16q-0.8 1.7-2.8 5.1t-3.2 6.3-2.3 6.9h79.2q22.3 0 38.6 16.2t16.2 38.6q0 24.6-15.7 42.6 4.3 12.6 4.3 21.7 0.9 21.7-12.3 39.1 4.9 16 0 33.5-4.3 16.3-15.4 26.8 2.6 32-14 51.7-18.3 21.8-56.3 22.3h-10.3-21.7-4.8q-18.9 0-41.2-4.4t-34.7-8.3-34.4-11.3q-35.2-12.3-45.2-12.5-7.4-0.3-12.8-5.6t-5.5-12.7z" /></svg>