<svg height="512" width="512.0" xmlns="http://www.w3.org/2000/svg"><path d="m15.4 310.7q0-15.3 10.6-25.8l259.1-258.9q10.6-10.6 25.9-10.6t25.9 10.6l35.7 35.7q-16 16-16 38.9t16 38.8 38.8 16 38.9-16l36 35.7q10.6 10.6 10.6 25.9t-10.6 25.9l-259.2 259.4q-10.5 10.6-25.8 10.6t-25.9-10.6l-36-36q16-16 16-38.9t-16-38.8-38.8-16-38.9 16l-35.7-36q-10.6-10.6-10.6-25.9z m82.3-18.1q0 7.4 5.4 12.8l103.5 103.5q5.1 5.1 12.8 5.1t12.9-5.1l176.6-176.6q5.4-5.4 5.4-12.9t-5.4-12.8l-103.5-103.5q-5.1-5.1-12.8-5.1t-12.9 5.1l-176.6 176.6q-5.4 5.4-5.4 12.9z m31.4 0l163.5-163.5 90.3 90.3-163.5 163.5z" /></svg>