<svg height="512" width="438.9" xmlns="http://www.w3.org/2000/svg"><path d="m0 256q0-59.7 29.4-110.1t79.9-79.9 110.1-29.4 110.2 29.4 79.8 79.9 29.5 110.1-29.5 110.1-79.8 79.9-110.2 29.4-110.1-29.4-79.9-79.9-29.4-110.1z m110.6 64.6q0 7.7 5.4 13.1l25.7 25.7q5.4 5.5 13.2 5.5 7.4 0 12.8-5.5l51.7-51.7 51.7 51.7q5.5 5.5 12.9 5.5 7.7 0 13.1-5.5l25.8-25.7q5.4-5.4 5.4-13.1 0-7.5-5.4-12.9l-51.8-51.7 51.8-51.7q5.4-5.4 5.4-12.9 0-7.7-5.4-13.1l-25.8-25.7q-5.4-5.5-13.1-5.5-7.4 0-12.9 5.5l-51.7 51.7-51.7-51.7q-5.4-5.5-12.8-5.5-7.8 0-13.2 5.5l-25.7 25.7q-5.4 5.4-5.4 13.1 0 7.5 5.4 12.9l51.7 51.7-51.7 51.7q-5.4 5.4-5.4 12.9z" /></svg>