<svg height="512" width="438.9" xmlns="http://www.w3.org/2000/svg"><path d="m9.1 420.6q0-7.5 5.5-12.9l114.8-115.1h-65.4q-7.4 0-12.9-5.5t-5.4-12.8 5.4-12.9l114.9-115.1h-56.3q-7.4 0-12.8-5.4t-5.5-12.9 5.5-12.9l109.7-109.7q5.4-5.4 12.8-5.4t12.9 5.4l109.7 109.7q5.4 5.5 5.4 12.9t-5.4 12.9-12.9 5.4h-56.2l114.8 115.1q5.4 5.5 5.4 12.9t-5.4 12.8-12.8 5.5h-65.5l114.9 115.1q5.4 5.4 5.4 12.9t-5.4 12.8-12.9 5.5h-132q0.3 4.8 1.7 25t1.5 31q0 7.1-5.2 12.1t-12.3 5h-91.4q-7.1 0-12.3-5t-5.1-12.1q0-10.9 1.4-31t1.7-25h-132q-7.4 0-12.8-5.5t-5.5-12.8z" /></svg>