<svg height="512" width="512.0" xmlns="http://www.w3.org/2000/svg"><path d="m18.3 384q0-7.4 5.4-12.9t12.9-5.4v-91.4q0-2.3-0.2-10t0-10.9 0.7-9.8 1.9-10.6 4-8.7 6.4-8.6l56.6-56.6q5.4-5.4 14.4-9.1t16.7-3.7h45.8v-54.9q0-7.4 5.4-12.8t12.8-5.5h292.6q7.4 0 12.9 5.5t5.4 12.8v292.6q0 4.3-1.1 7.6t-3.9 5.3-4.7 3.2-6.7 1.8-6.5 0.5-7.2 0-6.5-0.1q0 30.3-21.4 51.7t-51.7 21.4-51.7-21.4-21.5-51.7h-109.7q0 30.3-21.4 51.7t-51.7 21.4-51.7-21.4-21.5-51.7h-18.2q-0.9 0-6.5 0.1t-7.3 0-6.4-0.5-6.7-1.8-4.7-3.2-3.9-5.3-1.1-7.6z m54.8-128h109.8v-73.1h-45.2q-3.7 0-6.3 2.5l-55.7 55.7q-2.6 2.6-2.6 6.3v8.6z m36.6 146.3q0 14.8 10.9 25.7t25.7 10.9 25.7-10.9 10.9-25.7-10.9-25.7-25.7-10.9-25.7 10.9-10.9 25.7z m256 0q0 14.8 10.9 25.7t25.7 10.9 25.7-10.9 10.9-25.7-10.9-25.7-25.7-10.9-25.7 10.9-10.9 25.7z" /></svg>