<svg height="512" width="329.1" xmlns="http://www.w3.org/2000/svg"><path d="m0 265.1v-36.5q0-6.6 6.6-8.9l66.5-20.3v-26.5l-61.4 18.8q-0.8 0.3-2.6 0.3-2.8 0-5.4-1.7-3.7-2.9-3.7-7.4v-36.6q0-6.6 6.6-8.9l66.5-20.3v-71.4q0-4 2.6-6.6t6.6-2.5h45.7q4 0 6.6 2.5t2.5 6.6v51.7l107.2-33.1q4.3-1.4 8 1.4t3.7 7.4v36.6q0 6.6-6.6 8.9l-112.3 34.5v26.6l107.2-33.1q4.3-1.5 8 1.4t3.7 7.4v36.6q0 6.6-6.6 8.9l-112.3 34.5v139.2q53.8-3.7 90.9-43.2t37.1-93.7q0-4 2.6-6.6t6.6-2.5h45.7q4 0 6.6 2.5t2.5 6.6q0 54.6-27 100.9t-73.2 73.3-100.9 27h-45.7q-4 0-6.6-2.6t-2.6-6.6v-174.6l-61.4 18.9q-0.8 0.3-2.6 0.3-2.8 0-5.4-1.7-3.7-2.9-3.7-7.5z" /></svg>