<svg height="512" width="438.9" xmlns="http://www.w3.org/2000/svg"><path d="m0 393.1v-274.2q0-34 24.1-58.2t58.2-24.1h274.3q34 0 58.1 24.1t24.2 58.2v274.2q0 34-24.2 58.2t-58.1 24.1h-274.3q-34 0-58.2-24.1t-24.1-58.2z m73.1-36q42.3 26.9 92 26.9 32 0 60-10.1t48-27.2 34.5-39.1 21.4-46.3 7-48.2q0-5.1-0.3-7.7 18-12.8 30-31.1-16 7.1-34.6 9.7 19.5-11.4 26.6-33.4-18.6 10.8-38.3 14.5-17.4-18.8-43.7-18.8-24.8 0-42.4 17.6t-17.6 42.4q0 8.3 1.4 13.7-36.8-2-69.1-18.6t-54.9-44.3q-8.2 14.3-8.2 30.3 0 32.6 26 50-13.5-0.3-28.6-7.4v0.6q0 21.4 14.3 38.1t35.1 20.7q-8.3 2.3-14.6 2.3-3.7 0-11.1-1.1 6 18 21.3 29.7t34.7 12q-33.1 25.7-74.6 25.7-7.4 0-14.3-0.9z" /></svg>