<svg height="512" width="475.4" xmlns="http://www.w3.org/2000/svg"><path d="m0 244.3q0-1.4 0.3-2 12.8-52.3 49.3-91.3t85.1-58.4 103-19.5q40 0 78.4 11.5t70.5 32.4 55.5 53.4 33 71.9q0.3 0.6 0.3 2 0 3.7-2.7 6.4t-6.4 2.7q-3.2 0-6.6-2.8-14-13.2-26.6-19.7t-29.1-6.6q-19.4 0-36.6 10.6t-29.4 27.7q-2 2.8-5 8t-4.1 6.8q-3.2 4.9-8 4.9-5.2 0-8.3-4.9-1.2-1.7-4.2-6.8t-5-8q-12.3-17.2-29.3-27.7t-36.4-10.6-36.4 10.6-29.3 27.7q-2 2.8-5 8t-4.1 6.8q-3.2 4.9-8.3 4.9-4.9 0-8-4.9-1.2-1.7-4.2-6.8t-5-8q-12.3-17.2-29.4-27.7t-36.6-10.6q-16.5 0-29.1 6.6t-26.6 19.7q-3.4 2.8-6.6 2.8-3.7 0-6.4-2.7t-2.7-6.4z m109.7 158q0-7.4 5.4-12.9t12.9-5.4 12.9 5.4 5.4 12.9q0 14.3 11.1 25.4t25.5 11.2 25.4-11.2 11.1-25.4v-165.7q9.5-3.2 18.3-3.2t18.3 3.2v165.7q0 29.7-21.7 51.4t-51.4 21.7-51.5-21.7-21.7-51.4z m109.7-337.7v-28q0-7.5 5.5-12.9t12.8-5.4 12.9 5.4 5.4 12.9v28q-12-0.6-18.3-0.6t-18.3 0.6z" /></svg>