<svg height="512" width="475.4" xmlns="http://www.w3.org/2000/svg"><path d="m0 448v-91.4q0-11.5 8-19.5t19.4-8h122q6 16 20.2 26.3t31.5 10.3h73.2q17.4 0 31.6-10.3t20.1-26.3h122q11.4 0 19.4 8t8 19.5v91.4q0 11.4-8 19.4t-19.4 8h-420.6q-11.4 0-19.4-8t-8-19.4z m92.9-276.6q-4.9-11.1 4-19.7l128-128q5.1-5.4 12.8-5.4t12.9 5.4l128 128q8.8 8.6 4 19.7-4.9 11.5-16.9 11.5h-73.1v128q0 7.4-5.5 12.8t-12.8 5.4h-73.2q-7.4 0-12.8-5.4t-5.4-12.8v-128h-73.2q-12 0-16.8-11.5z m236.2 249.2q0 7.4 5.5 12.8t12.8 5.5 12.9-5.5 5.4-12.8-5.4-12.9-12.9-5.4-12.8 5.4-5.5 12.9z m73.2 0q0 7.4 5.4 12.8t12.9 5.5 12.8-5.5 5.5-12.8-5.5-12.9-12.8-5.4-12.9 5.4-5.4 12.9z" /></svg>