<svg height="512" width="292.6" xmlns="http://www.w3.org/2000/svg"><path d="m14.9 390l29.4-38.6q2-2.8 6.6-3.4 4.2-0.6 6.8 2.6l0.6 0.5q32.3 28.3 69.4 35.8 10.6 2.2 21.2 2.2 23.1 0 40.7-12.2t17.5-34.9q0-8-4.2-15.1t-9.6-12-16.7-10.8-18.9-9.1-22.8-9.3q-11.2-4.6-17.6-7.1t-17.6-7.6-17.8-8.9-16.2-10.1-15.3-12.1-12.4-14-10.1-16.6-6-19-2.5-22.3q0-39.4 28-69.1t72.9-38.3v-51.5q0-3.7 2.7-6.4t6.4-2.7h38.6q4 0 6.6 2.6t2.5 6.5v50.3q16.3 1.7 31.6 6.6t24.9 9.6 18.1 10.7 11.2 8.3 4.2 4q4.9 5.1 1.5 10.8l-23.2 41.7q-2.3 4.3-6.5 4.6-4 0.9-7.8-2-0.8-0.8-4.1-3.4t-11.1-7.6-16.8-9.1-21.2-7.5-24.5-3.2q-27.1 0-44.3 12.2t-17.1 31.8q0 7.4 2.4 13.7t8.5 11.8 11.2 9.5 16 8.8 17.3 7.7 20 7.9q15.2 5.7 23.2 9t21.7 10 21.6 12.1 17.7 14.3 15.1 18.2 9 21.8 3.7 26.9q0 43.7-28.4 75.3t-73.9 39v50q0 4-2.5 6.5t-6.6 2.6h-38.6q-3.7 0-6.4-2.7t-2.7-6.4v-50q-18.9-2.6-36.4-8.9t-29-12.7-21.2-13.7-13.3-10.7-5-5.2q-4.8-6-0.5-11.7z" /></svg>