<svg height="512" width="548.6" xmlns="http://www.w3.org/2000/svg"><path d="m0 247.1q0-100.8 35.4-100.8 1.7 0 12.5 6t27.8 12.1 34 6.2q19.2 0 38-6.6-1.4 10.6-1.4 18.9 0 39.7 23.1 73.1-46.3 1.4-75.7 36.6h-38.3q-23.4 0-39.4-11.6t-16-33.9z m36.6-174q0-30.2 21.4-51.7t51.7-21.4 51.7 21.4 21.5 51.7-21.5 51.8-51.7 21.4-51.7-21.4-21.4-51.8z m36.5 364.9q0-15.1 1-29.6t4-31.1 7.6-31 12.3-27.9 17.7-23.1 24.4-15.3 31.9-5.7q2.9 0 12.3 6.1t20.8 13.7 30.6 13.8 38.6 6.1 38.6-6.1 30.5-13.8 20.9-13.7 12.3-6.1q17.4 0 31.8 5.7t24.5 15.3 17.7 23.1 12.3 27.9 7.5 31 4 31.1 1 29.6q0 34.3-20.8 54.1t-55.5 19.9h-249.7q-34.5 0-55.4-19.9t-20.9-54.1z m91.5-255.1q0-45.5 32.1-77.6t77.6-32.2 77.6 32.2 32.1 77.6-32.1 77.5-77.6 32.2-77.6-32.2-32.1-77.5z m201.1-109.8q0-30.2 21.4-51.7t51.8-21.4 51.7 21.4 21.4 51.7-21.4 51.8-51.7 21.4-51.8-21.4-21.4-51.8z m13.4 182.9q23.2-33.4 23.2-73.1 0-8.3-1.4-18.9 18.8 6.6 38 6.6 16.8 0 34-6.2t27.8-12.1 12.4-6q35.5 0 35.5 100.8 0 22.3-16 33.9t-39.5 11.6h-38.2q-29.5-35.2-75.8-36.6z" /></svg>