<svg height="512" width="438.9" xmlns="http://www.w3.org/2000/svg"><path d="m0 393.1v-274.2q0-34 24.1-58.2t58.2-24.1h274.3q34 0 58.1 24.1t24.2 58.2v274.2q0 34-24.2 58.2t-58.1 24.1h-274.3q-34 0-58.2-24.1t-24.1-58.2z m36.6-184.5q4.5 2.3 7.3 7.4t6.1 5.7q6 0.9 15.6-2.4t16.5-3 11.9 8.6q3.1 5.1 5.3 11t4.3 13.7 3.5 11.5q4.9 13.2 15.2 53.5 10.3 41.7 16.3 56.3 12 28.2 29.4 35.7 12.3 3.4 24.3 0.4t21.7-9q37.4-22 71.4-67.7 29.7-39.7 49.3-83.6t23.6-64.7q4.6-24.3-6-37.7-14.9-18.6-53.4-12.9-4.9 0.9-11.8 3.6t-16.4 8.7-18.4 13.9-17 20-12.7 26.1q22.8-2 32.4 4.6t7.6 28.3q-1.5 14.8-14.9 40.8-12.3 22.3-20.3 28.3-12.5 9.2-24.8-4-6.6-6.8-10.7-18.4t-5.5-20.9-2.8-24-2.5-20.4q-6.5-36.9-9.7-46.9-3.4-10.5-10.1-19.7t-14.4-11.4q-16.3-4.6-36.3 7.1-15.5 9.2-39 30.3t-35 29.2v2z" /></svg>