<svg height="512" width="475.4" xmlns="http://www.w3.org/2000/svg"><path d="m0 310.9v-109.8q0-7.4 5.4-12.8t12.9-5.4h74.8l95.2-95.2q5.4-5.4 12.8-5.4t12.9 5.4 5.4 12.9v310.8q0 7.5-5.4 12.9t-12.9 5.4-12.8-5.4l-95.2-95.2h-74.8q-7.4 0-12.9-5.4t-5.4-12.8z m259.4-4.6q0-6 3.5-10.2t8.2-7.1 9.8-6.6 8.2-10.1 3.5-16.3-3.5-16.3-8.2-10.1-9.8-6.6-8.2-7.1-3.5-10.2q0-7.7 5.5-13t12.8-5.3q4.3 0 7.2 1.5 20 7.7 32.1 26.5t12.1 40.6-12.1 40.4-32.1 26.7q-2.9 1.5-7.2 1.5-7.4 0-12.8-5.3t-5.5-13z m28.6 67.4q0-11.1 11.1-16.8 16-8.3 21.8-12.6 21.1-15.4 33-38.7t11.8-49.6-11.8-49.6-33-38.7q-5.8-4.3-21.8-12.6-11.1-5.7-11.1-16.8 0-7.4 5.4-12.9t12.9-5.4q3.7 0 7.4 1.4 40 16.9 64.3 53.9t24.3 80.7-24.3 80.7-64.3 53.9q-3.7 1.4-7.1 1.4-7.7 0-13.2-5.4t-5.4-12.9z m28.9 67.2q0-10.3 11.1-16.9 2-1.1 6.4-3t6.5-3q13.1-7.1 23.4-14.6 35.1-26 54.8-64.8t19.8-82.6-19.8-82.6-54.8-64.8q-10.3-7.5-23.4-14.6-2-1.1-6.5-3t-6.4-3q-11.1-6.6-11.1-16.9 0-7.4 5.4-12.8t12.8-5.4q3.8 0 7.5 1.4 60.3 26 96.5 81t36.3 120.7-36.3 120.7-96.5 81q-3.7 1.4-7.5 1.4-7.4 0-12.8-5.4t-5.4-12.8z" /></svg>