<svg height="512" width="585.1" xmlns="http://www.w3.org/2000/svg"><path d="m0 193.7q0-48.3 27.9-88.8t75.4-63.9 103.8-23.3q50.3 0 95 18.9t74.9 52.1 39 74.4q-8.9-1.1-20-1.1-48.3 0-88.9 22t-63.8 59.6-23.3 82.1q0 22.3 6.6 43.4-10 0.9-19.5 0.9-7.4 0-14.2-0.4t-15.8-1.9-12.7-2-15.5-3-14.3-3l-72.3 36.3 20.6-62.3q-82.9-58-82.9-140z m108.6-62q0 11.2 9.4 18.4t21.7 7.3q11.7 0 18.9-7t7.1-18.7-7.1-18.8-18.9-7.2q-12.3 0-21.7 7.3t-9.4 18.7z m124.5 191.7q0-40.8 23.3-75.4t63.9-54.7 88.8-20.2q46 0 86.6 20.2t65 54.8 24.4 75.3q0 33.5-19.5 63.9t-53 55.3l15.7 51.7-56.9-31.2q-42.8 10.6-62.3 10.6-48.2 0-88.8-20.1t-63.9-54.7-23.3-75.5z m20.6-191.7q0 11.2 9.4 18.4t21.8 7.3q11.7 0 18.7-7t7-18.7-7-18.8-18.7-7.2q-12.3 0-21.8 7.3t-9.4 18.7z m77.7 144.9q0 8 6.5 14.4t14.1 6.4q11.4 0 18.7-6.3t7.3-14.5q0-8-7.3-14.3t-18.7-6.3q-7.7 0-14.1 6.4t-6.5 14.2z m114 0q0 8 6.5 14.4t14.1 6.4q11.1 0 18.6-6.3t7.4-14.5q0-8-7.4-14.3t-18.6-6.3q-7.7 0-14.1 6.4t-6.5 14.2z" /></svg>