<svg height="512" width="512.0" xmlns="http://www.w3.org/2000/svg"><path d="m0 327.1q0-32.8 19.9-70t56.4-73.7q48.3-48.3 97.6-67.4t70.4 2q18.6 18.3 5.7 59.7-1.1 4-0.3 5.7t2.9 2 4.1-0.1 3.9-1l1.7-0.6q39.7-16.8 70.3-16.8t43.7 17.4q12.8 18 0 50.8-0.6 3.8-1.3 5.8t1.3 3.5 3.4 2.2 4.9 1.7q16.3 5.1 29.4 13.4t22.9 23.3 9.7 33.3q0 19.4-10.6 39.8t-31.1 39.2-48.2 33.6-64.6 23.7-77.2 8.8-78.6-9.5-68.7-26.6-49-43.2-18.6-57z m51.7 20.3q2.6 27.5 25.4 48.6t59.6 31.1 78.4 6q63.8-6.5 105.6-40.4t37.9-75.6q-2.6-27.4-25.5-48.5t-59.5-31.2-78.5-6q-63.7 6.6-105.5 40.5t-37.9 75.5z m66.4 25.6q-11.5-26.4 1.9-53.6 13.4-26.5 43.3-39.7t60.1-5.4q31.7 8.3 45.3 34.1t0.7 54.5q-12.8 29.1-45.1 42.8t-64 3.4q-30.6-9.7-42.2-36.1z m23.3-7.7q2.6 9.8 12.3 14.4t21.3 0.7 17.9-13.5q6-9.8 3.1-19.8t-12.9-14.2q-9.7-4-20.8-0.3t-17.2 13.1q-6.2 9.7-3.7 19.6z m60-40.4q-4.8 8.8 3.7 12.8 4 1.4 8.3-0.1t6.3-5.3q2.3-3.7 1-7.6t-5-5.3q-4-1.4-8.1 0.2t-6.2 5.3z m131.5-250q-1.8-8 2.7-14.8t12.4-8.4q35.1-7.4 69.7 3.3t59.4 38.4q24.9 27.5 32.2 63.6t-3.9 69q-2.5 7.7-9.7 11.4t-14.8 1.2-11.5-9.7-1.4-14.9q8-23.4 2.9-49.1t-22.9-45.2q-17.7-19.7-42.3-27.3t-49.4-2.4q-8 1.7-14.9-2.7t-8.5-12.4z m16.8 64.8q-1.4-6.8 2.3-12.7t10.6-7.3q17.1-3.7 34 1.6t28.8 18.7 15.6 31-1.9 33.6q-2.2 6.5-8.4 9.7t-12.7 1.1q-6.6-2.3-9.7-8.4t-1.2-12.7q5.8-18-6.8-31.7t-30.6-10q-6.8 1.4-12.8-2.3t-7.2-10.6z" /></svg>