<svg height="512" width="475.4" xmlns="http://www.w3.org/2000/svg"><path d="m6 438.9q0-15.2 10.9-26l194.5-194.6q11.2 28 32.7 49.6t49.6 32.7l-194.8 194.8q-10.6 10.6-25.8 10.6-14.8 0-26-10.6l-30.2-30.8q-10.9-10.3-10.9-25.7z m67.1-18.3q0 7.4 5.5 12.8t12.8 5.5 12.9-5.5 5.4-12.8-5.4-12.9-12.9-5.4-12.8 5.4-5.5 12.9z m146.3-256q0-52.9 37.6-90.5t90.4-37.5q16.6 0 34.7 4.7t30.8 13.3q4.5 3.1 4.5 8t-4.5 8l-83.8 48.3v64l55.2 30.5q1.4-0.8 22.6-13.8t38.7-23.2 20.1-10.1q4.3 0 6.7 2.8t2.5 7.2q0 11.1-6.6 30.3-13.4 38.3-47 62.1t-73.9 23.9q-52.8 0-90.4-37.6t-37.6-90.4z" /></svg>