<svg height="512" width="438.9" xmlns="http://www.w3.org/2000/svg"><path d="m0 393.1v-274.2q0-34 24.1-58.2t58.2-24.1h274.3q34 0 58.1 24.1t24.2 58.2v274.2q0 34-24.2 58.2t-58.1 24.1h-274.3q-34 0-58.2-24.1t-24.1-58.2z m64.9-67.4q2.2 3.7 6.8 3.7h52.9q8.8 0 14.3-10.3l56.8-100.5q0-0.3-36-63.5-6-9.7-14.8-9.7h-52.6q-5.2 0-7.4 3.2-2 3.4 0.2 8.3l35.8 61.7v0.3l-56 98.8q-2.6 4 0 8z m117.4-34.3q0.3 0.6 74.8 137.5 5.8 10 14.9 10h52.6q5.1 0 7.1-3.5 2.3-3.7-0.3-8l-74.3-136v-0.3l116.9-206.5q2.3-4.6 0-8-2-3.5-6.9-3.5h-53.4q-8.6 0-14 10z" /></svg>