<svg height="512" width="512.0" xmlns="http://www.w3.org/2000/svg"><path d="m0 256q0-27.4 0.3-42.9t2.4-39 6.4-42.1q4.6-20.9 19.8-35.1t35.4-16.6q63.4-7.2 191.7-7.2t191.7 7.2q20.3 2.3 35.6 16.6t19.8 35.1q4 18.6 6.2 42.1t2.4 39 0.3 42.9-0.3 42.9-2.4 39-6.4 42.1q-4.6 20.9-19.8 35.1t-35.4 16.6q-63.4 7.2-191.7 7.2t-191.7-7.2q-20.3-2.3-35.6-16.6t-19.8-35.1q-4-18.6-6.2-42.1t-2.4-39-0.3-42.9z m182.9 91.4q0 10.9 9.4 16 4.6 2.3 8.8 2.3 5.8 0 9.8-2.8l146.2-91.5q8.6-4.8 8.6-15.4t-8.6-15.4l-146.2-91.5q-8.9-5.7-18.6-0.5-9.4 5.1-9.4 16v182.8z" /></svg>