<svg height="512" width="471.0" xmlns="http://www.w3.org/2000/svg"><path d="m0 332.3v-137.7q0-13.4 9.7-23.1t22.6-9.7q13.3 0 23 9.7t9.7 23.1v137.7q0 13.3-9.7 23t-23 9.8-23.1-9.8-9.7-23z m88.6 51.2v-214h293.9v214q0 13.3-9.8 23t-23 9.8h-229.4q-13.3 0-23-9.8t-9.7-23z m0-238.1h293.9q0-58.9-43.6-96.8t-103.4-37.8-103.4 37.8-43.5 96.8z m51.7-161.8q0-4.1 3.6-4.1 1.5 0 3.6 1l25 45.6-7.6 4.1q-24.6-45-24.6-46.6z m7.7 413.2q0-13.8 9.7-23t24.1-9.3q12.8 0 22.5 9.8t9.7 22.5v103.4q0 14.4-9.7 23.6t-24.1 9.2q-13.3 0-23-9.7t-9.7-23.1v-103.4z m2.5-317.4q0-8.2 6.2-14.4t14.3-6.1 14.3 6.1 6.2 14.4q0 8.7-6.2 14.8t-14.8 6.2q-8.2 0-14.3-6.2t-6.2-14.3z m106.5 317.4q0-13.8 10.3-23t24-9.3q13.3 0 23.1 9.8t9.7 23v103.4q0 14.4-9.7 23.6t-24.1 9.2q-13.3 0-23-9.7t-9.8-23.1v-103.4z m23.1-317.4q0-8.2 6.1-14.4t14.3-6.1 14.4 6.1 6.1 14.4q0 8.7-6.1 14.8t-14.4 6.2-14.3-6.2-6.1-14.3z m18.4-53.3q1-1.5 7.2-14.8t12.3-22.6 9.7-9.7 3.6 4.6v1l-24.6 45.6z m108 306.2v-137.2q0-13.3 9.8-23.1t23-9.7 23 9.7 9.8 23.1v137.2q0 13.3-9.8 23t-23 9.8-23-9.8-9.3-23z" /></svg>