<svg height="512" width="366.6" xmlns="http://www.w3.org/2000/svg"><path d="m0 365.6q0-32.3 14.3-50.2 11.8-15.9 37.9-23-8.2-20.5-8.2-30.3 0-16.9 18-35.8 18.9-17.9 35.3-17.9 8.7 0 20.5 4.6-24.6-70.2-35.4-106.5-12.3-41.5-12.3-58.9 0-24.6 12.3-38.4 12.8-14.3 34.3-14.3 36.9 0 88.6 151l8.7 25.1q3.1-7.7 6.2-16.9 51.2-149.5 92.1-149.5 20.5 0 32.3 13.8 12.3 13.9 12.3 35.9 0 14.3-12.3 57.8-10.8 37.4-33.8 102.4 29.2 7.2 42 27.7 13.8 22 13.8 68.1 0 91.1-54.3 149-55.3 57.8-140.3 57.8-33.8 0-65-12.3-30.2-10.7-54.8-33.8-26.1-24.5-38.9-50.6-13.3-27.7-13.3-54.8z m33.3-2.6q0 12.8 7.1 30.2 6.7 16.4 20 34.3 21 27.2 49.7 41.5 29.2 14.3 66 14.3 66.1 0 111.1-49.6 44.6-49.2 44.6-124.5 0-23.5-3.1-36.3-2.6-11.3-9.7-17.4-13.8-11.8-54.3-20.5-40.4-9.2-86-9.2-11.3 0-14.3 3.1-3.6 1.5-3.6 10.2 0 21 23.5 29.7 25.6 10.8 84.5 10.8h14.3q8.2 0 11.8 5.6 4.1 4.1 5.6 15.9-8.7 8.7-28.1 15.8-18.4 6.7-27.2 13.3-20.4 14.9-32.7 35.4-11.8 19.9-11.8 37.9 0 10.7 5.1 26.1 5.7 16.9 5.7 22v3.1l-2.1 7.6q-22.5-1.5-32.8-21-8.7-16.3-9.7-41.9-1.5 0.5-6.1 0.5h-5.7q0.5 2.5 0.5 6.1 0 15.4-11.7 26.1t-27.7 10.8q-24 0-48.6-23.1-24.6-23.5-24.6-46 0-4.1 1.5-8.2 0.6-3.6 8.2-11.3 12.8 15.9 17.4 22 21.5 30.2 39 30.2 4.6 0 8.7-3 3-3.1 3-5.2 0-4.1-6.1-14.8-4.1-7.7-19-27.1-14.3-18.5-23-25.6-7.7-7.2-11.3-7.2-9.7 0-18.9 11.2t-9.2 28.2z m46.1-97.8q0 6.7 8.2 23.1 7.1 13.8 23 34.8 15.9 20.5 28.7 31.7 12.3 10.3 18.4 10.3 3.6 0 7.2-3.6 3.5-4.1 3.5-8.2 0-6.2-9.2-29.7-10.7-26.1-23.5-47.1-11.3-17.9-20-25.1-8.2-7.7-15.9-7.7-5.6 0-12.8 7.7-7.6 7.7-7.6 13.8z m23-221.2q0 17.4 12.3 54.8 11.3 36.4 33.8 97.3 5.1-3.1 14.3-3.1 0.5 0 3.6 0.5t5.6 0.5q2.1 0 13.3 1.1l-35.3-102.4q-14.3-41-22.5-53.3-6.7-10.7-13.3-10.7-4.6 0-7.7 4.1-3.6 4.6-3.6 11.7z m85 261.2q4.6 11.7 9.7 25.6 10.3-11.8 20.5-19.5-2.6-0.5-7.7-1.5t-7.7-1.6q-10.2-2-14.8-3.6z m53.8-104.5l34.3 6.1q23-63.4 35.3-101.8 12.8-41.5 12.8-49.2 0-8.2-3.6-12.8-2-3.6-7.7-3.6-7.1 0-15.9 13.8-9.7 14.9-22 51.8z" /></svg>