<svg height="512" width="576.5" xmlns="http://www.w3.org/2000/svg"><path d="m1 223.2q5.1-81.4 38.4-136.2 25.1-40.9 49.2-58.3t71.1-25.6q15.4-2.6 29.2-3.1t26.1 2 22.6 6.2 19.9 10.2 17.4 13.3 15.4 16.4 13.8 17.9 12.3 20 10.8 20.5 10.7 21q3.6 7.2 7.2 15.3t7.7 18.5 6.6 15.9q4.1-24.6 29.2-96.3t34.8-74.2q46.6-10.8 74.3 0 2 1 4.6 4.1t3.6 4q-0.6 9.3-3.1 20t-4.6 16.9-6.7 19-6.1 15.8l-81.9 224.8q-3.6 17.4 9.7 46.1t34.8 47.6 37.9 11.3q5.1-2.6 9.2-10.8t7.2-10.7q9.2-7.7 36.3-8.2t34.3 9.7q8.2 14.8 5.7 32.2t-15.9 33.8-30.7 29.2-37.9 19-37.9 2.5q-14.9-3-27.7-9.7t-20.9-13.3-17.5-19-14.3-19.9-13.8-23.1-13.3-22.5q-2.1 1-3.1 2.1-12.3 29.6-41.5 54.7t-65 38.4-76.8 10.3-74.2-27.7q-43.6-31.7-67.1-104.4t-19-153.6z m78.4-6.6q-6.7 55.3 4.6 108t37.3 72.2q14.4 10.8 28.7 15.9t26.6 6.1 25.1-5.1 22-10.8 21-17.9 18.5-20.5 16.9-23.5 14.3-22 12.8-21.5q2.6-4.6 4.1-7.2-19.5-82.4-32.8-114.2-37.3-88.5-103.4-79.3-28.7 4.1-41.5 11.2t-25.6 25.1q-21 28.2-27.6 83.5z" /></svg>