<svg height="512" width="510.0" xmlns="http://www.w3.org/2000/svg"><path d="m0 350.7v-188.9q0-66.6 47.6-114.2t114.2-47.6h113.1q33.3 4.1 71.2 29.2t53.8 58.9q0.5 1 2.5 5.1t2.6 5.1 2 5.1 2.1 6.7 2 8.2 2.1 11.2 2 14.9q4.6 35.8 13.3 43.5 7.2 6.7 36.4 7.7t33.3 4.1l7.1 5.6 4.1 8.7 1.6 7.2-1 131.1q-0.6 66.5-47.7 114.1t-113.6 47.6h-185.9q-66.5 0-114.2-47.6t-47.6-114.1z m132.6-2.5q0 12.8 9.2 22t22 9.2h182.3q12.8 0 22-9.2t9.2-22-9.2-22.1-22-9.2h-182.3q-12.8 0-22 9.2t-9.2 22.1z m0-185.4q0 12.8 9.2 22t22 9.2h89.6q12.8 0 22.1-9.2t9.2-22-9.2-22-22.1-9.2h-89.6q-12.8 0-22 9.2t-9.2 22z" /></svg>