<svg height="512" width="573.4" xmlns="http://www.w3.org/2000/svg"><path d="m0 74.8q0-10.3 6.7-16.9t16.9-6.7h120.3q8.2 0 14.8 5.1t8.7 13.3l12.3 50.2h345.1l3.6-10.7q5.1-16.4 22-16.4 4.6 0 6.7 1 7.6 2 12.2 8.2t4.7 13.8q0 2.6-1.1 6.7l-60.4 201.2q-2 7.7-8.2 12.3t-13.8 4.6h-286.2q-8.2 0-14.9-5.1t-8.7-12.8l-55.3-224.3h-101.8q-9.8 0-16.9-6.7t-7.2-16.3z m190.5 91.1l31.7 127h250.4l1-4.6 36.9-122.4h-320z m21.5 247.8q0-19.5 14.3-33.3t33.8-13.8 33.3 13.8 13.8 33.3-13.8 33.3-33.3 13.8-33.8-13.8-14.3-33.3z m33.2-207.9h85v47.1h-74.7z m125.5 47.1l0.5-47.1h82.9l-12.2 47.1h-71.2z m18.9 160.8q0-19.5 14.4-33.3t33.8-13.8 33.2 13.8 13.9 33.3-13.9 33.3-33.2 13.8-33.8-13.8-14.4-33.3z" /></svg>