<svg height="512" width="512.0" xmlns="http://www.w3.org/2000/svg"><path d="m0 256q0-50.2 19.5-97.8 18.9-46.1 56.3-83.4 73.7-74.8 179.7-74.8 107 0 182.8 74.8 36.3 36.3 54.8 82.9 18.9 45.6 18.9 98.3 0 53.2-18.4 98.3-18.5 45.6-54.8 81.4-37.9 36.9-85 56.8-48.1 19.5-98.3 19.5-49.7 0-97.3-19.5-45.6-18.9-82.9-56.3t-56.4-82.9-18.9-97.3z m46.1 0q0 40.4 16.4 79.4 15.8 38.4 46.6 68.1 30.7 30.7 68.1 45.5 36.8 15.9 79.3 15.9 41.5 0 79.9-15.9 37.9-15.8 69.6-46.1 59.9-58.3 59.9-146.9 0-43.5-15.9-80.4-15.3-38.9-45-67.6-61.4-61.9-148.5-61.9-87.5 0-147.4 61.4-30.3 30.2-46.6 68.6-16.4 38.9-16.4 79.9z m64 0q0-36.4 21.5-57.9 21-21.5 53.7-21.5 47.1 0 68.1 36.9l-34.3 17.9q-5.6-12.3-13.8-15.8-7.7-4.7-14.8-4.7-34.3 0-34.3 45.1 0 20 8.7 32.8 9.2 12.3 25.6 12.3 22.5 0 31.7-21.5l31.8 15.8q-10.8 18.5-28.2 29.2-17.9 10.8-39.4 10.8-34.3 0-55.3-21t-21-58.4z m147.9 0q0-36.4 21.6-57.9t53.7-21.5q47.6 0 67.6 36.9l-33.8 17.9q-5.6-11.8-13.3-15.8-8.7-4.7-15.4-4.7-34.3 0-34.3 45.1 0 21 8.7 32.8 8.7 12.3 25.6 12.3 22 0 31.3-21.5l32.2 15.8q-11.2 19-28.7 29.2-17.9 10.8-38.4 10.8-35.3 0-55.8-21-21-21-21-58.4z" /></svg>