<svg height="512" width="511.0" xmlns="http://www.w3.org/2000/svg"><path d="m0 267.8q0-38.4 11.8-79.9t31.7-74.2q31.8-53.3 93.7-84t127.5-30.7q66.6 0 128 42t93.7 103.4q25.6 44 25.6 109.6 0 76.8-36.4 136.1t-98.3 90.7-138.2 30.7q10.2-18.4 31.2-56.3t37.9-67.1 33.3-55.3l0.5-1q1.6-2.6 6.2-9.8t6.6-10.2 5.1-8.7 5.2-10.7 3-10.8q3.1-12.3 3.1-24.6 0-40.9-24.6-72.7l140.8-41.5q-145.9 0-219.1 0.6-3.6-0.6-11.3-0.6-50.7 0-85 37.9t-28.6 88.6q-1.1-4.6-1.1-14.3 0-22.6 7.7-39.4l-104.4-103 101.3 174.6q9.8 36.9 41 60.4t69.1 23.6q8.7 0 16.9-1.5l-33.8 141.3q-58.9 0-114.1-36.4t-89.6-90.1q-33.8-52.2-33.8-117.7z m159.7-9.8q0 39.5 28.2 67.6t67.1 28.2 67-28.2 28.2-67.6q0-38.9-27.6-67t-67.1-28.2-67.1 28.2-27.6 67z" /></svg>