<svg height="512" width="512.0" xmlns="http://www.w3.org/2000/svg"><path d="m0 256q0-69.6 34.3-128.5t93.2-93.2 128.5-34.3 128.5 34.3 93.2 93.2 34.3 128.5-34.3 128.5-93.2 93.2-128.5 34.3-128.5-34.3-93.2-93.2-34.3-128.5z m42.5 0q0 79.9 53.8 140.8 24.5-48.1 77.8-91.6t103.9-54.8q-7.7-18-14.8-32.3-88.1 28.2-190.5 28.2-20 0-29.7-0.5 0 2-0.5 5.1t-0.5 5.1z m6.7-52.7q11.2 1 33.2 1 85.5 0 162.3-23.1-38.9-69.1-85.5-115.2-40.4 20.5-69.6 56.9t-41 80.4z m76.2 221.1q57.9 45.1 130.6 45.1 37.9 0 75.3-14.3-10.3-87.6-40-169.5-47.1 10.2-95.2 51.7t-71.2 87z m78.4-374.7q45 46.6 83.4 116.2 69.7-29.2 105-74.3-59.4-49.1-136.2-49.1-26.1 0-52.2 7.2z m101.9 152.5q7.6 16.4 17.4 41.5 37.9-3.6 82.4-3.6 31.7 0 63 1.6-4.1-69.7-50.2-123.9-33.3 49.6-112.6 84.4z m30.2 77.4q26.1 75.7 35.3 155.6 40.4-26.1 66-67.1t30.8-88.5q-37.4-2.6-68.1-2.6-28.2 0-64 2.6z" /></svg>