<svg height="512" width="507.9" xmlns="http://www.w3.org/2000/svg"><path d="m0 256.5q0-110.1 72.2-182.3t182.3-72.2 182.2 72.2 72.2 182.3q0 93.2-52.7 160.3t-143.4 87.5q-4.6-8.7-17.4-26.6t-17.9-28.7q32.8 13.3 44 13.3 8.2 0 8.2-25.6 0-47.6-8.7-47.6-12.8 0-49.6 28.2 0-7.2-7.7-6.2h-2.6q-13.3-35.3-13.3-62.9 0-7.7 1.5-15.4 47.1 23 75.8 23 15.9 0 48.1-9.2t32.3-19.9q0-6.7-8.7-6.7-13.3 0-38.4 3.6t-38.4 3.6q-13.8 0-30.7-7.2t-16.9-19.5q0-2.5 1-4.1t2.6-1.5 3 0 4.1 0.5 4.6 0.5q4.7 0 13.4 1.6t12.8 1.5q15.8 0 65-18.9t49.1-29.2q0-6.2-9.7-8.7t-17.9-2.6q-7.2 0-21.5 4.1t-31.3 9.2-22.5 7.2q2.1-10.2 2.1-16.4 0-24.1-12.8-56.3t-29.7-47.6q-13.9-12.3-36.9-16.9-14.3-18.5-45-33.8t-54.3-15.4q-4.6 0-14.4 2.1t-12.2 2.5l-11.3 15.9 3.1 0.5q3.5 0 11.2-1t11.3-1q17.4 0 39.9 7.1-14.3 7.2-25.1 9.8-1 0.5-6.6 1.5t-9.7 1.5-7.2 3.1-3.6 6.2q28.7-3.1 43-3.1 19.5 0 30.7 3.6-39.4 4.6-60.9 27.1t-21.5 62q0 13.8 2 25.6 9.8 61.4 37.4 183.3 16.9 78.8 19 87l0.5 2q-81.9-25.6-128.5-95.2t-46.6-157.7z m144.9-63.5q0 3.1 1.5 6.2-0.5-8.2 9.2-14.4t18.5-6.1q4.1 0 10.2 2.5-5.1-6.6-14.8-6.6-8.7 0-16.9 5.1t-8.2 13.8z m16.9 38.4q0-6.6 5.6-12.3t12.3-5.6 12.3 5.6 5.6 12.3-5.6 12.3-12.3 5.6-12.3-5.6-5.6-12.3z m20.5-5.6q0 4.1 4.6 4.1t4.6-4.1q0-4.6-4.6-4.6t-4.6 4.6z m86-44.6q4.1-6.6 18.9-6.6 6.7 0 16.9 5.1-5.1-11.3-17.9-11.3-15.9 0-17.9 12.8z m11.8 40q0-6.2 4.6-10.8t10.2-4.6q6.2 0 10.8 4.6t4.6 10.8q0 5.6-4.6 10.2t-10.8 4.6q-5.6 0-10.2-4.6t-4.6-10.2z m17.9-5.1q0 4.1 3.6 4.1 4.1 0 4.1-4.1 0-3.6-4.1-3.6-3.6 0-3.6 3.6z" /></svg>