<svg height="512" width="714.2" xmlns="http://www.w3.org/2000/svg"><path d="m0 289.3q0-15.9 2.6-27.7t11.2-24 24.1-20 43-12.3 66-5.1q45.1 0 75.8 6.6 20 4.1 29.7 9.3v82.4h-150q0 10.7 1 17.4t4.6 15.9 13.9 13.8 25.6 4.6q43.5 0 43.5-31.2h61.9v45.5q-13.8 6.7-28.6 9.8-34.9 7.7-76.8 7.7-47.1 0-77.4-6.7t-44.5-20-19.5-28.6-5.1-38.4z m101.4-17.4h91.1q0-9.2-1-13.9t-4.6-12.2-14.4-11.3-27.6-3.6q-15.9 0-26.1 4.1t-13.8 11.8-4.6 12.3-1.1 12.8z m150 93.2v-45.6h39.9q-0.5 26.1-37.9 44.5-1 1.1-2 1.1z m0 0q1 0 2-1.1 37.4-18.4 37.9-44.5h-39.9v-20h41.5q0.5-6.1 0.5-11.8 0-23-6.7-38.9-8.2-19.9-35.3-31.7v-93.7h54.8v103.9h1q15.9-22.5 45.1-22.5 22 0 35.3 13.3-20.5 14.9-20.5 52.2 0 53.3 38.9 62.5-0.5 15.9-3.1 27.6t-8.1 24.1-16.9 19-27.7 6.6q-32.8 0-46.6-25.6h-0.5v21.5h-52.7v-40.4z m0-65.6v-82.4q27.1 11.8 35.3 31.7 6.7 15.9 6.7 38.9 0 5.7-0.5 11.8h-41.5z m54.8 5.7q0 39.4 4.6 55.2t18.4 15.9q14.4 0 19-15.9t4.6-55.2v-2.6q0-17.9-0.5-26.6t-2.6-19-7.2-14.8-13.8-4.1q-8.2 0-13.3 4.6t-6.7 15.3-2.5 19.5-0.5 27.7z m60.9-34.9q0-37.3 20.5-52.2 8.7 9.2 13.3 27.1t5.1 28.7 0 32.8v26.6q-38.9-9.2-38.9-62.5z m4.1-81.4q0-35.3 20.5-48.1 17.4-13.3 51.7-13.3 2 0 25.1 1.5l54.8 111.6v52.3q0 7.1 1 19.9t1 17.4h-51.2l-2.5-26.6h-1.1q-16.9 29.7-51.2 29.7-9.2 0-13.3-0.5v-26.6q0-22-0.5-32.8t-5.1-28.7-13.3-27.1q19.4-14.8 69.1-14.8h12.3v-15.9q0-14.9-4.6-22t-18.5-7.2q-13.3 0-16.9 8.2t-3.5 23h-54.8z m49.7 78.9q0 31.7 21 31.7 6.6 0 11.7-2.5t8.2-7.2 5.1-9.2 2.6-12.3 1-12.3 0-12.3-0.5-10.2q-2 0-8.7 0.5t-8.7 0.5l-7.2 1t-7.1 1.6-5.7 2.5-5.1 4.1-3.6 5.6-2.5 8.2-0.5 10.3z m34.3-165.4h78.8l51.2 118.8 55.8-118.8h73.2l-96.7 183.8v97.3h-72.2v-97.3l-22-45.6v-46.6q0-28.1-11.3-44.5t-44-21z m13.3 26.6q32.7 4.6 44 21t11.3 44.6v46.6z" /></svg>