<svg height="512" width="480.8" xmlns="http://www.w3.org/2000/svg"><path d="m0 433.7q0 32.2 31.7 55.3t76.8 23 77.4-23 32.2-55.3q0-32.8-32.2-55.8t-77.4-23.1q-0.5 0-1.5 0.5t-1.5 0.5q-12.3-11.2-12.3-24.5t12.3-27.7q36.3-2 61.4-28.1t25.1-62q0-14.3-3.6-25.6 14.4-2.6 22.5-7.2v-58.8q-24.5 16.3-55.8 16.3h-3.5q-23.6-15.8-51.8-15.8-38.4 0-65.5 26.6t-27.1 64.5q0 24.1 12.3 44.5t32.7 32.8q-14.3 18.4-14.3 37.9 0 18.4 13.3 38.4-23.6 10.8-37.4 28.2t-13.8 38.4z m62-221.2q0-16.9 11.2-29.2t26.1-12.3q15.4 0 26.1 12.3t10.8 29.2-10.8 29.2-26.1 12.3q-14.8 0-26.1-12.3t-11.2-29.2z m1.5 221.2q0-13.9 13.3-23.6t32.3-9.7 32.2 9.7 13.3 23.6q0 13.3-13.3 23t-32.2 9.7-32.3-9.7-13.3-23z m169.5-392.2q0-17.4 12.2-29.7t29.7-12.3 29.7 12.3 12.3 29.7-12.3 29.7-29.7 12.3-29.7-12.3-12.2-29.7z m9.7 331.2v-245.2h68.6v245.2h-68.6z m92.7-193h28.1v145.9q2.1 15.4 10.3 26.7t17.9 16.3 19.4 8.2 15.9 3.6h10.2q13.9 0 24.6-4.1 11.8-4.1 15.4-8.2l3.6-4.6 1-50.7q-21.5 6.7-33.3 6.7-2.5 0-4.6-0.5-11.8-1.6-13.8-8.2l-2.1-6.7q0-1.5-0.5-2v-121.9h46.6v-52.2h-46.6v-47.6h-63v47.6h-28.1v52.2z" /></svg>