<svg height="512" width="357.9" xmlns="http://www.w3.org/2000/svg"><path d="m0 102.9h357.9l-33.8 363.5-145.4 41.5-145.4-41.5z m33.3-30.7v-68.1h23v22.5h20.5v-22.5h22.5v68.1h-22.5v-22.5h-20.5v22.5h-23z m33.3 105l12.2 136.1 0.6-1h153.6l-5.2 57.9-49.1 13.8-49.7-14.3-3-34.9h-45.1l6.1 69.7 91.7 26.1 91.6-26.1 12.8-136.7h-163.3l-4.1-45.6h171.5l4.1-45h-224.7z m43-150.1v-23h62.4v23h-19.9v45.1h-22.6v-45.1h-19.9z m72.2 45.1v-68.1h24l13.8 23.5 14.4-23.5h24v68.1h-22v-34.8l-16.4 25.6v-0.5l-15.3-24.1v33.8h-22.5z m88 0v-68.1h22.6v45.1h31.7v23h-54.3z" /></svg>