<svg height="512" width="658.4" xmlns="http://www.w3.org/2000/svg"><path d="m0 174.6q89.1-16.9 106.5-36.4 13.8-15.3 23-46.6 9.3 11.8 11.8 25.1t0.5 20.5l-2.5 6.7q-3.1 6.6-5.7 10.7t-4.1 7.2-5.1 5.6-5.1 4.6-8.2 5.7-10.7 7.1q-18 13.9-17.5 32.3t15.9 28.1q13.3 8.2 26.1-3t27.2-40q6.1-12.8 9.7-33.8t10.2-37.3 24.1-30.2q10.2-8.2 23.5-9.8t25.6-0.5 26.7 0 30.7-12.3 34.3-33.2q2.6-3.1 7.2-8.2t19.4-14.9 30.2-14.3 37.9 0.5 44 23q-24.5-10.7-46-10.7t-34.8 7.7-22.6 16.9-13.3 16.9l-3.6 7.6q-7.7 19-14.8 31.8t-12.3 19.9-12.8 11.8-12.3 6.2-16.4 4.6-19.4 5.1q-22.1 6.6-25.6 27.6-3.1 18.5 11.2 27.2 16.4 9.2 42-7.2 19-12.3 30.7-25.6t15.9-22.5 14.3-20.5 26.7-18.9q22-10.8 41.9-14.9t42.5-4.1 34.3-2q100.9-16.4 126-58.4 24.6-40.5 25.1-66.6 8.7 29.7 6.1 53.3t-13.8 41.5-22.5 29.1-21 17.4l-9.2 5.7q-39.5 20.5-66.1 28.7t-43 10.7-31.7 11.3q-52.8 28.1-26.7 79.3 10.8 21 31.8 23.1t39.9-15.4q3.1-2.6 7.2-7.2t11.8-19.9 8.2-31.3q10.2 28.7 8.2 49.7t-10.8 32.8l-7.7 11.2q-18.4 19.5-31.2 27.7t-32.3 9.7-46-7.7q-44.1-10.7-61.5-10.7t-31.7 9.2q-14.4 8.2-22 22t-1.1 25.1q7.2 12.8 17.4 14.3t32.8-11.2q20-11.8 33.8-15.4t34.8-4.6q44.6-1 71.2 19.5 18.9 12.2 37.9 29.1-20.5-12.2-40.5-15.8t-33.8 0.5-25.1 9.2-16.3 11.3l-5.2 5.1q-23 26.1-38.9 36.8t-27.1 10.8-30.2-7.7q-5.1-2-20.5-8.7t-21.5-8.2v-56.3q0-61.9-47.1-95.2-30.2-20.5-68.6-20.5-38.9 0-68.6 20-10.3-14.9-26.1-16.9v-38.4q0-15.9-11.3-27.2t-27.1-11.2h-9.2z m65 288.8v-83q0-33.3 9.8-50.7 20.4-36.3 68.6-36.3 35.3 0 56.8 22.5t21.5 56.3v69.1h-103.4v34.3q0 24.6 25.6 24.6 23 0 25.6-25.1h52.2q0 31.8-21 53.8-22 22-56.8 22-48.2 0-68.6-36.3-9.8-17.4-9.8-50.7z m52.8-62h51.2v-28.7q0-28.6-25.6-28.6t-25.6 28.6v28.7z m134.1 101.9q5.6-18.4 5.6-36.4 0-5.6-1.5-10.2 12.3 2.1 17.4 2.6 31.8 3 43.5 23.5 1.1 1.6 2.6 4.6t3.6 11.8-0.5 15.9q-15.9-12.3-33.8-15.4t-27.7 0.5z" /></svg>