<svg height="512" width="680.4" xmlns="http://www.w3.org/2000/svg"><path d="m0 256q0-84 59.4-143.4t143.4-59.4q63.4 0 112.6 32.8t75.3 92.7q7.6 18.4 66 153.6 10.8 24.6 19.5 37.9t25 23 41 11.3h3.6q34.3 0 56.8-18.5 23.6-19.4 24.1-49.1 0-13.8-4.1-23t-15.4-16.4-21-11.3-30.2-10.7q-64-21-92.1-46.1t-28.2-69.7q0-46.5 29.7-74.7t80.4-28.2q65 0 97.8 58.9l-43 22q-23.1-31.7-57.4-31.7-23.5 0-39.4 14.8t-15.9 37.4q0 6.7 1.1 12.8t4.6 10.8 6.1 8.2 9.2 7.6 10.3 6.2 12.8 5.6 13.8 5.1 16.4 5.1 16.9 5.2q55.3 18.4 79.3 43t24.1 71.7q0 51.2-38.9 84.9-38.4 33.3-95.2 33.3h-1.6q-51.2 0-82.4-24t-52.8-72.2l-7.1-16.9-65-147.5q-16.9-39.4-53.8-63.5t-81.4-24q-60.9 0-104.5 43.5t-43.5 104.4 43.5 104.5 104.5 43.5q42 0 76.8-22t53.7-57.9l26.2 60.4q-28.2 34.9-69.2 54.8t-87.5 20q-84 0-143.4-59.4t-59.4-143.4z" /></svg>