<svg height="512" width="647.7" xmlns="http://www.w3.org/2000/svg"><path d="m0 363h12.3q-3.6-7.2-3.6-17.4 0-33.3 23.6-95.2t45-94.2q16.4-25.1 43-25.1 23.1 0 23.1 17.4 0 26.6-36.9 101.9h42q10.2-31.8 27.1-64.5 17.4-34.9 37.4-46.6t59.4-11.8q14.8 0 29.2 7.2t14.3 20.4-6.7 21.5-19.4 11.8-22.5 4.6-23.6 1h-4.6q-7.7 11.3-14.3 29.7 9.2-1.5 18.9-1.5 32.8 0 32.8 19.5 0 4.6-1.6 9.2-8.1 30.2-45 30.2-11.8 0-25.6-2.6-8.2 24.6-10.8 37.4 26.7-5.1 39.5-5.1t22 6.1 9.2 18.5q0 17.4-12.3 29.1t-27.6 15.9-32.8 4.1q-33.3 0-49.2-21-10.2-12.3-10.2-31.7 0-11.8 1.5-23.1 4.1-25.6 14.4-57.3h-42q-4.6 9.7-13.3 28.7t-12.8 28.1h-0.5l-3.6 7.2q11.2-1 17.4-1 30.2 0 30.2 20.4 0 26.2-20 37.9t-47.6 11.8q-33.3 0-43.5-20h-12.3z m275.5-39.9q0-19.5 8.1-48.7t17.5-50.7q9.7-23 18.4-37.8t22-29.2 31.2-21 41.5-7.2q25.6 0 44.6 10.3t18.9 33.2q0 19.5-10.8 35.4t-29.1 15.8q-26.7 0-26.7-16.9 0-3 2.1-9.2t2-9.7q0-6.7-11.2-6.7-8.7 0-16.9 7.2t-14.9 22.5-9.2 21-7.7 20q-16.4 43-16.4 60.9 0 14.9 14.4 14.9 12.8 0 22.5-12.8t13.3-27.2q-21.5-1-21.5-17.9 0-18.9 14.4-27.6t33.7-8.7q26.7 0 33.3 17.9 2.1 5.6 2.1 13.3 0 25.6-14.9 54.3t-35.3 44.5q-27.1 21-61.4 21-34.9 0-51.2-21-12.3-14.8-12.3-39.9z m168.4 39.9h21.5q-9.2-13.3-9.2-33.8 0-40.4 25.1-104.4 9.7-24.1 16.9-37.9t18.9-28.7 29.2-21.5 40.5-6.7q61.4 0 61.4 58.9 0 25.6-11.3 61.5-7.7 26.1-21 56.3-18.9 39.4-37.3 55.8-23.6 21-61 21-36.8 0-51.7-21h-21.5z m73.7-55.8h1.6q-3.1 17.9 11.2 17.9 11.8 0 22-19.4h-1q8.7-18.5 23.1-59.4t14.3-52.8q0-12.3-10.8-12.3-10.2 0-16.8 8.2-9.3 13.4-26.7 61-12.8 34.3-16.9 56.3z" /></svg>