<svg height="512" width="512.0" xmlns="http://www.w3.org/2000/svg"><path d="m0 256q0-69.6 34.3-128.5t93.2-93.2 128.5-34.3 128.5 34.3 93.2 93.2 34.3 128.5-34.3 128.5-93.2 93.2-128.5 34.3-128.5-34.3-93.2-93.2-34.3-128.5z m106.5 163.3q0 13.3 13.3 13.3h90.1q14.4 0 14.4-13.3v-24.5q0-13.4-14.4-13.4h-14.8v-235.5h14.8q14.4 0 14.4-13.3v-24.6q0-13.3-14.4-13.3h-90.1q-13.3 0-13.3 13.3v24.6q0 13.3 13.3 13.3h15.9v235.5h-15.9q-13.3 0-13.3 13.4v24.5z m141.8 2.1q0 12.3 12.3 12.3h30.2q11.3 0 11.3-12.3v-131.6q0-52.7 40.4-52.7 21.5 0 21.5 26.1v158.2q0 12.3 11.3 12.3h31.2q10.8 0 10.8-12.3v-170.5q0-62.5-56.3-62.5-34.3 0-62.5 32.8l-3.6-18.4q-2-11.3-12.3-11.3h-22q-12.3 0-12.3 12.8v217.1z" /></svg>