<svg height="512" width="624.6" xmlns="http://www.w3.org/2000/svg"><path d="m0 71.7q-0.5-2.6 1.5-5.1t4.6-3.1q5.7-1 15.9-3.6t14.4-3.6q0-8.7 0.5-25.6t0.5-25.1q1-6.1 6.6-6.1 7.2 0 7.2 7.2-1 30.7-1 46.5 5.6-1 17.9-3.5t17.9-4.1q9.2-2.1 28.2-5.2t28.6-5.1q205.9-35.3 406.6-36.8 3 0 5.1 2.5t1.5 5.7q0 5.6-1 16.9t-1 16.8q21.5 1.6 65.5 5.7 2.6 0 4.6 2.5t1.6 5.2q-11.8 70.1-34.9 210.9t-34.8 211.5q25.6 4.1 38.9 6.1 4.1 0.5 5.7 4.1t-0.5 6.7-5.2 3h-1.5q-6.6-1-20-3.6t-19.9-3.5q-0.5 6.1-2.6 15.8-1 4.6-5.1 5.7-0.5 0.5-2.1 0.5h-2q-152.1-38.4-307.2-59.9-51.2-1.1-76.3-1.1-28.2 0-84.5 1.1v0.5q0.5 0.5 0.5 1 0.6 3.1-2 5.6t-5.6 2.6q-5.7 0-6.2-5.6 0-2.6-1-8.2t-1.5-8.7h-6.7q-4.1 0-5.6-3.6t0.5-7.2 6.1-3.6h4.1l-3.1-27.6q-3-20.5-12.8-99.9t-18.4-129-22-97.8z m15.4 4.1q10.7 39.9 22 102.9-1.6-35.9-1.6-107-8.2 1-20.4 4.1z m34.3 46.6q0.5 98.8 10.7 217.1 1.6 20.4 5.6 55.8 0.6 4.6 1.6 9.7t2 11.3 1.6 9.7q34.3 1.5 98.3 6.6t93.2 6.7q181.2 10.2 247.3 17.9 5.6-81.9 16.8-232.9t15.4-210.5q-239.6 2.1-491.5 54.8-0.5 27.1 0 53.8z m47.1 83.4q0 34.8 22 56.9t55.8 22q35.3 0 55.8-22h1q-6.6 35.8-33.3 56.8-20.9 16.9-51.7 19.4-20.4 2.1-26.6 1.1v38.4q17.9 0 29.2-1.1 54.8-4.1 87.5-34.8 44.6-42 44.6-119.3 0-48.1-24.1-78.8t-67.6-30.7q-39.9 0-66 27.1t-26.1 64.5z m48.1-3q0-23.1 11.8-37.9t30.2-14.9h0.5q22 0 33.3 18.4t10.7 46.6q0 8.2-2.5 13.4-13.3 21.5-41.5 21.5-19.5 0-30.7-13.4t-11.3-33.7z m45.6 244.2l49.1 5.1 191 20.5q71.7 15.3 107 24.6l1.5-9.3q-28.1-4.6-84.4-12.8-127.5-17.9-264.2-28.1z m98.3-241.2q0 34.8 22 56.9t55.3 22q35.3 0 56.3-22h0.5q-6.6 35.8-32.8 56.8-21.5 16.9-52.2 19.4-20.5 2.1-26.6 1.1v38.4q17.9 0 29.2-1.1 54.8-4.1 87.5-34.8 44.6-40.9 44.6-119.3 0-48.1-24.1-78.8t-67.1-30.7q-39.9 0-66.5 27.1t-26.6 64.5z m48.1-3q0-23.1 11.8-37.9t29.7-14.9h0.5q22 0 33.3 18.4t10.7 46.6q0 8.2-2.5 13.4-13.4 21.5-41.5 21.5-19.5 0-30.7-13.4t-11.3-33.7z m182.8 268.2q14.3 2.1 22 3.1 10.2-61.4 33.3-200.7t35.3-213.5q-6.7-0.5-18.4-1.5t-21.5-2.1-18.5-1.5q-3 43.5-13.8 187.9t-15.9 223.2q0 2.6-2 4.6-0.5 0-0.5 0.5z" /></svg>