<svg height="512" width="554.5" xmlns="http://www.w3.org/2000/svg"><path d="m0 331.3q-0.5-32.3 12.8-59.9t34.3-45.6 47.1-32.3 51.7-22 47.6-13.3 34.9-6.6l13.3-1.6v63q-29.2 2-53.8 10.2t-39.9 19-27.2 23.5-17.9 24.6-9.7 22-4.1 15.9l-1 6.1q-1.6 7.7-1.6 15.4 0 11.3 3.6 21.5 6.2 17.4 19.5 29.7t30.2 23 34.8 16.9 32.8 11.3 24 6.7l9.8 1.5v52.7q-49.7-5.1-90.2-17.9t-65-29.2-42.5-34.8-26.1-36.3-12.8-31.8-5.1-23z m261.1 180.7v-461.8l72.7-50.2v472.1z m90.1-302.6h2.6q19.4 0.5 39.4 7.7 21.5 8.2 32.8 15.9l10.7 8.2-42.5 17.4 160.3 39.9v-125.4l-54.8 31.2q-20.5-22-57.8-35.3t-64.6-15.9l-26.6-2.6v58.9z" /></svg>