<svg height="512" width="396.3" xmlns="http://www.w3.org/2000/svg"><path d="m0 183.8q0-32.2 13.8-64t38.9-58.9 66.6-44 91.6-16.9q81.5 0 133.7 50.2t52.2 118.2q0 87.6-44.5 144.9t-114.7 57.4q-23.1 0-43.6-10.8t-28.6-26.1l-20.5 80.9q-2.6 9.7-6.7 20t-9.2 19.4-9.7 17.5-9.7 15.3-8.7 12.3-6.7 8.7l-3.1 4.1q-1.5 2-4.1 1.5t-3-3q0-0.5-1.1-7.2t-1.5-14.3-1.5-19.5-0.5-23 1.5-24.6 4.1-24.6q5.6-24.1 37.9-160.2-4.1-8.2-6.7-20t-2.5-19l-0.5-7.6q0-32.8 16.8-54.8t40.5-22q18.9 0 29.7 12.8t10.7 31.7q0 11.8-4.6 29.2t-11.7 39.4-10.3 36.4q-5.1 23 9.2 39.9t37.9 16.9q40.5 0 67.1-46.1t26.6-111.1q0-49.6-32.2-81.4t-90.1-31.7q-64.6 0-105 41.4t-40.5 99.4q0 34.3 19.5 57.8 6.7 7.7 4.1 16.4-1 2.6-3.1 11.8t-3 11.8q-1.1 5.6-5.2 7.6t-9.2-0.5q-30.2-12.3-45.6-42.5t-15.3-70.1z" /></svg>