<svg height="512" width="581.6" xmlns="http://www.w3.org/2000/svg"><path d="m1 169q-4.1-110.1 6.2-138.3 2-4.6 5.1-8.2t7.2-6.6 7.1-5.1 9.2-5.2 8.7-4.6q69.7 0 197.7-1t168.4-1h48.2t28.1 0.5 29.2 1.5 23 3.1 16.9 5.1q8.2 4.6 13.9 12.3t8.7 15.4 4.1 20.4 1 21.5-0.5 25.6-0.5 25.6q0 106-11.8 167.5t-49.2 109q-35.8 45.1-84.5 71.7t-98.8 32.3-102.4-5.7-95.7-37.9-77.3-68.1-49.2-93.1q-7.7-26.7-11.8-136.7z m118.8-1.1q-13.3 14.4 7.7 46.1t53.2 63.5q1.1 1 20.5 20.5t27.7 26.6 24 18.4 29.2 14.9q5.6 1.5 11.8 1.5t10.2-0.5 10.3-3.6 8.2-4.1 8.2-6.1 6.1-5.6 6.1-5.7l1.6-1.5q4.6-4.6 31.2-28.7t44-41.5 34.9-40.4 17.9-38.9q-7.7-20.5-19.5-28.7t-26.1-4.6-28.7 13.3-30.2 24.6-28.6 28.7-25.6 26.1-19 16.9q-13.8-8.2-37.4-30.7t-41.9-42-37.9-32.8-28.2-7.7q-12.8 7.7-28.7 21z" /></svg>