<svg height="512" width="512.0" xmlns="http://www.w3.org/2000/svg"><path d="m0 265.7q0-72.2 34.3-133.6t93.2-96.8 128.5-35.8 128.5 35.8 93.2 96.8 34.3 133.6q0 2.1-0.5 5.1t-0.5 5.2q-4.1-106.5-78.4-180.8t-177.6-74.2-177.7 74.2-78.3 180.8q0-2.1-0.5-5.2t-0.5-5.1z m93.7-0.5q0-69.6 47.6-119.3t114.7-49.6 114.7 49.6 47.6 119.3q0 1.6-0.5 5.1t-0.5 5.2q-4.1-66.1-50.7-112.2t-111.1-46.1-111.1 46.1-50.7 112.2q0-1.6-0.5-5.2t-0.5-5.1z m85 99.9q0-16.9 2.5-30.3t5.7-22 9.7-14.8 11.8-9.2 14.8-5.2 15.9-2 17.9-0.5 17.9 0.5 15.9 2 14.9 5.2 11.7 9.2 9.8 14.8 5.6 22 2.6 30.3q0 60.4-23.1 103.9t-54.8 43.5-54.7-43.5-23.1-103.9z m24.1-143.4q0-22.5 15.8-38.9t37.9-16.4 37.9 16.4 15.9 38.9-15.9 38.9-37.9 16.4-37.9-16.4-15.8-38.9z" /></svg>