<svg height="512" width="617.0" xmlns="http://www.w3.org/2000/svg"><path d="m0 254.5q0-31.8 25.6-54.3t57.9-22.5q31.7 0 53.7 18.4h2.6q68.6-42 171.5-42l2.6-2 35.8-136.7 123.9 18.4q0 0.5 1 0.5 0.5 0 0-0.5 1-0.5 6.2-8.2t7.6-9.7q17.5-16.4 42-16.4 25.1 0 42.5 16.9t17.4 42-17.4 43-42.5 17.9q-29.2 0-44.5-20t-15.4-49.6q-1 0.5-50.1-6.7t-56.4-8.7h-1.5q-1 1-8.7 27.7t-15.4 55.8-9.2 32.7v1.6l2.6 2q36.8 0 75.8 10.8t67 29.7l1.6 1q0.5-0.5 1-0.5t1-0.5q12.8-9.3 18.4-12.8t15.4-6.7 22-3.1q34.8 0 59.4 24.6t24.6 59.9q0 24.1-13.8 44t-35.9 30.8q0 99.8-133.1 155.1-21 9.2-28.7 11.8-16.4 5.1-46.6 9.7t-47.6 4.6q-61.4 0-118.3-17.9-1-1-36.8-19.5-48.7-26.1-78.4-59.4t-29.6-79.8h-2.6q-16.9-8.7-30.2-25.6l-4.6-6.2q-7.7-13.8-9.8-23.5t-2-26.1z m17.4 6.1q0 33.8 29.2 57.4 2.6-30.3 24.6-59.4t51.7-51.8q-19-13.3-42-13.3-25.1 0-44.5 21t-19.5 46.6z m52.2 74.8q0 27.6 15.9 53.2t41 44 52.7 30.8 53.8 17.4q38.4 7.1 74.7 7.1 63 0 119.3-20.4t94.7-63h-1.5q15.4-19.5 22-35.3t6.7-37.4q0-27.7-13.9-52.8t-35.8-43-47.1-31.2-51.2-20q-43.5-11.7-92.7-11.7-37.9 0-77.8 9.2t-76.8 27.6-60.9 51.2-23.6 73.7z m95.3-37.4q0-19 11.7-30.7t30.8-11.8 31.7 11.8 12.8 30.7q0 18.4-13.3 30.7t-31.8 12.3-30.2-12.3-11.7-30.7z m18.4 84h22.5q12.8 23 41 35.3t57.3 12.3q29.7 0 56.3-12.3t43.1-35.3h20.9q-12.8 31.7-47.6 49.1t-72.7 17.4q-36.8 0-72.7-17.9t-48.1-49.2z m172-84q0-19.5 11.8-30.7t31.2-11.3q17.4 0 29.7 12.3t12.3 29.7-12.3 30.2-29.7 12.8q-18.9 0-31.2-12.3t-12.3-31.2z m130.6-239.6q0 17.9 12.8 30.7t30.7 12.8q18.4 0 30.2-12.8t11.8-31.2q0-17.5-12.3-29.7t-29.7-12.3-30.7 12.8-13.3 29.7z m7.2 143.8q28.1 18.5 48.6 47.7t28.7 61.4q30.2-22 30.2-49.2 0-29.7-18.5-51.2t-47.6-21.5q-23 0-42 13.4z" /></svg>