<svg height="512" width="504.8" xmlns="http://www.w3.org/2000/svg"><path d="m0 139.8q0-57.9 41-98.8t98.8-41q39.9 0 74.2 21.5 18.4-3.6 41-3.6 99.8 0 170.5 70.7t70.6 170q0 25-5.6 51.7 14.3 30.2 14.3 61.9 0 57.9-40.9 98.8t-98.8 41q-34.9 0-66.1-16.4-23 4.1-44 4.1-99.4 0-170-70.6t-70.7-170.5q0-24.1 4.6-48.2-18.9-33.2-18.9-70.6z m113.2 187.4q0 21 15.3 43.5 36.4 53.2 126 53.2 25.6 0 49.6-5.6t45.1-17.4 33.8-32.8 12.8-48.6q0-29.7-15.4-50.2t-37.9-29.7-49.1-16.9-49.2-11.8-37.9-13.3-15.3-23q0-16.9 18.9-25.1t38.4-8.2q20.5 0 33.8 6.7t19.5 15.3 10.7 17.9 12.8 15.4 20.5 6.7q13.8 0 24.6-9.8t10.7-23.5-7.7-27.7q-15.3-28.1-48.6-40.9t-70.6-12.8q-23.6 0-45.6 4.6t-42.5 14.8-33.3 29.2-12.8 44.6q0 33.8 20.5 54.7t49.7 29.2 58.8 14.9 50.2 17.4 20.5 30.2q0 14.8-11.8 25.1t-26.1 13.8-29.2 3.6q-19.4 0-33.3-5.6t-19.9-13.9-11.8-17.9-9.2-17.9-11.8-13.8-18.9-5.7q-14.4 0-25.1 8.7t-10.8 23.1z" /></svg>