<svg height="512" width="512.0" xmlns="http://www.w3.org/2000/svg"><path d="m0 121.9q0-12.8 8.2-23.6t21-13.8l100.8-24.1q-32.2 36.9-32.2 86 0 94.8 129.5 144.9 14.4 5.7 27.7 12.8t28.1 17.4 23.6 24.1 9.2 28.7q0 22-17.9 34.3t-41 12.3q-29.7 0-61.9-11.8t-53.8-31.2l-40.4 91.6q28.6 15.9 73.7 31.2-5.1 1.1-16.4 4.6t-20 5.2-16.3 2q-12.8 0-23.6-8.2t-13.8-21l-84-351.7q-1-6.2-1-9.2z m214.5 23.5q0-19.4 17.9-30.2t39-10.8q25 0 56.3 9.3t45 24l31.3-87q-46.1-24.6-95.3-32.3 1.1 0 23.1-6.1t36.8-9.2 22.1-3.1q12.8 0 23.5 8.2t13.8 21l84 351.7q1 6.2 1 9.2 0 12.8-8.2 23.6t-21 13.8l-74.2 17.4q24.1-35.8 24.1-77.8 0-56.8-36.4-93.7t-94.7-56.3q-87.6-29.7-87.6-71.7z" /></svg>