<svg height="512" width="512.0" xmlns="http://www.w3.org/2000/svg"><path d="m0 290.3v-68.6t1.5-30.2 3.6-31.8 7.2-27.1 12.3-28.7 18.4-24 26.1-24.6q74.8-56.3 182.3-56.3h8.2v397.8h63.5v-106.5q3.6 5.6 19.9 32.8t26.2 40.9q14.8 20.5 32.7 27.2t47.1 6.6h18.5v-60.4q-23.1 0-32.3-3.6t-21.5-21q-7.2-9.2-18.9-29.2t-13.4-22.5l87.6-121.8h-75.8l-69.6 96.7v-231.9q69.1 11.3 121.8 51.2 14.9 11.3 26.2 24.6t18.4 24 12.3 28.7 7.1 27.1 3.6 31.8 1.6 30.2v68.6t-1.6 30.2-3.6 31.8-7.1 27.1-12.3 28.7-18.4 24-26.2 24.6q-74.7 56.3-187.9 56.3t-187.9-56.3q-14.8-11.3-26.1-24.6t-18.4-24-12.3-28.7-7.2-27.1-3.6-31.8-1.5-30.2z m41.5 76.3q33.8 34.3 98.3 34.3 40.9 0 70.6-21t29.7-60.4q0-26.1-9.2-43.5t-23-23.6-30.2-10.2-30.2-4.6-23.1-6.2-9.2-15.3q0-24.1 35.8-23.6 29.2 0 44.6 14.9l39.9-40q-30.7-30.7-87-30.7-40 0-67.6 21.5t-27.7 60.4q0 26.1 10.8 43t26.6 23.1 32.3 8.7 30.7 4.6 18.9 7.2q5.2 5.6 5.2 15.3 0 23.6-36.9 23.6-39.4 0-57.9-18.5z" /></svg>