<svg height="512" width="589.8" xmlns="http://www.w3.org/2000/svg"><path d="m0 322q0-8.1 2-22.5t5.2-15.9q3 1.6 5.6 16.9t2.6 22.1q0 7.1-2.6 22t-5.6 16.4q-6.7-3.6-6.7-37.9z m32.8 0q0-12.8 2.5-37.8t3.1-31.3q0-3 3.1-3 2 0 3 3 6.2 66.1 6.2 69.1 0 12.3-3.1 36.4t-3.6 30.2q-1 3.6-3 3.6-3.1 0-3.1-3.6-0.5-5.6-3.1-30.2t-2.5-36.9z m41.4 0q0-12.2 2.6-37.8t2.6-28.2q0-4.6 3.5-4.6 4.1 0 4.1 4.6 5.7 57.9 5.7 65.5t-5.7 69.7q0 4.1-4.1 4.1-3.5 0-3.5-4.1 0-3.6-2.6-30.2t-2.6-40z m47.1 0q0-19.4 1.1-41.4t2-48.7 2.1-41.9q0-5.2 4.6-5.2 5.1 0 5.1 5.2 0.5 8.1 3.1 57.3t2.5 74.7q0 13.4-2.5 39.5t-2.6 29.7q0 5.1-5.1 5.1-4.6 0-4.6-5.1-4.6-67.6-4.6-69.2z m48.2 0q0-28.1 1.5-81.9t2.1-66q1-6.2 6.1-6.2t6.1 6.2q0.6 16.4 2.6 68.1t2.1 79.3q0 12.8-2.1 36.9t-2.6 31.2q-1 6.2-6.1 6.2t-6.1-6.2q0-5.6-2.1-30.2t-2-37.9z m48.6 0q0-20.4 0.5-43.5t1.6-51.2 1.5-43.5q1-7.7 7.2-7.7t7.1 7.7q0.5 15.4 1.6 43.5t1.5 51.2 0.5 43.5q0 1.1-3.1 67.1v-0.5q-1 7.7-7.1 7.7t-7.2-7.2q-3.1-66-3.1-67.1z m48.7 0.6q0-1.6 3-179.8 1-9.2 8.2-9.2t8.2 9.2q3.1 178.2 3.1 179.8 0 0.5-3.1 65-1 8.7-8.2 8.7t-8.2-8.7q-3-64.5-3-65z m40.9-109.1q0-42.5 0.5-79.9-0.5-5.1 6.7-9.2t16.9-6.1 17.9-3.1 12.8-1q49.7 0 86.5 37.4t41 91.6q14.3-6.7 28.1-6.7 29.7 0 51.2 23.6t21.5 56.8-21.5 56.9-51.2 23.5h-201.2q-3 0-5.6-3.1t-2.6-6.6q0-28.2-0.5-79.9t-0.5-93.7z" /></svg>