<svg height="512" width="512.0" xmlns="http://www.w3.org/2000/svg"><path d="m0 256q0-69.6 34.3-128.5t93.2-93.2 128.5-34.3 128.5 34.3 93.2 93.2 34.3 128.5q0 51.7-19.5 98.3t-54.7 81.9q-30.8-37.4-74.8-58.3t-93.7-21q-54.8 0-101.9 25.6t-77.3 69.1q-42.5-36.4-66.5-87.1t-24.1-108z m84-73.7q0 8.7 6.1 15.3t15.4 6.7q3 0 4.6-0.5 73.7-29.7 152.6-29.7t152.5 29.7q0.5 0 2.1 0.5t2.5 0.5q8.7 0 15.4-6.7t6.7-15.3q0-12.8-11.8-19-81.4-32.2-166.9-32.2-87.1 0-168.5 32.8-10.2 6.6-10.2 18.4z m23.5 76.3l3.1 8.2q4.1 6.6 11.8 6.6 1.5 0 4.6-1 65-28.2 135.7-28.2 71.1 0 136.7 28.7 2 1 3.5 1 7.7 0 11.8-6.6l2.6-8.7q0-6.7-5.1-10.8-70.7-31.7-149.5-31.7-78.4 0-150.1 31.7-5.1 5.1-5.1 10.8z m24.6 73.7q5.1 12.8 15.9 8.2 55.3-26.1 114.7-26.1 57.3 0 112.1 24.5 12.3 6.7 17.9-6.1 2.6-6.7 0-11.8t-7.2-7.7q-54.2-27.1-122.8-27.1-65.6 0-125 28.2-9.7 5.1-5.6 17.9z m31.2 162.3q19-24.6 47.1-38.9t59.9-14.4q58.4 0 98.9 44.1-53.3 26.6-112.7 26.6-48.1 0-92.7-17.4z" /></svg>