<svg height="512" width="450.0" xmlns="http://www.w3.org/2000/svg"><path d="m0 324.1q0 75.3 51.7 131.6t133.1 56.3q80.9 0 132.6-56.3 51.8-55.3 51.8-131.6 0-39.9-13.9-74.8-20.5 12.8-43.5 17.5 11.3 26.1 11.3 58.3 0 38.9-18.5 72.7-18.9 33.8-50.6 51.7-31.8 18.5-69.2 18.5-38.4 0-69.6-18.5-32.3-18.9-50.2-51.7-18.9-33.3-18.9-72.7 0-59.9 40.9-103.4 41-42.5 97.8-42.5 26.1 0 50.2 9.7 2.1-19.9 13.8-44-29.2-10.8-64-10.8-81.9 0-136.2 60.5-48.6 54.7-48.6 129.5z m143.4 129.5l28.6 2.1q37.9-24.1 64-55.8t37.4-63.5 15.9-64.5q3.1-21 3.1-41 0-10.7-1.1-20.5-2.5-28.1-6.6-50.7t-8.2-35.3l-4.6-12.8q-11.3-34.8-22.6-60.9t-16.3-34.3l-5.7-8.7q20 10.2 32.3 24.6 11.8 14.8 14.3 27.1 2.1 10.2 2.1 20v3.5q-0.5 11.3-3.1 18l-2.6 6.6q2.1 29.7 2.6 57.4 0 26.6-2.6 52.2-4.6 51.2-15.8 85.5t-25.6 62.5-29.7 44-28.2 26.6-21 14.9z m140.8-326.1q2-20.5 11.7-32.8l9.3-12.8q6.1-7.1 19.9-13.8t24.6-9.7l10.7-3.1q18.5-4.1 34.4-17.9t22.5-26.1l6.6-11.8q21 29.2 25.1 66 2.1 16.4 1.6 29.2 0 17.4-3.1 30.2l-5.6 23.1q-6.2 16.9-17.5 30.7t-18.9 18.9l-7.7 5.7q-17.4 10.2-34.3 10.2l-55.8-27.1q29.7-16.4 51.7-33.3t32.8-29.7 16.9-23 7.7-15.9l1-5.1q-9.2 20.4-25.1 37.3t-31.7 26.7-31.3 16.9-24 9.7l-9.3 2.5q-12.8-22.5-12.8-40.4 0-2.6 0.6-5.1z" /></svg>