<svg height="512" width="566.3" xmlns="http://www.w3.org/2000/svg"><path d="m0 88.6v-10.8l1-1h127.5l1 1v10.3q0 4.1-5.1 4.1l-13.3 0.5q-16.9 0.5-16.9 10.2 0 6.7 3.6 14.3 25.6 62.5 113.7 247.9l3 0.5 56.9-113.2q-6.7-15.3-11.3-25.1l-38.9-76.8-10.3-20.5q-13.3-26.1-17.4-31.2t-16.9-7.2q-7.1-1-7.1-3.5v-10.8l1.5-1h100.9l2.5 0.5v10.8q0 4-5.1 4l-7.7 1.1q-6.6 1-9.7 2.5t-3.1 6.2 2.1 9.2 7.7 15.9l37.3 76.8 41.5-83q8.2-16.4 2.6-22-3.1-4.1-19-5.6l-4.6-0.5q-2 0-3.6-1.6-1.5-0.5-1.5-3v-9.8l1.5-1q29.2-0.5 95.3 0l1 1v10.3q0 4.1-4.6 4.1-11.3 0.5-15.9 2.5t-8.7 8.2q-11.8 17.4-15.4 24.6l-53.7 100.3-1.6 3.6 65.6 134.2 4.1 1.5 103.4-246.3q6.1-14.3-1.5-21-6.7-6.1-20-6.6l-9.7-0.5q-1.6 0-3.1-1.6-2-1-2-3v-10.3l1.5-1h117.2l1.1 1v10.3q0 3.5-4.6 4.6-23.6 1-33.8 9.7-10.3 8.2-17.4 25.1l-128 290.3q-5.2 11.8-11.8 15.9t-12.3-0.5-11.8-15.9q-19.4-38.4-62.5-134.7-53.7 110.6-67 135.2-21 36.3-36.4 0.5-16.4-38.4-66.5-145.9t-66.6-147q-8.2-21.5-14.3-26.6-5.7-5.1-26.7-6.6-7.1-1.1-7.1-3.6z" /></svg>