<svg height="512" width="631.3" xmlns="http://www.w3.org/2000/svg"><path d="m0 457.2l53.8-189.9q17.9-10.3 44-15.9t43-6.7l17.4-0.5q25.6 0 53.3 5.1 51.7 10.3 73.7 31.3l-53.3 189.4q-18.4-14.3-40.9-23.5t-35.4-10.8l-13.3-2q-17.4-1.6-33.2-1.6-8.2 0-22.1 1.1t-43 7.1-44.5 16.9z m64.5-244.2l53.8-190q17.9-10.2 44-16.3t43-6.7l16.9-0.5q26.1 0 53.3 5.1 51.7 10.2 73.7 31.2l-53.3 190q-18.4-14.3-40.9-23.6t-35.4-10.7l-13.3-2.1q-17.9-1.5-32.7-1.5-8.2 0-22 1t-43.1 6.7-45 16.9z m220.7 262.6l53.2-189.9q19 14.3 41.5 23.5t35.3 10.8l12.8 2q17.4 1.6 33.3 1.6 8.2 0 22-1t43-6.7 44.6-16.9l-53.3 190q-17.9 10.2-44 15.8t-43 6.2l-16.9 1q-26.1 0-53.3-5.1-51.7-10.3-74.2-31.3z m61.4-243.2l53.3-189.4q18.9 14.3 41.4 23.6t35.4 10.7l12.8 2.1q17.4 1.5 33.3 1.5 8.1 0 22-1t43-6.7 44.5-16.9l-53.2 189.5q-17.9 10.2-44.1 16.3t-43.5 6.7l-16.9 1q-26.6 0-52.7-5.6-51.7-9.7-74.3-31.2z" /></svg>