<svg height="512" width="512.0" xmlns="http://www.w3.org/2000/svg"><path d="m0 256q0-69.6 34.3-128.5t93.2-93.2 128.5-34.3 128.5 34.3 93.2 93.2 34.3 128.5-34.3 128.5-93.2 93.2-128.5 34.3-128.5-34.3-93.2-93.2-34.3-128.5z m20 0q0 69.1 36.8 126.5t96.8 86l-112.6-308.8q-20.5 45.6-20.5 96.3z m38.4-129.5h15.3q24.6 0 63-3.1 6.1-0.5 9.2 4.1t1 9.7-8.1 5.6l-27.2 2.6 86 255.5 51.7-154.6-36.8-100.9q-12.3-1.5-24.6-2.6-6.1-0.5-8.2-5.6t1-9.7 9.3-4.1l61.9 3.1q25.1 0 63-3.1 6.1-0.5 9.2 4.1t1 9.7-8.2 5.6l-26.6 2.6 85 254 23.5-78.9q18.5-59.9 18.5-76.3 0-32.7-20-65.5-1-1.5-6.6-10.8t-7.2-12.3-4.6-9.7-4.1-12.3-1-10.7q0-16.9 11.7-29.7t28.7-12.8q0.5 0 1.5 0.5t1.6 0.5q-67.1-61.9-159.8-61.9-60.9 0-113.1 28.6t-84.5 77.9z m131 356.3q31.8 9.2 66.6 9.2 41 0 78.3-13.3l-1.5-3.1-72.7-199.1z m185.4-22.5q53.7-31.2 85.5-86t31.7-118.8q0-61.5-28.6-113.2 1.5 10.8 1.5 24.1 0 32.3-17.9 84.5z" /></svg>