<svg height="512" width="704.0" xmlns="http://www.w3.org/2000/svg"><path d="m0 107l3.1 9.7q2 3.1 4.1 5.2t3 2.5l1.1 1 9.7 5.2h56.8l147 176.1q5.6 6.1 5.6 12.8v98.3q0 4.1-1.5 6.1t-3.1 2.6h-1.5q-57.4 0-72.7 1.5-5.2 0-5.2 4.6v28.2h264.2v-29.2q0-1.5-1.5-2.5t-2.6-1.1h-74.7q-4.6 0-4.6-7.6v-103.5q-0.5-1.5 1-3.6t3.1-3.5l1.5-1.6q5.6-5.6 135.2-127.5h68.1q4.6 0 9.2-3.5l8.7-9.8q3.1-3.6 3.1-9.2v-7.2q-0.6-1.5-1.6-2.5t-1.5-1h-224.3l-3.6 3q-0.5 3.1 1.1 6.7t3 5.1l1.1 2.1 11.7 11.7 9.3 3.6h58.8l-105.9 99.9-116.8-149h21q6.7 0.5 11.3-2.1l34.8-10.7q0.5 0 1.5-0.6t2.6-2.5 1.5-4.6v-7.2q0-1.5-1-2.5t-2.1-1.1h-251.9q-4.1 0.5-5.1 3.6v4.1z m609.3-55.8l94.7 3.6-42.5 290.3-31.2-1.5z m6.6 390.7l2.1-56.4 56.3 2.1-2 56.3z" /></svg>