<svg height="512" width="441.9" xmlns="http://www.w3.org/2000/svg"><path d="m0 372.2q0-27.6 3.1-82.9 2-27.2 19.4-44.6t44.6-18.9q51.2-2.6 154.1-2.6t154.1 2.6q27.1 1.5 44.5 18.9t19.5 44.6q2.6 46.1 2.6 82.9t-2.6 83q-2.1 27.1-19.5 44.5t-44.5 19q-51.2 2.5-154.1 2.5t-154.1-2.5q-27.2-1.6-44.6-19t-19.4-44.5q-3.1-55.3-3.1-83z m34.3-72.2h31.2v166.9h30.2v-166.9h31.3v-28.1h-92.7v28.1z m33.3-308.7h30.7l19.5 77.8h2l18.4-77.8h30.8l-23.6 75.8q-11.8 37.3-11.8 38.4v80.9h-30.2v-77.3q-1-7.2-3-13.4t-4.7-13.8-4.6-12.8z m59.4 453.1q0 24.6 18.4 24.6 16.4 0 31.2-17.9v15.8h26.7v-143.8h-26.7v109.5q-10.7 10.8-15.8 10.8-7.2 0-7.2-9.7v-110.6h-26.6v121.3z m40.4-294.4v-74.7q0-17.4 11.3-27.2t28.7-9.7q16.9 0 27.6 10.2t10.8 27.2v74.2q0 18.4-10.3 29.2t-28.7 10.8q-17.9 0-28.6-11.3t-10.8-29.2z m27.7 3.6q0 11.8 11.2 11.8 11.8 0 11.8-12.8v-78.4q0-4.6-3.6-7.6t-8.2-3.1-8.2 3.1-3.5 7.6v79.9z m34.3 313.3h27.1v-10.7q10.3 12.8 25.6 12.8 24.1 0 24.1-31.8v-79.8q0-36.4-26.1-36.4-12.8 0-23.6 13.8v-62.9h-27.1v195z m27.1-27.1v-90.1q5.6-5.6 11.3-5.6 11.2 0 11.2 14.3v75.8q0 12.3-9.7 12.3-7.2 0-12.8-6.7z m11.8-276v-121.3h26.6v110.1q0 9.7 7.2 9.7 6.6 0 15.9-10.7v-109.1h26.6v143.9h-26.6v-15.9q-14.9 17.9-31.3 17.9-18.4 0-18.4-24.6z m58.4 262.7q0 19.5 9.7 32.3t29.2 12.8q39.9 0 39.9-44.6v-10.7h-27.6q0 1 0.5 7.1t-0.5 8.7-1.6 7.2-3.6 6.1-7.1 2.1q-11.8 0-11.8-20.5v-27.1h51.2v-36.9q0-19.4-9.7-30.7t-29.2-11.3q-18.5 0-29.7 11.8t-11.3 30.2v65z m27.6-50.7v-15.4q0-15.8 11.8-15.8t11.8 15.8v15.4h-23.6z" /></svg>