<svg height="512" width="486.4" xmlns="http://www.w3.org/2000/svg"><path d="m76.8 76.8c-14.3 0-25.6 11.3-25.6 25.6v230.4c0 14.3 11.3 25.6 25.6 25.6h281.6c14.3 0 25.6-11.3 25.6-25.6v-25.6h12.8c12.8 0 12.8-12.8 12.8-12.8v-12.8h25.6c25.6 0 51.2-25.6 51.2-51.2v-76.8c0-12.8-12.8-25.6-25.6-25.6h-76.8v-25.6c0-14.3-11.3-25.6-25.6-25.6z m307.2 76.8h64c12.8 0 12.8 12.8 12.8 12.8v64c0 12.8-12.8 25.6-25.6 25.6h-51.2z m-384 230.4l38.4 38.4c6.1 6.1 12.8 12.8 25.6 12.8 106.5 0 307.2 0 307.2 0 12.8 0 19.5-6.7 25.6-12.8l38.4-38.4z" /></svg>