<svg height="512" width="435.2" xmlns="http://www.w3.org/2000/svg"><path d="m153.6 0c-14.3 0-25.6 11.3-25.6 25.6h-51.2c-14.3 0-25.6 11.3-25.6 25.6v155.1l-51.2 24.1 51.2 102.4v51.2l81.4 24.1c2.6 1 5.1 1.5 8.2 1.5 2.6 0 5.6-1 8.2-1.5l68.6-24.1 68.6 24.1c2.6 1 5.1 1.5 8.2 1.5 2.6 0 5.6-1 8.2-1.5l81.4-24.1v-51.2l51.2-102.4-51.2-24.1v-155.1c0-14.3-11.3-25.6-25.6-25.6h-51.2c0-14.3-11.3-25.6-25.6-25.6h-128z m-51.2 76.8h230.4v105.5l-89.6-41.5-25.6-12.8-25.6 12.8-89.6 41.5v-105.5z m-51.2 358.4c-2.6 0-6.1 1-8.2 1.5l-43 14.4v52.2l51.2-16.9 81.4 24.1c2.6 1 5.1 1.5 8.2 1.5 2.6 0 5.6-1 8.2-1.5l68.6-24.1 68.6 24.1c2.6 1 5.1 1.5 8.2 1.5 2.6 0 5.6-1 8.2-1.5l81.4-24.1 51.2 16.9v-52.2l-43-14.4c-2.6-1-5.1-1.5-8.2-1.5s-5.6 0.5-8.2 1.5l-81.4 24.1-68.6-24.1c-2.6-1-5.1-1.5-8.2-1.5s-5.6 1-8.2 1.5l-68.6 24.1-81.4-24.1c-3.1-1-5.1-1.5-8.2-1.5z" /></svg>