<svg height="512" width="486.4" xmlns="http://www.w3.org/2000/svg"><path d="m243.2 89.6c-166.4 0-243.2 166.4-243.2 166.4s76.8 166.4 243.2 166.4 243.2-166.4 243.2-166.4-76.8-166.4-243.2-166.4z m-76.8 128c7.2 0 12.8 5.6 12.8 12.8v12.8h51.2v-12.8c0-7.2 5.6-12.8 12.8-12.8s12.8 5.6 12.8 12.8v12.8h51.2v-12.8c0-7.2 5.6-12.8 12.8-12.8s12.8 5.6 12.8 12.8v12.8h38.4c7.2 0 12.8 5.6 12.8 12.8s-5.6 12.8-12.8 12.8h-38.4v12.8c0 7.2-5.6 12.8-12.8 12.8s-12.8-5.6-12.8-12.8v-12.8h-51.2v12.8c0 7.2-5.6 12.8-12.8 12.8s-12.8-5.6-12.8-12.8v-12.8h-51.2v12.8c0 7.2-5.6 12.8-12.8 12.8s-12.8-5.6-12.8-12.8v-12.8h-38.4c-7.2 0-12.8-5.6-12.8-12.8s5.6-12.8 12.8-12.8h38.4v-12.8c0-7.2 5.6-12.8 12.8-12.8z" /></svg>