<svg height="512" width="384.0" xmlns="http://www.w3.org/2000/svg"><path d="m25.6 25.6c-14.3 0-25.6 11.3-25.6 25.6v409.6c0 12.8 12.8 25.6 25.6 25.6h230.4c12.8 0 25.6-12.8 25.6-25.6v-128h12.8c12.8 0 12.8 12.8 12.8 12.8v51.2c0 25.6 12.8 38.4 38.4 38.4s38.4-12.8 38.4-38.4c0-29.7 0-115.2 0-140.8s-51.2-51.2-51.2-76.8v-76.8h-25.6l-25.6-25.6v-25.6c0-14.3-11.3-25.6-25.6-25.6z m25.6 51.2h179.2v102.4h-179.2z m230.4 76.8h25.6s0 21.5 0 38.4c0 25.6 51.2 51.2 51.2 76.8v128c0 12.8-12.8 12.8-12.8 12.8s-12.8 0-12.8-12.8c0 0 0-51.2 0-64s-12.8-25.6-25.6-25.6c-8.7 0-25.6 0-25.6 0z" /></svg>