<svg height="512" width="435.2" xmlns="http://www.w3.org/2000/svg"><path d="m345.6 38.4c-49.7 0-89.6 39.9-89.6 89.6 0 11.3 2.6 22 6.7 32.3l-211.5 211.4c0-25.6 0-76.8 0-102.4 0-38.4 25.6-51.2 25.6-51.2l25.6 25.6s0-68.1 0-102.4c0-25.6-12.8-12.8-25.6 0-76.8 76.8-76.8 76.3-76.8 128v179.2c0 12.8 12.8 25.6 25.6 25.6h179.2c51.7 0 93.7-42.5 128-76.8 12.8-12.8 25.6-25.1 0-25.6h-102.4l25.6 25.6s-12.8 25.6-51.2 25.6c-25.6 0-76.8 0-102.4 0l211.5-211.4c9.7 3.5 20.9 6.6 32.2 6.6 49.7 0 89.6-39.9 89.6-89.6s-39.9-89.6-89.6-89.6z m0 51.2c21 0 38.4 17.4 38.4 38.4s-17.4 38.4-38.4 38.4-38.4-17.4-38.4-38.4 17.4-38.4 38.4-38.4z" /></svg>