<svg height="512" width="486.4" xmlns="http://www.w3.org/2000/svg"><path d="m128 102.4c-14.3 0-25.6 11.3-25.6 25.6s11.3 25.6 25.6 25.6h153.6v51.2h-186.4c-8.7-15.4-25.1-25.6-44-25.6-28.2 0-51.2 23-51.2 51.2s23 51.2 51.2 51.2c14.8 0 27.6-6.7 36.9-16.9l91.1 93.7c25.6 26.1 45.1 51.2 57.9 51.2h223.7c12.8 0 25.6-12.8 25.6-25.6v-76.8c0-25.6-12.3-37.9-25.6-51.2 0 0-16.9-16.9-25.6-25.6s-25.6-25.6-51.2-25.6h-76.8v-51.2h153.6c14.3 0 25.6-11.3 25.6-25.6s-11.3-25.6-25.6-25.6h-332.8z m-76.8 102.4c14.3 0 25.6 11.3 25.6 25.6s-11.3 25.6-25.6 25.6-25.6-11.3-25.6-25.6 11.3-25.6 25.6-25.6z" /></svg>