<svg height="512" width="281.6" xmlns="http://www.w3.org/2000/svg"><path d="m25.6 25.6c-12.8 0-25.6 12.8-25.6 25.6v128c0 25.6 25.6 25.6 25.6 51.2v230.4c0 12.8 12.8 25.6 25.6 25.6h25.6c12.8 0 25.6-12.8 25.6-25.6v-230.4c0-25.6 25.6-25.6 25.6-51.2v-128c0-12.8-12.8-25.6-25.6-25.6-6.7 0-6.7 7.7-6.7 12.8v102.4c0 5.1 0 12.8-6.6 12.8s-6.7-7.7-6.7-12.8v-102.4c0-5.1 0-12.8-6.6-12.8h-25.6c-6.7 0-6.7 7.7-6.7 12.8v102.4c0 5.1 0 12.8-6.6 12.8s-6.7-7.7-6.7-12.8v-102.4c0-5.1 0-12.8-6.6-12.8z m256 0c-25.6 0-73.2 6.1-89.6 38.4-12.8 25.6-12.8 89.6-12.8 115.2v102.4c0 12.8 12.8 25.6 25.6 25.6v153.6c0 12.8 12.8 25.6 25.6 25.6h25.6c12.8 0 25.6-12.8 25.6-25.6z" /></svg>