<svg height="512" width="435.2" xmlns="http://www.w3.org/2000/svg"><path d="m217.6 38.4c-119.8 0-217.6 97.8-217.6 217.6s97.8 217.6 217.6 217.6 217.6-97.8 217.6-217.6-97.8-217.6-217.6-217.6z m0 38.4c68.1 0 127.5 37.9 157.7 93.7-28.7 18.9-54.8 28.7-55.3 47.1-0.5 12.8 0 16.4 0 25.6 0 12.8 6.7 29.2 25.6 38.4l45.1 21.5c-5.2 18.9-13.4 36.4-24.1 52.2l-33.8-22.5c-19.5-12.8-38.4-21.5-51.2-12.8l-38.4 25.6c-17.9 11.8-15.9 25.6-12.8 38.4l11.8 49.7c-8.2 1-16.4 1.5-24.6 1.5-17.9 0-34.8-2.6-51.2-7.2v-44c0-25.6-12.8-38.4-25.6-51.2s-25.6-25.6-51.2-25.6h-44c-4.6-16.4-7.2-33.3-7.2-51.2 0-99.3 79.9-179.2 179.2-179.2z m-76.8 89.6l-12.8 51.2c-3.6 14.3-13.3 29.7 0 38.4l38.4 25.6c25.6 16.9 36.9 7.2 51.2 0l25.6-12.8c18.9-9.7 25.6-12.8 25.6-38.4v-51.2c0-12.8 0-20.5-25.6-25.6l-64-12.8c-26.6-5.1-31.7-0.5-38.4 25.6z" /></svg>