<svg height="512" width="486.4" xmlns="http://www.w3.org/2000/svg"><path d="m243.2 25.6l-192 128h384z m-166.4 153.6c-14.3 0-25.6 11.3-25.6 25.6v179.2l-45.1 76.8c-3.5 6.7-6.6 9.2-6.6 12.8 0 12.8 16.4 12.8 25.6 12.8h435.2c9.2 0 25.6 0 25.6-12.8 0-3.6-2.1-5.6-6.7-12.8l-45-76.8v-179.2c0-14.3-11.3-25.6-25.6-25.6z m51.2 51.2c14.3 0 23 11.8 25.6 25.6v153.6h-51.2v-153.6c0-14.3 11.3-25.6 25.6-25.6z m115.2 0c14.3 0 25.6 11.3 25.6 25.6v153.6h-51.2v-153.6c0-14.3 11.3-25.6 25.6-25.6z m115.2 0c14.3 0 25.6 11.3 25.6 25.6v153.6h-51.2v-153.6c0-14.3 11.3-25.6 25.6-25.6z" /></svg>