<svg height="512" width="332.8" xmlns="http://www.w3.org/2000/svg"><path d="m166.4 25.6c-31.2 0-56.8 23-62.5 52.7-4.6-1-9.2-1.5-14.3-1.5-35.3 0-64 28.7-64 64 0 16.4 6.1 31.2 15.9 42.5-24.1 9.2-41.5 32.8-41.5 59.9 0 35.3 25.6 64 64 64h12.8l51.2 89.6v64c0 12.8 12.8 25.6 25.6 25.6h25.6c12.8 0 25.6-12.8 25.6-25.6v-64l51.2-89.6 18.4-0.5c32.8 0.5 58.4-30.2 58.4-63.5 0-27.6-17.4-50.7-41.5-59.9 10.3-11.3 15.9-26.1 15.9-42.5 0-35.3-28.7-64-64-64-5.1 0-9.7 0.5-14.3 1.5-5.2-29.7-30.8-52.7-62.5-52.7z m-38.4 281.6h76.8l-25.6 51.2h-25.6l-25.6-51.2z" /></svg>