<svg height="512" width="511.5" xmlns="http://www.w3.org/2000/svg"><path d="m0 490.5q0-26.1 31.2-54.8t63-45.6l7.7 11.3q-22.5 16.4-46.6 42.5t-30.2 46.1q44.5-13.8 135.7-194.1 33.2-67 52.7-133.6-16.9-54.8-16.9-103.4 0-58.9 24.1-58.9 11.7 0 17.4 1t10.7 6.7 5.2 17.4q0 7.7-1.6 14.3l-13.8-0.5q-1-13.3-8.7-21-6.2 10.3-6.2 35.3 0 19.5 4.7 48.2 1.5-9.2 4.6-27.7t5.1-27.6l13.3 1.5q-1 77.8-7.2 111.6 18.5 54.8 44.6 89.1t73.2 60.9q34.8-3.5 59.4-3.5 91.1 0 91.1 35.8 0 5.6-2.5 12.3l-1.6-0.5q-2.5 21.5-34.3 21.5-53.2 0-122.9-36.9-112.6 11.3-199.1 42-75.3 131.6-120.4 131.6-3.5 0-7.1-1t-6.7-2.6-7.1-3.6-6.2-3.6q-4.1-4.1-4.1-11.2z m162.8-130.6q68.6-27.6 152.6-43.5-52.7-37.4-84-107-18.4 62-68.6 150.5z m248.8-25.6q46.1 18 72.8 18 7.6 0 11.2-1.6 0-16.4-74.2-16.4h-9.8z" /></svg>