<svg height="512" width="662.5" xmlns="http://www.w3.org/2000/svg"><path d="m0 214q0-53.7 27.1-96.2t70.2-67.6 92.7-37.9 99.8-12.8q14.8 0 22 0.5 58.9 3.1 115.7 21 44.6 14.3 85 38.4t75.3 55.8 55.3 75.3 21 90.1q0 6.6-0.5 9.7-5.7 77.8-62 131.1t-137.7 75.2q-54.8 15.4-117.3 15.4h-4.1q-102.9 0-161.3-27.1-3-1.1-3.5-3.1 0-1 1.5-1 0.5 0 2 0.5t2.1 0.5q25.6 6.1 45.6 6.1 12.3 0 24-2.5t22.6-10.3 10.7-20.4q0-6.2-3.1-12.3-4.6-8.2-30.2-17.4t-58.3-17.4-39-10.3q-40.9-13.3-71.1-33.8 0-0.5 2-5.1t3.1-7.7 3.6-6.1 4.6-3.1h91.6q4.6 0 8.7 11.3t10.8 22.5 18.4 11.3q9.2 0 15.9-6.2t6.7-15.3q0-5.7-43.1-101.9t-54.2-118.3q-3.1-7.7-8.2-7.7-4.1 0-6.7 4.6l-1.5 3.1q-4.1 7.7-26.6 58.4l-54.8 121.8-3.6 7.7q-48.6-55.8-48.6-119.8z m111.6 85q0-5.1 27.7-66l2.5-1.6q3.1 0 16.9 32.8t13.8 35.8q0 2.1-2.5 2.1h-55.3q-2.6 0-2.6-2.6z m157.2 63q0 23 24.1 23t24-23v-198.7q0-23-24-23t-24.1 23v198.7z m94.7 0q0 23 24.1 23t24-23v-92.7l47.2 94.7q6.6 14.9 20.9 14.9 16.4 0 23.6-14.9l46.6-94.7v92.7q0 23 24.1 23 24.5 0 24.5-23v-198.7q0-23-24-23-18 0-24.1 14.8l-70.7 154.7-68.1-154.7q-7.1-14.8-24.5-14.8-23.6 0-23.6 23v198.7z" /></svg>