<svg height="512" width="563.2" xmlns="http://www.w3.org/2000/svg"><path d="m1 397.3q2.6-4.1 8.2-0.5 128 74.2 278.5 74.2 100.4 0 198.2-37.3 2.5-1.1 7.7-3.1t7.1-3.1q7.7-3.1 12.3 3.1t-3 11.3q-9.3 6.6-23.6 15.3-44 26.1-98.3 40.5t-106 14.3q-79.9 0-151-28.2t-127.5-78.8q-3.1-2.6-3.1-5.1 0-1.6 1-3.1z m154.1-145.9q0-35.3 17.4-60.4t47.7-37.9q27.6-11.8 68.1-16.9 13.8-1.5 45-4.1v-8.7q0-32.8-7.2-44-10.7-15.4-33.7-15.4h-4.1q-16.9 1.5-29.2 10.8t-15.9 25.6q-2 10.2-10.2 11.7l-58.9-7.1q-8.7-2.1-8.7-9.3 0-1.5 0.5-3.5 8.7-45.6 43-67.6t79.9-24.6h12.8q58.3 0 91.1 30.2 5.1 5.1 9.7 11.3t7.2 10.7 4.6 13.3 3.1 12.3 1.5 14.4 0.5 13.3v123.9q0 13.3 4.1 24.6t7.7 15.8 11.8 15.9q3.1 4.6 3.1 8.2 0 4.1-4.1 7.2-42.5 36.8-46.1 39.9-6.2 4.6-14.9 1-7.1-6.1-12.8-11.8t-7.7-8.2-7.6-10.2-7.2-10.2q-28.7 31.2-56.3 38.9-17.4 5.1-43 5.1-39.5 0-65.1-24.6t-25.6-69.1z m88.1-10.2q0 19.9 10.2 32.2t27.2 12.3q1.5 0 4.6-0.5t4.1-0.5q21.5-5.7 33.3-27.7 5.6-9.7 8.7-21.5t3-18.9 0.5-23.6v-12.8q-29.6 0-45 4.1-45.1 12.8-45.1 56.9z m215 164.8q1.1-2 3.1-4.1 12.8-8.7 24.6-11.8 19.4-5.1 37.9-5.6 5.1-0.5 9.7 0.5 23 2.1 27.7 7.7 2 3.1 2 9.2v3.6q0 17.9-9.7 42.5t-27.2 39.4q-2.5 2.1-4.6 2.1-1 0-2-0.5-3.1-1.6-1.6-5.7 19-44.5 19-61.9 0-5.7-2.1-8.2-5.1-6.2-28.6-6.2-8.7 0-20.5 1.1-12.8 1.5-23.6 3-3 0-4.1-1t-0.5-2q0-0.5 0.5-1.6z" /></svg>