<svg height="512" width="440.3" xmlns="http://www.w3.org/2000/svg"><path d="m0.5 255.5q-0.5 9.2-0.5 18.4 0 34.8 10.2 73.7 13.4 49.7 42.5 94.3 45.6 69.6 88.1 70.1 15.4 0 39.9-10.8t48.7-10.7h2q23.6 0 46.6 10.2 24.1 11.3 38.9 11.3 25.1-0.5 46.6-21t43.5-53.2q15.9-24.6 33.3-62-25.6-9.7-43.5-29.2t-24.6-43.5q-5.1-17.9-4.6-35.8v-12.3q2.1-24.6 17.4-47.1t40.5-36.4q-19.5-24.6-45.6-38.4t-52.7-13.8q-24.6 0-54.3 11.3t-44 11.2q-15.4 0-46.6-11.2t-52.3-11.3q-29.6 0-58.8 17.4t-49.2 47.6q-18.9 28.7-22.5 71.2z m212.5-132.1q-1.5-7.7-1.5-15.4 0-33.2 27.1-66 13.8-16.9 35.8-28.7t42.5-13.3q1.1 7.7 1.1 15.4 0 35.3-25.6 67.5-14.4 18.5-35.9 29.7-21 11.3-40.9 10.8h-2.1z" /></svg>