<svg height="512" width="443.4" xmlns="http://www.w3.org/2000/svg"><path d="m0 73.7q0-30.7 65-52.2t156.7-21.5q92.2 0 157.2 21.5t65 52.2q0 6.2-36.9 225.3-4.6 23.6-56.8 45.6t-128 22-128-22-56.3-45.6q-37.4-212-37.4-225.3z m54.8 297.5v-2q0-8.8 7.7-8.8 3 0 6.1 2.6 24.1 19 62.5 29.7t64.5 11.8l26.1 1.5q4.1 0 11.3-0.5t27.1-2.6 38.4-6.6 40.4-12.8 37.4-21l5.7-2.6q8.1 0 8.1 8.7 0 1.1-0.5 2.1-11.2 61.9-15.3 82.4-5.7 25.1-49.2 42t-102.4 16.9-102.4-16.9-48.6-42q-9.7-48.6-15.9-82.4z m25.1-305.2q0 12.3 42 21.6t100.3 9.2q58.9 0 100.9-8.7t42-21q0-12.8-42-22t-100.9-9.3-100.3 8.7-41.5 21.5z m71.1 180.8q0 29.2 21 50.2t50.2 21 50.2-21 21-50.2-21-50.2-50.2-21-50.2 21-21 50.2z m35.4 0q0 14.3 10.2 25.1t25.1 10.7 25.1-10.7 10.2-25.1-10.2-25.1-25.1-10.8-25.1 10.8-10.2 25.1z" /></svg>