<svg height="512" width="512.5" xmlns="http://www.w3.org/2000/svg"><path d="m8.2 194q16.9-67.5 64.5-116.7t113.2-68.1 133.1-2 116.7 64.5 68.1 113.1 2.1 133.2-64.6 116.7-113.1 68.1-133.1 2-116.8-64.5-68.1-113.1-2-133.2z m116.7 138.8l36.9 9.2q3.6 0.5 10.2 2.6t9.8 2.5l-11.8 46.6 28.1 7.2 11.3-46.1q3.1 1 10.8 3.1t11.7 3.1l-11.2 46 28.1 6.7 11.3-46.6q24.6 4.1 44 4.1t33.8-10.8 22-31.2q16.4-46.1-26.1-68.1 30.7-6.6 35.9-40.9 6.6-44.1-56.4-64.6l11.8-46.5-28.1-6.7-11.3 45.1q-4.1-1.1-11.8-3.1t-10.7-3.1l11.2-45-28.1-7.2-11.3 46.1q-7.7-1.1-17.9-4.1l-38.9-9.8-7.2 30.3 20 4.6q14.3 3.5 13.3 16.3l-13.3 52.8q1 0 3 1-0.5-0.5-1.5-0.5t-1.5-0.5l-18.5 73.7q-2.5 9.2-12.8 6.7l-20.4-5.2z m93.7-11.8l15.4-61.9q0.5 0 10.2 2t14.4 3.6 14.3 4.6 14.8 6.7 10.8 8.7 7.7 11.2-0.5 14.4q-1.6 5.6-4.6 9.7t-7.7 6.1-9.8 3.6-11.7 1.6-12.3-1.1-12.3-2-11.3-2.6-10.2-2.5-7.7-2.1z m22.6-90.1l13.8-56.3q1.5 0.5 6.6 1.5t8.7 2.1 9.3 2.5 9.7 3.6 9.2 4.6 7.7 5.7 6.1 7.1 3.1 8.7-1 10.3q-1.6 6.6-5.7 11.2t-9.7 6.2-11.8 2.5-13.8-0.5-12.3-2-11.8-3.1-8.7-2z" /></svg>