<svg height="512" width="397.3" xmlns="http://www.w3.org/2000/svg"><path d="m0 487.4v-396.8h47.1q0-14.8 0.5-19.9t2.1-16.4 6.1-15.4 12.8-8.7 21-4.1 21 4.1 12.3 8.2 6.1 15.9 2.1 16.4v19.9h28.1v-19.9t2.1-16.4 6.1-15.9 12.3-8.2 21-4.1q9.2 0 15.9 2.1t11.2 4.6 7.7 8.7 4.6 9.7 2.1 12.8 1 12.8v14.3h27.6v-14.3t1.1-12.8 2-12.8 4.6-9.7 7.7-8.7 11.3-4.6 15.8-2.1q12.3 0 21 4.1t12.3 8.2 6.2 15.9 2 16.4v19.9h47.1v396.8h-397.3z m33.3-90.6v57.3h71.1v-57.3h-71.1z m0-11.3h71.1v-60.9h-71.1v60.9z m0-72.2h71.1v-66.5h-71.1v66.5z m0-77.3h71.1v-57.3h-71.1v57.3z m36.3-103.9q0 16.9 19 16.9t18.9-16.9v-66.6q0-16.9-18.9-16.9t-19 16.9v66.6z m45.6 264.7v57.3h77.8v-57.3h-77.8z m0-11.3h77.8v-60.9h-77.8v60.9z m0-72.2h77.8v-66.5h-77.8v66.5z m0-77.3h77.8v-57.3h-77.8v57.3z m64.5-103.9q0 16.9 19 16.9 19.4 0 19.4-16.9v-66.6q0-16.9-19.4-16.9-19 0-19 16.9v66.6z m24.1 264.7v57.3h77.8v-57.3h-77.8z m0-11.3h77.8v-60.9h-77.8v60.9z m0-72.2h77.8v-66.5h-77.8v66.5z m0-77.3h77.8v-57.3h-77.8v57.3z m86-103.9q0 16.9 19.4 16.9 19 0 19-16.9v-66.6q0-16.9-19-16.9-19.4 0-19.4 16.9v66.6z m2.6 264.7v57.3h71.6v-57.3h-71.6z m0-11.3h71.6v-60.9h-71.6v60.9z m0-72.2h71.6v-66.5h-71.6v66.5z m0-77.3h71.6v-57.3h-71.6v57.3z" /></svg>