<svg height="512" width="574.5" xmlns="http://www.w3.org/2000/svg"><path d="m0 357.4v-190.5q0-6.6 6.7-6.6h90.1v-66.1q0-7.2 6.6-7.2h50.2v263.2q0 7.2-6.1 7.2h-147.5z m55.8-42.5h34.3q6.7 0 6.7-7.2v-105.5h-34.3q-6.7 0-6.7 7.2v105.5z m115.2 42.5v-190.5q0-6.6 6.7-6.6h50.1v189.9q0 7.2-6.1 7.2h-50.7z m0-227.9v-35.3q0-7.2 6.2-7.2h50.6v35.4q0 7.1-6.1 7.1h-50.7z m76.3 227.9v-190.5q0-6.6 6.7-6.6h147.4v258q0 6.7-6.6 6.7h-147.5l0.5-35.4q0-7.1 6.2-7.1h90.1v-25.1h-96.8z m56.3-42.5h34.3q6.2 0 6.2-7.2v-105.5h-34.3q-6.2 0-6.2 7.2v105.5z m117.3 74.7q0-7.1 6.6-7.1h90.1v-25.1h-96.7v-190.5q0-6.6 6.6-6.6h147v258q0 6.7-6.2 6.7h-147.4v-35.4z m55.8-74.7h34.3q6.6 0 6.6-7.2v-105.5h-34.3q-6.6 0-6.6 7.2v105.5z" /></svg>