<svg height="512" width="448.0" xmlns="http://www.w3.org/2000/svg"><path d="m0 290.8q0-35.8 10.8-68.1t25-52.7 33.3-38.4 29.2-24.6 19.5-12.3q5.1-2.5 15.3-7.7t15.9-8.2 14.8-8.7 18-12.8q21.5-17.4 25.6-57.8 37.3 45 54.2 56.3 12.8 8.7 37.9 20t37.9 18.9q9.7 5.7 18.4 12.3t27.7 25.1 32.2 38.9 24.1 53.8 10.8 70.1q0 95.2-65.6 156.2t-157.2 60.9q-59.4 0-111.1-28.7t-83.4-79.8-31.8-113.2z m97.3 77.3q-1 32.3 21.5 47.6 15.9 10.8 48.1 10.8 21 0 50.2-15.4t53.7-30.2 36.4-14.3q11.8 0.5 39.9 28.7t36.4 28.6q10.2 0.5 17.4-4.6t16.4-18.4q16.9-25.1 16.9-59.9 0-14.9-7.7-28.2t-24.1-13.3q-11.2 0-47.1 24.1t-48.1 24.6q-11.3 0-31.2-14.4t-45.6-28.6-50.7-14.4q-33.3 0.5-57.3 23.1t-24.6 52.2z m104.9 92.2q-6.1 5.1 0 10.2 23.6 21.5 84.5 15.9 11.8-1 24.6-6.1t18.9-9.3 8.7-6.1 2.1-8.2q-1.5-6.1-7.2-1.5-21 16.4-63.5 16.4-38.4 0-56.3-14.4-1.5-1-4.1-1t-7.1 3.6z m46.1-26.6q3.6 4.1 14.4-5.7 1-0.5 4.1-3t4-3.6 4.1-2.6 5.2-2.5 6.1-1.1 8.2-0.5q8.2 0 13.3 2.6t6.7 4.1 4.1 6.6q2.5 5.2 4.1 6.2t4.1-0.5q6.1-3.6 3.5-10.3-4.6-13.3-11.2-17.4-6.2-4.6-22-4.6-13.4 0-21 3.1-8.7 3.6-22.6 16.4-7.6 6.1-3.5 12.8z" /></svg>