<svg height="512" width="315.9" xmlns="http://www.w3.org/2000/svg"><path d="m0 433.2q0-39 29.2-57.4 14.8-9.7 27.6-14.8 58.4-25.1 62.5-27.7-10.8-15.9-27.7-34.8-26.1-30.7-30.7-36.4-55.8-67.5-48.1-126.4 3.6-28.2 21.5-46.6 6.7-7.2 21.5-16.4 19-10.7 23-12.8 2.6-1 11.8-5.1t15.4-6.7l24-10.7 35.4-15.4q29.7-12.8 44-20.5 10.2-5.6 12.8 3.1 0 5.6-13.8 12.8-31.2 20.5-32.8 58.4-0.5 14.8 2.6 29.7t6.6 24 13.3 23.6 13.9 19.4 17.9 20.5 16.4 18.5q3 3.5 14.8 16.9t16.9 19.4 14.4 19.5 13.3 23.5 8.2 25.1 4.1 30.2q0 19.5-6.7 34.8-6.1 16.4-14.9 26.7t-24.5 20.4q-17.9 10.8-27.2 15.4-11.7 6.1-31.2 13.8-8.2 3.1-18.4 7.7t-11.8 5.1l-45.6 20-18.4 9.2q-16.4 8.2-25.6 10.8-43.5 10.7-68.1-12.3t-24.6-63z" /></svg>