<svg height="512" width="517.6" xmlns="http://www.w3.org/2000/svg"><path d="m0 430.6v-347.1q0-33.8 22-58.9t55.3-25.1h356.9q35.8 0 59.9 19.4t24 54.8v30.2q-37.8-7.1-56.8-10.2-27.1-3.6-27.6-3.6-5.2-1.5-15.4-5.1t-17.4-5.6-16.9-2.1q-31.7 0-67.6 24.1-17.4 1.5-49.1 3.6t-57.4 4.6-49.1 7.1h-1.1l-0.5 0.5h-2l-0.5 0.6h-0.5q-36.9 7.1-44.6 13.3-9.2 7.7-10.2 36.3v84.5l-1.6 9.2 269.4 6.7 40.9-13.8q-22.5 40.4-35.8 67.5l-54.3 24.1-207.9 3.6q-1.5 1.5-5.1 2t-5.6 2.6q2 13.3 3.6 20 6.1 26.6 57.3 30.2 105.5 6.6 171.5 6.6 19.5 0 61.5-10.2t65-10.3q33.3 0 56.8 14.9v27.6q0 79.4-78.8 79.4h-370.2q-31.2 0-50.2-24.6t-18.9-56.8z m353.3-279.6q0-7.1 5.1-12.8t12.3-5.6 12.8 5.6 5.6 12.8-5.6 12.3-12.8 5.1-12.3-5.1-5.1-12.3z" /></svg>