<svg height="512" width="421.9" xmlns="http://www.w3.org/2000/svg"><path d="m0 255.5q0-54.8 14.8-103.4 14.4-47.1 42.5-81.4 28.7-34.3 69.2-52.3 41.4-18.4 91.1-18.4 65.5 0 111.1 31.2 46.1 30.2 69.6 80.4 23.6 48.7 23.6 100.4 0 47.6-24.1 61.4t-67.6 13.8h-216.5q0 43.6 15.3 75.8 14.9 33.3 38.9 49.2 25.6 16.9 54.3 16.9 21 0 36.4-5.2 15.8-5.1 31.7-16.9 15.9-11.2 28.7-24t33.8-35.4q7.6-8.1 24-8.1 17.4 0 27.7 10.7 10.7 10.8 10.7 29.7 0 16.4-11.7 39.9-10.8 22.1-35.9 43.6-23.5 21-59.4 34.8-36.3 13.8-82.4 13.8-107 0-166.4-69.1-59.4-69.7-59.4-187.4z m113.7-39.9h200.7q-3.6-64-30.8-96.3-26.1-31.7-69.6-31.7-42 0-68.1 32.2-26.6 32.3-32.2 95.8z" /></svg>