<svg height="512" width="428.5" xmlns="http://www.w3.org/2000/svg"><path d="m0 158.2q0-20.5 7.7-29.7 4.6-7.2 13.3-10.7 9.2-4.6 24.1-4.6h48.1q7.7 0 13.3-5.7t5.6-13.3q0-10.7-0.5-22.5v-30.2q0-12.8 6.2-22.6 7.6-10.7 25.6-15.8 5.6-3.1 27.1-3.1h9.7q30.2 1 50.2 8.7 19.5 8.2 23 31.7 13.4-0.5 24.6-0.5 27.2 0 45.6 2.6 49.6 6.1 66 12.3 21.5 6.6 27.2 34.3 5.1 28.1 9.2 107.5 2.5 45.6 2.5 75.3 0 22.5-1.5 36.3-8.2 88.1-22 130.1-7.2 21.5-14.3 35.3t-14.4 22-18.9 11.8-22 4.6-30.2 1q-55.3 0-74.8-13.3t-19.5-54.8q0-23 5.2-36.8t16.9-19.5 24-6.6q7.7-0.6 20.5-0.6h14.3q2.1 0 3.1 1.1t0.5 2.5-1.5 4.1-1.5 5.7-1.1 6.6q0 4.6 1.1 9.7t0.5 6.2-3.6 1.5h-10.3t-5.1 0.5-5.1 1.1-4.6 1.5-4.1 2-3.1 3.1-2 4.6-0.5 6.2q0 7.1 2 11.7t4.1 7.2 9.2 3.6 11.3 1h16.9q29.2 0 37.4-7.2t8.2-32.7q0-38.9-9.8-52.8t-29.2-16.3q-45-4.7-60.9-10.3-27.1-10.2-27.1-60.9 0-1-1.6-1t-1.5 1q0 34.3-9.2 61.4l-4.1 12.3q-5.6 12.8-19 13.3h-3q-12.3 0-27.7-4.1-65-8.2-101.3-24-12.3-5.7-19-20.5-8.7-17.9-18.4-66.1t-12.3-68.6q-2.1-16.9-2.1-26.1z m3.1-60.9v-1l93.7-92.2q0-0.5 0.5-0.5l-1.6 3.1q-5.6 10.2-5.6 24.5 0 11.3 0.5 52.8 0 5.1-5.1 5.1h-47.6q-17.4 0-30.2 5.6-2.6 1.6-4.6 2.6z m290.8 148.5q10.7-1.6 23.5-1.6 23.1 0.5 41.5 9.2 0-43.5-31.2-44.5h-1.6q-15.3 0-22.5 10.2-7.7 10.8-9.7 26.7z" /></svg>