<svg height="512" width="646.1" xmlns="http://www.w3.org/2000/svg"><path d="m0 314.4h60.9q2.6 20.4 15.4 32.7t33.3 12.3q24.5 0 39.4-16.9t14.8-42q0-24.5-14.3-40.4t-38.4-15.9q-19.5 0-33.3 12.8t-26.1 12.8q-27.1 0-40.9-1 4.6-26.6 14.8-82.4t14.8-84.5h169v50.2h-124.4q-7.2 36.3-12.3 68.6h1.5q8.7-10.8 26.2-16.4t33.7-5.6q57.9 0 82 52.7 12.3-30.7 36.8-48.1t56.9-17.4q25 0 46.6 10.2t33.7 21.5 32.3 33.8q1.5 1.5 2.6 2.6t2 2.5l2.6 2.6q17.9-20.5 25.6-28.7t23.5-21 31.8-17.9 35.8-5.1q46.1 0 74.2 31.2t28.2 77.8q0 47.6-28.2 79.9t-75.2 32.3q-59.4 0-115.7-67.1-3.6 3.6-20 19.9t-22 20.5-19 13.3-26.6 11.8-29.7 3.1q-32.2 0-56.8-16.9t-37.9-47.1q-31.7 65.5-103.9 65.5-48.7 0-80.4-24.6t-31.8-71.1z m263.7-15.4q0 21.5 13.3 34.8t34.8 13.3q38.4 0 79.4-48.6-17.4-17.9-24.6-25.1t-24.6-16.9-32.8-10.2q-19.9 0-32.7 15.8t-12.8 36.4z m199.1 0q13.9 14.9 23.6 23.6t25.1 16.9 31.7 8.1q22 0 34.8-14.3t12.8-36.3q0-21.5-13.3-35.9t-34.8-14.3q-12.8 0-25.1 6.1t-18.9 11.3-19.5 18.4-16.4 16.9z" /></svg>