<svg height="512" width="598.5" xmlns="http://www.w3.org/2000/svg"><path d="m0 225.3q0-53.8 39.4-92.2t94.7-38.4q43.6 0 78.4 24.6t48.6 63.5l33.8-32.8 80.9 77.8 223.8-228.3v207.3l-136.8 105.5 17.5 18.5-185.9 180.7-161.8-157.2q-54.8-1-93.2-38.9t-38.4-90.6z m18.9 0q0 46.1 33.3 78.3t80.4 32.3q16.9 0 33.3-4.6l112.6 99.8 299.5-235.5 0.6-154.6-296 305.1-46.1-74.7q10.3-22.1 10.3-46.1 0-45.6-33.8-78.4t-80.9-32.7-80.4 32.7-33.3 78.4z m24.6 1q0-35.8 25.6-61.4t61.5-25.6 61.4 25.1 25.6 61.4q0 35.8-25.6 61.4t-61.4 25.6-61.5-25.6-25.6-61.4z" /></svg>