<svg height="512" width="511.0" xmlns="http://www.w3.org/2000/svg"><path d="m0 255.5q0-52.2 20.5-99.3 40.4-95.3 135.7-135.7 47.1-20.5 99.3-20.5t99.3 20.5q94.2 39.9 135.7 135.7 20.5 48.6 20.5 99.3t-20.5 99.3q-41.5 96.3-135.7 136.7-47.1 20.5-99.3 20.5t-99.3-20.5q-95.3-40.9-135.7-136.7-20.5-47.1-20.5-99.3z m39.9 0q0 72.2 43 129 42.5 55.8 111.1 79.4v-41q0-30.7 20.5-44.5-10.2-0.5-24-3.6-26.1-4.6-44.6-16.4-46.6-28.2-46.6-101.9 0-38.4 25.6-65.5-11.7-30.2 2.6-65.6h10.2q5.1 0 12.8 2.6 20 6.1 44.6 22.5 31.2-8.2 61.4-8.2t62 8.2q19.9-13.3 37.3-20.5 16.4-6.1 23.6-5.1l6.1 0.5q13.9 35.4 2.6 65.6 25.6 27.1 25.6 65.5 0 57.4-28.2 86.5-15.3 16.4-40.4 25.6-21 7.7-46.6 9.8 21 14.8 21 44.5v41q66-23.6 109-80.4 42-56.3 42-128 0-43.5-16.9-84-16.4-38.9-46-68.6-28.7-28.7-68.7-45.6-40.9-17.4-83.4-17.4-42 0-84 17.4-38.4 16.4-68.6 45.6-28.7 29.7-46.1 68.6-16.9 40.5-16.9 84z" /></svg>