<svg height="512" width="330.8" xmlns="http://www.w3.org/2000/svg"><path d="m0 418.8q0-44.5 45.6-79.3t110-34.9h27.7q-21.5-20.4-21.5-44 0-14.8 8.2-29.7-5.1 0.5-14.9 0.5-53.2 0-87-33.3t-33.8-81.9q0-46.6 42-81.4t95.7-34.8h158.8l-35.4 25.6h-50.2q24.1 9.2 37.9 34.8t13.9 56.8q0 47.7-45.1 83-18.9 14.8-24.6 23.5t-5.6 21.5q0 9.8 13.8 24.6t27.7 25.1q31.2 22 43.5 45.1t12.3 57.8q0 46.1-42 80.4t-113.7 34.3q-68.1 0-115.2-25.6t-47.1-67.6z m57.3-16.9q0 35.3 30.3 60.4t74.7 25.1q60.9 0 88.6-22.5t27.6-59.9q0-9.7-2-16.4-1.6-5.6-3.6-10.7t-6.1-9.8-7.2-8.2-10.3-8.7-10.7-7.6-12.8-9.3-13.3-9.2q-20-6.1-39.4-6.1h-2.1q-44.5 0-78.3 24-34.8 24.6-34.8 58.4z m33.8-286.2q5.7 40.5 31.3 69.6t56.3 29.7h2q28.7 0 46.1-26.6 13.8-21.5 13.8-50.7 0-8.2-1-17.4-5.1-40.4-30.7-68.6t-56.3-29.2h-2.1q-29.2 0-46.6 26.1-13.8 21-13.8 50.2 0 8.2 1 16.9z" /></svg>