<svg height="512" width="391.2" xmlns="http://www.w3.org/2000/svg"><path d="m0 262.1v-52.7q0-44.5 44-102.4t87.6-81.9q39.9-22.5 95.7-22.5 22.6 0 45.6 5.1t44 15.9 34.3 29.6 13.3 43.6q0 6.6-1 12.8t-3.6 12.3-4.6 10.7-7.1 10.8-7.2 9.7-9.2 10.2-8.7 8.7-9.8 9.2-9.2 8.2h86q1.1 36.9 1.1 55.3 0 129.6-21.5 166.9-18 31.3-48.7 55.3t-65.5 35.9q-20 7.7-28.7 7.7h-43q-1.5 0-24.6-8.7-61.4-27.2-61.4-89.1 0-2.1 0.5-5.7t0.5-5.1q-68.6-35.3-92.1-110.1-6.7-21.5-6.7-28.6z m74.8-66.5q0 20.5 5.1 41.5t14.8 40.4 27.2 31.7 39.4 12.3q6.1 0 20.5-7.6t25.6-7.7q7.1 0 26.1 5.6t18.9 10.2q0 10.8-13.3 10.8-66.6 0-66.6 38.9 0 29.7 21.5 45.1t52.8 15.3q24 0 47.1-8.7t37.4-25.6q21.5-25.6 21.5-83.9 0-9.8-0.5-28.7t-0.6-28.2q0-24.6 2.6-40.9h-98.8q-0.5 4.1-0.5 11.7 0 5.7 0.5 17.4t0.5 18q0 17.9-4.1 28.6-2.6 0.6-8.7 0.6-24.6 0-41-16.9t-22.5-38.4-6.1-45.6q0-23.1 6.1-46.6t22-43 40-19.5q5.1 0 10.7 1.6-2 11.2-2 17.4 0 17.9 9.7 29.7t27.1 11.7 29.2-11.7 11.8-29.7q0-21-15.9-35.9t-35.8-20.4-40.5-5.7q-69.1 0-114.1 43.5t-45.1 112.2z" /></svg>