<svg height="512" width="512.0" xmlns="http://www.w3.org/2000/svg"><path d="m0 256q0-69.6 34.3-128.5t93.2-93.2 128.5-34.3 128.5 34.3 93.2 93.2 34.3 128.5-34.3 128.5-93.2 93.2-128.5 34.3-128.5-34.3-93.2-93.2-34.3-128.5z m66 0q0 33.3 18.5 39.4 2.5 1 8.7 2.1 21.5 0.5 43.5-20.5 21-18.4 29.7-46.1 12.8-39.4 5.1-102.4-1-6.1-1-8.7-1.5-3.1 0-4.6 0.5-1.5 6.7 0.5 19.4 5.1 39.9 14.9 23.5 10.7 52.2 35.8 23.1 20 44.6 45.6 16.9 19.9 40.9 53.2 21 29.2 45.1 39.4 14.8 5.2 24.5 3.6t14.9-10.2 7.7-19 2.5-23q0-24.6-6.1-49.2-1.5-6.1-4.1-14.3-7.2-22-21-43-26.6-40.4-69.6-63.5t-91.2-23q-33.8 0-64 11.2-40.9 14.4-72.2 45.6t-45.5 72.7q-0.5 2.6-2.1 7.7t-2.5 7.2q-6.2 25.6-5.7 49.1z" /></svg>