<svg height="512" width="482.8" xmlns="http://www.w3.org/2000/svg"><path d="m0.5 436.2q-1.5-18.4 3.6-30.7 20-71.7 47.1-122.4 58.4-110.6 160.3-180.2v-7.2q-30.3 12.8-61 33.8t-52.2 41.5-38.9 39.9-26.1 30.8l-8.7 11.7q-1-30.2 8.2-58.8t23-48.2 28.2-34.3 24-22l9.8-6.6q2-1.1 5.6-3.1t14.3-7.2 22.6-9.7 28.1-8.7 32.8-6.2 35.8-1 37.9 6.2q32.8-24.1 66.1-37.4t50.1-14.9l16.9-1.5q25.6-2.6 40 8.7t15.8 28.2-0.5 34.8-6.1 30.7l-4.6 12.3-2.6-2.6q10.8-29.2 10.8-48.1t-9.2-29.2-19-14.8-18.9-5.2l-8.2-1q-2.1 0-6.2 0.5t-16.4 2.6-25 6.7-31.3 12.8-35.3 20.9q35.3 5.7 63 21.5t44 36.4 28.2 43.5 15.8 45.6 6.7 39.9 2 28.7l-0.5 11.3h-285.2q-1.5 21.5 5.7 37.3t17.4 23.6 21 11.8 18.4 4.6l7.7 0.5q2 0 6.1-0.5t13.9-3.1 17.9-7.2 15.8-14.8 11.3-24.1h149.5q-8.2 30.2-24 54.8t-34.9 39.9-39.9 26.2-40.4 16.3-34.9 8.2-25.1 3.6h-9.7q-39.9 0-54.8-3.1-30.7 24.1-65 37.9t-53.2 15.4l-18.5 1.5q-23.5 0-39.9-12.3t-21.5-28.6-6.7-34.9z m38.9-3q-0.5 12.2 1.6 22t4.1 14.8l2 4.6q2.1 1.6 5.6 4.1t17.4 7.2 29.2 4.1 42-8.7 55.3-25.6q-4.1-1-11.3-3.1t-26.1-9.2-35.3-16.4-34.3-24.6-27.6-33.2q-11.3 17.4-16.9 34.3t-6.2 29.1z m144.9-217.1h135.7q0.5-18.5-6.1-32.3t-16.4-20-20-9.7-16.9-4.1l-7.2-0.5q-3 0-7.6 0.5t-16.9 4.1-21.5 9.7-16.9 20-7.2 32.3z" /></svg>