<svg height="512" width="512.0" xmlns="http://www.w3.org/2000/svg"><path d="m0 256q0-69.6 34.3-128.5t93.2-93.2 128.5-34.3 128.5 34.3 93.2 93.2 34.3 128.5-34.3 128.5-93.2 93.2-128.5 34.3-128.5-34.3-93.2-93.2-34.3-128.5z m51.2 0q0 85 59.9 144.9t144.9 59.9 144.9-59.9 59.9-144.9-59.9-144.9-144.9-59.9-144.9 59.9-59.9 144.9z m93.7 90.1q0 15.9 11.3 27.1t27.1 11.3q16.9 0 29.2-12.3t12.3-29.2v-137.7l102.4-18.9v106.5q-7.7-2.6-14.4-2.6-16.9 0-29.2 12.3t-12.2 29.2q0 15.8 10.7 27.1t26.6 11.3 28.7-11.8 13.3-27.6v-201.8l-148.5 25.6v153.6q-7.6-2.5-14.3-2.5-17.4 0-29.7 12.3t-12.3 29.1z" /></svg>