<svg height="512" width="613.9" xmlns="http://www.w3.org/2000/svg"><path d="m0 263.7v-17.4q0-57.9 43-100.9t110.1-43q69.6 0 126.5 57.3 10.7 10.3 27.6 31.8l49.2 64.5q19.9 26.6 26.6 33.3 37.9 37.9 75.2 37.9 30.2 0 49.2-20.5 16.9-16.9 19.4-43.5 0.6-2.6 0.6-7.2 0-11.3-3.1-21-4.6-15.9-16.9-29.2 0-0.5-0.5-0.5-19.5-20.5-48.7-20.5-39.9 0-75.2 37.9l-43.5-56.8q-3.1-4.1-5.2-6.7 28.2-30.7 57.9-44t68.6-13.3q63.5 0 109.6 43h0.5l0.5 0.5q42.5 42.5 42.5 110.1 0 15.3-2.6 32.2-8.2 45.6-40.4 78.4-31.3 31.7-76.8 40.4-16.9 2.6-31.8 2.6-71.6 0-126.9-55.8-11.8-11.8-28.7-34.3l-49.2-63.5q-19.9-26.6-26.6-33.3-37.9-37.9-76.3-37.9-11.2 0-20.5 3.1-14.8 4.1-28.1 17.4-14.9 16.4-18.4 36.4-1.6 7.1-1.6 14.3 0 29.2 19 49.7l1 1q20 20.5 49.6 20.5 40.5 0 75.3-38.4l43 56.3 4.6 6.1q-29.2 31.3-58.9 44.6t-66.5 13.3q-67.1 0-110.6-42.5v-0.5q-32.3-32.3-39.9-78.4-2.6-12.8-2.6-24z" /></svg>