<svg height="512" width="566.3" xmlns="http://www.w3.org/2000/svg"><path d="m0 313.9v-77.4q0-5.1 3.6-9.2t9.2-4.1h135.7l-58.9 102.9h-76.8q-5.6 0-9.2-3.5t-3.6-9.3z m62.5 124.9l33.8 19.4z m5.1-22.5q-1.6-5.7 1-10.3l155.7-270.3q2.5-4.6 7.6-6.2t9.8 1.6l33.2 18.9q5.2 2.6 6.7 8.2t-1.5 10.2l-155.2 270.4q-2.5 4.6-8.2 6.1t-10.2-1.5l-33.3-19.5q-4.6-2-6.1-7.6z m157.7-90.2l58.9-102.9h34.3l48.1 102.9h-141.3z m39.9-320q0.5-4.6 3.1-6.1 5.1-2.6 18.4 15.9t36.9 59.4 31.7 53.7q14.4 22.6 38.9 67.1t46.6 86.5 22.6 43q5.6 9.8-1.1 18.5t-15.8 12.3q-9.3 4-12.3 4.6t-15.4-3.6q-15.3-7.7-97.3-201.2-2.5-5.7-7.1-15.9t-8.7-19.5-9.8-21.5-9.7-22.5-8.7-21.5-7.2-20-4.1-16.9-1-12.3z m168 217.1h120.3q5.1 0 9.2 4.1t4.1 9.2v77.4q0 5.1-4.1 9.2t-9.2 4.1h-68.1q-2.1-8.2-4.1-11.8l-12.3-23.6q-32.8-61.9-35.8-67.5z m6.6 162.3q1.5-5.6 6.7-8.2l18.9-9.7q5.1-2.5 10.8-1t8.2 7.2l15.8 30.7q6.2 12.3-5.1 19.9l-13.8 8.2q-5.1 2.6-10.8 1.6t-8.7-6.7l-20.5-31.7q-3-5.1-1.5-10.8z m39.4 74.3q0.5-8.2 2.1-10.8t6.6-7.1l12.3-4.7q31.3-6.1 36.9 35.9 1.5 16.4-0.5 38.9-2.1-6.1-22.6-15.4t-28.1-19.9q-6.7-9.2-6.7-17.4z" /></svg>