<svg height="512" width="686.6" xmlns="http://www.w3.org/2000/svg"><path d="m0 235.5q0-17.9 1-53.7 12.3-4.1 24.6-4.1h9.2q8.7 11.7 20.5 35.8t15.9 31.2q1-3.5 4.1-18.9t5.1-22 5.6-19 8.2-21 10.2-15.8q14.4 2.5 23.6 2.5 3.1 0 5.6-0.5 12.3 27.7 23.6 83.5t20 79.3q-0.6 0-2.1-0.5l-1.5-0.5q-4.6 0-13.3 3.1t-11.3 3.6q-20.5-51.7-31.8-104-7.6 13.3-7.6 45.6t-5.7 45.1l-2.5-1.1q-4.1 0-11.3 1.1t-10.7 1h-9.3q-13.8-24.6-29.1-45.6-1.6 3.1-1.6 7.7t1.6 13.3 1.5 12.8l-0.5 6.1q-15.4 7.7-26.6 7.7-3.6 0-5.2-0.5-8.7-28.7-8.7-72.7z m181.8 38.9q0-13.8 4.1-29.7t14.3-29.1 24.1-13.9q5.1 0 14.3 2.6t11.8 3.1q4.6 20.4 4.6 41.4 0 14.4-3.1 28.2-6.1-2.1-19.5-2.6t-18.9-2q-2.6 10.2-2.6 18.9 0 10.8 5.2 19t15.3 8.2q4.6 0 13.3-2.6t13.3-2.6q8.8 0 11.8 7.2-21.5 8.2-42 8.2-23.5 0-34.8-15.4t-11.2-39.9z m29.7-14.3l4.1-0.5q1.5 0 4 1t3.6 1l3.6-1.5q1-7.2 1-11.3 0-9.2-2.5-20.4-11.3 12.8-13.8 31.7z m56.3 27.6q0-62.9 39.9-93.1 16.4 1.5 30.7 11.7-0.5 8.7-4.1 34.3-2.5 20-2.5 33.3v7.2q-10.3 1-14.9 1-4.1 0-22-2.5-2.5 6.1-2.5 11.7 0 11.3 8.7 19.5t19.9 8.2q13.3 0 21-11.8 9.2 3.1 10.8 8.7-11.3 10.8-32.3 10.8-18.9 0-35.8-10.3t-16.9-28.1z m28.6-22q2.1 3.1 7.2 3.1h4.6q4.6-9.7 4.6-25.1 0-6.6-3-20-1.6 4.1-5.2 12.8t-6.1 15.9-2.6 13.8z m50.7-9.7q-1-13.3 11.8-13.3 3.1 0 9.2 0.5t8.7 0.5q1.6-7.7 1.6-15.9 0-14.8-4.1-44.5t-4.1-44.5q0-22.1 5.1-36.9 2.6 1.5 13.8 3.1t21 12.8q-3.1 13.3-3.1 34.3 0 10.2 2.1 41.4 1 18 1 31.3 0 10.2-0.5 17.4h3.1q3.6 0 4.6-3.1t1-6.7 2.1-3.5q4 0 9.7 4.6t11.8 11.2 7.6 8.2q-4.6 3.6-21 4.6t-19.9 2.1q-0.5 6.1-0.5 18.4 0 8.2 0.5 16.9t1 19.5 0.5 16.9q-4.1 0.5-11.8 1t-11.2 1v-10.2q0-10.8-1.6-29.2-2-22.5-2-31.2-3.1-1.1-16.4-2.1t-19.5-5.1z m110.1-4.1q0-10.2 1-29.7 5.7 0.5 10.3 2.6t10.7 5.6 9.2 5.1l-0.5 13.8q0 30.3 4.6 59.4 9.8-3.5 15.9-11.7t8.7-21.5 3.1-21.5 1-23.1v-5.6q1.6 0.5 4.6 0.5 10.3 1 25.1 12.8 0 1.5 0.5 5.1t0.5 5.1q0 7.7-2 15.4t-4.1 11.3-7.7 12.8-7.2 11.7q-7.6 6.2-17.4 21.5-10.7 3.6-19.4 3.6-36.4 0-36.4-72.7z m102.4 55.3q3.6-3.1 12.3-5.1 0-1.6 0.5-4.6 2.1-17.9 3.6-29.2t6.7-30.2 11.2-30.7 18.5-20.5 27.1-9.2q17.4 0 38.9 12.3 8.7 18.9 8.7 38.4 0 33.7-24.1 60.9t-57.8 34.8q-1 16.4-1 24.6 0 37.3 9.2 59.9-4.1-1-19-1-7.6 0-11.2-1.1-4.6-10.7-8.7-49.1t-15.4-51.2z m46.1-12.8q20-5.1 33.8-24.6t13.8-40.4q0-15.4-7.7-28.7-11.7 10.8-20.4 28.7t-11.8 30.7-7.7 34.8z" /></svg>