<svg height="512" width="651.8" xmlns="http://www.w3.org/2000/svg"><path d="m0 238.6v-26.1q0-19.5 44.5-33.3t108.1-13.8 108 13.8 44.6 33.3v26.1q-0.6 19.4-45.1 33.3t-107.5 13.8-107.5-13.8-45.1-33.3z m146.9-124.4v-13.8q1.1-9.8 32.8-16.9t76.3-7.2 76.3 7.2 32.8 16.9h0.5v13.8h-0.5q-1.1 10.2-32.8 17.4t-76.3 7.2-76.3-7.2-32.8-17.4z m108.1 252.9v-32.8q2-28.6 59.9-48.6t138.7-20 138.8 20 59.9 48.6v32.8q-1.5 28.2-59.4 48.1t-138.8 20-138.7-20-59.9-48.6z m116.7-174.6v-21.5q1-14.8 38.9-25.1t90.1-10.2 90.1 10.2 39 25.1v21.5q0 14.9-37.9 25.6t-91.2 10.8-91.1-10.8-37.9-25.6z" /></svg>