<svg height="512" width="537.6" xmlns="http://www.w3.org/2000/svg"><path d="m0 313.9q5.1-71.2 86-88.6 6.2-45.6 22-98.3t36.9-74.8q24.6-25.1 61.4-38.9t74.8-13.8q44 0 84 20t59.9 56.3q9.7 18.4 21.5 67t15.8 79.4q7.7 3.1 17.4 3.1 15.4 0 15.4-14.9 0-5.6-3.1-17.4t-2.5-18.4v-2.1h0.5q13.8 0 31.2 26.2 17.4 26.6 17.4 41.4 0 10.3-5.1 18.5t-9.7 12.8-16.9 9.2-16.9 5.6l-18.4 4.1q-2.6 0.5-4.1 1v13.3q0 88.6-39.5 129.6l12.8 12.8q2.1 1 12.8 6.1t18.5 9.7 9.7 9.3q-33.3 26.1-67.6 26.1-17.4 0-38.4-8.7-45 18.9-92.2 18.9-60.4 0-119.8-31.2-18.4 4.1-28.1 9.7-3.6 2.1-13.8 9.2t-19 12.3-14.3 5.1q-1.6-9.2-1.6-18.9 0-40.5 27.2-64.5-30.7-50.7-31.8-131.6l-3.6-0.5h-1.5q-15.3-0.5-38.9 8.7-24.6 9.2-32.8 9.7-2 0-5.1-1z m118.8 47.6q0 6.6 3.6 13.8 13.8 49.1 45.5 70.7 22.1 14.8 54.3 24t59.9 9.2q33.8 0 74.8-14.3t61.4-36.9q34.8-37.3 34.8-131.6 0-115.7-47.1-194-6.1-10.2-9.2-14.3t-9.7-8.2-16.9-4.1q-25.6 0-54.8 31.2-38.9-24.1-71.7-24.1-30.2 0-53.7 22.1t-36.4 53.7-21.5 72.2-11.3 72.2-2.5 58.9z m92.7-208.4q0-11.3 8.1-19.5t19-8.2q11.3 0 19.4 8.2t8.2 19.5-8.2 18.9-19.4 7.7q-10.8 0-19-7.7t-8.1-18.9z m28.6-9.2q0 6.1 6.2 6.1 2.5 0 4.6-2t2-4.6-2-4.6-4.6-2.1q-6.2 0-6.2 6.7z m48.2 30.7l1-1-0.5 1.5z m2.5-2.6l26.6-26.6 26.2 26.6q-11.3 3.6-25.6 3.6-14.9 0-27.2-3.6z m1 11.3q13.9 2.6 25.6 2.6 11.3 0 25.1-2.6l-25.1 25.1z m53.8-8.2v-1.5l0.5 1z m13.8-22q0-11.3 8.2-19.5t19.5-8.2 19.4 8.2 8.2 19.5-8.2 18.9-19.4 7.7-19.5-7.7-8.2-18.9z m28.7-9.2q0 2.5 2 4.6t4.1 2q2.6 0 4.6-2t2.1-4.6q0-6.7-6.7-6.7-2.5 0-4.6 2.1t-2 4.6z" /></svg>