<svg height="512" width="455.2" xmlns="http://www.w3.org/2000/svg"><path d="m0 230.9q0-62.5 30.7-115.7t83-84.5 114.1-31.2q94.2 0 161.3 67.6t67.1 163.3q0 60.9-29.2 113.2t-78.8 83.4q0.5 1 2 3.6t6.2 8.2 10.7 11.2 16.9 11.3 23 8.7v38.9q-18.4 3.6-34.3 3.6-25.6 0-43.5-9.2-28.7-14.9-46.6-48.1-24.6 6.6-53.7 6.6-61.5 0-114.2-31.2t-83-84-30.7-115.7z m113.2 30.2q0 59.4 34.3 101.9t82.4 42.5q13.3 0 26.6-4.1-1-1.5-3.1-4.6t-7.6-9.7-12.3-12.3-15.9-10.3-18.9-5.1v-45q5.1-0.5 10.2-0.5 60.9 0 103.9 46 32.3-41.4 32.3-99.3v-59.4q0-59.4-34.3-101.9t-82.4-42.5-82.5 42.5-34.3 101.9v59.4z" /></svg>