<svg height="512" width="440.8" xmlns="http://www.w3.org/2000/svg"><path d="m0 364.5q0-22.5 16.4-38.9t39.4-16.4q22.5 0 38.9 16.4t16.4 38.9q0 23.6-17.4 40 33.3 37.9 83.5 37.9 35.3 0 59.3-21 24.1-21.5 24.1-54.3 0-20-12.8-39.4-11.8-19.5-30.7-32.8-17.4-11.8-58.9-29.2-38.4-15.3-62.5-30.2-21.5-13.8-37.3-32.7-15.4-18.5-23.6-37.9-7.2-20-7.2-40.5 0-51.7 41.5-88 42-36.4 100.9-36.4 39.4 0 79.3 16.9 33.8 14.3 57.9 41 18.9 16.3 18.9 40.9 0 23.1-16.3 39.4t-39 16.4q-23 0-39.4-16.4t-16.4-39.4q0-10.7 5.2-22.5-16.4-8.2-45.1-8.2-35.3 0-57.3 15.9t-22.1 40.9q0 22 19.5 38.9 20.5 16.9 65.5 36.4 47.1 20.5 72.2 37.4 26.1 17.4 42 37.9 16.9 20.9 24.6 43.5 0 0.5 0.5 1.5t0.5 1.5q-38.4 31.8-38.4 80.9 0 27.2 14.3 53.3-5.6 6.6-12.2 13.8-44.6 42-105.5 42t-106.5-32.8-71.2-99.3l1.6-0.5q-2.6-7.7-2.6-14.9z m313.9 38.4q0 26.7 18.4 45.6t45 19 45.1-19 18.4-45.6q0-26.1-18.4-45t-45.1-19-45 19-18.4 45z" /></svg>