<svg height="512" width="551.9" xmlns="http://www.w3.org/2000/svg"><path d="m0 214q0-62.4 47.6-107.5 29.7-28.2 68.6-38.4t78.4 1 70.6 43.5q22.5 23.6 32.3 54.8t7.7 59.4-12.3 52.8q-9.8 20.9-1.6 47.6t20.5 45.5 26.1 35.4 13.8 16.9l-5.6-4.6q-5.1-5.2-11.3-10.8t-15.8-13.3-19.5-13.8-22-12.8-23-9.8-23.1-4.1-22 3.6q-24.1 9.8-53.2 10.3t-59.9-11.3-52.8-35.3q-44-46.6-44-109.1z m67.6-10.2q-4.6 35.3 17.4 64t57.3 33.3 63.5-17.5 32.8-57.3-16.9-63.5-56.8-32.8-64 16.9-33.3 56.9z m244.7-150.6q10.8-30.2 37.9-45t57.9-4.6q29.7 9.2 44.5 36.8t4.6 59.4q-12.3 36.9-58.4 53.3-15.8 5.6-28.6 17.4t-17.9 19.5-11.8 20.9q11.2-48.1-12.3-81.4-28.2-40.9-15.9-76.3z m19.5 253.5q1-47.1 32.2-79.4t77.9-32.2q45.5 0 77.8 31.7t32.2 80.4q0 56.3-56.3 99.8-19.4 14.9-31.7 36.4t-15.9 34.8-6.7 34.3q-2-20.5-5.1-34.3t-15.3-35.8-33.3-37.9q-56.8-42.5-56.3-97.8z m19.4-241.7q-5.6 13.8 0.5 28.2t20 20 27.7 0 19.4-19.5q5.6-14.3 0-28.2t-19.4-19.4-28.2 0-20 19.4z m34.3 263.7q9.8 23.6 33.8 33.8 23.6 9.7 47.1-0.5t33.3-33.8 0-47.1-33.3-33.8q-23.5-9.7-47.1 0t-33.3 33.3q-9.7 24-0.5 47.6z" /></svg>