<svg height="512" width="671.7" xmlns="http://www.w3.org/2000/svg"><path d="m0 194.6q0-28.2 20-48.2t48.1-19.9q24.1 0 43 15.3t24.1 38.4l257 103.4q16.4-9.7 34.8-9.7 1 0 3.6 0.5t4.1 0.5l56.3-81.4q0.5-37.3 27.1-64t64-26.6q37.9 0 64.6 26.6t26.6 64.5-26.6 64.6-64.6 26.6l-87 63.5q-2.6 26.1-22 44t-45.6 17.9q-24.6 0-43-15.3t-23.5-38.4l-257.1-102.9q-16.3 9.7-34.8 9.7-28.1 0-48.1-20t-20-48.1z m17.9 0q0 20.4 14.9 35.3t35.3 14.8q4.6 0 10.7-1l-20.9-8.2v-0.5q-14.4-6.6-20.5-21.5-3.1-7.2-3.1-14.3 0-7.7 3.1-15.4 6.1-15.4 20.5-21.5 7.6-3.6 15.8-3.1 6.7 0 13.9 2.6v-0.5l25 10.2q-14.8-26.6-44.5-26.6-20.5 0-35.3 14.8t-14.9 35.9z m363.5 170.5q14.9 26.6 44.6 26.6 20.5 0 35.3-14.9t14.9-35.8q0-20.5-14.9-35.3t-35.8-14.9q-7.2 0-10.8 1l20.5 8.2q15.4 6.2 22 21.5 3.6 7.7 3.6 15.4 0 7.2-3.1 14.8-6.1 15.9-21.5 22.1-7.7 3-15.3 3-7.2 0-14.9-3-4.1-1.6-12.8-5.2t-12.8-5.1z m138.3-171.6q0 25.1 17.9 43t43 18q25.6 0 43.5-18t17.9-43-17.9-43-43.5-17.9q-25.1 0-43 17.9t-17.9 43z m12.8-0.5q0 20.5 14.3 34.8t34.8 14.4q20 0 34.3-14.4t14.4-34.8q0-19.9-14.4-34.3t-34.3-14.3q-20.4 0-34.8 14.3t-14.3 34.3z" /></svg>