<svg height="512" width="342.0" xmlns="http://www.w3.org/2000/svg"><path d="m0.5 173.1q-5.6-77.4 64.5-129.1 32.3-24 74.3-35.8 39.9-11.8 89.6-5.6t92.6 30.2q-1 20.4 0 38.9 3.1 60.9-5.1 78.3-4.6-0.5-26.6-7.2-18.4-5.6-33.8-8.1-15.9-3.1-31.2-4.1-35.9-3.1-50.7 19.4 4.1 22.5 19.4 33.8 15.4 10.8 42 19 25.1 7.1 35.3 13.3 57.9 35.8 71.2 112.1v43.5q0 41.5-23 73.2t-61 47.6q-53.7 22.6-125.4 20t-122.9-30.7q1.6-21 0-40.5-1.5-21.5-1-41.4 1-22 6.1-35.4 9.3 1.6 24.6 5.7 27.2 7.7 37.9 9.7 84.5 18.4 90.6-20.5 1.6-11.2-5.6-21t-17.9-15.3q-14.4-7.2-24.6-11.3-14.8-6.1-18.9-8.7-22.6-11.8-30.2-16.4-29.2-17.4-41-34.8-27.7-39.4-30.7-78.8z" /></svg>