<svg height="512" width="629.8" xmlns="http://www.w3.org/2000/svg"><path d="m0 454.1q15.4 1.6 30.7 1.6 90.1 0 160.8-55.3-42-0.5-75.3-25.6t-45.5-64q10.2 2 24 2 17.9 0 34.3-4.6-45-8.7-74.7-44.5t-29.7-82.5v-1.5q27.1 15.4 58.9 15.9-26.7-17.4-42.5-46.1t-15.9-61.9q0-34.9 17.9-65.1 48.1 59.9 117.8 95.8t149 39.9q-3.6-16.9-3.6-29.7 0-53.2 37.9-91.1t91.6-37.9q55.8 0 94.2 40.9 44.6-9.2 81.9-31.7-14.3 46.6-56.3 71.7 37.4-4.6 73.7-20.5-24.5 38.4-64 67.1v16.9q0 51.7-15.3 103.9t-46.1 99.3-74.2 84.5-103.5 58.9-129.5 22q-107 0-198.1-57.8z" /></svg>