<svg height="512" width="586.8" xmlns="http://www.w3.org/2000/svg"><path d="m0 139.3q28.2-33.3 56.3-59.4t49.2-40 37.3-22 24.6-11.2l8.7-2.1q6.2-1 12.3-1 9.7 0 17.9 3.1 13.3 5.1 22.1 17.9t14.8 28.1 11.3 36.9 7.6 39.9 7.2 41 7.7 36.3q16.4 64 26.6 91.2t21.5 27.1q12.3 0 34.3-28.7t48.2-77.8q13.3-24.6 13.3-46.6 0-6.6-1.1-11.7-4.6-26.7-26.1-33.3-5.6-2.1-12.3-2.1-17.9 0-42.5 13.3 11.3-66.5 68.7-107 43.5-30.7 89-30.7 6.2 0 12.3 0.5 52.3 4.1 71.2 46.1 9.2 19.5 9.2 45.1 0 14.8-3.1 31.2-9.2 52.2-35.8 106.5t-57.9 96.2-68.1 79.4-63.4 59.9-46.6 35.3q-21.5 12.3-40.5 12.3t-35.8-10.7-28.7-24.6-19.4-29.2q-9.3-19.4-50.2-153.1t-49.7-143.8q-0.5-1.1-2-2.1t-7.2-2.6-12.3 0-18.9 7.2-25.6 16.9z" /></svg>