<svg height="512" width="624.6" xmlns="http://www.w3.org/2000/svg"><path d="m0 100.4q5.1-4.1 12.8-6.2 7.2-2 12.8-2h4.6q5.1 0 12.3 0.5 11.3 0.5 16.4 0.5 3.1 0 19.4-1 8.2-0.6 14.9-0.6t11.8 0.6q10.2 1 16.3 4.1 3.1 1.5 6.7 6.6t6.1 9.7 6.2 13.4 5.1 11.2q19.5 42 48.1 83.5 1.1 1.5 3.6 5.6t4.6 6.7 4.6 6.1 5.7 5.6 5.6 4.6 6.1 3.1 6.2 0q14.3-2.5 15.9-59.9 0.5-9.7 0.5-17.9 0-37.9-7.7-52.2-3.1-5.7-8.2-9.2t-12.8-6.2-11.8-5.6q7.2-14.4 25.6-19t49.7-4.6h27.1t13.3 0.5 13.9 1.6l11.2 3t10.3 4.7 6.6 7.1q4.6 9.2 5.7 21.5 0 3.6 0.5 7.2 0 10.2-1.6 26.6-2 21.5-2 26.6-1.6 11.8-1.6 23.6 0 9.2 1.1 19.4 2 22.6 15.3 31.3 4.6-0.5 8.7-2.1t8.2-5.6 5.7-6.1 6.6-8.7 5.6-7.2q24.1-31.8 48.2-83.5l4.6-11.7t6.1-13.9 6.2-10.2 8.2-7.2q8.2-3.6 19.4-3.6h4.6q10.3 0 23.6 1.1 16.4 1 24 1 4.6 0 14.4-0.5t16.9-1.1 15.3 0.6 13.3 3 7.2 6.7q1.5 3.1 1.5 6.6 0 14.9-17.9 44.6-8.7 14.8-17.9 27.1t-23.5 29.7-19 24.1q-1 1-7.2 9.2t-9.2 12.3-6.1 11.8-2.6 13.8q0 4.1 1.6 7.7t5.1 7.6 5.1 6.2 7.2 6.6 6.1 5.7q36.4 33.3 57.4 59.9 20.4 26.6 20.4 38.4 0 16.9-26.1 21-13.3 2-27.1 2-10.8 0-22-1.5-10.3-1-19-1-13.3 0-23 2.5h-3.1q-33.8-5.6-71.2-48.1-2-2.1-8.7-10.8t-11.2-13.3-11.8-8.7-13.8-3q-11.8 2-15.9 14.8t-4.6 30.7-5.1 25.1q-6.7 12.3-40.5 12.3-14.3 0-33.8-2-39.9-4.1-72.7-20.5t-51.7-34.8-41.4-47.7q-53.3-68.1-100.9-164.8-1.5-3.1-5.6-11.8t-6.2-13.3-5.1-12.3-4.1-14.3-1.5-13.9z" /></svg>