<svg height="512" width="576.0" xmlns="http://www.w3.org/2000/svg"><path d="m0 103.9h39.4l54.8 185.9 36.9-124.9-17.9-61h39.4l54.8 185.9 54.7-185.9h148.5v18.5l-55.8 96.2q29.7 10.3 44 34.3 15.4 25.6 15.4 58.4 0 42-22 70.1t-57.4 28.2q-26.1 0-46-16.9-20-17.4-28.7-45.6l30.7-12.8q6.7 17.4 17.9 27.7 10.3 9.7 26.1 9.7t26.7-17.4q11.2-17.4 11.2-43 0-26.6-11.7-42.5-13.9-17.4-42.5-17.4h-15.4v-18.4l52.7-91.2h-63.4l-3.6 6.2-77.9 261.6h-3.5l-56.4-189.4-56.8 189.4h-3.6z m418.8 213.5l9.2 25.6q7.7 16.9 16.9 29.7 21.5 29.7 48.2 34.3 23 4.6 45-9.2 9.7-6.1 17.9-15.8 10.3-10.3 14.4-18.5 2-3.6 5.6-10.2l-5.6-30.2q-4.1 8.2-8.2 14.3t-6.2 8.7l-2 2.1q-17.4 18.9-31.2 25-16.9 7.7-34.9 5.7-13.8-1-30.7-12.3-18.4-15.9-22-22-6.7-9.2-16.4-27.2z m13.8-99.8q0-43 16.9-74.8 8.2-15.3 19.5-24.5t22-10.3q17.9-2 35.8 13.3 9.3 7.7 19 25.6l22.5-44.5 6.2 38.9-22.6 43.5q-4.1-8.2-9.7-15.3t-9.2-10.3l-4.1-3q-15.9-11.3-32.8-7.7-12.3 2.5-24.5 15.3t-18 30.2q-9.7 28.2-9.7 54.3-0.5 20.5 2.6 32.3-6.2-11.3-9.8-27.2t-3.5-26.1z" /></svg>