<svg height="512" width="632.3" xmlns="http://www.w3.org/2000/svg"><path d="m0 344.1q0-82.5 94.2-177.7 59.9-59.4 120.8-82.9 28.7-11.8 49.7-11.8 23 0 36.9 13.8 13.3 13.3 13.3 36.9 0 15.8-6.2 36.8-2 7.2 1.6 9.2t8.2 0.6l5.1-2.1q49.1-20.5 87-20.5t54.3 21.5q7.7 11.3 7.7 26.7 0 15.8-8.2 36.3-3.6 5.1-1.6 8.7t4.1 4.6 7.7 2.6q31.8 9.7 54.3 31.7t22.5 54.8q0 30.2-21 62t-57.3 57.8-91.1 43-117.3 16.9q-67.1 0-127-19.9t-99.3-58.9-39.4-89.6z m64 24.5q5.1 51.8 64 82.5 47.1 25.1 107 25.1 14.9 0 30.7-1.6 78.4-7.7 130.6-49.6 47.1-38.4 47.1-84.5 0-4.6-0.5-9.2-5.1-51.2-64-82-47.6-25-107.5-25-14.9 0-30.2 1.5-51.8 5.1-93.7 26.1t-64.6 51.7q-19.4 27.2-19.4 55.8 0 4.6 0.5 9.2z m81.9 31.8q-6.6-14.9-6.6-30.2 0-17.9 9.2-35.9 15.9-32.7 53.2-49.1 23.1-10.3 46.6-10.3 13.8 0 27.7 3.6 38.9 10.3 55.8 42 8.7 16.4 8.7 33.8 0 16.4-7.7 33.3-15.9 36.3-55.8 53.2-22.5 9.8-45.1 9.8-17.4 0-34.3-5.7-37.3-11.7-51.7-44.5z m28.7-9.7q3.1 12.8 15.4 17.9 6.6 3 13.8 3 6.1 0 12.3-2 14.3-4.6 22-16.9 5.1-8.2 5.1-16.4 0-3.6-1.5-7.7-3.1-12.2-15.4-17.4-6.7-2.5-13.3-2.5-6.2 0-12.8 2-13.8 4.6-21 16.4-5.6 8.2-5.6 16.9 0 3.6 1 6.7z m72.2-40.5q1.5 4.6 6.6 6.7 2.6 1 5.2 1t5.1-1q5.6-2.1 8.2-6.7t1-9.2-6.1-6.7q-4.7-1.5-10.3 0.5t-8.2 6.7q-1.5 3.1-1.5 6.1v3.1z m164.3-317.9q-0.5-2.6-0.5-5.2 0-6.6 4.1-12.8 5.1-8.2 14.9-10.7 17.4-3.6 34.8-3.6 26.1 0 51.2 7.7 42.5 13.8 73.2 47.6t39.9 78.3q3.6 18 3.6 34.8 0 26.2-8.2 50.2v0.5q-3 9.3-11.7 13.9-5.7 2.5-11.3 2.5-3.6 0-7.7-1-9.7-3.1-13.8-11.8-2.6-5.6-2.6-10.7 0-4.1 1-7.7v-0.5q5.7-17.4 5.7-35.9 0-11.7-2.1-24.5-6.6-31.8-28.6-55.8t-52.3-33.8q-17.9-5.2-35.8-5.2-12.3 0-25.1 2.6-2.6 0.5-5.1 0.5-7.2 0-13.3-4.1-8.2-5.6-10.3-15.3z m20.5 80.3q-0.5-2.5-0.5-5.1 0-5.1 3.1-10.7 4.6-7.2 13.3-9.2 9.7-2.1 18.9-2.1 34.3 0 58.9 27.1 14.9 16.9 19.5 38.4 1.5 8.7 1.5 16.9 0 12.3-4.1 24.6-2.6 8.2-10.2 11.8-4.6 2.5-9.2 2.5-3.6 0-6.7-1-8.2-2.5-12.3-10.2-2-4.6-2-9.2 0-3.6 1-6.7 2-7.2 2-13.3 0-14.3-10.7-25.6-11.3-13.3-27.7-13.3-5.1 0-10.2 1-2.6 0.5-4.6 0.5-5.6 0-10.8-3.6-7.1-4.6-9.2-12.8z" /></svg>