<svg height="512" width="379.4" xmlns="http://www.w3.org/2000/svg"><path d="m0 301.1v6.6q0 22 3.1 35.3 2.5 9.3 9.7 13.4t14.8 1.5l104.5-32.3q11.3-3.6 15.9-13.3 2.5-5.1 2.5-10.2t-2.5-9.7q-4.6-9.8-16.4-13.4l-104.5-41.9q-7.1-1.6-14.3 4.1t-8.7 15.8q-4.1 18.5-4.6 45.1z m44.5-244.3q-2.5-4.1-2.5-8.2 0-4.6 3.1-9.2 6.1-8.7 19.4-13.8 41.5-15.9 87.6-23.6h2.5q23.1 0 25.1 19.5 12.8 160.3 12.8 201.2 0 16.9-13.8 20.5-3.1 1-6.2 1-10.7 0-18.9-12.8-75.8-118.8-109.1-174.6z m35.4 391.7l71.1-85q9.8-10.7 19.5-10.7 4.1 0 8.2 1.5 12.8 5.6 12.8 23 0 2.6-0.5 5.2v113.1q-1 7.2-8.7 11.3-4.6 2.5-9.2 2.5-4.1 0-8.2-1.5-18.5-3.1-43.6-13.3t-37.3-19.5q-9.2-7.1-9.2-15.3 0-5.7 5.1-11.8z m150.5-172.5q-3.1-6.2-3.1-11.8 0-8.7 7.7-16.9l66.6-91.7q3.6-4 10.2-4 1.5 0 3.6 0.5 8.7 1 14.8 9.2 12.8 13.3 27.2 36.3t18.9 37.9q1.6 4.1 1.6 7.7 0 4.6-2.1 8.2-4.1 6.6-11.8 8.2l-107 27.1q-4.1 1-8.2 1-11.7 0-18.4-11.2z m6.1 64q-4.6 6.1-4.6 12.3 0 8.1 6.7 16.3l58.4 97.3q3.5 4.6 12.2 4.6h1.6q9.7-0.5 16.9-7.7 13.8-12.2 28.7-32.2t21.5-35.8q2-5.7 2-10.8 0-3.6-1.5-6.7-2.6-7.1-9.8-9.7l-104.9-35.8q-5.1-2.1-9.7-2.1-10.8 0-16.9 9.8z" /></svg>