<svg height="512" width="486.4" xmlns="http://www.w3.org/2000/svg"><path d="m204.8 64c-128 0-204.8 102.4-204.8 153.6s25.6 89.6 76.8 89.6 76.8 12.8 76.8 51.2c0 51.2 38.4 89.6 89.6 89.6 166.4 0 243.2-89.6 243.2-179.2 0-153.6-128-204.8-281.6-204.8z m-32.3 51.2c18 0 32.3 14.3 32.3 31.7 0 18-14.3 32.3-32.3 32.3s-31.7-14.3-31.7-32.3 14.3-31.7 31.7-31.7z m102.4 0c18 0 31.8 14.3 31.8 31.7 0 18-14.3 32.3-31.8 32.3-17.9 0-32.2-14.3-32.2-32.3s14.3-31.7 32.2-31.7z m102.4 51.2c18 0 32.3 14.3 32.3 32.3s-14.3 32.2-32.3 32.2-32.2-14.3-32.2-32.2 14.3-32.3 32.2-32.3z m-294.4 25.6c18 0 31.8 14.3 31.8 31.7 0 18-14.3 32.3-31.8 32.3-17.9 0-32.2-14.3-32.2-32.3s14.3-31.7 32.2-31.7z m159.8 128c21 0 38.4 17.4 38.4 38.4s-17.4 38.4-38.4 38.4-38.4-17.4-38.4-38.4 17.4-38.4 38.4-38.4z" /></svg>