<svg height="512" width="435.2" xmlns="http://www.w3.org/2000/svg"><path d="m115.2 38.4l-115.2 102.4v204.8c0 12.8 12.8 25.6 25.6 25.6h91.1l49.7 89.6c7.2 12.8 12.8 12.8 25.6 12.8h51.2c12.8 0 18.4 0 25.6-12.8l49.7-89.6h91.1c12.8 0 25.6-12.8 25.6-25.6v-204.8l-115.2-102.4h-204.8z m-12.8 102.4h230.4v153.6h-230.4v-153.6z m25.6 25.6v102.4h179.2v-102.4h-179.2z m14.3 204.8h36.9v25.6h25.6v-25.6h25.6v25.6h25.6v-25.6h36.9l-14.4 25.6h-22.5v25.6h8.7l-8.7 15.9v-15.9h-25.6v25.6h-25.6v-25.6h-25.6v15.9l-8.7-15.9h8.7v-25.6h-22.5l-14.4-25.6z m62.5 51.2h25.6v-25.6h-25.6v25.6z" /></svg>