<svg height="512" width="486.4" xmlns="http://www.w3.org/2000/svg"><path d="m179.2 89.6c-76.8 0-153.6 38.4-153.6 102.4v51.2h435.2v-51.2c0-64-76.8-102.4-153.6-102.4z m12.8 25.6c7.2 0 12.8 5.6 12.8 12.8s-5.6 12.8-12.8 12.8-12.8-5.6-12.8-12.8 5.6-12.8 12.8-12.8z m102.4 0c7.2 0 12.8 5.6 12.8 12.8s-5.6 12.8-12.8 12.8-12.8-5.6-12.8-12.8 5.6-12.8 12.8-12.8z m-153.6 51.2c7.2 0 12.8 5.6 12.8 12.8s-5.6 12.8-12.8 12.8-12.8-5.6-12.8-12.8 5.6-12.8 12.8-12.8z m102.4 0c7.2 0 12.8 5.6 12.8 12.8s-5.6 12.8-12.8 12.8-12.8-5.6-12.8-12.8 5.6-12.8 12.8-12.8z m102.4 0c7.2 0 12.8 5.6 12.8 12.8s-5.6 12.8-12.8 12.8-12.8-5.6-12.8-12.8 5.6-12.8 12.8-12.8z m-320 102.4c-12.8 0-25.6 12.8-25.6 25.6s12.8 25.6 25.6 25.6h435.2c12.8 0 25.6-12.8 25.6-25.6s-12.8-25.6-25.6-25.6z m0 76.8v25.6c0 25.6 25.6 51.2 51.2 51.2h332.8c25.6 0 51.2-25.6 51.2-51.2v-25.6z" /></svg>