<svg height="512" width="435.2" xmlns="http://www.w3.org/2000/svg"><path d="m409.6 51.2c-14.8 0-28.2 4.1-37.4 13.8-9.2 9.2-13.8 22.6-13.8 37.4h-358.4l51.2 230.4h307.2v25.6h-281.6c-25.6 0-25.6 25.6 0 25.6h281.6c12.8 0 25.6-12.8 25.6-25.6v-256s2-16.4 5.6-20 9.2-5.6 20-5.6c3.1 0 7.7 0 10.2 0 12.8 0 15.4-6.1 15.4-12.8 0-6.1-2.6-12.8-15.4-12.8-3.5 0-6.6 0-10.2 0z m-89.6 332.8c-21 0-38.4 17.4-38.4 38.4s17.4 38.4 38.4 38.4 38.4-17.4 38.4-38.4-17.4-38.4-38.4-38.4z m-204.8 0c-21 0-38.4 17.4-38.4 38.4s17.4 38.4 38.4 38.4 38.4-17.4 38.4-38.4-17.4-38.4-38.4-38.4z" /></svg>