<svg height="512" width="435.2" xmlns="http://www.w3.org/2000/svg"><path d="m51.2 89.6c-28.2 0-51.2 23-51.2 51.2s23 51.2 51.2 51.2 51.2-23 51.2-51.2-23-51.2-51.2-51.2z m76.8 51.2c0 42.5-34.3 76.8-76.8 76.8h-38.4c-6.7 0-12.8 0-12.8 12.8 0 3.6 0 15.9 0 25.6 0 12.8 9.7 12.8 12.8 12.8h422.4v-51.2c0-25.6 0-76.8-128-76.8h-179.2z m-102.4 153.6c-12.8 0-25.6 12.8-25.6 25.6 0 25.6 0 54.8 0 76.8 0 12.8 12.8 25.6 25.6 25.6s25.6-12.8 25.6-25.6v-51.2h332.8v51.2c0 12.8 12.8 25.6 25.6 25.6s25.6-12.8 25.6-25.6v-76.8c0-12.8-12.8-25.6-25.6-25.6h-384z" /></svg>