<svg height="512" width="435.2" xmlns="http://www.w3.org/2000/svg"><path d="m217.6 25.6l-166.4 128h332.8z m-140.8 153.6c-14.3 0-23.6 11.8-25.6 25.6v179.2l-45.1 76.8c-3.5 6.7-6.6 9.2-6.6 12.8 0 12.8 16.4 12.8 25.6 12.8h384c9.2 0 25.6 0 25.6-12.8 0-3.6-2.1-5.6-6.7-12.8l-45-76.8v-179.2c0-14.3-11.3-25.6-25.6-25.6z m51.2 51.2c12.8 0 25.6 0 38.4 0s25.6 25.6 25.6 25.6l25.6 64 25.6-64c5.6-14.3 12.8-25.6 25.6-25.6s25.6 0 38.4 0c14.3 0 25.6 11.3 25.6 25.6v128c0 12.8-12.8 25.6-25.6 25.6s-25.6-12.8-25.6-25.6v-102.4l-38.4 76.8s-12.8 25.6-25.6 25.6-25.6-25.6-25.6-25.6l-38.4-76.8v102.4c0 12.8-12.8 25.6-25.6 25.6s-25.6-12.8-25.6-25.6v-128c0-14.3 11.3-25.6 25.6-25.6z" /></svg>