<svg height="512" width="332.8" xmlns="http://www.w3.org/2000/svg"><path d="m153.6 12.8c-28.2 0-51.2 23-51.2 51.2s23 51.2 51.2 51.2 51.2-23 51.2-51.2-23-51.2-51.2-51.2z m-147.5 102.4l12.8 51.2c6.7 25.6 21.5 25.6 41 25.6h42.5c15.4 25.6 8.2 63.5 12.8 102.4h-23c-25.6 0-66.6 25.6-41 76.8l38.4 76.8c25.6 51.2 64 12.8 51.2-12.8l-38.4-76.8c-6.7-12.8 6.7-12.8 12.8-12.8h63s30.2 67.1 66 113.2c13.3 16.8 27.7 40.4 46.1 40.4 12.8 0 34.8-20 11.3-47.6-43.6-52.2-71.2-106-71.2-131.6 0-29.7-5.1-92.7-12.8-128h38.4c12.3 25.1 32.3 64 32.3 64 14.3 24.6 45 22.5 45 0 0-3.1 0-9.7-3.6-17.4l-41.4-85c-2.6-5.6-6.7-12.8-25.6-12.8h-198.7l-19.5-64c-7.6-25.6-45-25.6-45 0 0 12.8 4.6 28.2 6.6 38.4z" /></svg>