<svg height="512" width="435.2" xmlns="http://www.w3.org/2000/svg"><path d="m25.6 76.8c-14.3 0-25.6 11.3-25.6 25.6v307.2c0 14.3 11.3 25.6 25.6 25.6s25.6-11.3 25.6-25.6v-51.2h76.8v51.2c0 14.3 11.3 25.6 25.6 25.6s25.6-11.3 25.6-25.6v-51.2h76.8v51.2c0 14.3 11.3 25.6 25.6 25.6s25.6-11.3 25.6-25.6v-51.2h76.8v51.2c0 14.3 11.3 25.6 25.6 25.6s25.6-11.3 25.6-25.6v-307.2c0-14.3-11.3-25.6-25.6-25.6s-25.6 11.3-25.6 25.6v51.2h-76.8v-51.2c0-14.3-11.3-25.6-25.6-25.6s-25.6 11.3-25.6 25.6v51.2h-76.8v-51.2c0-14.3-11.3-25.6-25.6-25.6s-25.6 11.3-25.6 25.6v51.2h-76.8v-51.2c0-14.3-11.3-25.6-25.6-25.6z m25.6 128h76.8v102.4h-76.8v-102.4z m128 0h76.8v102.4h-76.8v-102.4z m128 0h76.8v102.4h-76.8v-102.4z" /></svg>