<svg height="512" width="537.6" xmlns="http://www.w3.org/2000/svg"><path d="m326.7 25.6c-24.6 0-45.1 20-45.1 45.1s20 45 45.1 45 45-20 45-45-20-45.1-45-45.1z m-204.8 51.2c-24.6 0-45.1 20-45.1 45.1s20 45 45.1 45 45-20 45-45-20-45.1-45-45.1z m237 51.2c-9.7 0-25.1 3.6-38.4 12.8l-83.4 59.4c-22.6 15.9-2.1 44.5 19.4 30.2l54.3-35.8s35.8 76.8 22.5 112.6c-0.5 1-1 2-1 3.1l-55.8 149c-6.7 16.9 6.1 27.1 18.4 27.1 8.2 0 15.9-5.1 20-14.3l69.6-164.9s12.8 76.8 64 76.8c30.7 0 53.3 0 70.7 0 19.4 0 19.4-19.5 19.4-19.5s0-19.4-19.4-19.4c-12.8 0-45.1 0-57.9 0-27.1 0-25.6-41-25.6-64 0-38.4-25.6-102.4-25.6-102.4l76.8 51.2c23.1 15.3 43.5-11.8 21-28.7l-85-60.9c-15.3-10.8-20.5-12.8-38.4-12.8 0 0-12.8 0-25.6 0z m-268.8 51.2c-12.8 0-18.9 6.1-25.6 12.8l-54.3 54.3c-7.1 7.1-9.7 13.3-9.7 22.5 0 12.8 19.5 18.9 30.2 8.2l46.6-46.6c25.6 0 35.3 64 25.6 89.6l-38.4 102.4c-10.7 28.2 29.2 36.9 38.4 12.8l38.4-102.4s12.8 25.6 38.4 25.6h76.8c25.6 0 25.6-38.4 0-38.4h-64c-12.8 0-12.8-25.6-12.8-38.4 0-51.2-25.6-102.4-51.2-102.4z" /></svg>