<svg height="512" width="486.4" xmlns="http://www.w3.org/2000/svg"><path d="m230.4 51.2c-25.6 0-51.2 12.8-51.2 51.2 0 13.8 1 15.9 4.1 28.2l17.4 72.7-95.2 58.3-86.6-50.1c-3-1.6-6.6-1.6-11.2-1.1-4.6 1.1-8.2 6.2-8.2 11.8s2.5 8.7 6.6 11.3l371.2 217.6c11.8 6.6 22.1 9.2 32.3 9.7 6.7 0 13.8-1 19.5-3.1 13.8-5.6 22-15.8 28.1-21.5 3.1-3 4.1-6.6 4.1-10.2 0-5.6-3.1-11.3-10.2-11.8-4.6-0.5-8.2 1-11.3 4.6-6.1 7.7-13.3 13.3-20 15.9s-13.8 3.1-28.6-5.6l-237.6-139.3 92.2-53.8c8.7-5.6 12.8-17.4 10.2-27.1l-10.2-42.5 91.6 53.8 17.4 66c2.1 7.2 7.2 13.8 14.4 16.9l58.3 25.6c41 17.9 47.1-21 21-32.3l-48.1-20.9-41-159.8-78.3-45c-20-11.8-36.9-19.5-49.7-19.5z m204.8 51.2c-28.2 0-51.2 23-51.2 51.2s23 51.2 51.2 51.2 51.2-23 51.2-51.2-23-51.2-51.2-51.2z" /></svg>