<svg height="512" width="435.2" xmlns="http://www.w3.org/2000/svg"><path d="m284.7 89.6c-4.1 0-11.3 2.6-14.4 4.1l-102.4 49.7c-13.8 6.6-18.4 26.1-9.7 38.4l31.2 42.5-114.1 88.5 52.7 16.9 68.6-22.5c2.6-1 5.1-1.5 8.2-1.5s5.1 0.5 8.2 1.5l68.6 22.5 35.8-11.7-98.3-142.4 77.9-39.4c15.3-7.7 14.3-21 12.8-28.7s-10.8-17.4-24.6-17.4z m48.1 76.8c-28.2 0-51.2 23-51.2 51.2s23 51.2 51.2 51.2 51.2-23 51.2-51.2-23-51.2-51.2-51.2z m-281.6 179.2c-2.6 0-6.1 1-8.2 1.5l-43 14.4v52.7l51.2-17.4 68.6 24.1c2.6 1 5.1 1.5 8.2 1.5 2.6 0 5.6-1 8.2-1.5l68.6-24.1 68.6 24.1c2.6 1 5.1 1.5 8.2 1.5 2.6 0 5.6-1 8.2-1.5l68.6-24.1 76.8 25.6v-52.7l-68.6-22.6c-2.6-1-5.1-1.5-8.2-1.5s-5.6 0.5-8.2 1.5l-68.6 22.6-68.6-22.6c-2.6-1-5.1-1.5-8.2-1.5s-5.6 1-8.2 1.5l-68.6 22.6-68.6-22.6c-3.1-1-5.1-1.5-8.2-1.5z" /></svg>