<svg height="512" width="435.2" xmlns="http://www.w3.org/2000/svg"><path d="m25.6 25.6c-12.3 0-25.6 12.8-25.6 25.6v179.2c0 56.8 25.6 128 128 128 9.2 0 17.4-0.5 25.6-1.5v-75.3h-102.4s12.8-51.2 76.8-51.2c12.8 0 17.9 2 25.6 4.6v-55.8c0-23.6 9.2-43 25.6-51.2 25.6-12.8 35.8-7.7 51.2 0 25.6 12.8 25.6 12.8 25.6 12.8v-89.6c0-12.8-13.3-25.6-25.6-25.6-25.6 0-51.2 25.6-102.4 25.6s-76.8-25.6-102.4-25.6z m45.1 89.6c17.9 0 32.2 14.3 32.2 32.3s-14.3 32.2-32.2 32.2-32.3-14.3-32.3-32.2 14.3-32.3 32.3-32.3z m134.6 38.4c-12.3 0-25.6 12.8-25.6 25.6v179.2c0 56.8 25.6 128 128 128s128-71.2 128-128v-179.2c0-12.8-13.3-25.6-25.6-25.6-25.6 0-51.2 25.6-102.4 25.6s-76.8-25.6-102.4-25.6z m45.1 89.6c17.9 0 32.2 14.3 32.2 32.3s-14.3 32.2-32.2 32.2-32.3-14.3-32.3-32.2 14.3-32.3 32.3-32.3z m115.2 0c17.9 0 32.2 14.3 32.2 32.3s-14.3 32.2-32.2 32.2-32.3-14.3-32.3-32.2 14.3-32.3 32.3-32.3z m-134.7 140.8h153.6s-12.8 51.2-76.8 51.2-76.8-51.2-76.8-51.2z" /></svg>