<svg height="512" width="435.2" xmlns="http://www.w3.org/2000/svg"><path d="m243.2 0c-7.2 0-12.8 5.6-12.8 12.8v486.4c0 7.2 5.6 12.8 12.8 12.8s12.8-5.6 12.8-12.8v-486.4c0-7.2-5.6-12.8-12.8-12.8z m-140.8 25.6c-28.2 0-51.2 23-51.2 51.2s23 51.2 51.2 51.2 51.2-23 51.2-51.2-23-51.2-51.2-51.2z m268.8 0c-28.2 0-51.2 23-51.2 51.2s23 51.2 51.2 51.2 51.2-23 51.2-51.2-23-51.2-51.2-51.2z m-307.2 128l-63.5 192c-2 6.7 5.6 12.8 12.8 12.8h37.9v115.2c0 7.2 5.6 12.8 12.8 12.8s12.8-5.6 12.8-12.8v-115.2h51.2v115.2c0 7.2 5.6 12.8 12.8 12.8s12.8-5.6 12.8-12.8v-115.2h38.4c7.2 0 15.4-6.1 12.8-12.8l-64-192z m268.8 0c-14.3 0-25.6 11.3-25.6 25.6v294.4c0 7.2 5.6 12.8 12.8 12.8s12.8-5.6 12.8-12.8v-140.8h76.8v140.8c0 7.2 5.6 12.8 12.8 12.8s12.8-5.6 12.8-12.8v-294.4c0-14.3-11.3-25.6-25.6-25.6z" /></svg>