<svg height="512" width="448.0" xmlns="http://www.w3.org/2000/svg"><path d="m160 288v64c0 32 32 32 32 32v128h64v-128c0 0 32 0 32-32v-64c0-32-32-32-32-32h-32-32c0 0-32 0-32 32z m128-96c0-64-64-64-64-64s-64 0-64 64 64 64 64 64 64 0 64-64z m-64-192c-123.7 0-224 100.3-224 224 0 98.6 64.1 181.3 152.6 211.3l-6-35.9c-67.4-29.7-114.6-97-114.6-175.4 0-106 86-192 192-192 106 0 192 86 192 192 0 78.4-47.2 145.7-114.6 175.4l-6 35.9c88.5-30 152.6-112.7 152.6-211.3 0-123.7-100.3-224-224-224z m0 96c70.8 0 128 57.3 128 128 0 34.7-13.8 66.1-36.2 89.2l-7.7 46.4c45.4-28.2 75.9-78.2 75.9-135.6 0-88.4-71.6-160-160-160-88.4 0-160 71.6-160 160 0 57.4 30.5 107.4 75.9 135.6l-7.7-46.4c-22.4-23.1-36.2-54.5-36.2-89.2 0-70.7 57.3-128 128-128z" /></svg>