<svg height="512" width="366.9" xmlns="http://www.w3.org/2000/svg"><path d="m121.8 78.3c-26.4 28.4-19.1 73.7-19.1 73.7s27 32 80 32c53 0 80-32 80-32s7.2-44.7-18.7-73.2c16.2-9 25.7-22 21.8-30.9-4.5-9.9-24.2-10.8-44.1-1.9-7.5 3.3-13.8 7.4-18.7 11.9-6.2-1.1-12.8-1.9-20.3-1.9-7.1 0-13.3 0.7-19.2 1.6-4.8-4.3-11-8.4-18.3-11.6-19.9-8.9-39.7-8-44.1 1.9-3.9 8.7 5.1 21.4 20.7 30.4z m200.6 206.6c-4.2-0.9-8.1-1.4-11.9-1.8 0-1 0.2-2 0.2-3.1 0-16.8-2.4-32.9-6.2-48.1 8.2 0.7 18.7-1.2 29.2-5.9 20-8.9 32.5-24.2 28.1-34.1-4.4-10-24.2-10.9-44.1-2-9.3 4.2-16.9 9.8-22 15.5-3.9-9.1-8.3-17.9-13.4-25.9-15.1 12.6-43.7 31.4-83.6 35.5v160.9c0 0-0.1 16-16 16-15.8 0-16-16-16-16v-160.8c-39.9-4.2-68.5-23-83.5-35.5-5 7.6-9.2 16-13 24.7-5.1-5.4-12.3-10.5-21-14.3-19.9-8.9-39.7-8-44.1 1.9-4.4 10 8.1 25.3 28.1 34.1 9.9 4.5 19.7 6.5 27.7 6.1-3.8 15.2-6.2 31.2-6.2 47.9 0 1.1 0.2 2.1 0.2 3.3-3.4 0.3-6.9 0.8-10.4 1.6-26 5.4-45.9 18.8-44.4 29.9 1.4 11.1 23.7 15.7 49.8 10.3 3.4-0.7 6.7-1.5 9.9-2.5 4.5 20.4 11.9 39.3 22 55.7-6 3-12.3 7.5-18 13.3-15.9 15.9-22.4 35.3-14.4 43.2 7.9 8 27.3 1.5 43.2-14.4 4.7-4.6 8.4-9.6 11.4-14.5 21.7 21.4 49 34.1 78.7 34.1 30.2 0 57.9-13.1 79.8-35 2.9 5.2 6.9 10.4 11.8 15.4 15.9 15.9 35.3 22.4 43.3 14.4s1.5-27.3-14.4-43.2c-6.2-6.2-12.9-10.9-19.3-14 10.1-16.3 17.3-35.2 21.9-55.5 3.6 1.1 7.3 2.2 11.3 3 26 5.4 48.3 0.8 49.8-10.4 1.4-11-18.5-24.4-44.5-29.8z" /></svg>