<svg height="512" width="512.0" xmlns="http://www.w3.org/2000/svg"><path d="m160 128c17.7 0 32 14.3 32 32 0 17.7-14.3 32-32 32s-32-14.3-32-32c0-17.7 14.3-32 32-32z m320 256c0 53-43 96-96 96h-224l96-96h40.6c11 19.1 31.7 32 55.4 32 35.3 0 64-28.7 64-64s-28.7-64-64-64c-23.7 0-44.4 12.9-55.4 32h-72.6l-146 146c-27.6-16.9-46-47.3-46-82v-256c0-53 43-96 96-96v72.6c-19.1 11-32 31.7-32 55.4 0 35.3 28.7 64 64 64 23.6 0 44.3-12.8 55.4-31.9l81.2-0.1c11 19.1 31.7 32 55.4 32 35.3 0 64-28.7 64-64s-28.7-64-64-64c-23.7 0-44.4 12.9-55.4 32l-81.1 0.1c-5.6-9.7-13.7-17.9-23.5-23.5v-72.6h192c53 0 96 43 96 96v256z m-160-32c0-17.7 14.3-32 32-32s32 14.3 32 32c0 17.7-14.3 32-32 32s-32-14.3-32-32z m0-192c0-17.7 14.3-32 32-32s32 14.3 32 32c0 17.7-14.3 32-32 32s-32-14.3-32-32z" /></svg>