<svg height="512" width="448.0" xmlns="http://www.w3.org/2000/svg"><path d="m352 448h-320v-288h320v96h32v-160c0-17.7-14.3-32-32-32h-96c0-35.3-28.7-64-64-64s-64 28.7-64 64h-96c-17.7 0-32 14.3-32 32v352c0 17.7 14.3 32 32 32h320c17.7 0 32-14.3 32-32v-64h-32v64z m-256-352c0 0 0 0 32 0s32-32 32-32c0-17.7 14.3-32 32-32s32 14.3 32 32c0 0 0 32 32 32h32c32 0 32 32 32 32h-256c0 0 0-32 32-32z m-32 256h64v-32h-64v32z m224-64v-64l-128 96 128 96v-64h160v-64h-160z m-224 128h96v-32h-96v32z m160-224h-160v32h160v-32z m-96 64h-64v32h64v-32z" /></svg>