<svg height="512" width="512.0" xmlns="http://www.w3.org/2000/svg"><path d="m416 160c-4.4 0-8.6 0.7-12.8 1.3-24.4-57.2-81.1-97.3-147.2-97.3-66.1 0-122.8 40.1-147.2 97.3-4.2-0.6-8.4-1.3-12.8-1.3-53 0-96 43-96 96s43 96 96 96c10.3 0 19.9-2.1 29.2-5.2 17 18.9 40.5 31.6 66.8 35.5v-32.7c-24.9-5.2-45.8-21.4-56.3-43.9-10.9 8.8-24.6 14.3-39.7 14.3-35.3 0-64-28.7-64-64 0-35.3 28.7-64 64-64 12.6 0 24.3 3.8 34.2 10 10.5-60.1 62.6-106 125.8-106 63.3 0 114.9 46.1 125.3 106.4 10-6.5 21.9-10.4 34.7-10.4 35.3 0 64 28.7 64 64 0 35.3-28.7 64-64 64-5.1 0-10-0.7-14.8-1.9-14.5 20.5-38.2 33.9-65.2 33.9-5.5 0-10.8-0.8-16-2v32.5c5.2 0.8 10.5 1.5 16 1.5 30.6 0 58.3-12.3 78.5-32.2 0.5 0 0.9 0.2 1.5 0.2 53 0 96-43 96-96s-43-96-96-96z m-128 96h-64v160h-64l96 96 96-96h-64v-160z" /></svg>