<svg height="512" width="384.0" xmlns="http://www.w3.org/2000/svg"><path d="m192 480c-106 0-192-28.7-192-64 0-19.3 0-40.4 0-64 0-5.6 2.8-10.8 6.8-16 21.4 27.6 95.8 48 185.2 48s163.8-20.4 185.2-48c4 5.2 6.8 10.4 6.8 16 0 18.5 0 38.2 0 64 0 35.3-86 64-192 64z m0-128c-106 0-192-28.7-192-64 0-19.3 0-40.4 0-64 0-3.4 1.3-6.7 3-10l0 0c1-2 2.3-4 3.8-6 21.4 27.5 95.8 48 185.2 48s163.8-20.5 185.2-48c1.6 2 2.8 4 3.8 6l0 0c1.7 3.3 3 6.6 3 10 0 18.5 0 38.2 0 64 0 35.3-86 64-192 64z m0-128c-106 0-192-28.7-192-64 0-10.1 0-20.8 0-32 0-10.2 0-20.7 0-32 0-35.3 86-64 192-64 106 0 192 28.7 192 64 0 10 0 20.6 0 32 0 9.8 0 20.1 0 32 0 35.3-86 64-192 64z m0-160c-70.7 0-128 14.3-128 32s57.3 32 128 32 128-14.3 128-32-57.3-32-128-32z" /></svg>