<svg height="512" width="512.0" xmlns="http://www.w3.org/2000/svg"><path d="m256 192c-35.3 0-64 28.7-64 64s28.7 64 64 64c2.9 0 5.7-0.2 8.4-0.6-23.1-3.5-40.9-23.5-40.9-47.6 0-26.7 21.6-48.3 48.3-48.3 24.1 0 44.1 17.8 47.6 40.9 0.4-2.7 0.6-5.5 0.6-8.4 0-35.3-28.7-64-64-64z m192-64h-64l-64-64h-128l-64 64h-64c-17.7 0-32 14.3-32 32v224c0 17.7 14.3 32 32 32h384c17.7 0 32-14.3 32-32v-224c0-17.7-14.3-32-32-32z m-240-32h96l32 32h-160l32-32z m-127.9 288c-8.9 0-16.1-7.2-16.1-16.1v-143.9h32v-32h-32v-15.9c0-8.9 7.2-16.1 16.1-16.1h91.2c-2 1.8-3.9 3.6-5.8 5.5-50 50-50 131 0 181l37.5 37.5h-122.9z m175.9-32c-53 0-96-43-96-96s43-96 96-96 96 43 96 96-43 96-96 96z m160-112l-75.3-80h75.3v80z" /></svg>