<svg height="512" width="512.0" xmlns="http://www.w3.org/2000/svg"><path d="m288 96c-17.7 0-32 14.3-32 32s14.3 32 32 32 32-14.3 32-32-14.3-32-32-32z m160 96l-64 64v-32c0-15.3-10.8-28.1-25.1-31.3 15.6-17 25.1-39.7 25.1-64.7 0-53-43-96-96-96-50.6 0-92 39.1-95.7 88.7-17-15.4-39.6-24.7-64.3-24.7-53 0-96 43-96 96 0 53 43 96 96 96h-32v64h32v64c0 17.7 14.3 32 32 32h192c17.7 0 32-14.3 32-32v-32l64 64h32v-256h-32z m-320-32c-17.7 0-32 14.3-32 32s14.3 32 32 32v32c-35.3 0-64-28.7-64-64 0-35.3 28.7-64 64-64s64 28.7 64 64h-32c0-17.7-14.3-32-32-32z m160 192h-64v-64h64v64z m64-54.6c-16.8-16.8-35.1-35.2-36.7-36.7-2.9-2.9-6.9-4.7-11.3-4.7h-96c-8.8 0-16 7.2-16 16v96c0 4.2 1.6 8 4.2 10.8 0.3 0.3 19.6 19.6 37.2 37.2h-57.4c-8.8 0-16-7.2-16-16v-160c0-8.8 7.2-16 16-16h160c8.8 0 16 7.2 16 16v57.4z m-64-105.4c-35.3 0-64-28.7-64-64 0-35.3 28.7-64 64-64s64 28.7 64 64c0 35.3-28.7 64-64 64z m160 160l-32-32 0-64 32-32v128z" /></svg>