<svg height="512" width="384.0" xmlns="http://www.w3.org/2000/svg"><path d="m288 32h-288v448h384v-352l-96-96z m-256 32h127.9c-6.6 2-13.6 7.5-17.3 21.4-6.6 24.7-3.5 65.4 7.8 104.7-12.1 40.6-61.3 138.3-64.6 144.2-7.8 2.4-32.7 11.8-53.8 29.9v-300.2z m141.6 153.7c28.8 74.9 47.5 74.8 67.6 83.8-42 6.5-74.1 11.1-116.3 29.8-1.9 3.2 38.2-73 48.7-113.6z m178.4 230.3h-319.1-0.9v-0.2c0.4 0 0.5 0.2 0.9 0.2 16.9 0 42.4-10.5 90.3-91.2 19.1-7.7 36-13.4 39.2-14.5 29.4-7.4 62.5-13.3 93.8-16.6 27.2 13.6 63.4 22.8 83.9 24.1 4.8 0.3 8.1-0.6 11.9-1v99.2z m0-155.3c-11.8-7.4-27-12.5-44.6-12.5-12.1 0-25.3 0.7-39.3 2.2-13.5-6.5-46.3-16.4-73.6-95.1 8.5-51.8 6.4-86.8 6.4-86.8 3.3-26.5-11.7-36.4-25.9-36.4 0 0-0.1-0.1-0.1-0.1h81.1l96 96v132.7z" /></svg>