<svg height="512" width="448.0" xmlns="http://www.w3.org/2000/svg"><path d="m224 480h160v-160h-160v160z m-192 0h160v-160h-160v160z m191.9-291.9c15.7-1.8 33.4-3.7 43.7-4.9 41.9-4.6 79.7-42.4 84.3-84.3 4.7-41.9-25.5-72.1-67.3-67.4-32.8 3.7-62.7 27.5-76.6 57.7-13.9-30.2-43.8-54-76.5-57.7-41.9-4.7-72.1 25.5-67.4 67.4 4.7 41.9 42.4 79.6 84.3 84.3 10.3 1.2 28 3.2 43.7 4.9-0.2 2.1-0.1 3.9-0.1 3.9h32c0 0 0.1-1.8-0.1-3.9z m53.8-117.8c22.6-2.5 39 13.8 36.4 36.5-2.5 22.6-22.9 43.1-45.5 45.6-22.7 2.5-39-13.8-36.5-36.5 2.5-22.6 23-43 45.6-45.6z m-130.2 82.1c-22.7-2.5-43.1-23-45.6-45.6-2.5-22.7 13.8-39 36.4-36.5 22.7 2.6 43.1 23 45.6 45.6 2.5 22.7-13.8 39-36.4 36.5z m76.5 39.6v96h192v-96h-192z m-224 96h192v-96h-192v96z" /></svg>