<svg height="512" width="448.0" xmlns="http://www.w3.org/2000/svg"><path d="m416 360.9v-200.9c0-96.2-96-96-96-96h-32v-64l-96 96 96 96v-64c0 0 13.3 0 32 0 28.2 0 32 32 32 32v200.9c-19.1 11.1-32 31.4-32 55.1 0 35.3 28.7 64 64 64s64-28.7 64-64c0-23.6-12.9-44-32-55.1z m-32 87.1c-17.7 0-32-14.3-32-32 0-17.7 14.3-32 32-32 17.7 0 32 14.3 32 32 0 17.7-14.3 32-32 32z m-352-290.2v200.9c0 96.2 96 96 96 96h32v64l96-96-96-96v64c0 0-13.3 0-32 0-28.2 0-32-32-32-32v-200.9c19.1-11.1 32-31.5 32-55.1 0-35.4-28.7-64-64-64s-64 28.6-64 64c0 23.6 12.9 44 32 55.1z m32-21.8c-17.7 0-32-14.3-32-32 0-17.7 14.3-32 32-32 17.7 0 32 14.3 32 32 0 17.7-14.3 32-32 32z" /></svg>