<svg height="512" width="512.0" xmlns="http://www.w3.org/2000/svg"><path d="m256 64c-106 0-192 86-192 192s86 192 192 192c13 0 25.7-1.3 37.9-3.7-4.9-2.4-5.5-20.1-0.6-30.2 5.4-11.3 22.5-39.8 5.6-49.3s-12.2-13.9-22.5-25-6.1-12.7-6.7-15.5c-2.3-9.8 9.9-24.4 10.5-25.9s0.5-7.1 0.4-8.8-7.7-6.2-9.6-6.4-2.8 3-5.4 3.2-14.1-7-16.5-8.8-3.6-6.4-7-9.8-3.7-0.7-9-2.8-22.1-8.2-35-13.5-14.1-12.6-14.3-17.8-7.9-12.8-11.5-18.2c-3.6-5.4-4.2-12.9-5.5-11.2s6.7 21.3 5.4 21.9-4.1-5.4-7.9-10.3 4-2.3-8-25.9 3.7-35.7 4.5-48 10.1 4.5 5.2-3.4 0.4-24.3-3.4-30.3-25.1 6.7-25.1 6.7c0.6-5.8 18.8-15.7 31.9-24.9s21.1-2.1 31.7 1.3 11.2 2.2 7.7-1.1 1.5-5.1 9.7-3.8 10.5 11.3 23.1 10.3 1.3 2.5 3 5.6-1.9 2.9-10.2 8.5 0.2 5.6 14.9 16.3 10.1-7.1 8.6-15 10.7-1.7 10.7-1.7c9 6 7.3 0.3 13.9 2.4s24.3 17.1 24.3 17.1c-22.3 12.2-8.2 13.5-4.5 16.3s-7.7 8.3-7.7 8.3c-4.7-4.7-5.4 0.2-8.4 1.8s-0.2 6-0.2 6c-15.5 2.5-12 18.8-11.8 22.7s-9.9 10-12.6 15.6 6.8 17.8 1.9 18.6-9.7-18.4-36-11.3c-7.9 2.1-25.5 11.3-16.1 29.8s24.9-5.2 30.2-2.6-1.5 14.4-0.4 14.6 14.8 0.5 15.6 16.5 20.8 14.6 25.1 15 18.7-11.8 20.8-12.4 10.3-7.5 28.3 2.9 27.2 8.8 33.4 13.1 1.9 12.9 7.7 15.7 29-0.9 34.8 8.7-24 57.5-33.3 62.8-13.7 17.2-23.1 24.9-22.5 17.2-34.9 24.6c-10.9 6.5-12.9 18.1-17.8 21.8 85.9-19.1 150.2-95.7 150.2-187.4 0-106-86-192-192-192z m45 180.2c-2.6 0.7-8.1 5.6-21.4-2.3s-22.5-6.3-23.6-7.6c0 0-1.1-3.2 4.7-3.8 11.9-1.2 27 11.1 30.4 11.3s5-3.4 11-1.5c6 1.9 1.5 3.1-1.1 3.9z m-62.8-161.1c-1.3-0.9 1.1-2 2.5-3.9 0.8-1.1 0.2-2.9 1.2-3.9 2.9-2.9 16.7-6.8 14 0.9-2.7 7.7-15.6 8.4-17.7 6.9z m33.6 24.4c-4.7-0.2-15.8-1.4-13.7-3.4 7.9-7.8-3-10.1-9.8-10.7s-9.5-4.3-6.2-4.6 16.9 0.1 19.2 2 14.4 6.8 15.1 10.3 0 6.6-4.6 6.4z m40.6-1.3c-3.7 3-22.6-10.8-26.2-13.9-15.8-13.5-24.2-9-27.5-11.2-3.3-2.3-2.1-5.3 2.9-9.8s19.3 1.5 27.6 2.5 17.8 7.3 18 14.8c0.2 7.6 9 14.6 5.2 17.6z" /></svg>