<svg height="512" width="384.0" xmlns="http://www.w3.org/2000/svg"><path d="m285.3 257c58.9-42.3 98.7-119.9 98.7-192 0-35.4-86-64-192-64-106 0-192 28.6-192 64 0 72.1 39.8 149.7 98.7 192-58.9 42.3-98.7 119.8-98.7 191.9 0 35.4 86 64 192 64 106 0 192-28.6 192-64 0-72.1-39.8-149.6-98.7-191.9z m-93.3-224c70.7 0 128 14.3 128 32 0 17.7-57.3 32-128 32s-128-14.3-128-32c0-17.7 57.3-32 128-32z m-32 352.8c-76.9 3.5-119.1 20.1-126.3 40.8 7.7-56.8 44.3-107.7 94.3-137.7 0 0 32 0.6 32-31.9v128.8z m30.9-192.8c-48.7 0-72.4 8.3-83.9 16.4-34.6-27.3-60.5-64.8-70.3-107.1 34.9 16.1 91.2 26.7 155.3 26.7s120.4-10.6 155.3-26.7c-9.8 42.5-36 80.2-70.9 107.5-11.8-8.2-35.8-16.8-85.5-16.8z m33.1 192.8v-128.8c0 30.9 32 31.9 32 31.9 50 30 86.6 80.9 94.3 137.7-7.2-20.7-49.4-37.3-126.3-40.8z" /></svg>