<svg height="512" width="512.0" xmlns="http://www.w3.org/2000/svg"><path d="m256 32c-141.4 0-256 114.6-256 256v128c0 63.2 64 64 64 64h384c0 0 64-0.7 64-64v-128c0-141.4-114.6-256-256-256z m48 384h-96c-8.9 0-16-7.2-16-16s7.1-16 16-16h96c8.8 0 16 7.2 16 16s-7.2 16-16 16z m144-64c0 30.5-32 32-32 32h-64c0 0 0-32-32-32h-128c-32 0-32 32-32 32h-64c-31.5 0-32-32-32-32v-180c39-64.4 110-108 192-108 82 0 152.9 43.6 192 108v180z m-64-192h-256c-17.7 0-32 14.3-32 32v64c0 17.7 14.3 32 32 32h256c17.7 0 32-14.3 32-32v-64c0-17.7-14.3-32-32-32z m0 64l-32 32h-64l-32-32-32 32h-64l-32-32v-32h32l32 32 32-32h64l32 32 32-32h32v32z" /></svg>