<svg height="512" width="448.0" xmlns="http://www.w3.org/2000/svg"><path d="m319.6 383.6c-26.7 20.1-59.6 32.4-95.6 32.4-88.4 0-160-71.6-160-160 0-22.8 4.9-44.4 13.5-64h-45.5v-49.7c-19.8 33.4-32 72-32 113.7 0 123.7 100.3 224 224 224 53.7 0 102.3-19.7 140.9-51.1l19.1 19.1v-96h-96l31.6 31.6z m-127.6 0.4h64v-64h-64v64z m64-256h-64v160h64v-160z m192 128c0-123.7-100.3-224-224-224-53.7 0-102.3 19.7-140.8 51.2l-19.2-19.2v96h96l-31.6-31.6c26.7-20.1 59.6-32.4 95.6-32.4 88.4 0 160 71.6 160 160 0 22.8-4.9 44.4-13.5 64h45.5v49.8c19.8-33.5 32-72 32-113.8z" /></svg>