<svg height="512" width="448.0" xmlns="http://www.w3.org/2000/svg"><path d="m352 0h-95.7c0 0-0.4 32-48.4 32s-47.6-32-47.6-32h-96c0 64-0.8 192-64 192l-0.3 288c0 0 0 32 32 32h352c32 0 32-32 32-32v-288c-63.2 0-64-128-64-192z m-304.3 480c-16 0-16-16-16-16l0.2-240 0 0c59.5-32 64.1-96 64.1-192h32c0 0 0 95.9 80 95.9s80-95.9 80-95.9 18.8 0 32 0c0 92.9 16.2 137.9 32 169.4l0 278.6h-304.3z m192.3-288l-16 16v160l16 16h64l16-16v-160l-16-16h-64z m48 160h-32v-128h32v128z m-176-160l-16 16v160l16 16h64l16-16v-160l-16-16h-64z m48 160h-32v-128h32v128z" /></svg>