<svg height="512" width="1428.4" xmlns="http://www.w3.org/2000/svg"><path d="m276.4 166.1h-120.6c-3.1 0-5.6 2.5-5.6 5.6v59c0 3.1 2.5 5.6 5.6 5.6h47v73.3c0 0-10.5 3.5-39.7 3.5-34.5 0-82.6-12.6-82.6-118.4 0-105.8 50.1-119.7 97.2-119.7 40.7 0 58.2 7.1 69.4 10.6 3.5 1.1 6.7-2.4 6.7-5.6l13.5-56.9c0-1.5-0.5-3.2-2.2-4.4-4.5-3.2-32.2-18.7-102-18.7-80.5 0-163.1 34.2-163.1 198.9 0 164.6 94.5 189.1 174.2 189.1 65.9 0 106-28.2 106-28.2 1.6-0.9 1.8-3.2 1.8-4.2v-183.9c0-3.1-2.6-5.6-5.6-5.6z m609.8-152h-67.9c-3.1 0-5.6 2.5-5.6 5.6v131.2h-105.8v-131.2c0-3.1-2.5-5.6-5.6-5.6h-67.9c-3.1 0-5.6 2.5-5.6 5.6v355.3c0 3.1 2.6 5.6 5.6 5.6h67.9c3.1 0 5.6-2.5 5.6-5.6v-152h105.8l-0.2 152c0 3.1 2.5 5.6 5.5 5.6h68c3.1 0 5.5-2.5 5.5-5.6l0.3-355.3c0-3.1-2.5-5.6-5.6-5.6z m-528.7 8c-24.2 0-43.8 19.8-43.8 44.2 0 24.4 19.6 44.2 43.8 44.2s43.7-19.8 43.7-44.2c0-24.4-19.5-44.2-43.7-44.2z m38.9 114c0-3.1-2.5-5.7-5.5-5.7h-67.7c-3.2 0-5.9 3.2-5.9 6.3 0 0 0 197.4 0 235 0 6.8 4.3 8.9 9.8 8.9 0 0 28.9 0 61 0 6.7 0 8.4-3.3 8.4-9.1 0-12.6 0-61.9 0-71.5-0.1-9-0.1-163.9-0.1-163.9z m752.6-5.2h-67.4c-3 0-5.5 2.6-5.5 5.7v174.2c0 0-17.1 12.5-41.5 12.5-24.2 0-30.7-11-30.7-34.8 0-23.8 0-151.9 0-151.9 0-3.2-2.6-5.7-5.6-5.7h-68.3c-3.1 0-5.6 2.5-5.6 5.7 0 0 0 92.7 0 163.4 0 70.6 39.4 87.9 93.5 87.9 44.4 0 80.3-24.5 80.3-24.5s1.7 12.9 2.5 14.4c0.7 1.5 2.7 3.1 4.9 3.1h43.3c3.1 0 5.6-2.6 5.6-5.7l0.2-238.6c-0.1-3.1-2.6-5.7-5.7-5.7z m184.5-8c-38.3 0-64.3 17.1-64.3 17.1v-120.3c0-3.1-2.6-5.6-5.6-5.6h-68.1c-3.1 0-5.6 2.5-5.6 5.6l-0.2 355.3c0 3.1 2.6 5.6 5.6 5.6 0 0 47.4 0 47.5 0 2.1 0 3.7-1.1 4.9-3 1.2-1.9 2.8-16.4 2.8-16.4s27.8 26.4 80.5 26.4c62 0 97.4-31.4 97.4-140.9 0-109.4-56.7-123.8-94.9-123.8z m-26.6 200.2c-23.4-0.7-39.2-11.3-39.2-11.3v-112.5c0 0 15.7-9.6 34.9-11.3 24.2-2.2 47.7 5.1 47.7 63-0.1 61-10.7 73.1-43.4 72.1z m-714.3-1.3c-3 0-10.6 1.2-18.5 1.2-24.9 0-33.4-11.6-33.4-26.6 0-15.2 0-100 0-100h50.9c3.1 0 5.6-2.5 5.6-5.6v-54.8c0.1-3.1-2.5-5.7-5.6-5.7h-50.9l-0.1-67.2c0-2.6-1.4-3.8-4.3-3.8h-69.4c-2.6 0-4.1 1.2-4.1 3.8v69.5c0 0-34.8 8.4-37.2 9.1-2.3 0.6-4 2.8-4 5.4v43.7c0 3.1 2.5 5.7 5.6 5.7h35.6c0 0 0 45.6 0 105.1 0 78 54.7 85.7 91.7 85.7 16.8 0 37-5.5 40.4-6.7 2-0.7 3.2-2.8 3.2-5.1l0-48c0-3.2-2.6-5.7-5.5-5.7z" /></svg>