<svg height="512" width="512.0" xmlns="http://www.w3.org/2000/svg"><path d="m256 0c-141.4 0-256 114.6-256 256 0 113.1 73.3 209.1 175.1 242.9 12.8 2.4 17.4-5.6 17.4-12.3 0-6.1-0.2-26.3-0.3-47.7-71.2 15.5-86.2-30.1-86.2-30.1-11.7-29.6-28.5-37.5-28.5-37.5-23.2-15.9 1.8-15.5 1.8-15.5 25.7 1.7 39.2 26.3 39.2 26.3 22.9 39.2 60 27.8 74.5 21.3 2.4-16.5 9-27.8 16.3-34.2-56.8-6.5-116.6-28.4-116.6-126.5 0-28 10-50.8 26.3-68.7-2.6-6.5-11.4-32.6 2.5-67.8 0 0 21.5-6.9 70.4 26.2 20.4-5.7 42.3-8.5 64.1-8.6 21.7 0.1 43.7 3 64.1 8.7 48.8-33.2 70.3-26.3 70.3-26.3 14 35.3 5.2 61.3 2.6 67.8 16.4 17.9 26.3 40.7 26.3 68.7 0 98.3-59.9 120-116.9 126.3 9.2 7.9 17.4 23.5 17.4 47.4 0 34.2-0.4 61.8-0.4 70.2 0 6.8 4.7 14.8 17.7 12.3 101.6-33.9 174.9-129.8 174.9-242.9 0-141.4-114.6-256-256-256z" /></svg>