<svg height="512" width="448.0" xmlns="http://www.w3.org/2000/svg"><path d="m384 192h-32-64-32-32-32-32-64-32c-35.3 0-64 28.7-64 64v32c0 23.6 12.9 44 32 55.1v104.9h128v64h128v-64h128v-104.9c19.1-11.1 32-31.4 32-55.1v-32c0-35.3-28.7-64-64-64z m-256 224h-64v-128h-32v-32c0-17.7 14.3-32 32-32h40.9c-5.5 9.4-8.9 20.3-8.9 32v64c0 23.6 12.9 44 32 55.1v40.9z m160-64v-64h-32v192h-64v-192h-32v64c-17.7 0-32-14.3-32-32v-64c0-17.7 14.3-32 32-32h128c17.7 0 32 14.3 32 32v64c0 17.7-14.3 32-32 32z m128-64h-32v128h-64v-40.9c19.1-11.1 32-31.4 32-55.1v-64c0-11.7-3.4-22.6-8.9-32h40.9c17.7 0 32 14.3 32 32v32z m-264.2-129.3c17.6 20.2 43.3 33.3 72.2 33.3 28.9 0 54.6-13.1 72.2-33.3 10.9 19.8 31.6 33.3 55.8 33.3 35.3 0 64-28.7 64-64s-28.7-64-64-64c-12.8 0-24.7 3.8-34.7 10.3-9.9-42.5-47.8-74.3-93.3-74.3s-83.5 31.8-93.3 74.3c-10-6.5-21.9-10.3-34.7-10.3-35.3 0-64 28.7-64 64s28.7 64 64 64c24.2 0 44.9-13.5 55.8-33.3z m200.2-62.7c17.7 0 32 14.3 32 32s-14.3 32-32 32c-17.7 0-32-14.3-32-32s14.3-32 32-32z m-128-64c35.3 0 64 28.7 64 64s-28.7 64-64 64c-35.3 0-64-28.7-64-64s28.7-64 64-64z m-128 128c-17.7 0-32-14.3-32-32s14.3-32 32-32c17.7 0 32 14.3 32 32s-14.3 32-32 32z" /></svg>