<svg height="512" width="384.0" xmlns="http://www.w3.org/2000/svg"><path d="m192 0c-106 0-192 86-192 192v32c0 17.7 14.3 32 32 32v160c0 35.3 71.6 64 160 64s160-28.7 160-64v-160c17.7 0 32-14.3 32-32v-32c0-106-86-192-192-192z m96 320v16c0 8.8-7.2 16-16 16s-16-7.2-16-16v-16c0-8.8-7.2-16-16-16s-16 7.2-16 16v80c0 8.8-7.2 16-16 16s-16-7.2-16-16v-64c0-8.8-7.2-16-16-16s-16 7.2-16 16v16c0 17.7-14.3 32-32 32s-32-14.3-32-32v-32c-17.7 0-32-14.3-32-32v-57.6c29.2 15.5 75.7 25.6 128 25.6s98.8-10.1 128-25.6v57.6c0 17.7-14.3 32-32 32z m-96-96c-53.7 0-99.7-13.2-118.7-32 19-18.8 65-32 118.7-32s99.7 13.2 118.7 32c-19 18.8-65 32-118.7 32z m0-96c-88.3 0-159.9 28.6-160 63.9 0 0 0 0 0 0 0-88.3 71.7-159.9 160-159.9 88.4 0 160 71.6 160 160 0-35.3-71.6-64-160-64z" /></svg>