<svg height="512" width="512.0" xmlns="http://www.w3.org/2000/svg"><path d="m501.7 102.3l-0.5-0.4c-12.3-12.4-32.4-12.4-44.8 0l-22.8 22.8-45.3-45.2 22.9-22.9c12.4-12.3 12.4-32.4 0-44.8l-0.5-0.4c-12.3-12.4-32.4-12.4-44.8 0l-24 24c-31-20.6-73.3-17.2-100.6 10.1l-12.5 12.5c-54.5 54.5-61 138.8-19.4 200.4l-2.1 2.1c-31.2 31.2-31.2 81.7-0.1 113 6.2 6.2 6.3 16.7 0 22.8-6.2 6.2-16.3 6.2-22.5 0l-44.7-44.8c-31.3-31.3-82.3-31.8-113.7-0.5-31.3 31.2-31.3 81.9 0 113.1l4.4 4.4c12.3 12.4 32.4 12.4 44.8 0l0.4-0.4c12.4-12.4 12.4-32.5 0-44.8l-4.1-4.2c-6.2-6.1-6.6-16.2-0.6-22.5 6.3-6.6 16.6-6.7 23-0.3l44.6 44.6c31.5 31.5 82.8 31.9 114.1 0.3 30.9-31.2 30.8-81.6-0.2-112.7-6.3-6.3-6.4-16.5-0.1-22.7l2-2.1c61.6 41.5 146 35.1 200.5-19.4l12.4-12.5c27.4-27.4 30.8-69.6 10.2-100.7l24-24c12.4-12.3 12.4-32.4 0-44.8z m-56.8 146.9c-18.7 18.7-49.1 18.7-67.9 0l-113.1-113.2c-18.8-18.7-18.8-49.1 0-67.8 14.8-14.8 36.8-17.9 54.6-9.4l-20.9 20.9c-12.4 12.4-12.4 32.4 0 44.8l0.4 0.5c12.4 12.3 32.5 12.3 44.8 0l22.9-22.9 45.3 45.3-22.9 22.8c-12.4 12.4-12.4 32.4 0 44.8l0.5 0.5c12.3 12.3 32.4 12.3 44.8 0l20.9-21c8.5 17.9 5.4 39.9-9.4 54.7z" /></svg>