<svg height="512" width="512.0" xmlns="http://www.w3.org/2000/svg"><path d="m377.9 287.6c-7-5-14.3-8.3-21.8-10-4.4-0.8-9-1.2-13.7-0.9-4.5 0.3-8.8 0.9-12.9 1.8-3 0.8-6.1 1.9-9.2 3.3-9.1 4-16.9 9-23.4 15.1-6.1 6.5-11.1 14.3-15.1 23.4-1.4 3.1-2.5 6.1-3.3 9.2-0.9 4.1-1.5 8.3-1.8 12.8-0.2 4.8 0.1 9.4 0.9 13.8 1.7 7.5 5 14.8 10 21.8 1.9 2.7 4 5.2 6.3 7.4 10 10 22.9 15.4 37.7 17.1 4.4 0.5 9 0.8 13.2 2.2 2.6 0.8 4.6 2 6.1 3.5 3.3 3.3 3.8 8.1 1.2 13.6-1.6 3.4-3.8 6.8-6.5 9.4l-1.4 1.5c-1.9 1.9-3.2 3.2-3.5 3.5-1.5 1.6-3 3.1-4.5 4.6l-1.5 1.4c-5.2 5.3-10.5 10.6-15.8 15.9-11.4 11.4-22.8 22.7-34.2 34.1-3.8 3.8-7.5 7.5-11.3 11.3-1.7 1.7-3.5 3.2-5.3 4.4-0.9 0.6-1.8 1.1-2.6 1.6-9.8 4.9-20.8 2.9-29.7-6-2.7-2.7-5.3-5.3-7.9-7.9-15.1-15.1-30.2-30.3-45.4-45.4-4.3-4.3-8.5-8.5-12.8-12.8-3.1-3-6.3-5.9-9.8-8.5-2.8-2.2-5.8-3.8-8.7-4.9-10.6-3.6-20.7-1-27.4 6.7-1.9 2.4-3.5 5.2-4.6 8.4-1.8 4.7-2.3 9.8-3 14.7-2.4 18.8-12.9 34.2-28 41.3-3.7 1.9-7.7 3.2-11.9 3.9-4 0.7-8 0.9-12 0.6-13.3-0.7-24.7-6.6-34.2-16.3-0.9-0.9-1.1-1.1-1.3-1.3-9.7-9.5-15.6-20.9-16.3-34.2-0.3-4-0.1-8 0.6-12 0.7-4.2 2-8.2 3.9-11.9 7.1-15.1 22.5-25.5 41.3-28 4.9-0.6 10-1.2 14.7-2.9 3.4-1.3 6.4-3.1 8.9-5.2 7.3-6.5 9.8-16.3 6.5-26.1-1.4-3.7-3-6.6-5.2-9.5-2.6-3.4-5.5-6.7-8.5-9.8-4.3-4.2-8.5-8.5-12.8-12.8-13.5-13.5-26.9-26.9-40.4-40.4l-5-5c-2.6-2.6-5.2-5.2-7.6-7.6-9.2-9.2-11.2-20.1-6.3-29.9 0.5-0.9 1-1.7 1.6-2.6 1.2-1.9 2.7-3.7 4.4-5.4 3.8-3.8 7.5-7.5 11.3-11.3 11.3-11.4 22.7-22.8 34.1-34.2 5.3-5.2 10.6-10.5 15.9-15.8l1.4-1.5c1.5-1.5 3-2.9 4.5-4.4 0.4-0.4 1.7-1.7 3.6-3.6l1.4-1.4c2.7-2.7 6-4.9 9.5-6.5 5.5-2.6 10.3-2.1 13.6 1.2 1.5 1.5 2.6 3.5 3.5 6.1 1.4 4.2 1.7 8.8 2.2 13.2 1.7 14.8 7.1 27.7 17.1 37.8 2.2 2.2 4.7 4.3 7.4 6.2 7 5 14.3 8.3 21.8 10 4.4 0.8 9 1.2 13.8 0.9 4.4-0.3 8.7-0.8 12.8-1.8 3-0.8 6.1-1.9 9.2-3.3 9.1-4 16.9-9 23.4-15.1 6.1-6.5 11.1-14.3 15.1-23.4 1.4-3.1 2.5-6.1 3.3-9.2 1-4.1 1.5-8.3 1.8-12.8 0.3-4.8-0.1-9.4-0.9-13.8-1.7-7.5-5-14.8-10-21.7-1.9-2.8-4-5.2-6.3-7.5-10-10-22.9-15.3-37.7-17-4.4-0.6-9-0.9-13.2-2.3-2.6-0.8-4.6-2-6.1-3.5-3.3-3.3-3.8-8-1.2-13.6 1.6-3.4 3.8-6.7 6.5-9.4l1.4-1.5c1.9-1.9 3.2-3.2 3.5-3.5 1.5-1.6 3-3.1 4.5-4.6l1.5-1.4c5.3-5.3 10.5-10.6 15.8-15.8 11.4-11.5 22.8-22.8 34.2-34.2 3.8-3.8 7.5-7.5 11.3-11.3 1.7-1.7 3.5-3.2 5.4-4.4 0.9-0.6 1.7-1.1 2.5-1.5 9.8-5 20.8-3 29.7 5.9 2.7 2.7 5.3 5.3 7.9 7.9 15.1 15.1 30.2 30.3 45.4 45.4 4.3 4.3 8.5 8.5 12.8 12.8 3.1 3 6.3 5.9 9.8 8.5 2.9 2.2 5.8 3.8 8.7 4.9 10.6 3.6 20.7 1 27.4-6.7 1.9-2.4 3.5-5.2 4.7-8.4 1.7-4.7 2.3-9.8 2.9-14.7 2.5-18.8 12.9-34.2 28-41.3 3.7-1.9 7.7-3.2 11.9-3.9 4-0.7 8-0.9 12-0.5 13.3 0.6 24.7 6.5 34.2 16.2 0.9 0.9 1.1 1.1 1.3 1.3 9.7 9.5 15.6 21 16.3 34.3 0.3 3.9 0.1 7.9-0.6 11.9-0.7 4.2-2 8.2-3.8 11.9-7.2 15.1-22.6 25.6-41.4 28-4.9 0.7-10 1.2-14.7 3-3.4 1.2-6.4 3-8.9 5.1-7.3 6.6-9.8 16.3-6.5 26.1 1.4 3.7 3 6.7 5.2 9.5 2.6 3.5 5.5 6.7 8.5 9.8 4.3 4.3 8.6 8.5 12.8 12.8 15.1 15.2 30.3 30.3 45.4 45.4 2.6 2.6 5.2 5.2 7.6 7.6 9.2 9.2 11.2 20.2 6.3 30-0.5 0.8-1 1.6-1.6 2.5-1.2 1.9-2.7 3.7-4.4 5.4-3.8 3.8-7.5 7.5-11.3 11.3-11.3 11.4-22.7 22.8-34.1 34.2-5.3 5.3-10.6 10.5-15.9 15.8l-1.4 1.5c-1.5 1.5-3 2.9-4.5 4.4-0.4 0.4-1.7 1.7-3.6 3.6l-1.4 1.4c-2.7 2.7-6 4.9-9.5 6.5-5.5 2.6-10.3 2.1-13.6-1.2-1.5-1.5-2.6-3.5-3.5-6.1-1.4-4.2-1.7-8.8-2.2-13.2-1.7-14.8-7.1-27.7-17.1-37.7-2.2-2.3-4.7-4.4-7.4-6.3z" /></svg>