<svg height="512" width="512.0" xmlns="http://www.w3.org/2000/svg"><path d="m153.4 195.4c8-8.2 8-21.4 0-29.5-10.2-10.6-15.3-24.3-15.3-38.1 0-13.9 5.1-27.5 15.3-38.1 8-8.2 8-21.4 0-29.5-3.9-4.1-9.1-6.2-14.3-6.2-5.2 0-10.4 2-14.4 6.1-18.1 18.7-27.3 43.2-27.3 67.7 0 24.4 9.2 49 27.3 67.6 7.9 8.1 20.8 8.1 28.7 0z m-78.9-178.8c-4-4.2-9.3-6.3-14.6-6.3-5.3 0-10.6 2.1-14.6 6.3-29.9 30.6-44.9 71-44.9 111.2 0 40.2 15 80.6 44.8 111.2 8.1 8.3 21.2 8.3 29.3 0 8.1-8.3 8.1-21.7 0-30-21.8-22.5-32.7-51.8-32.7-81.2s10.9-58.7 32.7-81.2c8.1-8.3 8.1-21.8 0-30z m182 163.3c28.7 0 52-23.3 52-52 0-28.6-23.3-51.9-52-51.9-28.7 0-52 23.3-52 51.9 0 28.7 23.3 52 52 52z m210.3-163c-8.1-8.3-21.2-8.3-29.3 0-8.1 8.3-8.1 21.7 0 30 21.9 22.5 32.7 51.7 32.7 81.2 0 29.4-10.9 58.7-32.7 81.2-8.1 8.3-8.1 21.7 0 30 4.1 4.1 9.3 6.2 14.6 6.2 5.3 0 10.6-2.1 14.7-6.2 29.8-30.7 44.9-71.1 44.8-111.2 0.1-40.2-15-80.6-44.8-111.2z m-210.2 204.5l0 0c-13.2 0.1-26.5-3.2-38.5-9.7l-100.6 268.1h47.6l27.4-32h128l27 32h47.6l-100.5-268c-11.9 6.4-24.9 9.6-38 9.6z m-0.3 15.4l32.2 115.1h-64l31.8-115.1z m-63.8 179l32-32h64l32 32h-128z m166.1-355.3c-7.9 8.2-7.9 21.4 0 29.5 10.2 10.6 15.3 24.3 15.3 38.1 0 13.9-5.1 27.6-15.3 38.1-7.9 8.2-7.9 21.4 0 29.5 3.9 4.1 9.1 6.1 14.4 6.1 5.1 0 10.3-2 14.3-6.1 18.2-18.6 27.3-43.2 27.3-67.6 0-24.4-9.1-49-27.3-67.6-7.9-8.1-20.8-8.1-28.7 0z" /></svg>