<svg height="512" width="384.0" xmlns="http://www.w3.org/2000/svg"><path d="m384 64c0-35.5-28.5-64-64-64s-64 28.5-64 64c0 23.5 13 44.5 32 55.5v53l-96 106-96-106v-53c19-11 32-31.5 32-55.5 0-35.5-28.5-64-64-64s-64 28.5-64 64c0 23.5 13 44.5 32 55.5v78l128 141v54.5c-19 11-32 31.5-32 55.5 0 35.5 28.5 64 64 64s64-28.5 64-64c0-23.5-13-44.5-32-55.5v-54.5l128-141v-78c19-11 32-31.5 32-55.5z m-320-31.5c17 0 31 14 31 31s-14 31-31 31-31-14-31-31 14-31 31-31z m128 445.5c-17 0-31-14-31-31s14-31 31-31 31 14 31 31-14 31-31 31z m128-445.5c17 0 31 14 31 31s-14 31-31 31-31-14-31-31 14-31 31-31z" /></svg>