<svg height="512" width="512.0" xmlns="http://www.w3.org/2000/svg"><path d="m358.4 62c-36 20.9-74.1 48.1-109.2 83.3-22.5 22.5-40.7 44.4-55.2 64.9l-89.2 16.5-104.8 104.8 93.4 2.9 65.8-65.8c-23.2 48.1-25.3 80-25.3 80l29.5 29.4c0 0 32.9-3.1 81.3-26.6l-67.1 67.2 2.9 93.4 104.8-104.8 16.5-89.6c20.7-14.5 42.6-32.5 64.9-54.8 35.2-35.2 62.4-73.2 83.3-109.2-23-4.7-44.1-14.2-60.7-30.8-16.7-16.7-26.3-37.8-30.9-60.8z m34.7-18.6c2.5 22.5 10 40.7 22.4 53 12.4 12.5 30.5 20 53 22.4 33-66.6 43.5-118.8 43.5-118.8s-52.2 10.4-118.9 43.4z" /></svg>