<svg height="512" width="464.9" xmlns="http://www.w3.org/2000/svg"><path d="m38.9 212.7l0.6-1.5 113-28.9c-0.5 3.2-1 9.7-1 9.7 0 64 64 64 64 64s64 0 64-64c0-5.4-4.2-11-9.5-16.1l24.5 1.5c0 0 3.7-1 15.4-4.1-25.6 6.8-53.8-15.3-62.9-49.4-9.2-34.2 4.2-67.4 29.8-74.3-11.8 3.2-15.5 4.2-15.5 4.2l-84.2 55c-17 4.6-27.4 22.8-22.9 39.9 1.2 4.4 3.3 8.3 6 11.6-3.5 6.2-6.1 12.8-7.5 19.9-13.5-0.7-25.7-9.5-29.4-23.2-4.5-17.1 5.6-34.6 22.7-39.2l-122.5 32.6c-17 4.6-27 21.4-22.4 38.4 4.6 17.1 20.7 28.5 37.8 23.9z m208.6 75.3h-64v32l-160 160h64l96-64v64h64v-64l96 64h64l-160-160v-32z m214.4-224c-9.1-34.1-35.2-54.9-60.8-48-34.3 9.2-49.1 13.9-92.8 25.6-25.6 6.9-39.6 39.8-30.4 74 9.1 34.1 36.8 57.7 62.4 50.8 43.7-11.7 58.5-16.4 92.8-25.6 25.6-6.9 38-42.7 28.8-76.8z m-35.2 44.8c-8.5 2.3-20.6-9.3-25.2-26.4l-0.4 0.8c-4.5-17.1-2.1-32.9 6.4-35.2s21.1 8.5 25.6 25.6c4.6 17.1 2.2 32.9-6.4 35.2z" /></svg>