<svg height="512" width="512.0" xmlns="http://www.w3.org/2000/svg"><path d="m143.3 232.5c8.4 8.4 40.8 42.6 40.8 42.6l18-18.5-28.2-29.1 54.1-57.5c0 0-24.4-23.8-13.7-14.3 10.2-38 0.9-80.3-27.9-110.1-28.6-29.6-69.2-39.3-105.7-29.1l61.8 63.8-16.2 62.7-60.6 16.7-61.8-63.9c-9.8 37.7-0.4 79.7 28.2 109.3 30.1 31 73.3 40.2 111.2 27.4z m206.1 62.1l-74.6 73.7 123 127.4c10 10.4 23.3 15.6 36.4 15.6 13.2 0 26.4-5.2 36.5-15.6 20.1-20.8 20.1-54.5 0-75.3l-121.3-125.8z m162.4-213.7l-78.3-80.9-230.8 238.6 28.2 29.2-138.2 142.8-31.6 16.9-44.6 72.7 11.4 11.8 70.4-46.1 16.3-32.7 138.2-142.7 28.2 29.1 230.8-238.7z" /></svg>