<svg height="512" width="512.0" xmlns="http://www.w3.org/2000/svg"><path d="m467.8 210.4h-41.5c-4.2-17.5-10.9-34-19.6-49.2l29.2-30.6c4.4-4.6 4.4-12.2 0-16.8l-45.6-47.9c-4.4-4.6-11.6-4.6-16 0l-29.6 31c-14.3-8.8-29.9-15.5-46.4-19.8v-43.2c0-6.6-5.1-11.9-11.4-11.9h-64.4c-6.3 0-11.4 5.3-11.4 11.9v43.9c-16.2 4.5-31.5 11.3-45.5 20.2l-29.1-30.6c-4.5-4.7-11.7-4.7-16.1 0l-45.6 47.8c-4.4 4.6-4.4 12.2 0 16.8l29.6 31c-8.2 14.7-14.6 30.6-18.7 47.4h-41.4c-6.3 0-11.4 5.4-11.4 12v67.6c0 6.6 5.1 11.9 11.4 11.9h41.4c4.1 16.9 10.5 32.8 18.7 47.4l-29.6 31c-4.4 4.7-4.4 12.3 0 16.9l45.5 47.8c4.5 4.7 11.7 4.7 16.1 0l29.2-30.6c14 8.9 29.3 15.7 45.5 20.2v43.9c0 6.6 5.1 11.9 11.4 11.9h64.4c6.3 0 11.4-5.3 11.4-11.9v-43.2c16.5-4.3 32.1-11 46.4-19.9l28.9 30.3c4.4 4.7 11.6 4.7 16.1 0l45.5-47.8c4.5-4.6 4.5-12.2 0-16.9l-28.5-29.9c8.7-15.1 15.4-31.6 19.6-49.2h41.5c6.2 0 11.3-5.3 11.3-11.9v-67.6c0-6.6-5.1-12-11.3-12z m-211.8 180.8c-73.9 0-133.9-60.5-133.9-135.1 0-74.6 60-135.1 133.9-135.1s133.8 60.5 133.8 135.1c0 74.6-59.9 135.1-133.8 135.1z m36-117.4c-15.1-5-18.3-15-18.3-25.3 0-10.4 5.2-13.5 9.3-19.8 4.2-6.3 4.2-30.8 4.2-30.8 0-33.4-8-49.5-31.1-49.5-23.1 0-31.1 16.1-31.1 49.5 0 0 0 24.5 4.2 30.8 4.1 6.3 9.3 9.5 9.3 19.8 0 10.3-3.2 20.3-18.3 25.3-25.2 8.3-53.2 12.5-53.2 33.4 0 11-1.4 27.1 6.2 27.1h165.7c7.6 0 6.2-16.1 6.2-27.1 0-20.9-27.9-25.1-53.1-33.4z" /></svg>