<svg height="512" width="512.0" xmlns="http://www.w3.org/2000/svg"><path d="m457.2 274.8h-14.8l0 134.3c0 0-18.4-12-52.2-27.3l0-296c33.7-15.3 52.1-27.2 52.1-27.2l0.1 134.2h14.8c8.3 0 15 6.7 15 14.9v52.2c0 8.3-6.7 14.9-15 14.9z m-260.3 53.2l19.9 19.9c5.8 5.8 5.8 15.2 0 21l-15.2 15.1c12.8 33.5 19 38.3 24.5 39.9 14.4 4.4 3.3 29.9-22.3 29.9h-37.3c-8.3 0-14.9-6.7-14.9-14.9l-22.1-81 0 0c-8.3 0-14.9-6.7-14.9-14.9l-10-26.6c-8.2-0.3-16.5-0.4-25-0.4-52.6 0-53.3-164.6 0-164.6 125 0 225-30 288.2-55.9v276.5c-40.5-16.6-96.3-34.9-164-45.9-2 1.1-4.4 1.8-6.9 1.9z" /></svg>