<svg height="512" width="512.0" xmlns="http://www.w3.org/2000/svg"><path d="m476.6 200.1h-100.4c-9.9 0-17.9 8-17.9 17.8v206.5c0 9.8 8 17.8 17.9 17.8h100.4c9.9 0 17.9-8 17.9-17.8v-206.5c0-9.8-8-17.8-17.9-17.8z m-50.4 230c-6.8 0-12.4-5.7-12.4-12.7 0-7 5.6-12.7 12.4-12.7 6.9 0 12.4 5.7 12.4 12.7 0 7-5.5 12.7-12.4 12.7z m53.1-40.9h-105.9v-158.7h105.9v158.7z m-431.3-131.6v-169c0-5.5 4.5-10 10-10h320.7c5.6 0 10.1 4.5 10.1 10v96.4h30v-116.3c0-11-8.9-19.9-20-19.9h-360.8c-11.1 0-20.1 8.9-20.1 19.9v248.6c0 10.9 9 19.8 20.1 19.8h130.3v19.9l-30.1 19.9c-5.6 0-10 4.5-10 9.9s4.4 10 10 10h160.3c5.6 0 10.1-4.5 10.1-10s-4.5-9.9-10.1-9.9l-20-19.9v-19.9h64.7v-69.6h-285.2c-5.5 0-10-4.4-10-9.9z m170.4 29.8c11 0 20 6.7 20 14.9s-9 15-20 15-20.1-6.7-20.1-15 9-14.9 20.1-14.9z" /></svg>