<svg height="512" width="512.0" xmlns="http://www.w3.org/2000/svg"><path d="m134 38h-84.4c-15 0-27.2 12.1-27.2 27l0 382.1c0 14.8 12.2 26.9 27.2 26.9h84.4c15.1 0 27.3-12.1 27.3-27l0-382c0-14.9-12.2-27-27.3-27z m-42.2 386.4c-17.3 0-31.4-14-31.4-31.2 0-17.2 14-31.1 31.4-31.1 17.4 0 31.5 13.9 31.5 31.1 0 17.2-14.1 31.2-31.5 31.2z m40.9-169.2h-81.7v-184.2h81.7v184.2z m165.1-217.2h-84.4c-15 0-27.3 12.1-27.3 27l0.1 382.1c-0.1 14.8 12.2 26.9 27.2 26.9h84.4c15.1 0 27.3-12.1 27.3-27l0-382c0-14.9-12.2-27-27.3-27z m-42.2 386.4c-17.4 0-31.4-14-31.4-31.2 0-17.2 14-31.1 31.4-31.1 17.4 0 31.5 13.9 31.5 31.1 0 17.2-14.1 31.2-31.5 31.2z m40.9-169.2h-81.7v-184.2h81.7v184.2z m165.3-217.2h-84.4c-15 0-27.3 12.1-27.3 27l0.1 382.1c-0.1 14.8 12.2 26.9 27.2 26.9h84.4c15.1 0 27.3-12.1 27.3-27l0-382c0-14.9-12.2-27-27.3-27z m-42.2 386.4c-17.4 0-31.4-14-31.4-31.2 0-17.2 14-31.1 31.4-31.1 17.4 0 31.5 13.9 31.5 31.1 0 17.2-14.1 31.2-31.5 31.2z m40.9-169.2h-81.7v-184.2h81.7v184.2z" /></svg>