<svg height="512" width="512.0" xmlns="http://www.w3.org/2000/svg"><path d="m461.6 98.2l-86.8-86.9-291.2-0.1c-18 0-32.6 14.8-32.6 33.1v423.5c0 18.2 14.6 33 32.6 33h345.4c18 0 32.6-14.8 32.6-33l0-369.6v-0.1l0 0.1z m-284.3 269.9c0 12.1-7 22-15.7 22h-23.6c-8.7 0-15.7-9.9-15.7-22v-11c0-12.2 7-22.1 15.7-22.1h23.6c8.7 0 15.7 9.9 15.7 22.1v11z m0-94.8c0 12.2-7 22.1-15.7 22.1h-23.6c-8.7 0-15.7-9.9-15.7-22.1v-11c0-12.2 7-22 15.7-22h23.6c8.7 0 15.7 9.8 15.7 22v11z m0-94.7c0 12.2-7 22-15.7 22h-23.6c-8.7 0-15.7-9.8-15.7-22v-11c0-12.2 7-22.1 15.7-22.1h23.6c8.7 0 15.7 9.9 15.7 22.1v11z m205.5 204.8c0 3.8-3.4 6.9-7.4 6.9h-143.3c-4.1 0-7.4-3.1-7.4-6.9v-41.6c0-3.8 3.3-6.9 7.4-6.9h143.3c4 0 7.4 3.1 7.4 6.9v41.6z m0-94.7c0 3.8-3.4 6.9-7.4 6.9h-143.3c-4.1 0-7.4-3.1-7.4-6.9v-41.7c0-3.8 3.3-6.8 7.4-6.8h143.3c4 0 7.4 3 7.4 6.8v41.7z m0-94.7c0 3.8-3.4 6.8-7.4 6.8h-143.3c-4.1 0-7.4-3-7.4-6.8v-41.7c0-3.8 3.3-6.9 7.4-6.9h143.3c4 0 7.4 3.1 7.4 6.9v41.7z m2.1-80c-14.3 0-25.9-11.8-25.9-26.2l15.8-76.3v59.6c0 15 11.9 27.1 26.6 27.1h59.8l-76.3 15.8z" /></svg>