<svg height="512" width="512.0" xmlns="http://www.w3.org/2000/svg"><path d="m409.4 232.9c-13 0-25.5 2.5-36.9 7l115.7-108.3v138.2c-19-22.6-47.2-36.9-78.8-36.9z m-155.6 67.1c-14.8-0.1-28.2-4.1-45.4-15.9l-189-178.5c0-8.4 6.8-15.2 15.2-15.2h438.4c8.4 0 15.2 6.8 15.2 15.2l-189 178.5c-17.2 11.8-30.6 15.8-45.4 15.9z m-221.4-209.6c0.7-0.2 1.4-0.2 2.2-0.2h438.4c0.8 0 1.5 0 2.2 0.2h-442.8z m140.3 184.6l-153.3 105.4v-248.8l153.3 143.4z m35.7 33.4c17.2 11.8 30.6 15.8 45.4 16 14.8-0.2 28.2-4.2 45.4-16l16.9-15.8c-6.4 13.5-10 28.7-10 44.7 0 32.8 15.1 62.1 38.6 81.3h-310.1c-8.4 0-15.2-6.9-15.2-15.3l168.2-114.4 20.8 19.5z m201-55.7c46.3 0 83.8 37.8 83.8 84.6 0 46.7-37.5 84.6-83.8 84.6-46.2 0-83.8-37.9-83.8-84.6 0-46.8 37.6-84.6 83.8-84.6z m-10.5 103.8c0.1 0.1 0.1 0.2 0.1 0.2 0.5 0.5 1 0.7 1.5 1.1 0.8 0.6 1.5 1.2 2.4 1.6 0.6 0.2 1.2 0.2 1.8 0.4 0.7 0.1 1.4 0.4 2.2 0.4 0 0 0.1 0 0.1 0 0.2 0 0.4 0.1 0.6 0.1h42.7c6.6 0 11.9-5.2 11.9-11.7s-5.3-11.7-11.9-11.7h-32.3v-43.5c0-6.7-4.9-12.1-11.1-12.1-6.2 0-11.2 5.4-11.2 12.1v54.8c0 0 0.1 0 0.1 0 0 0.2-0.1 0.3-0.1 0.4 0 3.1 1.2 5.8 3.2 7.9z m75.3 62c5.1-4.1 9.7-8.7 13.9-13.6-0.8 7.3-6.6 13-13.9 13.6z" /></svg>