<svg height="512" width="512.0" xmlns="http://www.w3.org/2000/svg"><path d="m217.9 189.4c0-9-33.3-16.5-77.4-18.2 0-0.1 0-0.2 0-0.3 0-4.1-8-7.4-17.8-7.4s-17.9 3.3-17.9 7.4c0 0.1 0 0.2 0 0.3-44 1.7-77.4 9.2-77.4 18.2 0 10.2 42.7 18.4 95.3 18.4 52.6 0 95.2-8.2 95.2-18.4z m-29.3 55.4c0 4.1 1.6 7.4 3.7 7.4h102.5c2 0 3.7-3.3 3.7-7.4 0-4.1-1.7-7.4-3.7-7.4h-102.5c-2.1 0-3.7 3.3-3.7 7.4z m276.4 61.9l-49.3 19.1v-7.3l45.8-18.2-20.9-78.5-24.9 9.9v-7.2l28.5-11c1.9-0.5 2.6-4.2 1.6-8.1-1-3.9-3.5-6.7-5.4-6.2l-24.7 9.6v-8.3c0-2.1-0.8-3.9-2.1-5.2 1.4-2.8 1-6.4-1.3-8.7l-12-49.3c-1.6-5.8-13.3-1.8-10.4 10.5 2.2 9.4 11.6 47.5 12 49.2-0.6 1-0.9 2.2-0.9 3.5v14l-53.1 20.5c-2 0.5-2.7 4.2-1.7 8.1 1.1 3.9 3.5 6.7 5.5 6.2l49.3-19.1v7.3l-45.8 18.2 2.4 9.1-53.7 14.5c-1.9 0.6-2.7 4.2-1.6 8.1 1 4 3.5 6.7 5.4 6.2l53.7-14.5 1.9 6.9-50.1 13.5c-6.6-6-14-11.1-22.1-15.1v-24.9h-95.2v30.9c-1.6 1.1-3.2 2.2-4.7 3.4-0.4-0.7-0.9-1.2-1.5-1.4l-59.7-16.1v-53.7c0-4.1-3.3-7.4-7.3-7.4-4.1 0-7.4 3.3-7.4 7.4v49.8l-45.9-12.4c-1.9-0.6-4.4 2.2-5.4 6.1-1.1 4-0.3 7.6 1.6 8.1l49.7 13.5v7.3l-46.1-12.4-20.9 78.4 67 18.1v7.4l-70.5-19.1c-2-0.5-4.4 2.3-5.5 6.2-1 4-0.3 7.6 1.7 8.1l74.3 20.1v20.2c0 0.2 0.1 0.4 0.1 0.7l-26.6 33.3c-3.1 3-4.5 6-1.5 9 3.1 3.1 6.5 0.7 9.6-2.4l26.5-33.2c0.4-0.1 0.7-0.1 1-0.2l25.1 33.2c2.8 3 5.5 5.5 8.4 2.4 2.9-3.1 2.2-6.1-0.7-9.1l-27.2-36.1v-13.9l31.3 8.5c0.6 0.2 1.3 0 1.9-0.4 4.6 9.1 10.6 17.3 17.8 24.5l-11.7 17.5c-3 3-3.7 6-0.7 9 3 3 5.8 0.6 8.8-2.4l11.2-17.3c16.4 13.3 37.3 21.2 60.1 21.2 20.9 0 40.1-6.6 55.9-18l13.3 14.1c2.9 3 5.5 5.5 8.4 2.4 2.9-3.1 2.2-6.1-0.7-9.1l-12.9-14c12.7-11.3 22.3-26.1 27.5-42.7l60.8-16.5v39.5c0 0.2 0 0.4 0 0.7l-26.6 33.3c-3 3-4.4 6-1.4 9 3 3.1 6.5 0.7 9.5-2.4l26.6-33.2c0.3-0.1 0.7-0.1 1-0.2l25 33.2c2.9 3 5.5 5.5 8.4 2.4 2.9-3.1 2.2-6.1-0.7-9.1l-27.1-36.1v-78.1l53.1-20.5c2-0.6 2.7-4.2 1.6-8.1-1-4-3.4-6.7-5.4-6.2z m-335 83.8v-7.4l24.8 6.7c0.6 2.7 1.3 5.3 2 7.9l-26.8-7.2z m0-91.5v-7.4l48.8 13.2c-1.8 1.9-3.5 3.9-5.1 6l-43.7-11.8z m118.6 145.2c-40.7 0-73.7-33.1-73.7-73.8 0-40.7 33-73.7 73.7-73.7s73.7 33 73.7 73.7c0 40.7-33 73.8-73.7 73.8z m152.4-77l-57.3 15.5c0.4-2.5 0.6-5 0.7-7.5l56.6-15.3v7.3z m0-14.8l-1.2-4.7 1.2-0.5v5.2z m0-20.9l-5 1.9-1.7-6.4 6.7-2.7v7.2z m83.2-283.4c-4.7-8.2-47.3 7.6-97.9 35.8 0 0 0-0.1-0.1-0.1-4-7.1-13-9.5-20-5.4-7 4-9.4 13.1-5.3 20.1 0 0.1 0 0.1 0 0.2-49.5 30.1-84.4 59.4-79.7 67.5 5.1 8.9 54.6-10.4 110.7-43.1 56-32.6 97.4-66.2 92.3-75z" /></svg>