<svg height="512" width="512.0" xmlns="http://www.w3.org/2000/svg"><path d="m473.4 190.3h-13.2c-3.6 0-6.5 2.9-6.5 6.5v6.6h-13.2v-118.4c0-10.9-8.8-19.7-19.7-19.7h-328.9c-10.9 0-19.7 8.8-19.7 19.7v118.4h-13.2v-6.6c0-3.6-2.9-6.5-6.6-6.5h-13.1c-3.7 0-6.6 2.9-6.6 6.5v243.4c0 3.6 2.9 6.6 6.6 6.6h13.1c3.7 0 6.6-3 6.6-6.6v-210.5h13.2v105.3c0 10.9 8.8 19.7 19.7 19.7h328.9c10.9 0 19.7-8.8 19.7-19.7v-105.3h13.2v210.5c0 3.6 2.9 6.6 6.5 6.6h13.2c3.6 0 6.6-3 6.6-6.6v-243.4c0-3.6-3-6.5-6.6-6.5z m-52.6 131.5c0 7.3-5.9 13.2-13.2 13.2h-302.5c-7.3 0-13.2-5.9-13.2-13.2v-223.6c0-7.3 5.9-13.2 13.2-13.2h302.5c7.3 0 13.2 5.9 13.2 13.2v223.6z m-32.9-217.1h-263.1c-7.3 0-13.2 5.9-13.2 13.2v184.2c0 7.2 5.9 13.1 13.2 13.1h263.1c7.2 0 13.1-5.9 13.1-13.1v-184.2c0-7.3-5.9-13.2-13.1-13.2z" /></svg>