<svg height="512" width="512.0" xmlns="http://www.w3.org/2000/svg"><path d="m104.9 378.2l-69.4 71 441 0-69.6-71h-302z m13.3 47.3c-6.5 0-11.7-5.3-11.7-11.9 0-6.5 5.2-11.8 11.7-11.8 6.5 0 11.8 5.3 11.8 11.8 0 6.6-5.3 11.9-11.8 11.9z m275.8 0c-6.5 0-11.8-5.3-11.8-11.9 0-6.5 5.3-11.8 11.8-11.8s11.7 5.3 11.7 11.8c0 6.6-5.2 11.9-11.7 11.9z m12.9-291.6l69.6-70.7-441-0.1 69.4 70.8h302z m-12.9-47.2c6.5 0 11.7 5.3 11.7 11.8 0 6.6-5.2 11.9-11.7 11.9s-11.8-5.3-11.8-11.9c0-6.5 5.3-11.8 11.8-11.8z m-275.8 0c6.5 0 11.8 5.3 11.8 11.8 0 6.6-5.3 11.9-11.8 11.9-6.5 0-11.7-5.3-11.7-11.9 0-6.5 5.2-11.8 11.7-11.8z m-11.8 275.7h299.2v-63.1h-299.2v63.1z m299.2-134h-299.2v55.3h299.2v-55.3z m-315-81.1l-70.8-68.5 0 354.7 70.8-68.7v-217.5z m-35.4 215.2c-6.5 0-11.8-5.3-11.8-11.9 0-6.5 5.3-11.8 11.8-11.8 6.5 0 11.8 5.3 11.8 11.8 0 6.6-5.3 11.9-11.8 11.9z m0-189.1c-6.5 0-11.8-5.3-11.8-11.8 0-6.6 5.3-11.9 11.8-11.9 6.5 0 11.8 5.3 11.8 11.9 0 6.5-5.3 11.8-11.8 11.8z m350.4-23.7h-299.2v63.1h299.2v-63.1z m15.9-2.4v217.5l70.8 68.7 0-354.7-70.8 68.5z m35.5 215.2c-6.5 0-11.8-5.3-11.8-11.9 0-6.5 5.3-11.8 11.8-11.8s11.7 5.3 11.7 11.8c0 6.6-5.2 11.9-11.7 11.9z m0-189.1c-6.5 0-11.8-5.3-11.8-11.8 0-6.6 5.3-11.9 11.8-11.9s11.7 5.3 11.7 11.9c0 6.5-5.2 11.8-11.7 11.8z" /></svg>