<svg height="512" width="512.0" xmlns="http://www.w3.org/2000/svg"><path d="m411.8 247.8l-49.1 13.2 2.6 9.7 49.2-13.1-2.7-9.8z m-73 40.4l2.6 9.8 19.2-5.1-2.6-9.8-19.2 5.1z m29.1-7.7l2.6 9.7 10-2.6-2.7-9.8-9.9 2.7z m41.3-42.4l-2.6-9.7-49.1 13.1 2.6 9.7 49.1-13.1z m61.3-168.3h-179.5v100.3h-70.5v-100.3h-179.6c-11.9 0-21.5 9.6-21.5 21.4v77.9l14.2 0v251.8c0 11.8 9.7 21.4 21.7 21.4h165.2v-243.6h70.5v243.6h165.1c12 0 21.8-9.6 21.8-21.4v-251.8l14.2 0v-77.9c0-11.8-9.7-21.4-21.6-21.4z m-36 224.2l-97.6 26.1c-5.4 1.5-11-1.7-12.4-7.1l-18.3-68.2c-1.5-5.4 1.7-11 7.1-12.4l97.7-26.1c5.4-1.4 10.9 1.7 12.4 7.1l18.3 68.2c1.4 5.4-1.8 11-7.2 12.4z m-27.4-24l2.6 9.8 10-2.7-2.7-9.8-9.9 2.7z m-19.5 5.2l2.6 9.8 9.9-2.7-2.7-9.7-9.8 2.6z m-39.6-31.2l-19.8 5.3 7.8 29.3 19.9-5.3-7.9-29.3z" /></svg>