<svg height="512" width="512.0" xmlns="http://www.w3.org/2000/svg"><path d="m437.1 104.9h-71.9v-18.1c0-13.9-11.4-25.2-25.5-25.2h-160.1c-6.7 0-12.7 2.6-17.3 6.7-0.3 0.2-0.6 0.4-0.8 0.7-0.1 0.1-0.2 0.2-0.3 0.3-4.4 4.6-7.2 10.7-7.2 17.5v18.1h-79.1c-24.6 0-44.5 19.7-44.5 44v113.4h180.3v-27.3c0-11.8 9.7-21.4 21.6-21.4h43.1c12 0 21.6 9.6 21.6 21.4v27.3h184.6v-113.4c0-24.3-19.9-44-44.5-44z m-101 0h-152.9v-14.9h152.9v14.9z m-39.1 182.4c0 11.8-9.6 21.4-21.6 21.4h-43.1c-11.9 0-21.6-9.6-21.6-21.4v-8.6h-180.3v127.8c0 24.3 19.9 44 44.5 44h362.2c24.6 0 44.5-19.7 44.5-44v-127.8h-184.6v8.6z" /></svg>