<svg height="512" width="512.0" xmlns="http://www.w3.org/2000/svg"><path d="m361 335.8c2.4-10 4.2-20.5 5.1-31.3l38.2-0.3 73.1 46-43.9-88.7-68.7-6.2c-0.9-6.5-2.1-12.9-3.6-19.1l60.7-21.1 29.8-106.6-58.7 71.9-48.1 12.5c-8.5-16-19.2-29.6-31.5-40 1.3-4.7 1.9-9.7 1.9-14.8 0-4.9-0.6-9.5-1.7-14l25.7-9 20.2-58.2-39.8 34.5-21.1 5.5c-10.8-11-25.7-17.8-42.3-17.8-16.2 0-30.8 6.5-41.5 17.1l-20.7-5.2-41-34.1 20.8 57.6 25.4 8.5c-1.3 4.8-1.9 9.9-1.9 15.1 0 5.1 0.6 10.1 1.8 14.8-11.9 10.1-22.3 23.3-30.7 38.7l-47-11.7-60.4-71.4 30.7 105.7 60.1 20.2c-1.7 6.7-3 13.7-4 20.9l-68.8 6.2-43.9 88.7 73.2-46 38.2 0.3c1 11.6 2.9 22.7 5.6 33.3l-61.4 20.2-30.9 97.1 60.9-63.3 48-11.7c20.2 36.7 51.9 60.2 87.5 60.2 36.1 0 68.2-24.2 88.4-61.6l49.9 12.5 59.1 63.9-30-98-62.7-21.3z" /></svg>