<svg height="512" width="512.0" xmlns="http://www.w3.org/2000/svg"><path d="m432.4 107.4c0-51.3-41.5-92.8-92.8-92.8h-167.2c-51.3 0-92.8 41.5-92.8 92.8l-18.6 241.5c0 65.8 0 85.6 46.4 90.9v29.8c0 15.4 12.5 27.8 27.9 27.8h9.3c15.4 0 27.8-12.4 27.8-27.8v-27.9h167.2v27.9c0 15.4 12.4 27.8 27.8 27.8h9.3c15.4 0 27.9-12.4 27.9-27.8v-29.8c46.4-5.3 46.4-25.1 46.4-90.9l-18.6-241.5z m-264.6-65h185.7c7.7 0 13.9 6.3 13.9 13.9 0 7.7-6.2 14-13.9 14h-185.7c-7.7 0-13.9-6.3-13.9-14 0-7.6 6.2-13.9 13.9-13.9z m-27.9 343.6c-17.9 0-32.5-14.6-32.5-32.5 0-17.9 14.6-32.5 32.5-32.5 18 0 32.5 14.6 32.5 32.5 0 17.9-14.5 32.5-32.5 32.5z m232.2 0c-18 0-32.5-14.6-32.5-32.5 0-17.9 14.5-32.5 32.5-32.5 17.9 0 32.5 14.6 32.5 32.5 0 17.9-14.6 32.5-32.5 32.5z m4.6-111.4h-241.4c-15.4 0-27.9-12.5-27.9-27.9l7-120.7c0-15.4 12.5-27.9 27.8-27.9h227.6c15.3 0 27.8 12.5 27.8 27.9l7 120.7c0 15.4-12.5 27.9-27.9 27.9z" /></svg>