<svg height="512" width="512.0" xmlns="http://www.w3.org/2000/svg"><path d="m404.7 27.2h-297c-9.7 0-17.6 8-17.6 17.8v422.1c0 9.8 7.9 17.7 17.6 17.7h297c9.7 0 17.5-7.9 17.5-17.7v-422.1c0-9.8-7.8-17.8-17.5-17.8z m-211.3 410.2c0 9.9-8 18-17.8 18h-30.7c-9.9 0-17.9-8.1-17.9-18v-30.5c0-9.9 8-18 17.9-18h30.7c9.8 0 17.8 8.1 17.8 18v30.5z m0-88.7c0 9.9-8 17.9-17.8 17.9h-30.7c-9.9 0-17.9-8-17.9-17.9v-30.6c0-9.9 8-17.9 17.9-17.9h30.7c9.8 0 17.8 8 17.8 17.9v30.6z m0-95.9c0 9.9-8 17.9-17.8 17.9h-30.7c-9.9 0-17.9-8-17.9-17.9v-30.6c0-9.8 8-17.9 17.9-17.9h30.7c9.8 0 17.8 8.1 17.8 17.9v30.6z m96.1 184.6c0 9.9-8 18-17.8 18h-30.8c-9.8 0-17.8-8.1-17.8-18v-30.5c0-9.9 8-18 17.8-18h30.8c9.8 0 17.8 8.1 17.8 18v30.5z m0-88.7c0 9.9-8 17.9-17.8 17.9h-30.8c-9.8 0-17.8-8-17.8-17.9v-30.6c0-9.9 8-17.9 17.8-17.9h30.8c9.8 0 17.8 8 17.8 17.9v30.6z m0-95.9c0 9.9-8 17.9-17.8 17.9h-30.8c-9.8 0-17.8-8-17.8-17.9v-30.6c0-9.8 8-17.9 17.8-17.9h30.8c9.8 0 17.8 8.1 17.8 17.9v30.6z m95.9 184.6c0 9.9-8 18-17.9 18h-30.7c-9.9 0-17.9-8.1-17.9-18v-30.5c0-9.9 8-18 17.9-18h30.7c9.9 0 17.9 8.1 17.9 18v30.5z m0-88.7c0 9.9-8 17.9-17.9 17.9h-30.7c-9.9 0-17.9-8-17.9-17.9v-30.6c0-9.9 8-17.9 17.9-17.9h30.7c9.9 0 17.9 8 17.9 17.9v30.6z m0-95.9c0 9.9-8 17.9-17.9 17.9h-30.7c-9.9 0-17.9-8-17.9-17.9v-30.6c0-9.8 8-17.9 17.9-17.9h30.7c9.9 0 17.9 8.1 17.9 17.9v30.6z m7.3-102.8c0 9.7-7.8 17.5-17.4 17.5h-230.9c-9.6 0-17.4-7.8-17.4-17.5v-46.1c0-9.7 7.8-17.5 17.4-17.5h230.9c9.7 0 17.4 7.8 17.4 17.5v46.1z" /></svg>