<svg height="512" width="512.0" xmlns="http://www.w3.org/2000/svg"><path d="m459.7 141.2l-73.3 117.2c-4.8 7.5-15.6 12.4-23.8 12.3 0 0-149.7 0-159.9 0-8.6 0-16.6-8.9-19.9-19.6 0 0-18.6-64.6-28.4-103.4-4.7-18.7 5.9-23.9 17.7-23.9 11.7 0 277 0 277 0 10-0.2 16.1 6.8 10.6 17.4z m-103.4 143c32.9 0 54 12.7 54 45.1 0 33.7-27.2 43.9-52.8 44.3h17.3c0 0-1 2.5-2.6 6.4 9.6 6.6 16 17.7 16 30.3 0 20.3-16.5 36.7-36.7 36.7-20.3 0-36.7-16.4-36.7-36.7 0-12.6 6.3-23.6 16-30.3-1.6-3.8-2.6-6.3-2.6-6.4h-137.1c0 0.1-1 2.6-2.6 6.4 9.7 6.6 16 17.7 16 30.3 0 20.3-16.4 36.7-36.7 36.7-20.2 0-36.6-16.4-36.6-36.7 0-12.6 6.3-23.6 15.9-30.3-1.5-3.8-2.6-6.3-2.6-6.4h-4.1c-9.8 0-17-7.9-17-17.6 0-9.7 7.2-17 17-17h215.3c13.7 0 19.5 4.5 19.5-9.7 0-12.3-6.2-10.3-19.5-10.3h-198.2c-8.2 0-15.4-5.4-17.3-13.2l-46.2-185.3-21.4-20.8h-4.5c-9.8 0-17.8-7.4-17.8-17.1 0-9.7 8-17.6 17.8-17.6h11.9c4.8 0 9.3 1.9 12.6 5.2l29.9 29.4c2.3 2.3 4 5.1 4.7 8.2l44.2 176.4h184.9z" /></svg>