<svg height="512" width="512.0" xmlns="http://www.w3.org/2000/svg"><path d="m359.6 18.6h-225.8c-23.5 0-42.6 18.1-42.6 40.5v44.1h-15.9c-10.4 0-18.8 6.9-18.8 15.3 0 8.5 8.4 15.3 18.8 15.3h15.9v100.1h-15.9c-10.4 0-18.8 6.8-18.8 15.3 0 8.4 8.4 15.3 18.8 15.3h15.9v100h-15.9c-10.4 0-18.8 6.9-18.8 15.3s8.4 15.3 18.8 15.3h15.9v36.5c0 22.3 19.1 40.5 42.6 40.5h225.8c23.5 0 42.6-18.2 42.6-40.5v-372.5c0-22.3-19.1-40.5-42.6-40.5z m-222.4 392c-10.8 0-20.1-6.3-24.4-15.4h9.4c10.4 0 18.8-6.9 18.8-15.4s-8.4-15.3-18.8-15.3h-3.8c4.8-4.7 11.5-7.6 18.8-7.6 14.8 0 26.8 12 26.8 26.8 0 14.9-12 26.9-26.8 26.9z m0-130.6c-10.8 0-20.1-6.3-24.4-15.5h9.4c10.4 0 18.8-6.9 18.8-15.3 0-8.5-8.4-15.3-18.8-15.3h-3.9c4.8-4.9 11.5-7.8 18.9-7.8 14.8 0 26.8 12 26.8 26.9 0 15-12 27-26.8 27z m0-130.7c-10.8 0-20-6.3-24.3-15.5h9.3c10.4 0 18.8-6.8 18.8-15.3 0-8.4-8.4-15.3-18.8-15.3h-3.9c4.9-4.7 11.5-7.7 18.9-7.7 14.8 0 26.8 12.1 26.8 26.9 0 14.8-12 26.9-26.8 26.9z m303.5-77.1h-23.2v106.3h23.2c8.6 0 15.5-7.9 15.5-17.7v-70.9c0-9.7-6.9-17.7-15.5-17.7z m0 133.1h-23.2v106.3h23.2c8.6 0 15.5-7.9 15.5-17.7v-70.8c0-9.8-6.9-17.8-15.5-17.8z m0 133.3h-23.2v107.2h23.2c8.6 0 15.5-8 15.5-17.9v-71.5c0-9.8-6.9-17.8-15.5-17.8z" /></svg>