<svg height="512" width="512.0" xmlns="http://www.w3.org/2000/svg"><path d="m333.8 80.2h-156.1c-2 0-3.9 0.2-5.9 0.5v-61.3c0-4.8-3.9-8.8-8.8-8.8h-17.5c-4.9 0-8.9 4-8.9 8.8v441.4c0 22.4 18.4 40.6 41.1 40.6h156.1c22.7 0 41.1-18.2 41.1-40.6v-339.9c0-22.5-18.4-40.7-41.1-40.7z m-114.9 375.7c0 3.7-3.1 6.8-6.9 6.8h-25.9c-3.8 0-6.9-3.1-6.9-6.8v-19.6c0-3.7 3.1-6.7 6.9-6.7h25.9c3.8 0 6.9 3 6.9 6.7v19.6z m0-66.8c0 3.8-3.1 6.8-6.9 6.8h-25.9c-3.8 0-6.9-3-6.9-6.8v-19.5c0-3.7 3.1-6.8 6.9-6.8h25.9c3.8 0 6.9 3.1 6.9 6.8v19.5z m0-66.7c0 3.7-3.1 6.8-6.9 6.8h-25.9c-3.8 0-6.9-3.1-6.9-6.8v-19.6c0-3.7 3.1-6.7 6.9-6.7h25.9c3.8 0 6.9 3 6.9 6.7v19.6z m56.6 133.5c0 3.7-3 6.8-6.8 6.8h-26c-3.7 0-6.8-3.1-6.8-6.8v-19.6c0-3.7 3.1-6.7 6.8-6.7h26c3.8 0 6.8 3 6.8 6.7v19.6z m0-66.8c0 3.8-3 6.8-6.8 6.8h-26c-3.7 0-6.8-3-6.8-6.8v-19.5c0-3.7 3.1-6.8 6.8-6.8h26c3.8 0 6.8 3.1 6.8 6.8v19.5z m0-66.7c0 3.7-3 6.8-6.8 6.8h-26c-3.7 0-6.8-3.1-6.8-6.8v-19.6c0-3.7 3.1-6.7 6.8-6.7h26c3.8 0 6.8 3 6.8 6.7v19.6z m56.7 133.5c0 3.7-3 6.8-6.8 6.8h-26c-3.7 0-6.8-3.1-6.8-6.8v-19.6c0-3.7 3.1-6.7 6.8-6.7h26c3.8 0 6.8 3 6.8 6.7v19.6z m0-66.8c0 3.8-3 6.8-6.8 6.8h-26c-3.7 0-6.8-3-6.8-6.8v-19.5c0-3.7 3.1-6.8 6.8-6.8h26c3.8 0 6.8 3.1 6.8 6.8v19.5z m0-66.7c0 3.7-3 6.8-6.8 6.8h-26c-3.7 0-6.8-3.1-6.8-6.8v-19.6c0-3.7 3.1-6.7 6.8-6.7h26c3.8 0 6.8 3 6.8 6.7v19.6z m5.3-72.2c0 7.3-6.1 13.2-13.6 13.2h-128.9c-7.6 0-13.7-5.9-13.7-13.2v-114.8c0-7.3 6.1-13.2 13.7-13.2h128.9c7.5 0 13.6 5.9 13.6 13.2v114.8z" /></svg>