<svg height="512" width="512.0" xmlns="http://www.w3.org/2000/svg"><path d="M428.248,113.929c-1.175-10.629-4.455-20.081-30.488-20.081c-48.075,0-105.003-33.207-139.109-67.315c-35.441-35.453-37.132-36.08-75.57,2.359C150.567,61.414,97.546,95.033,31.883,95.033c-9.455,0-23.452,0-23.452,23.618c0,0-11.174,122.827,25.173,217.308C69.95,430.443,169.36,512,219.694,512c46.481,0,145.268-72.111,185.128-178.396C444.691,227.303,429.423,124.558,428.248,113.929z M322.519,187.5l-121.2,149.2c-3.9,4.2-10.6,4.6-15.1,1l-68.4-56.4c-4.4-3.6-4.9-9.899-1-14.1l20.6-22c3.9-4.2,10.7-4.6,15.1-1l34,27.8l90.5-117.5c3.601-4.4,10.3-5.2,15-1.9l28.4,20.9C325.219,176.9,326.119,183.1,322.519,187.5z"/></svg>