<svg height="512" width="512.0" xmlns="http://www.w3.org/2000/svg"><path d="M428.265,113.93c-1.174-10.629-4.452-20.084-30.488-20.084c-48.08,0-105.012-33.198-139.121-67.317c-35.447-35.446-37.136-36.074-75.58,2.366C150.563,61.415,97.534,95.037,31.87,95.037c-9.455,0-23.453,0-23.453,23.616c0,0-11.181,122.83,25.178,217.307C69.936,430.441,169.357,512,219.695,512c46.482,0,145.28-72.112,185.144-178.396C444.71,227.305,429.438,124.56,428.265,113.93z M219.542,373.258c-66.323,0-120.103-53.869-120.103-120.323c0-66.45,53.779-120.319,120.103-120.319c66.341,0,120.111,53.869,120.111,120.319C339.653,319.389,285.883,373.258,219.542,373.258z M276.925,243.524h-38.761v-56.876c0-9.365-10.069-16.942-18.64-16.942c-8.561,0-18.459,7.577-18.459,16.942v76.966c0,0.027,0.019,0.055,0.019,0.09c0,0.208-0.118,0.38-0.118,0.588c0,4.289,1.761,8.127,4.488,11.054c0.072,0.09,0.118,0.208,0.199,0.289c0.596,0.614,1.373,1.002,2.059,1.517c1.047,0.831,2.059,1.671,3.278,2.195c0.786,0.334,1.707,0.343,2.538,0.56c1.029,0.226,1.969,0.668,3.053,0.668c0.054,0,0.099-0.026,0.153-0.026c0.298,0.009,0.542,0.162,0.84,0.162h59.352c9.166,0,16.58-9.455,16.58-18.522C293.505,253.115,286.091,243.524,276.925,243.524z"/></svg>