<svg height="512" width="512.0" xmlns="http://www.w3.org/2000/svg"><path d="M428.265,113.93c-1.174-10.629-4.452-20.084-30.488-20.084c-48.08,0-105.012-33.198-139.121-67.317c-35.447-35.446-37.136-36.074-75.58,2.366C150.563,61.415,97.534,95.037,31.87,95.037c-9.455,0-23.453,0-23.453,23.616c0,0-11.181,122.83,25.178,217.307C69.936,430.441,169.357,512,219.695,512c46.482,0,145.28-72.112,185.144-178.396C444.71,227.305,429.438,124.56,428.265,113.93z M219.542,373.258c-66.323,0-120.103-53.869-120.103-120.323c0-66.45,53.779-120.319,120.103-120.319c66.341,0,120.111,53.869,120.111,120.319C339.653,319.389,285.883,373.258,219.542,373.258z M284.249,213.478c0-2.881-1.021-5.337-3.071-7.396l-14.811-14.793c-2.05-2.059-4.506-3.08-7.387-3.08c-2.882,0-5.338,1.021-7.388,3.08l-32.069,32.06l-32.06-32.06c-2.059-2.059-4.515-3.08-7.396-3.08s-5.337,1.021-7.387,3.08l-14.784,14.774c-2.059,2.06-3.098,4.534-3.098,7.415s1.021,5.337,3.08,7.396l32.06,32.06l-32.042,32.046c-2.059,2.068-3.098,4.533-3.098,7.414c0,2.872,1.021,5.338,3.08,7.388l14.792,14.811c2.059,2.05,4.516,3.07,7.396,3.07s5.355-1.029,7.415-3.097l32.042-32.042l32.069,32.068c2.05,2.05,4.506,3.07,7.388,3.07c2.871,0,5.346-1.029,7.414-3.097l14.783-14.784c2.051-2.05,3.071-4.516,3.071-7.388c0-2.881-1.021-5.337-3.071-7.387l-32.068-32.073l32.068-32.06C283.229,218.815,284.249,216.359,284.249,213.478z"/></svg>