<svg height="512" width="512.0" xmlns="http://www.w3.org/2000/svg"><path d="m417.5 164.8l-24.4-24.1v-34.1c0-24.9-20.5-45.1-45.7-45.1h-34.6l-24.5-24.1c-17.8-17.6-46.7-17.6-64.6 0l-24.4 24.1h-34.6c-25.3 0-45.7 20.2-45.7 45.1v34.1l-24.5 24.1c-17.8 17.6-17.8 46.1 0 63.7l24.5 24.2v34.1c0 24.9 20.4 45 45.7 45h15.2v156.3l76.1-60 76.2 60v-156.3h15.2c25.2 0 45.7-20.1 45.7-45v-34.1l24.4-24.2c17.9-17.6 17.9-46.1 0-63.7z m-161.5 122c-50.4 0-91.3-40.4-91.3-90.1 0-49.8 40.9-90.1 91.3-90.1 50.5 0 91.4 40.3 91.4 90.1 0 49.7-40.9 90.1-91.4 90.1z m58.4-137.3l-16.5-11.6c-2.7-1.8-6.6-1.4-8.6 1.1l-52.4 65-19.6-15.3c-2.6-2.1-6.5-1.8-8.7 0.5l-11.9 12.2c-2.3 2.3-2 5.8 0.5 7.8l39.6 31.2c2.5 2 6.5 1.8 8.7-0.5l70.1-82.7c2-2.4 1.5-5.9-1.2-7.7z" /></svg>