<svg height="512" width="512.0" xmlns="http://www.w3.org/2000/svg"><path d="M428.265,113.93c-1.174-10.629-4.452-20.084-30.488-20.084c-48.08,0-105.012-33.198-139.121-67.317c-35.447-35.446-37.136-36.074-75.58,2.366C150.563,61.415,97.534,95.037,31.87,95.037c-9.455,0-23.453,0-23.453,23.616c0,0-11.181,122.83,25.178,217.307C69.936,430.441,169.357,512,219.695,512c46.482,0,145.28-72.112,185.144-178.396C444.71,227.305,429.438,124.56,428.265,113.93z M219.542,373.258c-66.323,0-120.103-53.869-120.103-120.323c0-66.45,53.779-120.319,120.103-120.319c66.341,0,120.111,53.869,120.111,120.319C339.653,319.389,285.883,373.258,219.542,373.258z M278.261,180.524c-3.521-2.601-8.525-1.933-11.189,1.499l-67.587,91.623l-25.332-21.669c-3.323-2.835-8.362-2.493-11.271,0.741l-15.371,17.19c-2.89,3.242-2.546,8.164,0.768,10.99l51.025,43.953c3.323,2.827,8.372,2.502,11.262-0.749l90.444-116.368c2.664-3.432,1.978-8.317-1.544-10.909L278.261,180.524z"/></svg>