<svg height="512" width="512.0" xmlns="http://www.w3.org/2000/svg"><path d="m422 133.3c1.8 2.3-1.4-2.4 0 0-64.5-27.7-185.3-4.2-204.3 105.5 0.1 0 0.3 0.1 0.3 0.1 25.1 6.3 25.5 20.8 14.8 32.4-7.4 8-80.2 74.6-86.7 81.3-3.6 3.8-9.2 4.8-14.4 3.9l0 0c0 0 0 0 0 0 0 0 0 0 0 0l0 0c-5-1.6-9.2-5.1-10.3-10.1-2.1-8.8-29.7-100.7-31.8-111-3.1-15.1 5-27.4 30-21.2 0.2 0.1 0.7 0.2 1.1 0.3 15.4-43.3 41.2-74 71.6-94.3-10.9-2.7-22.3-4.2-34.1-4.2-77.4 0-140.2 62.8-140.2 140.1 0 49.3 25.4 92.7 63.9 117.7-0.3-0.6-0.6-1.1-0.9-1.6 74.7 39.3 189.4 11.2 208.4-97.4-0.1 0-0.3 0-0.4-0.1-24.9-6.2-25.3-20.5-14.7-32 7.3-7.9 79.9-73.8 86.3-80.5 3.7-3.7 9.2-4.7 14.4-3.8v0c0 0 0 0 0 0 0 0 0 0 0 0v0c4.9 1.6 9.2 5.1 10.3 10 2 8.7 29.5 99.6 31.6 109.8 3.1 14.9-5 27.2-29.9 20.9-0.2 0-0.7-0.1-1-0.2-15.1 42-40.1 72-69.6 92.1 12.1 3.4 24.9 5.3 38.1 5.3 77.4 0 140.2-62.8 140.2-140.2 0-52.9-29.4-98.9-72.7-122.8z" /></svg>