<svg height="512" width="512.0" xmlns="http://www.w3.org/2000/svg"><path d="M463.834,484.261h-45.973c-5.309,0-9.605-4.24-9.605-9.471V160.365c0-5.227,4.297-9.467,9.605-9.467h45.973c5.301,0,9.604,4.24,9.604,9.467V474.79C473.438,480.021,469.135,484.261,463.834,484.261z M376.984,484.31h-77.348v-56.844c0-6.533-2.18-8.43-8.729-8.43h-69.813c-6.823,0-8.728,2.173-8.728,8.699v56.574h-77.349c-5.348,0-9.683-4.176-9.683-9.336V37.026c0-5.156,4.335-9.336,9.683-9.336h241.966c5.346,0,9.676,4.18,9.676,9.336v437.948C386.66,480.134,382.33,484.31,376.984,484.31z M193.876,81.543c0-5.726-5.563-10.366-12.426-10.366c-6.861,0-12.425,4.64-12.425,10.366v276.43c0,5.726,5.563,10.369,12.425,10.369c6.862,0,12.426-4.644,12.426-10.369V81.543z M243.575,81.543c0-5.726-5.563-10.366-12.426-10.366s-12.426,4.64-12.426,10.366v276.43c0,5.726,5.563,10.369,12.426,10.369s12.426-4.644,12.426-10.369V81.543z M293.273,81.543c0-5.726-5.564-10.366-12.422-10.366c-6.867,0-12.43,4.64-12.43,10.366v276.43c0,5.726,5.562,10.369,12.43,10.369c6.857,0,12.422-4.644,12.422-10.369V81.543z M342.975,81.543c0-5.726-5.562-10.366-12.422-10.366c-6.865,0-12.428,4.64-12.428,10.366v276.43c0,5.726,5.562,10.369,12.428,10.369c6.859,0,12.422-4.644,12.422-10.369V81.543z M94.14,484.261H48.167c-5.301,0-9.604-4.24-9.604-9.471V160.365c0-5.227,4.304-9.467,9.604-9.467H94.14c5.305,0,9.608,4.24,9.608,9.467V474.79C103.748,480.021,99.444,484.261,94.14,484.261z"/></svg>