<svg height="512" width="512.0" xmlns="http://www.w3.org/2000/svg"><path d="M463.834,484.261h-45.973c-5.309,0-9.605-4.24-9.605-9.471V160.365c0-5.227,4.297-9.467,9.605-9.467h45.973c5.301,0,9.604,4.24,9.604,9.467V474.79C473.438,480.021,469.135,484.261,463.834,484.261z M325.881,398.29c-5.449-1.423-11.084-2.895-16.463-4.452c-12.195-3.531-12.195-7.898-12.195-13.42c0-2.478,0-2.676,3.9-6.965c1.592-1.755,3.404-3.737,5.252-6.193c7.445-9.874,9.01-30.768,9.018-46.56c0-18.692,0-75.576-59.328-75.576c-59.364,0-59.364,56.883-59.364,75.576c0.004,15.792,1.571,36.686,9.024,46.567c1.852,2.455,3.659,4.444,5.256,6.2c3.907,4.282,3.907,4.48,3.907,6.95c0,5.521,0,9.889-12.228,13.42c-5.376,1.558-11.017,3.022-16.475,4.452c-23.312,6.08-48.849,12.798-60.85,29.211V37.026c0-5.156,4.335-9.336,9.683-9.336h241.968c5.344,0,9.674,4.18,9.674,9.336v390.468C374.678,411.088,349.168,404.37,325.881,398.29z M94.14,484.261H48.167c-5.301,0-9.604-4.24-9.604-9.471V160.365c0-5.227,4.304-9.467,9.604-9.467H94.14c5.305,0,9.608,4.24,9.608,9.467V474.79C103.748,480.021,99.444,484.261,94.14,484.261z M207.568,410.252c20.403-5.896,24.717-17.631,24.717-29.834c0-12.202-6.986-15.911-12.581-23.336c-5.599-7.425-5.603-36.382-5.603-36.382c0-39.438,10.727-58.472,41.963-58.472c31.213,0,41.922,19.033,41.922,58.472c0,0-0.006,28.957-5.598,36.382s-12.57,11.134-12.57,23.336c0,12.203,4.324,23.938,24.695,29.834c33.996,9.832,71.736,14.85,71.736,39.432c0,12.996,1.867,32.015-8.395,32.015c-4.977,0-58.303,0-111.791,0c-53.542,0-106.929,0-111.911,0c-10.264,0-8.402-19.019-8.402-32.015C135.751,425.102,173.534,420.084,207.568,410.252z"/></svg>