<svg height="512" width="512.0" xmlns="http://www.w3.org/2000/svg"><path d="m349.5 267.5h-186.1c-5.1 21-10.1 41.7-14.8 61.1h215.5c-4.6-19.4-9.5-40.1-14.6-61.1z m27.3 114.3h-240.9c-8.8 36.6-14.6 61-14.6 61l269.8-0.1c0 0-5.7-24.3-14.3-60.9z m-82.9-332.7c-10.7-23.2-63.4-24.4-75.1 0-1.6 3.2-6.8 22.3-13.9 50.5h103.3c-7-27.3-12.2-46.1-14.3-50.5z m27.7 103.7h-130.1c-4.8 19.2-9.9 39.9-15.1 61.1h160.2c-5.1-21.2-10.2-41.9-15-61.1z m110.3 290.2h-351.1c-8.5 0-15.3 6.8-15.3 15.2v7.7c0 8.4 6.8 15.2 15.3 15.2h351.1c8.4 0 15.3-6.8 15.3-15.2v-7.7c0-8.4-6.9-15.2-15.3-15.2z" /></svg>