<svg height="512" width="512.0" xmlns="http://www.w3.org/2000/svg"><path d="m334.5 169.3c0-14.1 8.7-28.2 28.1-28.2 17.5 0 25.8 15.9 25.8 34.1v6.8h84.4c0-61.8-27.6-91.3-92.2-97.2v-26.3h-44.6v26.3c-59.7 9.1-88.9 42.3-88.9 98.6 0 111.7 141.8 80.8 141.8 143.5 0 16.3-10.7 29.5-29.2 29.5-17.9 0-30.1-9.5-30.1-35.9v-8.6h-87.3v12.3c0 57.6 32.5 82.1 93.7 88.5v40.9h44.6v-40.9c66-6.4 101.4-35.9 101.4-97.2 0-117.1-147.5-81.7-147.5-146.2z m-127.5 51.4h-42.3v-42.3c0-11.7-9.5-21.2-21.2-21.2h-28.2c-11.7 0-21.2 9.5-21.2 21.2v42.3h-42.3c-11.7 0-21.2 9.5-21.2 21.2v28.2c0 11.7 9.5 21.2 21.2 21.2h42.3v42.3c0 11.7 9.5 21.2 21.2 21.2h28.2c11.7 0 21.2-9.5 21.2-21.2v-42.3h42.3c11.7 0 21.2-9.5 21.2-21.2v-28.2c0-11.7-9.5-21.2-21.2-21.2z" /></svg>