<svg height="512" width="512.0" xmlns="http://www.w3.org/2000/svg"><path d="m278.1 214.2c-1.2-2.2-1.7-4-0.9-4.8 1.4-1.3 5.7 0.8 9.8 4.8h11.9c-1.8-1-4.1-2.6-6.2-4.8-4.3-4.2-6.6-8.8-5.2-10.3 1.5-1.4 6.1 0.9 10.4 5.2 3.9 4 6.1 8.1 5.2 9.9h136.9c5.6-8.5 4.7-20.1-2.8-27.6l-98-98-125.6 125.6h64.5z m61-66.7c1.5-1.4 6.1 0.9 10.3 5.2 4.3 4.3 6.6 8.9 5.2 10.3-1.4 1.4-6-0.9-10.3-5.1-4.3-4.3-6.6-8.9-5.2-10.4z m-10.3 10.4c1.4-1.5 6.1 0.9 10.3 5.1 4.3 4.3 6.6 8.9 5.2 10.3-1.4 1.5-6.1-0.8-10.3-5.1-4.3-4.3-6.6-8.9-5.2-10.3z m-10.3 10.3c1.4-1.4 6 0.9 10.3 5.1 4.3 4.3 6.6 8.9 5.2 10.4-1.5 1.4-6.1-0.9-10.3-5.2-4.3-4.3-6.6-8.9-5.2-10.3z m-10.3 10.3c1.4-1.4 6 0.9 10.3 5.2 4.3 4.2 6.6 8.8 5.2 10.3-1.5 1.4-6.1-0.9-10.4-5.2-4.2-4.3-6.5-8.9-5.1-10.3z m-146.1 35.7l151.3-151.4-20.6-20.6c-8.6-8.6-22.4-8.6-31 0l-226.9 226.9c-8.6 8.6-8.6 22.4 0 31l20.6 20.6 49.2-49.2v-33.5c0-13.2 10.8-23.8 24.1-23.8h33.3z m-57.4 108.9l-23.4 23.4 23.4 23.4v-46.8z m-23.4 23.4v0z m380.9-117.8h-321c-12.1 0-21.9 9.8-21.9 21.9v204.3c0 12.1 9.8 21.9 21.9 21.9h321c12.1 0 21.9-9.8 21.9-21.9v-204.3c0-12.1-9.8-21.9-21.9-21.9z m-280.9 197c-2 0-3.6-3.3-3.6-7.3 0-4 1.6-7.3 3.6-7.3 2 0 3.7 3.3 3.7 7.3 0 4-1.7 7.3-3.7 7.3z m0-29.2c-2 0-3.6-4.9-3.6-10.9 0-6.1 1.6-11 3.6-11 2 0 3.7 4.9 3.7 11 0 6-1.7 10.9-3.7 10.9z m14.6 29.2c-2 0-3.6-3.3-3.6-7.3 0-4 1.6-7.3 3.6-7.3s3.7 3.3 3.7 7.3c0 4-1.7 7.3-3.7 7.3z m0-29.2c-2 0-3.6-4.9-3.6-10.9 0-6.1 1.6-11 3.6-11s3.7 4.9 3.7 11c0 6-1.7 10.9-3.7 10.9z m14.6 29.2c-2 0-3.6-3.3-3.6-7.3 0-4 1.6-7.3 3.6-7.3s3.7 3.3 3.7 7.3c0 4-1.7 7.3-3.7 7.3z m0-29.2c-2 0-3.6-4.9-3.6-10.9 0-6.1 1.6-11 3.6-11s3.7 4.9 3.7 11c0 6-1.7 10.9-3.7 10.9z m14.6 29.2c-2 0-3.6-3.3-3.6-7.3 0-4 1.6-7.3 3.6-7.3s3.6 3.3 3.6 7.3c0 4-1.6 7.3-3.6 7.3z m0-29.2c-2 0-3.6-4.9-3.6-10.9 0-6.1 1.6-11 3.6-11s3.6 4.9 3.6 11c0 6-1.6 10.9-3.6 10.9z m14.6 29.2c-2 0-3.7-3.3-3.7-7.3 0-4 1.7-7.3 3.7-7.3s3.6 3.3 3.6 7.3c0 4-1.6 7.3-3.6 7.3z m3.6-87.5c0 4-3.2 7.3-7.3 7.3h-51c-4 0-7.3-3.3-7.3-7.3v-36.5c0-4 3.3-7.3 7.3-7.3h51c4.1 0 7.3 3.3 7.3 7.3v36.5z m11 87.5c-2 0-3.7-3.3-3.7-7.3 0-4 1.7-7.3 3.7-7.3 2 0 3.6 3.3 3.6 7.3 0 4-1.6 7.3-3.6 7.3z m7.3-29.2c-2 0-3.7-4.9-3.7-10.9 0-6.1 1.7-11 3.7-11 2 0 3.6 4.9 3.6 11 0 6-1.6 10.9-3.6 10.9z m7.3 29.2c-2 0-3.7-3.3-3.7-7.3 0-4 1.7-7.3 3.7-7.3 2 0 3.6 3.3 3.6 7.3 0 4-1.6 7.3-3.6 7.3z m7.3-29.2c-2.1 0-3.7-4.9-3.7-10.9 0-6.1 1.6-11 3.7-11s3.6 4.9 3.6 11c0 6-1.6 10.9-3.6 10.9z m7.3 29.2c-2.1 0-3.7-3.3-3.7-7.3 0-4 1.6-7.3 3.7-7.3 2 0 3.6 3.3 3.6 7.3 0 4-1.6 7.3-3.6 7.3z m7.3-29.2c-2.1 0-3.7-4.9-3.7-10.9 0-6.1 1.6-11 3.7-11s3.6 4.9 3.6 11c0 6-1.6 10.9-3.6 10.9z m14.5 0c-2 0-3.6-4.9-3.6-10.9 0-6.1 1.6-11 3.6-11s3.7 4.9 3.7 11c0 6-1.6 10.9-3.7 10.9z m14.6 0c-2 0-3.6-4.9-3.6-10.9 0-6.1 1.6-11 3.6-11s3.7 4.9 3.7 11c0 6-1.7 10.9-3.7 10.9z m14.6 0c-2 0-3.6-4.9-3.6-10.9 0-6.1 1.6-11 3.6-11 2 0 3.7 4.9 3.7 11 0 6-1.7 10.9-3.7 10.9z m29.2 0c-2 0-3.7-4.9-3.7-10.9 0-6.1 1.7-11 3.7-11 2 0 3.6 4.9 3.6 11 0 6-1.6 10.9-3.6 10.9z m14.6 0c-2 0-3.7-4.9-3.7-10.9 0-6.1 1.7-11 3.7-11 2 0 3.6 4.9 3.6 11 0 6-1.6 10.9-3.6 10.9z m14.6 0c-2 0-3.7-4.9-3.7-10.9 0-6.1 1.7-11 3.7-11 2 0 3.6 4.9 3.6 11 0 6-1.6 10.9-3.6 10.9z m14.6 0c-2.1 0-3.7-4.9-3.7-10.9 0-6.1 1.6-11 3.7-11 2 0 3.6 4.9 3.6 11 0 6-1.6 10.9-3.6 10.9z" /></svg>