<svg height="512" width="512.0" xmlns="http://www.w3.org/2000/svg"><path d="m462 298.4h-40.2c-4.2 16.2-10.7 31.5-19.1 45.5l27.7 27.6c4.3 4.4 4.3 11.4 0 15.7l-44.2 44.2c-4.3 4.3-11.3 4.3-15.7 0l-28-28c-13.9 8.1-29.1 14.4-45.2 18.3v40c0 6.1-4.9 11-11 11h-62.6c-6.1 0-11-4.9-11-11v-40.6c-15.7-4.2-30.6-10.5-44.2-18.7l-28.4 28.4c-4.3 4.3-11.3 4.3-15.6 0l-44.2-44.3c-4.3-4.3-4.3-11.3 0-15.6l28.7-28.7c-8-13.5-14.1-28.3-18.1-43.8h-40.2c-6.1 0-11.1-5-11.1-11.1v-62.6c0-6 5-11 11.1-11h40.2c4-15.6 10.1-30.3 18.1-43.8l-28.7-28.7c-4.3-4.3-4.3-11.3 0-15.6l44.3-44.3c4.3-4.3 11.3-4.3 15.6 0l28.3 28.3c13.6-8.1 28.5-14.5 44.2-18.6v-40.6c0-6.1 4.9-11.1 11-11.1h62.6c6.1 0 11.1 5 11.1 11.1v39.9c16 4 31.2 10.2 45.1 18.4l28.7-28.7c4.3-4.3 11.3-4.3 15.6 0l44.3 44.3c4.3 4.3 4.3 11.3 0 15.6l-28.4 28.3c8.4 14 14.9 29.3 19.1 45.5h40.2c6.1 0 11.1 5 11.1 11v62.6c0 6.1-5 11.1-11.1 11.1z m-296.2-72c3.9 0 7.4 1.6 9.7 3.4l8.2-21.5c-4.8-3.1-12.9-5.4-21.6-5.4-22.2 0-39.4 16.9-39.4 50.6 0 33.7 17.2 50.6 39.4 50.6 9.1 0 16.8-2.3 21.6-5.4l-8.2-22c-2.3 1.7-5.8 3.4-9.7 3.4-9.9 0-15.3-10.3-15.3-26.9 0-16.6 5.4-26.8 15.3-26.8z m99.6 8c0-20.3-13.3-31.5-39.5-31.5-12.2 0-23.7 1.9-32.3 5.4v94h26.4v-36.1h4.2c5.2 0 8.4 3.5 9.9 8.1l9 28h28.3l-10-29c-2.3-6.6-5.8-12.3-11.1-15.5v-0.3c7.2-3.5 15.1-10.6 15.1-23.1z m110.9-29.7h-29.9l-11.9 43.1c-1.6 6-2.8 13.2-2.8 13.2h-0.3c0 0-1.2-7.2-2.8-13.2l-11.9-43.1h-29.8l-11.4 97.6h24.9l4.3-50.3c0.5-6.7 0.9-14.5 0.9-14.5h0.3c0 0 1.5 7.6 3.4 14.5l14.3 50.3h15.9l14.4-50.3c1.8-6.9 3.3-14.5 3.3-14.5h0.3c0 0 0.4 7.8 0.9 14.5l4.4 50.3h24.8l-11.3-97.6z m-149 42.7h-7.3v-23.8c1.7-0.4 4.2-0.6 6.5-0.6 8.9 0 12.5 4.2 12.5 13 0 7.1-3.6 11.4-11.7 11.4z" /></svg>