<svg height="512" width="512.0" xmlns="http://www.w3.org/2000/svg"><path d="m256.3 35.5c-121.7 0-220.5 98.8-220.5 220.5 0 121.8 98.8 220.5 220.5 220.5s220.5-98.7 220.5-220.5c0-121.7-98.7-220.5-220.5-220.5z m-7.8 48.4c0-5 3.5-9 7.8-9 4.4 0 7.9 4 7.9 9v29.3c0 4.9-3.5 9-7.9 9-4.3 0-7.8-4.1-7.8-9v-29.3z m-135 180h-29.3c-5 0-9-3.5-9-7.9 0-4.3 4-7.8 9-7.8h29.3c4.9 0 9 3.5 9 7.8 0 4.4-4.1 7.9-9 7.9z m47.8 97.6l-20.6 20.7c-3.6 3.5-8.9 3.9-12 0.8-3.1-3.1-2.7-8.4 0.8-11.9l20.7-20.7c3.5-3.5 8.9-3.9 11.9-0.8 3.1 3.1 2.8 8.4-0.8 11.9z m0.8-200.3c-3 3.1-8.4 2.7-11.9-0.8l-20.7-20.7c-3.5-3.5-3.8-8.9-0.8-11.9 3.1-3.1 8.4-2.8 12 0.8l20.6 20.6c3.6 3.6 3.9 8.9 0.8 12z m133.6 94.8c0 21.8-17.6 39.4-39.4 39.4-2.1 0-4.2-0.3-6.3-0.6l-30.4 48.3 13.1-55.7c-9.5-7.2-15.7-18.5-15.7-31.4 0-21.7 17.6-39.3 39.3-39.3 0.8 0 1.5 0.1 2.2 0.2l76.7-149.7-52.9 159.5c8.2 7.2 13.4 17.6 13.4 29.3z m88.2 127c-3 3.1-8.4 2.7-11.9-0.8l-20.7-20.7c-3.5-3.5-3.8-8.9-0.8-11.9s8.4-2.8 12 0.8l20.6 20.7c3.6 3.5 3.9 8.8 0.8 11.9z m-0.8-243.3l-20.6 20.7c-3.5 3.5-8.9 3.9-12 0.8-3-3.1-2.7-8.4 0.8-12l20.7-20.6c3.5-3.6 8.9-3.9 11.9-0.8 3.1 3 2.8 8.4-0.8 11.9z m45.4 124.2h-29.3c-5 0-9-3.5-9-7.9 0-4.3 4-7.8 9-7.8h29.3c4.9 0 9 3.5 9 7.8 0 4.4-4.1 7.9-9 7.9z" /></svg>