<svg height="512" width="512.0" xmlns="http://www.w3.org/2000/svg"><path d="m22.3 386.4c0 20.4 16.4 36.9 36.6 36.9h395.1c20.2 0 36.6-16.5 36.6-36.9l0-180.6h-468.3l0 180.6z m234.1-147.1c41.6 0 75.4 33.7 75.4 75.3 0 41.6-33.8 75.3-75.4 75.3-41.6 0-75.3-33.7-75.3-75.3 0-41.6 33.8-75.3 75.3-75.3z m197.5-150.5h-395.2c-20.3 0-36.7 17-36.7 38v28.8h468.6v-28.8c0-21-16.4-38-36.7-38z m-236.9 243.7h78.9c5.9 0 10.8-4.8 10.8-10.8v-14.3c0-5.9-4.9-10.8-10.8-10.8h-78.9c-5.9 0-10.8 4.9-10.8 10.8v14.3c0 6 4.9 10.8 10.8 10.8z" /></svg>