<svg height="512" width="512.0" xmlns="http://www.w3.org/2000/svg"><path d="m448.5 344.3h-21.9v101.3h21.9c8.1 0 14.6-7.6 14.6-16.9v-67.6c0-9.3-6.5-16.8-14.6-16.8z m0-251.7h-21.9v100.5h21.9c8.1 0 14.6-7.5 14.6-16.8v-66.9c0-9.3-6.5-16.8-14.6-16.8z m0 125.8h-21.9v100.4h21.9c8.1 0 14.6-7.5 14.6-16.7v-67c0-9.2-6.5-16.7-14.6-16.7z m-76.6-176.4h-249.6c-22.2 0-40.3 17.1-40.3 38.2v41.7h-15c-9.8 0-17.8 6.5-17.8 14.5 0 8 8 14.4 17.8 14.4h15v94.5h-15c-9.8 0-17.8 6.5-17.8 14.5 0 8 8 14.5 17.8 14.5h15v94.5h-15c-9.8 0-17.8 6.5-17.8 14.5s8 14.4 17.8 14.4h15v34.4c0 21.2 18.1 38.3 40.3 38.3h249.6c22.2 0 40.2-17.1 40.2-38.3v-351.9c0-21.1-18-38.2-40.2-38.2z m-246.5 370.3c-10.1 0-18.9-6-22.9-14.6h8.8c9.8 0 17.8-6.5 17.8-14.4s-8-14.5-17.8-14.5h-3.6c4.6-4.5 10.8-7.3 17.7-7.3 14.1 0 25.4 11.4 25.4 25.4s-11.3 25.4-25.4 25.4z m0-123.3c-10.1 0-18.9-6-22.9-14.7h8.8c9.8 0 17.8-6.5 17.8-14.5 0-8-8-14.5-17.8-14.5h-3.7c4.6-4.5 10.9-7.3 17.8-7.3 14.1 0 25.4 11.4 25.4 25.5 0 14-11.3 25.5-25.4 25.5z m0-123.6c-10.1 0-18.9-6-22.9-14.6h8.8c9.8 0 17.8-6.4 17.8-14.4 0-8-8-14.5-17.8-14.5h-3.6c4.5-4.5 10.8-7.3 17.7-7.3 14.1 0 25.4 11.4 25.4 25.4s-11.3 25.4-25.4 25.4z m257.9 50.7h-152.6v-101.5h152.6v101.5z" /></svg>