<svg height="512" width="512.0" xmlns="http://www.w3.org/2000/svg"><path d="m414.6 432.3h-278.5c-10.5 0-19-8.5-19-19.1v0-318.8c0-10.6 8.5-19.2 19-19.2h278.5c10.5 0 19 8.6 19 19.2v318.8c0 10.6-8.5 19.1-19 19.1z m-31.7-293.3c0-7-5.6-12.7-12.6-12.7h-189.9c-7 0-12.7 5.7-12.7 12.7v229.6c0 7 5.7 12.7 12.7 12.7h189.9c7 0 12.6-5.7 12.6-12.7v-229.6z m-31.6 204.1h-151.9c-3.5 0-6.4-3.8-6.4-8.5v-8.5c0-4.7 2.9-8.5 6.4-8.5h151.9c3.5 0 6.3 3.8 6.3 8.5v8.5c0 4.7-2.8 8.5-6.3 8.5z m0-51h-151.9c-3.5 0-6.4-3.9-6.4-8.6v-8.5c0-4.6 2.9-8.5 6.4-8.5h151.9c3.5 0 6.3 3.9 6.3 8.5v8.5c0 4.7-2.8 8.6-6.3 8.6z m0-51.1h-151.9c-3.5 0-6.4-3.8-6.4-8.5v-8.5c0-4.7 2.9-8.5 6.4-8.5h151.9c3.5 0 6.3 3.8 6.3 8.5v8.5c0 4.7-2.8 8.5-6.3 8.5z m0-51h-151.9c-3.5 0-6.4-3.8-6.4-8.5v-8.5c0-4.7 2.9-8.5 6.4-8.5h151.9c3.5 0 6.3 3.8 6.3 8.5v8.5c0 4.7-2.8 8.5-6.3 8.5z m-246.9-108.4v0 312.5h-6.3c-10.5 0-19-8.6-19-19.2v0-318.8c0-10.6 8.5-19.1 19-19.1h278.5c10.5 0 19 8.5 19 19.1v6.4h-272.2c-10.5 0-19 8.6-19 19.1z" /></svg>