<svg height="512" width="512.0" xmlns="http://www.w3.org/2000/svg"><path d="m448.7 296.6h-278.7c15.1 32.4 48 54.9 86.2 54.9 24 0 45.8-8.9 62.6-23.5h98.7c-3.1 7.1-6.7 13.9-10.8 20.5l14.5 14.4c4.5 4.5 4.5 11.8 0 16.3l-41.9 42c-4.5 4.5-11.8 4.5-16.3 0l-14.4-14.4c-15.6 9.6-32.9 16.8-51.2 21.2v20.3c0 6.4-5.2 11.6-11.5 11.6h-59.4c-6.3 0-11.5-5.2-11.5-11.6v-20.2c-18.3-4.4-35.6-11.7-51.2-21.3l-14.4 14.4c-4.5 4.5-11.8 4.5-16.3 0l-41.9-42c-4.5-4.5-4.5-11.7 0-16.3l14.4-14.4c-9.6-15.6-16.8-32.8-21.1-51.1h-20.5c-6.4 0-11.5-5.2-11.5-11.5v-59.4c0-6.3 5.1-11.5 11.5-11.5h20.6c4.4-18.3 11.6-35.4 21.2-51l-14.6-14.6c-4.5-4.5-4.5-11.8 0-16.3l41.9-41.9c4.5-4.5 11.8-4.5 16.3 0l14.7 14.7c15.5-9.6 32.7-16.8 50.9-21.1v-20.8c0-6.4 5.2-11.5 11.5-11.5h59.4c6.3 0 11.5 5.1 11.5 11.5v20.8c18.2 4.3 35.3 11.5 50.9 21l14.7-14.6c4.5-4.5 11.8-4.5 16.2 0l42 41.9c4.5 4.5 4.5 11.8 0 16.3l-14.6 14.6c9.6 15.6 16.8 32.7 21.2 51h20.6c6.3 0 11.5 5.2 11.5 11.5v59.3c0 6.4-4.9 10.8-11.2 10.8z m-192.5-135.3c-38.2 0-71.1 22.5-86.2 54.9h172.4c-15.2-32.4-48.1-54.9-86.2-54.9z" /></svg>