<svg height="512" width="512.0" xmlns="http://www.w3.org/2000/svg"><path d="m338.9 256c0-45.6-37-82.5-82.6-82.5-45.6 0-82.5 36.9-82.5 82.5 0 45.6 36.9 82.6 82.5 82.6 45.6 0 82.6-37 82.6-82.6z m-245 0c0-98.8 68.5-159.7 134.9-159.7-12.3-3.4-25.2-5.4-38.5-5.4-85.1 0-154.2 73.9-154.2 165.1 0 91.2 69.1 165.2 154.2 165.2 13.3 0 26.2-2 38.5-5.4-66.4 0-134.9-58.3-134.9-159.8z m228.5-165.1c-13.3 0-26.2 2-38.5 5.4 66.4 0 134.8 60.9 134.8 159.7 0 101.5-68.4 159.8-134.8 159.8 12.3 3.4 25.2 5.4 38.5 5.4 85.1 0 154.1-74 154.1-165.2 0-91.2-69-165.1-154.1-165.1z" /></svg>