<svg height="512" width="512.0" xmlns="http://www.w3.org/2000/svg"><path d="m441.1 474.8h-369.5c-18.8 0-34.1-15.1-34.1-33.7v-204.2h437.6v204.2c0 18.6-15.2 33.7-34 33.7z m-194.2-78h-56c1.6-4.8 6.9-9.5 10.6-13.1l25.2-24.3c12.1-12 20.2-25.8 20.2-47.5 0-24-9.7-43.7-52.3-43.7-22 0-35.3 5.4-43.2 14.9-7.7 9.5-9.8 22.9-10 39.4h39.9v-6.8c0-18.1 5.9-21.2 11.9-21.2 6.6 0 11 4.3 11 17.8 0 12-3.2 18.1-11.5 26.3l-28.4 28.5c-18.6 18.8-24.3 39.2-24.3 61.4h106.9v-31.7z m119.9-85.6c0-25.6-14.7-43-52.3-43-37.6 0-52.3 17.4-52.3 43 0 14 5.1 27.9 24.1 32.4v0.4c-17.9 2.3-27.1 17.5-27.1 36.9 0 39.7 20.7 50.8 55.3 50.8 34.9 0 55.3-11.1 55.3-50.8 0-17.8-7.6-33.5-27.1-36.9v-0.4c19.1-4.5 24.1-18.4 24.1-32.4z m-52.3 94.2c-7.8 0-12.6-4.8-12.6-23.8 0-18.8 4.8-23.5 12.6-23.5 7.8 0 12.6 4.7 12.6 23.5 0 19-4.8 23.8-12.6 23.8z m0-72.2c-6 0-11-3.7-11-19.5 0-15.6 5-19.2 11-19.2 6 0 11 3.6 11 19.2 0 15.8-5 19.5-11 19.5z m-277-239.6c0-18.6 15.3-33.7 34.1-33.7h41.4v-7.6c0-8.3 6.7-15.1 15.1-15.1 8.3 0 15.1 6.8 15.1 15.1v7.6h233.8v-7.6c0-8.3 6.8-15.1 15.1-15.1s15.1 6.8 15.1 15.1v7.6h33.9c18.8 0 34 15.1 34 33.7v132.3h-437.6v-132.3z m354.6 56.9c16.7 0 30.2-13.5 30.2-30.2 0-11.2-6.1-20.8-15.1-26.1v18.5c0 8.3-6.7 15.1-15.1 15.1s-15.1-6.8-15.1-15.1v-18.5c-9 5.2-15.1 14.9-15.1 26.1 0 16.7 13.5 30.2 30.2 30.2z m-109.2 44.1h20.5c14.1 0 18.7-8 18.7-17.4 0-7.8-4.3-12.8-10.9-13.7v-0.2c6-1.7 9.1-6.6 9.1-13 0-11.3-7.2-15-17.1-15h-20.3v59.3z m-42.1 0h34.4v-9.8h-22.3v-15.9h20.2v-9.8h-20.2v-14h21.5v-9.8h-33.6v59.3z m-40.6 0h12.1v-25.7h20.2v-9.8h-20.2v-14h21.5v-9.8h-33.6v59.3z m-72.1-44.1c16.7 0 30.2-13.5 30.2-30.2 0-11.2-6.1-20.8-15.1-26.1v18.5c0 8.3-6.8 15.1-15.1 15.1-8.4 0-15.1-6.8-15.1-15.1v-18.5c-9 5.2-15.2 14.9-15.2 26.1 0 16.7 13.6 30.2 30.3 30.2z m180.1 1.3c0 5.6-3.1 7.8-9.7 7.8h-3.5v-15.5h4.4c6 0 8.8 2.1 8.8 7.7z m1.3 25c0 6.9-3.9 9-9.7 9h-4.8v-17.9h5.3c5.3 0 9.2 2 9.2 8.9z" /></svg>