<svg height="512" width="512.0" xmlns="http://www.w3.org/2000/svg"><path d="m310.2 199.4v-91.3c0-7.9-6.4-14.3-14.2-14.3h-43.5c-7.9 0-14.3 6.4-14.3 14.3v89.5l16.1 30.9 55.9-29.1z m101.1 0.9v-135.5c0-7.9-6.4-14.3-14.3-14.3h-43.5c-7.8 0-14.2 6.4-14.2 14.3v128.5l18.3 35.2 53.7-28.2z m48.4 57.5l-25.7-38.2c-1.3-2.5-3.9-3.8-5.7-2.8l-77.9 40.5-19.7-37.7c-1.3-2.5-3.9-3.8-5.7-2.8l-77.9 40.5-19.7-37.7c-1.3-2.5-3.8-3.8-5.7-2.8l-77.9 40.5-19.6-37.7c-1.4-2.5-3.9-3.8-5.8-2.8l-64.8 34.5c0 0-3.1 1.5-3.1 4.8 0 3.4 0 198.5 0 198.5 2 4.3 6.3 7.2 11.3 7.2h394.8c6.9 0 12.5-5.5 12.5-12.4v-179.6c0-5.8-4-10.7-9.4-12z m-286 127.4c0 6.8-5.5 12.2-12.2 12.2h-48.8c-6.8 0-12.2-5.4-12.2-12.2v-48.8c0-6.7 5.4-12.2 12.2-12.2h48.8c6.7 0 12.2 5.5 12.2 12.2v48.8z m122.7 0c0 6.8-5.5 12.2-12.2 12.2h-48.8c-6.8 0-12.2-5.4-12.2-12.2v-48.8c0-6.7 5.4-12.2 12.2-12.2h48.8c6.7 0 12.2 5.5 12.2 12.2v48.8z m129.9 0c0 6.8-5.4 12.2-12.2 12.2h-48.8c-6.7 0-12.2-5.4-12.2-12.2v-48.8c0-6.7 5.5-12.2 12.2-12.2h48.8c6.8 0 12.2 5.5 12.2 12.2v48.8z" /></svg>