<svg height="512" width="512.0" xmlns="http://www.w3.org/2000/svg"><path d="m411 226.2c-43.2 0-72.7 13.4-65.4 54.7 7.5 42.6 20.1 202.8 63.4 202.8 43.3 0 57.8-160.6 67.5-202.8 9.3-40.5-22.2-54.7-65.5-54.7z m2.9-26c27.5 0 49.9-22.3 49.9-49.9 0-27.5-22.4-49.9-49.9-49.9-27.6 0-49.9 22.4-49.9 49.9 0 27.6 22.3 49.9 49.9 49.9z m-174.5-28.8c-51.3 0-86.2 15.8-77.6 64.8 8.9 50.5 23.9 247 75.2 247s68.5-197 80-247c11.1-48-26.2-64.8-77.6-64.8z m3.4-24.5c32.6 0 59.1-26.4 59.1-59.1 0-32.7-26.5-59.2-59.1-59.2-32.7 0-59.2 26.5-59.2 59.2 0 32.7 26.5 59.1 59.2 59.1z m-153.7 122.1c-35.9 0-60.3 11.1-54.2 45.3 6.2 35.3 16.7 169.4 52.5 169.4 35.9 0 47.9-134.4 55.9-169.4 7.7-33.5-18.4-45.3-54.2-45.3z m2.3-20.2c22.9 0 41.4-18.5 41.4-41.3 0-22.8-18.5-41.3-41.4-41.3s-41.3 18.5-41.3 41.3c0 22.8 18.5 41.3 41.3 41.3z" /></svg>