<svg height="512" width="512.0" xmlns="http://www.w3.org/2000/svg"><path d="m440.9 40h-369.5c-13 0-23.6 10.5-23.6 23.6v275.1c0 13.1 10.6 23.6 23.6 23.6h94.4v110.1l110-110.1h165.2c13 0 23.5-10.5 23.5-23.6v-275.1c0-13.1-10.5-23.6-23.5-23.6z m-192.5 259.5c-15.2 0-27.5-12.3-27.5-27.5 0-15.2 12.3-27.5 27.5-27.5 15.1 0 27.4 12.3 27.4 27.5 0 15.2-12.3 27.5-27.4 27.5z m24.2-100.6l-2.6 22.7h-42l-4.3-47.8c20.9-4.1 37.5-10.7 37.5-22.2 0-9.3-6-13.9-23.2-13.9-10.8 0-24.3 3.8-33 7.9l-15.6-39.7c15.3-6.5 36.2-10.9 56.5-10.9 44.4 0 69.2 17 69.2 53.9 0 27.3-21.9 42.1-42.5 50z" /></svg>