<svg height="512" width="512.0" xmlns="http://www.w3.org/2000/svg"><path d="m392 253.3c-32.2-84.8-169.5-116.8-125.3-208.9-90.6 65.3-20.9 131.6-20.9 201.9 0 38.6-15.4 65.3-48.8 83.6-57.2-44.4-0.2-103.9-48.7-160.2 19.3 68.5-54 99.9-41.8 181.1 9.6 63.6 67.9 108.6 152.1 111.3-52.5-3.4-95.5-73.3-103.3-104.3 25.9 30.9 42.6 37.2 62.6 34.8 34.9-7.2 100.3-90.4 77-188.1 54.4 58.2 66.6 124.1 62.3 160.2-7.3 61.3-43.6 96.8-93.2 97.5 0.9 0 1.8 0 2.7 0 94.1 0 168.8-94.5 125.3-208.9z m-76.6 62.7c-6 35.3-37.5 103.5-90.5 104.4 1.5 24.1 19.4 41.6 34.8 41.6 61.7 0 69.4-113 55.7-146z" /></svg>