<svg height="512" width="512.0" xmlns="http://www.w3.org/2000/svg"><path d="m306.6 135.3c-12.9 0-23.4 10.5-23.4 23.5v107.3c0 9.4 5.4 17.4 13.4 21.2v86.3c0 9.1 7.5 16.6 16.7 16.6 9.3 0 16.8-7.5 16.8-16.6v-214.8c0-13-10.5-23.5-23.5-23.5z m-50.3-100.6c-122.2 0-221.3 99.1-221.3 221.3s99.1 221.4 221.3 221.4 221.4-99.1 221.4-221.4-99.1-221.3-221.4-221.3z m0 379.4c-87.3 0-158.1-70.8-158.1-158.1 0-87.3 70.8-158.1 158.1-158.1 87.3 0 158.1 70.8 158.1 158.1 0 87.3-70.8 158.1-158.1 158.1z m-13.4-278.8c-3.7 0-6.7 3-6.7 6.7v67.5c-2.1-0.3-4.3-0.4-6.7-0.4v-67.1c0-3.7-3-6.7-6.7-6.7-3.7 0-6.7 3-6.7 6.7v67.1h-6.7v-67.1c0-3.7-3-6.7-6.7-6.7-3.7 0-6.7 3-6.7 6.7v67.1c-2.4 0-4.6 0.1-6.7 0.4v-67.5c0-3.7-3-6.7-6.7-6.7-3.7 0-6.8 3-6.8 6.7v73.8c0 0.9 0.2 1.8 0.6 2.6-0.3 1.2-0.6 2.6-0.6 4.1v13.4c0 11.1 9.1 20.1 20.2 20.1v117.6c0 9.1 7.5 16.6 16.7 16.6 9.3 0 16.8-7.5 16.8-16.6v-117.6c11.1 0 20.1-9 20.1-20.1v-13.4c0-1.5-0.2-2.9-0.5-4.1 0.3-0.8 0.5-1.7 0.5-2.6v-73.8c0-3.7-3-6.7-6.7-6.7z" /></svg>