<svg height="512" width="512.0" xmlns="http://www.w3.org/2000/svg"><path d="m256 31c-124.2 0-225 100.8-225 225s100.8 225.1 225 225.1c124.3 0 225-100.8 225-225.1 0-124.2-100.7-225-225-225z m-45.9 37.7c11.8-11.9 84.4-9.7 93.9 0 9.5 9.6 29 36.2 29 36.2l-75.9 31.4-76-31.4c0 0 17.3-24.3 29-36.2z m-120.5 225.9c0 0-18.7-23.2-27-37.8-8.3-14.6 12.7-85.3 24.3-92.1 11.7-6.8 42-19.1 42-19.1l10.2 82.7-49.5 66.3z m97.8 147c-16.3 2.9-74.4-41.5-76.6-55-2.3-13.4-3.1-46.6-3.1-46.6l79.8 18.9 44.2 70.1c0 0-27.9 9.8-44.3 12.6z m22.7-117l-29-90.7 76-56 75.9 56-29 90.7h-93.9z m188.5 62c-2.3 13.5-60.3 57.9-76.7 55-16.3-2.8-44.2-12.6-44.2-12.6l44.2-70.1 79.8-18.9c0 0-0.8 33.2-3.1 46.6z m24.5-93.1l-49.5-66.4 10.2-82.6c0 0 27.6 10.7 42 19.1 14.4 8.4 31 80.3 24.3 92.1s-27 37.8-27 37.8z" /></svg>