<svg height="512" width="512.0" xmlns="http://www.w3.org/2000/svg"><path d="m251.6 163.5c33.9 0 61.4-27.2 61.4-60.8 0-33.5-27.5-60.7-61.4-60.7-33.8 0-61.3 27.2-61.3 60.7 0 33.6 27.5 60.8 61.3 60.8z m-99.9 2.8c12 0 23-4.3 31.7-11.4-10.3-14.2-16.4-31.6-16.4-50.4 0-11.8 2.3-22.9 6.6-33.1-6.6-3.3-14.1-5.2-21.9-5.2-27.5 0-49.8 22.5-49.8 50.1 0 27.6 22.3 50 49.8 50z m207.7 0c27.5 0 49.7-22.4 49.7-50 0-27.6-22.2-50.1-49.7-50.1-9.9 0-19.2 3-26.9 8 3.5 9.4 5.5 19.6 5.5 30.3 0 17.3-5.2 33.4-14 46.9 9 9.2 21.5 14.9 35.4 14.9z m0.7 15.6c-8.5 0-16.3 0.6-23.5 2 12.1 12.1 18 28.9 14.8 51.3-4 27.6-8.8 91.2-22.2 148.3 8.1 19.9 18.2 33.5 30.9 33.5 40.9 0 52.4-142.2 61.6-181.5 8.8-37.6-20.7-53.6-61.6-53.6z m-190.7 1c-5.4-0.7-11.1-1.1-17.1-1.1-40.9 0-69 15.3-62.1 53.7 7.1 39.7 21.2 181.5 62.1 181.5 10.9 0 19.7-10.1 26.9-25.5-15.7-58.5-22.5-126.1-26.2-156.3-2.8-23.1 3.6-40.2 16.4-52.3z m83.1-0.5c-50.4 0-85.1 18.5-76.6 65.2 8.7 48.2 26.1 220.3 76.6 220.3 50.4 0 64.6-172.6 75.9-220.3 10.8-45.8-25.4-65.2-75.9-65.2z" /></svg>