<svg height="512" width="512.0" xmlns="http://www.w3.org/2000/svg"><path d="m427.9 136.8c-8.7-15-20.3-24.8-33.1-30.3-0.6-6.7-6.2-12-13.1-12h-26.4c-6.7 0-12.2 5-13 11.5-7.1 2.6-13.8 6.4-20 11.1-32.1 24.6-49.5 23.4-66 23.4-16.5 0-33.8 1.2-66-23.4-6.1-4.7-12.9-8.5-19.9-11.1-0.9-6.5-6.3-11.5-13.1-11.5h-26.4c-6.8 0-12.4 5.3-13 12-12.8 5.5-24.5 15.3-33.1 30.3-24.8 42.6-52.9 148.7-52.8 216.6 0 87 41.7 65.7 59.4 46 13.9-15.6 37.9-37.8 59.3-59.1 21.5-21.3 39.6-28.5 66-28.5s39.6 0 39.6 0 13.2 0 39.6 0c26.4 0 44.6 7.2 66 28.5 21.5 21.3 45.4 43.5 59.4 59.1 17.7 19.7 59.4 41 59.4-46 0-67.9-28-174-52.8-216.6z m-270.2 50.2v12.4c0 7.5-6 13.6-13.6 13.6s-13.5-6.1-13.5-13.6v-12.4h-12.5c-7.5 0-13.5-6-13.5-13.5 0-7.5 6-13.6 13.5-13.6h12.5v-12.4c0-7.4 6-13.5 13.5-13.5s13.6 6.1 13.6 13.5v12.4h12.5c7.5 0 13.5 6.1 13.5 13.6 0 7.5-6 13.5-13.5 13.5h-12.5z m52.4 91.8c-18.2 0-33-14.7-33-32.9 0-18.2 14.8-32.9 33-32.9 18.3 0 33 14.7 33 32.9 0 18.2-14.7 32.9-33 32.9z m118.8-65.8c-7.3 0-13.2-5.9-13.2-13.2s5.9-13.2 13.2-13.2c7.3 0 13.2 5.9 13.2 13.2s-5.9 13.2-13.2 13.2z m33 46c-7.3 0-13.2-5.8-13.2-13.1 0-7.3 5.9-13.2 13.2-13.2 7.3 0 13.2 5.9 13.2 13.2 0 7.3-5.9 13.1-13.2 13.1z m6.6-85.5c-7.3 0-13.2-5.9-13.2-13.2s5.9-13.1 13.2-13.1 13.2 5.8 13.2 13.1-5.9 13.2-13.2 13.2z m33 46.1c-7.3 0-13.2-5.9-13.2-13.2 0-7.3 5.9-13.2 13.2-13.2 7.3 0 13.2 5.9 13.2 13.2 0 7.3-5.9 13.2-13.2 13.2z" /></svg>