<svg height="512" width="512.0" xmlns="http://www.w3.org/2000/svg"><path d="m446.3 181.2h-132.4v57.9h-115.8v-57.9h-132.3c-13.7 0-24.8 11.1-24.8 24.8v24.9c0 13.7 11.1 24.8 24.8 24.8h8.3v190.2c0 13.7 11.1 24.8 24.8 24.8h99.2v-206.8h115.8v206.8h99.3c13.7 0 24.8-11.1 24.8-24.8v-190.2h8.3c13.7 0 24.8-11.1 24.8-24.8v-24.9c0-13.7-11.1-24.8-24.8-24.8z m-323-32c12.7 9.1 42.9 21.3 77.8 32h109.2c34-10.6 63.5-22.6 75.9-31.6 31.3-22.6 39.4-41.9 3.5-89.7-32.2-42.9-67.4-44.3-88.2-19.3-16.1 19.3-34.1 60.5-45.5 110.4-11.6-50.5-30-92.3-46.4-111.8-21.3-25.3-57.1-23.8-89.9 19.5-36.6 48.2-28.3 67.6 3.6 90.5z m248.1-75.2c-17.5 42.9-54.3 75.1-95 94.6 17.3-49.6 53-85 95-94.6z m-136.2 94.3c-41.5-19.6-79-52.1-96.8-95.4 42.8 9.6 79.1 45.4 96.8 95.4z" /></svg>