<svg height="512" width="512.0" xmlns="http://www.w3.org/2000/svg"><path d="m413.1 131.8v-68.1h-40.8v68.1h-68v40.8h68v68.1h40.8v-68.1h59.3v235c0 29.9-24.2 54.1-54.1 54.1h-122.3c0.6-4 0.9-7.9 0.9-11.9 0-43.5-8.1-67.8-58.6-105.7l-3.2-2.4c-12.6-9.4-38.8-28.9-38.8-40.3 0-15 3.7-22.2 28.3-41.5 29.3-22.9 44.8-51.1 44.8-81.5 0-33.9-12.6-62.9-34.1-80.1h29.1l39.4-41.4h-155.4c-42.8 0-82.5 18.2-108.7 45.6v-19.1c0-29.9 24.2-54.1 54-54.1h324.6c29.9 0 54.1 24.2 54.1 54.1v48.4h-59.3z m-288.6-44.1l1.6 0c37.2 1.1 70.5 41.2 77.3 93.3 3.7 27.8-1.3 51-13.8 65.3-9 10.2-21.6 15.6-36.5 15.6l-1.9 0c-39.9-1.2-74.8-38.6-81.2-87-3.6-28 2.5-53.5 16.9-69.9 9.9-11.3 22.9-17.3 37.6-17.3z m6.8 203.3c-3.8 8.6-5.7 17-5.7 25 0 15.9 7.7 26.1 16.4 35.2-1.6 0-3.2 0-4.8 0-4.5 0.1-9 0.1-13.7 0.1-32.3 0-60.7 8.1-83.8 21.2v-112.8c20.1 20 48.7 31.5 82.9 31.5 2.7 0 5.5 0 8.7-0.2z m-87.9 136.3c14.8-29.8 53.7-51.7 98-51.7l1.5 0c12.7 0.1 25.2 2.1 36.9 5.8 4.5 3.2 8.9 6.2 13.1 9 25.8 17.5 44.4 30.1 49.6 50.6 1.2 5 1.8 10.1 1.8 15.1 0 1.9 0 3.8-0.1 5.6h-150.4c-23 0-42.6-14.3-50.4-34.4z" /></svg>