<svg height="512" width="512.0" xmlns="http://www.w3.org/2000/svg"><path d="m476 42.2h-81.7c-10.4 0-18.8 7.5-18.8 16.9v13.1c0 9.3 8.4 16.9 18.8 16.9h53.5v332.9h-53.5c-10.4 0-18.8 7.6-18.8 16.9v14.1c0 9.3 8.4 16.9 18.8 16.9h81.7c5.1 0 9.7-1.8 13.1-4.8 0.1 0 0.2-0.1 0.3-0.2 0.1-0.1 0.3-0.3 0.5-0.5 3.1-3 5-7 5-11.4v-394c0-9.3-8.5-16.8-18.9-16.8z m-357.7 379.9h-53.4v-333h53.4c10.4 0 18.9-7.6 18.9-16.9v-13.1c0-9.4-8.5-16.9-18.9-16.9h-81.7c-10.4 0-18.8 7.5-18.8 16.9v393.9c0 4.4 1.9 8.4 5 11.4 0.2 0.2 0.3 0.4 0.5 0.5 0.1 0.1 0.2 0.2 0.3 0.2 3.4 3 7.9 4.8 13 4.8h81.7c10.4 0 18.9-7.6 18.9-16.9v-14.1c0-9.3-8.5-16.9-18.9-16.9z m72-169.7c0-9.9 4.8-12.9 8.6-18.9 3.8-6 3.8-29.5 3.8-29.5 0-32-7.3-47.4-28.6-47.4-21.4 0-28.7 15.4-28.7 47.4 0 0 0 23.5 3.8 29.5 3.9 6 8.6 9 8.6 18.9 0 9.9-2.9 19.4-16.8 24.2-23.3 8-49.1 12-49.1 32 0 10.5-1.3 26 5.7 26h44.9c-0.1-5.8 0-11.8 0-17.1 0-26.9 28.9-34.3 57.7-44.3-7.9-5.2-9.9-12.9-9.9-20.8z m224.7 82.2c7 0 5.7-15.5 5.7-26 0-20-25.8-24-49-32-13.9-4.8-16.9-14.3-16.9-24.2 0-9.9 4.8-12.9 8.6-18.9 3.8-6 3.8-29.5 3.8-29.5 0-32-7.3-47.4-28.6-47.4-21.3 0-28.7 15.4-28.7 47.4 0 0 0 23.5 3.8 29.5 3.9 6 8.6 9 8.6 18.9 0 8.7-2.2 17-12.1 22.2 27.3 9.4 53.5 17.3 53.5 42.9 0 5.3 0.2 11.3 0.1 17.1h51.2z m-121-46.7c-16.2-5.5-19.6-16.5-19.6-28 0-11.4 5.5-14.9 10-21.8 4.4-7 4.4-34.1 4.4-34.1 0-37-8.5-54.8-33.2-54.8-24.8 0-33.3 17.8-33.3 54.8 0 0 0 27.1 4.4 34.1 4.5 6.9 10 10.4 10 21.8 0 11.5-3.4 22.5-19.6 28-27 9.2-57 13.9-57 36.9 0 12.2-1.5 30 6.7 30h177.4c8.2 0 6.7-17.8 6.7-30 0-23-29.9-27.7-56.9-36.9z" /></svg>