<svg height="512" width="512.0" xmlns="http://www.w3.org/2000/svg"><path d="m477 331.5c0-26.6-34.6-32-65.9-42.6-18.7-6.4-22.6-19-22.6-32.2 0-13.2 6.4-17.2 11.5-25.2 5.1-8 5.2-39.3 5.2-39.3 0-42.5-9.9-63.1-38.5-63.1-28.7 0-38.6 20.6-38.6 63.1 0 0 0 31.3 5.2 39.3 5.1 8 11.5 12 11.5 25.2 0 11.5-3 22.7-16.3 29.5 36.8 12.5 71.9 23 71.9 57.2 0 6.9 0.3 15 0.1 22.6h68.8c9.4 0 7.7-20.5 7.7-34.5z m-309.6-74.8c0-13.2 6.4-17.2 11.5-25.2s5.2-39.2 5.2-39.2c0-42.6-9.9-63.2-38.5-63.2-28.7 0-38.6 20.6-38.6 63.2 0 0 0.1 31.2 5.2 39.2 5.1 8 11.5 12 11.5 25.2 0 13.2-3.9 25.8-22.6 32.2-31.3 10.6-66 16-66 42.6 0 14-1.7 34.5 7.7 34.5h60.3c-0.2-7.6 0.1-15.7 0.1-22.6 0-35.9 38.8-45.7 77.5-59-10.6-7-13.3-17.1-13.3-27.7z m139.3 47.2c-21.7-7.3-26.3-22-26.3-37.2 0-15.2 7.4-19.8 13.4-29.1 6-9.2 6-45.3 6-45.3 0-49.2-11.5-72.9-44.7-72.9-33.3 0-44.8 23.7-44.8 72.9 0 0 0 36.1 6 45.3 6 9.3 13.4 13.9 13.4 29.1 0 15.2-4.6 29.9-26.3 37.2-36.3 12.3-76.6 18.5-76.6 49.2 0 16.2-2 39.9 9 39.9h238.4c11 0 9-23.7 9-39.9 0-30.7-40.2-36.9-76.5-49.2z" /></svg>