<svg height="512" width="512.0" xmlns="http://www.w3.org/2000/svg"><path d="m270.3 299.8c-17.9-5.6-21.7-16.8-21.7-28.5 0-11.7 6.1-15.2 11-22.3 5-7.1 5-34.8 5-34.8 0-37.7-9.5-55.9-37-55.9-27.5 0-37 18.2-37 55.9 0 0 0 27.7 4.9 34.8 5 7.1 11.1 10.6 11.1 22.3 0 11.7-3.8 22.9-21.8 28.5-30 9.4-63.3 14.2-63.3 37.7 0 12.5-1.6 30.7 7.4 30.7h197.3c9 0 7.4-18.2 7.4-30.7 0-23.5-33.3-28.3-63.3-37.7z m114.1 38.2c8.4 0 6.9-16.9 6.9-28.4 0-21.7-30.8-26.1-58.5-34.8-16.7-5.3-20.2-15.6-20.2-26.4 0-10.8 5.7-14.1 10.3-20.7 4.5-6.6 4.5-32.2 4.5-32.2 0-34.9-8.7-51.7-34.2-51.7-12 0-20.3 3.7-25.7 11.3 17.1 17.2 17.1 46.8 17.1 59.1 0 15.1-1.4 35-7.9 44.4-1.6 2.3-3.2 4.2-4.6 5.8-3.4 4.1-3.5 4.4-3.5 6.9 0 5.2 0 9.7 11.1 13.2 4.8 1.5 9.7 2.9 14.6 4.3 13.4 3.8 26.2 7.4 36.6 13.2 18.8 10.5 22.7 25.1 22.7 35.5v0.5h30.8z m79.1-283.6h-77c-9.9 0-17.8 7.1-17.8 15.9v12.4c0 8.8 7.9 15.9 17.8 15.9h50.3v314h-50.3c-9.9 0-17.8 7.1-17.8 15.9v13.3c0 8.7 7.9 15.9 17.8 15.9h77c4.8 0 9.1-1.7 12.3-4.5 0.1-0.1 0.2-0.1 0.3-0.2 0.1-0.1 0.3-0.3 0.4-0.5 2.9-2.8 4.8-6.6 4.8-10.7v-371.5c0-8.8-8-15.9-17.8-15.9z m-337.3 358.2h-50.4v-314h50.4c9.8 0 17.8-7.1 17.8-15.9v-12.4c0-8.8-8-15.9-17.8-15.9h-77c-9.8 0-17.8 7.1-17.8 15.9v371.5c0 4.1 1.8 7.9 4.8 10.7 0.1 0.2 0.2 0.4 0.4 0.5 0.1 0.1 0.2 0.1 0.3 0.2 3.2 2.8 7.5 4.5 12.3 4.5h77c9.8 0 17.8-7.2 17.8-15.9v-13.3c0-8.8-8-15.9-17.8-15.9z" /></svg>