<svg height="512" width="512.0" xmlns="http://www.w3.org/2000/svg"><path d="m450.3 200.9c-19.7-101.1-92-171.3-196.9-171.3-100 0-167.1 81.2-187.5 170-10.2 3-17.6 12.4-17.6 23.5v106.3c0 8.8 4.5 16.4 11.4 20.8 6.5 51 52.8 85.6 124 97.4-0.1 0.5-0.2 1-0.2 1.4-0.3 6.2-1.4 10.6 6.9 12.7 5.1 1.3 74.7 19.9 74.7 19.9 9.6 3.3 18.8-0.5 22.9-10.9 8.7-21.6 9.7-39.8 2.8-61.4-3.3-10.4-7.6-15.1-21.8-13.6-5.3 0.5-70.1 10.2-76.1 10.8-7.5 0.7-7.8 6.8-8 11.8-0.1 1.2 0.5 2.7 1.1 5-65.7-10.2-99.8-37.9-108.4-69.3h11.8c13.6 0 24.7-11 24.7-24.6v-106.3c0-13.6-11.1-24.5-24.7-24.5h-7c22.2-83.9 79.2-144.4 171-144.4 94.6 0 158.5 58.6 180.4 144.4h-10.5c-13.6 0-24.7 10.9-24.7 24.5v106.3c0 13.6 11.1 24.6 24.7 24.6h16.4c13.7 0 24.7-11 24.7-24.6v-106.3c0-9.8-5.8-18.2-14.1-22.2z" /></svg>