<svg height="512" width="512.0" xmlns="http://www.w3.org/2000/svg"><path d="m447.8 123.6h-382.9v264.9h382.9v-264.9z m-265.6 30.9c22.1 0 40 17.7 40 39.5 0 21.9-17.9 39.6-40 39.6-22.2 0-40.1-17.7-40.1-39.6 0-21.8 17.9-39.5 40.1-39.5z m245.5 214.4h-342.7v-79.1c13.3-13.4 26.6-26.9 28.4-28.7 9.3-9.4 18.9-9.8 28.6 0 18.4 18.5 38.3 38.5 57 57.4 54.1-54.4 116.9-117.5 121.6-122.2 11.1-11.1 24.9-10.8 35.6 0 4.9 4.9 43.7 43.9 71.5 71.8v100.8z m35.5-282.2h-413.7c-11.9 0-21.4 9.2-21.4 20.7v297.3c0 11.4 9.5 20.7 21.4 20.7h413.7c11.8 0 21.4-9.3 21.4-20.7v-297.3c0-11.5-9.6-20.7-21.4-20.7z m-0.7 317.1h-412.3v-295.5h412.3v295.5z" /></svg>