<svg height="512" width="512.0" xmlns="http://www.w3.org/2000/svg"><path d="m377.6 373.7c68.9 0 114.2-55 114.2-117.7 0-66.9-44-117.7-108.8-117.7-58.1 0-91.2 38.1-126.3 71.9-33.1-33.1-71.6-71.9-121.6-71.9-68.9 0-114.2 55-114.2 117.7 0 67 43.9 117.7 108.8 117.7 58.1 0 91.2-38 126.3-71.9 33.1 33.2 71.6 71.9 121.6 71.9z m-1.4-64.8c-31.7 0-57.4-32.4-78.3-53.6 23.6-23.9 49.3-52.1 80.4-52.1 26.3 0 47.3 21.8 47.3 52.8 0 28.9-21.7 52.9-49.4 52.9z m-241.8 0c-26.3 0-47.3-21.9-47.3-52.9 0-28.9 21.6-52.8 49.3-52.8 31.8 0 57.4 32.4 78.4 53.5-23.7 24-49.3 52.2-80.4 52.2z" /></svg>