<svg height="512" width="512.0" xmlns="http://www.w3.org/2000/svg"><path d="m42.1 126v210.4c0 1.3 1 2.3 2.2 2.3h15.7v-35.1h-0.2c-1.2 0-2.1-1-2.1-2.2v-123.7c0-1.3 0.9-2.3 2.1-2.3h0.2v-12.9h-1c-1.2 0-2.1-1.1-2.1-2.4v-16.4c0-1.4 0.9-2.4 2.1-2.4h1v-17.5h-15.7c-1.2 0-2.2 1-2.2 2.2z m26.9-21.9v254.2c0 1.5 1.2 2.8 2.6 2.8h19.7v-42.4h-0.3c-1.4 0-2.6-1.2-2.6-2.7v-149.5c0-1.5 1.2-2.7 2.6-2.7h0.3v-15.6h-1.3c-1.4 0-2.6-1.3-2.6-2.9v-19.9c0-1.6 1.2-2.9 2.6-2.9h1.3v-21.1h-19.7c-1.4 0-2.6 1.2-2.6 2.7z m31.3-21.9v298.1c0 1.7 1.4 3.2 3.2 3.2h23.6v-49.7h-0.3c-1.8 0-3.2-1.4-3.2-3.2v-175.2c0-1.8 1.4-3.2 3.2-3.2h0.3v-18.3h-1.5c-1.8 0-3.2-1.5-3.2-3.4v-23.3c0-1.9 1.4-3.4 3.2-3.4h1.5v-24.8h-23.6c-1.8 0-3.2 1.4-3.2 3.2z m353.4 13.5l-47.9-48.1v0.9l-0.8-0.9h-265c-2.2 0-3.9 1.8-3.9 3.9v363.9c0 2.1 1.7 3.9 3.9 3.9h309.8c2.1 0 3.9-1.8 3.9-3.9v-316.8l-43.7 7.8c-8.1 0-14.7-6.8-14.7-15l7.7-43.8 2.8 2.9v30.2c0 8.2 6.6 15 14.7 15h30.2l3 2.9v-2l-1-0.9h1z m-211.2-13.7c0-2.2 1.7-4.1 3.8-4.1h133.6c2.2 0 3.9 1.9 3.9 4.1v6.2c0 2.2-1.7 4.1-3.9 4.1h-133.6c-2.1 0-3.8-1.9-3.8-4.1v-6.2z m3.8 13.5h133.6c2.2 0 3.9 1.8 3.9 4s-1.7 4-3.9 4h-133.6c-2.1 0-3.8-1.8-3.8-4s1.7-4 3.8-4z m0.1 11.1h76.3c2.2 0 3.9 1.8 3.9 4s-1.7 4-3.9 4h-76.3c-2.2 0-3.9-1.8-3.9-4s1.7-4 3.9-4z m-18.2 248.2c0 2.1-1.8 3.9-3.9 3.9h-55.8c-2.1 0-3.9-1.8-3.9-3.9v-213.9c0-2.2 1.8-3.9 3.9-3.9h55.8c2.1 0 3.9 1.7 3.9 3.9v213.9z m0-244.3c0 2.3-1.8 4.1-3.9 4.1h-57.3c-2.2 0-3.9-1.8-3.9-4.1v-28.5c0-2.2 1.7-4.1 3.9-4.1h57.3c2.1 0 3.9 1.9 3.9 4.1v28.5z m195.3 279.4c0 2.1-1.8 3.9-4 3.9h-76.3c-2.1 0-3.9-1.8-3.9-3.9v-17.7c0-2.2 1.8-4 3.9-4h76.3c2.2 0 4 1.8 4 4v17.7z m-3.9-252.9c2.1 0 3.9 1.7 3.9 3.9v213.9c0 2.1-1.8 3.9-3.9 3.9h-173.2c-2.2 0-3.9-1.8-3.9-3.9v-213.9c0-2.2 1.7-3.9 3.9-3.9h173.2z" /></svg>