<svg height="512" width="512.0" xmlns="http://www.w3.org/2000/svg"><path d="m398.5 93.8c-9.2 0-16.7-7.6-16.7-17l14.7-49.4-301.5-0.1c-16.8 0-30.5 13.8-30.5 30.9v395.7c0 17 13.7 30.9 30.5 30.9h322.6c16.9 0 30.5-13.9 30.5-30.9l0.1-374.9-49.7 14.8z m-193.7 11.5c0-2.3 2.1-4.1 4.6-4.1h94c2.6 0 4.6 1.8 4.6 4.1v6.3c0 2.3-2 4.2-4.6 4.2h-94c-2.5 0-4.6-1.9-4.6-4.2v-6.3z m-66.3 278.7c0 2.7-2 4.8-4.5 4.8h-35.5c-2.5 0-4.5-2.1-4.5-4.8v-219c0-2.7 2-4.8 4.5-4.8h35.5c2.5 0 4.5 2.1 4.5 4.8v219z m-0.1-272.3c-4.4 7-11.8 11.6-20.2 11.6-13.3 0-24.1-11.6-24.1-25.9 0-14.2 10.8-25.8 24.1-25.8 8.4 0 15.8 4.6 20.2 11.6 4.3-7 11.7-11.6 20.1-11.6 13.3 0 24.1 11.6 24.1 25.8 0 14.3-10.8 25.9-24.1 25.9-8.4 0-15.8-4.6-20.1-11.6z m191.7 272.3c0 2.7-2.1 4.8-4.8 4.8h-167.4c-2.6 0-4.8-2.1-4.8-4.8v-219c0-2.7 2.2-4.8 4.8-4.8h167.4c2.7 0 4.8 2.1 4.8 4.8v219z m10.3-297.7h-131c-2.5 0-4.6-1.9-4.6-4.2v-6.3c0-2.3 2.1-4.2 4.6-4.2h131c2.5 0 4.5 1.9 4.5 4.2v6.3c0 2.3-2 4.2-4.5 4.2z m70.8 357c0 2.5-2.1 4.5-4.8 4.5h-56.7c-2.6 0-4.8-2-4.8-4.5v-27.8c0-2.5 2.2-4.5 4.8-4.5h56.7c2.7 0 4.8 2 4.8 4.5v27.8z m0-59.3c0 2.7-2.1 4.8-4.7 4.8h-56.8c-2.6 0-4.8-2.1-4.8-4.8v-219c0-2.7 2.2-4.8 4.8-4.8h56.8c2.6 0 4.7 2.1 4.7 4.8v219z m0.1-305h36.9l-51.7-51.6v36.8c0 8.7 6.3 14.8 14.8 14.8z" /></svg>