<svg height="512" width="512.0" xmlns="http://www.w3.org/2000/svg"><path d="m438.2 97.5l-54.9-55.2v0.9l-1-0.9h-304c-2.5 0-4.5 2-4.5 4.5v418.4c0 2.5 2 4.5 4.5 4.5h355.4c2.5 0 4.5-2 4.5-4.5v-364.3l-50.1 8.9c-9.3 0-16.8-7.7-16.8-17.2l8.7-50.3 3.3 3.3v34.7c0 9.5 7.5 17.2 16.9 17.2h34.7l3.3 3.4v-2.3l-1.1-1.1h1.1z m-242.3-15.7c0-2.6 2-4.7 4.4-4.7h153.3c2.5 0 4.4 2.1 4.4 4.7v7.1c0 2.6-1.9 4.7-4.4 4.7h-153.3c-2.4 0-4.4-2.1-4.4-4.7v-7.1z m4.4 15.5h153.3c2.5 0 4.4 2.1 4.4 4.6 0 2.6-1.9 4.6-4.4 4.6h-153.3c-2.4 0-4.4-2-4.4-4.6 0-2.5 2-4.6 4.4-4.6z m0.1 12.9h87.5c2.5 0 4.5 2 4.5 4.5 0 2.6-2 4.6-4.5 4.6h-87.5c-2.5 0-4.5-2-4.5-4.6 0-2.5 2-4.5 4.5-4.5z m-20.9 285.3c0 2.5-2 4.6-4.5 4.6h-64c-2.5 0-4.4-2.1-4.4-4.6v-246c0-2.5 1.9-4.5 4.4-4.5h64c2.5 0 4.5 2 4.5 4.5v246z m0-280.9c0 2.6-2 4.7-4.5 4.7h-65.7c-2.5 0-4.5-2.1-4.5-4.7v-32.8c0-2.6 2-4.7 4.5-4.7h65.7c2.5 0 4.5 2.1 4.5 4.7v32.8z m224.1 321.3c0 2.5-2.1 4.5-4.5 4.5h-87.6c-2.5 0-4.5-2-4.5-4.5v-20.3c0-2.5 2-4.6 4.5-4.6h87.6c2.4 0 4.5 2.1 4.5 4.6v20.3z m-4.5-290.9c2.5 0 4.5 2 4.5 4.5v246c0 2.5-2 4.6-4.5 4.6h-198.7c-2.5 0-4.5-2.1-4.5-4.6v-246c0-2.5 2-4.5 4.5-4.5h198.7z" /></svg>