<svg height="512" width="512.0" xmlns="http://www.w3.org/2000/svg"><path d="m300.1 341.3c0-12.9 8.1-24 19.5-28.4-4.4-1.2-8.7-2.5-13.1-3.9-33.3-10.4-40.4-31-40.4-52.5 0-21.5 11.5-28 20.6-41.1 9.1-13.1 9.1-64.1 9.1-64.1 0-69.4-17.5-102.9-68.5-102.9-51.1 0-68.7 33.5-68.7 102.9 0 0 0 51 9.2 64.1 9.1 13.1 20.6 19.6 20.6 41.1 0 21.5-7.1 42.1-40.5 52.5-55.6 17.4-117.4 26.2-117.4 69.5 0 22.9-3.1 56.4 13.7 56.4h255.9c0-0.5 0-0.9 0-1.3v-92.3z m94.8 57.1h-14.5c-3.8 0-6.8-3.1-7.3-7.2h-65.7v43.3c0 8.2 7.1 14.9 15.8 14.9h128.8c8.7 0 15.8-6.7 15.8-14.9v-43.3h-65.7c-0.4 4.1-3.5 7.2-7.2 7.2z m57.1-73h-27.9v-6.3c0-4.5-3.9-8.2-8.8-8.2h-55.3c-2.4 0-4.4 0.8-6 2.2-0.1 0-0.2 0.1-0.3 0.2 0 0-0.1 0.1-0.1 0.1-1.5 1.5-2.5 3.5-2.5 5.7v6.3h-27.9c-8.7 0-15.8 7.3-15.8 16.3v42h65.7v-13.7c0-4.5 3.3-8.2 7.3-8.2h14.5c4 0 7.3 3.7 7.3 8.2v13.7h65.6v-42c0-9-7.1-16.3-15.8-16.3z m-37.9 0h-52.9v-7.3h52.9v7.3z" /></svg>