<svg height="512" width="512.0" xmlns="http://www.w3.org/2000/svg"><path d="m477.2 353.6l-60.3-20.1h-1.2c0.8-2.1 1.2-4.3 1.2-6.7v-194.3c0-11.1-9-20.1-20.1-20.1h-281.5c-11.1 0-20.1 9-20.1 20.1v194.3c0 2.4 0.4 4.6 1.1 6.7h-1.1l-60.3 20.1c-7.4 0-13.4 6-13.4 13.4 0 7.4 6 13.4 13.4 13.4h442.3c7.4 0 13.4-6 13.4-13.4 0-7.4-6-13.4-13.4-13.4z m-221.2-234.5c3.7 0 6.7 3 6.7 6.7s-3 6.7-6.7 6.7c-3.7 0-6.7-3-6.7-6.7s3-6.7 6.7-6.7z m140.8 194.3c0 3.7-3 6.7-6.7 6.7h-268.1c-3.7 0-6.7-3-6.7-6.7v-167.5c0-3.7 3-6.7 6.7-6.7h268.1c3.7 0 6.7 3 6.7 6.7v167.5z" /></svg>