<svg height="512" width="512.0" xmlns="http://www.w3.org/2000/svg"><path d="m419.5 37.3h-267v437.7h267c12.3 0 22.3-9.9 22.3-22.2v-393.2c0-12.3-10-22.3-22.3-22.3z m-237.4 89.1c0-4.1 3.4-7.5 7.5-7.5h133.5c4.1 0 7.4 3.4 7.4 7.5v7.4c0 4.1-3.3 7.4-7.4 7.4h-133.5c-4.1 0-7.5-3.3-7.5-7.4v-7.4z m185.5 81.6h-178c-4.1 0-7.5-3.4-7.5-7.5s3.4-7.4 7.5-7.4h178c4.1 0 7.4 3.3 7.4 7.4s-3.3 7.5-7.4 7.5z m0-29.7h-178c-4.1 0-7.5-3.3-7.5-7.4s3.4-7.5 7.5-7.5h178c4.1 0 7.4 3.4 7.4 7.5s-3.3 7.4-7.4 7.4z m-296.7-118.7v393.2c0 12.3 9.9 22.2 22.2 22.2h44.5v-437.7h-44.5c-12.3 0-22.2 10-22.2 22.3z" /></svg>