<svg height="512" width="512.0" xmlns="http://www.w3.org/2000/svg"><path d="m472.7 248.7c0-0.1 0-0.2 0-0.3 0-1 0-1.9 0-2.9s0-1.9 0-2.9c0-0.1 0-0.2 0-0.4-1.7-116.9-96.2-211.4-213.1-213.1-0.1 0-0.3 0-0.4 0-0.9 0-1.9 0-2.9 0s-1.9 0-2.9 0c-0.1 0-0.2 0-0.3 0-117 1.7-211.4 96.2-213.2 213.2 0 0.1 0 0.2 0 0.3 0 1 0 1.9 0 2.9s0 1.9 0 2.9c0 0.1 0 0.2 0 0.3 1.8 117 96.2 211.5 213.2 213.2 0.1 0 0.2 0 0.3 0 1 0 2 0 2.9 0s2 0 2.9 0c0.1 0 0.3 0 0.4 0 116.9-1.7 211.4-96.2 213.1-213.2z m-137.2 174.8l-32.3-72.5c26.1-11.6 47-32.6 58.6-58.6l72.6 32.2c-19.6 44-55 79.4-98.9 98.9z m-79.2-270.3c51 0 92.4 41.3 92.4 92.3s-41.4 92.3-92.4 92.3-92.3-41.3-92.3-92.3 41.3-92.3 92.3-92.3z m178.1 13.2l-72.6 32.2c-11.6-26-32.5-47-58.6-58.6l32.3-72.5c43.9 19.5 79.3 54.9 98.9 98.9z m-257.2-98.9l32.2 72.5c-26 11.6-47 32.6-58.6 58.6l-72.5-32.2c19.6-44 54.9-79.4 98.9-98.9z m-98.9 257.1l72.5-32.2c11.6 26 32.6 47 58.6 58.6l-32.2 72.5c-43.9-19.5-79.3-54.9-98.9-98.9z" /></svg>