<svg height="512" width="512.0" xmlns="http://www.w3.org/2000/svg"><path d="m256.3 25.2c-79.6 0-144.2 57.6-144.2 128.7 0 83.1 66.6 75.8 66.6 171.6 0 11.9 9.9 21.4 22.1 21.4h111c12.3 0 22.2-6.6 22.2-21.4 0-98.6 66.6-85.2 66.6-171.6 0-71.1-64.6-128.7-144.3-128.7z m49.4 337.2h-98.7c-12.6 0-22.7 8-22.7 17.9 0 9.9 10.1 17.9 22.7 17.9h98.7c12.5 0 22.7-8 22.7-17.9 0-9.9-10.2-17.9-22.7-17.9z m-9.3 51.2h-80.1c-12.6 0-22.8 8-22.8 17.9 0 9.8 10.2 17.8 22.8 17.8h80.1c12.5 0 22.7-8 22.7-17.8 0-9.9-10.2-17.9-22.7-17.9z m-40.1 73.2c19.9 0 36-9.6 36-21.4h-72c0 11.8 16.1 21.4 36 21.4z" /></svg>