<svg height="512" width="512.0" xmlns="http://www.w3.org/2000/svg"><path d="m478.3 123.4h-203c-48.8-72.7-203.8 15.7-203.8 15.7l-46.1 280.7c0 0 154.2-83.6 218.6 0 59.1-7.9 242.1 0 242.1 0l-7.8-296.4z m-383.8 32.2c5.7-2.9 28.6-14.9 56.3-23l-0.7 8.8c-34.1 10.5-62.5 27.7-64.2 28.6 3-4.9 5.9-9.7 8.6-14.4z m-5.5 30.2c2.2-1.1 28.1-15.2 59.5-25l-0.9 10.3c-35.5 10.5-65.6 28.8-67.3 29.4 3-5 5.9-10 8.7-14.7z m-5.6 31c2.2-0.6 29.7-15.5 62.5-25.3l-0.9 10.8c-37.1 10.5-68.7 29.1-70.6 29.4 3.1-5 6.1-10 9-14.9z m-5.9 31.8c2.4-0.3 31.4-15.4 65.7-25l-1 11.2c-38.5 10-71.9 28.7-73.8 28.8 3.1-5.1 6.2-10.1 9.1-15z m-6 32.3c2.4-0.2 33.1-15.1 68.9-24.4l-1 11.4c-40.1 9.5-75.3 27.9-77.3 28.1 3.2-5.1 6.4-10.1 9.4-15.1z m-6.3 32.9c2.6-0.4 35-15.2 72.4-23.9l-1 11.4c-41.8 8.7-78.9 27.2-81 28 3.3-5.3 6.5-10.5 9.6-15.5z m-6.5 33.7c2.7-1.2 37.1-16.4 76.1-24.5l-1 11.2c-43.5 8.2-82.7 27.5-84.9 29.6 3.4-5.7 6.7-11.1 9.8-16.3z m170 1.9c-18.1-16.5-44.3-20.5-71.2-18.4l1-11.9c27.3-3.1 54.2-1 71.9 13.3-0.2 2.6-1.3 13.2-1.7 17z m3.5-34.5c-18.2-16.6-44.8-19.9-71.9-17.3l1.1-12.2c27.4-3.7 54.7-2.1 72.5 12.6-0.2 2.6-1.3 13.1-1.7 16.9z m3.4-34.2c-18.3-17.3-45.2-20.3-72.4-17l1-12.2c27.6-4.3 55.1-2.9 73.1 12.7-0.3 2.5-1.3 12.7-1.7 16.5z m3.4-33.3c-18.5-18.4-45.7-21.3-72.9-17.5l1-11.8c27.6-4.8 55.4-3.5 73.4 13.3-0.2 2.5-1.2 12.4-1.5 16z m3.2-32.1c-18.6-19.6-46-22.4-73.4-18.2l1-11.4c27.6-5 55.8-3.7 73.9 14.2-0.2 2.4-1.2 11.9-1.5 15.4z m3.1-30.8c-18.7-20.6-46.4-23.4-73.8-19l0.9-10.8c27.7-5.1 56.1-3.3 74.3 15.1-0.2 2.2-1.1 11.3-1.4 14.7z m3-29.5c-18.8-20.7-46.8-23.8-74.3-19.3l0.7-8.7c26.8-4.6 54.9-3.1 75 13.8-0.2 2.2-1.1 10.9-1.4 14.2z m112.4 219.8h-77.2l1.4-8.8h76l-0.2 8.8z m0.4-17.3h-75l1.3-8.2h73.9l-0.2 8.2z m0.4-16.3h-72.9l1.2-7.8h71.9l-0.2 7.8z m0.4-15.4h-71l1.2-7.5h69.9l-0.1 7.5z m0.3-14.7h-69.1l1.1-7h68.2l-0.2 7z m77 63.7h-62.5v-7.8h62.5v7.8z m0-15.7h-62.5v-7.9h62.5v7.9z m0-15.7h-62.5v-7.9h62.5v7.9z m0-15.7h-62.5v-7.9h62.5v7.9z m0-15.8h-62.5v-7.8h62.5v7.8z m7.8-15.7h-156.1v-7.8h156.1v7.8z m0-23.5h-156.1l7.8-117.9h148.3v117.9z" /></svg>