<svg height="512" width="512.0" xmlns="http://www.w3.org/2000/svg"><path d="m485.7 238.1l-101-94.3c-8.8-8.3-23.2-8-32.1 0.5l-20.4 19.4c-8.9 8.6-9.1 22.2-0.3 30.6l15.2 14.6h-54.9c-6.7 0-12.2 5.3-12.2 11.8v70.9c0 6.5 5.5 11.8 12.2 11.8h50.5l-12.3 11.8c-9.1 8.6-9.3 22.9-0.4 31.7l20.5 20.5c9 9 23.8 9.2 33 0.4l102.5-97.8c4.6-4.5 6.9-10.2 6.8-16-0.1-5.8-2.4-11.5-7.1-15.9z m-265.2-29.2h-54.9l15.2-14.6c8.7-8.4 8.6-22-0.4-30.6l-20.3-19.4c-8.9-8.5-23.3-8.8-32.1-0.5l-101 94.3c-4.7 4.4-7.1 10.1-7.1 15.9-0.1 5.8 2.2 11.5 6.8 16l102.4 97.8c9.2 8.8 24 8.6 33.1-0.4l20.5-20.5c8.8-8.8 8.7-23.1-0.4-31.7l-12.3-11.8h50.5c6.7 0 12.2-5.3 12.2-11.8v-70.9c0-6.5-5.5-11.8-12.2-11.8z" /></svg>