<svg height="512" width="512.0" xmlns="http://www.w3.org/2000/svg"><path d="m39.5 418.8c0 21.9 17 39.7 38 39.7h357.6c21.1 0 38.1-17.8 38.1-39.7v-249.5h-433.7v249.5z m339.7-184.5c0-8 6.5-14.4 14.5-14.4h21.7c8 0 14.4 6.4 14.4 14.4v21.7c0 8-6.4 14.5-14.4 14.5h-21.7c-8 0-14.5-6.5-14.5-14.5v-21.7z m0 72.3c0-8 6.5-14.4 14.5-14.4h21.7c8 0 14.4 6.4 14.4 14.4v21.7c0 8-6.4 14.5-14.4 14.5h-21.7c-8 0-14.5-6.5-14.5-14.5v-21.7z m0 72.3c0-8 6.5-14.4 14.5-14.4h21.7c8 0 14.4 6.4 14.4 14.4v21.7c0 8-6.4 14.5-14.4 14.5h-21.7c-8 0-14.5-6.5-14.5-14.5v-21.7z m-101.2-144.6c0-8 6.5-14.4 14.5-14.4h21.7c8 0 14.4 6.4 14.4 14.4v21.7c0 8-6.4 14.5-14.4 14.5h-21.7c-8 0-14.5-6.5-14.5-14.5v-21.7z m0 72.3c0-8 6.5-14.4 14.5-14.4h21.7c8 0 14.4 6.4 14.4 14.4v21.7c0 8-6.4 14.5-14.4 14.5h-21.7c-8 0-14.5-6.5-14.5-14.5v-21.7z m0 72.3c0-8 6.5-14.4 14.5-14.4h21.7c8 0 14.4 6.4 14.4 14.4v21.7c0 8-6.4 14.5-14.4 14.5h-21.7c-8 0-14.5-6.5-14.5-14.5v-21.7z m-94-144.6c0-8 6.5-14.4 14.5-14.4h21.7c8 0 14.4 6.4 14.4 14.4v21.7c0 8-6.4 14.5-14.4 14.5h-21.7c-8 0-14.5-6.5-14.5-14.5v-21.7z m0 72.3c0-8 6.5-14.4 14.5-14.4h21.7c8 0 14.4 6.4 14.4 14.4v21.7c0 8-6.4 14.5-14.4 14.5h-21.7c-8 0-14.5-6.5-14.5-14.5v-21.7z m0 72.3c0-8 6.5-14.4 14.5-14.4h21.7c8 0 14.4 6.4 14.4 14.4v21.7c0 8-6.4 14.5-14.4 14.5h-21.7c-8 0-14.5-6.5-14.5-14.5v-21.7z m-101.2-144.6c0-8 6.5-14.4 14.5-14.4h21.7c8 0 14.4 6.4 14.4 14.4v21.7c0 8-6.4 14.5-14.4 14.5h-21.7c-8 0-14.5-6.5-14.5-14.5v-21.7z m0 72.3c0-8 6.5-14.4 14.5-14.4h21.7c8 0 14.4 6.4 14.4 14.4v21.7c0 8-6.4 14.5-14.4 14.5h-21.7c-8 0-14.5-6.5-14.5-14.5v-21.7z m0 72.3c0-8 6.5-14.4 14.5-14.4h21.7c8 0 14.4 6.4 14.4 14.4v21.7c0 8-6.4 14.5-14.4 14.5h-21.7c-8 0-14.5-6.5-14.5-14.5v-21.7z m352.3-296.5h-70.4v-11.2c0-9.7-8.1-17.6-18-17.6-10 0-18 7.9-18 17.6v11.2h-144.7v-11.2c0-9.7-8.1-17.6-18-17.6-10 0-18 7.9-18 17.6v11.2h-70.5c-21 0-38 17.8-38 39.7v32.7h433.7v-32.7c0-21.9-17-39.7-38.1-39.7z m-269.2 57.9c-13.9 0-25.2-11.3-25.2-25.2 0-7 2.8-13.2 7.3-17.8v3.7c0 9.8 8 17.7 18 17.7 9.9 0 18-7.9 18-17.7v-3.6c4.4 4.5 7.2 10.8 7.2 17.7 0 13.9-11.3 25.2-25.3 25.2z m180.8 0c-14 0-25.3-11.3-25.3-25.2 0-7 2.8-13.2 7.3-17.8v3.7c0 9.8 8.1 17.7 18 17.7 9.9 0 18-7.9 18-17.7v-3.7c4.5 4.6 7.3 10.8 7.3 17.8 0 13.9-11.4 25.2-25.3 25.2z" /></svg>