<svg height="512" width="512.0" xmlns="http://www.w3.org/2000/svg"><path d="m475.3 241.9c-7-109.9-94.9-197.8-204.8-204.9v-0.4h-28.6v0.4c-109.9 7.1-197.8 95-204.9 204.9h-0.4v14.2c0 0 0 0.1 0 0.1 0 0 0 0 0 0.1v14.2h0.4c7.1 109.9 95 197.8 204.9 204.8v0.5h28.6v-0.5c109.9-7 197.8-94.9 204.8-204.8h0.5v-28.6h-0.5z m-94.9 0c-0.9-23.4-3.8-45.8-8.5-66.6h57.3c9.6 20.5 15.7 43 17.5 66.6h-66.3z m-61-126.9c5.5 9.7 10.4 20.4 14.6 31.8l-63.5 0v-79.2c17.5 5.9 34.7 22.5 48.9 47.4z m-77.5-47.4v79.2h-63.5c4.2-11.4 9.1-22.1 14.6-31.8 14.1-24.9 31.4-41.5 48.9-47.4z m0 107.7v66.6h-81.3c0.9-23.3 4-45.8 9.1-66.6h72.2z m0 95.2v66.5h-72.2c-5.1-20.8-8.2-43.2-9.1-66.5h81.3z m0 95.1v79.2c-17.5-6-34.8-22.5-48.9-47.4-5.5-9.8-10.4-20.4-14.6-31.8h63.5z m28.6 79.2v-79.2h63.5c-4.2 11.4-9.1 22-14.6 31.8-14.2 24.9-31.4 41.4-48.9 47.4z m0-107.8v-66.5h81.3c-0.9 23.3-4 45.7-9.2 66.5h-72.1z m0-95.1v-66.6l72.1 0c5.2 20.8 8.3 43.3 9.2 66.6l-81.3 0z m142.2-95.1h-48.6c-8.5-26-19.9-48.7-33.4-66.6 33.2 14.1 61.5 37.4 82 66.6z m-231-66.6c-13.6 17.9-25 40.6-33.5 66.6h-48.5c20.4-29.2 48.8-52.4 82-66.6z m-98.6 95.1h57.3c-4.7 20.8-7.6 43.2-8.4 66.6h-66.3c1.8-23.6 7.8-46.1 17.4-66.6z m48.9 95.2c0.8 23.3 3.7 45.7 8.4 66.5h-57.3c-9.6-20.4-15.6-42.9-17.4-66.5h66.3z m-32.3 95.1h48.5c8.5 26 19.9 48.6 33.5 66.5-33.2-14.1-61.6-37.3-82-66.5z m231 66.5c13.5-17.9 24.9-40.5 33.4-66.5h48.6c-20.5 29.2-48.8 52.4-82 66.5z m98.5-95.1h-57.3c4.7-20.8 7.6-43.2 8.5-66.5h66.3c-1.8 23.6-7.9 46.1-17.5 66.5z" /></svg>