<svg height="512" width="512.0" xmlns="http://www.w3.org/2000/svg"><path d="m317.4 236.5c-4.5 4.5-2.2 11.5 7.5 21.2 9.8 9.8 16.8 12 21.4 7.5 4.5-4.5 2.2-11.5-7.5-21.2-9.8-9.8-16.8-12-21.4-7.5z m141.9 44.4c0 0-125.2-124.8-166.2-165.6-11.6-11.6-24.4-24.2-40.2-25-36.6-2-65.9-3.6-107-7.5-1.5-2.1-3.2-4.2-5.2-6.2-1.5-1.5-3.2-3-5-4.3-10.7-8.1-28.7-2-39.3 9.7-10.8 12-11.5 26.2-4.2 34 0.5 0.5 1 1 1.5 1.5 2.8 2.8 5.7 5.2 8.8 7.2 0 0.1 0 0.2 0 0.3 2.2 32 4.9 68.7 8 107.8 1.2 15.5 13.4 28.1 24.9 39.6 46.1 45.9 166.3 165.5 166.3 165.5 7.5 7.5 19.9 7.3 27.6-0.4l129.6-129.1c7.8-7.7 8-20 0.5-27.5z m-274.6-116.4c-8.7 8.7-22.8 8.9-31.3 0.3-4.5-4.5-6.6-10.5-6.3-16.5l-30.4-29.4c-4-4.1-7.8-7.2-11.3-9.7-0.6 1.5-1.2 3.1-1.6 4.7-1.6-1.3-3.2-2.8-4.7-4.4-4.2-4.4 0.1-13.3 5.9-19.6 7.5-8.3 19.2-14.5 25-10.1 1.4 1.1 2.8 2.3 4 3.5 0.1 0.1 0.2 0.1 0.2 0.2-1.9 0.5-3.7 1.1-5.4 1.8 3.7 2.7 7.1 5.7 10.2 8.7l32 31.9c0.3 0.3 0.6 0.8 0.9 1.2 4.8 0.5 9.5 2.6 13.2 6.2 8.5 8.5 8.3 22.5-0.4 31.2z m75.7 142.2c-14.3 14.2-33.2 10.2-48.8-5.4-15.6-15.5-19.6-34.2-5.3-48.5s33-10.1 48.6 5.4c15.6 15.6 19.8 34.2 5.5 48.5z m41.5 21.4l-54.1-117.1 15.7-8.3 54 117.2-15.6 8.2z m57.2-50.1c-14.3 14.3-33.1 10.2-48.7-5.3s-19.6-34.3-5.3-48.5c14.3-14.3 33.1-10.3 48.7 5.3s19.6 34.3 5.3 48.5z m-140.4-12.9c-4.6 4.6-2.3 11.5 7.5 21.3 9.7 9.7 16.8 12 21.3 7.4 4.5-4.5 2.1-11.3-7.6-21.1-9.8-9.7-16.7-12.1-21.2-7.6z m-138.5-156.6c-1.1-8.7 1.1-19.9 7.2-28.1-17.3 3.3-32.2 23.5-35.2 77.4-2.7 47.8-20 245.7 50.9 245.7 51.3 0 13.3-115.3-10.5-160-17.3-32.4-26.4-106.2-12.4-135z m22 286.3c-46.8 0-53.9-158.8-34.4-289.7 0.1-1 0.2-1.5 0.2-1.5-0.1 0.5-0.2 1-0.2 1.5-1.6 11.2-10.7 85 16.9 141.9 19 39.3 57.9 147.8 17.5 147.8z m30.4-294.5c-4.1-4.1-8.8-8-13.9-11.4-1.9 1.6-3.8 3.5-5.8 5.7-1.8 2-3.4 4-4.7 6 4.4 2.6 9.4 6.5 14.8 11.9l35.9 34.9c3.9 3.9 8.4 5.6 12.3 1.8 3.8-3.9 2.1-8.4-1.8-12.3l-36.8-36.6z" /></svg>