<svg height="512" width="512.0" xmlns="http://www.w3.org/2000/svg"><path d="m345.3 210.1l-22.6-17.6c-3.8-2.8-9.2-2.1-12 1.6l-89 116.4-27.1-23.3c-3.5-3.1-8.9-2.7-12 0.8l-16.4 18.5c-3.1 3.5-2.8 8.8 0.8 11.8l54.5 47.4c3.6 3 8.9 2.7 12-0.8l113.5-143.1c2.8-3.7 2.1-8.9-1.7-11.7z m71.5-111.6h-60.4v-1.8c0-15.4-16.5-30.7-46.9-30.7h-15.1c0.2-1.9 0.5-4.2 0.5-6.2 0-21.1-16.9-38.2-37.9-38.2-20.9 0-37.9 17.1-37.9 38.2 0 2 0.3 4.3 0.6 6.2h-14.9c-31.2 0-48.6 15.6-48.6 30.7v1.8h-60.3c-9.2 0-16.6 7.2-16.6 16.1v360.3c0 8.7 7.4 15.9 16.6 15.9h320.9c9.1 0 16.6-7.2 16.6-15.9v-360.3c0-8.9-7.5-16.1-16.6-16.1z m-159.5-58.4c10.5 0 19 8.6 19 19.2s-8.5 19.3-19 19.3c-10.6 0-19.1-8.6-19.1-19.3s8.5-19.2 19.1-19.2z m129.8 387.7c0 9.3-7.4 16.9-16.5 16.9h-228.6c-9 0-16.4-7.6-16.4-16.9v-289.3c0-9.4 7.4-17 16.4-17h14.2v4.1c0 10.5 8.5 19.1 18.9 19.1h162.4c10.5 0 18.9-8.6 18.9-19.1v-4.1h14.2c9.1 0 16.5 7.6 16.5 17v289.3z" /></svg>