<svg height="512" width="512.0" xmlns="http://www.w3.org/2000/svg"><path d="m391.5 492.1h-270.9c-25.1 0-46.1-20.4-46.1-45.5v-203.1c0-25.1 19.6-45.5 44.7-45.5h16.9v-45.6c0-74.5 38.5-131.9 120.1-132.1 80.7 0 119.9 56.1 119.9 132.1v45.6h16.8c25.1 0 44.7 20.4 44.7 45.5v203.1c0 25.1-21 45.5-46.1 45.5z m-91-68.3l-20.9-79.1c11.2-7.8 20.5-20.6 20.5-35.2 0-23.8-19.4-43.1-43.4-43.1s-44.2 19.3-44.2 43.1c0 14.6 9.4 27.4 20.6 35.2l-21.4 79.1h88.8z m27.7-271.2c0-65.9-28.3-86.8-71.9-86.8-46.1 0-74.2 23.2-74.2 86.8v45.4h146.1v-45.4z" /></svg>