<svg height="512" width="512.0" xmlns="http://www.w3.org/2000/svg"><path d="m388.7 199.4h-16.3v-44.5c0-74.2-37.9-129-115.9-129-78.8 0.3-116.1 56.3-116.1 129v44.5h-16.4c-24.2 0-43.2 19.9-43.2 44.4v198.2c0 24.5 20.4 44.4 44.6 44.4h261.9c24.2 0 44.5-19.9 44.5-44.4v-198.2c0-24.5-18.9-44.4-43.1-44.4z m-103 250.4h-58.7v-117h58.7v117z m-58.7-175.3c0-16.1 13.1-29.3 29.3-29.3 16.2 0 29.4 13.2 29.4 29.3 0 16.1-13.2 29.2-29.4 29.2-16.2 0-29.3-13.1-29.3-29.2z m99.1-75.1h-141.2v-44.4c0-62 27.1-84.7 71.7-84.7 42.1 0 69.5 20.5 69.5 84.7v44.4z" /></svg>