<svg height="512" width="512.0" xmlns="http://www.w3.org/2000/svg"><path d="m215.7 231l0.2 0.6 0.3 202.9 45.6-45.9c0 0 32.1 87.8 32.3 88.1 0.2 0.3 24-8.8 24-9-0.3-0.1-34.9-87.2-34.9-87.2l64.7 5.9-132.2-155.4z m233.3-195.6h-386.5c-19.8 0-35.8 15.9-35.8 35.5v27h458.1v-27c0-19.6-16-35.5-35.8-35.5z m-422.4 286c0 19.6 16.1 35.5 35.9 35.5h117.3l-0.2-144.2c-0.4-10.1 4.6-20 13.7-25.4 11.9-7 27.1-4.7 36 5.8l130.1 152.9c3.2 3 5.6 6.7 7.2 10.9h82.4c19.8 0 35.8-15.9 35.8-35.5l0-173.7h-458.2l0 173.7z" /></svg>