<svg height="512" width="512.0" xmlns="http://www.w3.org/2000/svg"><path d="m187.1 130.6c25.1 19.5 17.7 36.1 22.4 36.1h97.2c0 0 22.5-40.8 42.8-77.8 20.4-37 0.7-27.6-23.1-5.4-23.7 22.2-23.7 7.4-20.4-25.6 3.4-33-28.5-4-46.2 18.9-17.7 22.8-19 7.4-23.1-37.1-4.1-44.4-14.3 3.4-16.3 37.7-2 34.4-15.6 19.6-33.3 8.8-17.7-10.8-50.3-35-59.1-25.6-8.9 9.4 34 50.5 59.1 70z m229.1 200c-14.3-109-100.4-137.9-109.7-137.9-11.1 0-87.7 0.1-96.9 0.1-8.9 0-111.3 50.8-115.4 164.5-4.1 116.6 66.8 134.2 165.3 134.2 92.9 0 171.5-47.6 156.7-160.9z m-154.4 73.9v14.1h-11.6v-14.1c-15.5-0.9-29.2-7.8-29.2-28.8v-7.3h24.1v3.7c0 8.3 2.2 14.5 10.7 14.5 8.8 0 11.4-6.7 11.4-12.6 0-24-45.8-10.7-45.8-52.3 0-16.8 7.8-30.8 28.8-32.7v-11.8h11.6v11.8c20.8 1.8 28.4 14.3 28.4 30.3v2.7h-24.1c0-4.8-0.6-8.8-2.1-11.4-1.5-2.5-3.9-3.7-7.6-3.7-6.2 0-10 3.7-10 11.4 0 23.4 45.8 11.7 45.8 50.9 0 23.3-11.2 33.7-30.4 35.3z" /></svg>