<svg height="512" width="512.0" xmlns="http://www.w3.org/2000/svg"><path d="m356.7 300c-47.2-23.2-87.5-37.8-113.5-135.6 28.5-107.9 2.5-139.8-17.1-138.7-25.5 1.3-32.2 53.1-5.3 135.5 0 0-25.6 127.5-86.1 196.6 0 0-157.8 78.4-104 127.5 0 0 60 15.2 133.2-121.4 36.5-17.9 138.1-31.4 179.8-36.3 79.1 49 147.3 31.1 150 12.9 4-27.1-7-43.6-137-40.5z m-269.3 134.8c-20.3 21.9-40.7 36.1-45.5 31.8s7.6-25.8 27.9-47.7c20.3-21.9 40.6-36.2 45.5-31.8 4.8 4.4-7.7 25.7-27.9 47.7z m134.6-352c0.4-22.5 4.9-40.7 10.2-40.6 5.3 0.1 9.3 18.4 9 40.9-0.4 22.4-5 40.6-10.2 40.5-5.3-0.1-9.3-18.3-9-40.8z m-49.4 264.4c9.1-18.3 38.6-78.8 48.2-102.3 12.2-28.8 9.5-37.8 9.5-37.8s40.2 71 89.6 103.9c-75.2 6.6-127.9 27.4-147.3 36.2z m303.5-12.1c-0.6 5.2-19.5 7-42.1 4.1-22.5-3-40.2-9.5-39.5-14.7 0.6-5.2 19.5-7 42.1-4.1 22.5 3 40.2 9.6 39.5 14.7z" /></svg>