<svg height="512" width="512.0" xmlns="http://www.w3.org/2000/svg"><path d="m130.3 309.7h251.1c9.5 0 16.6-10.8 11-21.5-1.8-3.5-22-34.5-45.7-70.7h-181.9c-23.2 35.5-42.9 66.2-45.5 71.2-4.6 9.1 0.5 21 11 21z m292.9 86.2c-1.6-3.1-21.2-33-45.9-70.8h-243c-24.3 37.1-43.5 66.8-45.7 71.2-4.6 9.1 0.5 21.1 11 21.1h117.9v53.8c0 8.5 6.9 15.4 15.4 15.4h46.1c8.5 0 15.4-6.9 15.4-15.4v-53.8h117.7c9.5 0 16.6-10.8 11.1-21.5z m-264.7-193.8h194.7c7.6 0 13.3-8.6 8.8-17-3.5-6.8-91-142.4-97.1-154-4.1-7.6-13.7-7.5-17.8 0-4.5 8.3-92.3 144.5-97.4 154.3-3.6 7.2 0.4 16.7 8.8 16.7z" /></svg>