<svg height="512" width="512.0" xmlns="http://www.w3.org/2000/svg"><path d="m437.1 102.9h-20.9v-7.1c0-4-3.2-7.3-7.3-7.3h-43.8c-4 0-7.2 3.3-7.2 7.3v7.1h-29.3l0-18.3v0c0-14.1-11.5-25.5-25.6-25.5h-94.7c-6.7 0-12.7 2.6-17.3 6.8-0.2 0.2-0.5 0.4-0.8 0.6-0.1 0.2-0.1 0.3-0.3 0.4-4.4 4.6-7.2 10.8-7.2 17.7v0l0 18.3h-29.2v-7.1c0-4-3.2-7.3-7.3-7.3h-43.8c-4 0-7.3 3.3-7.3 7.3v7.1h-20.8c-24.6 0-44.5 20-44.5 44.6v260.9c0 24.6 19.9 44.6 44.5 44.6h362.8c24.6 0 44.6-20 44.6-44.6v-260.9c0-24.6-20-44.6-44.6-44.6z m-225.1-15h87.5v15h-87.5v-15z" /></svg>