<svg height="512" width="512.0" xmlns="http://www.w3.org/2000/svg"><path d="m462.3 211.6h-40.3c-4.2-17.1-10.7-33.2-19.1-47.9l28.4-29.8c4.3-4.6 4.3-12 0-16.5l-44.4-46.6c-4.3-4.5-11.3-4.5-15.7 0l-28.7 30.2c-14-8.6-29.2-15.2-45.3-19.3v-42.1c0-6.4-5-11.7-11.1-11.7h-62.8c-6.1 0-11 5.3-11 11.7v42.8c-15.8 4.3-30.7 11-44.4 19.6l-28.4-29.8c-4.3-4.6-11.3-4.6-15.7 0l-44.3 46.6c-4.4 4.5-4.4 11.9 0 16.4l28.7 30.2c-7.9 14.3-14.1 29.8-18.1 46.2h-40.4c-6.1 0-11.1 5.2-11.1 11.6v65.9c0 6.4 5 11.7 11.1 11.7h40.4c4 16.4 10.2 31.9 18.1 46.1l-28.8 30.3c-4.3 4.5-4.3 11.9 0 16.4l44.4 46.6c4.3 4.5 11.4 4.5 15.7 0l28.4-29.8c13.7 8.6 28.6 15.3 44.4 19.6v42.8c0 6.4 4.9 11.6 11 11.6h62.8c6.1 0 11.1-5.2 11.1-11.6v-42.1c16.1-4.2 31.3-10.7 45.3-19.3l28.1 29.5c4.3 4.5 11.3 4.5 15.7 0l44.3-46.6c4.4-4.6 4.4-11.9 0-16.5l-27.7-29.1c8.4-14.7 14.9-30.8 19.1-47.9h40.3c6.2 0 11.1-5.3 11.1-11.7v-65.9c0-6.4-4.9-11.6-11.1-11.6z m-206.3 171.4c-72.1 0-130.5-58.4-130.5-130.5 0-72.1 58.4-130.5 130.5-130.5 72 0 130.4 58.4 130.4 130.5 0 72.1-58.4 130.5-130.4 130.5z m0.1-246.4c-64 0-116 51.9-116 115.9 0 64 52 115.9 116 115.9 64 0 115.9-51.9 115.9-115.9 0-64-51.9-115.9-115.9-115.9z m32.5 30.1c1.2 0.4 1.6-0.4 2.4-0.1 0.7 0.3 1.3-0.1 2.2-0.4 0.9-0.4 2.1-0.2 4.1 0 0 0 1.6 0.7 0.3 0.7-1.2 0-2.8 0.2-1.4 0.7 1.3 0.4-2.9 0.1-3.5 0-0.7-0.2-1.8 0.6-2.7 0.8s-0.8-0.9-2.4-0.8-0.1-1.3 1-0.9z m-12 8.7c0.1-0.7 1.4-0.6 2.3-1 0 0-0.7 1.4-0.1 1.4 0.6 0 1.6-0.2 1.8 0.3 0.3 0.5-0.7 1.3 0 1.4 0.8 0.1 2.1 1.8 2.1 1.8 0.4 1 0.2 1.1 0.7 1.4 0.5 0.3 1.7 0 1.3 0.5-0.4 0.5-0.8 1.4-1.6 1.6-0.8 0.3-2.3 0.5-3.4 0.5-1.1 0-1.8-0.3-0.6-0.9 1.3-0.5 0.1-0.6-1-0.5-1.1 0.1-0.4-0.5 0-1.2 0.4-0.8 1.1-0.5 1.6-1.4s-1.9 0-1.9-0.6-0.1-1.2-0.7-1.2c-0.6 0-0.6-1.4-0.5-2.1z m-4.6 2.9c0 0 1.2 0.9 1.8 0.5 0.6-0.4 0.2-1 0.9-1.2 0.8-0.2 1.1-0.1 1.7 0.7 0.6 0.8-0.3 0.9-0.6 1.8-0.3 0.9-1.2 1.3-2 1.7-0.8 0.4-2.8-0.5-2.3-0.9 0.5-0.4 1.6-0.5 0.5-1.1-1.1-0.5-1.6-1.1 0-1.5z m-52.3-10c1.1 0.3 4.8 0.6 3.7-0.2-1.1-0.9-1.7-1.1 1.5-1.4 3.3-0.3 6.6-0.5 9.4-0.5 2.7 0 3.6 1.4-1.3 1.9-4.9 0.6-5 1.5-6.5 2-1.6 0.5-3.1 0.2-4.9 0-1.9-0.2-1.6-0.7-1.1-0.8 0.6-0.1-4-1-4-1 1.4-0.5 2.2-0.2 3.2 0z m12.7 129.6c0.9 2.8-0.9 5.6-2 7.4-1.1 1.9-4.3 3.9-5.4 5.8-1 1.9 0.7 3.7 0 6.2-0.6 2.5-1.2 7-2.3 7.9-1 1-8.1 1.1-4.7 1.7 3.4 0.7 3.1 3.5 2.4 5-0.6 1.6-3.2 0.5-4.1 2.2-0.9 1.7 0.9 3.3-1.4 3.1-2.3-0.2-0.9 2.6 0.7 2.3 1.6-0.3 2.5 0.3 1.3 0.2-1.3-0.2-0.9 1.5-0.8 2.9 0.2 1.4-1 2.5-1 2.5 2.3 2.7 2.3 3.3 0.4 2.8-1.8-0.4-5.8-2.8-9.2-5.4-3.3-2.7-2.9-2.2-2.9-4.2 0-2-1.8-3.3-2.4-6.7-0.6-3.4-2.5-6.1-2.6-8.1-0.2-2-0.2-5.3-1-9-0.7-3.7-2.9-8.5-5-9.5-2.2-0.9-6.5-2.6-10.3-7.1-3.8-4.5-7.2-7.3-7.4-8.7-0.1-1.4-0.3-3.4-1.8-4.8-1.6-1.4-0.6-6.2 1.1-8 1.7-1.7 0.7-6 0-7.7s-1.9-2.5-2.6-4.8c-0.8-2.4-2.6-2.7-3.9-1.4-1.2 1.2-2.1 0.7-2.4-1.1-0.3-1.9-0.2-5-0.2-6.6 0-1.5-1.7 1.3-1.5 0 0.1-1.2 0.9-4 0.9-5.1 0-1.1 0.3-2.3-0.8-3.4-1-1.1-2.7-2.8-2.9-4.5-0.1-1.7-0.9-2.7-2-2.3-1 0.3-1.2 0.7-1 0 0.1-0.8-0.7-2.4-1.1-3.2-0.5-0.7-0.5-2.7 1.7-10.1 2.1-7.3 10.7-23.9 10.7-23.9 6.1-10.7 17.5-21.6 20.6-23.9 0 0 1.7-1.6 2.9-1.4 1.2 0.1 2.3-0.6 2.9-1.7 0.5-1.1 3.4-1 4.7-0.5 1.4 0.5 3.9 0.8 3.9-0.3 0-1.1 2.9-0.3 4.4-0.8 1.6-0.4 1.9-1.8 2.6-3.1 0.8-1.2 6.3 0 8 1 1.7 0.9 5.4 0.4 5.2 1.5-0.1 1.1 4.3 2 4 3-0.3 0.9-2.3 0.6-2.6 1.4-0.3 0.7-0.1 2.6-1.8 2.8-1.7 0.1 2.6-1.9-2.8-1.6-5.4 0.3-5.2-0.8-2.6-0.9 2.6-0.2 2.9-0.8 2.1-2.4-0.7-1.5-3.2-0.1-4.4 0s-2.8 1.4-3.7 2.9-4.7 0.7-6.6 0.1c-1.8-0.6-3.5 1.4-7.8 3.3-4.3 1.8 0.6 2.4 2.5 3.4 1.8 0.9 1.2 2.6 2.1 3.2 0.9 0.7 2.3-0.3 2.8-2.4 0.4-2.2 2-0.2 3.3-1.9 1.4-1.7 1-2.5 1.9-3.1 0.9-0.6 1.8-1.1 2.7-0.3 1 0.7 4 1.7 6.8 1.1 2.8-0.7 3.4 2 5.7 3.5 2.3 1.6 1.7 1.4 0.9 2.7-0.8 1.2-2.8 1.5-7.5 1.5s-5.2 3-3.4 2.2c1.8-0.8 3.4 0.8 6.4 2.6 3.1 1.9-0.4 1.8-1.6 2.4-1.3 0.6-3.7-0.2-3.7-1.1 0-1-2.8 1.4-4.6 1.7-1.9 0.3-3.6-0.9-3.9 1.2-0.3 2.2-1.3 1.6-4.1 2.7-2.8 1.1-1.4-1-3.5 2.6-2.2 3.6-1.9 0-1.9 0s-2 3.7-3.5 5.6c-1.6 1.9-7.8 3.9-9.1 6.1-1.2 2.1-1 6-2.7 8.2-1.7 2.2-2-0.9-1.7-2.5 0.3-1.5 1.4-3.1 1.2-4.6-0.1-1.6-3-1-4.7-1s-1.6 1.6-3.3 1.1c-1.6-0.5-1.9-1.1-5 0.9-3.1 2.1-5.8 7.7-7.7 11.4-1.8 3.7-0.9 6.2 1.1 6.5 2 0.3 3.2-3.1 4.1-5.3 0.9-2.1 5.6-0.7 4.2 1.4-1.4 2.2-3.1 4.7-4.3 6.2-1.2 1.6-0.6 3.6 1.8 4.2 2.5 0.7 0.5 4.6-1.1 6.9-1.5 2.3-1.2 6.8-1.2 8.7 0 1.8 1.1 0.9 3.2-0.3 2.2-1.3 1.6 3.2 2 5.3 0.5 2 2 3.1 2 3.1s1.4-2.2 2.3-3.3c0.9-1.1 2.3-0.9 4.2-2.3 1.8-1.4 0 3.1 1.2 4.3s0.9-2.9 0.6-3.6c-0.3-0.6 1.5-0.4 2.8 0 1.2 0.5 4.6 1.4 6.4 0.8 1.8-0.6 4.1 1.3 6.1 2.4 2 1 5.4 4.3 8.3 4 2.9-0.3 4.9 2.2 6.5 3.4 1.5 1.3-0.3 5.6 0.7 7.2 1.1 1.5 3.1-1.1 4.6-2.5 1.6-1.4 2.8 2.5 4 2.3 1.3-0.1 4.6-0.3 6.5 0.5 1.8 0.7 5.8 1.8 6 3.9 0.1 2-0.7 4.6-2.5 6.8-1.8 2.2-0.3 5.6 0.6 8.4z m-54.4-66.6c-1.1 0.1-1.2 0.3-2.3 0.4-1.2 0.1-1.2-0.8-1.2-0.8 1.2-1 3.8-3.6 6.6-0.7 2.7 2.9 3.1 5.4 4 5.7 0.8 0.3 0.2 1.8-0.7 2.3-0.8 0.4-2.8-0.2-3.1-0.8 0 0-1.4-0.8-1.3-3 0.1-2.1-0.9-3.2-2-3.1z m5.4 10.1c0.1-0.5 1.8-0.7 2.7-0.6 0.9 0.1 0.6-1.7 0.9-2.5 0 0-0.1-0.5 0.2-1 0.3-0.4 2.1 0.1 3.3 1s1.6 1.8 1.7 2.8c0.1 0.9-0.6 1.9-1.4 1.7-0.8-0.2-2 0.5-3.2 1-1.2 0.4-1.9-1.9-2.7-2.4-0.9-0.5-1.6 0.5-1.5 0z m66.2-66.5c-1.4-0.5-6.2 1.6-6.2 1.6-3.8 0.5-3.6 3.9-8 2.5-2.1-0.6-1.7-3-0.4-3.8 1.2-0.8-0.6-2.4-1.9-3.3-1.2-1-3.9-0.9-2.9-1.5 0 0 0-1.1 1.3-1.3 1.3-0.2 6.1-1.4 9.7-2.2s8.7-0.6 12.1-0.7c3.3-0.1 1.3 0.9 1.3 0.9h7.5c0 0-5.4 1.5-6.6 1.2-1.2-0.3 0.5 1.9 0 2.8-0.5 1-1.8 1.1-3.6 2.5s-0.9 1.7-2.3 1.3z m103.6 72.5c-0.2 2.1-1.1 7.4-3.9 11.8-2.8 4.3-4.7 6.8-7.2 8.9-2.4 2.1-4.2 5.4-4.4 6s-0.9 3.1-1.8 4c-0.9 0.8-0.3 3.8-0.1 5.2 0.5 3.5 1.7 4 1.9 5.6 0.2 1.7-1.3 2.1-0.8 5.6s-0.2 5.9-2.5 7.3c-2.4 1.3-3.9 2.4-4 3.3-0.2 1.3-1.9 1.5-2.1 2.3-0.2 0.7 1.2 3.8 1.3 5.8 0.1 1.9-2.2 3.1-3.1 4.1-0.9 1-1.1 3.3-1.3 4.3-0.2 0.9-2.5 2.8-2.8 4.1-0.3 1.3-2.5 5.4-3.9 6.3-1.4 1-3.1 1.3-3.6 2-0.5 0.7-3-0.3-4.1 0.3-1 0.6-2.9 1.2-4 0.9-1.2-0.3-1.7-0.9-2.2-3.3-0.5-2.4-3.4-6.5-4.6-10.2-1.2-3.8 0.2-4.9-1.7-9.4-2-4.4-4.9-10.1-2.5-15.1 2.5-5 2.7-6.8 0.6-13.2-2-6.5-4.4-7.8-4.9-10.2-0.5-2.4-0.1-5.3 0.3-8.3 0.4-3-2.4-4.2-3.6-4.2s-2.9-1.1-3.6-2.8c-0.8-1.8-3-1-4.1-0.3-1.2 0.6-4.5 3.4-6.1 3.2-1.5-0.2-3.6-1.4-6.1-0.3s-4.8 0-6.7-2.7c-2-2.7-4.6-8.3-6.1-9.7-1.5-1.3-1.8-3.9-2-4.7-0.2-0.9 0.7-3.6 1.2-4.6 0.5-1 0.8-2.5 0.8-2.5-0.6-3-1.4-7-0.6-8.9s2.2-4.5 3-6.2c0.8-1.7 2.5-3.7 4.1-4.5 1.5-0.7 3.1-3 3.5-5 0.4-2.1 3.4-6.7 4.4-7.4 1.1-0.8 1.7-1.5 3.6-1.5 2 0 3.1-0.8 7.1-2.1 4-1.3 6.3-1.4 7.3-1.1 1.1 0.4 3.4-0.6 4-0.7 0.6-0.1 0.9 0.4 1.7 0.7 0.7 0.4 0.9 0.4 0.4 1.7-0.5 1.2-0.5 3.8 1.1 4.5 1.6 0.6 4.2 0.4 5.4 1.7 1.2 1.4 5.8 4.1 6 2.2s-0.1-4.1 4.2-2.7c0 0 3.4 2 6 2.3 2.5 0.3 5.1-0.8 6.2-0.8 1.1 0 1.8 0.5 2.8 0.5 0.9 0 1.2 0.3 1.4 1.3s0.4 2.4 0.3 3.4c-0.1 1.1-0.4 1.4-1.1 0.1-0.7-1.2-3.1-4.2-1.7-1.1 1.5 3.1 3.4 6.9 4 8.1 0.6 1.1 1.4 4 2.1 4.6 0.7 0.7 1.2 3.9 1.4 5.1 0.2 1.3 2 2.3 3 5.8 1 3.5 4.3 4.9 5.3 6.3 1 1.5 1.3 5.9 4.6 5.1 3.3-0.8 5.8-2.2 6.5-2.4 0.8-0.2 1.9-0.6 1.7 1.5z m-52.7-46.9c0.6 0.1 2-0.6 2.5 0 0.5 0.5 0.4 0.9 0.4 1.5 0 0.6-0.7 0.5-1.5 0-0.7-0.5-1.4-1.5-1.4-1.5z m49.8 17.7c-1-0.3-5.9-3.2-2.8 1 3 4.3 3.4 4.7 3.6 3.9 0.2-0.7 1-0.1 1.2 1.3 0.2 1.3 2.6 8.1 2.9 10.8 0.3 2.7 0.9 3.8 0.5 4.2s-3.4 2-4.9 2.5c-1.4 0.5-3.9 0.5-5.1-2-1.2-2.5-5.2-8.6-6.6-10.4-1.5-1.9-1.9-4.3-3.4-5.8-1.5-1.6-4.7-3.9-5.4-6-0.7-2.2-1.9-4.6-1.7-7.8 0.2-3.2 1.5-5.3-1.6-5-3.1 0.2-7.2-0.1-8.6-1.3-1.4-1.3-4.1-4.1-2.8-4.5 1.2-0.4 3.4-1.5 0.4-1.6-3.1-0.1-4.2 0.6-3.7 1.3 0.5 0.7 1.4 2.3 1.8 2.6 0.4 0.3-0.1 1.5-0.6 0.9-0.5-0.6 0.4 1.5-0.6 1-1-0.6-1.4-2.1-2.5-3-1-1-1.9-3.2-2.5-4.4-0.6-1.2-2.1-2-4.6-3.4-2.6-1.5-5.5-2.9-4.6-1.1 0.9 1.9 2 2.9 3.5 3.7 1.4 0.7 2 1.2 2.9 1.4 0.9 0.2 1.3 0.8 1.7 1.3 0.3 0.5-0.9 0.3-1.4 0.1-0.5-0.2-0.1-0.1-0.1 0.6 0 0.7-0.2 1.2-0.7 1.8-0.5 0.5 0-1.1-1.5-1.9-1.6-0.8-2.9-2.9-4.6-3.7-1.8-0.9-2.2-2.8-3.7-3.1-1.5-0.4-2 0.7-3.1 0.8-1.1 0.1-3-1.1-3.7-0.5-0.6 0.5 0.2 1.6-0.4 2.1-0.6 0.6-2.9 1.2-3.9 1.9-0.9 0.7-0.2 2 0.6 1.9 0.7-0.1 0.8 0.1-0.7 0.8-1.4 0.7-2.6 0.4-4.2 1.5-1.7 1.2-2.2 1.1-2.8 0.2-0.6-1-1.6-1.1-2.4-1.1-0.7 0-2.2-1.1-1.6-2.8 0.6-1.6 0.3-3.1 0.3-3.7s1.3-1.9 1.3-1.9c1.9 0 5.1 1.2 6.4 0.8 1.4-0.5 2.3-1.5 2.1-2.4-0.2-1-1.4-2.4-2.5-2.8-1.2-0.4-2.1-1.3-0.1-1.3 1.9 0 1-0.9 3.6-1.2 0 0 1.3-0.5 2.3-0.6 1-0.1 1.5-1.4 2.7-2 1.1-0.6 1.6-0.7 2.7-0.5 1.1 0.2 1.7 0 1.4-1.1-0.2-1.1-0.7-2.6 0.7-2.2 1.3 0.4 1 1.8 1.8 2.2 0.8 0.4 2.4 1 3.2 1.1 0.8 0.1 2.1 0.2 2.9-0.1 0.9-0.3 1.7 0 2.4 0.1 0.7 0.1 1.5 0 1.7-1.1 0.2-1.1 1.5-1.7 2.5-1.6 1 0.1 1.3-0.1 0.6-0.7-0.7-0.6-0.3-1.3 1.1-1.1 1.5 0.2 1.5 0.1 2.5 0 1-0.1 2.2-0.6-0.7-0.9-3-0.3-2.7 0.4-4 0-1.4-0.4-2.5-1.1-2.5-1.9 0-0.7-0.3-1 0.9-1.4 1.3-0.4 3-2.4-0.1-1.4-3 1.1-2.3 1.6-3.3 1.6-1.1 0-3.1 1.3-1.8 2.1 1.4 0.7 1.3 1.8 0.3 1.9-0.9 0.1-1 1.6-0.3 1.7 0.7 0.1 0.9 0.4-0.4 0.8-1.3 0.4-3 0.6-4.1-1.3-1.1-1.9-2.2-2.5-3.7-2.1s-3.2 0.5-3.5-0.6c-0.3-1.2-1-2.6 1.6-3 2.6-0.4 4.9-2.2 6.6-2.9 1.8-0.8 6-0.8 6.9-1.1 0.9-0.3 1.6-0.4 2.2 0 0.7 0.4 4.2 1.5 5.1 1.9 0.8 0.4 6.8 4.3 13.3 10.9 6.4 6.5 13.8 14.1 18.4 22.8 4.6 8.7 8.2 15.1 7.2 14.8z" /></svg>