<svg height="512" width="512.0" xmlns="http://www.w3.org/2000/svg"><path d="m425.9 366.3l-27.5-27.4c8.4-13.7 14.6-28.3 18.7-43.3l39.8-0.7c6-0.1 11-5 11.1-11l1.1-61.3c0.1-6-4.7-10.7-10.6-10.6l-39.4 0.7c-3.5-15.1-9.1-29.6-16.9-43.3l28.7-28.6c4.3-4.3 4.4-11.2 0.3-15.3l-42.7-42.6c-4.1-4.2-11-4.1-15.3 0.3l-28.3 28.1c-13.7-8.1-28.5-14-43.7-17.7l0.7-39.8c0.1-5.9-4.7-10.7-10.7-10.6l-61.4 1.1c-6 0.1-10.9 5.1-11 11l-0.8 39.3c-15.6 4.1-30.8 10.5-45.1 19.1l-27.4-27.4c-4.2-4.1-11.1-4-15.4 0.3l-44.2 44.2c-4.3 4.3-4.4 11.1-0.3 15.3l27.5 27.4c-8.7 14.2-15.1 29.4-19.2 45l-38.5 0.7c-6 0.1-10.9 5.1-11 11l-1.1 61.4c-0.1 5.9 4.6 10.7 10.6 10.6l38.9-0.7c3.8 15.2 9.7 30 17.8 43.7l-28.2 28.2c-4.3 4.3-4.4 11.1-0.3 15.3l42.7 42.6c4.1 4.1 11 4 15.3-0.3l28.7-28.7c13.7 7.8 28.3 13.4 43.4 16.9l-0.8 39.3c-0.1 6 4.7 10.8 10.7 10.7l61.4-1.2c6-0.1 11-5 11.1-11l0.7-39.8c15-4.1 29.6-10.3 43.3-18.6l27.4 27.4c4.2 4.2 11.1 4 15.4-0.3l44.2-44.1c4.3-4.3 4.5-11.2 0.3-15.3z m-228.8-51.6c-31.3-31.2-30.3-82.7 2.1-115 32.4-32.4 84-33.3 115.2-2.1 31.3 31.2 30.4 82.7-2.1 115.1-32.4 32.3-84 33.2-115.2 2z" /></svg>