<svg height="512" width="512.0" xmlns="http://www.w3.org/2000/svg"><path d="m462.9 193.5c-23.3-13.8-42.8-46.9-43.3-73.7-0.4-26.7-22.8-45.2-49.7-41-26.9 4.2-63.5-8.9-81.4-29.1-17.9-20.2-47.1-20.2-64.9 0-17.9 20.2-54.5 33.3-81.4 29.1-26.9-4.2-49.3 14.3-49.8 41-0.4 26.8-19.9 59.9-43.2 73.7-23.4 13.8-28.5 42-11.3 62.8 17.1 20.8 23.9 58.5 15 83.8-8.9 25.3 5.7 50.1 32.5 55.2 26.7 5.1 56.6 29.7 66.3 54.7 9.8 25 37.2 34.8 61 21.8 23.8-12.9 62.8-12.9 86.6 0 23.8 13 51.3 3.2 61.1-21.8 9.7-25 39.5-49.6 66.3-54.7 26.7-5.1 41.3-29.9 32.5-55.2-8.9-25.3-2.1-63 15-83.8 17.1-20.8 12.1-49-11.3-62.8z m-206.9 226.3c-88.7 0-160.7-71.1-160.7-158.8s72-158.9 160.7-158.9 160.7 71.1 160.7 158.9-72 158.8-160.7 158.8z m0-270.9l-28.5 82-85.6 2.2 67.9 52.9-24.3 83.4 70.5-49.3 70.6 49.3-24.4-83.4 68-52.9-85.7-2.2-28.5-82z" /></svg>