<svg height="512" width="512.0" xmlns="http://www.w3.org/2000/svg"><path d="m477.6 87.7c-3.8-3.6-9-5.8-14.7-5.6l-125 4.3c-11 0.3-20 9.6-20.3 20.6l-0.6 25.3c-0.2 11.1 8.4 19.9 19.4 19.6l19.1-0.4-96 95.2-45.5-45.1c-4.2-4.1-10.9-4.1-15.1 0l-45.4 45c-0.2 0.3-0.5 0.6-0.7 0.8l-120.4 119.4c-4.2 4.2-4.2 10.9 0 15l45.3 45.1c4.2 4.1 11 4.1 15.2-0.1l113.6-112.6 45.5 45.1c4.2 4.2 11 4.2 15.2 0l45.3-45c0.5-0.4 0.9-0.9 1.3-1.4l99.3-98.5-0.3 15.2c-0.3 11.3 8.7 20.4 20.1 20.4l26.2 0c11.5 0 21.1-9.3 21.4-20.7l2.9-127.2c0.1-5.7-2.1-10.8-5.8-14.4z" /></svg>