<svg height="512" width="512.0" xmlns="http://www.w3.org/2000/svg"><path d="m485.8 341.3c0-7.1-19.5-13.6-51.9-18.7 0.3 20 0.5 46.9-12 46.9-7 0-89.8 8.8-165.5 8.8-75.7 0-158.5-8.8-165.6-8.8-12.5 0-12.3-27-12-47-32.4 5.2-51.9 11.7-51.9 18.8 0 0.8 0.5 1.6 0.9 2.4-0.5 1.6-0.9 3.2-0.9 5v74c0 8.2 6 18.9 14.8 22.2 0 0 107.8 22.2 214.6 22.2 107.8 0 214.7-22.2 214.7-22.2 10.1-3.9 14.8-14 14.8-22.2v-74c0-1.8-0.4-3.4-1-5 0.5-0.8 1-1.6 1-2.4z m-373.8 6.8c6.4 0 75.3 8 144.4 8 69.1 0 137.9-8 144.4-8 13.2 0 10.8-26.3 10.8-44.2 0-33.9-48.7-40.8-92.6-54.4-26.3-8.1-31.9-24.3-31.9-41.2 0-16.8 9-21.9 16.2-32.2 7.2-10.2 7.3-50.2 7.3-50.2 0-54.4-13.9-80.6-54.2-80.6-40.3 0-54.1 26.2-54.1 80.6 0 0 0 40 7.2 50.2 7.2 10.3 16.2 15.4 16.2 32.2 0 16.9-5.5 33.1-31.9 41.2-43.9 13.6-92.7 20.5-92.7 54.4 0 17.9-2.4 44.2 10.9 44.2z" /></svg>