<svg height="512" width="512.0" xmlns="http://www.w3.org/2000/svg"><path d="m223.3 43.3c17.8-20.8 47-20.8 64.9 0 17.8 20.8 54.4 34.3 81.2 30 26.9-4.3 49.3 14.7 49.7 42.3 0.5 27.5 20 61.7 43.3 75.9 23.3 14.2 28.4 43.4 11.3 64.8-17.2 21.4-23.9 60.3-15.1 86.3 8.9 26.1-5.7 51.7-32.4 57-26.7 5.2-56.5 30.6-66.3 56.4-9.7 25.7-37.1 35.8-60.9 22.5-23.8-13.4-62.7-13.4-86.5 0s-51.2 3.2-61-22.5c-9.7-25.8-39.5-51.2-66.2-56.4-26.7-5.3-41.3-30.9-32.5-57 8.9-26 2.1-64.9-15-86.3-17.1-21.4-12.1-50.6 11.3-64.8 23.3-14.2 42.8-48.4 43.2-75.9 0.5-27.6 22.8-46.6 49.7-42.3 26.9 4.3 63.4-9.2 81.3-30z" /></svg>