<svg height="512" width="512.0" xmlns="http://www.w3.org/2000/svg"><path d="m235 40.8c11.4-22.8 30.1-22.8 41.5 0l23.4 47c11.4 22.9 40.8 37.4 65.4 32.2l50.5-10.5c24.6-5.1 36.2 9.9 25.9 33.2l-21.3 48.1c-10.3 23.3-3.1 55.9 16.1 72.3l39.6 33.9c19.2 16.5 15 35.1-9.3 41.3l-50 13c-24.2 6.3-44.6 32.4-45.2 58l-1.2 52.8c-0.6 25.6-17.4 33.9-37.3 18.4l-41.1-31.9c-19.9-15.5-52.6-15.5-72.5 0l-41.1 31.9c-19.9 15.5-36.7 7.2-37.3-18.4l-1.3-52.8c-0.6-25.6-20.9-51.7-45.2-58l-50-13c-24.2-6.2-28.4-24.8-9.2-41.3l39.6-33.9c19.2-16.4 26.4-49 16.1-72.3l-21.3-48.1c-10.3-23.4 1.3-38.3 25.9-33.2l50.5 10.5c24.5 5.1 53.9-9.3 65.3-32.2l23.5-47z" /></svg>