<svg height="512" width="512.0" xmlns="http://www.w3.org/2000/svg"><path d="m488.7 204.3l-156-29.7-76.7-137.6-76.7 137.6-156 29.7 108.6 114.7-19.7 156 143.8-66.7 143.9 66.7-19.8-156 108.6-114.7z m-232.6 188.7c-60.5 0-109.5-49-109.5-109.5 0-60.5 49-109.6 109.5-109.6 60.5 0 109.5 49.1 109.5 109.6 0 60.5-49 109.5-109.5 109.5z m27.5-97.1c-11.5-3.5-14-10.5-14-17.7s4-9.5 7.1-13.9c3.2-4.4 3.2-21.5 3.2-21.5 0-23.4-6.1-34.7-23.8-34.7-17.8 0-23.9 11.3-23.9 34.7 0 0 0 17.1 3.2 21.5 3.2 4.4 7.2 6.6 7.2 13.9s-2.5 14.2-14.1 17.7c-19.3 5.8-40.8 8.8-40.8 23.3 0 7.7-1.1 19 4.8 19h127.2c5.8 0 4.7-11.3 4.7-19 0-14.5-21.4-17.5-40.8-23.3z" /></svg>