<svg height="512" width="512.0" xmlns="http://www.w3.org/2000/svg"><path d="m411.8 78.4h37l-51.8-51.8v37c0 8.7 6.3 14.8 14.8 14.8z m-12.8 14.8c-9.3 0-16.8-7.6-16.8-17l14.8-49.6-302.6-0.1c-16.9 0-30.5 13.9-30.5 31v397c0 17.1 13.6 31 30.5 31h323.8c16.9 0 30.6-13.9 30.6-31l0-376.1-49.8 14.8z m-275.8 4.2c0-2.3 2.1-4.2 4.7-4.2h190.5c2.6 0 4.6 1.9 4.6 4.2v13.7c0 2.4-2 4.3-4.6 4.3h-190.5c-2.6 0-4.7-1.9-4.7-4.3v-13.7z m0 44.4c0-2.3 2.1-4.2 4.7-4.2h153.4c2.6 0 4.7 1.9 4.7 4.2v13.8c0 2.3-2.1 4.2-4.7 4.2h-153.4c-2.6 0-4.7-1.9-4.7-4.2v-13.8z m266.4 272.8c0 2.3-2.1 4.2-4.6 4.2h-257.1c-2.6 0-4.7-1.9-4.7-4.2v-13.7c0-2.3 2.1-4.2 4.7-4.2h257.1c2.5 0 4.6 1.9 4.6 4.2v13.7z m0-44.4c0 2.3-2.1 4.2-4.6 4.2h-257.1c-2.6 0-4.7-1.9-4.7-4.2v-13.7c0-2.3 2.1-4.2 4.7-4.2h257.1c2.5 0 4.6 1.9 4.6 4.2v13.7z m0-44.4c0 2.3-2.1 4.2-4.6 4.2h-257.1c-2.6 0-4.7-1.9-4.7-4.2v-13.7c0-2.4 2.1-4.2 4.7-4.2h257.1c2.5 0 4.6 1.8 4.6 4.2v13.7z m0-44.4c0 2.3-2.1 4.2-4.6 4.2h-257.1c-2.6 0-4.7-1.9-4.7-4.2v-13.7c0-2.4 2.1-4.2 4.7-4.2h257.1c2.5 0 4.6 1.8 4.6 4.2v13.7z m0-44.4c0 2.3-2.1 4.2-4.6 4.2h-257.1c-2.6 0-4.7-1.9-4.7-4.2v-13.7c0-2.4 2.1-4.3 4.7-4.3h257.1c2.5 0 4.6 1.9 4.6 4.3v13.7z" /></svg>