<svg height="512" width="512.0" xmlns="http://www.w3.org/2000/svg"><path d="m420.7 68.2h39.2l-54.8-54.8v39.2c0 9.1 6.6 15.6 15.6 15.6z m-13.5 15.7c-9.8 0-17.8-8.1-17.8-18l15.7-52.5-320-0.1c-17.8 0-32.3 14.7-32.3 32.8v419.8c0 18.1 14.5 32.8 32.3 32.8h342.4c17.8 0 32.3-14.7 32.3-32.8l0.1-397.7-52.7 15.7z m-15 78.2c2.7 0 5 2.3 5 5.2v107.1c0 2.8-2.3 5.1-5 5.1h-60.3c-2.8 0-5-2.3-5-5.1v-107.1c0-2.9 2.2-5.2 5-5.2h60.3z m5 153.9v21c0 2.9-2.3 5.1-5 5.1h-60.3c-2.8 0-5-2.2-5-5.1v-21c0-2.9 2.2-5.2 5-5.2h60.3c2.7 0 5 2.3 5 5.2z m-289.5-227.7c0-2.4 2.2-4.4 5-4.4h232.8c2.7 0 4.8 2 4.8 4.4v6.7c0 2.5-2.1 4.4-4.8 4.4h-232.8c-2.8 0-5-1.9-5-4.4v-6.7z m0 31.3c0-2.4 2.2-4.4 5-4.4h193.6c2.7 0 4.9 2 4.9 4.4v6.7c0 2.5-2.2 4.5-4.9 4.5h-193.6c-2.8 0-5-2-5-4.5v-6.7z m-0.1 47.7c0-2.9 2.1-5.2 4.8-5.2h194.1c2.6 0 4.8 2.3 4.8 5.2v107.1c0 2.8-2.2 5.1-4.8 5.1h-194.1c-2.7 0-4.8-2.3-4.8-5.1v-107.1z m0 148.7c0-2.9 2.1-5.2 4.8-5.2h194.1c2.6 0 4.8 2.3 4.8 5.2v21c0 2.9-2.2 5.1-4.8 5.1h-194.1c-2.7 0-4.8-2.2-4.8-5.1v-21z m289.8 99.3c0 2.8-2.2 5.1-4.8 5.1h-280.2c-2.7 0-4.8-2.3-4.8-5.1v-36.7c0-2.9 2.1-5.2 4.8-5.2h280.2c2.6 0 4.8 2.3 4.8 5.2v36.7z" /></svg>