<svg height="512" width="512.0" xmlns="http://www.w3.org/2000/svg"><path d="m420.2 380.8h-327.7c-10.5 0-19 8.1-19 18.2v71.6c0 10.1 8.5 18.2 19 18.2h327.7c10.5 0 19-8.1 19-18.2v-71.6c0-10.1-8.5-18.2-19-18.2z m-133.7 37.3l-37.7 45.9c-1.2 1.2-3.3 1.4-4.7 0.3l-21.2-17.4c-1.4-1.1-1.5-3-0.3-4.3l6.4-6.8c1.2-1.3 3.3-1.4 4.6-0.3l10.6 8.6 28.1-36.2c1.1-1.3 3.2-1.6 4.7-0.6l8.8 6.5c1.5 1 1.8 2.9 0.7 4.3z m133.7-162.1h-327.7c-10.5 0-19 8.1-19 18.2v55c0 10.1 8.5 18.2 19 18.2h327.7c10.5 0 19-8.1 19-18.2v-55c0-10.1-8.5-18.2-19-18.2z m7.7 73.2c0 3.8-3.5 6.9-7.7 6.9h-327.7c-4.2 0-7.7-3.1-7.7-6.9v-55c0-3.8 3.5-6.9 7.7-6.9h327.7c4.2 0 7.7 3.1 7.7 6.9v55z m-7.7-189.4h-327.7c-10.5 0-19 8.1-19 18.2v54.8c0 10 8.5 18.2 19 18.2h327.7c10.5 0 19-8.2 19-18.2v-54.8c0-10.1-8.5-18.2-19-18.2z m7.7 73c0 3.8-3.5 6.9-7.7 6.9h-327.7c-4.2 0-7.7-3.1-7.7-6.9v-54.8c0-3.8 3.5-6.9 7.7-6.9h327.7c4.2 0 7.7 3.1 7.7 6.9v54.8z m-7.7-189.5h-327.7c-10.5 0-19 8.2-19 18.2v55c0 10.1 8.5 18.3 19 18.3h327.7c10.5 0 19-8.2 19-18.3v-55c0-10-8.5-18.2-19-18.2z m7.7 73.2c0 3.8-3.5 6.9-7.7 6.9h-327.7c-4.2 0-7.7-3.1-7.7-6.9v-55c0-3.8 3.5-6.9 7.7-6.9h327.7c4.2 0 7.7 3.1 7.7 6.9v55z" /></svg>