<svg height="512" width="512.0" xmlns="http://www.w3.org/2000/svg"><path d="m452.7 161.6h-218.6c-19.8 0-35.9 14.8-35.9 33.1v16.9c0.1 0.3 0.1 0.5 0.1 0.8v7.3c0 0.3 0 0.5-0.1 0.8v103.4c0 18.3 16.1 33.1 35.9 33.1h106.8l80.3 80.5 0-80.5h31.5c19.8 0 35.9-14.8 35.9-33.1v-129.2c0-18.3-16.1-33.1-35.9-33.1z m-15 137.9c0 4-3.2 7.3-7.2 7.3h-174.2c-4 0-7.2-3.3-7.2-7.3v-7.2c0-4.1 3.2-7.3 7.2-7.3h174.2c4 0 7.2 3.2 7.2 7.3v7.2z m0-43.5c0 4-3.2 7.2-7.2 7.2h-174.2c-4 0-7.2-3.2-7.2-7.2v-7.3c0-4 3.2-7.2 7.2-7.2h174.2c4 0 7.2 3.2 7.2 7.2v7.3z m0-43.6c0 4-3.2 7.3-7.2 7.3h-174.2c-4 0-7.2-3.3-7.2-7.3v-7.2c0-4 3.2-7.3 7.2-7.3h174.2c4 0 7.2 3.3 7.2 7.3v7.2z m-101.6-72.2v-33.3c0-17.8-16.1-32.3-35.8-32.3h-240.4c-19.8 0-35.8 14.5-35.8 32.3v132.2c0 17.9 16 32.4 35.8 32.4h31.5l-0.1 78.8 80.1-78.8h9.3v-44.6h-98.5c-4 0-7.3-3.2-7.3-7.2v-7.3c0-4 3.3-7.2 7.3-7.2h98.5v-21.8h-98.5c-4 0-7.3-3.2-7.3-7.3v-7.2c0-4 3.3-7.3 7.3-7.3h100.8c5.2-12.5 18.3-21.4 33.6-21.4h119.5z m-253.9-0.3c-4 0-7.3-3.3-7.3-7.3v-7.3c0-4 3.3-7.2 7.3-7.2h195.9c4 0 7.3 3.2 7.3 7.2v7.3c0 4-3.3 7.3-7.3 7.3h-195.9z" /></svg>