<svg height="512" width="512.0" xmlns="http://www.w3.org/2000/svg"><path d="m123.3 353.5c-12.6-3-22.7-5.7-32.1-7.4-9.3-1.6-13.2-7.3-4.1-9.8 9.1-2.5 34.6-1.9 49.4 2.5 14.8 4.3 18.9 5.7 18.9 5.7v-36.9c-13.7-3-28.5-5.7-55.1-5.7-36.5 0-84.8 9.3-84.8 42.6 0 30.6 66.4 35.8 79.8 38.5 13.5 2.8 7.7 9.9 1.7 10.7-6 0.8-34.3 0.3-51.8-4.9-17.6-5.2-28-8.2-28-8.2s0 32.5 0 38.5c9.9-1.6 13.4 9 67.4 9 54.1 0 85.6-18.8 85.6-41.8 0-22.9-34.3-29.8-46.9-32.8z m105.3-48.3l-60 121.3h63.3l18.1-45.3c33.3 12 44.7 36.9 47.1 43.6l0.6 1.7h63.4l-57.6-121.3h-74.9z m23.6 70.4l15.1-37.7 13 37.7h-28.1z m87.5-70.4v41.8h53.5v79.5h51v-79.5h52.6v-41.8h-157.1z m-21.1-33.2c30 0 54.3-24.2 54.3-54 0-29.8-24.3-54-54.3-54-29.9 0-54.2 24.2-54.2 54 0 29.8 24.3 54 54.2 54z m-123 0c29.9 0 54.2-24.2 54.2-54 0-29.8-24.3-54-54.2-54-30 0-54.3 24.2-54.3 54 0 29.8 24.3 54 54.3 54z m123-122.5c30 0 54.3-24.2 54.3-54 0-29.8-24.3-54-54.3-54-29.9 0-54.2 24.2-54.2 54 0 29.8 24.3 54 54.2 54z m-123 0c29.9 0 54.2-24.2 54.2-54 0-29.8-24.3-54-54.2-54-30 0-54.3 24.2-54.3 54 0 29.8 24.3 54 54.3 54z" /></svg>