<svg height="512" width="512.0" xmlns="http://www.w3.org/2000/svg"><path d="m402 199.5c-7.2-20.6-26.6-35.4-49.5-35.4-23 0-24.1 11.5-25.7 26.9l-28.9-17.3c-2.2-21.3-20.3-37.9-42.2-37.9-22.3 0-40.5 17.2-42.3 39.1l-27.3 16.1c-1.6-15.4-2.6-26.9-25.8-26.9-23.1 0-42.8 14.8-50.1 35.4-48.5 0.2-87.8 39.7-87.8 88.4 0 48.8 39.5 88.4 88.4 88.4 37.6 0 69.7-23.6 82.5-56.7 0.7 0.1 1.5 0.1 2.3 0.1 29.3 0 53.1-23.8 53.1-53.1 0-18.2-8.8-18.1-21.1-21.2l15.7-26.6c3.9 1.2 8.1 1.9 12.4 1.9 5 0 9.8-0.9 14.2-2.5l15.9 27.2c-12.2 3.1-20.9 3-20.9 21.2 0 29.3 23.5 53.1 52.6 53.1 0.7 0 1.5 0 2.3-0.1 12.6 33.1 44.5 56.7 81.7 56.7 48.4 0 87.6-39.6 87.6-88.4 0-48.7-38.9-88.2-87.1-88.4z m-291.2 148.5c-33.2 0-60.2-26.9-60.2-60.1s27-60.2 60.2-60.2 60.1 27 60.1 60.2-26.9 60.1-60.1 60.1z m289.9 0c-33.3 0-60.2-26.9-60.2-60.1s26.9-60.2 60.2-60.2c33.2 0 60.1 27 60.1 60.2s-26.9 60.1-60.1 60.1z" /></svg>