<svg height="512" width="512.0" xmlns="http://www.w3.org/2000/svg"><path d="m409.9 152.8c4.5 4.6 12.1 4.4 16.9-0.4l43.1-43.2c8.8 25.4 2.6 55.5-18.5 76.6-19.3 19.3-46.1 26.2-69.9 20.4l-59.6 59.7 132.9 126.8c6 6 6.1 15.6 0.3 21.5l-26.6 26.4c-5.9 5.9-15.5 5.7-21.5-0.3l-127-132.3-135 135.3c-6.8 6.9-18 6.9-24.8 0.1l-24.8-24.9c-6.9-6.9-6.9-18.1 0-25l135.9-136.2-59.3-61.8c-10.5 10.5-26.4-5.1-32.4-11.1l-15.9 15.9c6 6 6.1 15.5 0.2 21.4l-15.9 15.9c-5.9 5.8-15.5 5.7-21.5-0.3l-43.6-43.4c-6-6-6.1-15.6-0.3-21.5l16-15.8c5.8-5.9 15.5-5.7 21.5 0.3l15.9-15.9c-6-6-6.1-15.6-0.2-21.4l37.2-37.1c29.1-29 114.2-17.1 139.7-8.9s19.6 24.6 1.6 21.8c-18-2.7-49.7 4.4-49.7 4.4-34.6 8.1 0.6 42.8-15.4 58.7l61.8 58.9 60.9-61c-5.8-23.9 1-50.8 20.3-70.1 21-21.2 51-27.4 76.3-18.5l-43 43.1c-4.8 4.8-5 12.5-0.4 17l24.8 24.9z" /></svg>