<svg height="512" width="512.0" xmlns="http://www.w3.org/2000/svg"><path d="m236.8 202.2h38.4c8.8 0 16-8.3 16-18.5v-54.5c0-10.2-7.2-18.5-16-18.5h-38.4c-8.8 0-15.9 8.3-15.9 18.5v54.5c0 10.2 7.1 18.5 15.9 18.5z m205.2 11.5c0 0-14.9-16.6-57.4-41.6 0.7 4.9 1.5 9.9 2.3 14.8 3.4 20.5 6.4 38.3-3.9 50.5-5 6-12.4 9.3-20.9 9.3h0c-6.3 0-13.5-1.8-22.1-5.4-2.6-1.4-5-2.9-7.6-4.3-2.9 63.3-35.4 130.5-76.4 192.7-40.9-62.2-73.4-129.4-76.4-192.6-2 1.2-4 2.3-6.1 3.4-10.1 4.5-17.2 6.2-23.6 6.2-8.4 0-15.9-3.3-20.9-9.3-10.2-12.2-7.3-30-3.8-50.6 0.8-4.8 1.6-9.8 2.2-14.7-42.4 25-57.4 41.6-57.4 41.6-18.7 19.6-21.2 32.1-1.2 55.1 0 0 102.1 109.9 187.2 161 85.1-51.1 187.2-161 187.2-161 20-23 17.6-35.5-1.2-55.1z m-133.5-30c0 5.7-1.3 11.1-3.6 15.9 12.2 8.2 26.1 17 41.8 25.5 43.6 18.6 19.3-30.4 19.3-69.1 0-38.7 24.3-87.6-19.3-69-15.9 8.6-29.9 17.4-42.1 25.7 2.4 5 3.9 10.5 3.9 16.5v54.5z m-143.2 41.4c15.8-8.5 29.7-17.3 41.8-25.5-2.2-4.8-3.6-10.2-3.6-15.9v-54.5c0-6 1.5-11.5 3.9-16.5-12.2-8.3-26.2-17.1-42.1-25.7-43.5-18.6-19.3 30.4-19.3 69 0 38.7-24.2 87.7 19.3 69.1z" /></svg>