<svg height="512" width="512.0" xmlns="http://www.w3.org/2000/svg"><path d="m293.8 264.5h-25.7c-2.6-10.4-6.8-20.1-12.1-29l18-18.1c2.8-2.8 2.8-7.2 0-10l-28.2-28.2c-2.8-2.8-7.2-2.8-10 0l-18.3 18.3c-8.8-5.2-18.5-9.2-28.8-11.7v-25.5c0-3.9-3.1-7.1-7-7.1h-40c-3.9 0-7 3.2-7 7.1v25.9c-10.1 2.6-19.5 6.7-28.2 11.9l-18.1-18.1c-2.7-2.7-7.2-2.7-10 0l-28.2 28.3c-2.7 2.7-2.7 7.2 0 9.9l18.3 18.3c-5.1 8.7-9 18-11.5 28h-25.7c-3.9 0-7.1 3.2-7.1 7v40c0 3.9 3.2 7 7.1 7h25.7c2.5 10 6.4 19.4 11.5 28l-18.3 18.3c-2.8 2.8-2.8 7.2 0 10l28.2 28.2c2.8 2.7 7.2 2.7 10 0l18.1-18.1c8.7 5.2 18.1 9.3 28.2 11.9v25.9c0 3.9 3.1 7.1 7 7.1h40c3.9 0 7-3.2 7-7.1v-25.5c10.3-2.5 20-6.5 28.8-11.7l17.9 17.9c2.8 2.8 7.2 2.8 10 0l28.2-28.2c2.8-2.8 2.8-7.2 0-10l-17.6-17.6c5.3-9 9.5-18.7 12.1-29.1h25.7c3.9 0 7-3.1 7-7v-40c0-3.9-3.1-7-7-7z m-131.3 80c-29.2 0-52.9-23.7-52.9-53 0-29.2 23.7-53 52.9-53 29.3 0 53 23.8 53 53 0 29.3-23.7 53-53 53z m319.8-197.7h-19.3c-2-7.8-5.1-15.1-9.1-21.8l13.5-13.6c2.1-2 2.1-5.4 0-7.4l-21.2-21.2c-2-2.1-5.4-2.1-7.4 0l-13.8 13.7c-6.6-3.9-13.9-6.9-21.6-8.8v-19.1c0-2.9-2.3-5.3-5.3-5.3h-29.9c-2.9 0-5.3 2.4-5.3 5.3v19.4c-7.5 2-14.6 5.1-21.1 9l-13.6-13.6c-2.1-2-5.4-2-7.5 0l-21.2 21.2c-2 2.1-2 5.4 0 7.5l13.8 13.7c-3.8 6.5-6.8 13.5-8.7 21h-19.2c-3 0-5.3 2.3-5.3 5.3v29.9c0 2.9 2.3 5.3 5.3 5.3h19.2c1.9 7.4 4.9 14.5 8.7 21l-13.8 13.7c-2 2.1-2 5.4 0 7.5l21.2 21.1c2.1 2.1 5.4 2.1 7.5 0l13.6-13.5c6.5 3.9 13.6 6.9 21.1 8.9v19.5c0 2.9 2.4 5.2 5.3 5.2h29.9c3 0 5.3-2.3 5.3-5.2v-19.2c7.7-1.9 15-4.9 21.6-8.8l13.5 13.5c2 2 5.4 2 7.4 0l21.2-21.2c2.1-2.1 2.1-5.4 0-7.5l-13.2-13.2c4-6.7 7.1-14.1 9.1-21.8h19.2c3 0 5.3-2.4 5.3-5.3v-29.9c0-3-2.3-5.3-5.2-5.3z m-98.5 60c-21.9 0-39.7-17.8-39.7-39.8 0-21.9 17.8-39.7 39.7-39.7 21.9 0 39.7 17.8 39.7 39.7 0 22-17.8 39.8-39.7 39.8z" /></svg>