<svg height="512" width="512.0" xmlns="http://www.w3.org/2000/svg"><path d="m374.8 211.1c-26.1 0-49.3-11.5-65.6-29.6l-89.6 55.7c4.3 10.4 6.7 21.8 6.7 33.8 0 2.6-0.5 5-0.8 7.5l83.7 52c16.3-18.1 39.5-29.6 65.6-29.6 49.2 0 89.1 40.2 89.1 89.8 0 49.7-39.9 89.9-89.1 89.9-49.2 0-89.1-40.2-89.1-89.9 0-1.1 0.3-2.1 0.3-3.2l-85.6-53.2c-16.2 16.3-38.5 26.5-63.2 26.5-49.2 0-89.1-40.2-89.1-89.8 0-49.6 39.9-89.9 89.1-89.9 14.8 0 28.6 4 40.9 10.5l107.9-67.1c0-1.1-0.3-2.1-0.3-3.2 0-49.6 39.9-89.9 89.1-89.9 49.2 0 89.1 40.2 89.1 89.9s-39.9 89.8-89.1 89.8z" /></svg>