<svg height="512" width="512.0" xmlns="http://www.w3.org/2000/svg"><path d="m463.1 234c-11.8 14.4-33 16.4-47.3 4.5-6-4.9-9.8-11.6-11.3-18.6l-48.2-4.7c-1.1 7.7-4.2 15.3-9.5 21.8-5.2 6.2-11.7 10.6-18.8 13.2l12.6 50c8.3-0.7 17 1.8 24 7.6 14.2 11.9 16.3 33.2 4.5 47.6-11.8 14.5-32.9 16.5-47.1 4.6-14.3-11.9-16.3-33.2-4.6-47.6 2.4-2.9 5.1-5.2 8.1-7.1l-13.2-52.4c-9.5-0.2-19-3.4-26.9-10-11.7-9.6-17.1-24.1-15.7-38.1l-67.7-39.3c-10.2 21.4-30.2 36-52.9 39.4v61.7c21.5 1.9 38.9 19.4 39.9 41.7 0.5 10.5-2.7 20.4-8.6 28.2l35.2 41c3.7-1.7 7.8-2.7 12.1-2.9 18.5-0.9 34.2 13.5 35.1 32.1 0.9 18.6-13.5 34.4-32 35.3-18.5 0.8-34.3-13.5-35.1-32.2-0.4-8.5 2.4-16.4 7.4-22.6l-34.2-39.9c-6.3 4-13.6 6.5-21.5 6.9-6.8 0.3-13.3-1-19.1-3.5l-27.6 42.8c4.5 5.4 7.4 12.3 7.7 20 0.9 18.6-13.5 34.5-32 35.3-18.5 0.9-34.2-13.5-35.1-32.2-0.9-18.6 13.5-34.5 32-35.3 5.2-0.3 10.2 0.7 14.7 2.6l27.1-41.9c-7.8-7.5-12.9-17.9-13.4-29.6-1-20.7 12.5-38.7 31.5-44.2v-62.7c-4.2-0.3-8.5-1-12.7-2.2-37.6-10.1-59.8-49-49.7-86.9 10-37.8 48.6-60.3 86.1-50.2 36.6 9.9 58.6 47.1 50.4 84l67 38.9c1.4-2.7 3.1-5.4 5.2-7.9 15.3-18.6 42.8-21.3 61.4-5.9 7.7 6.3 12.6 14.8 14.7 23.8l49.1 4.8c1.2-4.6 3.4-9.1 6.6-13 11.8-14.4 33-16.5 47.3-4.6 14.3 11.9 16.3 33.2 4.5 47.6z" /></svg>