<svg height="512" width="512.0" xmlns="http://www.w3.org/2000/svg"><path d="m436.5 370.6h-121.9c0 0 0 0 0 0 8.6-0.2 15.5-6.4 15.5-14 0-7.6-6.9-13.9-15.5-14 0 0 0 0 0 0 8.6-0.2 15.5-6.4 15.5-14.1 0-7.7-7.1-14-15.9-14h-12.6c-10.8-24.2-13.5-69.5-4.1-103.4 30.3-15.4 51.1-47.1 51.1-83.7 0-51.7-41.4-93.5-92.6-93.5-51.1 0-92.5 41.8-92.5 93.5 0 37.7 22.1 70.2 53.9 85 12 33.7 8.3 73.1-6.8 102.1h-12.8c-8.7 0-15.8 6.3-15.8 14 0 7.7 6.9 13.9 15.5 14.1 0 0 0 0 0 0-8.6 0.1-15.5 6.4-15.5 14 0 7.6 6.9 13.8 15.5 14 0 0 0 0 0 0h-122c-7.7 0-13.9 6.3-13.9 14.1v65.4c0 7.8 6.2 14.1 13.9 14.1h9.3c0 7.7 6.2 14 13.9 14h314.7c7.7 0 13.9-6.3 13.9-14h9.2c7.7 0 13.9-6.3 13.9-14.1v-65.4c0-7.8-6.2-14.1-13.9-14.1z" /></svg>