<svg height="512" width="512.0" xmlns="http://www.w3.org/2000/svg"><path d="m458.6 188.2l-79.1-15.4c-8.2-1.6-16.9-5.2-25.4-10.1h0.1c-13.9-8-27-19.4-35.1-31.4-0.2-0.3-0.3-0.5-0.5-0.8-1-1.6-2-3.1-2.8-4.6l-38.8-71.4c-11.6-21.2-30.5-21.2-42.1 0l-23.6 43.1h0l-5.1 9.2-10.3 18.9c-0.3 0.6-0.7 1.1-1.1 1.7-0.9 1.6-1.9 3.1-3 4.7-0.8 1.2-1.7 2.4-2.7 3.6-0.4 0.5-0.8 1-1.1 1.4-8.2 9.8-19.4 19-31.1 25.6h0.4c-8.4 4.9-17.2 8.5-25.3 10.1l-79.2 15.4c-23.5 4.5-29.3 22.7-13 40.4l55.1 59.4c16.4 17.7 27.4 51.8 24.4 75.9l-10 80.8c-3 24 12.3 35.2 34 24.9l73-34.5c21.7-10.3 57.2-10.3 78.9 0l72.9 34.5c21.7 10.3 37-0.9 34.1-24.9l-10-80.8c-3-24.1 8-58.2 24.3-75.9l55.1-59.4c16.4-17.7 10.5-35.9-13-40.4z" /></svg>