<svg height="512" width="512.0" xmlns="http://www.w3.org/2000/svg"><path d="m446.1 229.4l-185.3-107.5c-0.4-35.5-19.2-70.2-52.5-89.5-36.4-21.1-79.9-18.1-111.6 4.1l74.4 43.1c8.3 4.9 11.2 15.4 6.5 23.5l-25.4 44.3c-4.7 8.1-15.2 10.8-23.5 6l-74.4-43.2c-3.2 38.8 15.9 78.1 52.2 99.2 33.4 19.3 72.7 18.4 103.5 1l185.3 107.5c11.8 6.9 27.2 2.6 34.2-9.7l25.4-44.2c7-12.2 3.1-27.7-8.8-34.6z m-219.4 80.7c-50.5 0-91.6 41.2-91.6 92.1s41.1 92.1 91.6 92.1c50.6 0 91.6-41.2 91.6-92.1s-41-92.1-91.6-92.1z m44.7 117.2h-46.6c-0.3 0-0.5-0.1-0.7-0.1 0 0-0.1 0-0.1 0-0.9 0-1.6-0.3-2.4-0.5-0.7-0.2-1.4-0.2-2-0.5-1-0.4-1.8-1-2.6-1.7-0.5-0.4-1.1-0.7-1.6-1.1-0.1-0.1-0.1-0.2-0.2-0.2-2.1-2.3-3.5-5.3-3.5-8.6 0-0.2 0.1-0.3 0.1-0.5 0 0 0 0 0 0v-59.7c0-7.2 5.4-13.1 12.2-13.1s12.2 5.9 12.2 13.1v47.5h35.2c7.2 0 13.1 5.6 13.1 12.7 0 7-5.9 12.7-13.1 12.7z" /></svg>