<svg height="512" width="512.0" xmlns="http://www.w3.org/2000/svg"><path d="m265.4 76.8l-5.2 12.4 8.4 0.7-3.2-13.1z m-9.7 92.5c-45.9 0-83.1 37.2-83.1 83.1 0 45.9 37.2 83.1 83.1 83.1 45.9 0 83.1-37.2 83.1-83.1 0-45.9-37.2-83.1-83.1-83.1z m0 128.4c-25 0-45.3-20.3-45.3-45.3s20.3-45.3 45.3-45.3c25.1 0 45.4 20.3 45.4 45.3s-20.3 45.3-45.4 45.3z m0-256.8c-121 0-219 96.4-219 215.3s98 215.3 219 215.3c121 0 219.1-96.4 219.1-215.3s-98.1-215.3-219.1-215.3z m-173.7 234.2c-8.4 0-15.1-6.8-15.1-15.1 0-8.4 6.7-15.1 15.1-15.1s15.1 6.7 15.1 15.1c0 8.3-6.8 15.1-15.1 15.1z m213.9-201.8l9.4 3.1-2.3 26.3 13.6-22.6 9.3 3.1-10.2 31-6.1-2 7-21c0.2-0.6 0.4-1.4 0.8-2.5 0.4-1.1 0.7-1.9 0.9-2.5l-14.5 24.1-6.3-2.1 2.8-27.9c-0.2 0.6-0.5 1.4-0.8 2.5-0.4 1.1-0.6 1.9-0.8 2.5l-7 21-6-2 10.2-31z m-33.7-4.3l7.7 0.6 9.1 33.4-7.4-0.6-1.6-6.8-12-0.9-2.7 6.5-7.1-0.5 14-31.7z m-25.3 0l0.9 5.7-17.1 2.5 1 6.8 15.7-2.3 0.8 5.7-15.7 2.2 1.2 8.3 17.9-2.6 0.9 5.8-24.5 3.6-4.7-32.3 23.6-3.4z m-37 6.6l2 5.5-9.2 3.3 9.3 25.2-6.5 2.4-9.2-25.2-9.2 3.4-2-5.5 24.8-9.1z m-30.1 326.8l-8.8-3.3-0.5 10.1-6.7-0.3 0.2-9.7-9.7 2.5-1.9-6.2 9.9-3-5.5-7.6 5.5-3.7 5.2 7.6 6.3-8 5.8 4.4-6.3 8 8.8 3.1-2.3 6.1z m48 20.2l-9.4-0.3 2.8 9.7-6.4 1.9-3-9.3-8.3 5.5-3.9-5.3 8.4-6-7.7-5.4 4-5.3 7.4 5.5 3.3-9.5 7 2.3-3.3 9.5 9.3 0.2-0.2 6.5z m48.6 14.7l-5.4 3.8-6-7.7-5.9 7.9-5.5-3.7 5.8-8.3-9.1-2.6 1.9-6.3 8.9 2.7-0.2-10 7.4-0.1 0.1 10 8.9-3 2.1 6.2-9 2.9 6 8.2z m51.3-7l-8.1-5.5-3.2 9.3-6.4-1.8 2.9-9.8-9.5 0.3-0.1-6.5 9.3-0.1-3.3-9.5 7-2.4 3.3 9.5 7.4-5.4 4 5.2-7.7 5.4 8.3 6-3.9 5.3z m49.4-28.1l-9.6-2.6 0.1 9.8-6.7 0.3-0.5-10.1-8.8 3.2-2.3-6.1 8.8-3.1-6.3-7.9 5.8-4.4 6.3 7.9 5.2-7.5 5.5 3.7-5.5 7.6 9.9 3-1.9 6.2z m-111.4-21.4c-70.9 0-128.3-57.5-128.3-128.4 0-70.9 57.4-128.4 128.3-128.4 70.9 0 128.4 57.5 128.4 128.4 0 70.9-57.5 128.4-128.4 128.4z m173.8-105.7c-8.4 0-15.1-6.8-15.1-15.1 0-8.4 6.7-15.1 15.1-15.1 8.3 0 15.1 6.7 15.1 15.1 0 8.3-6.8 15.1-15.1 15.1z" /></svg>