<svg height="512" width="512.0" xmlns="http://www.w3.org/2000/svg"><path d="m333.4 115.4c-15.3 0-27.8-12.3-27.8-27.4l11.9-71.2-2.2-2.2h-185.7c-14 0-25.3 11.2-25.3 25v432.9c0 13.8 11.3 25 25.3 25h253.2c13.9 0 25.3-11.2 25.3-25v-366.3l-2.2-2.2-72.5 11.4z m-16.3 31.6c2.9 0 5.2 2 5.2 4.4v6.7c0 2.4-2.3 4.4-5.2 4.4h-160.8c-2.9 0-5.2-2-5.2-4.4v-6.7c0-2.4 2.3-4.4 5.2-4.4h160.8z m-80.4 38.9c0 4.3-2.1 7.8-4.7 7.8h-76.1c-2.7 0-4.8-3.5-4.8-7.8 0-4.3 2.1-7.8 4.8-7.8h76.1c2.6 0 4.7 3.5 4.7 7.8z m-85.6-97.1c0-2.2 2.3-4.1 5.2-4.1h75.2c2.9 0 5.2 1.9 5.2 4.1v38.5c0 2.3-2.3 4.1-5.2 4.1h-75.2c-2.9 0-5.2-1.8-5.2-4.1v-38.5z m202.4 349.3c0 2.7-2.1 4.8-4.7 4.8h-91.7c-2.6 0-4.7-2.1-4.7-4.8v-21.5c0-2.6 2.1-4.7 4.7-4.7h91.7c2.6 0 4.7 2.1 4.7 4.7v21.5z m0.1-69.7c0 2.5-2.3 4.5-5.1 4.5h-192.3c-2.8 0-5.1-2-5.1-4.5v-6.6c0-2.4 2.3-4.4 5.1-4.4h192.3c2.8 0 5.1 2 5.1 4.4v6.6z m0-31.1c0 2.4-2.3 4.4-5.1 4.4h-192.3c-2.8 0-5.1-2-5.1-4.4v-6.8c0-2.5 2.3-4.5 5.1-4.5h192.3c2.8 0 5.1 2 5.1 4.5v6.8z m0-31.2c0 2.5-2.3 4.5-5.1 4.5h-192.3c-2.8 0-5.1-2-5.1-4.5v-6.7c0-2.5 2.3-4.5 5.1-4.5h192.3c2.8 0 5.1 2 5.1 4.5v6.7z m0-31.2c0 2.4-2.3 4.4-5.1 4.4h-192.3c-2.8 0-5.1-2-5.1-4.4v-6.7c0-2.4 2.3-4.4 5.1-4.4h192.3c2.8 0 5.1 2 5.1 4.4v6.7z m0-31.2c0 2.5-2.3 4.5-5.1 4.5h-192.3c-2.8 0-5.1-2-5.1-4.5v-6.6c0-2.4 2.3-4.4 5.1-4.4h192.3c2.8 0 5.1 2 5.1 4.4v6.6z m-8.2-140.1h62.7l-90.4-87.7v60.3c0 15.2 12.4 27.4 27.7 27.4z" /></svg>