<svg height="512" width="512.0" xmlns="http://www.w3.org/2000/svg"><path d="m377.2 74.9h37.7l-52.8-52.9v37.8c0 8.8 6.4 15.1 15.1 15.1z m-13.1 15.1c-9.5 0-17.1-7.8-17.1-17.4l15.1-50.6-233.1-0.1c-17.3 0-31.2 14.2-31.2 31.7v404.9c0 17.5 13.9 31.6 31.2 31.6h254.7c17.2 0 31.2-14.1 31.2-31.6l0-383.6-50.8 15.1z m-205.8 4.3c0-2.4 2.1-4.3 4.7-4.3h111.4c2.6 0 4.7 1.9 4.7 4.3v6.4c0 2.4-2.1 4.3-4.7 4.3h-111.4c-2.6 0-4.7-1.9-4.7-4.3v-6.4z m0 37.7c0-2.4 2.1-4.3 4.7-4.3h73.6c2.6 0 4.7 1.9 4.7 4.3v6.5c0 2.3-2.1 4.2-4.7 4.2h-73.6c-2.6 0-4.7-1.9-4.7-4.2v-6.5z m196.2 293.3c0 2.4-2.1 4.3-4.6 4.3h-88.7c-2.7 0-4.8-1.9-4.8-4.3v-21.5c0-2.4 2.1-4.3 4.8-4.3h88.7c2.5 0 4.6 1.9 4.6 4.3v21.5z m0-67.9c0 2.3-2.1 4.3-4.6 4.3h-186.9c-2.6 0-4.7-2-4.7-4.3v-6.5c0-2.3 2.1-4.3 4.7-4.3h186.9c2.5 0 4.6 2 4.6 4.3v6.5z m0-37.8c0 2.4-2.1 4.3-4.6 4.3h-186.9c-2.6 0-4.7-1.9-4.7-4.3v-6.4c0-2.4 2.1-4.3 4.7-4.3h186.9c2.5 0 4.6 1.9 4.6 4.3v6.4z m0-37.7c0 2.3-2.1 4.3-4.6 4.3h-186.9c-2.6 0-4.7-1.9-4.7-4.3v-6.5c0-2.3 2.1-4.3 4.7-4.3h186.9c2.5 0 4.6 2 4.6 4.3v6.5z m0-37.8c0 2.4-2.1 4.3-4.6 4.3h-186.9c-2.6 0-4.7-1.9-4.7-4.3v-6.4c0-2.4 2.1-4.3 4.7-4.3h186.9c2.5 0 4.6 1.9 4.6 4.3v6.4z m0-37.7c0 2.4-2.1 4.3-4.6 4.3h-186.9c-2.6 0-4.7-1.9-4.7-4.3v-6.4c0-2.4 2.1-4.3 4.7-4.3h186.9c2.5 0 4.6 1.9 4.6 4.3v6.4z" /></svg>