<svg height="512" width="512.0" xmlns="http://www.w3.org/2000/svg"><path d="m480.4 204.2c-9.1-6-96.7-76.5-102-80-6.8-4.3-13.6 1.2-13.6 8.7v30.8c0-4.1-5.1 2.3-9.6 2.3-59.9 0-108.6 29.4-140.6 79.2-16.3-10-34.6-17-48.9-23.2-16.6-7.4-29.2-15.5-29.2-25.1 0-10.8 8.7-18.2 31.8-18.2 19.6 0 39.7 6 51 10.8l27.9-58.4c-15.7-7.1-38.4-13-66.3-14.5l8.8-51.7h-65.5l5.7 54.3c-52.3 9.3-80.6 40.7-80.6 83.2 0 50.3 52.7 71 85.4 83.9 17 6.7 30.1 14 30.1 24.4 0 11.1-10.9 17-32.7 17-20.1 0-42.7-5.5-57.6-12.6l-29.6 63.6c15.7 6.7 47.1 12.6 75 14.4l-8.7 54.4h67.1l-5.7-57c54.1-9.9 81.6-42.5 81.6-85 0-11.9-3.2-22.1-8.4-30.9 33-15.3 73.3-21.6 109.4-14.8 3.7 0.7 9.6 7.5 9.6 3v30.3c0 8.2 7.6 12.2 13.3 8.6 7.8-4.9 95.7-75.7 102.3-80.1 6-4 6.1-13.4 0-17.4z" /></svg>