<svg height="512" width="512.0" xmlns="http://www.w3.org/2000/svg"><path d="m442.2 101.4h-72.4l-0.1-37v0c0-15.8-12.8-28.6-28.6-28.6h-154.6c-7.5 0-14.2 3-19.3 7.7-0.3 0.2-0.6 0.4-0.9 0.7-0.1 0.1-0.2 0.3-0.3 0.4-5 5.1-8.1 12.1-8.1 19.8v0l0 37h-88.6c-27.6 0-49.9 22.2-49.9 49.8v234.5c0 27.5 22.3 49.8 49.9 49.8h15.2v40.7h48.6v-40.7h245v40.7h48.6v-40.7h15.5c27.5 0 49.8-22.3 49.8-49.8v-234.5c0-27.6-22.3-49.8-49.8-49.8z m-365.9 317.7c-22.9 0-40.7-17.7-40.7-40.6 0 0 7.2 0 20.6 0 13.1 0 20.2 6.4 20.2 19.8 0 8.3-0.1 20.8-0.1 20.8z m-20.1-260.8c-13.4 0-20.6 0-20.6 0 0-22.9 17.7-40.7 40.7-40.7 0 0 0.1 12.6 0.1 20.8 0 13.4-7.1 19.9-20.2 19.9z m281-56.9h-146.6v-33.4h146.6v33.4z m97.9 317.7c0 0-0.2-12.5-0.2-20.8 0-13.4 7.2-19.8 20.3-19.8 13.4 0 20.5 0 20.5 0 0 22.9-17.7 40.6-40.6 40.6z m20.1-260.8c-13.1 0-20.3-6.5-20.3-19.9 0-8.2 0.2-20.8 0.2-20.8 22.9 0 40.6 17.8 40.6 40.7 0 0-7.1 0-20.5 0z" /></svg>