<svg height="512" width="512.0" xmlns="http://www.w3.org/2000/svg"><path d="m150.7 319.3c-21.4 0-38.7 17.3-38.7 38.7s17.3 38.7 38.7 38.7 38.7-17.3 38.7-38.7-17.3-38.7-38.7-38.7z m0 56.3c-9.7 0-17.6-7.9-17.6-17.6s7.9-17.6 17.6-17.6c9.7 0 17.6 7.9 17.6 17.6s-7.9 17.6-17.6 17.6z m232.1-56.3c-21.4 0-38.7 17.3-38.7 38.7s17.3 38.7 38.7 38.7c21.3 0 38.6-17.3 38.6-38.7s-17.3-38.7-38.6-38.7z m0 56.3c-9.8 0-17.6-7.9-17.6-17.6s7.8-17.6 17.6-17.6 17.5 7.9 17.5 17.6-7.8 17.6-17.5 17.6z m94.9-63.3v-49.2c0-7.8-6.3-14.1-14.1-14.1l-27.3-7-50.7-84.2c-2.9-4.8-8.3-7.4-13.7-7.2h-70c-7.8 0-14.1 6.2-14.1 14v133.6h-239.1c-7.7 0-14 6.3-14 14.1-3.9 0-7.1 3.1-7.1 7v14.1c0 3.9 3.2 7 7.1 7h1.9c2.4 4.2 6.9 7 12.1 7h50.3c4.9-24 26.2-42.1 51.7-42.1s46.8 18.1 51.7 42.1h128.7c4.9-24 26.1-42.1 51.7-42.1 25.5 0 46.8 18.1 51.6 42.1h29.2c5.2 0 9.8-2.8 12.2-7h1.9c3.9 0 7-3.1 7-7v-14.1c0-3.9-3.1-7-7-7z m-147.7-35.2h-14c-3.9 0-7.1-3.1-7.1-7 0-3.9 3.2-7 7.1-7h14c3.9 0 7 3.1 7 7 0 3.9-3.1 7-7 7z m63.3-35.1h-70.3c-7.8 0-14.1-6.3-14.1-14.1v-42.2c0-7.8 6.3-14.1 14.1-14.1h35.1c7.8 0 17.1 4.6 21.1 14.1l21.1 35.2c6.9 10.6 3.6 21.1-7 21.1z m-119.5-112.5c0-7.8-6.3-14.1-14.1-14.1h-196.9c-7.8 0-14.1 6.3-14.1 14.1v154.7h225.1v-154.7z" /></svg>