<svg height="512" width="512.0" xmlns="http://www.w3.org/2000/svg"><path d="m54.1 200.4c70.9-58.9 145.1-40.6 264.1 36.1-5.4 11.7-17.3 37.5-17.8 38.6-2.5 5.2 1.1 14 7.3 12.9 5.8-1 150-21.8 158.4-22.9 8.8-1.2 13.1-10.7 9.9-21-2.2-7.2-62-155.1-64.8-163.2-2.1-6-10.1-6.5-12.8-0.7-0.7 1.7-19.9 43.1-19.9 43.1-105.3-49.9-247.5-45-335.4 61.4-12.2 14.7-7.1 30.8 11 15.7z m404.1 111.5c-70.8 58.8-145 40.6-263.9-36 5.4-11.6 17.4-37.4 17.9-38.5 2.4-5.3-1.1-14-7.4-12.9-5.8 1-149.8 21.7-158.2 22.9-8.8 1.2-13.1 10.7-9.9 20.9 2.2 7.2 61.9 154.8 64.7 162.9 2.1 5.9 10.1 6.4 12.8 0.7 0.7-1.7 19.9-43 19.9-43 105.2 49.7 247.3 44.9 335.1-61.3 12.2-14.7 7.1-30.7-11-15.7z" /></svg>