<svg height="512" width="512.0" xmlns="http://www.w3.org/2000/svg"><path d="m385.5 119.9h72.2l-104.2-103.9v71.5c0 17.9 14.3 32.4 32 32.4z m-22.8 23.2c-17.7 0-32-14.5-32-32.5l22.6-93.7-1-1h-265.4c-17.6 0-32 14.5-32 32.5v415.3c0 17.9 14.4 32.5 32 32.5h338.8c17.6 0 32-14.6 32-32.5v-341.1l-2.2-2.2-92.8 22.7z m-244.6 182.6l-32.9-51.7-0.1 0.2-6.6-10.3 0.1-0.2-0.3-0.6 6.6-10.4 0.4 0.5 32.6-51.3 14.3 10.3-24.9 51.4 25.1 51.6-14.3 10.5z m96-11.8h-18.8l-9.4-32.3-9.3 32.3h-18.9l16-50.5-16.1-47.1h19l9.2 29.2 10-29.2h18.6l-16 46.8 15.7 50.8z m43.2 2c-19 0-27.1-14.6-27.8-29.9l20.2-3.9c0 8.6 0.7 18.7 7.6 18.7 4.7 0 6-3.4 6-7.5 0-8.1-6-15.4-11.7-20.4l-6.2-5.2c-7.8-6.5-15.9-13.7-15.9-27.7 0-16 11.3-25.7 27.9-25.7 14 0 25.2 11.3 25.2 25.2 0 0.3-0.1 0.7-0.1 2.3l-20.6 2.8c0-1.2 0.1-2.4 0.1-4 0-4.6-1-11.2-6.3-11.2-4.7 0-6.5 4.5-6.5 8.6 0 7 3.7 11.3 8.4 15.2 2.5 2.1 5 4.1 7.3 6.2 10.2 9 17.8 18.1 17.8 33.2 0 14-11.7 23.3-25.4 23.3z m97.3-36c0 22.8-4.6 34-33 34h-20.4v-97.6h20.6c26.5 0 32.8 9.4 32.8 31.6v32z m79.6-16l-6.5 10.3-0.2-0.2-32.8 51.7-14.4-10.5 25.1-51.6-24.9-51.4 14.3-10.3 32.7 51.3 0.3-0.5 6.6 10.4-0.3 0.6 0.1 0.2z m-112.3-33.7h-0.7v69.9h0.4c10.2 0 13-0.6 13-9.3v-52.6c0-6.8-4.2-8-12.7-8z" /></svg>