<svg height="512" width="512.0" xmlns="http://www.w3.org/2000/svg"><path d="m0 420.6v-36.6q0-7.4 5.4-12.9t12.9-5.4h475.4q7.4 0 12.9 5.4t5.4 12.9v36.6q0 7.4-5.4 12.8t-12.9 5.5h-475.4q-7.4 0-12.9-5.5t-5.4-12.8z m0-109.7v-36.6q0-7.4 5.4-12.9t12.9-5.4h475.4q7.4 0 12.9 5.4t5.4 12.9v36.6q0 7.4-5.4 12.8t-12.9 5.4h-475.4q-7.4 0-12.9-5.4t-5.4-12.8z m0-109.8v-36.5q0-7.5 5.4-12.9t12.9-5.4h475.4q7.4 0 12.9 5.4t5.4 12.9v36.5q0 7.5-5.4 12.9t-12.9 5.4h-475.4q-7.4 0-12.9-5.4t-5.4-12.9z m0-109.7v-36.5q0-7.5 5.4-12.9t12.9-5.4h475.4q7.4 0 12.9 5.4t5.4 12.9v36.5q0 7.5-5.4 12.9t-12.9 5.4h-475.4q-7.4 0-12.9-5.4t-5.4-12.9z" /></svg>