<svg height="512" width="548.6" xmlns="http://www.w3.org/2000/svg"><path d="m18.3 384q0-7.4 5.4-12.9t12.9-5.4v-118.8q0-7.5 3.7-16.6t9.1-14.6l56.6-56.6q5.4-5.4 14.6-9.1t16.5-3.7h45.8v-91.4q0-7.5 5.4-12.9t12.8-5.4h329.2q7.4 0 12.8 5.4t5.5 12.9v329.1q0 7.4-5.5 12.9t-12.8 5.4h-54.9q0 30.3-21.4 51.7t-51.7 21.4-51.7-21.4-21.5-51.7h-109.7q0 30.3-21.4 51.7t-51.7 21.4-51.7-21.4-21.5-51.7h-36.5q-7.5 0-12.9-5.4t-5.4-12.9z m54.8-128h109.8v-73.1h-45.2q-4 0.5-6.3 2.5l-55.7 55.7q-2 3.5-2.6 6.3v8.6z m36.6 146.3q0 15.1 10.7 25.8t25.9 10.8 25.8-10.8 10.8-25.8-10.8-25.9-25.8-10.7-25.9 10.7-10.7 25.9z m146.3-192q0 4 2.6 6.6t6.5 2.5h64v64q0 4 2.6 6.6t6.6 2.6h54.8q4 0 6.6-2.6t2.6-6.6v-64h64q4 0 6.6-2.5t2.5-6.6v-54.9q0-4-2.5-6.5t-6.6-2.6h-64v-64q0-4-2.6-6.6t-6.6-2.6h-54.8q-4 0-6.6 2.6t-2.6 6.6v64h-64q-4 0-6.5 2.6t-2.6 6.5v54.9z m109.7 192q0 15.1 10.7 25.8t25.9 10.8 25.8-10.8 10.8-25.8-10.8-25.9-25.8-10.7-25.9 10.7-10.7 25.9z" /></svg>