<svg height="512" width="512.0" xmlns="http://www.w3.org/2000/svg"><path d="m0 438.9v-100.6q0-4 2.6-6.6t6.5-2.6h100.6q6.3 0 8.6 5.8 2.3 5.4-2 10l-28.6 28.5q19.2 26 54.2 43.9t77.5 23.6v-184.9h-54.8q-7.5 0-12.9-5.4t-5.4-12.9v-36.6q0-7.4 5.4-12.8t12.9-5.4h54.8v-46.6q-16.5-9.7-26.5-26.4t-10-36.8q0-30.2 21.4-51.7t51.7-21.4 51.7 21.4 21.4 51.7q0 20-10 36.8t-26.5 26.4v46.6h54.8q7.5 0 12.9 5.4t5.4 12.8v36.6q0 7.4-5.4 12.9t-12.9 5.4h-54.8v184.9q42.5-5.8 77.5-23.6t54.2-43.9l-28.6-28.5q-4.3-4.6-2-10 2.3-5.8 8.6-5.8h100.6q4 0 6.5 2.6t2.6 6.6v100.6q0 6.2-5.7 8.5-2.3 0.6-3.4 0.6-3.8 0-6.6-2.6l-26.6-26.5q-34 40.8-91 64.7t-122.7 23.8-122.7-23.8-91-64.7l-26.6 26.5q-2.6 2.6-6.6 2.6-1.1 0-3.4-0.6-5.7-2.3-5.7-8.5z m237.7-365.8q0 7.5 5.4 12.9t12.9 5.4 12.9-5.4 5.4-12.9-5.4-12.8-12.9-5.4-12.9 5.4-5.4 12.8z" /></svg>