<svg height="512" width="329.1" xmlns="http://www.w3.org/2000/svg"><path d="m22 374.9q0-3.8 2.9-6.6l133.1-133.2q2.9-2.8 6.6-2.8t6.5 2.8l133.2 133.2q2.8 2.8 2.8 6.6t-2.8 6.5l-14.3 14.3q-2.9 2.9-6.6 2.9t-6.5-2.9l-112.3-112.3-112.3 112.3q-2.9 2.9-6.6 2.9t-6.6-2.9l-14.2-14.3q-2.9-2.8-2.9-6.5z m0-109.8q0-3.7 2.9-6.5l133.1-133.2q2.9-2.8 6.6-2.8t6.5 2.8l133.2 133.2q2.8 2.8 2.8 6.5t-2.8 6.6l-14.3 14.3q-2.9 2.9-6.6 2.9t-6.5-2.9l-112.3-112.3-112.3 112.3q-2.9 2.9-6.6 2.9t-6.6-2.9l-14.2-14.3q-2.9-2.8-2.9-6.6z" /></svg>