<svg height="512" width="292.6" xmlns="http://www.w3.org/2000/svg"><path d="m12.9 274.3q0-3.7 2.8-6.6l133.2-133.1q2.8-2.9 6.5-2.9t6.6 2.9l14.3 14.3q2.8 2.8 2.8 6.5t-2.8 6.6l-112.3 112.3 112.3 112.3q2.8 2.8 2.8 6.5t-2.8 6.6l-14.3 14.3q-2.9 2.9-6.6 2.9t-6.5-2.9l-133.2-133.1q-2.8-2.9-2.8-6.6z m109.7 0q0-3.7 2.8-6.6l133.2-133.1q2.8-2.9 6.5-2.9t6.6 2.9l14.3 14.3q2.9 2.8 2.9 6.5t-2.9 6.6l-112.3 112.3 112.3 112.3q2.9 2.8 2.9 6.5t-2.9 6.6l-14.3 14.3q-2.8 2.9-6.6 2.9t-6.5-2.9l-133.2-133.1q-2.8-2.9-2.8-6.6z" /></svg>