<svg height="512" width="512.0" xmlns="http://www.w3.org/2000/svg"><path d="m0 256q0-7.4 5.4-12.9l73.2-73.1q5.4-5.4 12.8-5.4t12.9 5.4 5.4 12.9v36.5h109.7v-109.7h-36.5q-7.5 0-12.9-5.4t-5.4-12.9 5.4-12.8l73.1-73.2q5.5-5.4 12.9-5.4t12.9 5.4l73.1 73.2q5.4 5.4 5.4 12.8t-5.4 12.9-12.9 5.4h-36.5v109.7h109.7v-36.5q0-7.5 5.4-12.9t12.9-5.4 12.8 5.4l73.2 73.1q5.4 5.5 5.4 12.9t-5.4 12.9l-73.2 73.1q-5.4 5.4-12.8 5.4t-12.9-5.4-5.4-12.9v-36.5h-109.7v109.7h36.5q7.5 0 12.9 5.4t5.4 12.9-5.4 12.8l-73.1 73.2q-5.5 5.4-12.9 5.4t-12.9-5.4l-73.1-73.2q-5.4-5.4-5.4-12.8t5.4-12.9 12.9-5.4h36.5v-109.7h-109.7v36.5q0 7.5-5.4 12.9t-12.9 5.4-12.8-5.4l-73.2-73.1q-5.4-5.5-5.4-12.9z" /></svg>