<svg height="512" width="475.4" xmlns="http://www.w3.org/2000/svg"><path d="m35 322.1q3.9-14.7 17-22.1l76-44-76-44q-13.1-7.4-17-22.1t3.6-27.9l18.3-31.4q7.4-13.2 22.1-17t27.9 3.5l76 43.8v-87.8q0-14.8 10.8-25.7t25.7-10.8h36.6q14.9 0 25.7 10.8t10.9 25.7v87.8l76-43.8q13.1-7.4 27.8-3.5t22.2 17l18.3 31.4q7.4 13.1 3.5 27.9t-17 22.1l-76 44 76 44q13.2 7.4 17 22.1t-3.5 27.9l-18.3 31.4q-7.5 13.2-22.2 17t-27.8-3.5l-76-43.8v87.8q0 14.8-10.9 25.7t-25.7 10.8h-36.6q-14.8 0-25.7-10.8t-10.8-25.7v-87.8l-76 43.8q-13.2 7.4-27.9 3.5t-22.1-17l-18.3-31.4q-7.5-13.1-3.6-27.9z" /></svg>