<svg height="512" width="365.7" xmlns="http://www.w3.org/2000/svg"><path d="m16 438.9l8.9-52.3h31.7q14.3 0 16.5-14.6v-114.9h4.6q-1.7-0.2-4.6-0.2v-82q-3.7-19.5-25.4-19.5h-31.7v-46.8l60.6 0.3q18.3 0 27.7-0.3v-72h44v70.5q23.4-0.5 34.8-0.5v-70h44v72q22.6 2 40 6.4t32.3 12.9 23.6 22.2 10.4 32.8q5.2 52-37.4 73.7 33.4 8 50 29.4t12.9 61.1q-2 20.3-9.3 35.8t-18.5 25.4-27.7 16.7-34.7 9.9-41.6 4.2v72.9h-44v-71.7q-22.8 0-34.8-0.3v72h-44v-72.9q-5.2 0-15.4-0.1t-15.8-0.1h-57.1z m133.1-52q2.3 0 10.6 0.1t13.7 0.1 15.2-0.4 16.7-1.1 16.3-2.5 15.8-4 13.6-6 11.3-8.5 7-11.5 2.7-14.5q0-10.3-4.3-18.3t-10.6-13.2-16.4-8.7-18.7-5.3-21.1-2.5-19.8-0.9-18.4 0.3-13.6 0.3v96.6z m0-140.6q1.5 0 9.9 0.1t13.3 0 14.3-0.5 15.7-1.6 14.7-3.2 13.9-5.2 10.5-7.8 7.7-11 2.6-14.5q0-9.5-3.6-16.7t-8.7-12-13.7-8-15.7-4.8-17.6-2.2-16.5-0.8-15.5 0.3-11.3 0.2v87.7z" /></svg>