<svg height="512" width="475.4" xmlns="http://www.w3.org/2000/svg"><path d="m9.1 274.3q0-7.4 5.5-12.9t12.8-5.4h64v-84l-49.4-49.4q-5.4-5.5-5.4-12.9t5.4-12.8 12.9-5.5 12.8 5.5l49.4 49.4h241.2l49.4-49.4q5.4-5.5 12.9-5.5t12.8 5.5 5.5 12.8-5.5 12.9l-49.4 49.4v84h64q7.4 0 12.9 5.4t5.4 12.9-5.4 12.8-12.9 5.5h-64q0 48.8-19.1 82.8l59.4 59.7q5.4 5.5 5.4 12.9t-5.4 12.9q-5.2 5.4-12.9 5.4t-12.8-5.4l-56.6-56.3q-1.4 1.4-4.3 3.7t-12 8.1-18.6 10.5-23.4 8.2-27.7 3.8v-256h-36.6v256q-14.5 0-29-3.9t-24.8-9.4-18.9-11.2-12.4-9.3l-4.3-4-52.3 59.2q-5.7 6-13.7 6-6.9 0-12.3-4.6-5.4-5.1-5.8-12.7t4.4-13.3l57.7-64.8q-16.6-32.6-16.6-78.3h-64q-7.4 0-12.8-5.5t-5.5-12.8z m137.2-164.6q0-38 26.7-64.7t64.7-26.7 64.7 26.7 26.7 64.7h-182.8z" /></svg>