<svg height="512" width="438.9" xmlns="http://www.w3.org/2000/svg"><path d="m0 493.7v-475.4q0-7.4 5.4-12.9t12.9-5.4h365.7q7.4 0 12.9 5.4t5.4 12.9v475.4q0 7.4-5.4 12.9t-12.9 5.4h-365.7q-7.4 0-12.9-5.4t-5.4-12.9z m73.1-100.6q0 4 2.6 6.6t6.6 2.6h18.3q4 0 6.5-2.6t2.6-6.6v-18.2q0-4-2.6-6.6t-6.5-2.6h-18.3q-4 0-6.6 2.6t-2.6 6.6v18.2z m0-73.1q0 4 2.6 6.6t6.6 2.5h18.3q4 0 6.5-2.5t2.6-6.6v-18.3q0-4-2.6-6.6t-6.5-2.5h-18.3q-4 0-6.6 2.5t-2.6 6.6v18.3z m0-73.1q0 4 2.6 6.5t6.6 2.6h18.3q4 0 6.5-2.6t2.6-6.5v-18.3q0-4-2.6-6.6t-6.5-2.6h-18.3q-4 0-6.6 2.6t-2.6 6.6v18.3z m0-73.2q0 4 2.6 6.6t6.6 2.6h18.3q4 0 6.5-2.6t2.6-6.6v-18.3q0-4-2.6-6.5t-6.5-2.6h-18.3q-4 0-6.6 2.6t-2.6 6.5v18.3z m0-73.1q0 4 2.6 6.5t6.6 2.6h18.3q4 0 6.5-2.6t2.6-6.5v-18.3q0-4-2.6-6.6t-6.5-2.6h-18.3q-4 0-6.6 2.6t-2.6 6.6v18.3z m73.2 310.8v54.9q0 4 2.6 6.6t6.5 2.5h91.5q4 0 6.5-2.5t2.6-6.6v-54.9q0-4-2.6-6.5t-6.5-2.6h-91.5q-4 0-6.5 2.6t-2.6 6.5z m0-91.4q0 4 2.6 6.6t6.5 2.5h18.3q4 0 6.6-2.5t2.6-6.6v-18.3q0-4-2.6-6.6t-6.6-2.5h-18.3q-4 0-6.5 2.5t-2.6 6.6v18.3z m0-73.1q0 4 2.6 6.5t6.5 2.6h18.3q4 0 6.6-2.6t2.6-6.5v-18.3q0-4-2.6-6.6t-6.6-2.6h-18.3q-4 0-6.5 2.6t-2.6 6.6v18.3z m0-73.2q0 4 2.6 6.6t6.5 2.6h18.3q4 0 6.6-2.6t2.6-6.6v-18.3q0-4-2.6-6.5t-6.6-2.6h-18.3q-4 0-6.5 2.6t-2.6 6.5v18.3z m0-73.1q0 4 2.6 6.5t6.5 2.6h18.3q4 0 6.6-2.6t2.6-6.5v-18.3q0-4-2.6-6.6t-6.6-2.6h-18.3q-4 0-6.5 2.6t-2.6 6.6v18.3z m73.1 219.4q0 4 2.6 6.6t6.6 2.5h18.3q4 0 6.5-2.5t2.6-6.6v-18.3q0-4-2.6-6.6t-6.5-2.5h-18.3q-4 0-6.6 2.5t-2.6 6.6v18.3z m0-73.1q0 4 2.6 6.5t6.6 2.6h18.3q4 0 6.5-2.6t2.6-6.5v-18.3q0-4-2.6-6.6t-6.5-2.6h-18.3q-4 0-6.6 2.6t-2.6 6.6v18.3z m0-73.2q0 4 2.6 6.6t6.6 2.6h18.3q4 0 6.5-2.6t2.6-6.6v-18.3q0-4-2.6-6.5t-6.5-2.6h-18.3q-4 0-6.6 2.6t-2.6 6.5v18.3z m0-73.1q0 4 2.6 6.5t6.6 2.6h18.3q4 0 6.5-2.6t2.6-6.5v-18.3q0-4-2.6-6.6t-6.5-2.6h-18.3q-4 0-6.6 2.6t-2.6 6.6v18.3z m73.2 292.5q0 4 2.5 6.6t6.6 2.6h18.3q4 0 6.6-2.6t2.5-6.6v-18.2q0-4-2.5-6.6t-6.6-2.6h-18.3q-4 0-6.6 2.6t-2.5 6.6v18.2z m0-73.1q0 4 2.5 6.6t6.6 2.5h18.3q4 0 6.6-2.5t2.5-6.6v-18.3q0-4-2.5-6.6t-6.6-2.5h-18.3q-4 0-6.6 2.5t-2.5 6.6v18.3z m0-73.1q0 4 2.5 6.5t6.6 2.6h18.3q4 0 6.6-2.6t2.5-6.5v-18.3q0-4-2.5-6.6t-6.6-2.6h-18.3q-4 0-6.6 2.6t-2.5 6.6v18.3z m0-73.2q0 4 2.5 6.6t6.6 2.6h18.3q4 0 6.6-2.6t2.5-6.6v-18.3q0-4-2.5-6.5t-6.6-2.6h-18.3q-4 0-6.6 2.6t-2.5 6.5v18.3z m0-73.1q0 4 2.5 6.5t6.6 2.6h18.3q4 0 6.6-2.6t2.5-6.5v-18.3q0-4-2.5-6.6t-6.6-2.6h-18.3q-4 0-6.6 2.6t-2.5 6.6v18.3z" /></svg>