<svg height="512" width="512.0" xmlns="http://www.w3.org/2000/svg"><path d="m0 246.9v-54.9q0-18.9 13.4-32.3t32.3-13.4h137.2q124.2 0 256-109.7 14.8 0 25.7 10.8t10.8 25.7v109.8q15.2 0 25.9 10.7t10.7 25.8-10.7 25.9-25.9 10.7v109.7q0 14.9-10.8 25.7t-25.7 10.9q-119.2-99.2-232-108.6-16.6 5.4-26 18.9t-8.9 28.7 11.4 26.4q-5.7 9.4-6.5 18.7t1.7 16.6 9.5 15.7 13.8 14.3 17.5 14.4q-8.3 16.6-31.8 23.7t-48.2 3.3-37.7-15.8q-2-6.6-8.4-25t-9.2-27-6.5-25.5-4.3-28.8 1-28.2 6.3-31.5h-34.9q-18.8 0-32.3-13.5t-13.4-32.2z m219.4 11.1q107.7 12 219.5 97.4v-272.5q-112.6 86.2-219.5 98v77.1z" /></svg>