<svg height="512" width="566.9" xmlns="http://www.w3.org/2000/svg"><path d="m0 429.7v-109.7q0-26.6 18.7-45.3t45.3-18.7h8l30-119.7q6.6-26.9 29.7-45t51.2-18.2h36.5v-64q0-4 2.6-6.5t6.6-2.6h128q4 0 6.5 2.6t2.6 6.5v64h18.3q28 0 51.1 18.2t29.8 45l30 119.7h8q26.5 0 45.2 18.7t18.8 45.3v109.7q0 4-2.6 6.6t-6.6 2.6h-36.6v18.2q0 22.9-16 38.9t-38.8 16-38.9-16-16-38.9v-18.2h-265.1v18.2q0 22.9-16 38.9t-38.9 16-38.8-16-16-38.9v-18.2h-27.5q-4 0-6.5-2.6t-2.6-6.6z m45.7-82.3q0 18.9 13.4 32.3t32.3 13.4 32.3-13.4 13.4-32.3-13.4-32.3-32.3-13.4-32.3 13.4-13.4 32.3z m101.7-91.4h272l-25.4-102q-0.6-2.3-4-5t-6-2.7h-201.1q-2.6 0-6 2.7t-4 5z m273.2 91.4q0 18.9 13.4 32.3t32.3 13.4 32.3-13.4 13.4-32.3-13.4-32.3-32.3-13.4-32.3 13.4-13.4 32.3z" /></svg>