<svg height="512" width="475.4" xmlns="http://www.w3.org/2000/svg"><path d="m0 475.4v-365.7q0-14.8 10.9-25.7t25.7-10.9h36.5v-27.4q0-18.8 13.5-32.3t32.3-13.4h18.2q18.9 0 32.3 13.4t13.5 32.3v27.4h109.7v-27.4q0-18.8 13.4-32.3t32.3-13.4h18.3q18.8 0 32.3 13.4t13.4 32.3v27.4h36.6q14.8 0 25.7 10.9t10.8 25.7v365.7q0 14.9-10.8 25.7t-25.7 10.9h-402.3q-14.9 0-25.7-10.9t-10.9-25.7z m36.6 0h402.3v-292.5h-402.3v292.5z m73.1-347.4q0 4 2.6 6.6t6.6 2.5h18.2q4 0 6.6-2.5t2.6-6.6v-82.3q0-4-2.6-6.6t-6.6-2.5h-18.2q-4 0-6.6 2.5t-2.6 6.6v82.3z m219.4 0q0 4 2.6 6.6t6.6 2.5h18.3q4 0 6.5-2.5t2.6-6.6v-82.3q0-4-2.6-6.6t-6.5-2.5h-18.3q-4 0-6.6 2.5t-2.6 6.6v82.3z" /></svg>