<svg height="512" width="566.9" xmlns="http://www.w3.org/2000/svg"><path d="m0 393.1v-109.7q0-26.5 18.7-45.3t45.3-18.7h8l30-119.7q6.6-26.8 29.7-45t51.2-18.1h201.1q28 0 51.1 18.1t29.8 45l30 119.7h8q26.5 0 45.2 18.7t18.8 45.3v109.7q0 4-2.6 6.6t-6.6 2.6h-36.6v36.6q0 22.8-16 38.8t-38.8 16-38.9-16-16-38.8v-36.6h-265.1v36.6q0 22.8-16 38.8t-38.9 16-38.8-16-16-38.8v-36.6h-27.5q-4 0-6.5-2.6t-2.6-6.6z m45.7-82.2q0 18.8 13.4 32.2t32.3 13.5 32.3-13.5 13.4-32.2-13.4-32.3-32.3-13.5-32.3 13.5-13.4 32.3z m101.7-91.5h272l-25.4-102q-0.6-2.3-4-5t-6-2.7h-201.1q-2.6 0-6 2.7t-4 5z m273.2 91.5q0 18.8 13.4 32.2t32.3 13.5 32.3-13.5 13.4-32.2-13.4-32.3-32.3-13.5-32.3 13.5-13.4 32.3z" /></svg>