<svg height="512" width="475.4" xmlns="http://www.w3.org/2000/svg"><path d="m0 310.9q0-4 2.6-6.6t6.5-2.6h91.5q4 0 6.5 2.6t2.6 6.6-2.6 6.5-6.5 2.6h-91.5q-4 0-6.5-2.6t-2.6-6.5z m4.6-182.9q0-34.3 24.3-58l42-41.7q23.7-23.7 58-23.7 34.5 0 58.2 24.3l95.5 95.7q6 6 12 16l-68.3 5.1-78-78.3q-8-8-19.4-8-11.2 0-19.5 7.7l-42 41.8q-8 8-8 19.1 0 11.4 8 19.4l78.3 78.3-5.1 68.6q-10-6-16-12l-96-96q-24-24.6-24-58.3z m32 301.7q0-3.7 2.5-6.6l73.2-73.1q2.8-2.6 6.6-2.6t6.5 2.6q2.6 2.9 2.6 6.6t-2.6 6.5l-73.1 73.2q-2.9 2.6-6.6 2.6-3.4 0-6.6-2.6-2.5-2.9-2.5-6.6z m118.8 36.6v-91.4q0-4 2.6-6.6t6.6-2.6 6.5 2.6 2.6 6.6v91.4q0 4-2.6 6.6t-6.5 2.5-6.6-2.5-2.6-6.6z m25.5-131.4l68.2-5.2 78 78.3q7.8 7.7 19.5 7.9t19.4-7.6l42-41.7q8-8 8-19.2 0-11.4-8-19.4l-78.3-78.6 5.2-68.3q10 6 16 12l96 96q24 24.6 24 58.3 0 34.3-24.3 58l-42 41.7q-23.7 23.8-58 23.8-34.6 0-58.3-24.3l-95.4-95.7q-6-6-12-16z m120.8-234.3v-91.5q0-4 2.6-6.5t6.6-2.6 6.5 2.6 2.6 6.5v91.5q0 4-2.6 6.5t-6.5 2.6-6.6-2.6-2.6-6.5z m45.7 18.3q0-3.8 2.6-6.6l73.1-73.2q2.9-2.5 6.6-2.5t6.6 2.5q2.6 2.9 2.6 6.6t-2.6 6.6l-73.2 73.1q-3.1 2.6-6.5 2.6t-6.6-2.6q-2.6-2.8-2.6-6.5z m18.3 45.7q0-4 2.6-6.6t6.6-2.6h91.4q4 0 6.6 2.6t2.5 6.6-2.5 6.5-6.6 2.6h-91.4q-4 0-6.6-2.6t-2.6-6.5z" /></svg>