<svg height="512" width="475.4" xmlns="http://www.w3.org/2000/svg"><path d="m0 356.6v-237.7q0-34 24.1-58.2t58.2-24.1h237.7q18 0 33.4 7.1 4.3 2 5.2 6.6 0.8 4.8-2.6 8.3l-14 14q-2.9 2.8-6.6 2.8-0.8 0-2.5-0.5-6.6-1.8-12.9-1.8h-237.7q-18.9 0-32.3 13.5t-13.4 32.3v237.7q0 18.8 13.4 32.3t32.3 13.4h237.7q18.9 0 32.3-13.4t13.4-32.3v-72.6q0-3.7 2.6-6.3l18.3-18.3q2.8-2.8 6.5-2.8 1.8 0 3.5 0.8 5.7 2.3 5.7 8.3v90.9q0 34-24.2 58.1t-58.1 24.2h-237.7q-34 0-58.2-24.2t-24.1-58.1z m73.4-137.2q0-9.4 6.9-16.3l31.4-31.4q6.9-6.8 16.3-6.8t16.3 6.8l75.1 75.2 184.9-184.9q6.8-6.9 16.3-6.9t16.3 6.9l31.4 31.4q6.8 6.9 6.8 16.3t-6.8 16.3l-232.6 232.6q-6.8 6.8-16.3 6.8t-16.3-6.8l-122.8-122.9q-6.9-6.8-6.9-16.3z" /></svg>