<svg height="512" width="512.0" xmlns="http://www.w3.org/2000/svg"><path d="m0 411.4v-384q0-11.4 8-19.4t19.4-8h310.9q11.4 0 19.4 8t8 19.4v93.7q6 3.8 10.3 8l116.6 116.6q8 8 13.7 21.7t5.7 25.2v192q0 11.4-8 19.4t-19.4 8h-274.3q-11.4 0-19.4-8t-8-19.4v-45.7h-155.5q-11.4 0-19.4-8t-8-19.5z m73.1-347.4q0 3.7 2.8 6.4t6.4 2.7h201.1q3.7 0 6.5-2.7t2.7-6.4v-18.3q0-3.7-2.7-6.4t-6.5-2.7h-201.1q-3.7 0-6.4 2.7t-2.8 6.4v18.3z m146.3 411.4h256v-182.8h-118.8q-11.5 0-19.5-8t-8-19.5v-118.8h-109.7v329.1z m146.3-219.4h85.4l-85.4-85.4v85.4z" /></svg>