<svg height="512" width="548.6" xmlns="http://www.w3.org/2000/svg"><path d="m0 310.9q0-37.2 20-68.6t53.7-47.2q-0.6-8.5-0.6-12.2 0-60.6 42.9-103.5t103.4-42.8q44.6 0 81.6 24.8t53.9 66q20.2-17.7 47.4-17.7 30.3 0 51.7 21.4t21.4 51.8q0 21.7-11.7 39.4 37.2 8.8 61 38.7t23.9 68.1q0 45.5-32.2 77.6t-77.5 32.2h-310.9q-52.9 0-90.4-37.6t-37.6-90.4z m146.3-45.8q0 4 2.6 6.6l100.5 100.6q2.6 2.6 6.6 2.6t6.6-2.6l100.3-100.3q2.8-3.4 2.8-6.9 0-4-2.6-6.5t-6.5-2.6h-64v-100.6q0-3.7-2.7-6.4t-6.5-2.7h-54.8q-3.7 0-6.5 2.7t-2.7 6.4v100.6h-64q-3.7 0-6.4 2.7t-2.7 6.4z" /></svg>