<svg height="512" width="548.6" xmlns="http://www.w3.org/2000/svg"><path d="m0 282v-52.9q0-2.8 2-5.5t4.6-3l44.3-6.9q3.1-10 9.1-21.7-9.7-13.7-25.7-32.9-2-3.1-2-5.7 0-3.4 2-5.7 6.3-8.6 23.4-25.4t22.6-16.9q3.1 0 6 2l32.8 25.7q9.8-5.1 22-9.1 3.2-30.9 6.6-44 2-6.9 8.6-6.9h53.1q3.2 0 5.7 2.2t2.9 5l6.6 43.7q9.7 2.9 21.4 8.9l33.7-25.5q2.3-2 5.7-2 3.2 0 6 2.3 41.2 38 41.2 45.7 0 2.6-2 5.5-3.5 4.5-12 15.4t-12.9 17.1q6.6 13.7 9.7 23.5l43.5 6.5q2.8 0.6 4.8 3t2 5.6v52.9q0 2.8-2 5.5t-4.6 3l-44.2 6.9q-3.2 10-9.2 21.7 9.7 13.7 25.7 32.9 2 2.8 2 5.7 0 3.4-2 5.4-6.5 8.6-23.5 25.6t-22.5 17q-3.1 0-6-2l-32.8-25.7q-10.6 5.4-22 8.8-3.2 30.9-6.6 44.3-2 6.9-8.6 6.9h-53.1q-3.2 0-5.7-2.2t-2.9-5l-6.6-43.7q-9.7-2.9-21.4-8.9l-33.7 25.5q-2 2-5.7 2-3.2 0-6-2.3-41.2-38-41.2-45.7 0-2.6 2-5.5 2.9-4 11.8-15.1t13.4-17.4q-6.6-12.6-10-23.5l-43.4-6.8q-2.9-0.3-4.9-2.7t-2-5.6z m109.7-26q0 30.3 21.4 51.7t51.8 21.4 51.7-21.4 21.4-51.7-21.4-51.7-51.7-21.4-51.8 21.4-21.4 51.7z m219.4 166.3v-40q0-4.6 42.6-8.9 3.7-8.3 8.6-14.8-14.6-32.3-14.6-39.5 0-1.1 1.2-2 1.1-0.5 10-5.7t16.8-9.7 8.6-4.6q2.3 0 13.1 13.3t14.9 19.3q5.7-0.6 8.6-0.6t8.5 0.6q14.6-20.3 26.3-32l1.7-0.6q1.2 0 35.5 20 1.1 0.9 1.1 2 0 7.2-14.6 39.5 4.9 6.5 8.6 14.8 42.6 4.3 42.6 8.9v40q0 4.6-42.6 8.8-3.4 7.8-8.6 14.9 14.6 32.3 14.6 39.4 0 1.2-1.1 2-34.9 20.3-35.5 20.3-2.3 0-13.1-13.4t-14.9-19.4q-5.7 0.5-8.5 0.5t-8.6-0.5q-4 6-14.9 19.4t-13.1 13.4q-0.6 0-35.4-20.3-1.2-0.8-1.2-2 0-7.1 14.6-39.4-5.2-7.1-8.6-14.9-42.6-4.2-42.6-8.8z m0-292.6v-40q0-4.6 42.6-8.8 3.7-8.3 8.6-14.9-14.6-32.3-14.6-39.4 0-1.2 1.2-2 1.1-0.6 10-5.7t16.8-9.8 8.6-4.5q2.3 0 13.1 13.3t14.9 19.2q5.7-0.5 8.6-0.5t8.5 0.5q14.6-20.2 26.3-32l1.7-0.5q1.2 0 35.5 20 1.1 0.8 1.1 2 0 7.1-14.6 39.4 4.9 6.6 8.6 14.9 42.6 4.2 42.6 8.8v40q0 4.6-42.6 8.9-3.4 7.7-8.6 14.8 14.6 32.3 14.6 39.5 0 1.1-1.1 2-34.9 20.2-35.5 20.2-2.3 0-13.1-13.4t-14.9-19.4q-5.7 0.6-8.5 0.6t-8.6-0.6q-4 6-14.9 19.4t-13.1 13.4q-0.6 0-35.4-20.2-1.2-0.9-1.2-2 0-7.2 14.6-39.5-5.2-7.1-8.6-14.8-42.6-4.3-42.6-8.9z m73.2 272.6q0 15.1 10.7 25.8t25.9 10.8 25.8-10.8 10.7-25.8q0-14.9-10.8-25.7t-25.7-10.9-25.8 10.9-10.8 25.7z m0-292.6q0 15.2 10.7 25.9t25.9 10.7 25.8-10.7 10.7-25.9q0-14.8-10.8-25.7t-25.7-10.9-25.8 10.9-10.8 25.7z" /></svg>