<svg height="512" width="512.0" xmlns="http://www.w3.org/2000/svg"><path d="m0 219.4q0-39.7 26.9-73.4t73.2-53.3 101-19.6 101 19.6 73.3 53.3 26.9 73.4-26.9 73.5-73.3 53.2-101 19.6q-24.5 0-50.2-4.6-35.5 25.2-79.5 36.6-10.3 2.6-24.5 4.6h-0.9q-3.1 0-5.9-2.3t-3.2-6q-0.3-0.9-0.3-1.9t0.1-1.8 0.6-1.7l0.7-1.5t1-1.5 1.1-1.5 1.3-1.4 1.2-1.3q1.4-1.7 6.5-7.1t7.5-8.4 6.4-8.3 7.1-11 5.9-12.6q-35.4-20.6-55.7-50.6t-20.3-64z m176 181.7q16.6 1.2 25.1 1.2 46 0 88.3-12.9t75.5-36.8q35.7-26.3 54.8-60.6t19.2-72.6q0-22-6.6-43.4 36.8 20.3 58.3 50.9t21.4 65.7q0 34.3-20.3 64.1t-55.7 50.4q2.9 6.9 5.9 12.6t7.1 11 6.4 8.3 7.5 8.4 6.5 7.2q0.3 0.3 1.2 1.3t1.3 1.4 1.1 1.4 1 1.6l0.7 1.4t0.6 1.7 0.1 1.9-0.3 1.8q-0.8 4-3.7 6.3t-6.3 2q-14.2-2-24.5-4.5-44-11.5-79.5-36.6-25.7 4.6-50.2 4.6-77.5 0-134.9-37.8z" /></svg>