<svg height="512" width="438.9" xmlns="http://www.w3.org/2000/svg"><path d="m0 274.3v-36.6q0-7.4 5.4-12.8t12.9-5.5h40.8q10.6-46 44.2-79.5t79.6-44.2v-40.8q0-7.5 5.4-12.9t12.8-5.4h36.6q7.4 0 12.9 5.4t5.4 12.9v40.8q46 10.6 79.6 44.2t44.1 79.5h40.9q7.4 0 12.8 5.5t5.5 12.8v36.6q0 7.4-5.5 12.8t-12.8 5.5h-40.9q-10.6 46-44.1 79.5t-79.6 44.2v40.8q0 7.5-5.4 12.9t-12.9 5.4h-36.6q-7.4 0-12.8-5.4t-5.4-12.9v-40.8q-46-10.6-79.6-44.2t-44.2-79.5h-40.8q-7.4 0-12.9-5.5t-5.4-12.8z m96.9 18.3q9.1 30.8 32.1 53.8t53.9 32.2v-31.2q0-7.4 5.4-12.8t12.8-5.5h36.6q7.4 0 12.9 5.5t5.4 12.8v31.2q30.9-9.2 53.9-32.2t32.1-53.8h-31.1q-7.5 0-12.9-5.5t-5.4-12.8v-36.6q0-7.4 5.4-12.8t12.9-5.5h31.1q-9.1-30.8-32.1-53.8t-53.9-32.2v31.2q0 7.4-5.4 12.8t-12.9 5.5h-36.6q-7.4 0-12.8-5.5t-5.4-12.8v-31.2q-30.9 9.2-53.9 32.2t-32.1 53.8h31.1q7.4 0 12.9 5.5t5.4 12.8v36.6q0 7.4-5.4 12.8t-12.9 5.5h-31.1z" /></svg>