<svg height="512" width="658.3" xmlns="http://www.w3.org/2000/svg"><path d="m0 411.4v-118.8q0-10.9 6.1-20t16.2-13.7l124-53.2v-114.3q0-10.8 6.1-20t16.2-13.7l128-54.8q6.5-2.9 14.3-2.9t14.2 2.9l128 54.8q10 4.6 16.2 13.7t6.1 20v114.3l124 53.2q10.3 4.5 16.3 13.7t6 20v118.8q0 10.3-5.4 19.2t-14.9 13.4l-128 64q-7.1 4-16.3 4t-16.2-4l-128-64q-1.5-0.6-2-1.1-0.6 0.5-2 1.1l-128 64q-7.2 4-16.3 4t-16.3-4l-128-64q-9.4-4.6-14.9-13.4t-5.4-19.2z m49.1-124.3l115.5 49.5 115.4-49.5-115.4-49.4z m133.8 179.2l109.7-54.9v-89.7l-109.7 46.9v97.7z m2-375.7l126 54 126-54-126-54z m144.2 162.3l109.8-47.2v-76l-109.8 46.9v76.3z m12.6 34.2l115.4 49.5 115.5-49.5-115.5-49.4z m133.7 179.2l109.7-54.9v-89.7l-109.7 46.9v97.7z" /></svg>