<svg height="512" width="475.4" xmlns="http://www.w3.org/2000/svg"><path d="m0 411.4v-91.4q0-11.4 8-19.4t19.4-8h132.9l38.6 38.8q16.5 16 38.8 16t38.9-16l38.8-38.8h132.6q11.4 0 19.4 8t8 19.4v91.4q0 11.5-8 19.5t-19.4 8h-420.6q-11.4 0-19.4-8t-8-19.5z m92.9-254q4.8-11.1 16.8-11.1h73.2v-128q0-7.4 5.4-12.9t12.8-5.4h73.2q7.4 0 12.8 5.4t5.5 12.9v128h73.1q12 0 16.9 11.1 4.8 11.7-4 20l-128 128q-5.2 5.5-12.9 5.5t-12.8-5.5l-128-128q-8.9-8.3-4-20z m236.2 226.6q0 7.4 5.5 12.9t12.8 5.4 12.9-5.4 5.4-12.9-5.4-12.9-12.9-5.4-12.8 5.4-5.5 12.9z m73.2 0q0 7.4 5.4 12.9t12.9 5.4 12.8-5.4 5.5-12.9-5.5-12.9-12.8-5.4-12.9 5.4-5.4 12.9z" /></svg>