<svg height="512" width="438.9" xmlns="http://www.w3.org/2000/svg"><path d="m0 290.3q0-25.4 5.6-49.3t14-41.6 20.1-33.8 22.4-26.9 22.5-19.8 18.4-13.3 12.1-7q4-2.3 14.6-7.6t15.6-8.1 13.7-8.6 17.3-12.6q10.3-8 16.6-20.7t8.5-35.9q36.9 44.3 53.2 55.2 12.5 8.3 37.1 19.4t36.9 18.9q6 3.7 11.1 7.1t17.3 13.3 21.7 20.1 21.4 27.2 19.8 34.8 13.4 42.5 5.6 50.7q0 46.8-17.8 87t-47.4 67.4-69.3 42.7-83 15.5-83.7-16.5-70.7-44.8-48.7-69-18.3-86.3z m95.1 75.4q-0.5 32 21.2 46.9 8.3 5.7 17.8 8.1t29.6 2.4q16.3 0 37.7-9.2t38.3-20.3 34.3-20.2 26.6-8.8q7.4 0.3 18.5 9t20.5 19.1 19.4 19.3 15.9 9.1q10 0.9 16.7-4t15.8-18q8-11.7 12.2-28.8t4.1-30.3q0-6.3-1.4-12.7t-4.7-12.9-9.7-10.4-15-4q-9.5 0-27.8 11.9t-36.8 23.8-28.9 12q-7.7 0.3-18.1-5.4t-21.7-14-23.9-16.6-28.6-14-31.7-5.4q-32.8 0.3-56.3 22.4t-24 51z m100.8 94.9q-0.2 2.8 2.1 5.7 9.7 9.1 25 13.1t29.3 3.6 28.3-1.3q11.7-1.1 24.1-5.8t18.6-8.6 8.1-5.9q3.5-3.4 2-8.3-1.4-5.4-6.8-1.4-8.6 6.3-24.9 11.2t-37.4 4.8q-36.9 0-55.2-14-1.4-1.1-3.7-1.1-3.1 0-7.4 3.4-2 1.7-2.1 4.6z m47.5-30.6q2.6 2.3 5 1.3t9-6.7q0.9-0.6 3-2.5t3-2.4 2.9-2 3.3-2 3.5-1.4 4.3-1.3 4.7-0.7 5.9-0.3q7.7 0 12.7 2.1t6.6 4.2 3.8 6.3q2.9 4.8 3.6 5.7t3.6-0.3q6.6-3.4 4-9.7-5.4-13.4-11.2-17.4-6.5-4.3-21.7-4.3-13.4 0-20.3 2.8-8.2 3.5-22.2 16-7.5 6.9-3.5 12.6z" /></svg>