<svg height="512" width="512.0" xmlns="http://www.w3.org/2000/svg"><path d="m0 256q0-52 20.3-99.4t54.6-81.7 81.7-54.6 99.4-20.3 99.4 20.3 81.7 54.6 54.6 81.7 20.3 99.4-20.3 99.4-54.6 81.7-81.7 54.6-99.4 20.3-99.4-20.3-81.7-54.6-54.6-81.7-20.3-99.4z m12.6 0q0 49.4 19.3 94.6t51.8 77.7 77.7 51.8 94.6 19.3 94.6-19.3 77.7-51.8 51.8-77.7 19.3-94.6-19.3-94.6-51.8-77.7-77.7-51.8-94.6-19.3-94.6 19.3-77.7 51.8-51.8 77.7-19.3 94.6z m12.3 0q0-58.6 28-110l16.2 9.4q-8.5 16-14 32l23.5 8q-10 28.6-10 60.6 0 31.1 10.3 60.6l-23.8 8q6.3 17.1 14 32l-16.2 9.4q-28-51.4-28-110z m34 120.9l16.5-9.8q8.3 14 20.9 28.3l18.6-16.3q42.2 48 105.1 60.6l-4.9 24.6q18.6 3.4 34.6 3.7v18.9q-59.4-1.8-110-31.3t-80.8-78.7z m0.2-241.8q30.3-49.1 80.6-78.7t110-31.3v18.9q-18.6 0.6-34.6 3.7l4.9 24.6q-62.9 12-105.1 60.3l-18.6-16q-10.9 12-20.9 28z m59.5 73.8q9.4-26.6 28.3-48.3l52.8 46.3q16.9-19.5 42-24.6l-13.7-68.6q12.6-2.8 28-2.8t28 2.8l-13.7 68.6q25.1 5.1 42 24.6l52.8-46.3q18.9 21.7 28.3 48.3l-66.5 22.8q4 12 4 24.3t-4 24.3l66.2 22.8q-8.8 26.3-28 48.3l-52.8-46.3q-16.3 19.2-42 24.3l13.7 68.9q-14.9 2.8-28 2.8t-28-2.8l13.7-68.9q-25.7-5.1-42-24.3l-52.8 46.3q-19.2-22-28-48.3l66.2-22.8q-4-12-4-24.3t4-24.3z m143.7 259.1q16-0.3 34.6-3.7l-4.9-24.6q62.9-12.6 105.1-60.6l18.6 16.3q12.6-14.3 20.9-28.3l16.5 9.8q-30.2 49.1-80.8 78.7t-110 31.3v-18.9z m0-424v-18.9q59.7 1.8 110 31.3t80.6 78.7l-16.3 9.5q-10-16-20.9-28l-18.6 16q-42.2-48.3-105.1-60.3l4.9-24.6q-16-3.1-34.6-3.7z m170.8 272.6q10.3-29.5 10.3-60.6 0-32-10-60.6l23.5-8q-5.5-16-14-32l16.2-9.4q28 51.4 28 110t-28 110l-16.2-9.4q7.7-14.9 14-32z" /></svg>