<svg height="512" width="292.6" xmlns="http://www.w3.org/2000/svg"><path d="m0 292v-32.3q0-3.7 2.7-6.4t6.4-2.7h18.9q-0.6-16.3 0.3-30h-19.2q-4 0-6.5-2.6t-2.6-6.6v-32.5q0-4 2.6-6.6t6.5-2.6h28q19.2-60 69.6-96.6t114.4-36.5q29.2 0 55.5 6.5 3.1 0.9 5.7 4.3 1.7 3.2 0.8 6.9l-12.2 45.4q-0.9 3.7-4 5.6t-6.9 0.7l-1.1-0.3q-1.2-0.3-3.3-0.7l-5-1t-6.5-1-7.4-0.9-8.3-0.7-8.4-0.3q-36 0-64.6 18.3t-42.8 50.3h133.7q4.6 0 7.1 3.4 2.9 3.5 2 7.5l-6.8 32.5q-1.5 7.5-9.2 7.5h-139.4q-0.9 10.5 0 30h131.1q4.3 0 7.2 3.4 2.6 3.4 1.7 7.7l-6.9 32q-0.5 3.2-3.1 5.3t-5.7 2.1h-110.6q13.7 33.5 42.7 53t65.3 19.6q5.2 0 10.3-0.4t9.6-1 8.4-1.3 7-1.4 5.3-1.3l3.4-0.9 1.4-0.5q3.8-1.5 7.5 0.5 3.4 2 4.3 6l10 45.5q0.8 3.4-0.9 6.4t-4.9 4.1l-1.4 0.3q-1.1 0.6-3 1t-4.6 1.3-6.1 1.6-7.3 1.4-8.6 1.4-9.5 1.3-10.5 0.9-11 0.3q-66.8 0-116.8-37.3t-68-100.5h-27.2q-3.7 0-6.4-2.7t-2.7-6.4z" /></svg>