<svg height="512" width="512.0" xmlns="http://www.w3.org/2000/svg"><path d="m4.6 421.4l219.4-402.3q4.9-8.8 13.4-14t18.6-5.1 18.6 5.1 13.4 14l219.4 402.3q10 18-0.5 36-4.9 8.3-13.3 13.2t-18.2 4.8h-438.8q-9.7 0-18.2-4.8t-13.3-13.2q-10.5-18-0.5-36z m210.3-266l4.8 130.6q0 2.9 2.9 4.7t6.8 1.9h52.9q4 0 6.7-1.9t3-4.7l5.1-131.1q0-3.5-2.8-5.5-3.7-3.1-6.9-3.1h-62.8q-3.2 0-6.9 3.1-2.8 2-2.8 6z m4.5 237.5q0 4 2.7 6.7t6.5 2.7h54.8q3.7 0 6.5-2.7t2.7-6.7v-54.3q0-4-2.7-6.7t-6.5-2.8h-54.8q-3.7 0-6.5 2.8t-2.7 6.7v54.3z" /></svg>