<svg height="512" width="512.0" xmlns="http://www.w3.org/2000/svg"><path d="m0 356.6v-237.7q0-34 24.1-58.2t58.2-24.1h201.1q4 0 6.6 2.5t2.6 6.6v18.3q0 4-2.6 6.6t-6.6 2.5h-201.1q-18.9 0-32.3 13.5t-13.4 32.3v237.7q0 18.8 13.4 32.3t32.3 13.4h237.7q18.9 0 32.3-13.4t13.4-32.3v-91.5q0-4 2.6-6.5t6.6-2.6h18.2q4 0 6.6 2.6t2.6 6.5v91.5q0 34-24.2 58.1t-58.1 24.2h-237.7q-34 0-58.2-24.2t-24.1-58.1z m195.7-82.3q0-3.7 2.9-6.6l186.3-186.3-50.3-50.3q-5.5-5.4-5.5-12.8t5.5-12.9 12.8-5.4h146.3q7.4 0 12.9 5.4t5.4 12.9v146.3q0 7.4-5.4 12.8t-12.9 5.5-12.8-5.5l-50.3-50.3-186.3 186.3q-2.9 2.9-6.6 2.9t-6.6-2.9l-32.5-32.5q-2.9-2.9-2.9-6.6z" /></svg>