<svg height="512" width="365.7" xmlns="http://www.w3.org/2000/svg"><path d="m0 301.7q0-8.3 4.6-15.1l73.1-109.7q20.9-30.6 50.3-30.6h109.7q29.4 0 50.3 30.6l73.1 109.7q4.6 6.8 4.6 15.1 0 11.4-8 19.4t-19.4 8q-14.6 0-22.9-12.2l-64.8-97.5h-12.9v37.7l70.6 117.5q2.6 4.3 2.6 9.4 0 7.4-5.5 12.9t-12.8 5.4h-54.9v77.7q0 13.1-9.4 22.6t-22.6 9.4h-45.7q-13.1 0-22.6-9.4t-9.4-22.6v-77.7h-54.9q-7.4 0-12.8-5.4t-5.4-12.9q0-5.1 2.5-9.4l70.6-117.5v-37.7h-12.9l-64.8 97.5q-8.3 12.2-22.9 12.2-11.4 0-19.4-8t-8-19.4z m118.9-228.6q0-26.5 18.7-45.2t45.3-18.8 45.2 18.8 18.8 45.2-18.8 45.3-45.2 18.7-45.3-18.7-18.7-45.3z" /></svg>