<svg height="512" width="438.9" xmlns="http://www.w3.org/2000/svg"><path d="m0 484.6v-457.2q0-11.4 8-19.4t19.4-8h256q11.5 0 25.2 5.7t21.7 13.7l89.1 89.2q8 8 13.7 21.7t5.8 25.1v329.2q0 11.4-8 19.4t-19.5 8h-384q-11.4 0-19.4-8t-8-19.4z m36.6-9.2h365.7v-292.5h-118.9q-11.4 0-19.4-8t-8-19.5v-118.8h-219.4v438.8z m36.5-109.7v-109.7q0-14.9 10.9-25.7t25.7-10.9h109.7q14.9 0 25.7 10.9t10.9 25.7v109.7q0 14.9-10.9 25.7t-25.7 10.9h-109.7q-14.8 0-25.7-10.9t-10.9-25.7z m201.2-42v-25.7l75.7-76q2.6-2.6 6.6-2.6 1.1 0 3.4 0.6 5.7 2.3 5.7 8.6v164.5q0 6.3-5.7 8.6-2.3 0.6-3.4 0.6-4 0-6.6-2.6z m18.3-177.4h107.4q-2.9-8.3-6.3-11.7l-89.4-89.5q-3.4-3.4-11.7-6.2v107.4z" /></svg>