<svg height="512" width="438.9" xmlns="http://www.w3.org/2000/svg"><path d="m0 484.6v-457.2q0-11.4 8-19.4t19.4-8h256q11.5 0 25.2 5.7t21.7 13.7l89.1 89.2q8 8 13.7 21.7t5.8 25.1v329.2q0 11.4-8 19.4t-19.5 8h-384q-11.4 0-19.4-8t-8-19.4z m36.6-9.2h365.7v-292.5h-118.9q-11.4 0-19.4-8t-8-19.5v-118.8h-219.4v438.8z m36.5-36.5v-54.9l54.9-54.9 36.6 36.6 109.7-109.7 91.4 91.4v91.5h-292.6z m0-201.2q0-22.8 16-38.8t38.9-16 38.9 16 16 38.8-16 38.9-38.9 16-38.9-16-16-38.9z m219.5-91.4h107.4q-2.9-8.3-6.3-11.7l-89.4-89.5q-3.4-3.4-11.7-6.2v107.4z" /></svg>