<svg height="512" width="438.9" xmlns="http://www.w3.org/2000/svg"><path d="m0 484.6v-457.2q0-11.4 8-19.4t19.4-8h256q11.5 0 25.2 5.7t21.7 13.7l89.1 89.2q8 8 13.7 21.7t5.8 25.1v329.2q0 11.4-8 19.4t-19.5 8h-384q-11.4 0-19.4-8t-8-19.4z m36.6-9.2h365.7v-292.5h-118.9q-11.4 0-19.4-8t-8-19.5v-118.8h-219.4v438.8z m73.1-82.3v-18.2q0-4 2.6-6.6t6.6-2.6h201.1q4 0 6.6 2.6t2.5 6.6v18.2q0 4-2.5 6.6t-6.6 2.6h-201.1q-4 0-6.6-2.6t-2.6-6.6z m0-73.1v-18.3q0-4 2.6-6.6t6.6-2.5h201.1q4 0 6.6 2.5t2.5 6.6v18.3q0 4-2.5 6.6t-6.6 2.5h-201.1q-4 0-6.6-2.5t-2.6-6.6z m0-73.1v-18.3q0-4 2.6-6.6t6.6-2.6h201.1q4 0 6.6 2.6t2.5 6.6v18.3q0 4-2.5 6.5t-6.6 2.6h-201.1q-4 0-6.6-2.6t-2.6-6.5z m182.9-100.6h107.4q-2.9-8.3-6.3-11.7l-89.4-89.5q-3.4-3.4-11.7-6.2v107.4z" /></svg>