<svg height="512" width="438.9" xmlns="http://www.w3.org/2000/svg"><path d="m0 484.6v-457.2q0-11.4 8-19.4t19.4-8h256q11.5 0 25.2 5.7t21.7 13.7l89.1 89.2q8 8 13.7 21.7t5.8 25.1v329.2q0 11.4-8 19.4t-19.5 8h-384q-11.4 0-19.4-8t-8-19.4z m36.6-9.2h365.7v-292.5h-118.9q-11.4 0-19.4-8t-8-19.5v-118.8h-219.4v438.8z m36.5-118.8v-54.9q0-4 2.6-6.6t6.6-2.5h37.4l47.4-47.7q4.6-4.3 10-2 5.8 2.2 5.8 8.5v155.5q0 6.2-5.8 8.5-2.2 0.6-3.4 0.6-3.4 0-6.6-2.6l-47.4-47.7h-37.4q-4 0-6.6-2.6t-2.6-6.5z m144.6 23.3q0.3 7.5 5.7 12.7 5.7 4.8 12.6 4.8 7.7 0 13.4-5.7 24.9-26.6 24.9-62.6t-24.9-62.5q-5.1-5.5-12.8-5.7t-13.2 4.8-5.7 12.7 5.2 13.3q14.8 16.3 14.8 37.4t-14.8 37.5q-5.5 5.7-5.2 13.3z m60.4 43.4q0.8 7.6 6.8 12.1 5.1 4.3 11.4 4.3 8.8 0 14.3-6.8 36.8-45.5 36.8-103.8t-36.8-103.7q-4.6-6-12.3-6.8t-13.4 4q-6 4.8-6.8 12.4t4.2 13.6q28.6 35.1 28.6 80.5t-28.6 80.6q-4.9 6-4.2 13.6z m14.5-277h107.4q-2.9-8.3-6.3-11.7l-89.4-89.5q-3.4-3.4-11.7-6.2v107.4z" /></svg>