<svg height="512" width="438.9" xmlns="http://www.w3.org/2000/svg"><path d="m0 484.6v-457.2q0-11.4 8-19.4t19.4-8h256q11.5 0 25.2 5.7t21.7 13.7l89.1 89.2q8 8 13.7 21.7t5.8 25.1v329.2q0 11.4-8 19.4t-19.5 8h-384q-11.4 0-19.4-8t-8-19.4z m36.6-9.2h365.7v-292.5h-118.9q-11.4 0-19.4-8t-8-19.5v-118.8h-219.4v438.8z m82.3-36.5h93.4v-30.3h-26.6v-47.7h39.2q21.7 0 33.7-4.3 19.1-6.6 30.4-24.9t11.3-41.7q0-23.1-10.6-40.3t-28.6-24.8q-13.7-5.5-37.1-5.5h-105.1v30.6h26.2v158.6h-26.2v30.3z m66.8-110.3v-76.6h34.3q14.9 0 23.7 5.1 16 9.5 16 32.9 0 25.4-17.7 34.3-8.9 4.3-22.3 4.3h-34z m106.9-182.3h107.4q-2.9-8.3-6.3-11.7l-89.4-89.5q-3.4-3.4-11.7-6.2v107.4z" /></svg>