<svg height="512" width="548.6" xmlns="http://www.w3.org/2000/svg"><path d="m0 466.3v-384q0-18.9 13.4-32.3t32.3-13.4h457.2q18.8 0 32.2 13.4t13.5 32.3v384q0 18.8-13.5 32.3t-32.2 13.4h-457.2q-18.8 0-32.3-13.4t-13.4-32.3z m36.6-45.7v36.5q0 7.5 5.4 12.9t12.9 5.4h36.5q7.5 0 12.9-5.4t5.4-12.9v-36.5q0-7.5-5.4-12.9t-12.9-5.4h-36.5q-7.5 0-12.9 5.4t-5.4 12.9z m0-73.2q0 7.5 5.4 12.9t12.9 5.4h36.5q7.5 0 12.9-5.4t5.4-12.9v-36.5q0-7.5-5.4-12.9t-12.9-5.4h-36.5q-7.5 0-12.9 5.4t-5.4 12.9v36.5z m0-109.7q0 7.4 5.4 12.9t12.9 5.4h36.5q7.5 0 12.9-5.4t5.4-12.9v-36.6q0-7.4-5.4-12.8t-12.9-5.4h-36.5q-7.5 0-12.9 5.4t-5.4 12.8v36.6z m0-109.7q0 7.4 5.4 12.9t12.9 5.4h36.5q7.5 0 12.9-5.4t5.4-12.9v-36.6q0-7.4-5.4-12.8t-12.9-5.5h-36.5q-7.5 0-12.9 5.5t-5.4 12.8v36.6z m109.7 329.1q0 7.5 5.4 12.9t12.9 5.4h219.4q7.4 0 12.9-5.4t5.4-12.9v-146.2q0-7.5-5.4-12.9t-12.9-5.4h-219.4q-7.5 0-12.9 5.4t-5.4 12.9v146.2z m0-219.4q0 7.4 5.4 12.9t12.9 5.4h219.4q7.4 0 12.9-5.4t5.4-12.9v-146.3q0-7.4-5.4-12.8t-12.9-5.5h-219.4q-7.5 0-12.9 5.5t-5.4 12.8v146.3z m292.6 182.9v36.5q0 7.5 5.4 12.9t12.8 5.4h36.6q7.4 0 12.9-5.4t5.4-12.9v-36.5q0-7.5-5.4-12.9t-12.9-5.4h-36.6q-7.4 0-12.8 5.4t-5.4 12.9z m0-73.2q0 7.5 5.4 12.9t12.8 5.4h36.6q7.4 0 12.9-5.4t5.4-12.9v-36.5q0-7.5-5.4-12.9t-12.9-5.4h-36.6q-7.4 0-12.8 5.4t-5.4 12.9v36.5z m0-109.7q0 7.4 5.4 12.9t12.8 5.4h36.6q7.4 0 12.9-5.4t5.4-12.9v-36.6q0-7.4-5.4-12.8t-12.9-5.4h-36.6q-7.4 0-12.8 5.4t-5.4 12.8v36.6z m0-109.7q0 7.4 5.4 12.9t12.8 5.4h36.6q7.4 0 12.9-5.4t5.4-12.9v-36.6q0-7.4-5.4-12.8t-12.9-5.5h-36.6q-7.4 0-12.8 5.5t-5.4 12.8v36.6z" /></svg>