<svg height="512" width="402.3" xmlns="http://www.w3.org/2000/svg"><path d="m0 484.6q0-3.7 2.7-6.5t6.4-2.7h384q3.8 0 6.5 2.7t2.7 6.5v18.3q0 3.7-2.7 6.4t-6.5 2.7h-384q-3.7 0-6.4-2.7t-2.7-6.4v-18.3z m73.1-228.6q0-22.3 7-41.1t18.3-32.2 25-25.1 27.5-22.2 25-20.5 18.2-23.3 7-27.6q0-26.9-18.8-64l0.8 0.3-0.2-0.3q25.7 11.7 45.7 23.7t39.5 28.6 32.5 35 20.7 43 7.8 52.6q0 22.2-7 41.1t-18.2 32.1-25 25.2-27.5 22.1-25 20.6-18.3 23.3-7 27.6q0 27.4 19.2 64l-1.2-0.3 0.3 0.3q-25.7-11.8-45.7-23.8t-39.6-28.5-32.4-35-20.7-43-7.9-52.6z" /></svg>