<svg height="512" width="402.3" xmlns="http://www.w3.org/2000/svg"><path d="m1 170.3q-2.4-7.2 1-14 1.4-2.9 4.1-7.4t10.8-15.3 17.2-20 24.3-19.2 31-15q-7.1-12-7.1-24.5 0-18.9 13.4-32.3t32.3-13.5 32.3 13.5 13.4 32.3q0 9.4-4 18.2h86.3q0-3.1 2-5.7t5.1-3.1l128-27.4q0.9-0.3 2-0.3 3.5 0 5.8 2 3.4 2.5 3.4 7.1v91.4q0 4.6-3.4 7.2-2.3 2-5.8 2-1.1 0-2-0.3l-128-27.4q-3.1-0.6-5.1-3.2t-2-5.7h-73.1v29.2q31.7 6.5 52.4 31.7t20.7 58v228.5q0 7.5-5.4 12.9t-12.9 5.4h-146.3q-7.4 0-12.8-5.4t-5.5-12.9v-228.5q0-30.3 17.9-54.5t46.1-32.7v-31.7h-9.1q-16.9 0-32.9 6.7t-26.1 15.2-18.9 19-11.5 15.3-4 7q-4.9 10-16.3 10-4.6 0-8.3-2-6.6-3.5-9-10.6z m108.7-115.4q0 7.4 5.4 12.8t12.9 5.4 12.9-5.4 5.4-12.8-5.4-12.9-12.9-5.4-12.9 5.4-5.4 12.9z" /></svg>