<svg height="512" width="512.0" xmlns="http://www.w3.org/2000/svg"><path d="m18.3 73.1q0-15.1 10.7-25.8t25.9-10.7 25.8 10.7 10.7 25.8q0 20.6-18.3 31.5v361.7q0 3.7-2.7 6.4t-6.4 2.7h-18.3q-3.7 0-6.4-2.7t-2.7-6.4v-361.7q-18.3-10.9-18.3-31.5z m73.1 274.3v-212q0-9.1 8.9-15.7 6-4 22.6-12.3 67.4-34.3 120.2-34.3 30.6 0 57.2 8.3t62.6 25.2q10.8 5.4 25.1 5.4 15.4 0 33.6-6t31.4-13.4 25.1-13.5 15.6-6q7.4 0 12.9 5.5t5.4 12.8v218q0 7.2-3.6 11t-11.3 7.9q-61.4 33.1-105.4 33.1-17.4 0-35.3-6.3t-31-13.7-33-13.7-40.7-6.3q-54.8 0-132.6 41.7-4.8 2.6-9.4 2.6-7.4 0-12.8-5.4t-5.5-12.9z" /></svg>