<svg height="512" width="512.0" xmlns="http://www.w3.org/2000/svg"><path d="m18.3 73.1q0-15.1 10.7-25.8t25.9-10.7 25.8 10.7 10.7 25.8q0 10-5 18.3t-13.3 13.2v361.7q0 4-2.5 6.6t-6.6 2.5h-18.3q-4 0-6.6-2.5t-2.5-6.6v-361.7q-8.3-4.9-13.3-13.2t-5-18.3z m73.1 274.3v-212q0-10 8.9-15.7 10-6 22.4-12.1t32.6-14.9 43.6-14.1 44.2-5.5q32 0 59.8 8.9t59.7 24.6q10.8 5.4 25.4 5.4 34.9 0 88.6-32 6.3-3.4 8.8-4.9 8.9-4.5 17.7 0.6 8.9 5.7 8.9 15.7v218q0 11.2-10 16.3-2.9 1.4-4.9 2.6-62.2 33.1-105.4 33.1-25.1 0-45.1-10l-8-4q-18.3-9.4-28.3-13.7t-26-8.3-32.6-4q-29.1 0-67.3 12.6t-65.3 29.1q-4.2 2.6-9.4 2.6-4.6 0-9.1-2.3-9.2-5.4-9.2-16z m36.6-30.3q58.6-27.4 109.7-31.4v-54.8q-51.7 4.5-109.7 33.4v52.8z m0-117.1q61.4-31.7 109.7-33.7v-56.3q-49.1 2.3-109.7 36v54z m109.7 30.3h5.4q29.2 0 55 8.3t56.5 23.4q5.4 2.6 11.1 4.3v53.7q12 4.9 26 4.9 34.3 0 83.7-26.3v-52.6q-67.1 33.1-109.7 20.3v-64q-5.7-1.7-11.1-4.3-1.5-0.9-9.5-4.9t-9.8-4.8-9-4.3-9.9-4.4-9.3-3.7-10.2-3.6-10-2.4-11.3-2.2-11.3-1.1-12.6-0.6q-6.6 0-14 0.9v63.4z m128-28q42.3 12 109.7-25.7v-54q-48.3 26-87.4 26-12.9 0-22.3-2.3v56z" /></svg>