<svg height="512" width="438.9" xmlns="http://www.w3.org/2000/svg"><path d="m0 448v-384q0-11.4 8-19.4t19.4-8h265.2q11.4 0 25.1 5.7t21.7 13.7l80 80q8 8 13.7 21.7t5.8 25.2v265.1q0 11.4-8 19.4t-19.5 8h-384q-11.4 0-19.4-8t-8-19.4z m36.6-9.1h36.5v-118.9q0-11.4 8-19.4t19.5-8h237.7q11.4 0 19.4 8t8 19.4v118.9h36.6v-256q0-4-2.9-11t-5.7-9.9l-80.3-80.3q-2.8-2.8-9.7-5.7t-11.1-2.9v118.9q0 11.4-8 19.4t-19.5 8h-164.5q-11.5 0-19.5-8t-8-19.4v-118.9h-36.5v365.8z m73.1 0h219.4v-109.8h-219.4v109.8z m73.2-265.2q0 3.7 2.7 6.4t6.4 2.8h54.9q3.7 0 6.4-2.8t2.7-6.4v-91.4q0-3.7-2.7-6.4t-6.4-2.8h-54.9q-3.7 0-6.4 2.8t-2.7 6.4v91.4z" /></svg>