<svg height="512" width="548.6" xmlns="http://www.w3.org/2000/svg"><path d="m0 374.9v-274.3q0-26.3 18.9-45.2t45.1-18.8h91.4q26.3 0 45.2 18.8t18.8 45.2v9.1h155.5q26.2 0 45.1 18.9t18.9 45.1v45.7h54.8q15.4 0 28.3 7t19.1 20.2q4.3 9.1 4.3 19.4 0 17.7-13.1 34.3l-84.3 103.7q-12.3 15.1-33.1 25t-40 9.9h-310.9q-26.3 0-45.1-18.9t-18.9-45.1z m36.6-30.6l73.1-90q12.6-15.2 33.2-25t40-9.9h219.4v-45.7q0-11.4-8-19.4t-19.4-8h-164.6q-11.4 0-19.4-8t-8-19.4v-18.3q0-11.5-8-19.5t-19.5-8h-91.4q-11.4 0-19.4 8t-8 19.5v243.7z m12.3 48q0 10 15.1 10h310.9q11.4 0 24.5-6.3t20.3-15.1l84-103.8q5.2-6.2 5.2-11.1 0-10-15.2-10h-310.8q-11.5 0-24.5 6.1t-20.4 15l-84 103.8q-5.1 6.8-5.1 11.4z" /></svg>