<svg height="512" width="475.4" xmlns="http://www.w3.org/2000/svg"><path d="m0 256q0-21.4 15.1-36.6l167.8-167.7q15.1-15.1 36.5-15.1t36.6 15.1l75.7 75.7-113.7 114-53.7-53.7q-12-12-28.3-12-16.9 0-28.6 11.7l-34.3 34.6q-12 11.4-12 28.3 0 16.6 12 28.6l116 116.5q8.6 8 19.2 10.6l1.7 1.1h8q17.1 0 28.3-11.7l176.8-176.8 0.6 0.8q15.2 15.2 15.2 36.6t-15.2 36.6l-167.7 167.7q-14.9 15.1-36.4 15.1t-36.7-15.1l-167.8-167.7q-15.1-15.2-15.1-36.6z m86.3-5.7q0-6 4-10l34.6-34.3q3.7-4.3 10-4.3t10.2 4.3l72 72 164-164.3q4.3-4.3 10.3-4.3t10.3 4.3l34.3 34.3q4 4.3 4 10.3t-4 10.3l-208.6 208.5q-4.8 4.3-10.5 4.3-1.2 0-1.8-0.3-5.1-0.5-8.5-4l-116.3-116.5q-4-4.3-4-10.3z" /></svg>