<svg height="512" width="438.9" xmlns="http://www.w3.org/2000/svg"><path d="m0 256q0-59.7 29.4-110.1t79.9-79.9 110.1-29.4 110.2 29.4 79.8 79.9 29.5 110.1-29.5 110.1-79.8 79.9-110.2 29.4-110.1-29.4-79.9-79.9-29.4-110.1z m36.6 0q0 37.1 14.5 71t39 58.3 58.3 39 71 14.6 71-14.6 58.3-39 39-58.3 14.6-71-14.6-71-39-58.3-58.3-39-71-14.6-71 14.6-58.3 39-39 58.3-14.5 71z m73.1-73.1q0-15.2 10.7-25.9t25.9-10.7 25.8 10.7 10.8 25.9-10.8 25.8-25.8 10.7-25.9-10.7-10.7-25.8z m5.2 168.2q10.5-34.5 39.4-55.7t65.1-21.1 65.2 21.1 39.4 55.7q2.3 7.2-1.1 13.9t-10.6 9-14-1.1-9.2-10.9q-7.1-22.9-26.4-37t-43.3-14.1-43.3 14.1-26.4 37q-2.3 7.4-9 10.9t-13.8 1.1q-7.5-2.3-10.9-9t-1.1-13.9z m141.1-168.2q0-15.2 10.7-25.9t25.9-10.7 25.8 10.7 10.7 25.9-10.7 25.8-25.8 10.7-25.9-10.7-10.7-25.8z" /></svg>