<svg height="512" width="548.6" xmlns="http://www.w3.org/2000/svg"><path d="m0 292.6q0-60.6 42.9-103.5t103.4-42.8h256q60.6 0 103.4 42.8t42.9 103.5-42.9 103.4-103.4 42.9q-54.9 0-96.6-36.6h-62.8q-41.8 36.6-96.6 36.6-60.6 0-103.4-42.9t-42.9-103.4z m54.9 18.3q0 4 2.5 6.5t6.6 2.6h54.9v54.9q0 4 2.5 6.5t6.6 2.6h36.6q4 0 6.5-2.6t2.6-6.5v-54.9h54.9q4 0 6.5-2.6t2.6-6.5v-36.6q0-4-2.6-6.6t-6.5-2.6h-54.9v-54.8q0-4-2.6-6.6t-6.5-2.6h-36.6q-4 0-6.6 2.6t-2.5 6.6v54.8h-54.9q-4 0-6.6 2.6t-2.5 6.6v36.6z m274.2 18.2q0 15.2 10.8 25.9t25.8 10.7 25.9-10.7 10.7-25.9-10.7-25.8-25.9-10.7-25.8 10.7-10.8 25.8z m73.2-73.1q0 15.1 10.7 25.9t25.9 10.7 25.8-10.7 10.7-25.9-10.7-25.9-25.8-10.7-25.9 10.7-10.7 25.9z" /></svg>