<svg height="512" width="512.0" xmlns="http://www.w3.org/2000/svg"><path d="m11.4 228.6q0-3.7 1.3-7.5t2.6-6.2 4.4-6.3 4.7-5.3 5.9-5.4 5.1-4.8q8.6-8 19.5-8 2.8 0 5.1 0.5t4.7 1.5 3.9 1.8 3.8 2.8 3.3 2.9 3.7 3.5 3.5 3.6q-4-4-4-9.7t4-9.7l99.4-99.4q4-4 9.7-4t9.7 4q-0.6-0.6-3.6-3.5t-3.5-3.7-2.9-3.3-2.8-3.8-1.8-3.9-1.5-4.7-0.5-5.1q0-10.9 8-19.5 0.9-0.8 4.8-5.1t5.4-5.9 5.3-4.7 6.3-4.4 6.2-2.6 7.5-1.3q11.4 0 19.4 8l116.6 116.6q8 8 8 19.4 0 3.7-1.3 7.5t-2.6 6.2-4.4 6.3-4.7 5.3-5.9 5.4-5.1 4.8q-8.6 8-19.5 8-2.8 0-5.1-0.5t-4.7-1.5-3.9-1.8-3.8-2.8-3.3-2.9-3.7-3.5-3.5-3.6q4 4 4 9.7t-4 9.7l-36 36 73.2 73.2q12.3-12.3 27.4-12.3 14.9 0 26 10.5l103.7 103.8q10.6 11.1 10.6 26 0 15.1-10.6 25.7l-30.5 30.8q-11.2 10.6-26 10.6-15.2 0-25.8-10.6l-103.7-104q-10.8-10.3-10.8-25.7 0-15.1 12.3-27.4l-73.2-73.2-36 36q-4 4-9.7 4t-9.7-4q0.6 0.6 3.6 3.5t3.5 3.7 2.9 3.3 2.8 3.8 1.8 3.9 1.5 4.7 0.5 5.1q0 10.9-8 19.5-0.9 0.8-4.8 5.1t-5.4 5.9-5.3 4.7-6.3 4.4-6.2 2.6-7.5 1.3q-11.4 0-19.4-8l-116.6-116.6q-8-8-8-19.4z" /></svg>