<svg height="512" width="512.0" xmlns="http://www.w3.org/2000/svg"><path d="m19.4 436.9q0-47.2 52-64.3v-1.2q-19.1-11.7-19.1-36 0-31.1 18-39.1v-1.2q-20.6-6.8-34.2-31t-13.5-47.2q0-39.8 27.1-66.2t67.2-26.4q27.4 0 50.8 13.4 28 0 62.3-13.4v57.7q-10.3 3.4-22.6 6.3 4.6 12.3 4.6 24 0 36.3-20.9 61.8t-56.2 32.2q-11.5 2.3-17 7.7t-5.6 16.6q0 8.8 6.4 14.7t16.6 9.1 22.4 6.3 24.6 7.3 22.4 10.7 16.6 18.3 6.4 28.1q0 86.9-103.7 86.9-19.7 0-37.1-3.6t-33.2-11.7-25-23.4-9.3-36.4z m58.3-3.2q0 28.9 49.2 28.9 43.1 0 43.1-30 0-28.6-47.1-28.6-45.2 0-45.2 29.7z m6-216.3q0 38.6 35.4 38.6 34 0 34-39.1 0-17.5-8.5-29.2t-25.5-11.7q-35.4 0-35.4 41.4z m166.3-175.4q0-16.9 11.3-29.4t28.1-12.6q16.6 0 27.6 12.7t11 29.3-11.1 29-27.5 12.4q-16.5 0-28-12.4t-11.4-29z m7.4 334q1.2-12.9 1.2-38.3v-174q0-26.8-1.2-36.6h63.5q-1.2 9.5-1.2 35.5v175.1q0 25.4 1.2 38.3h-63.5z m90.3-194.6v-54.3h27.4v-21.7q0-15.4-1.7-25.4h64.9q-1.7 11.7-1.7 47.1h48.8v54.3q-4.3 0-12.4-0.5t-12.1-0.6h-24.3v104.3q0 37.4 24.8 37.4 17.5 0 31.2-9.4v56q-20.3 11.1-49.7 11.1-17.8 0-30.6-5.7t-20-14.3-11.3-22.3-5.3-26.3-1.1-29.4v-100.3h0.5v-1.1q-2 0-5.4-0.3t-5.1-0.3q-6 0-16.9 1.7z" /></svg>