<svg height="512" width="438.9" xmlns="http://www.w3.org/2000/svg"><path d="m0 393.1v-274.2q0-34 24.1-58.2t58.2-24.1h274.3q34 0 58.1 24.1t24.2 58.2v274.2q0 34-24.2 58.2t-58.1 24.1h-64q-4.6 0-7-0.3t-5.6-1.4-4.6-4.1-1.4-7.9v-68.3q0-27.7-14.9-40.5 16.3-1.8 29.3-5.2t26.9-11.1 23.1-19 15.2-30 5.8-43q0-34.6-22.5-58.9 10.5-26-2.3-58.3-8-2.5-23.2 3.2t-26.3 12.5l-10.8 6.9q-26.6-7.4-54.9-7.4t-54.8 7.4q-4.6-3.1-12.2-7.7t-23.8-11-24.6-3.9q-12.6 32.3-2 58.3-22.6 24.3-22.6 58.9 0 24.3 5.9 42.8t15 30 23 19.2 26.8 11.1 29.3 5.2q-11.4 10.2-14 29.4-6 2.8-12.8 4.3t-16.3 1.4-18.7-6.1-15.9-17.9q-5.4-9.1-13.8-14.9t-14.2-6.8l-5.7-0.9q-6 0-8.3 1.3t-1.4 3.3 2.6 4 3.7 3.4l2 1.5q6.3 2.8 12.4 10.8t9 14.6l2.9 6.6q3.7 10.8 12.5 17.5t19.2 8.6 19.8 2 15.9-1l6.6-1.1q0 10.8 0.1 29.4t0.1 19.4q0 6.3-3.1 9.6t-6.3 3.7-9.4 0.4h-64q-34 0-58.2-24.1t-24.1-58.2z m77.4-44.2q0.9-1.5 3.7-0.6 2.9 1.4 2 3.4-1.4 2-3.7 0.6-2.8-1.4-2-3.4z m9.5 7.1q1.7-1.7 4.5 0.9 2.6 3.1 0.6 4.5-1.7 2-4.6-0.8-2.5-3.2-0.5-4.6z m8.8 16.3q-2.6-3.7 0-5.2 2.6-2 4.9 1.8 2.5 3.4 0 5.4-2.3 1.7-4.9-2z m10 7.7q2.3-2.6 5.7 0.9 3.5 3.1 1.2 5.4-2.3 2.6-5.7-0.9-3.8-3.1-1.2-5.4z m14 10.9q1.2-3.2 5.4-2 4.6 1.4 3.8 4.5-1.2 3.5-5.5 1.7-4.8-1.1-3.7-4.2z m17.7 4q0-3.2 4.6-3.2 4.9-0.6 4.9 3.2 0 3.1-4.6 3.1-4.9 0.6-4.9-3.1z m16.9-1.2q-0.6-3.4 4-4.3 4.6-0.5 5.1 2.6 0.6 2.9-4 4t-5.1-2.3z" /></svg>