<svg height="512" width="438.9" xmlns="http://www.w3.org/2000/svg"><path d="m0 256q0-59.7 29.4-110.1t79.9-79.9 110.1-29.4 110.2 29.4 79.8 79.9 29.5 110.1-29.5 110.1-79.8 79.9-110.2 29.4-110.1-29.4-79.9-79.9-29.4-110.1z m64.6-96.9q2 2 3.4 2.3 1.1 0.3 1.4 2.6t0.7 3.1 3.3-0.8q2.6 2.3 0.9 5.4 0.3-0.3 12.6 7.7 5.4 4.9 6 6 0.8 3.2-2.9 5.2-0.3-0.6-2.6-2.6t-2.5-1.1q-0.9 1.4 0.1 5.2t3 3.6q-2 0-2.7 4.6t-0.7 10.1-0.3 6.7l0.6 0.3q-0.9 3.5 1.5 9.9t6.2 5.6q-3.7 0.8 5.7 12.2 1.7 2.3 2.3 2.6 0.8 0.6 3.4 2.2t4.3 2.8 2.8 3q1.2 1.4 2.9 6.4t4 6.8q-0.6 1.7 2.7 5.7t3 6.5q-0.3 0-0.7 0.3t-0.7 0.3q0.8 2 4.4 4t4.4 3.7q0.3 0.9 0.6 2.9t0.9 3.1 2.3 0.6q0.5-5.7-6.9-17.7-4.3-7.2-4.9-8.3-0.8-1.4-1.5-4.4t-1.3-4.2q0.6 0 1.7 0.5t2.4 1 2.2 1.1 0.5 0.9q-0.8 2 0.6 5t3.4 5.2 4.9 5.5 3.4 3.7q1.7 1.7 4 5.6t0 3.8q2.6 0 5.7 2.9t4.9 5.7q1.4 2.3 2.3 7.4t1.4 6.9q0.6 2 2.4 3.8t3.6 2.7l4.6 2.3t3.7 2q1.4 0.6 5.3 3t6.1 3.3q2.9 1.2 4.6 1.2t4.1-0.8 3.9-1q4.3-0.5 8.3 4.3t6 6q10.3 5.5 15.7 3.2-0.6 0.3 0.1 2.1t2.3 4.4 2.6 4.2 1.6 2.4q1.4 1.7 5.1 4.3t5.2 4.3q1.7-1.2 2-2.6-0.9 2.3 2 5.7t5.1 2.9q4-0.9 4-9.2-8.9 4.3-14-5.1 0-0.3-0.7-1.6t-1.2-2.4-0.7-2.4 0-2.2 1.5-0.8q2.5 0 2.8-1t-0.6-3.6-1.1-3.7q-0.3-2.3-3.1-5.7t-3.5-4.3q-1.4 2.6-4.5 2.3t-4.6-2.6q0 0.3-0.4 1.6t-0.5 1.8q-3.7 0-4.3-0.3 0.3-0.8 0.8-5t1-6.4q0.2-1.1 1.5-3.4t2.2-4.2 1.1-3.5-1.3-2.7-5-0.8q-5.4 0.3-7.4 5.8-0.3 0.8-0.9 3t-1.4 3.2-2.6 2q-2 0.9-6.8 0.6t-6.9-1.4q-3.7-2.3-6.4-8.3t-2.7-10.6q0-2.8 0.7-7.5t0.9-7.2-1.6-7q0.8-0.6 2.6-2.7t2.8-3q0.6-0.3 1.3-0.4t1.3 0 1.1-0.5 0.9-1.7q-0.3-0.3-1.2-0.8-0.8-0.9-1.1-0.9 2 0.9 8.1-0.4t7.9 0.4q4.3 3.2 6.3-0.6 0-0.2-0.7-2.7t-0.2-3.8q1.5 7.7 8.3 2.5 0.9 0.9 4.4 1.5t5 1.4q0.9 0.6 2 1.6t1.6 1.3 1.4-0.2 2.5-1.8q2.8 4 3.4 6.8 3.1 11.4 5.4 12.6 2 0.8 3.2 0.6t1.3-2.8 0-4-0.5-3.5l-0.3-2.3v-5.2l-0.2-2.2q-4.3-0.9-5.3-3.5t0.4-5.3 4.3-5.2q0.3-0.3 2.3-1t4.4-1.9 3.6-2.3q6-5.4 4.3-10 2 0 3.1-2.6-0.3 0-1.4-0.8t-2.2-1.4-1.3-0.6q2.6-1.4 0.6-4.6 1.4-0.8 2.2-3.1t2.1-2.9q2.6 3.4 6 0.6 2-2.3 0.3-4.6 1.4-2 5.8-3t5.3-2.7q2 0.6 2.3-0.6t0.3-3.4 0.9-3.4q1.1-1.5 4.2-2.6t3.8-1.4l4.8-3.2q0.9-1.1 0-1.1 5.2 0.6 8.9-3.2 2.8-3.1-1.7-5.7 0.8-1.7-0.9-2.7t-4.3-1.6q0.9-0.2 3.3-0.1t3-0.4q4.3-2.9-2-4.6-4.9-1.4-12.3 3.4-0.6 0.3-2.7 2.7t-3.9 2.8q0.6 0 1.3-1.5t1.5-3.1 1-2q1.7-2 6.2-4.3 4-1.7 14.9-3.4 9.7-2.3 14.6 3.1-0.6-0.6 2.7-3.7t4.1-3.4q0.9-0.6 4.3-1.3t4.3-2.2l0.6-6.2q-3.5 0.2-5-2t-1.9-6q0 0.5-1.7 2.2 0-2-1.3-2.2t-3.3 0.2-2.5 0.3q-2.9-0.8-4.3-2.1t-2.3-4.7-1.2-4.3q-0.5-1.4-2.7-3t-2.7-3q-0.3-0.6-0.7-1.6t-0.9-1.8-1.1-1.6-1.6-0.7-2 1.4-2.1 2.9-1.3 1.4q-0.9-0.6-1.7-0.4t-1.3 0.2-1.3 0.9-1.4 1q-0.9 0.6-2.4 0.9t-2.5 0.5q4.3-1.4-0.3-3.1-2.8-1.2-4.5-0.9 2.5-1.1 2.1-3.4t-2.4-4h1.4q-0.3-1.1-2.4-2.4t-5-2.5-3.7-1.7q-2.3-1.4-9.7-2.7t-9.5-0.1q-1.4 1.7-1.3 3t1.2 4 1 3.5q0.3 1.8-1.6 3.8t-1.8 3.4q0 2 4 4.4t2.8 6.2q-0.8 2.2-4.6 4.5t-4.5 3.5q-1.5 2.2-0.5 5.2t3 4.8q0.6 0.5 0.5 1.1t-1 1.3-1.6 1.1-1.9 1l-0.8 0.6q-3.2 1.4-5.9-1.7t-3.8-7.4q-2-7.2-4.6-8.6-6.6-2.3-8.3 0.3-1.4-3.7-11.7-7.5-7.1-2.5-16.6-1.1 1.7-0.3 0-4.3-2-4.3-5.4-3.4 0.9-1.7 1.1-5t0.3-3.9q0.9-3.7 3.5-6.5 0.2-0.3 2-2.5t2.7-3.8 0.1-1.7q10 1.1 14.3-3.2 1.4-1.4 3.3-4.8t3-4.9q2.6-1.7 4-1.6t4.1 1.6 4.2 1.4q4 0.3 4.4-3.1t-2.1-5.7q3.4 0.3 0.8-4.9-1.4-2-2.3-2.6-3.4-1.1-7.7 1.5-2.3 1.1 0.6 2.3-0.3-0.3-2.7 3t-4.7 5-4.6-1.5q-0.3-0.3-1.6-3.8t-2.7-3.9q-2.3 0-4.6 4.3 0.9-2.3-3.1-4.3t-6.9-2.3q5.5-3.4-2.3-7.7-2-1.1-5.8-1.4t-5.6 1.1q-1.4 2-1.6 3.3t1.5 2.3 3 1.6 3.3 1.1 2.4 0.9q4 2.8 2.3 4-0.6 0.3-2.5 1t-3.2 1.3-1.8 1.1q-0.8 1.1 0 4t-0.5 4q-1.5-1.4-2.6-5t-2-4.7q2 2.6-7.1 1.7l-2.9-0.3q-1.1 0-4.6 0.6t-5.8 0.3-3.9-2.3q-1.1-2.3 0-5.7 0.3-1.2 1.2-0.6-1.2-0.9-3.2-2.7t-2.8-2.4q-13.2 4.2-26.9 11.7 1.7 0.3 3.4-0.3 1.5-0.6 3.7-1.9t2.9-1.5q9.7-4 12-2l1.4-1.5q4 4.6 5.7 7.2-2-1.2-8.5-0.3-5.7 1.7-6.3 3.4 2 3.4 1.4 5.2-1.1-0.9-3.3-2.9t-4.1-3.1-4.3-1.5q-4.6 0-6.3 0.3-41.7 22.9-67.1 63.4z m186 272.3q0 1.7 0.5 4.6 58.9-10.3 100.3-54-0.8-0.9-3.5-1.3t-3.6-1q-5.2-2-6.9-2.3 0.3-2-0.7-3.7t-2.3-2.6-3.5-2.2-3.2-2q-0.6-0.6-2-1.8t-2-1.5-2.1-1.3-2.5-0.6-2.8 0.3l-0.9 0.3q-0.8 0.3-1.5 0.7t-1.6 0.9-1.2 0.8 0 0.7q-6-4.8-10.2-6.3-1.5-0.2-3.2-1.5t-3-2-2.8-0.5-3.3 2q-1.5 1.5-1.7 4.3t-0.6 3.7q-2-1.4 0-5t0.6-5.2q-0.9-1.8-3-1.3t-3.5 1.3-3.3 2.4-2.5 1.8-2.5 1.6-2.4 2.2q-0.8 1.1-1.7 3.4t-1.4 3.1q-0.6-1.1-3.3-1.8t-2.7-1.6q0.5 2.9 1.1 10t1.4 10.9q2 8.8-3.4 13.7-7.7 7.1-8.3 11.4-1.1 6.3 3.5 7.4 0 2-2.3 5.9t-2 6.1z" /></svg>