<svg height="512" width="475.4" xmlns="http://www.w3.org/2000/svg"><path d="m9.1 386.9q0-23.2 12.8-42.9t33.8-32.9q37.4-23.4 115.4-28.5-9.1-12-13.5-21.2t-4.5-20.8q0-10.3 6-24.3-13.1 1.1-19.4 1.1-42.3 0-71.3-27.5t-29-69.9q0-23.4 10.3-45.4t28.3-37.5q22-18.8 52.1-28t62.2-9.1h119.4l-39.4 25.1h-37.4q21.1 18 32 38t10.8 45.8q0 20.5-7 37t-16.8 26.5-19.9 18.6-17 17.6-7 18.8q0 10.3 9.1 20.2t22.2 19.4 25.8 21 22 29.7 9.2 40.6q0 25.7-13.7 49.4-20.6 34.9-60.3 51.3t-85.2 16.4q-37.7 0-70.4-11.8t-49-39.3q-10.6-17.2-10.6-37.4z m53.2-13.2q0 20 10 35.3t26.1 23.7 34 12.6 36.5 4.1q16.5 0 31.8-3.7t28.3-11.1 20.9-20.9 7.8-31.1q0-7.2-2-14t-4.1-12-7.7-11.9-8.5-10-11-9.8-10.4-8.3-11.9-8.6-10.4-7.4q-4.6-0.6-13.7-0.6-15.1 0-30 2t-30.7 7.1-27.7 13.2-19.6 21.3-7.7 30.1z m30.3-284q0 13.2 2.8 27.9t9 29.4 14.9 26.4 21.4 19.2 27.6 7.4q10.8 0 22.3-4.7t18.8-12.4q15.2-16.3 15.2-45.5 0-16.5-4.9-35.7t-13.8-37-24.2-29.6-33.4-11.7q-12 0-23.6 5.6t-18.7 15q-13.4 16.9-13.4 45.7z m217.1 140.3v-30.9h60.6v-62h30v62h60.8v30.9h-60.8v62.6h-30v-62.6h-60.6z" /></svg>