<svg height="512" width="512.0" xmlns="http://www.w3.org/2000/svg"><path d="m0 402.3v-182.9q0-15.1 10.7-25.8t25.9-10.7h82.3q2.8 0 6.1-1.3t6.7-4 6.4-5.2 6.9-6.4 5.9-6.1 5.4-6.2 4-4.8q18.6-21.2 28.6-36.9 3.7-6 9.4-17.7t10.6-20.6 11.5-18 15.7-14.1 19.9-5q35.7 0 59 19.1t23.3 54q0 19.4-6.3 36.6h106.9q29.7 0 51.4 21.7t21.7 51.1q0 30-21.6 51.8t-51.5 21.7h-48.3q-1.2 17.7-10.6 34 0.9 6 0.9 12.3 0 28.8-17.2 50.8 0.3 39.7-24.3 62.7t-64.8 23q-38 0-92-19.7-46.9-16.8-63.7-16.8h-82.3q-15.2 0-25.9-10.8t-10.7-25.8z m36.6-18.3q0 7.4 5.4 12.9t12.9 5.4 12.8-5.4 5.4-12.9-5.4-12.9-12.8-5.4-12.9 5.4-5.4 12.9z m73.1 18.3h9.2q20.5 0 47.7 9.1t55.3 18.3 51.2 9.2q54 0 54-47.8 0-7.4-1.4-16 8.6-4.5 13.6-15t5-21-5.2-19.7q15.2-14.3 15.2-34 0-7.1-2.9-15.8t-7.1-13.6h94.6q14.8 0 25.7-10.9t10.8-25.7q0-14.5-11.1-25.5t-25.4-11h-164.6q0-5.8 4.3-13.9t9.4-15.7 9.4-19.4 4.3-24.2q0-19.1-12.7-27.8t-33-8.8q-6.9 0-25.7 39.8-6.9 12.5-10.6 18.5-11.4 18.3-32 41.5-20.3 23.1-28.8 30.2-19.8 16.3-40 16.3h-9.2v182.9z" /></svg>