<svg height="512" width="438.9" xmlns="http://www.w3.org/2000/svg"><path d="m0 256q0-10.9 5-19.9t14.1-15.7 18-11.5 20.6-10.6 17.7-9.4q15.7-10 36.9-28.6 0.8-0.6 4.8-4t6.2-5.4 6.1-5.9 6.5-6.9 5.1-6.4 4-6.7 1.3-6.1v-82.3q0-15.2 10.7-25.9t25.9-10.7h182.8q15.2 0 25.9 10.7t10.7 25.9v82.3q0 16.8 16.8 63.7 19.8 54.3 19.8 90.5 0 40.6-22.2 65.8t-62.1 24.8l-1.5-0.3q-21.7 17.5-50.8 17.5-6.3 0-12.3-0.9-15.4 8.6-34 10.6v48.3q0 30-21.7 51.5t-51.7 21.6q-29.5 0-51.2-21.7t-21.7-51.4v-106.9q-15.4 6.3-36.6 6.3-34.5 0-53.8-23.3t-19.3-59z m36.6 0q0 20.3 8.7 33t27.8 12.7q12.3 0 24.2-4.3t19.4-9.4 15.7-9.4 13.9-4.3v164.6q0 14.2 11 25.4t25.6 11.1q14.8 0 25.7-10.8t10.8-25.7v-94.6q13.2 10 29.5 10 19.7 0 34-15.2 9.1 5.2 19.7 5.2t21-5 15-13.6q6.8 1.2 16 1.2 24.3 0 36-13.9t11.7-38.7q0-24-9.2-52.3t-18.2-55.4-9.2-47.7v-9.2h-182.8v9.2q0 10-3.5 19.2t-10.5 17.9-13.2 14.3-15.4 14q-2.6 2.3-4 3.4-23.2 20.6-41.4 32-6.3 4-19.5 10.9-0.8 0.3-6.4 3t-10.3 5.3-10.1 5.7-8.7 6.1-3.3 5.3z m292.5-201.1q0 7.4 5.5 12.8t12.8 5.4 12.9-5.4 5.4-12.8-5.4-12.9-12.9-5.4-12.8 5.4-5.5 12.9z" /></svg>