<svg height="512" width="438.9" xmlns="http://www.w3.org/2000/svg"><path d="m0 256q0-35.7 19.1-59t54-23.3q19.5 0 36.6 6.3v-106.9q0-29.7 21.7-51.4t51.2-21.7q30 0 51.7 21.6t21.7 51.5v48.3q17.7 1.2 34 10.6 6-0.9 12.3-0.9 28.8 0 50.8 17.2 39.8-0.3 62.8 24.3t23 64.8q0 38-19.8 92-16.8 46.9-16.8 63.7v82.3q0 15.2-10.7 25.9t-25.9 10.7h-182.8q-15.2 0-25.9-10.7t-10.7-25.9v-82.3q0-2.8-1.3-6.1t-4-6.7-5.1-6.4-6.5-6.9-6.1-5.9-6.2-5.4-4.8-4q-21.2-18.6-36.9-28.6-6-3.7-17.7-9.4t-20.6-10.6-18-11.5-14.1-15.7-5-19.9z m36.6 0q0 6.9 39.7 25.7 12.6 6.9 18.6 10.6 18.2 11.4 41.4 32 23.1 20.3 30.3 28.8 16.3 19.8 16.3 40v9.2h182.8v-9.2q0-20.5 9.2-47.7t18.2-55.3 9.2-51.2q0-54-47.7-54-7.5 0-16 1.4-4.6-8.6-15-13.6t-21-5-19.7 5.2q-14.3-15.2-34-15.2-7.2 0-15.9 2.9t-13.6 7.1v-94.6q0-14.8-10.8-25.7t-25.7-10.8q-14.6 0-25.6 11.1t-11 25.4v164.6q-5.7 0-13.9-4.3t-15.7-9.4-19.4-9.4-24.2-4.3q-19.1 0-27.8 12.7t-8.7 33z m292.5 201.1q0 7.5 5.5 12.9t12.8 5.4 12.9-5.4 5.4-12.9-5.4-12.8-12.9-5.4-12.8 5.4-5.5 12.8z" /></svg>