<svg height="512" width="512.0" xmlns="http://www.w3.org/2000/svg"><path d="m17.7 56.6q0-7.5 3.4-13.7t10.3-6.3q13.2 0 39.6 1t39.6 1q12 0 36.1-1t36.2-1q7.1 0 10.7 6.3t3.5 13.7q0 8.5-4.8 12.4t-11 4.1-14.2 1.2-12.2 3.7q-10 6-10 45.7l0.2 91.4q0 6 0.3 9.2 3.7 0.8 11.2 0.8h199.7q7.1 0 10.8-0.8 0.3-3.2 0.3-9.2l0.3-91.4q0-39.7-10-45.7-5.1-3.1-16.7-3.6t-18.9-3.7-7.2-14.1q0-7.5 3.5-13.7t10.7-6.3q12.6 0 37.8 1t37.7 1q12.3 0 36.8-1t36.9-1q7.1 0 10.7 6.3t3.6 13.7q0 8.5-5 12.5t-11.5 4.2-14.7 0.8-12.5 3.6q-10 6.6-10 46l0.2 269.4q0 34 9.8 40 4.5 2.9 13.1 3.9t15.3 1.3 11.8 4.4 5.2 12.7q0 7.5-3.4 13.7t-10.3 6.3q-12.6 0-37.9-1t-38.1-1q-12.6 0-37.7 1t-37.8 1q-6.8 0-10.5-5.8t-3.7-13q0-8.9 4.8-13.2t11.2-4.8 14.5-2 12.9-4.3q9.4-6 9.4-40l-0.3-111.7q0-6-0.3-8.9-3.7-1.1-14.2-1.1h-192.9q-10.9 0-14.6 1.1-0.3 2.9-0.3 8.9l-0.2 106q0 40.5 10.5 46.8 4.6 2.9 13.7 3.7t16.3 1 12.9 4.3 5.7 13q0 7.5-3.6 13.7t-10.4 6.3q-13.4 0-39.9-1t-39.5-1q-12.3 0-36.6 1t-36.3 1q-6.6 0-10.1-6t-3.6-12.8q0-8.6 4.4-12.9t10.3-5 13.6-2.1 12-4.3q9.4-6.6 9.4-40.9l-0.3-16.3v-232.2q0-0.9 0.2-7.5t0-10.4-0.5-11-1-12-1.8-10.4-3.2-9-4.5-5.2q-4.3-2.8-12.9-3.4t-15.1-0.6-11.7-4-5.2-12.8z" /></svg>