<svg height="512" width="512.0" xmlns="http://www.w3.org/2000/svg"><path d="m0 170.3q0-62.9 36.3-98.3t100.3-35.4q17.7 0 36.1 6.1t34.3 16.6 27.3 19.6 21.7 19.4q10.3-10.3 21.7-19.4t27.3-19.6 34.3-16.6 36.1-6.1q64 0 100.3 35.4t36.3 98.3q0 63.1-65.4 128.6l-178 171.4q-5.2 5.1-12.6 5.1t-12.6-5.1l-178.3-172q-2.8-2.3-7.8-7.4t-15.9-18.8-19.4-27.8-15.3-34.6-6.7-39.4z m36.6 0q0 48 53.4 101.4l166 160 165.7-159.7q53.7-53.7 53.7-101.7 0-23.2-6.1-40.9t-15.7-28.1-23.3-17-26.9-8.9-28-2.3-32 7.3-31.5 18.3-24.8 20.6-17.1 17.6q-5.1 6.2-14 6.2t-14-6.2q-6.9-8-17.1-17.6t-24.8-20.6-31.5-18.3-32-7.3-28 2.3-26.9 8.9-23.3 17-15.7 28.1-6.1 40.9z" /></svg>