<svg height="512" width="475.4" xmlns="http://www.w3.org/2000/svg"><path d="m7.4 257q0.3-3.9 3.2-6.1l205.4-171.2q9.1-7.4 21.7-7.4t21.7 7.4l69.7 58.3v-55.7q0-4 2.6-6.6t6.6-2.6h54.8q4 0 6.6 2.6t2.6 6.6v116.6l62.6 52q2.8 2.2 3.1 6.1t-2 6.7l-17.7 21.2q-2.3 2.5-6 3.1h-0.9q-3.7 0-6-2l-197.7-164.9-197.7 164.9q-3.4 2.3-6.9 2-3.7-0.6-6-3.1l-17.7-21.2q-2.3-2.8-2-6.7z m65.7 163.6v-137.2q0-0.3 0.2-0.8t0.1-0.9l164.3-135.4 164.3 135.4q0.3 0.6 0.3 1.7v137.2q0 7.4-5.4 12.8t-12.9 5.5h-109.7v-109.8h-73.2v109.8h-109.7q-7.4 0-12.8-5.5t-5.5-12.8z" /></svg>