<svg height="512" width="402.3" xmlns="http://www.w3.org/2000/svg"><path d="m0 493.7v-365.7q0-7.4 5.4-12.9t12.9-5.4h91.4v-82.3q0-11.4 8-19.4t19.4-8h128q11.5 0 19.5 8t8 19.4v82.3h91.4q7.4 0 12.9 5.4t5.4 12.9v365.7q0 7.4-5.4 12.9t-12.9 5.4h-365.7q-7.4 0-12.9-5.4t-5.4-12.9z m36.6-18.3h109.7v-64q0-3.7 2.7-6.4t6.4-2.7h91.5q3.7 0 6.4 2.7t2.7 6.4v64h109.7v-329.1h-73.1v9.1q0 11.5-8 19.5t-19.5 8h-128q-11.4 0-19.4-8t-8-19.5v-9.1h-73.1v329.1z m36.5-82.3v-18.2q0-3.8 2.8-6.5t6.4-2.7h18.3q3.7 0 6.4 2.7t2.7 6.5v18.2q0 3.8-2.7 6.5t-6.4 2.7h-18.3q-3.7 0-6.4-2.7t-2.8-6.5z m0-73.1v-18.3q0-3.7 2.8-6.4t6.4-2.7h18.3q3.7 0 6.4 2.7t2.7 6.4v18.3q0 3.7-2.7 6.4t-6.4 2.7h-18.3q-3.7 0-6.4-2.7t-2.8-6.4z m0-73.1v-18.3q0-3.7 2.8-6.5t6.4-2.7h18.3q3.7 0 6.4 2.7t2.7 6.5v18.3q0 3.7-2.7 6.4t-6.4 2.7h-18.3q-3.7 0-6.4-2.7t-2.8-6.4z m73.2 73.1v-18.3q0-3.7 2.7-6.4t6.4-2.7h18.3q3.7 0 6.4 2.7t2.8 6.4v18.3q0 3.7-2.8 6.4t-6.4 2.7h-18.3q-3.7 0-6.4-2.7t-2.7-6.4z m0-73.1v-18.3q0-3.7 2.7-6.5t6.4-2.7h18.3q3.7 0 6.4 2.7t2.8 6.5v18.3q0 3.7-2.8 6.4t-6.4 2.7h-18.3q-3.7 0-6.4-2.7t-2.7-6.4z m0-109.8q0 3.8 2.7 6.5t6.4 2.7h18.3q3.7 0 6.4-2.7t2.8-6.5v-27.4h36.5v27.4q0 3.8 2.7 6.5t6.5 2.7h18.3q3.7 0 6.4-2.7t2.7-6.5v-91.4q0-3.7-2.7-6.4t-6.4-2.7h-18.3q-3.7 0-6.5 2.7t-2.7 6.4v27.4h-36.5v-27.4q0-3.7-2.8-6.4t-6.4-2.7h-18.3q-3.7 0-6.4 2.7t-2.7 6.4v91.4z m73.1 182.9v-18.3q0-3.7 2.7-6.4t6.5-2.7h18.3q3.7 0 6.4 2.7t2.7 6.4v18.3q0 3.7-2.7 6.4t-6.4 2.7h-18.3q-3.7 0-6.5-2.7t-2.7-6.4z m0-73.1v-18.3q0-3.7 2.7-6.5t6.5-2.7h18.3q3.7 0 6.4 2.7t2.7 6.5v18.3q0 3.7-2.7 6.4t-6.4 2.7h-18.3q-3.7 0-6.5-2.7t-2.7-6.4z m73.2 146.2v-18.2q0-3.8 2.7-6.5t6.4-2.7h18.3q3.7 0 6.4 2.7t2.7 6.5v18.2q0 3.8-2.7 6.5t-6.4 2.7h-18.3q-3.7 0-6.4-2.7t-2.7-6.5z m0-73.1v-18.3q0-3.7 2.7-6.4t6.4-2.7h18.3q3.7 0 6.4 2.7t2.7 6.4v18.3q0 3.7-2.7 6.4t-6.4 2.7h-18.3q-3.7 0-6.4-2.7t-2.7-6.4z m0-73.1v-18.3q0-3.7 2.7-6.5t6.4-2.7h18.3q3.7 0 6.4 2.7t2.7 6.5v18.3q0 3.7-2.7 6.4t-6.4 2.7h-18.3q-3.7 0-6.4-2.7t-2.7-6.4z" /></svg>