<svg height="512" width="438.9" xmlns="http://www.w3.org/2000/svg"><path d="m0 256q0-59.7 29.4-110.1t79.9-79.9 110.1-29.4 110.2 29.4 79.8 79.9 29.5 110.1-29.5 110.1-79.8 79.9-110.2 29.4-110.1-29.4-79.9-79.9-29.4-110.1z m146.3 137.1q0 4 2.6 6.6t6.5 2.6h128q4 0 6.6-2.6t2.6-6.6v-45.7q0-4-2.6-6.5t-6.6-2.6h-27.4v-146.3q0-4-2.6-6.6t-6.5-2.5h-91.5q-4 0-6.5 2.5t-2.6 6.6v45.7q0 4 2.6 6.6t6.5 2.6h27.5v91.4h-27.5q-4 0-6.5 2.6t-2.6 6.5v45.7z m36.6-256q0 4 2.5 6.6t6.6 2.6h54.9q4 0 6.5-2.6t2.6-6.6v-45.7q0-4-2.6-6.5t-6.5-2.6h-54.9q-4 0-6.6 2.6t-2.5 6.5v45.7z" /></svg>