<svg height="512" width="438.9" xmlns="http://www.w3.org/2000/svg"><path d="m0 419.1v-326.2q0-23.2 16.6-39.8t39.7-16.5h326.3q23.1 0 39.7 16.5t16.6 39.8v326.2q0 23.2-16.6 39.8t-39.7 16.5h-326.3q-23.2 0-39.7-16.5t-16.6-39.8z m48.9-11.7q0 7.5 5 12.5t12.4 5h305.4q7.2 0 12.3-5t5.1-12.5v-185.1h-38.5q5.7 18 5.7 37.4 0 36-18.3 66.4t-49.7 48.2-68.6 17.7q-56.3 0-96.3-38.7t-40-93.6q0-19.4 5.7-37.4h-40.2v185.1z m82.8-152.3q0 35.5 25.9 60.5t62.1 25q36.6 0 62.4-25t25.9-60.5-25.9-60.4-62.4-25q-36.3 0-62.1 25t-25.9 60.4z m168.3-102.8q0 8.3 5.7 14t14 5.7h49.7q8.3 0 14-5.7t5.7-14v-47.2q0-8-5.7-13.8t-14-5.9h-49.7q-8.3 0-14 5.9t-5.7 13.8v47.2z" /></svg>