<svg height="512" width="438.9" xmlns="http://www.w3.org/2000/svg"><path d="m0 416.6q0-20.6 12.7-36.6t32.4-20.6q-6.2-24.5 0.3-49.4t25.2-43.4l3.4-3.5 43.1 43.5-3.1 3.1q-10.6 10.6-10.6 25.4t10.6 25.8q10.6 10.5 25.4 10.5t25.5-10.5l8.5-8.6 43.2-43.4 46-45.8 43.1 43.5-45.7 45.7-43.1 43.4-8.6 8.6q-18.6 18.3-43.3 24.8t-49 0.6q-4.6 20-20.6 32.9t-36.8 12.8q-24.3 0-41.5-17.3t-17.1-41.5z m0.6-321.2q0-24.3 17.1-41.5t41.4-17.3q21.8 0 38.2 14t19.8 35.1q24-5.7 48.5 1t42.7 25l3.4 3.4-43.4 43.5-3.4-3.5q-10.6-10.5-25.5-10.5t-25.4 10.5-10.6 25.6 10.6 25.6l8.3 8.3 43.4 43.4 45.7 45.7-43.1 43.4-46-45.7-43.2-43.4-8.5-8.6q-19.5-19.1-25.7-45.5t1.4-51.3q-20-4.3-32.9-20.3t-12.8-36.9z m126.8 114l46-45.7 43.5-43.4 8.2-8.6q19.2-19.1 45.5-25.6t50.8 1q3.2-21.4 19.6-36t38.7-14.5q24.3 0 41.4 17.3t17.2 41.5q0 22-14.6 38.6t-36.3 19.7q7.5 24.3 0.9 50.4t-25.7 45.3l-3.5 3.5-43.1-43.5 3.4-3.4q10.6-10.6 10.6-25.4t-10.6-25.5-25.4-10.5-25.4 10.5l-8.6 8.6-43.4 43.4-45.7 45.8z m94.3 2.9l43.4-43.4 45.8 45.7 43.4 43.4 8.3 8.6q18.3 18.3 25 43t0.7 49q21.7 3.1 36.1 19.5t14.5 38.5q0 24.3-17.2 41.5t-41.4 17.3q-21.2 0-37.4-13.4t-20.3-33.7q-24.6 8-51.3 1.7t-46.2-25.7l-3.1-3.4 43.1-43.5 3.5 3.5q10.5 10.5 25.4 10.5t25.4-10.5 10.6-25.5-10.6-25.4l-8.5-8.6-43.5-43.4z" /></svg>