<svg height="512" width="512.0" xmlns="http://www.w3.org/2000/svg"><path d="m0 224q0-45.7 27.1-89.4t70.9-70.9 89.4-27.1q46.6 0 75.9 29.3t29.3 75.8q0 54-37.5 104.3l101.5 101.4 27.4-27.4q-0.9-0.9-7.4-7t-11.5-11-9.4-10.4-4.6-8.2q0-4.8 14-18.8t18.9-14q3.7 0 6.6 2.8 1.7 1.7 13.1 12.7t23.4 22.8 24.8 24.5 20.8 22.3 8.2 11.7q0 4.9-14 18.9t-18.9 14q-2.6 0-8.1-4.6t-10.5-9.4-11-11.4-7-7.5l-27.4 27.5 62.9 62.8q8 8 8 19.4 0 12-11.2 23.2t-23.1 11.1q-11.5 0-19.5-8l-191.7-191.7q-50.3 37.4-104.3 37.4-46.5 0-75.8-29.2t-29.3-75.9z m54.9-4.6q0 22.9 16 38.9t38.8 16 38.9-16 16-38.9q0-12-5.5-23.7 11.8 5.4 23.8 5.4 22.8 0 38.8-16t16-38.8-16-38.9-38.8-16-38.9 16-16 38.9q0 12 5.4 23.7-11.7-5.4-23.7-5.4-22.8 0-38.8 16t-16 38.8z" /></svg>