<svg height="512" width="512.0" xmlns="http://www.w3.org/2000/svg"><path d="m0 246.9v-18.3q0-4 2.6-6.6t6.5-2.6h50l-9.4-36.5h-40.6q-4 0-6.5-2.6t-2.6-6.6v-18.3q0-4 2.6-6.5t6.5-2.6h31.2l-25.4-98.3q-1.5-4.3 1.4-8 2.8-3.4 7.4-3.4h39.2q7.4 0 8.8 6.8l25.7 102.9h102.6l27.7-102.9q2-6.8 8.9-6.8h36q6.8 0 8.8 6.8l28 102.9h104.3l26.6-102.9q1.4-6.8 8.8-6.8h39.2q4.6 0 7.4 3.4 2.9 3.7 1.4 8l-26 98.3h31.8q4 0 6.5 2.6t2.6 6.5v18.3q0 4-2.6 6.6t-6.5 2.6h-41.5l-9.7 36.5h51.2q4 0 6.5 2.6t2.6 6.6v18.3q0 4-2.6 6.5t-6.5 2.6h-60.9l-46.9 176q-2 6.9-8.8 6.9h-45.4q-6.9 0-8.9-6.9l-47.4-176h-59.7l-47.8 176q-2 6.9-8.8 6.9h-45.4q-3.2 0-5.6-2t-3-4.9l-45.7-176h-59.5q-4 0-6.5-2.6t-2.6-6.5z m106.6-64l9.1 36.5h64.3l10-36.5h-83.4z m18 73.1l21.4 85.7q0.3 0.3 0.3 0.9t0.3 0.8q0-0.3 0.1-1t0.2-1l23.1-85.4h-45.4z m110.3-36.6h39.7l-10-36.5h-20z m84.5-36.5l9.7 36.5h65.8l9.4-36.5h-84.9z m19.7 73.1l23.2 85.4q0 0.3 0.1 1t0.5 1q0-0.3 0.1-0.8t0.1-0.9l22.3-85.7h-46.3z" /></svg>