<svg height="512" width="512.0" xmlns="http://www.w3.org/2000/svg"><path d="m0 256q0-52 20.3-99.4t54.6-81.7 81.7-54.6 99.4-20.3 99.4 20.3 81.7 54.6 54.6 81.7 20.3 99.4-20.3 99.4-54.6 81.7-81.7 54.6-99.4 20.3-99.4-20.3-81.7-54.6-54.6-81.7-20.3-99.4z m36.6 0q0 54.3 25.7 103.1l55.4-55.4q-8-23.4-8-47.7t8-47.7l-55.4-55.4q-25.7 48.8-25.7 103.1z m109.7 0q0 45.4 32.1 77.6t77.6 32.1 77.6-32.1 32.1-77.6-32.1-77.6-77.6-32.1-77.6 32.1-32.1 77.6z m6.6 193.7q48.8 25.7 103.1 25.7t103.1-25.7l-55.4-55.4q-23.4 8-47.7 8t-47.7-8z m0-387.4l55.4 55.4q23.4-8 47.7-8t47.7 8l55.4-55.4q-48.8-25.7-103.1-25.7t-103.1 25.7z m241.4 241.4l55.4 55.4q25.7-48.8 25.7-103.1t-25.7-103.1l-55.4 55.4q8 23.4 8 47.7t-8 47.7z" /></svg>