<svg height="512" width="475.4" xmlns="http://www.w3.org/2000/svg"><path d="m4.6 128q0-34.3 24.3-58l42-41.7q23.7-23.7 58-23.7 34.5 0 58.2 24.3l58.9 59.1q23.7 23.7 23.7 58 0 35.1-25.1 59.7l25.1 25.2q24.6-25.2 59.4-25.2 34.3 0 58.3 24l59.5 59.4q24 24 24 58.3t-24.3 58l-42 41.7q-23.7 23.8-58 23.8-34.6 0-58.3-24.3l-58.9-59.2q-23.7-23.7-23.7-58 0-35.1 25.2-59.7l-25.2-25.1q-24.6 25.1-59.4 25.1-34.3 0-58.3-24l-59.4-59.4q-24-24-24-58.3z m54.8 0q0 11.4 8 19.4l59.5 59.5q7.7 7.7 19.4 7.7 12 0 20.6-8.9-0.9-0.8-5.5-5.3t-6.1-6.1-4.3-5.4-3.7-7.3-1-7.9q0-11.4 8-19.4t19.4-8q4.3 0 7.9 1t7.3 3.7 5.4 4.3 6.1 6.1 5.3 5.5q9.4-8.9 9.4-20.9 0-11.4-8-19.4l-58.8-59.2q-8-8-19.4-8-11.2 0-19.5 7.7l-42 41.8q-8 8-8 19.1z m200.9 201.4q0 11.5 8 19.5l58.8 59.1q7.8 7.7 19.5 7.7 11.4 0 19.4-7.4l42-41.7q8-8 8-19.2 0-11.4-8-19.4l-59.4-59.4q-8-8-19.5-8-12 0-20.5 9.1 0.8 0.9 5.4 5.3t6.1 6.1 4.3 5.5 3.7 7.3 1 7.8q0 11.4-8 19.4t-19.4 8q-4.3 0-7.8-1t-7.3-3.7-5.5-4.3-6.1-6.1-5.3-5.4q-9.4 8.8-9.4 20.8z" /></svg>