<svg height="512" width="438.9" xmlns="http://www.w3.org/2000/svg"><path d="m3.1 471.7q-2.8-6.6 2-19t5.2-15.6q0.3-4.5-1.2-11.4t-2.8-12.1-1.3-10.5 3-7.7q4-3.4 16.3-4t17.1-3.4q8.6-5.1 12-10t3.5-14.6q6 20.9-9.2 30.3-9.1 5.7-23.7 4.3-9.7-0.9-12.3 2.9-3.7 4.2 1.4 16.2 0.6 1.8 2.3 5.2t2.5 5.1 1.2 4.9 0.3 6.3q0 4.3-4.8 14t-4 13.7q0.8 4.8 10.5 7.4 5.8 1.7 24.2 5.3t28.4 5.9q6.9 1.7 21.2 6.2t23.5 6.6 15.9 1.2q12.3-1.8 18.4-8t6.6-13.8-2.2-16.7-5.4-14.8-5.7-10.5q-34.6-54.2-48.3-69.1-19.4-21.1-32.3-11.4-3.1 2.5-4.3-4.3-0.8-4.6-0.5-10.9 0.3-8.3 2.8-14.8t6.9-13.5 6.3-12q2.3-6 7.5-20.5t8.5-22.3 8.5-17.4 11.2-15.5q31.4-40.8 35.4-55.7-3.4-32-4.6-88.6-0.5-25.7 6.9-43.2t30.3-29.9q11.1-6 29.7-6 15.1-0.3 30.3 3.9t25.4 11.8q16.3 12 26.2 34.7t8.4 42.2q-1.4 27.1 8.6 61.1 9.7 32.3 38 62.3 15.7 16.9 28.4 46.6t17 54.5q2.3 14 1.4 24.2t-3.4 15.8-5.7 6.3q-2.9 0.6-6.7 5.5t-7.8 10.1-11.5 9.6-17.5 4q-5.1-0.3-9-1.5t-6.4-3.8-3.8-4.4-3.3-5.9-2.6-5.6q-6.3-10.5-11.7-8.5t-8 14 2 27.7q5.7 20 0.3 55.7-2.9 18.6 5.1 28.7t20.9 9.4 24.3-10.1q16.8-14 25.5-19t29.6-12.2q15.1-5.1 22-10.4t5.3-9.8-7.2-8.2-14.7-6.7q-9.4-3.1-14.1-13.7t-4.3-20.7 4.4-13.6q0.3 8.9 2.3 16.1t4.2 11.6 5.8 8.2 6 5.4 6.2 3.7 4.7 2.7q5.7 3.4 8.8 7t3.5 6.9-0.8 6.4-4.4 6.3-6.7 5.6-8.6 5.2-9 4.8-9.1 4.4-7.7 3.7q-10.9 5.4-24.5 16t-21.5 18.3q-4.9 4.6-19.5 5.6t-25.4-4.2q-5.1-2.6-8.4-6.7t-4.7-7.3-6.3-5.6-13.4-2.7q-12.6-0.3-37.2-0.3-5.4 0-16.3 0.5t-16.5 0.7q-12.6 0.3-22.8 4.3t-15.2 8.5-12.5 8.2-15.3 3.3q-8.2-0.3-31.7-8.9t-41.7-12.3q-5.4-1.1-14.6-2.7t-14.2-2.6-11.3-2.7-9.6-4.1-4.9-5.6z m88.6-174.3q-10.3 18.6 2.9 47.5 1.4 3.4 7.1 8t6.9 5.7q5.7 6.5 29.7 25.8t26.6 21.9q4.5 4.3 5 10.8t-4 12.3-13 6.6q2.2 4.3 8.2 12.7t8 15.4 2 20.2q13.2-6.9 2-26.3-1.1-2.3-3-4.6t-2.7-3.4-0.5-1.7q0.8-1.4 3.7-2.7t5.7 0.7q13.1 14.8 47.4 10.3 38-4.3 50.6-24.9 6.6-10.8 9.7-8.6 3.4 1.8 2.9 14.9-0.3 7.1-6.6 26.3-2.6 6.6-1.7 10.7t6.8 4.4q0.9-5.4 4.2-22t3.8-25.7q0.6-6-1.8-21t-2.2-27.7 6.6-20.1q4.3-5.2 14.6-5.2 0.3-10.6 9.8-15.1t20.7-3 17.2 6.4q0-5.1-15.7-12 1.1-4.3 2.1-7.9t1.4-7.4 0.9-6.1 0.1-6.5-0.2-5.5-1-6.3-1.2-5.9-1.4-7.1-1.6-7.6q-2.8-13.7-13.4-29.4t-20.6-21.4q6.9 5.7 16.3 23.7 24.9 46.3 15.4 79.4-3.1 11.4-14.3 12-8.8 1.1-11-5.3t-2.2-23.8-3.3-30.6q-2.6-11.2-5.6-19.7t-5.6-13-4.4-7-3.7-4.3-2.2-2q-4-17.7-8.8-29.4t-8.4-16-6.8-9.5-4.2-11.4q-1.2-6 1.7-15.3t1.3-14.1-12.8-7.2q-4.2-0.8-12.7-5.1t-10.1-4.6q-2.3-0.3-3.2-7.4t2.3-14.6 10.3-7.7q10.6-0.9 14.6 8.6t1.1 16.5q-3.1 5.5-0.5 7.6t8.5 0.2q3.7-1.2 3.7-10.3v-10.6q-1.4-8.6-3.8-14.3t-6-8.7-6.7-4.3-7.7-2.1q-30.6 2.3-25.5 38.3 0 4.2-0.3 4.2-2.5-2.5-8.4-3t-9.4 0.2-4.4-1.4q0.2-16.3-4.6-25.8t-12.9-9.7q-7.7-0.3-11.8 7.9t-4.7 17q-0.3 4.3 1 10.6t3.7 10.7 4.4 3.8q2.9-0.8 4.6-4 1.1-2.5-2-2.3-2 0-4.5-4.1t-2.7-9.6q-0.3-6.3 2.6-10.5t9.7-4q4.9 0 7.7 6t2.7 11.1-0.4 6.3q-6.3 4.3-8.8 8.3-2.3 3.4-7.9 6.7t-5.9 3.6q-3.7 4-4.4 7.7t2.2 5.1q4 2.3 7.1 5.6t4.6 5.4 5.3 3.7 10.1 1.9q13.4 0.6 29.1-4.3 0.6-0.3 6.6-2t9.9-3 8.4-3.7 6-5q2.6-4 5.7-2.3 1.4 0.9 1.9 2.4t-0.9 3.5-4.7 2.7q-5.7 1.7-16.1 6.1t-13 5.6q-12.6 5.4-20 6.6-7.2 1.4-22.6-0.6-2.9-0.6-2.6 0.6t4.9 5.4q7.1 6.6 19.1 6.3 4.9-0.3 10.3-2t10.3-4 9.6-5 8.5-4.9 7-3.4 5-0.7 2.5 3.1q0 0.6-0.3 1.3t-1.2 1.4-1.7 1.3-2.4 1.4-2.6 1.3-2.8 1.5-2.8 1.2q-8 4-19.2 12.6t-19 12.3-14 0.3q-6-3.2-18-20.9-6.3-8.8-7.2-6.3-0.3 0.9-0.3 2.9 0 7.1-4.3 16.1t-8.4 15.9-6 16.6 3.3 18q-6.6 1.7-17.9 25.7t-13.5 40.3q-0.6 5.1-0.5 19.7t-1.5 16.8q-2.3 6.9-8.3 0.9-9.2-8.9-10.3-26.9-0.6-8 1.1-16 1.2-5.4-0.2-5.1z m14.6-38.5q1.1 0.2 3.6-2t3.5-5.2q0.3-0.8 0.6-2t0.6-1.7 0.4-1.3 0.1-1.1v-0.9t-0.2-0.7-0.9-0.6q-1.1-0.3-1.7 0.9t-1.3 3.6-1.6 3.8-2.8 3.7q-2 2.9-0.3 3.5z m66-160q0.6 1.4 1.4 1.7 2.9 0 2 4.3-0.8 5.7 2.3 5.7 0.9 0 0.9-0.9 0.8-4.8-0.8-8.6t-3.2-4.2q-2.6-0.6-2.6 2z m8.8 22.8q0-3.4 5.5-4.3h2.8q-3.1 0.3-4.4 3t-2.4 2.7q-1.5 0.3-1.5-1.4z m24.9-3.4q6.9-3.2 9.1 0.6 0.9 1.7-0.8 2.5-1.2 0.3-3.3-1.8t-5-1.3z m32.6-21.2l1.1 0.6q4 1.2 5.2 8.9 0 0.8 2.2-0.6l0.6-0.9q0-3.1-1.4-5.5t-3.2-3.6-2.5-0.9q-4 0.3-2 2z m4.5-53q-0.2 0.8 0.9 2.5 1.1 0.8 2.3 0t3.1-2.6 4.3-2.6q0.3-0.3 2.6-0.3t4.3-0.5 2.5-2q0-0.6-0.7-1.5t-2.5-2-2.8-1.7q-4.2-4.3-6.8-4.3-2.6 0.3-3.3 2.2t-0.3 3.7-0.1 3.6q-0.3 1.1-1.7 3t-1.8 2.5z m37.2 108.5q-4 4.5 2 12.4t11.1 9q2.6 0.3 4.2-2.3t1-5.7q-0.6-2.3-1.9-3.3t-3.7-1.4-4.1-1.6q-1.5-0.8-2.8-2.3t-2-2.3-1.5-1.8-1.2-1.2-1.1 0.5z" /></svg>