<svg height="512" width="512.0" xmlns="http://www.w3.org/2000/svg"><path d="m4.3 313.7q0-14.6 6.7-26.6t16.1-19.4 18.9-13.6 16.1-12.4 6.8-12.8q0-7.2-4.2-11t-11.3-3.9q-13.1 0-23.1 16.6l-24.3-16.9q6.9-14.6 20.4-22.7t30.2-8.1q20.8 0 35.1 11.8t14.3 32.2q0 14.2-9.7 26.1t-21.4 18.4-21.6 14.5-10.2 15h36.3v-17.2h30v45.4h-103.4q-1.7-10.2-1.7-15.4z m1.1 179.4l16.3-25.1q14 12.9 30.3 12.9 8.3 0 14.4-4.2t6.2-12.1q0-18.3-30-16l-7.5-16q2.3-2.9 9.3-12.5t12.2-15.4 10.5-11v-0.3q-4.5 0-13.8 0.3t-13.9 0.3v15.1h-30.3v-43.4h95.2v25.2l-27.2 32.8q14.6 3.4 23.2 14t8.6 25.2q0 22.8-15.6 36t-38.7 13.1q-30.3 0-49.2-18.9z m4.3-454.2l38.9-36.3h30.3v115.4h30.8v28.3h-95.7v-28.3h30.6q0-11.7 0.1-34.9t0.2-34.5v-3.5h-0.6q-2.3 4.9-14.3 15.5z m136.6 390.8v-54.8q0-4 2.6-6.6t6.5-2.6h347.5q3.7 0 6.4 2.7t2.7 6.5v54.8q0 3.7-2.7 6.4t-6.4 2.8h-347.5q-3.7 0-6.4-2.8t-2.7-6.4z m0-146.3v-54.8q0-4 2.6-6.6t6.5-2.6h347.5q3.7 0 6.4 2.7t2.7 6.5v54.8q0 3.7-2.7 6.5t-6.4 2.7h-347.5q-3.7 0-6.4-2.7t-2.7-6.5z m0-146.3v-54.8q0-3.7 2.7-6.4t6.4-2.8h347.5q3.7 0 6.4 2.8t2.7 6.4v54.8q0 3.8-2.7 6.5t-6.4 2.7h-347.5q-3.7 0-6.4-2.7t-2.7-6.5z" /></svg>