<svg height="512" width="512.0" xmlns="http://www.w3.org/2000/svg"><path d="m0 429.7v-54.8q0-3.8 2.7-6.5t6.4-2.7h54.9q3.7 0 6.4 2.7t2.7 6.5v54.8q0 3.7-2.7 6.4t-6.4 2.8h-54.9q-3.7 0-6.4-2.8t-2.7-6.4z m0-109.7v-54.9q0-3.7 2.7-6.4t6.4-2.7h54.9q3.7 0 6.4 2.7t2.7 6.4v54.9q0 3.7-2.7 6.4t-6.4 2.7h-54.9q-3.7 0-6.4-2.7t-2.7-6.4z m0-109.7v-54.9q0-3.7 2.7-6.4t6.4-2.7h54.9q3.7 0 6.4 2.7t2.7 6.4v54.9q0 3.7-2.7 6.4t-6.4 2.7h-54.9q-3.7 0-6.4-2.7t-2.7-6.4z m0-109.7v-54.9q0-3.7 2.7-6.4t6.4-2.7h54.9q3.7 0 6.4 2.7t2.7 6.4v54.9q0 3.7-2.7 6.4t-6.4 2.7h-54.9q-3.7 0-6.4-2.7t-2.7-6.4z m109.7 329.1v-54.8q0-3.8 2.7-6.5t6.5-2.7h384q3.7 0 6.4 2.7t2.7 6.5v54.8q0 3.7-2.7 6.4t-6.4 2.8h-384q-3.8 0-6.5-2.8t-2.7-6.4z m0-109.7v-54.9q0-3.7 2.7-6.4t6.5-2.7h384q3.7 0 6.4 2.7t2.7 6.4v54.9q0 3.7-2.7 6.4t-6.4 2.7h-384q-3.8 0-6.5-2.7t-2.7-6.4z m0-109.7v-54.9q0-3.7 2.7-6.4t6.5-2.7h384q3.7 0 6.4 2.7t2.7 6.4v54.9q0 3.7-2.7 6.4t-6.4 2.7h-384q-3.8 0-6.5-2.7t-2.7-6.4z m0-109.7v-54.9q0-3.7 2.7-6.4t6.5-2.7h384q3.7 0 6.4 2.7t2.7 6.4v54.9q0 3.7-2.7 6.4t-6.4 2.7h-384q-3.8 0-6.5-2.7t-2.7-6.4z" /></svg>