<svg height="512" width="512.0" xmlns="http://www.w3.org/2000/svg"><path d="m0 393.1v-310.8q0-18.9 13.4-32.3t32.3-13.4h420.6q18.8 0 32.3 13.4t13.4 32.3v310.8q0 18.9-13.4 32.3t-32.3 13.5h-420.6q-18.8 0-32.3-13.5t-13.4-32.3z m36.6 0q0 3.8 2.7 6.5t6.4 2.7h420.6q3.7 0 6.4-2.7t2.7-6.5v-237.7q0-3.7-2.7-6.4t-6.4-2.7h-420.6q-3.7 0-6.4 2.7t-2.7 6.4v237.7z m36.5-36.5v-18.3q0-3.7 2.8-6.4t6.4-2.8h18.3q3.7 0 6.4 2.8t2.7 6.4v18.3q0 3.7-2.7 6.4t-6.4 2.7h-18.3q-3.7 0-6.4-2.7t-2.8-6.4z m0-73.2v-18.3q0-3.7 2.8-6.4t6.4-2.7h18.3q3.7 0 6.4 2.7t2.7 6.4v18.3q0 3.7-2.7 6.5t-6.4 2.7h-18.3q-3.7 0-6.4-2.7t-2.8-6.5z m0-73.1v-18.3q0-3.7 2.8-6.4t6.4-2.7h18.3q3.7 0 6.4 2.7t2.7 6.4v18.3q0 3.7-2.7 6.4t-6.4 2.7h-18.3q-3.7 0-6.4-2.7t-2.8-6.4z m73.2 146.3v-18.3q0-3.7 2.7-6.4t6.4-2.8h274.3q3.7 0 6.4 2.8t2.8 6.4v18.3q0 3.7-2.8 6.4t-6.4 2.7h-274.3q-3.7 0-6.4-2.7t-2.7-6.4z m0-73.2v-18.3q0-3.7 2.7-6.4t6.4-2.7h274.3q3.7 0 6.4 2.7t2.8 6.4v18.3q0 3.7-2.8 6.5t-6.4 2.7h-274.3q-3.7 0-6.4-2.7t-2.7-6.5z m0-73.1v-18.3q0-3.7 2.7-6.4t6.4-2.7h274.3q3.7 0 6.4 2.7t2.8 6.4v18.3q0 3.7-2.8 6.4t-6.4 2.7h-274.3q-3.7 0-6.4-2.7t-2.7-6.4z" /></svg>