<svg height="512" width="438.9" xmlns="http://www.w3.org/2000/svg"><path d="m0 256q0-59.7 29.4-110.1t79.9-79.9 110.1-29.4 110.2 29.4 79.8 79.9 29.5 110.1-29.5 110.1-79.8 79.9-110.2 29.4-110.1-29.4-79.9-79.9-29.4-110.1z m36.6 0q0 37.1 14.5 71t39 58.3 58.3 39 71 14.6 71-14.6 58.3-39 39-58.3 14.6-71-14.6-71-39-58.3-58.3-39-71-14.6-71 14.6-58.3 39-39 58.3-14.5 71z m73.1 54.9q0-7.5 5.4-12.9t12.9-5.4h182.9q7.4 0 12.8 5.4t5.4 12.9-5.4 12.8-12.8 5.4h-182.9q-7.4 0-12.9-5.4t-5.4-12.8z m0-128q0-15.2 10.7-25.9t25.9-10.7 25.8 10.7 10.8 25.9-10.8 25.8-25.8 10.7-25.9-10.7-10.7-25.8z m146.3 0q0-15.2 10.7-25.9t25.9-10.7 25.8 10.7 10.7 25.9-10.7 25.8-25.8 10.7-25.9-10.7-10.7-25.8z" /></svg>