<svg height="512" width="402.3" xmlns="http://www.w3.org/2000/svg"><path d="m3.7 420.6q0-3.7 2.9-6.6l352.5-352.6q2.9-2.8 6.6-2.8t6.6 2.8l23.4 23.5q2.9 2.8 2.9 6.5t-2.9 6.6l-103.1 103.1v36.6q0 37.7-26.9 64.6t-64.6 26.8q-15.7 0-31.1-5.4l-27.4 27.4q27.7 14.6 58.5 14.6 52.9 0 90.5-37.6t37.5-90.4v-36.6q0-7.4 5.5-12.8t12.8-5.4 12.9 5.4 5.4 12.8v36.6q0 63.2-42.1 109.9t-104.2 53.5v37.8h73.2q7.4 0 12.8 5.4t5.5 12.8-5.5 12.9-12.8 5.4h-182.9q-7.4 0-12.8-5.4t-5.5-12.9 5.5-12.8 12.8-5.4h73.2v-37.8q-35.8-3.7-67.2-23.1l-72.6 72.6q-2.8 2.8-6.5 2.8t-6.6-2.8l-23.4-23.5q-2.9-2.8-2.9-6.5z m32.9-182.9v-36.6q0-7.4 5.4-12.8t12.9-5.4 12.8 5.4 5.4 12.8v36.6q0 15.2 4.3 32.3l-28.8 28.9q-12-29.5-12-61.2z m73.1 0v-146.3q0-37.7 26.9-64.5t64.5-26.9q29.2 0 52.8 16.9t33.2 43.4z" /></svg>