<svg height="512" width="219.4" xmlns="http://www.w3.org/2000/svg"><path d="m0 402.3v-292.6q0-14.8 10.9-25.7t25.7-10.9h146.3q14.8 0 25.7 10.9t10.8 25.7v292.6q0 14.8-10.8 25.7t-25.7 10.9h-146.3q-14.9 0-25.7-10.9t-10.9-25.7z m27.4-45.7q0 3.7 2.7 6.4t6.5 2.7h146.3q3.7 0 6.4-2.7t2.7-6.4v-201.2q0-3.7-2.7-6.4t-6.4-2.7h-146.3q-3.7 0-6.5 2.7t-2.7 6.4v201.2z m54.9-242.3q0 4.6 4.6 4.6h45.7q4.5 0 4.5-4.6t-4.5-4.6h-45.7q-4.6 0-4.6 4.6z m4.6 288q0 9.4 6.7 16.1t16.1 6.7 16.2-6.7 6.7-16.1-6.7-16.2-16.2-6.7-16.1 6.7-6.7 16.2z" /></svg>