<svg height="512" width="438.9" xmlns="http://www.w3.org/2000/svg"><path d="m0 256q0-43.7 16.4-83.6t44.6-69 67.3-47 82.8-19.5q12.6-0.6 17.5 11.1 5.1 11.7-4.3 20.6-24.6 22.3-37.6 51.8t-13 62.5q0 42.2 20.9 78t56.5 56.5 78 20.9q33.8 0 65.2-14.6 11.7-5.1 20.6 3.7 4 4 5 9.7t-1.3 10.9q-26.9 58-81 92.7t-118.2 34.7q-44.5 0-85.1-17.4t-70-46.9-46.9-70-17.4-85.1z m36.6 0q0 37.1 14.5 71t39 58.3 58.3 39 71 14.6q41.2 0 78.2-17.6t63-49q-15.5 2.6-31.5 2.6-52 0-96.2-25.8t-70-70-25.8-96.2q0-54.9 29.8-102-57.5 17.1-93.9 65.4t-36.4 109.7z" /></svg>