<svg height="512" width="475.4" xmlns="http://www.w3.org/2000/svg"><path d="m0 232q0-22.9 12-39.9t34-17q21.7 0 40.4 15.9t28.7 38.3 10 43.6q0 22.8-12 39.7t-34 16.8q-21.7 0-40.4-15.8t-28.7-38.2-10-43.4z m73.1 201.4q0-24.5 16-54.7t39.9-55 53.6-41.7 55.1-16.9q33.7 0 72.9 27.9t65.4 67.7 26.3 72.7q0 13.2-4.9 21.9t-13.8 12.8-18.5 5.8-21.7 1.5q-19.4 0-53.5-12.8t-52.2-12.9q-18.8 0-55 12.7t-57.3 12.7q-52.3 0-52.3-41.7z m22-326.8q0-17.2 5.5-32.5t18-26.4 30-11.1q22 0 39.5 16.4t26.2 38.6 8.6 43.3q0 17.1-5.5 32.4t-18 26.4-30 11.2q-21.7 0-39.4-16.5t-26.3-38.7-8.6-43.1z m157.5 28.3q0-21.2 8.5-43.3t26.2-38.6 39.6-16.4q17.4 0 30 11.1t18 26.4 5.4 32.5q0 20.8-8.6 43.1t-26.3 38.7-39.4 16.5q-17.4 0-30-11.2t-18-26.4-5.4-32.4z m97.7 138q0-21.2 10-43.6t28.7-38.3 40.4-15.9q22 0 34 17t12 39.9q0 21.1-10 43.4t-28.7 38.2-40.4 15.8q-22 0-34-16.8t-12-39.7z" /></svg>