<svg height="512" width="512.0" xmlns="http://www.w3.org/2000/svg"><path d="m0 356.6v-237.7q0-34 24.1-58.2t58.2-24.1h237.7q18 0 33.4 7.1 4.3 2 5.2 6.6 0.8 4.8-2.6 8.3l-14 14q-4 4-9.1 2.3-6.6-1.8-12.9-1.8h-237.7q-18.9 0-32.3 13.5t-13.4 32.3v237.7q0 18.8 13.4 32.3t32.3 13.4h237.7q18.9 0 32.3-13.4t13.4-32.3v-36q0-3.7 2.6-6.3l18.3-18.3q4.3-4.3 10-2t5.7 8.3v54.3q0 34-24.2 58.1t-58.1 24.2h-237.7q-34 0-58.2-24.2t-24.1-58.1z m182.9 9.1v-82.3l192-192 82.2 82.3-192 192h-82.2z m27.4-54.8h27.4v27.4h16l33.2-33.2-43.5-43.4-33.1 33.2v16z m59.4-68.6q4.6 4.6 9.4-0.3l100-100q4.9-4.9 0.3-9.4t-9.4 0.3l-100 100q-4.9 4.8-0.3 9.4z m123.4-169.2l26.3-26.2q8-8 19.5-8t19.4 8l43.4 43.4q8 8 8 19.4t-8 19.4l-26.3 26.3z" /></svg>