<svg height="512" width="402.3" xmlns="http://www.w3.org/2000/svg"><path d="m0 133.4q0-26.3 14.6-53.1 16-28.9 30.3-34.9 7.1-3.1 19.5-6t20.2-2.8q4 0 6 0.8 5.1 1.7 15.1 21.7 3.2 5.5 8.6 15.5t10 18.1 8.8 15.3q0.9 1.1 5 7.1t6.2 10.2 2 8.1q0 5.7-8.2 14.3t-17.7 15.7-17.7 15.2-8.1 13.1q0 2.6 1.4 6.4t2.4 5.9 4 6.9 3.3 5.4q21.7 39.1 49.7 67.1t67.2 49.7q0.5 0.3 5.4 3.3t6.9 4 5.8 2.5 6.4 1.4q5.2 0 13.2-8.2t15.1-17.7 15.7-17.7 14.3-8.1q4 0 8.2 2t10.1 6.1 7.2 5q7.1 4.3 15.2 8.9t18.2 10 15.4 8.5q20 10 21.7 15.2 0.9 2 0.9 6 0 7.7-2.9 20.1t-6 19.6q-6 14.3-34.8 30.3-26.9 14.6-53.2 14.6-7.7 0-15-1t-16.4-3.6-13.6-4.2-15.8-5.8-14-5.2q-28-10-50-23.7-36.6-22.5-75.6-61.5t-61.6-75.6q-13.7-22-23.7-50-0.8-2.6-5.1-14t-5.9-15.9-4.1-13.5-3.6-16.5-1-15z" /></svg>