<svg height="512" width="438.9" xmlns="http://www.w3.org/2000/svg"><path d="m0 256q0-59.7 29.4-110.1t79.9-79.9 110.1-29.4 110.2 29.4 79.8 79.9 29.5 110.1-29.5 110.1-79.8 79.9-110.2 29.4q-31.7 0-62.3-9.1 16.9-26.6 22.3-46.9 2.6-9.7 15.5-60.3 5.7 11.2 20.8 19.3t32.6 8.2q34.6 0 61.7-19.6t42-53.9 14.9-77.1q0-32.6-17-61.1t-49.3-46.6-72.9-18q-30 0-56 8.3t-44.1 22-31.2 31.5-19.1 37-6.2 38.3q0 29.7 11.5 52.3t33.4 31.7q8.6 3.5 10.9-5.7 0.5-2 2.2-8.8t2.3-8.6q1.7-6.6-3.1-12.3-14.6-17.4-14.6-43.1 0-43.2 29.9-74.2t78.1-31q43.2 0 67.3 23.4t24.1 60.9q0 48.6-19.5 82.6t-50.2 34q-17.4 0-28-12.5t-6.5-29.8q2.2-10 7.5-26.7t8.6-29.5 3.3-21.5q0-14.3-7.7-23.7t-22-9.5q-17.7 0-30 16.3t-12.3 40.6q0 20.8 7.1 34.8l-28.3 119.5q-4.8 20-3.7 50.5-58.8-26-95.1-80.2t-36.3-120.9z" /></svg>