<svg height="512" width="402.3" xmlns="http://www.w3.org/2000/svg"><path d="m0 302.6q-0.3-3.7 2.6-7.2l27.4-27.7q2.6-2.6 6.6-2.6 1.7 0 2.3 0.3l55.4 15.2 74-74-145.2-79.7q-4-2.3-4.8-6.9-0.6-4.6 2.6-7.7l36.5-36.6q4-3.7 8.6-2.3l190 45.5 45.7-45.8q21.7-21.7 49.2-30.8t42.2 3.4q12.6 14.9 3.5 42.3t-30.9 49.1l-46 46 45.7 198.9q1.5 5.4-3.4 9.4l-36.6 27.5q-2 1.7-5.4 1.7-1.1 0-2-0.3-4.3-0.9-6-4.6l-79.7-145.1-74 74 15.1 55.4q1.5 4.9-2.3 8.9l-27.4 27.4q-2.6 2.6-6.6 2.6h-0.5q-4.3-0.6-6.9-3.8l-54-72-72-54q-3.1-2-3.7-6.5z" /></svg>