<svg height="512" width="438.9" xmlns="http://www.w3.org/2000/svg"><path d="m0 256q0-59.7 29.4-110.1t79.9-79.9 110.1-29.4 110.2 29.4 79.8 79.9 29.5 110.1-29.5 110.1-79.8 79.9-110.2 29.4-110.1-29.4-79.9-79.9-29.4-110.1z m91.4 18.3q0 7.4 5.5 12.8t12.8 5.5h73.2v73.1q0 7.4 5.4 12.9t12.8 5.4h36.6q7.4 0 12.9-5.4t5.4-12.9v-73.1h73.1q7.5 0 12.9-5.5t5.4-12.8v-36.6q0-7.4-5.4-12.8t-12.9-5.5h-73.1v-73.1q0-7.4-5.4-12.9t-12.9-5.4h-36.6q-7.4 0-12.8 5.4t-5.4 12.9v73.1h-73.2q-7.4 0-12.8 5.5t-5.5 12.8v36.6z" /></svg>