<svg height="512" width="512.0" xmlns="http://www.w3.org/2000/svg"><path d="m5.1 363.4q0-78.5 72-133.1-2.2-5.4-2.2-14.9 0-5.7 3.1-14t6.9-12.8q-0.3-6.3 2.1-15.2t6.4-12.3q0-39.7 26.5-82.4t62.1-59.8q39.7-18.9 92.6-18.9 38 0 76 15.7 14 6 25.7 13.7t20.3 16 15.7 19.5 12 21.1 9.3 24.1 7.3 25.6 6.2 28l0.3 1.4q15.7 23.8 15.7 42.9 0 4-2.5 11.4t-2.6 10.9q0 0.3 0.4 1t1 1.4 0.6 1q22 32.6 34.4 61.3t12.5 59.6q0 12.3-5.6 28.5t-15.9 16.3q-2.5 0-5.5-2.1t-5.5-5-5.4-7.4-4.6-7.6-3.8-7.4-2.6-5q-0.3-0.3-0.9-0.3l-1.4 1.1q-16.8 44-37.7 63.7 5.7 5.7 17.6 11t19.7 11.9 10.1 18.6q-0.5 1.1-1.1 4.5t-2 5.2q-18.3 27.7-86.3 27.7-15.1 0-31.6-2.6t-28-5.7-29.8-8.6q-4.3-1.4-6.6-2-4-1.1-13.1-1.3t-11.5-0.4q-11.7 12.9-36.4 18.6t-48.1 5.7q-10 0-19.8-0.4t-26.5-2.6-28.9-5.9-21.3-11.4-9.3-18.3q0-11.4 2.9-17t11.7-13.8q3.2-0.6 11.6-3.7t14.1-3.5q1.2 0 4-0.5 0.6-0.6 0.6-1.2l-0.6-0.8q-13.7-3.2-30.8-30.2t-20.9-44.7l-1.4-0.9q-1.2 0-3.4 5.8-5.2 11.7-15.6 21.2t-22.2 10.8h-0.2q-1.2 0-1.8-1.3t-1.4-1.6q-6.6-15.4-6.6-28.6z" /></svg>