<svg height="512" width="402.3" xmlns="http://www.w3.org/2000/svg"><path d="m0 438.9v-182.9h182.9v182.9h-182.9z m0-219.5v-182.8h182.9v182.8h-182.9z m36.6 182.6h109.7v-109.4h-109.7v109.4z m0-219.1h109.7v-109.8h-109.7v109.8z m36.5 182.8v-36.6h36.6v36.6h-36.6z m0-219.4v-36.6h36.6v36.6h-36.6z m146.3 292.6v-182.9h109.7v36.6h36.6v-36.6h36.6v109.7h-109.7v-36.6h-36.6v109.8h-36.6z m0-219.5v-182.8h182.9v182.8h-182.9z m36.6-36.5h109.7v-109.8h-109.7v109.8z m36.6 256v-36.6h36.5v36.6h-36.5z m0-292.6v-36.6h36.5v36.6h-36.5z m73.1 292.6v-36.6h36.6v36.6h-36.6z" /></svg>