<svg height="512" width="438.9" xmlns="http://www.w3.org/2000/svg"><path d="m0 256q0-59.7 29.4-110.1t79.9-79.9 110.1-29.4 110.2 29.4 79.8 79.9 29.5 110.1-29.5 110.1-79.8 79.9-110.2 29.4-110.1-29.4-79.9-79.9-29.4-110.1z m119.1-85.4q-4.2 6.8 2.3 12l37.7 28.5q2 1.8 5.5 1.8 4.5 0 7.1-3.5 15.2-19.4 24.6-26.3 9.7-6.8 24.6-6.8 13.7 0 24.4 7.4t10.7 16.9q0 10.8-5.7 17.4t-19.4 12.9q-18 8-33 24.7t-15 35.8v10.3q0 4 2.5 6.6t6.6 2.6h54.9q4 0 6.5-2.6t2.6-6.6q0-5.4 6.1-14.1t15.6-14.2q9.2-5.1 14-8.1t13.2-10 12.7-13.7 8-17.3 3.5-23.2q0-25.1-15.8-46.5t-39.6-33.2-48.6-11.7q-69.4 0-106 60.9z m63.8 222.5q0 4 2.5 6.6t6.6 2.6h54.9q4 0 6.5-2.6t2.6-6.6v-54.8q0-4-2.6-6.6t-6.5-2.6h-54.9q-4 0-6.6 2.6t-2.5 6.6v54.8z" /></svg>