<svg height="512" width="512.0" xmlns="http://www.w3.org/2000/svg"><path d="m0 393.1v-54.8q0-4 2.6-6.6t6.5-2.6h64q13.8 0 24.9-4.2t19.7-12.9 14.6-17.6 12.8-22.1q9.2-17.7 22.3-48.9 8.3-18.8 14.2-31.7t15.4-30 18.3-28.6 21.1-23.7 25.7-19.5 30.5-12 36.5-4.8h73.2v-54.8q0-4 2.6-6.6t6.5-2.6q3.5 0 6.9 2.9l91.1 91.1q2.6 2.6 2.6 6.6t-2.6 6.6l-91.4 91.4q-2.6 2.6-6.6 2.6-3.7 0-6.4-2.7t-2.7-6.5v-54.8h-73.2q-13.7 0-24.8 4.3t-19.7 12.8-14.6 17.6-12.9 22.1q-9.1 17.8-22.2 48.9-8.3 18.9-14.2 31.7t-15.4 30-18.3 28.6-21.1 23.7-25.8 19.6-30.4 12-36.6 4.7h-64q-4 0-6.5-2.6t-2.6-6.6z m0-256v-54.8q0-4 2.6-6.6t6.5-2.6h64q71.5 0 117.2 64.3-17.2 26.3-39.2 78-6.2-12.8-10.5-20.7t-11.6-18.1-14.6-16.2-18-10-23.3-4.1h-64q-4 0-6.5-2.6t-2.6-6.6z m212.3 200.9q16.8-26.6 38.8-78 6.3 12.9 10.6 20.7t11.6 18.2 14.6 16.1 18 10 23.2 4.1h73.2v-54.8q0-4 2.6-6.6t6.5-2.6q3.5 0 6.9 2.9l91.1 91.1q2.6 2.6 2.6 6.6t-2.6 6.6l-91.4 91.4q-2.6 2.6-6.6 2.6-3.7 0-6.4-2.7t-2.7-6.5v-54.8q-9.2 0-24.3 0.1t-23.1 0.3-20.9-0.3-20.3-1.4-18.3-3-18-5.3-16.5-8.1-16.9-11.5-15.7-15.2-16-19.9z" /></svg>