<svg height="512" width="566.9" xmlns="http://www.w3.org/2000/svg"><path d="m0 232.6q0-26.9 18.9-45.7t45.7-18.9q23.7 0 42.3 15.7 70.8-45.1 169.1-46.8l38.3-120.9q1.1-4 5-6.1t8.1-1.3l99.2 23.4q6.3-14.3 19.5-23.1t29.3-8.9q22 0 37.6 15.6t15.6 37.5-15.6 37.8-37.6 15.7q-21.7 0-37.3-15.5t-15.8-37.4l-90-21.1-33.2 104.5q93.5 4 160 47.5 18.3-16.6 43.2-16.6 26.8 0 45.7 18.9t18.9 45.7q0 17.7-8.9 32.5t-23.7 23.5q1.4 9.4 1.4 17.4 0 34.6-19.6 65.9t-56.4 55.2q-35.7 23.5-81.6 35.9t-95.8 12.4q-50.3 0-96.2-12.4t-81.2-35.9q-36.9-24-56.5-55.1t-19.5-66q0-8.3 1.4-18.9-13.7-8.8-22-23.2t-8.3-31.3z m22 0q0 19.1 14.6 31.7 14-37.4 51.4-67.2-10.3-7.1-23.4-7.1-17.7 0-30.2 12.4t-12.4 30.2z m28.9 73.4q0 28.9 17 55.4t49 47.5q33.1 21.4 75.8 33t89.6 11.5 89.6-11.5 75.8-33q32-20.9 49-47.5t17-55.4-17-55.3-49-47.3q-33.1-21.4-75.8-33t-89.6-11.5-89.6 11.5-75.8 33q-32 20.9-49 47.3t-17 55.3z m107.7-30.6q0-16.3 11.8-28t27.9-11.7 27.6 11.7 11.5 28q0 16-11.5 27.5t-27.6 11.4q-16.3 0-28-11.4t-11.7-27.5z m30.3 103.6q0-4.7 3.1-7.9t7.7-3.1 7.7 3.1q22 22 75.7 22h0.6q53.7 0 75.7-22 3.2-3.1 7.7-3.1t7.8 3.1 3.1 7.9-3.1 7.9q-28.3 28.2-91.2 28.2h-0.6q-62.8 0-91.1-28.2-3.1-3.2-3.1-7.9z m140.5-103.6q0-16.3 11.9-28t27.8-11.7 27.6 11.7 11.6 28q0 16-11.6 27.5t-27.6 11.4q-16.2 0-28-11.4t-11.7-27.5z m114.9-222.3q0 12.9 9.1 22t22 9.2 22-9.2 9.2-22-9.2-22-22-9.1-22 9.1-9.1 22z m33.4 144.9q37.4 30 50.9 68 16.3-13.1 16.3-33.4 0-17.7-12.5-30.2t-30.1-12.4q-14 0-24.6 8z" /></svg>