<svg height="512" width="438.9" xmlns="http://www.w3.org/2000/svg"><path d="m0 383.7v-255.4q0-38 26.9-64.9t64.5-26.8h256q37.7 0 64.6 26.8t26.9 64.9v255.4q0 38-26.9 64.9t-64.6 26.8h-256q-37.7 0-64.5-26.8t-26.9-64.9z m44.3-147.4q0 10.6 5.6 19.3t15 13q-2 7.1-2 15.4 0 28 21.1 51.9t57.6 37.7 79.5 13.8q42.9 0 79.3-13.8t57.6-37.7 21.1-51.9q0-7.7-1.7-15.4 10-4 16.3-13t6.3-20.2q0-14.5-10.3-25t-24.8-10.4q-17.2 0-28 13.7-43.2-30.6-107.2-32.8l23.7-75.8 58.9 14q0.3 14.3 10.4 24.3t24.2 10q14.2 0 24.5-10.1t10.3-24.4-10.3-24.6-24.5-10.3q-10.3 0-18.9 5.9t-12.9 15.2l-64.8-15.4q-2.6-0.6-5 0.7t-3.3 4.2l-27.1 86.3q-64 1.1-108.9 32.2-10.3-12.2-26.6-12.2-14.5 0-24.8 10.4t-10.3 25z m96.6 27.4q0-10.6 7.4-18t18-7.4 18 7.4 7.4 18-7.4 18.3-18 7.7-18-7.7-7.4-18.3z m19.1 68q0-3.1 2.3-5.1 2-2 5-2t5 2q14 14.5 49.1 14.5h0.3 0.3q34.9 0 49.4-14.5 2-2 5-2t5 2 2 5.1-2 5.2q-18.5 18.2-59.4 18.2h-0.3-0.3q-40.8 0-59.1-18.2-2.3-2-2.3-5.2z m92-68q0-10.6 7.4-18t18-7.4 18 7.4 7.5 18-7.5 18.3-18 7.7-18-7.7-7.4-18.3z m74.6-144.8q0-8.6 6-14.6t14.3-6q8.5 0 14.5 6t6 14.6q0 8.2-6 14.2t-14.5 6q-8.3 0-14.3-6t-6-14.2z" /></svg>