<svg height="512" width="438.9" xmlns="http://www.w3.org/2000/svg"><path d="m0 256q0-44.6 17.4-85.1t46.9-70 70-46.9 85.1-17.4q42 0 81.3 15.8t69.9 44.7l37.1-36.8q8.3-8.9 20-4 11.2 4.8 11.2 16.8v128q0 7.5-5.5 12.9t-12.8 5.4h-128q-12 0-16.9-11.4-4.8-11.1 4-19.7l39.4-39.4q-42.2-39.2-99.7-39.2-29.7 0-56.7 11.6t-46.7 31.3-31.3 46.7-11.6 56.7 11.6 56.7 31.3 46.7 46.7 31.3 56.7 11.6q34 0 64.3-14.9t51.2-42q2-2.8 6.5-3.4 4 0 7.2 2.6l39.1 39.4q2.6 2.3 2.7 5.9t-2.1 6.4q-31.2 37.7-75.4 58.4t-93.5 20.7q-44.5 0-85.1-17.4t-70-46.9-46.9-70-17.4-85.1z" /></svg>