<svg height="512" width="548.6" xmlns="http://www.w3.org/2000/svg"><path d="m0 237.7q0-6.8 4.3-11.7l91.4-109.7q5.4-6.3 14-6.3t14 6.3l91.4 109.7q4.3 4.9 4.3 11.7 0 7.4-5.4 12.9t-12.9 5.4h-54.8v109.7h164.6q4.5 0 7.1 3.2l45.7 54.8q2 3.2 2 6 0 3.7-2.7 6.4t-6.4 2.8h-274.3q-2.3 0-3.9-0.6t-2.5-2-1.6-2.3-0.9-3.3-0.3-3.3v-3.7-3.1-45.7-118.9h-54.8q-7.4 0-12.9-5.4t-5.4-12.9z m182.9-118.8q0-3.8 2.7-6.5t6.4-2.7h274.3q2.3 0 3.8 0.6t2.6 2 1.6 2.3 0.8 3.3 0.3 3.2v3.8 3.1 45.7 118.9h54.9q7.4 0 12.8 5.4t5.5 12.9q0 6.8-4.3 11.7l-91.4 109.7q-5.8 6.6-14 6.6t-14-6.6l-91.5-109.7q-4.3-4.9-4.3-11.7 0-7.5 5.5-12.9t12.8-5.4h54.9v-109.7h-164.6q-4.6 0-7.1-3.5l-45.7-54.8q-2-2.6-2-5.7z" /></svg>