<svg height="512" width="548.6" xmlns="http://www.w3.org/2000/svg"><path d="m14.3 418q0-15.4 7.4-33.1l119.2-298.3q2.2-5.5 7.4-9.5t10.8-4h96.9q-3.7 0-6.6 2.8t-3.1 6.4l-4.3 54.8q-0.3 4 2.3 6.6t6.3 2.6h47.4q3.7 0 6.3-2.6t2.3-6.6l-4.3-54.8q-0.3-3.7-3.2-6.4t-6.5-2.8h96.8q5.7 0 10.9 4t7.4 9.5l119.2 298.3q7.4 17.7 7.4 33.1 0 20.9-13.2 20.9h-201.1q3.7 0 6.3-2.8t2.3-6.4l-5.7-73.1q-0.3-3.7-3.2-6.5t-6.6-2.7h-77.7q-3.7 0-6.5 2.7t-3.2 6.5l-5.7 73.1q-0.3 3.7 2.3 6.4t6.3 2.8h-201.2q-13.1 0-13.1-20.9z m216.8-133.4q-0.2 3.4 2.3 5.7t6 2.3h69.7q3.5 0 6-2.3t2.3-5.7v-1.2l-6.8-91.4q-0.3-3.7-3.2-6.4t-6.5-2.7h-53.2q-3.7 0-6.6 2.7t-3.1 6.4l-6.9 91.4v1.2z" /></svg>