<svg height="512" width="402.3" xmlns="http://www.w3.org/2000/svg"><path d="m0 384q0-22.9 16-38.9t38.9-16 38.8 16 16 38.9-16 38.9-38.8 16-38.9-16-16-38.9z m0-144.3v-38.6q0-8.2 6-13.4 4.9-4.8 12.3-4.8h1.4q45.7 3.7 87.4 23t74 51.8q32.6 32.3 51.9 74t23 87.4q0.6 8-4.9 13.8-5.1 6-13.4 6h-38.6q-7.1 0-12.2-4.8t-5.8-11.8q-6.2-65.4-52.7-111.9t-111.8-52.7q-7.2-0.6-11.9-5.7t-4.7-12.3z m0-144v-40.8q0-8 5.7-13.2 5.2-5.1 12.6-5.1h0.8q74.9 3.7 143.3 34.3t121.6 84q53.4 53.1 84 121.5t34.3 143.3q0.6 7.7-5.2 13.4-5.1 5.8-13.1 5.8h-40.9q-7.4 0-12.7-5t-5.5-12.2q-3.5-61.4-28.9-116.7t-66.1-96-96-66.1-116.8-29.2q-7.1-0.3-12.1-5.6t-5-12.4z" /></svg>