<svg height="512" width="475.4" xmlns="http://www.w3.org/2000/svg"><path d="m0 237.7q0-40.8 15.9-78.1t42.8-64.3 64.3-42.9 78.1-15.8 78.2 15.8 64.3 42.9 42.8 64.3 15.9 78.1q0 62.9-35.4 114l98 98q10.5 10.6 10.5 25.7t-10.7 25.9-25.8 10.7q-15.5 0-25.8-10.9l-98-97.7q-51.1 35.5-114 35.5-40.8 0-78.1-15.9t-64.3-42.9-42.8-64.2-15.9-78.2z m73.1 0q0 52.9 37.6 90.4t90.4 37.6 90.5-37.6 37.5-90.4-37.5-90.4-90.5-37.6-90.4 37.6-37.6 90.4z m36.6 9.2v-18.3q0-3.7 2.7-6.5t6.5-2.7h64v-64q0-3.7 2.7-6.4t6.4-2.7h18.3q3.7 0 6.4 2.7t2.7 6.4v64h64q3.7 0 6.5 2.7t2.7 6.5v18.3q0 3.7-2.7 6.4t-6.5 2.7h-64v64q0 3.7-2.7 6.4t-6.4 2.7h-18.3q-3.7 0-6.4-2.7t-2.7-6.4v-64h-64q-3.8 0-6.5-2.7t-2.7-6.4z" /></svg>