<svg height="512" width="438.9" xmlns="http://www.w3.org/2000/svg"><path d="m0 393.1v-274.2q0-34 24.1-58.2t58.2-24.1h274.3q34 0 58.1 24.1t24.2 58.2v274.2q0 34-24.2 58.2t-58.1 24.1h-274.3q-34 0-58.2-24.1t-24.1-58.2z m73.1-137.1q0 25.1 17.9 43t43 17.9q23.7 0 41.4-16.3l68.9 34.3q-0.6 4.5-0.6 6.5 0 25.2 18 43t43.2 17.9 43-17.9 17.8-43-17.8-43.1-43-18q-24 0-41.5 16.6l-68.8-34.3q0.5-4.6 0.5-6.6t-0.5-6.6l68.8-34.3q17.5 16.6 41.5 16.6 25.1 0 43-18t17.8-43.1-17.8-43-43-17.9-43.2 17.9-18 43q0 2 0.6 6.5l-68.9 34.3q-17.7-16.3-41.4-16.3-25.1 0-43 17.9t-17.9 43z" /></svg>