<svg height="512" width="438.9" xmlns="http://www.w3.org/2000/svg"><path d="m0 393.1v-274.2q0-34 24.1-58.2t58.2-24.1h274.3q34 0 58.1 24.1t24.2 58.2v274.2q0 34-24.2 58.2t-58.1 24.1h-274.3q-34 0-58.2-24.1t-24.1-58.2z m73.1-82.2q0 51.7 47.8 115.4 2.8 3.4 7.1 3.4 2 0 3.7-0.8 6.3-2.6 5.4-9.5-12.5-101.1 17.8-135.1 13.1-14.9 37.1-21.6t64-6.7v45.7q0 12 11.4 16.9 3.5 1.4 6.9 1.4 7.4 0 12.8-5.4l100.6-100.6q5.4-5.4 5.4-12.9t-5.4-12.8l-100.6-100.6q-8.5-8.8-19.7-4-11.4 4.9-11.4 16.9v45.7q-34 0-61.7 5.6t-46.4 14.5-32.6 22.6-21.9 27.3-12.7 31.1-6.1 31.9-1.5 31.6z" /></svg>