<svg height="512" width="475.4" xmlns="http://www.w3.org/2000/svg"><path d="m0 356.6v-237.7q0-34 24.1-58.2t58.2-24.1h72.8q3.8 0 6.5 2.7t2.7 6.4q0 7.7-7.4 9.2-22 7.4-38 17.1-2.9 1.1-4.6 1.1h-32q-18.9 0-32.3 13.5t-13.4 32.3v237.7q0 18.8 13.4 32.3t32.3 13.4h237.7q18.9 0 32.3-13.4t13.4-32.3v-61.2q0-5.4 5.2-8.3 8-3.7 15.4-10.5 4.6-4.6 10-2.3 6 2.6 6 8.3v74q0 34-24.2 58.1t-58.1 24.2h-237.7q-34 0-58.2-24.2t-24.1-58.1z m73.1-118.9q0-14 1-26t4-25.7 8-25.1 13.5-23.3 19.5-21.2 27-17.5 35.6-13.9 45.6-8.7 56.1-3.2h45.7v-54.8q0-12 11.2-16.9 3.7-1.4 7.1-1.4 7.5 0 12.9 5.4l109.7 109.7q5.4 5.5 5.4 12.9t-5.4 12.9l-109.7 109.7q-5.2 5.4-12.9 5.4-3.4 0-7.1-1.4-11.2-4.9-11.2-16.9v-54.8h-45.7q-92.3 0-125.1 37.4-34 39.1-21.2 135.1 0.9 6.6-5.7 9.7-2.3 0.6-3.4 0.6-4.6 0-7.4-3.7-2.9-4-6-8.9t-11.3-19.5-14.2-28.5-11-32.5-5-34.9z" /></svg>