<svg height="512" width="475.4" xmlns="http://www.w3.org/2000/svg"><path d="m0 356.6v-201.2q0-34 24.1-58.1t58.2-24.2h91.4q3.7 0 6.4 2.8t2.8 6.4q0 1.1 0.2 5.7t0.2 7.6-0.9 6.7-2.8 5.6-5.9 1.8h-91.4q-18.9 0-32.3 13.4t-13.4 32.3v201.2q0 18.8 13.4 32.3t32.3 13.4h82.3 3.1 3.7t3.3 0.3 3.3 0.8 2.3 1.6 2 2.6 0.6 3.8q0 1.2 0.2 5.7t0.2 7.6-0.9 6.7-2.8 5.6-5.9 1.9h-91.4q-34 0-58.2-24.2t-24.1-58.1z m109.7-45.7v-109.8q0-7.4 5.4-12.8t12.9-5.4h128v-82.3q0-7.5 5.4-12.9t12.9-5.4 12.8 5.4l155.5 155.4q5.4 5.5 5.4 12.9t-5.4 12.9l-155.5 155.4q-5.4 5.4-12.8 5.4t-12.9-5.4-5.4-12.9v-82.3h-128q-7.4 0-12.9-5.4t-5.4-12.8z" /></svg>