<svg height="512" width="475.4" xmlns="http://www.w3.org/2000/svg"><path d="m9.7 408q2.3-5.7 8.6-5.7h54.8v-393.2q0-4 2.6-6.5t6.6-2.6h54.8q4 0 6.6 2.6t2.6 6.5v393.2h54.8q4 0 6.6 2.6t2.6 6.5q0 3.5-2.9 6.9l-91.1 91.1q-2.9 2.6-6.6 2.6-3.4 0-6.6-2.6l-91.4-91.4q-4.3-4.6-2-10z m247.2 73.7h20l65.7-189.1h46.3l65.7 189.1h20v30.3h-82.3v-30.3h21.4l-13.4-41.1h-69.4l-13.5 41.1h21.5v30.3h-82v-30.3z m25.4-262.3v-25.7l105.4-151.1q3.4-5.2 6-7.7l3.2-2.6v-0.9q-0.6 0-1.9 0.2t-2.1 0.1q-3.5 0.9-8.6 0.9h-66.3v32.8h-34.3v-65.4h162v25.4l-105.4 151.5q-1.7 2.2-6 7.4l-3.2 2.8v0.9l4-0.9q2.6-0.2 8.6-0.2h70.9v-34h34.5v66.5h-166.8z m58 189.7h50.6l-20.6-62.2-3.4-13.5q-0.6-4.5-0.6-5.7h-1.2l-0.8 5.7q0 0.3-1 5.2t-2.2 8.3z" /></svg>