<svg height="512" width="512.0" xmlns="http://www.w3.org/2000/svg"><path d="m9.7 408q2.3-5.7 8.6-5.7h54.8v-393.2q0-4 2.6-6.5t6.6-2.6h54.8q4 0 6.6 2.6t2.6 6.5v393.2h54.8q4 0 6.6 2.6t2.6 6.5q0 3.5-2.9 6.9l-91.1 91.1q-2.9 2.6-6.6 2.6-3.4 0-6.6-2.6l-91.4-91.4q-4.3-4.6-2-10z m246.3 40q0-4 2.6-6.6t6.5-2.5h237.8q4 0 6.5 2.5t2.6 6.6v54.9q0 4-2.6 6.5t-6.5 2.6h-237.8q-4 0-6.5-2.6t-2.6-6.5v-54.9z m0-91.4v-54.9q0-4 2.6-6.6t6.5-2.5h182.9q4 0 6.6 2.5t2.5 6.6v54.9q0 4-2.5 6.5t-6.6 2.6h-182.9q-4 0-6.5-2.6t-2.6-6.5z m0-146.3v-54.9q0-4 2.6-6.5t6.5-2.6h128q4 0 6.6 2.6t2.6 6.5v54.9q0 4-2.6 6.6t-6.6 2.5h-128q-4 0-6.5-2.5t-2.6-6.6z m0-146.3v-54.9q0-4 2.6-6.5t6.5-2.6h73.2q4 0 6.6 2.6t2.5 6.5v54.9q0 4-2.5 6.6t-6.6 2.5h-73.2q-4 0-6.5-2.5t-2.6-6.6z" /></svg>