<svg height="512" width="621.7" xmlns="http://www.w3.org/2000/svg"><path d="m0 274.3q0-3.4 11-5.9t27.6-3q-2-7.1-2-14 0-9.4 2.7-16.1t6.4-6.7h18.3v-18.3h36.6q45.1 0 76.5 18.3h318q12 2 30.5 5.1t23 4q25.4 4.3 42.8 11.6t23.9 13.6 6.4 11.4-6.4 11.4-23.9 13.6-42.8 11.6q-4.6 0.8-23 4t-30.5 5.1h-318q-31.4 18.3-76.5 18.3h-36.6v-18.3h-18.3q-3.7 0-6.4-6.7t-2.7-16.2q0-6.8 2-14-16.6-0.5-27.6-3t-11-5.8z m92.3 68.6h8.3q44.8 0 78-18.3h290q-62 10.8-130.3 22.8-16.3 0-32.3 6.9t-23.7 13.7l-8 6.9-82.3 82.2q-7.4 7.5-20.1 12.9t-25.6 5.4h-27.4z m0-137.2l26.6-132.6h27.4q13.1 0 25.7 5.5t20 12.8l82.3 82.3q1.1 1.2 3.1 3t8.7 6.6 13.9 8.3 17.6 6.5 20.7 3l130.3 22.9h-290q-33.2-18.3-78-18.3h-8.3z m404.6 94.9l23.1 8.5q19.4-13.7 19.4-34.8t-19.4-34.9l-23.1 8.6q15.1 10.3 15.1 26.3t-15.1 26.3z" /></svg>