<svg height="512" width="438.9" xmlns="http://www.w3.org/2000/svg"><path d="m0 256q0-59.7 29.4-110.1t79.9-79.9 110.1-29.4 110.2 29.4 79.8 79.9 29.5 110.1-29.5 110.1-79.8 79.9-110.2 29.4-110.1-29.4-79.9-79.9-29.4-110.1z m67.7-70.3q0 8.9 5.9 14.9t14.7 6q3.1 0 11.4-2.3 38-10.6 87.7-10.6 45.5 0 88.5 9.7t72.4 27.2q6 3.4 11.4 3.4 8.3 0 14.4-5.9t6.2-14.7q0-13.4-11.4-20-36-20.8-83.8-31.5t-98-10.8q-58.2 0-104 13.5-6.5 2-11 7.3t-4.4 13.8z m14.9 71.2q0 7.1 5 12.1t12.1 5q2 0 10.6-2.3 34.8-9.4 71.7-9.4 79.7 0 139.4 35.4 6.9 3.7 10.9 3.7 7.1 0 12.1-5t5-12.1q0-11.4-10-17.4-67.7-40.3-156.5-40.3-43.8 0-86.6 12-13.7 3.7-13.7 18.3z m9.1 66q0 5.7 3.9 9.8t10.1 4.2q1.4 0 10.6-2.3 37.7-7.7 69.4-7.7 64.6 0 113.4 29.4 5.5 3.1 9.5 3.1 5.4 0 9.4-3.8t4-9.9q0-9.1-8.6-14.6-55.1-32.8-127.7-32.8-38 0-82 9.7-12 2.6-12 14.9z" /></svg>