<svg height="512" width="585.1" xmlns="http://www.w3.org/2000/svg"><path d="m0 220.6q0-24.6 17.4-41.9t41.7-17.3q20.9 0 37.2 13.2t20.8 33.4l223.8 90q14-8.3 30.2-8.3 4 0 6 0.3l49.5-70.9q0.3-32.5 23.4-55.5t55.7-23q32.9 0 56.2 23.1t23.2 56-23.2 56.2-56.2 23.2l-75.7 55.5q-2.3 22.8-19.3 38.1t-39.6 15.3q-20.8 0-37.1-13.1t-20.9-33.5l-223.7-90q-14.5 8.6-30.3 8.6-24.2 0-41.7-17.4t-17.4-42z m15.7 0q0 18.3 12.7 31t30.7 12.7q3.2 0 9.5-1.2l-18.3-7.4q-9.4-4-15-12.7t-5.6-19q0-14.3 10.2-24.4t24.4-10.2q5.7 0 11.7 2.3v-0.3l21.7 8.9q-5.7-10.6-16.1-16.9t-22.5-6.3q-18 0-30.7 12.8t-12.7 30.7z m316.9 148.5q5.4 10.6 15.8 16.9t22.7 6.3q18 0 30.8-12.7t12.7-30.7-12.7-30.9-30.8-12.9q-3.7 0-9.4 1.2 0.6 0.3 5.7 2.3t6.2 2.4 5.3 2.4 5.4 2.9 4.6 3.1 4.4 3.9 3.1 4.1 2.9 5.2 1.4 6 0.7 7.1q0 14.3-10.1 24.4t-24.4 10.2q-4 0-9-1.3t-8.3-2.6-9-3.8-8-3.5z m120-149.4q0 22 15.5 37.6t37.6 15.6 37.7-15.6 15.7-37.6-15.7-37.6-37.7-15.5q-21.7 0-37.4 15.5t-15.7 37.6z m11.1 0q0-17.7 12.4-30.1t29.9-12.5 30 12.6 12.6 30-12.5 29.9-30.1 12.4q-17.4 0-29.9-12.4t-12.4-29.9z" /></svg>