<svg height="512" width="438.9" xmlns="http://www.w3.org/2000/svg"><path d="m1.4 438.9v-47.8h36.6l56.3-83.1-52.9-77.7h-39.1v-48h78.8l39.8 65.1q0.5 1.2 6.5 12 2.3 2.6 3.2 6h0.8q0.9-2.5 3.2-6l7.1-12 40-65.1h73.4v48h-35.7l-52.5 76.3 58.2 84.5h31.2v47.8h-70.9l-45.4-72-6.9-12q-2.2-2.6-3.1-6h-0.9l-2.5 6q-2.9 5.7-7.2 12.5l-44.3 71.5h-73.7z m288.6 52.2q0-18.2 7.4-33.4t18.6-24.7 24-18.6 24-15.5 18.6-15.5 7.4-18.3q0-10.8-8.4-17.8t-20.2-7q-14.5 0-27.7 11.1-4 3.2-10.3 10.9l-30-26.3q7.5-10.6 18-18.9 22.9-18.5 53.7-18.5 31.5 0 50.9 17t19.4 45.3q0 18.8-9.8 33.8t-24 24.6-28.5 17.8-24.8 18-11.7 20.9h66.3v-22.9h36v58.9h-146.9l-1.1-7.7q-0.9-12.9-0.9-13.2z" /></svg>