<svg height="512" width="512.0" xmlns="http://www.w3.org/2000/svg"><path d="m12.6 335.1q-1.5-4.8 1.1-8.2l51.4-70.9-51.4-70.9q-2.6-3.7-1.1-8.2 1.1-4.3 5.7-5.8l83.4-27.4v-87.4q0-4.6 3.7-7.4 4.3-2.9 8.3-1.2l83.4 26.9 51.5-70.9q2.5-3.4 7.4-3.4t7.4 3.4l51.5 70.9 83.4-26.9q4-1.7 8.3 1.2 3.7 2.8 3.7 7.4v87.4l83.4 27.4q4.6 1.5 5.7 5.8 1.5 4.5-1.1 8.2l-51.4 70.9 51.4 70.9q2.6 3.4 1.1 8.2-1.1 4.3-5.7 5.8l-83.4 27.4v87.4q0 4.6-3.7 7.4-4.3 2.9-8.3 1.2l-83.4-26.9-51.5 70.9q-2.8 3.7-7.4 3.7t-7.4-3.7l-51.5-70.9-83.4 26.9q-4 1.7-8.3-1.2-3.7-2.8-3.7-7.4v-87.4l-83.4-27.4q-4.6-1.5-5.7-5.8z m78.8-79.1q0 33.4 13 63.9t35.2 52.5 52.5 35.2 63.9 13 63.9-13 52.5-35.2 35.2-52.5 13-63.9-13-63.9-35.2-52.5-52.5-35.2-63.9-13-63.9 13-52.5 35.2-35.2 52.5-13 63.9z" /></svg>