<svg height="512" width="475.4" xmlns="http://www.w3.org/2000/svg"><path d="m0 393.1v-310.8q0-18.9 13.4-32.3t32.3-13.4h384q18.9 0 32.3 13.4t13.4 32.3v310.8q0 18.9-13.4 32.3t-32.3 13.5h-384q-18.8 0-32.3-13.5t-13.4-32.3z m36.6 0q0 4 2.5 6.6t6.6 2.6h91.4q4 0 6.6-2.6t2.6-6.6v-54.8q0-4-2.6-6.6t-6.6-2.6h-91.4q-4 0-6.6 2.6t-2.5 6.6v54.8z m0-109.7q0 4 2.5 6.6t6.6 2.6h91.4q4 0 6.6-2.6t2.6-6.6v-54.8q0-4-2.6-6.6t-6.6-2.6h-91.4q-4 0-6.6 2.6t-2.5 6.6v54.8z m0-109.7q0 4 2.5 6.6t6.6 2.6h91.4q4 0 6.6-2.6t2.6-6.6v-54.8q0-4-2.6-6.6t-6.6-2.6h-91.4q-4 0-6.6 2.6t-2.5 6.6v54.8z m146.3 219.4q0 4 2.5 6.6t6.6 2.6h91.4q4 0 6.6-2.6t2.6-6.6v-54.8q0-4-2.6-6.6t-6.6-2.6h-91.4q-4 0-6.6 2.6t-2.5 6.6v54.8z m0-109.7q0 4 2.5 6.6t6.6 2.6h91.4q4 0 6.6-2.6t2.6-6.6v-54.8q0-4-2.6-6.6t-6.6-2.6h-91.4q-4 0-6.6 2.6t-2.5 6.6v54.8z m0-109.7q0 4 2.5 6.6t6.6 2.6h91.4q4 0 6.6-2.6t2.6-6.6v-54.8q0-4-2.6-6.6t-6.6-2.6h-91.4q-4 0-6.6 2.6t-2.5 6.6v54.8z m146.2 219.4q0 4 2.6 6.6t6.6 2.6h91.4q4 0 6.6-2.6t2.6-6.6v-54.8q0-4-2.6-6.6t-6.6-2.6h-91.4q-4 0-6.6 2.6t-2.6 6.6v54.8z m0-109.7q0 4 2.6 6.6t6.6 2.6h91.4q4 0 6.6-2.6t2.6-6.6v-54.8q0-4-2.6-6.6t-6.6-2.6h-91.4q-4 0-6.6 2.6t-2.6 6.6v54.8z m0-109.7q0 4 2.6 6.6t6.6 2.6h91.4q4 0 6.6-2.6t2.6-6.6v-54.8q0-4-2.6-6.6t-6.6-2.6h-91.4q-4 0-6.6 2.6t-2.6 6.6v54.8z" /></svg>