<svg height="512" width="512.0" xmlns="http://www.w3.org/2000/svg"><path d="m0 329.1q0-52 20.3-99.4t54.6-81.7 81.7-54.6 99.4-20.3 99.4 20.3 81.7 54.6 54.6 81.7 20.3 99.4q0 74.6-40.3 138-5.4 8.3-15.4 8.3h-400.6q-10 0-15.4-8.3-40.3-63.1-40.3-138z m36.6 0q0 15.2 10.7 25.9t25.8 10.7 25.9-10.7 10.7-25.9-10.7-25.8-25.9-10.7-25.8 10.7-10.7 25.8z m54.8-128q0 15.2 10.7 25.9t25.9 10.7 25.9-10.7 10.7-25.9-10.7-25.8-25.9-10.7-25.9 10.7-10.7 25.8z m111.5 168.9q-5.8 22 5.7 41.7t33.4 25.4 41.7-5.7 25.4-33.4q4.6-17.1-1.7-33.4t-20.5-26l28.8-109.2q1.7-7.4-2.1-13.8t-11-8.5-13.7 1.9-8.6 11.3l-28.9 109.1q-17.1 1.5-30.5 12.5t-18 28.1z m16.5-223.7q0 15.1 10.7 25.8t25.9 10.8 25.9-10.8 10.7-25.8-10.7-25.9-25.9-10.7-25.9 10.7-10.7 25.9z m128 54.8q0 15.2 10.7 25.9t25.9 10.7 25.9-10.7 10.7-25.9-10.7-25.8-25.9-10.7-25.9 10.7-10.7 25.8z m54.9 128q0 15.2 10.7 25.9t25.9 10.7 25.8-10.7 10.7-25.9-10.7-25.8-25.8-10.7-25.9 10.7-10.7 25.8z" /></svg>