<svg height="512" width="365.7" xmlns="http://www.w3.org/2000/svg"><path d="m16.3 166.6q0-34 13.3-64.9t35.5-53.1 53.2-35.5 64.6-13.1q45.1 0 83.5 22.3t60.7 60.7 22.3 83.6-22.3 83.4-60.7 60.6-83.5 22.3q-18.3 0-37.5-4-6-1.5-9.3-6.8t-1.8-11.2q1.4-5.8 6.6-9t11.1-2.2q14.6 3.7 30.9 3.7 27.7 0 53.1-10.8t43.7-29.2 29.2-43.7 10.8-53.1-10.8-53.2-29.2-43.7-43.7-29.1-53.1-10.9-53.2 10.9-43.7 29.1-29.1 43.7-10.9 53.2q0 32.5 14.9 62.3 2.8 5.7 1 11.4t-7.3 8.6-11.3 0.8-8.7-7.4q-18.3-35.2-18.3-75.7z m16.1 261.3q3-34.8 8.5-62t15.4-53.2 19.7-44.4 21.1-35.7q17.5-25.7 37.8-47.2-4.6-10-4.6-22 0-22.8 16.1-39t39-16.1 39 16.1 16.2 39-16.3 39-38.9 16.2q-17.1 0-31.7-10-17.7 19.1-32.8 41.7-70.6 106-57.8 245.4 0.3 6.3-3.5 11t-9.9 5.3h-1.4q-5.7 0-10-3.9t-4.9-9.5q-4-36-1-70.7z" /></svg>