<svg height="512" width="438.9" xmlns="http://www.w3.org/2000/svg"><path d="m0 146.6v-109.5l23.1-0.2 15.5 7.7q3.4 1.4 60.3 1.4 12.5 0 37.7-0.6t37.7-0.5q20 0 70.4-0.3t87-0.2 70.6 1.3q9.4 0.3 16-8.8l12-0.3q1.1 0 4 0.1t4 0.2q0.6 32 0.6 96 0 22.8-1.5 31.1-11.1 4-19.4 5.1-7.1-12.5-15.4-36.5-0.9-2.6-3.2-13.6t-4.3-21-2-10.3q-2.8-3.7-7.7-5.4-1.4-0.6-18.8-0.6-8.6 0-26.6-0.3t-29.4-0.3-26.9 0.6-27.4 2q-2.6 23.2-2.3 38.9l0.3 43.4v-14.9q0 15.8 0.3 44t0.4 51.5 0.1 43.7q0 4.6-0.7 20.4t0 26.2 3.6 19.7q11.4 6 35.4 12.1t34.3 10.7q1.4 11.5 1.4 14.3 0 4-0.8 8.3l-9.7 0.3q-21.7 0.6-62.3-2.3t-59.2-2.9q-14.2 0-43.1 2.6t-43.4 2.6q-0.9-14.6-0.9-14.9v-2.5q4.9-7.8 17.6-12.3t28.1-8.3 22.3-7.7q2-4.6 3.3-21.2t1.7-41.5 0.4-44.3-0.1-43.9-0.1-25.4q0-2-0.8-6.2t-0.7-6.4q0-2 0.2-12.6t0.3-20.8 0-21.9-0.9-19.3-1.9-9.1q-3.1-3.4-46.2-3.4-11.8 0-46.6 3.8t-39.4 7q-5.5 3.5-9.8 20.5t-9 31.8-12.1 15.4q-12-7.4-16-12.5z m1.4 310.5q0-8 7.5-14 1.1-0.8 10.2-8.5t17-14 16.5-11.9 12-5.6q3.7 0 5.8 3t2.9 8.2 0.7 9.6-0.4 9.4-0.5 5.6h292.6q0-0.6-0.4-5.6t-0.4-9.4 0.7-9.6 2.8-8.2 5.9-3q3.4 0 12 5.6t16.4 11.9 17 14 10.3 8.5q7.4 6 7.4 14t-7.4 14q-1.1 0.9-10.3 8.6t-17 14-16.4 11.9-12 5.5q-3.7 0-5.9-3t-2.8-8.1-0.7-9.6 0.4-9.4 0.4-5.6h-292.6q0 0.6 0.5 5.6t0.4 9.4-0.7 9.6-2.9 8.1-5.8 3q-3.5 0-12-5.5t-16.5-11.9-17-14-10.2-8.6q-7.5-6-7.5-14z" /></svg>