<svg height="512" width="438.9" xmlns="http://www.w3.org/2000/svg"><path d="m0 256q0-59.7 29.4-110.1t79.9-79.9 110.1-29.4 110.2 29.4 79.8 79.9 29.5 110.1-29.5 110.1-79.8 79.9-110.2 29.4-110.1-29.4-79.9-79.9-29.4-110.1z m64 0q0 42.3 20.9 78t56.5 56.6 78 20.8 78-20.8 56.6-56.6 20.9-78-20.9-78-56.6-56.6-78-20.8-78 20.8-56.5 56.6-20.9 78z m58.6 45.7q0-3.7 2.8-6.6l39.2-39.1-39.2-39.1q-2.8-2.9-2.8-6.6t2.8-6.6l41.7-41.7q2.9-2.9 6.6-2.9t6.6 2.9l39.1 39.1 39.2-39.1q2.8-2.9 6.5-2.9t6.6 2.9l41.7 41.7q2.9 2.9 2.9 6.6t-2.9 6.6l-39.1 39.1 39.1 39.1q2.9 2.9 2.9 6.6t-2.9 6.6l-41.7 41.7q-2.8 2.9-6.6 2.9t-6.5-2.9l-39.2-39.1-39.1 39.1q-2.9 2.9-6.6 2.9t-6.6-2.9l-41.7-41.7q-2.8-2.9-2.8-6.6z" /></svg>