<svg height="512" width="292.6" xmlns="http://www.w3.org/2000/svg"><path d="m0 292.6q0-41.5 23.1-78.6 1.8-2.6 17.9-25.9t28.9-43.1 28.4-50.9 23.7-57.5q2.6-8.6 9.7-13.5t14.6-4.8 14.7 4.8 9.6 13.5q8 26.5 23.7 57.5t28.4 50.9 28.9 43.1 17.8 25.9q23.2 36.3 23.2 78.6 0 60.5-42.9 103.4t-103.4 42.9-103.4-42.9-42.9-103.4z m73.1 36.5q0 15.2 10.8 25.9t25.8 10.7 25.9-10.7 10.7-25.9q0-10.2-5.7-19.7-0.3-0.3-4.5-6.4t-7.2-10.9-7.2-12.5-6-14.5q-1.1-4.5-6-4.5t-6 4.5q-2 6.6-6 14.5t-7.1 12.5-7.3 10.9-4.4 6.4q-5.8 9.5-5.8 19.7z" /></svg>