<svg height="512" width="402.3" xmlns="http://www.w3.org/2000/svg"><path d="m0 137.1v-18.2q0-4 2.6-6.6t6.5-2.6h88.3l20-47.7q4.3-10.6 15.5-18t22.5-7.4h91.5q11.4 0 22.5 7.4t15.5 18l20 47.7h88.2q4 0 6.6 2.6t2.6 6.6v18.2q0 4-2.6 6.6t-6.6 2.6h-27.4v270.8q0 23.8-13.4 41t-32.3 17.3h-237.7q-18.9 0-32.3-16.7t-13.4-40.4v-272h-27.5q-4 0-6.5-2.6t-2.6-6.6z m73.1 280q0 6.3 2 11.6t4.2 7.7 3 2.5h237.7q0.9 0 3-2.5t4.1-7.7 2-11.6v-270.8h-256v270.8z m36.6-42.2v-164.6q0-4 2.6-6.6t6.6-2.6h18.2q4 0 6.6 2.6t2.6 6.6v164.6q0 4-2.6 6.5t-6.6 2.6h-18.2q-4 0-6.6-2.6t-2.6-6.5z m27.4-265.2h128l-13.7-33.4q-2-2.6-4.8-3.2h-90.6q-2.9 0.6-4.9 3.2z m45.8 265.2v-164.6q0-4 2.5-6.6t6.6-2.6h18.3q4 0 6.6 2.6t2.5 6.6v164.6q0 4-2.5 6.5t-6.6 2.6h-18.3q-4 0-6.6-2.6t-2.5-6.5z m73.1 0v-164.6q0-4 2.6-6.6t6.5-2.6h18.3q4 0 6.6 2.6t2.6 6.6v164.6q0 4-2.6 6.5t-6.6 2.6h-18.3q-4 0-6.5-2.6t-2.6-6.5z" /></svg>