<svg height="512" width="438.9" xmlns="http://www.w3.org/2000/svg"><path d="m0 393.1v-274.2q0-34 24.1-58.2t58.2-24.1h274.3q34 0 58.1 24.1t24.2 58.2v274.2q0 34-24.2 58.2t-58.1 24.1h-274.3q-34 0-58.2-24.1t-24.1-58.2z m118-166.8h36.3v115.4q0 22.3 4.8 34.6 4.9 12 16.9 22.3 12.3 10.5 29.7 16.3 17.7 5.7 40 5.7 19.2 0 36.9-4 16.3-3.7 38.3-14v-51.7q-25.2 16-49.8 16-14.5 0-25.1-6.6-8.3-4.9-11.1-12.9-3.2-8.5-3.2-36.8v-84.3h78.3v-51.7h-78.3v-83.2h-46.8q-3.2 25.7-11.5 42t-22.3 28.3q-13.7 11.4-33.1 18v46.6z" /></svg>