<svg height="512" width="475.4" xmlns="http://www.w3.org/2000/svg"><path d="m12.6 397.4q10 1.2 22.3 1.2 64.2 0 114.5-39.5-30-0.5-53.7-18.4t-32.6-45.6q9.5 1.5 17.5 1.5 12.3 0 24.3-3.2-32-6.5-53-31.8t-21-58.7v-1.2q19.4 10.9 41.7 11.7-18.9-12.5-30-32.8t-11.2-44q0-25.2 12.6-46.6 34.6 42.6 84.1 68.1t106.2 28.5q-2.3-10.9-2.3-21.2 0-38.3 27-65.3t65.3-27q40 0 67.4 29.2 31.2-6 58.6-22.3-10.6 32.9-40.6 50.9 26.6-2.9 53.2-14.3-19.2 28-46.3 47.7 0.3 4 0.3 12 0 37.1-10.9 74.1t-33 71-52.7 60.2-73.7 41.7-92.3 15.6q-77.4 0-141.7-41.5z" /></svg>