<svg height="512" width="438.9" xmlns="http://www.w3.org/2000/svg"><path d="m0 448v18.3q0 4 2.6 6.6t6.5 2.5h420.6q4 0 6.6-2.5t2.6-6.6v-18.3q0-4-2.6-6.6t-6.6-2.5h-420.6q-4 0-6.5 2.5t-2.6 6.6z m0-410.6q3.7-0.3 11.4-0.3 17.2 0 32 1.2 37.7 2 47.5 2 24.5 0 48-0.9 33.1-1.1 41.7-1.4 16 0 24.5-0.6l-0.2 4 0.5 18.3v2.6q-17.1 2.6-35.4 2.6-17.1 0-22.6 7.1-3.7 4-3.7 37.7 0 3.7 0.2 9.3t0.1 7.3l0.3 65.4 4 80q1.7 35.4 14.6 57.7 10 16.9 27.4 26.3 25.1 13.4 50.6 13.4 29.7 0 54.5-8 16-5.1 28.3-14.5 13.7-10.3 18.6-18.3 10.3-16 15.1-32.6 6-20.8 6-65.4 0-22.6-1-36.6t-3.1-35-3.9-45.6l-1.1-16.8q-1.4-19.2-6.9-25.2-9.7-10-22-9.7l-28.5 0.6-4-0.9 0.5-24.5h24l58.6 2.8q21.7 0.9 56-2.8l5.1 0.5q1.8 10.9 1.8 14.6 0 2-1.2 8.9-12.8 3.4-24 3.7-20.8 3.1-22.6 4.8-4.2 4.3-4.2 11.8 0 2 0.4 7.7t0.4 8.8q2.3 5.5 6.3 113.2 1.7 55.7-4.3 86.8-4.3 21.7-11.7 34.9-10.9 18.6-32 35.1-21.4 16.3-52 25.5-31.1 9.4-72.9 9.4-47.7 0-81.1-13.2-34-13.4-51.1-34.8-17.5-21.7-23.8-55.7-4.5-22.9-4.5-67.7v-95.2q0-53.7-4.9-60.8-7.1-10.3-42-11.2-10.6-0.6-12.8-1.1z" /></svg>