<svg height="512" width="438.9" xmlns="http://www.w3.org/2000/svg"><path d="m0 201.1v-128q0-12 11.4-16.8 11.2-4.9 19.7 4l37.2 36.8q30.6-28.8 69.8-44.7t81.3-15.8q44.6 0 85.2 17.4t70 46.9 46.8 70 17.5 85.1-17.5 85.1-46.8 70-70 46.9-85.2 17.4q-49.1 0-93.4-20.7t-75.4-58.4q-2-2.9-1.9-6.4t2.4-5.9l39.2-39.4q2.8-2.6 7.1-2.6 4.6 0.6 6.6 3.4 20.9 27.2 51.1 42t64.3 14.9q29.7 0 56.7-11.6t46.8-31.3 31.2-46.7 11.6-56.7-11.6-56.7-31.2-46.7-46.8-31.3-56.7-11.6q-28 0-53.7 10.2t-45.7 29l39.1 39.4q8.9 8.6 4 19.7-4.8 11.4-16.8 11.4h-128q-7.4 0-12.9-5.4t-5.4-12.9z" /></svg>