<svg height="512" width="402.3" xmlns="http://www.w3.org/2000/svg"><path d="m0 401.4q0-19.4 1.6-37.4t6.8-39.4 13.6-37.9 23.1-29.4 34.3-17.3q-6.3 14.9-6.3 34.3v58q-16.5 5.7-26.5 20t-10 31.7q0 22.9 16 38.9t38.8 16 38.9-16 16-38.9q0-17.4-10.2-31.7t-26.4-20v-58q0-17.7 7.2-26.6 37.7 29.7 84.2 29.7t84.3-29.7q7.2 8.9 7.2 26.6v18.3q-30.3 0-51.7 21.4t-21.5 51.7v25.4q-9.1 8.3-9.1 20.3 0 11.5 8 19.5t19.4 8 19.4-8 8-19.5q0-12-9.1-20.3v-25.4q0-14.8 10.9-25.7t25.7-10.9 25.7 10.9 10.8 25.7v25.4q-9.1 8.3-9.1 20.3 0 11.5 8 19.5t19.4 8 19.5-8 8-19.5q0-12-9.2-20.3v-25.4q0-19.4-9.8-36.4t-26.8-26.7q0-2.9 0.2-12.2t0-13.7-0.7-11.8-2-13.5-3.7-11.4q19.4 4.3 34.2 17.3t23.2 29.4 13.6 37.9 6.8 39.4 1.6 37.4q0 34.6-20.9 54.3t-55.4 19.7h-249.7q-34.6 0-55.4-19.7t-20.9-54.3z m73.1-17.4q0-7.4 5.5-12.9t12.8-5.4 12.9 5.4 5.4 12.9-5.4 12.9-12.9 5.4-12.8-5.4-5.5-12.9z m18.3-237.7q0-45.4 32.2-77.6t77.5-32.1 77.6 32.1 32.2 77.6-32.2 77.6-77.6 32.1-77.5-32.1-32.2-77.6z" /></svg>