<svg height="512" width="438.9" xmlns="http://www.w3.org/2000/svg"><path d="m11.1 71.4h80.9q7.4 62.3 20 113.9t29.9 90.6 34.7 67.2 40 55.8q48.3-48.3 82-116-40.6-20.6-63.7-62.9t-23.2-95.1q0-54.9 29.7-89.9t81.2-35q50.8 0 78 30.1t27.1 85q0 45.5-16.6 81.8-2 0.2-5.5 0.8t-13.2 0.6-18-1.7-17.7-7.3-14.4-14.7q8.8-29.5 8.8-52.6 0-24.9-8.2-37.7t-22.6-12.9q-15.2 0-24.3 14.2t-9.1 40.1q0 53.2 30 83.9t76.2 30.7q17.8 0 34.6-4v56.6q-28.8 6.5-56.6 6.5-18.5 38.9-47.2 77.5t-51.9 61.5-36.6 30.5q-22.8 12.8-46.3-0.9-8-4.9-17.2-12.4t-24.3-23.9-29.3-36.7-30.7-52.6-30.2-69.7-26.1-89.8-20.2-111.5z" /></svg>