<svg height="512" width="548.6" xmlns="http://www.w3.org/2000/svg"><path d="m-0.3 152q0-3.1 0.9-4.6l1.1-1.7q4.3-5.4 16.3-5.4l78.3-0.6q3.4 0.6 6.6 1.9t4.5 2.4l1.5 0.9q4.5 3.1 6.8 9.1 5.7 14.3 13.2 29.6t11.7 23.3l4.5 8.2q8.3 17.2 16 29.8t13.9 19.5 11.9 11 9.7 4 7.7-1.4q0.6-0.3 1.4-1.4t3.4-6.3 3.9-13.4 2.7-23.2 0-35.7q-0.6-11.4-2.6-20.9t-4-13.1l-1.7-3.4q-7.1-9.7-24.3-12.3-3.7-0.6 1.5-6.9 4.8-5.4 10.8-8.5 15.2-7.5 68.3-6.9 23.4 0.3 38.6 3.7 5.7 1.4 9.6 3.9t5.8 6.8 3 9.2 1 13-0.3 15.7-0.7 20.1-0.4 23.6q0 3.1-0.3 12t-0.1 13.7 1 11.6 3.2 11.1 6.5 7q2.3 0.6 4.8 1.2t7.5-3.2 10.8-9.8 14.9-19.2 19.4-30.7q17.1-29.7 30.6-64.3 1.1-2.8 2.8-5t3.2-3l1.1-0.8 1.4-0.7t3.8-0.9 5.7-0.1l82.3-0.6q11.1-1.4 18.2 0.7t8.9 4.7l1.7 2.9q6.6 18.3-42.8 84-6.9 9.1-18.6 24.3-22.3 28.5-25.7 37.4-4.9 11.7 4 23.1 4.8 6 23.1 23.5h0.3l0.3 0.2 0.3 0.3 0.5 0.6q40.3 37.4 54.6 63.1 0.9 1.5 1.9 3.6t2 7.6-0.2 9.7-7.1 7.9-16.9 3.5l-73.1 1.2q-6.9 1.4-16-1.5t-14.9-6.2l-5.7-3.5q-8.6-6-20-18.3t-19.6-22.1-17.4-16.6-16.1-4.4q-0.9 0.3-2.3 1t-4.9 4.1-6.1 8.5-4.9 14.8-1.8 22.2q0 4.3-1 7.8t-2.2 5.3l-1.1 1.4q-5.2 5.5-15.2 6.3h-32.8q-20.3 1.2-41.7-4.7t-37.6-15.1-29.4-18.9-20.2-16.4l-7.1-6.9q-2.9-2.8-7.9-8.5t-20.4-26-30.3-43.2-35-60.3-37.3-77.7q-1.7-4.6-1.7-7.7z" /></svg>