<svg height="512" width="475.4" xmlns="http://www.w3.org/2000/svg"><path d="m0 347.4q0-51.7 29.9-94.3t78.4-60.2l4.8 37.4q-34.8 15.4-55.7 47.3t-20.8 69.8q0 52.9 37.5 90.5t90.5 37.5q36 0 66.4-18.5t47.1-50.2 14.2-67.6l29.1 58.3q-16.5 51.2-60 82.9t-96.8 31.7q-44.6 0-82.5-22.1t-60-60-22.1-82.5z m118.9-293.7q-0.6-4.6 1.7-12 4-14.6 16.3-23.6t27.7-9q18.8 0 32.3 13.5t13.4 32.3q0 19.7-14.9 33.5t-34.3 11.9l10.6 82.6h120.9v36.5h-116.3l4.6 36.6h130q11.4 0 16.2 10l65.2 130 56.6-28.3 16.5 32.6-73.1 36.6q-3.7 2-8.3 2-11.4 0-16.3-10l-68.3-136.3h-134.8q-6.9 0-12.2-4.7t-6.1-11.6z" /></svg>