<svg height="512" width="512.0" xmlns="http://www.w3.org/2000/svg"><path d="m0 256q0-52 20.3-99.4t54.6-81.7 81.7-54.6 99.4-20.3 99.4 20.3 81.7 54.6 54.6 81.7 20.3 99.4-20.3 99.4-54.6 81.7-81.7 54.6-99.4 20.3-99.4-20.3-81.7-54.6-54.6-81.7-20.3-99.4z m11.7 0q0 49.4 19.4 94.7t52.2 78 78 52.2 94.7 19.4 94.7-19.4 78-52.2 52.2-78 19.4-94.7-19.4-94.7-52.2-78-78-52.2-94.7-19.4-94.7 19.4-78 52.2-52.2 78-19.4 94.7z m24.6 0q0-46.6 19.1-89.4l104.9 287.1q-56-27.1-90-80.3t-34-117.4z m36.3-120.6q30-45.7 78.4-72.4t105-26.7q42 0 80.1 15.1t68.2 42.6h-2.9q-15.7 0-26.3 11.6t-10.5 27.3q0 3.4 0.5 6.8t1.2 6.2 2.3 6.5 2.5 6 3.5 6.5 3.5 6 4.2 6.8 4 6.6q18 30.6 18 60.6 0 5.4-0.7 11t-2.9 14.1-3.3 12.6-5 16.8-5 16.6l-21.7 73.1-79.4-236q13.1-0.8 25.1-2.2 5.5-0.6 7.5-5.3t-0.8-8.9-8.1-3.8l-58.6 2.8q-21.4-0.3-57.7-2.8-3.4-0.3-5.8 1.4t-3.3 4.3-0.5 5.3 2.6 4.7 5.6 2.3l22.8 2.2 34.3 93.8-48 144-80-237.8q13.2-0.8 25.2-2.2 5.4-0.6 7.4-5.3t-0.7-8.9-8.2-3.8l-58.5 2.8q-2 0-6.6-0.1t-7.4-0.2z m121.4 331.2l65.7-191.5 67.7 184.9q0.3 1.7 1.5 3.1-36 12.6-72.9 12.6-32 0-62-9.1z m172.3-20.9l67.1-193.7q16.9-48.3 16.9-78.9 0-12-1.7-22.5 27.1 49.7 27.1 105.4 0 59.7-29.7 110.1t-79.7 79.6z" /></svg>