<svg height="512" width="438.9" xmlns="http://www.w3.org/2000/svg"><path d="m7.7 364.6q0-66.9 7.4-100 4-16.9 16.6-28.3t29.4-13.4q52.3-5.8 158.3-5.8t158.6 5.8q16.6 2 29.3 13.4t16.4 28.3q7.4 32 7.4 100 0 66.8-7.4 100-4 16.8-16.6 28.3t-29.1 13.1q-52.6 6-158.6 6t-158.5-6q-16.6-1.7-29.3-13.1t-16.5-28.3q-7.4-32-7.4-100z m31.7-71.2h30v162.6h28.6v-162.6h30.6v-26.8h-89.2v26.8z m36.6-293.4h30.3l20.3 75.1 19.4-75.1h29.1l-34.5 114v77.4h-28.6v-77.4q-4-21.1-17.4-60.6-10.6-29.4-18.6-53.4z m56.3 426.6q0 14 2.3 20.8 3.4 10.6 16.5 10.6 13.8 0 29.2-17.4v15.4h25.4v-141.1h-25.4v108q-8.6 12-16.3 12-5.1 0-6-6-0.3-0.9-0.3-10v-104h-25.4v111.7z m43.1-281.5v-50q0-22.8 8-33.4 10.9-14.6 30-14.6 19.7 0 30.3 14.6 8 10.6 8 33.4v50q0 23.2-8 33.8-10.6 14.5-30.3 14.5-19.1 0-30-14.5-8-10.9-8-33.8z m25.7 4.9q0 20 12.3 20t12.3-20v-60q0-19.7-12.3-19.7t-12.3 19.7v60z m26.9 306h25.4v-13.7q12.9 15.7 26.6 15.7 15.4 0 20.3-15.7 2.6-7.7 2.6-28.6v-56.3q0-20.8-2.6-28.3-4.9-16-20.3-16-14.3 0-26.6 15.5v-62h-25.4v189.4z m25.4-27.4v-86q6.3-6.3 12.9-6.3 11.1 0 11.1 19.1v60.3q0 19.2-11.1 19.2-6.6 0-12.9-6.3z m19.5-267.2v-112.5h26v104.8q0 9.4 0.2 10 0.9 6.3 6 6.3 7.8 0 16.3-12.3v-108.8h26v142.5h-26v-15.7q-15.1 17.7-29.4 17.7-13.1 0-16.9-10.5-2.2-6.9-2.2-21.5z m50 248.9q0 22.6 8.2 33.1 11.2 14.6 30.9 14.6 20.6 0 30.9-15.1 5.1-7.8 6-15.5 0.5-2.5 0.5-16.5v-3.8h-26q0 14.6-0.5 17.5-2 10.3-11.5 10.3-13.1 0-13.1-19.8v-24.8h51.1v-29.4q0-22.6-7.7-33.2-11.1-14.6-30.3-14.6-19.4 0-30.5 14.6-8 10.6-8 33.2v49.4z m25.4-41.4v-13.2q0-19.4 12.8-19.4t12.9 19.4v13.2h-25.7z" /></svg>