<svg height="512" width="438.9" xmlns="http://www.w3.org/2000/svg"><path d="m0 393.1v-274.2q0-34 24.1-58.2t58.2-24.1h274.3q34 0 58.1 24.1t24.2 58.2v274.2q0 34-24.2 58.2t-58.1 24.1h-274.3q-34 0-58.2-24.1t-24.1-58.2z m62.3-58.8q0 50.3 5.7 74.3 2.9 12.3 12.1 20.8t21.6 10q39.2 4.3 117.7 4.3t117.7-4.3q12.3-1.4 21.6-10t12.2-20.8q5.7-24 5.7-74.3 0-50.6-5.5-74.3-2.8-12.6-12.2-21t-21.8-9.9q-38.8-4.2-117.7-4.2-78.5 0-117.4 4.2-12.6 1.5-21.9 9.9t-12.1 21q-5.7 24.9-5.7 74.3z m23.4-52.9v-20h66.3v20h-22.9v120.9h-21.1v-120.9h-22.3z m27.4-217.7l6.9 19.7t6.6 19.7q10 29.5 13.1 45.2v57.4h21.2v-57.4l25.7-84.6h-21.5l-14.5 55.7-15.2-55.7h-22.3z m41.8 316.6v-82.9h18.8v77.2q0 6.8 0.3 7.4 0.3 4.3 4.3 4.3 5.7 0 12-8.9v-80h19.1v104.9h-19.1v-11.4q-11.2 12.8-21.7 12.8-9.5 0-12-8-1.7-4.6-1.7-15.4z m32-208.9q0 16.6 6 24.9 7.7 10.8 22.2 10.8 14 0 22.3-10.8 6-7.7 6-24.9v-37.1q0-16.6-6-24.9-8.3-10.8-22.3-10.8-14.5 0-22.2 10.8-6 8.3-6 24.9v37.1z m19.1 3.7v-44.5q0-14.9 9.1-14.9t9.2 14.9v44.5q0 14.6-9.2 14.6t-9.1-14.6z m19.7 227.2v-140.9h19.2v46q9.1-11.4 19.4-11.4 11.7 0 15.1 12 2 6 2 21.1v41.8q0 14.8-2 20.8-3.4 12-15.1 12-10 0-19.4-11.7v10.3h-19.2z m19.2-20.6q4.5 4.6 9.4 4.6 8.3 0 8.3-14v-44.9q0-14.3-8.3-14.3-4.9 0-9.4 4.6v64z m14.2-198q0 10.6 1.8 15.7 3.1 7.7 12.2 7.7 10.3 0 22-12.8v11.4h19.2v-105.7h-19.2v80.9q-6.2 8.8-12 8.8-4.2 0-4.5-4.6-0.3-0.5-0.3-7.4v-77.7h-19.2v83.7z m37.2 184.6v-36.9q0-16.8 5.7-24.5 8.3-10.9 22.9-10.9t22.2 10.9q6 8 6 24.5v21.7h-38v18.6q0 14.6 9.8 14.6 6.8 0 8.5-7.4 0-0.3 0.2-2t0.1-4.8v-6.1h19.4v2.6q0 8.3-0.5 12.3-0.9 6.2-4.3 11.4-7.7 11.4-22.9 11.4-14.8 0-23.1-10.8-6-7.8-6-24.6z m18.8-30.9h18.9v-9.7q0-14.6-9.4-14.6t-9.5 14.6v9.7z" /></svg>