<svg height="512" width="512.0" xmlns="http://www.w3.org/2000/svg"><path d="m160 160h-64c-32 0-32 32-32 32h128c0 0 0-32-32-32z m0 64h-64c-32 0-32 32-32 32h128c0 0 0-32-32-32z m0 64h-64c-32 0-32 32-32 32h128c0 0 0-32-32-32z m224-128h-64c-32 0-32 32-32 32h128c0 0 0-32-32-32z m0 64h-64c-32 0-32 32-32 32h128c0 0 0-32-32-32z m0 64h-64c-32 0-32 32-32 32h128c0 0 0-32-32-32z m-80-208c-32 0-64 32-64 32s-32-32-64-32c-80 0-176 32-176 32v304l224-16c0 0-0.6 16 15.7 16 16.3 0 16.3-16 16.3-16l224 16v-304c0 0-96-32-176-32z m-80 304c0 0 0.5-32-32-32-96.5 0-160 32-160 32v-256c0 0 64-16 128-16 32 0 64 32 64 32v240z m224-16c0 0-48.5-16-160-16-31 0-32 32-32 32v-240c0 0 32-32 64-32 64 0 128 32 128 32v224z" /></svg>