<svg height="512" width="512.0" xmlns="http://www.w3.org/2000/svg"><path d="m352 256h-32v64h32v-64z m-64 0h-32v64h32v-64z m64-96h-32v64h32v-64z m64 96h-32v64h32v-64z m-128 96h-32v64h32v-64z m96-352h-32v64h32v-64z m-256 0h-32v64h32v-64z m288 160h-32v64h32v-64z m-128 0h-32v64h32v-64z m-128 192h-32v64h32v-64z m-64-96h-32v64h32v-64z m64 0h-32v64h32v-64z m256-224v64h-96v-64h-160v64h-96v-64h-64v448h480v-448h-64z m32 416h-416v-320h416v320z m-352-96h-32v64h32v-64z m128-192h-32v64h32v-64z m0 192h-32v64h32v-64z m-64-192h-32v64h32v-64z m64 96h-32v64h32v-64z m128 96h-32v64h32v-64z" /></svg>