<svg height="512" width="382.8" xmlns="http://www.w3.org/2000/svg"><path d="m380.3 258.1l-24.9-24.8c-3.2-3.3-8.4-3.3-11.6 0l-52.5 52.5-60.1 60.1-46.5-46.5c-3.3-3.3-8.5-3.3-11.8 0l-24.8 24.8c-3.3 3.3-3.3 8.6 0 11.8l52.4 52.4 8.9 9 15.9 15.9c3.3 3.3 8.6 3.3 11.8 0l24.8-24.9 118.4-118.5c3.3-3.2 3.3-8.5 0-11.8z m-266.1 32.3l24.9-24.9c21.2-21.2 58.2-21.2 79.4 0l12.6 12.7 56.9-54.2v-160h-288v352h160l-45.8-46.1c-21.9-21.9-21.9-57.6 0-79.5z m-18.2-194.4h160v32h-160v-32z m0 64h160v32h-160v-32z m-32 96h-32v-32h32v32z m0-64h-32v-32h32v32z m0-64h-32v-32h32v32z m32 96h32v32h-32v-32z" /></svg>