<svg height="512" width="416.0" xmlns="http://www.w3.org/2000/svg"><path d="m208 232.3c-30.8 0-55.7 24.9-55.7 55.7s24.9 55.8 55.7 55.8 55.8-25 55.8-55.8c0-4.2-0.6-8.4-1.5-12.3 40.8-47.5 104-121.5 137.7-163.7 11.6-14.4-1.2-28.1-16-16-42.6 34.7-116.2 97.3-163.5 137.8-4-0.9-8.2-1.5-12.5-1.5z m15.9-104.4c0-8.8-7.1-16-16-16s-16 7.2-16 16 7.2 16 16 16 16-7.1 16-16z m96 128c0 8.9 7.2 16 16 16s16-7.1 16-16-7.1-16-16-16-16 7.2-16 16z m-176-128c-8.8 0-16 7.2-16 16s7.2 16 16 16 16-7.1 16-16-7.1-16-16-16z m-32 64c0-8.8-7.1-16-16-16s-16 7.2-16 16 7.2 16 16 16 16-7.1 16-16z m-48 64c0 8.9 7.2 16 16 16s16-7.1 16-16-7.1-16-16-16-16 7.2-16 16z m224-112c0-8.8-7.1-16-16-16s-16 7.2-16 16 7.2 16 16 16 16-7.1 16-16z m108.5 24.4l-34.3 45c3.7 13.6 5.9 27.9 5.9 42.7 0 88.4-71.7 160-160 160s-160-71.6-160-160c0-88.3 71.7-160 160-160 32.9 0 63.5 10 88.9 27l39.7-30.3c-35.4-27.9-80-44.7-128.6-44.7-114.9 0-208 93.1-208 208s93.1 208 208 208 208-93.1 208-208c0-31.4-7.1-61-19.6-87.7z" /></svg>