<svg height="512" width="448.0" xmlns="http://www.w3.org/2000/svg"><path d="m224 175c-44.7 0-81 36.3-81 81 0 44.7 36.3 81 81 81 44.7 0 80.7-36.3 80.7-81 0-44.7-36-81-80.7-81z m162.3 127.5l-14.6 35.2 26 51.1 3.5 6.8-36.1 36.1-59.2-28-35.2 14.4-17.8 54.7-2.3 7.2h-51l-22.1-61.7-35.2-14.5-51.2 26-6.7 3.4-36.1-36.1 28-59.2-14.5-35.1-54.6-17.9-7.2-2.3v-51l61.7-22.1 14.5-35.1-26-51.2-3.4-6.7 36-36.1 59.3 27.9 35.2-14.5 17.8-54.6 2.3-7.2h51l22.1 61.7 35 14.6 51.3-26 6.8-3.5 36 36.1-27.9 59.2 14.4 35.2 54.7 17.8 7.2 2.3v50.9l-61.7 22.2z" /></svg>