<svg height="512" width="384.0" xmlns="http://www.w3.org/2000/svg"><path d="m64 32c-35.3 0-64 28.7-64 64 0 23.6 13 44 32 55.1v209.8c-19 11.1-32 31.5-32 55.1 0 35.3 28.7 64 64 64s64-28.7 64-64c0-23.6-12.9-44-32-55.1v-209.8c19.1-11.1 32-31.5 32-55.1 0-35.3-28.7-64-64-64z m0 416c-17.7 0-32-14.3-32-32 0-17.7 14.3-32 32-32 17.7 0 32 14.3 32 32 0 17.7-14.3 32-32 32z m0-320c-17.7 0-32-14.3-32-32s14.3-32 32-32c17.7 0 32 14.3 32 32s-14.3 32-32 32z m288 232.9v-200.9c0-96.2-96-96-96-96h-32v-64l-96 96 96 96v-64c0 0 13.3 0 32 0 28.2 0 32 32 32 32v200.9c-19.1 11.1-32 31.4-32 55.1 0 35.3 28.7 64 64 64s64-28.7 64-64c0-23.6-12.9-44-32-55.1z m-32 87.1c-17.7 0-32-14.3-32-32 0-17.7 14.3-32 32-32 17.7 0 32 14.3 32 32 0 17.7-14.3 32-32 32z" /></svg>