<svg height="512" width="320.0" xmlns="http://www.w3.org/2000/svg"><path d="m256 96c-35.3 0-64 28.7-64 64 0 23.6 12.9 44 32 55.1v8.9c0 0 0 64-64 64-26.5 0-47.3 5.7-64 14.4v-151.3c19.1-11.1 32-31.5 32-55.1 0-35.3-28.7-64-64-64s-64 28.7-64 64c0 23.6 12.9 44 32 55.1v209.8c-19.1 11.1-32 31.5-32 55.1 0 35.3 28.7 64 64 64s64-28.7 64-64c0-16.7-6.6-31.9-17.1-43.3 9.3-11.4 24.4-20.7 49.1-20.7 127 0 128-128 128-128v-8.9c19.1-11.1 32-31.5 32-55.1 0-35.3-28.7-64-64-64z m-192-32c17.7 0 32 14.3 32 32s-14.3 32-32 32-32-14.3-32-32 14.3-32 32-32z m0 384c-17.7 0-32-14.3-32-32 0-17.7 14.3-32 32-32s32 14.3 32 32c0 17.7-14.3 32-32 32z m192-256c-17.7 0-32-14.3-32-32s14.3-32 32-32 32 14.3 32 32-14.3 32-32 32z" /></svg>