<svg height="512" width="384.0" xmlns="http://www.w3.org/2000/svg"><path d="m320 224c-23.8 0-44.3 13.2-55.3 32.5-2.9-0.2-5.7-0.5-8.7-0.5-65.5 0-127.7-49.9-150.4-111.7 13.6-11.8 22.4-28.9 22.4-48.3 0-35.3-28.7-64-64-64s-64 28.7-64 64c0 23.6 12.9 44 32 55.1v209.8c-19.1 11.1-32 31.5-32 55.1 0 35.3 28.7 64 64 64s64-28.7 64-64c0-23.6-12.9-44-32-55.1v-115.2c42.1 44.6 100.2 74.3 160 74.3 3.2 0 5.8-0.2 8.7-0.3 11.1 19.2 31.6 32.3 55.3 32.3 35.3 0 64-28.7 64-64 0-35.3-28.7-64-64-64z m-256 224c-17.7 0-32-14.3-32-32 0-17.7 14.3-32 32-32 17.7 0 32 14.3 32 32 0 17.7-14.3 32-32 32z m0-320c-17.7 0-32-14.3-32-32s14.3-32 32-32c17.7 0 32 14.3 32 32s-14.3 32-32 32z m256 192c-17.7 0-32-14.3-32-32 0-17.7 14.3-32 32-32 17.7 0 32 14.3 32 32 0 17.7-14.3 32-32 32z" /></svg>