<svg height="512" width="448.0" xmlns="http://www.w3.org/2000/svg"><path d="m224 192c17.7 0 32-14.3 32-32 0-17.7-14.3-32-32-32-17.7 0-32 14.3-32 32 0 17.7 14.3 32 32 32z m0-160c-123.7 0-224 100.3-224 224 0 123.7 100.3 224 224 224 123.7 0 224-100.3 224-224 0-123.7-100.3-224-224-224z m0 384c-88.4 0-160-71.6-160-160 0-88.4 71.6-160 160-160 88.4 0 160 71.6 160 160 0 88.4-71.6 160-160 160z m32-160c0-33-32-32-32-32s0 0-32 0-32 32-32 32h32c0 0 0 64 0 96s32 32 32 32 0 0 32 0 32-32 32-32h-32c0 0 0-63 0-96z" /></svg>