<svg height="512" width="512.0" xmlns="http://www.w3.org/2000/svg"><path d="m320 288h32v-64h-32v64z m64-160h-32v64h32v-64z m-64 0h-32v64h32v-64z m-64 160h32v-64h-32v64z m-64 96h160v-64h-160v64z m192-96h64v-160h-32v96h-32v64z m-256 96h32v-64h-32v64z m256 0h64v-64h-64v64z m-128-256h-32v64h32v-64z m-160 96h-32v64h32v-64z m0 96h-32v64h32v-64z m-96-256v384h512v-384h-512z m480 352h-448v-320h448v320z m-288-128h32v-64h-32v64z m-64-160h-64v64h64v-64z m64 0h-32v64h32v-64z m-64 160h32v-64h-32v64z" /></svg>