<svg height="512" width="512.0" xmlns="http://www.w3.org/2000/svg"><path d="m256 32c-88.4 0-160 71.6-160 160 0 52.3 25.1 98.8 64 128v96c0 17.7 14.3 32 32 32 0 17.7 14.3 32 32 32h64c17.7 0 32-14.3 32-32 17.7 0 32-14.3 32-32v-96c38.9-29.2 64-75.7 64-128 0-88.4-71.6-160-160-160z m64 368c0 8.8-7.2 16-16 16h-96c-8.8 0-16-7.2-16-16v-16h128v16z m32-123.3c-16.6 16.5-32 21.1-32 62v13.3h-32v-64l64-64v-32l-32-32-32 32-32-32-32 32-32-32-32 32v32l64 64v64h-32v-13.3c0-40.9-15.4-45.5-32-62-19.9-22.6-32-52.2-32-84.7 0-70.7 57.3-128 128-128s128 57.3 128 128c0 32.5-12.1 62.1-32 84.7z m-96 11.3l-64-64v-32l32 32 32-32 32 32 32-32v32l-64 64z" /></svg>