<svg height="512" width="512.0" xmlns="http://www.w3.org/2000/svg"><path d="m416 16c-65 0-62 65-352 64-35.3 0-64 57.3-64 128s28.7 128 64 128c11.4 0 21.6 0.3 32.1 0.4l31.9 143.6 96 16 32-48-22.6-101.6c121.3 18.2 133.5 53.6 182.6 53.6 53 0 96-86 96-192 0-106-43-192-96-192z m-317.5 225.5c-19.6-0.8-41.1-1.2-63.8-1.3-1.7-9.9-2.7-20.7-2.7-32.2 0-44.2 14.3-96 32-96 19.5 0.1 37.5-0.2 54.5-0.7-13.7 23.5-22.5 57.9-22.5 96.7 0 11.7 1 22.7 2.5 33.5z m32.2 1.5c-1.6-11.2-2.7-22.8-2.7-35 0-39.7 9.2-74.7 23.5-98.1 77.5-4.2 125.9-14.2 159.5-25.1-14.2 33.4-23 76-23 123.2 0 20 1.9 39 4.8 57.2-36.1-9.4-86.4-17.9-162.1-22.2z m285.3 109c-6.1 0-11.8-2.5-17.4-6.1-7.6-33.6-41.7-209.1 58.7-247.1 13.8 26.5 22.7 65.3 22.7 109.2 0 79.5-28.7 144-64 144z" /></svg>