<svg height="512" width="416.0" xmlns="http://www.w3.org/2000/svg"><path d="m233.3 49.6c-114-14-217.7 67-231.7 181.1-14 114 67 217.8 181.1 231.7 35.7 4.4 72.5-0.4 106.6-14.9l0 0c12.2-5.2 17.9-19.3 12.7-31.5-5.2-12.2-19.2-17.9-31.4-12.7l0 0c-26.3 11.1-54.6 14.9-82.1 11.5-87.7-10.8-150.1-90.6-139.3-178.3 10.8-87.7 90.6-150.1 178.3-139.3 87.7 10.8 150.1 90.6 139.3 178.3-2.1 17.5-10.8 27.9-30.8 27.9-21.2 0-32-23-32-40.6v-62.8c0-13.3-10.7-24-24-24-4.8 0-9.4 1.4-13.1 3.9-12.9-10.1-28.7-16.9-47.2-19.2-52.6-6.4-100.5 31-107 83.6-6.4 52.6 31 100.5 83.6 107 28.7 3.5 58.1-7.4 78.9-26.6 12.5 14.1 30 23.8 50.1 26.3 43.8 5.4 83.8-25.8 89.1-69.7 14-114-67-217.7-181.1-231.7z m22.3 212.2c-3.2 26.4-27.1 45.1-53.4 41.8-26.4-3.2-45.1-27.1-41.8-53.4 3.2-26.4 27.1-45.1 53.4-41.8 26.4 3.2 45.1 27.1 41.8 53.4z" /></svg>