<svg height="512" width="512.0" xmlns="http://www.w3.org/2000/svg"><path d="m250.5 294l-122.5-38v80c0 26.5 57.5 48 128 48s128-21.5 128-48v-80l-122.5 38c-3.5 1-7.5 1-11.5 0z m253.5-128.5l-244.5-76c-2-0.5-4.5-0.5-6.5 0l-244.5 76c-10.5 3.5-10.5 18 0 21.5l55.5 17.5v56.5c-9.5 5.5-16 16-16 27.5 0 6 1.5 11.5 4.5 16-2.5 4.5-4.5 10-4.5 16v82.5c0 17.5 64 17.5 64 0v-82.5c0-6-1.5-11.5-4.5-16 2.5-4.5 4.5-10 4.5-16 0-12-6.5-22-16-27.5v-46.5l156.5 49c2 0.5 4.5 0.5 6.5 0l244.5-76c10.5-3.5 10.5-18 0-21.5z m-247.5 26.5c-17.5 0-32-7-32-16s14.5-16 32-16 32 7 32 16-14.5 16-32 16z" /></svg>