<svg height="512" width="512.0" xmlns="http://www.w3.org/2000/svg"><path d="m470.4 138.8c4.1-10.1 17.7-50.8-4.3-105.9 0 0-33.7-10.7-109.9 41.4-31.9-8.7-66.3-10-100.2-10-34 0-68.2 1.3-100.2 10.1-76.3-52.2-109.9-41.5-109.9-41.5-22 55.1-8.4 95.8-4.3 105.9-25.8 28-41.6 63.6-41.6 107.4 0 164.6 106.6 201.8 255.4 201.8 148.9 0 256.6-37.2 256.6-201.8 0-43.8-15.7-79.4-41.6-107.4z m-214.4 277.7c-105.7 0-191.4-4.9-191.4-107.3 0-24.5 12-47.3 32.7-66.2 34.4-31.5 92.6-14.8 158.7-14.8 66.1 0 124.3-16.7 158.7 14.8 20.7 18.9 32.7 41.6 32.7 66.1 0 102.5-85.7 107.4-191.4 107.4z m-80.4-160.3c-21.3 0-38.5 25.6-38.5 57.1s17.2 57.2 38.5 57.2c21.2 0 38.4-25.6 38.4-57.2s-17.2-57.1-38.4-57.1z m160.8 0c-21.1 0-38.4 25.6-38.4 57.1s17.3 57.2 38.4 57.2 38.4-25.6 38.4-57.2c0.1-31.5-17.1-57.1-38.4-57.1z" /></svg>