<svg height="512" width="512.0" xmlns="http://www.w3.org/2000/svg"><path d="m160 192h-32v32h32v-32z m-64-160h128v-32h-192s-32-0.5-32 32c0 146.5 0 384 0 384 0 5 1.5 32 32 32h64v64l48-48 48 48v-64h159c33.5 0 33-32 33-32v-96h-288v-288z m256 320s0 16 0 32c0 31-33 32-33 32s-62 0-127 0v-32h-96v32h-33c-32 0-31-32-31-32v-32h320z m-192-224h-32v32h32v-32z m-32 160h32v-32h-32v32z m352-288h-160s-32 0-32 32v192c0 32 32 32 32 32h32v32l16-16 16 16v-32h96s32 0 32-32v-192c0-32-32-32-32-32z m-128 224s0 0-16 0-16-16-16-16v-16h32v32z m128-16s0 16-16 16-80 0-80 0v-32h96v16z m0-48h-128v-128h112s16 0 16 16 0 112 0 112z m-320-96h-32v32h32v-32z" /></svg>