<svg height="512" width="384.0" xmlns="http://www.w3.org/2000/svg"><path d="m0 64v64c0 0 1 32 32 32s288.6 0 320 0 32-32 32-32v-64c0 0-0.2-32-32-32s-294.2 0-320 0c-32.5 0-32 32-32 32z m0 160v64c0 0 1 32 32 32s288.6 0 320 0 32-32 32-32v-64c0 0-0.2-32-32-32s-294.2 0-320 0c-32.5 0-32 32-32 32z m0 160v64c0 0 1 32 32 32s288.6 0 320 0 32-32 32-32v-64c0 0-0.2-32-32-32s-294.2 0-320 0c-32.5 0-32 32-32 32z m32-96v-64h32v64h-32z m64 0v-64h32v64h-32z m64 0v-64h32v64h-32z m64 0v-64h32v64h-32z m96-32v-32h32v32h-32z m-288-128v-64h32v64h-32z m64 0v-64h32v64h-32z m64 0v-64h32v64h-32z m64 0v-64h32v64h-32z m96-32v-32h32v32h-32z m-288 352v-64h32v64h-32z m64 0v-64h32v64h-32z m64 0v-64h32v64h-32z m64 0v-64h32v64h-32z m96-32v-32h32v32h-32z" /></svg>