<svg height="512" width="512.0" xmlns="http://www.w3.org/2000/svg"><path d="m384 32c-70.7 0-128 41.9-128 93.4 0 62 16 97.1 0 194.6 0-144-88.5-202.9-128-202.9 1.6-16.1-15.5-21.1-15.5-21.1s-7 3.6-9.7 10.8c-8.6-10-18-8.8-18-8.8l-4.3 18.6c0 0-58.5 20.4-59.3 103.1 6.8 10.8 49.5 19.4 79.7 13.9 28.6 1.4 21.5 25.3 15.1 31.7-27 27-52-9.3-84-9.3s-32 32 0 32 32 32 96 32c-99 38.5 0 128 0 128h-32c-32 0-32 32-32 32s128 0 192 0c96 0 160-32 160-111.1 0-27.2-13.8-57.3-32-81.1-35.5-46.5 7.2-85.6 32-63.8s96 32 96-64c0-70.7-57.3-128-128-128z m-304 160c-8.8 0-16-7.2-16-16 0-8.8 7.2-16 16-16 8.8 0 16 7.2 16 16 0 8.8-7.2 16-16 16z" /></svg>