<svg height="512" width="384.0" xmlns="http://www.w3.org/2000/svg"><path d="m352 64h-128c0 0 0-12 0-16 0-8.8-7.2-16-16-16s-16 7.2-16 16c0 8.8 0 16 0 16h-128c-17.7 0-32 14.3-32 32v32c0 17.7 14.3 32 32 32v288c0 17.7 14.3 32 32 32h224c17.7 0 32-14.3 32-32v-288c17.7 0 32-14.3 32-32v-32c0-17.7-14.3-32-32-32z m-32 368c0 8.8-7.2 16-16 16h-192c-8.8 0-16-7.2-16-16v-272h32v240c0 8.8 7.2 16 16 16s16-7.2 16-16l0.2-240h31.8v240c0 8.8 7.2 16 16 16s16-7.2 16-16l0.2-240h32l-0.2 240c0 8.8 7.2 16 16 16s16-7.2 16-16v-240h32v272z m32-312c0 4.4-3.6 8-8 8h-272c-4.4 0-8-3.6-8-8v-16c0-4.4 3.6-8 8-8h272c4.4 0 8 3.6 8 8v16z" /></svg>