<svg height="512" width="448.0" xmlns="http://www.w3.org/2000/svg"><path d="m64 192h-64v128h64l128 96h32v-320h-32l-128 96z m205.3 18.7c-6.3-6.2-16.4-6.2-22.7 0-6.2 6.3-6.2 16.4 0 22.7 12.5 12.5 12.5 32.7 0 45.2-6.2 6.3-6.2 16.4 0 22.7 6.3 6.2 16.4 6.2 22.7 0 24.9-25 24.9-65.6 0-90.6z m45.2-45.2c-6.2-6.3-16.4-6.3-22.6 0-6.3 6.2-6.3 16.4 0 22.6 37.5 37.5 37.5 98.3 0 135.8-6.3 6.2-6.3 16.4 0 22.6 6.2 6.3 16.4 6.3 22.6 0 50-50 50-131 0-181z m45.3-45.3c-6.3-6.2-16.4-6.2-22.7 0-6.2 6.3-6.2 16.4 0 22.7 62.5 62.4 62.5 163.8 0 226.2-6.2 6.3-6.2 16.4 0 22.7 6.3 6.2 16.4 6.2 22.7 0 74.9-75 74.9-196.6 0-271.6z" /></svg>