<svg height="512" width="548.5" xmlns="http://www.w3.org/2000/svg"><path d="m-88.1 416.8q0-9.8 6.7-16.4t16.9-6.7h239.1q9.7 0 15.9 6.7t6.1 16.4q0 9.7-6.6 15.8t-15.9 6.2h-239.1q-10.3 0-16.9-6.2t-6.7-15.8z m70.2-81.4q0-9.8 7.1-15.9 5.7-6.2 15.9-6.2h240.1q9.3 0 15.4 6.2t6.2 15.9-6.2 16.3-15.4 6.7h-240.1q-9.2 0-16.4-6.7t-7.1-16.3z m16.4-62.5q0 3.6 4.6 3.6h37.9q3.5 0 6.1-3.6 9.2-22 27.7-35.8t41.9-15.9l14.4-1.6q4.6 0 4.6-4.6l1.5-13.8q4.6-43.5 37.4-72.7t76.8-29.2q43.5 0 75.8 28.7t37.3 72.2l2.1 15.9q0 4.1 4.6 4.1h43q36.4 0 62 25.6t25.6 61.9q0 34.8-26.2 60.9t-61.4 26.2h-183.8q-4.6 0-4.6 4.6v35.8q0 4.6 4.6 4.6h183.8q27.1 0 51.7-10.2t42.5-28.2 28.2-42 10.7-51.2q0-35.8-17.9-66.5t-48.1-48.2-66.6-17.4h-8.2q-12.8-53.7-56.3-88t-98.3-34.3q-56.8 0-100.3 35.3t-55.3 90.6q-34.3 7.7-60.5 32.3t-36.3 59.4v0.5q-0.5 1-0.5 2z m30.7 226.3q0-9.7 7.2-15.9 6.1-6.1 15.8-6.1h239.6q9.8 0 16.4 6.6t6.7 15.9-6.7 16.4-16.4 6.7h-239.6q-9.2 0-15.8-6.7t-6.7-16.4z" /></svg>