<svg height="512" width="548.5" xmlns="http://www.w3.org/2000/svg"><path d="m-57.9 416.3q0-9.8 7.2-16.9 7.2-6.7 15.9-6.7h144.4q29.7 0 50.1 21t21 50.7q0 29.7-21 50.7t-50.6 21-50.7-21q-6.2-6.2-6.2-15.9t6.2-16.4 16.4-6.1q9.7 0 16.3 6.6 8.2 7.7 18.5 7.7 10.7 0 18.4-7.7t7.7-18.4q0-10.8-7.7-17.9t-18.4-7.7h-144.4q-9.7 0-16.4-6.7t-6.7-15.8z m0-80.9q0-9.8 7.2-16.4t15.9-6.7h281.1q10.7 0 18.4-7.7t7.7-18.4-7.7-18.4-18.4-7.7q-11.3 0-18.5 7.7-7.1 6.1-16.9 6.1t-15.8-6.1-6.2-15.9q0-10.2 6.2-16.4 20.5-20.5 51.2-20.5 29.7 0 50.7 21t21 50.2-21 50.2-50.7 21h-281.1q-9.7 0-16.4-6.7t-6.7-15.9z m57.4-63q0 3.1 4.1 3.1h38.4q3.1 0 5.6-4.1 9.2-22.1 28.2-35.9t42.5-15.9l13.8-2q5.1 0 5.1-4.6l2.1-13.8q4.1-43.6 36.8-72.7t76.3-29.2q44 0 76.8 29.2t36.9 72.7l2 15.8q0 4.6 4.6 4.6h43q36.4 0 62 25.6t26.1 61.5-26.1 61.4-62 25.6h-184.3q-4.6 0-4.6 4.6v36.9q0 4.6 4.6 4.6h184.3q36.4 0 67.1-17.9t48.7-48.7 17.9-66.5q0-36.4-17.9-66.6t-48.7-48.1-67.1-17.9h-8.1q-12.3-53.3-55.9-87.1t-99.3-33.8q-56.3 0-99.8 35.4t-55.3 90.1q-34.3 8.2-60.9 32.8t-36.9 58.8v1.1q-0.5 1.5-0.5 2z" /></svg>