<svg height="512" width="554.2" xmlns="http://www.w3.org/2000/svg"><path d="m1.5 307.2q0 26.1 10.3 50.2t27.1 41.4 41 28.2 49.6 11.8q4.6 0 4.6-4.6v-35.4q0-5.1-4.6-5.1-34.8-2.5-58.8-27.6t-24.1-58.9q0-33.3 22.5-58.4t55.8-27.6l13.9-2.1q5.1 0 5.1-4.6l2-13.8q2.6-28.7 18.5-51.7t40.4-36.4 53.8-13.3q44 0 76.2 28.7t36.9 72.2l2.1 15.4q0 4.6 5.1 4.6h43q35.8 0 61.9 25.6t25.6 61.4q0 33.8-23.5 58.9t-58.4 27.6q-5.1 0-5.1 5.1v35.4q0 4.6 5.1 4.6 53.8-2.6 90.1-40.5t36.9-91.1q0-35.8-17.9-66t-48.2-48.2-66-17.9h-8.7q-13.3-53.2-56.3-87.5t-98.3-34.4q-56.3 0-100.4 35.4t-56.3 90.1q-44 10.2-72.7 46.1t-28.7 81.9z m165.9 33.8q0 29.7 14.9 55.3t40.4 40.4 54.8 14.9q46.1 0 78.9-32.8t32.7-77.8q0-9.7-6.6-16.4t-16.4-6.6-16.4 6.6-7.2 15.9q0 27.1-18.9 46.1t-46.1 18.9q-26.6 0-46.1-19.5t-18.9-46q0-24.1 14.3-43t35.3-20.5l-11.2 10.7q-6.2 6.2-6.2 15.4 0 10.2 6.2 17.4 5.6 6.1 14.3 6.1t19-6.1l48.6-49.7q6.7-6.6 6.7-15.3 0-10.3-6.7-16.4l-48.6-48.6q-7.7-7.2-16.4-7.2-9.2 0-15.9 6.6t-6.7 16.4 6.2 15.4l9.7 9.7q-39.9 6.7-66.5 37.4t-26.7 72.2z" /></svg>