<svg height="512" width="637.0" xmlns="http://www.w3.org/2000/svg"><path d="m-63.5 415.2q0 9.8 6.7 16.4 17.4 7.2 23.5 7.2h209.9q9.8 0 16.4-6.7t6.7-16.4q0-9.2-6.7-15.8t-16.4-6.2h-209.9q-10.7 0-20.5 6.2t-9.7 15.3z m37.4-79.8q0 9.7 6.6 15.8 6.2 7.2 15.4 7.2h250.9q9.7 0 16.4-6.7t6.6-16.3-6.6-16.4-16.4-6.7h-250.9q-9.2 0-15.9 6.7t-6.6 16.4z m28.1-63.5q0 3.6 4.7 3.6h37.3q4.6 0 5.7-3.6 10.2-21.5 28.6-35.4t42-16.3h14.9q4.1 0 4.1-5.2l2-14.8q4.1-43.5 36.4-72.7t76.3-29.2q43.5 0 76.2 29.2t37.4 72.7l2.1 14.8q0 5.2 4.6 5.2h43q35.3 0 61.4 25.6t25.6 60.4q0 35.8-25.6 61.4t-61.4 25.6h-183.8q-4.6 0-4.6 5.1v35.4q0 4.6 4.6 4.6h183.8q35.8 0 66.5-17.9t48.2-48.2 17.9-66.5q0-28.7-11.8-53.3 31.2-38.9 31.2-87.5 0-37.4-18.9-69.7t-51.2-51.2-70.1-18.9q-29.2 0-55.9 11.8t-46.5 33.2q-33.3-17.4-72.2-17.4-56.4 0-100.4 34.9t-55.8 89.6q-33.8 8.7-59.9 33.2t-36.4 58.9q-0.5 0.5-0.5 2.1z m19.5 228.3q0 9.8 6.7 15.9 6.6 6.7 15.8 6.7h250.9q9.2 0 15.9-6.7t6.6-15.9q0-10.2-6.6-16.9t-15.9-6.6h-250.9q-9.7 0-15.8 6.6t-6.7 16.9z m199.2-520.2q0 9.8 6.6 15.9l16.9 17.4q6.7 6.7 15.9 6.7 10.2 0 16.9-6.7t6.6-16.4q0-9.2-6.6-15.8l-16.9-17.5q-6.7-6.6-15.4-6.6-10.2 0-16.9 6.6t-6.6 15.9z m143.3 116.8q26.7-25.1 65.1-25.1 38.9 0 66.5 27.6t27.7 66.6q0 26.6-12.3 48.1-37.9-37.9-93.2-37.9h-8.2q-11.3-46.1-45.6-78.8z m42.5-139.3q0 9.7 6.7 15.9t15.9 6.1q10.2 0 16.3-6.1t6.2-15.9v-54.8q0-9.7-6.2-16.4t-16.3-6.6q-9.3 0-15.9 6.6t-6.7 16.4v54.8z m147.5 60.9q0 9.8 6.6 15.9 5.2 6.7 15.9 6.7t15.9-6.7l39.4-38.4q6.7-6.1 6.7-16.4 0-9.2-6.7-15.9t-16.4-6.6-16.4 6.1l-38.4 39.5q-6.6 6.1-6.6 15.8z m21 316.4q0 9.8 6.6 15.9l17.4 16.9q9.8 7.2 16.4 7.2t16.4-7.2q6.7-6.6 6.7-15.9t-6.7-16.3l-17.4-16.4q-7.7-7.2-17.4-7.2t-15.9 6.7-6.1 16.3z m38.9-168.4q0 10.2 7.2 16.4 7.1 6.6 15.8 6.6h54.3q9.2 0 15.9-6.6t6.6-16.4q0-9.2-6.6-15.4t-15.9-6.1h-54.3q-9.7 0-16.4 6.1t-6.6 15.4z" /></svg>