<svg height="512" width="637.0" xmlns="http://www.w3.org/2000/svg"><path d="m-71.7 416.3q0 9.7 7.2 15.8 6.6 6.7 16.4 6.7h156.6q10.3 0 18 7.7t7.6 18.4-7.6 18.4-18 7.7-18.4-8.2q-7.2-6.6-16.4-6.6-9.7 0-15.8 6.1t-6.7 15.9 6.7 15.8q21.5 21.6 50.6 21.6 29.7 0 50.2-21t21-50.2-21-50.7-50.2-21h-156.6q-9.8 0-16.4 6.7t-7.2 16.3z m0-80.4q0 8.7 7.2 15.3 6.6 6.7 16.4 6.7h292.3q29.7 0 50.2-21t21-50.2-21-50.2-50.7-20.4q-30.2 0-50.2 20.4-6.1 6.7-6.1 16.4t6.1 15.9 15.9 6.1q9.7 0 16.4-6.1 7.7-7.7 17.9-7.7t17.9 7.7 7.7 18.4-7.7 18.5-17.9 7.6h-292.3q-9.8 0-16.4 7.2t-7.2 16.4z m71.2-63q0 3.1 4.1 3.1h38.4q3.1 0 5.6-3.6 9.2-22 27.7-35.9t42.5-15.8l13.8-2.1q5.1 0 5.1-4.6l1.5-13.8q4.1-43.5 36.4-72.2t75.8-29.2q44 0 76.3 28.7t36.8 72.2l2.1 15.3q0 4.6 4.6 4.6h43.5q35.8 0 61.4 25.1t25.6 60.5q0 35.8-25.6 60.9t-61.4 25.6h-183.8q-4.6 0-4.6 4.6v36.3q0 4.6 4.6 4.6h183.8q35.8 0 66-17.9t48.2-48.1 17.4-66q0-29.7-11.3-53.8 30.2-39.9 30.2-88.1 0-37.3-18.9-69.6t-51.2-51.2-69.7-18.9q-61.9 0-103.4 46-32.2-16.4-71.1-16.4-56.4 0-99.4 34.9t-54.8 89.1q-33.7 8.1-59.9 32.7t-36.3 58.4v1q-0.5 1-0.5 2.1z m218.1-293.9q0 9.7 7.2 15.9l16.4 17.4q6.6 6.6 16.3 6.6 10.3 0 16.4-6.1t6.7-15.9q0-9.7-6.2-15.8l-17.4-17.5q-6.1-7.1-15.8-7.1t-16.4 6.6-6.7 16.4z m141.8 117.8q28.7-27.2 66.1-27.2 38.9 0 66.5 28.2t28.2 67.1q0 26.1-13.8 48.6-38.4-38.4-92.2-38.4h-8.7q-9.7-43.5-46.1-78.3z m43-139.8q0 9.2 6.7 15.9t16.4 6.6 16.4-6.6 6.6-15.9v-54.3q0-9.7-6.6-16.4t-16.4-6.6-16.4 6.6-6.7 16.4v54.3z m148 60.4q0 9.7 6.1 15.9 6.7 6.6 16.4 7.1t15.4-7.1l38.9-38.4q6.7-6.7 6.7-16.4 0-9.2-6.7-15.9t-16.4-6.6-15.9 6.6l-38.4 39.4q-6.1 6.2-6.1 15.4z m20.5 315.4q0 9.2 6.6 15.9l16.9 17.4q8.2 6.6 16.9 6.6 7.7 0 15.4-6.6 6.6-6.7 6.6-15.9 0-8.7-6.6-16.4l-16.9-17.4q-6.7-6.6-15.4-6.6-10.2 0-16.9 6.6t-6.6 16.4z m40.4-168.4q0 9.7 6.7 15.8 6.1 7.2 15.3 7.2h54.3q9.2 0 15.9-6.7t6.6-15.8q0-9.8-6.6-16.4t-15.9-6.7h-54.3q-9.7 0-15.8 6.7t-6.2 16.4z" /></svg>