<svg height="512" width="637.0" xmlns="http://www.w3.org/2000/svg"><path d="m0.5 307.7q0 34.3 16.9 64.5t46.6 47.6 64 19q4.6 0 4.6-4.6v-35.4q0-5.1-4.6-5.1-33.8-2-58.4-27.1t-24-58.9q0-33.3 22.5-57.3t55.8-28.7l13.8-1.5q4.6 0 4.6-5.2l2.1-13.3q4.1-44 36.3-72.7t75.8-29.2q43.5 0 76.3 29.2t36.9 72.2l2 15.4q0 4.6 4.6 4.6h43q35.9 0 61.5 25.6t25.6 60.9q0 33.3-24.1 58.9t-57.9 27.1q-5.1 0-5.1 5.1v35.4q0 4.6 5.1 4.6 53.3-1.6 90.2-40t36.8-91.1q0-30.2-11.2-54.3 31.7-37.8 31.7-88 0-37.4-18.9-69.7t-51.2-50.6-69.7-19q-61.4 0-103.4 46.1-32.8-17.4-71.7-17.4-56.3 0-99.8 34.8t-55.8 89.1q-44.6 11.3-73.2 46.6t-28.2 81.9z m169.5 108q0 9.8 6.1 16.4t15.9 6.7 15.9-6.7 6.6-16.4q0-9.2-6.6-15.3t-15.9-6.7-15.9 6.7-6.1 15.3z m0 96.8q0 8.2 6.6 15.4 7.2 6.6 15.4 6.6 9.7 0 15.9-6.1t6.1-15.4q0-9.7-6.1-15.8t-15.9-6.2-15.9 6.2-6.1 15.8z m54.3-531.4q0 9.7 6.6 15.8l17.4 17.4q6.7 6.7 14.4 6.7 8.1 1.5 16.3-5.6t8.2-16.9-6.6-16.9l-16.9-16.4q-6.2-6.7-15.9-6.7-10.2 0-16.9 6.7t-6.6 16.4z m30.2 485.8q0 9.3 6.6 15.9t15.4 6.7q9.7 0 16.4-6.7t6.6-15.9q0-9.2-6.6-15.8t-16.4-6.7q-9.2 0-15.4 6.7t-6.6 15.8z m0-96.2q0 9.2 6.6 15.3t15.4 6.7q9.7 0 16.4-6.7t6.6-15.8-6.6-15.9-16.4-6.7q-9.2 0-15.4 6.7t-6.6 15.9z m0 193.5q0 8.7 6.6 15.4t15.4 6.6q9.7 0 16.4-6.1t6.6-15.9q0-9.2-6.6-15.8t-16.4-6.7q-8.7 0-15.4 6.7t-6.6 15.8z m86-149q0 9.8 6.6 16.4t15.9 6.7 15.9-6.7 6.6-16.4q0-9.2-6.6-15.3t-15.9-6.7-15.9 6.7-6.6 15.3z m0 96.8q0 8.7 6.1 15.4 7.2 6.6 15.9 6.6 9.7 0 15.9-6.1t6.1-15.4q0-9.7-6.1-15.9t-15.9-6.1-15.9 6.7-6.1 15.8z m26.1-414.7q27.6-26.6 66-26.6 39 0 66.1 27.6t27.6 66.6q0 25.1-13.3 49.1-38.4-38.4-92.6-38.4h-8.2q-11.8-46.6-45.1-78.3z m43-139.3q0 9.2 6.7 15.4t16.3 6.1 15.9-6.1 6.2-15.4v-54.3q0-9.7-6.2-16.3t-15.9-6.7-15.8 6.7-6.7 16.3v54.3z m146.9 60.4q0 9.2 6.7 15.9 6.1 6.1 14.8 6.7t16.4-6.7l38.4-38.4q7.2-7.2 7.2-16.4 0-9.7-6.7-16.4t-16.3-6.6q-8.7 0-15.4 6.6l-38.4 38.9q-6.7 6.2-6.7 15.9z m21.5 314.4q0 10.2 6.7 16.4l17.4 16.9q9.7 6.6 16.9 6.6 8.2 0 14.9-6.6t6.6-16.4q0-9.2-7.2-15.4l-16.3-17.4q-7.2-6.6-16.4-6.6t-15.9 6.6-6.7 16.4z m38.4-168.4q0 9.2 7.2 15.8 6.7 7.2 16.4 7.2h54.3q9.2 0 15.8-6.7t6.7-16.3-6.7-16.4-16.3-6.7h-54.3q-9.7 0-16.4 6.7t-7.2 15.8z" /></svg>