<svg height="512" width="637.0" xmlns="http://www.w3.org/2000/svg"><path d="m-72.7 417.3q0 9.7 6.7 15.9t16.8 6.1h499.2q9.8 0 16.4-6.7t6.7-15.8q0-9.8-6.7-16.4t-16.4-6.7h-499.2q-10.2 0-16.8 6.7t-6.7 16.4z m70.1-83.5q0 9.2 6.7 15.4 6.7 7.2 15.9 7.2h499.2q9.2 0 15.8-6.7t6.2-16.4q0-9.2-6.2-15.9t-15.8-6.1h-499.2q-9.8 0-16.4 6.1t-6.7 15.9z m3.1-64q0 3.6 4.1 3.6h38.4q2.6 0 5.1-4.1 9.8-21 28.2-33.8t41.5-14.8l14.8-2.1q4.6 0 4.6-4.6l2.1-13.3q4.1-43 36.8-72.2t76.3-29.2q43 0 75.3 28.7t36.8 71.7l2.1 15.3q0 4.6 5.1 4.6h43q25.6 0 47.1 13.9t31.3 36.3q2.5 4.1 5.6 4.1h38.4q5.6 0 3.6-6.1l-5.7-14.9q30.8-37.9 30.8-88 0-28.2-11.3-54.3t-29.7-44.6-44.5-29.6-54.8-11.3q-62 0-101.9 44.5-33.8-16.9-71.7-16.9-55.8 0-99.8 35.4t-55.8 89.6q-71.2 18.9-95.3 89.1-0.5 1-0.5 2.5z m43.5 229.4q0 9.7 7.2 15.9 6.1 7.1 15.4 7.1h499.7q9.7 0 16.4-6.6t6.6-16.4-6.6-15.4-16.4-6.1h-499.7q-9.8 0-16.4 6.1t-6.7 15.4z m175.1-519.2q0 9.8 6.2 15.9l16.9 16.9q6.6 7.2 15.8 7.2t15.9-6.7 6.7-16.4-6.7-16.9l-16.9-16.4q-6.6-7.1-15.8-7.1-9.8 0-15.9 6.6t-6.2 16.4z m141.3 116.8q27.2-27.2 65.1-27.2 39.4 0 67 27.7t27.7 66.5q0 26.2-12.8 48.2-37.9-37.9-92.7-37.9h-8.7q-11.2-46.6-45-77.3z m43.1-139.8q0 9.2 6.1 15.9t15.9 6.6q10.2 0 16.9-6.6t6.6-15.9v-54.8q0-9.2-7.1-15.9t-16.4-6.6q-9.2 0-15.9 6.6t-6.1 15.9v54.8z m146.4 60.9q0 9.2 6.1 15.9 14.9 14.3 33.3 0l37.9-38.4q6.7-7.2 6.7-16.9 0-9.2-6.7-15.9t-15.9-6.6q-9.7 0-15.8 6.6l-39.5 39.4q-6.1 6.7-6.1 15.9z m21.5 314.4q0 9.7 6.6 15.9l17.5 17.4q6.6 6.6 15.3 6.6 8.2 0 16.4-6.6 6.7-7.2 6.7-16.9 0-9.2-6.7-14.9l-17.4-17.4q-7.2-6.6-15.9-6.6-9.7 0-15.9 6.6t-6.6 16.4z m39.4-168.5q0 9.8 7.2 15.9 6.1 6.7 15.9 6.7h54.2q9.2 0 15.9-6.7t6.7-16.4-6.7-15.8-15.9-6.7h-54.2q-9.8 0-16.4 6.7t-6.7 15.8z" /></svg>