<svg height="512" width="637.0" xmlns="http://www.w3.org/2000/svg"><path d="m0.5 308.2q0 53.3 36.4 90.6t90.1 40.5q4.6 0 4.6-4.6v-35.3q0-4.6-4.6-4.6-34.3-1.6-57.9-26.7t-23.5-59.4q0-33.8 22.5-58.3t55.8-27.7l13.8-2q4.1 0 4.1-3.6l2.1-14.9q5.1-44 36.8-72.7t75.8-28.6 76.3 28.6 36.9 71.7l1.5 15.4q1 4.6 5.6 4.6h43q35.4 0 61 25.6t25.6 61.4q0 34.8-23.6 59.4t-57.8 26.6q-5.2 0-5.2 4.6v35.4q0 4.6 5.2 4.6 53.2-1.6 89.6-40t36.3-91.1q0-27.1-10.2-53.7 31.2-38.4 31.2-89.1 0-28.2-11.3-54.3t-29.7-44.6-44.5-29.6-54.3-11.3q-61.4 0-102.9 46.6-35.8-17.4-73.2-17.4-56.3 0-99.8 34.8t-55.3 90.1q-45.1 10.2-73.3 46.1t-28.1 82.4z m142.9 187.4q0 6.7 4.1 13.3t12.2 9.2q9.3 2.6 16.9-1t10.8-14.8l3.6-16.4q2-9.2-2.6-16.9t-13.8-10.8q-9.2-2.5-17.4 2.1t-10.8 14.3l-3.6 15.9q-0.5 1.5-0.5 5.1z m20.4-77.3q0 8.7 6.7 15.4 6.1 6.6 15.4 6.6 9.7 0 15.8-6.6t6.7-15.9-6.7-15.9-15.8-6.6q-9.3 0-15.4 6.1t-6.1 15.9z m16.4-60.9q-0.5 6.1 3.6 12.3t12.8 8.7q8.2 2.5 16.9-2.1t11.3-13.8l7.6-24.1q3.1-9.7-2-17.4t-14.8-10.2q-8.8-2.6-16.9 1.5t-10.8 13.3l-6.7 24.6q-0.5 6.7-0.5 7.2z m30.7 221.2q0 6.6 4.1 13.3t12.8 8.7q3.6 1 6.7 1 17.4 0 21.5-16.4l3.6-15.9q2.5-10.2-2.1-17.9t-14.3-9.7q-8.7-2.6-16.4 2t-10.7 13.9l-3.6 15.8q-1 4.6-1 6.2z m14.9-598.6q0 9.8 6.6 15.9l17.5 16.9q5.6 6.1 14.3 6.7t16.9-6.7q6.6-6.7 6.6-15.9t-6.6-15.8l-16.9-17.5q-6.2-6.1-15.9-7.1-9.2 0-15.9 6.6t-6.6 16.4z m6.1 521.2q0 9.3 6.7 15.4t15.4 6.7q9.7 0 15.8-6.2t6.2-15.9q0-9.2-6.2-15.3t-15.8-6.2-15.9 6.2-6.2 15.3z m16.4-60.4q-0.5 6.2 3.6 12.8t12.3 8.2q9.2 2.6 16.9-1.5t11.3-14.9l7.1-24q2.6-8.7-2-16.9t-14.4-10.8q-8.7-2.5-16.9 2.1t-10.7 14.3l-6.2 24.1q-0.5 3.6-0.5 7.1z m73.7 57.4q0 6.6 4.1 12.8t12.3 8.7q1.1 0 3.6 0.5t3.6 0.5q16.4 0 20.5-17.4l3.6-15.9q2.5-8.7-2.1-16.9t-13.8-11.2q-9.7-2.6-17.9 2t-10.8 14.3l-2.5 15.9q0 0.5-0.6 3.1t-0.5 3.6z m20-78.9q0 9.2 6.7 15.4 6.1 6.6 15.3 6.6t15.9-6.1 6.1-15.4q0-9.7-6.1-15.8t-15.9-6.2-15.8 6.2-6.2 15.8z m16.4-61.9q0 6.6 4.6 12.8t13.3 8.7q1 0 3.1 0.5t3.6 0.5q4.1 0 9.7-2.6 8.2-4.1 10.8-13.8l6.6-24q2.6-9.3-2-16.9t-13.3-10.8q-9.3-2.6-16.9 1.5t-10.8 13.4l-7.7 24q0 1-0.5 3.1t-0.5 3.6z m9.7-259.1q26.7-26.6 65.6-26.6 39.4 0 67 27.1t27.7 66.1q0 26.6-14.4 50.1-39.4-39.4-93.1-39.4h-8.2q-11.3-44-44.6-77.3z m44.1-140.3q0 9.2 6.1 15.4t15.4 6.1q9.7 0 16.3-6.1t6.7-15.4v-55.3q0-9.2-6.7-15.9t-16.3-6.6q-9.3 0-15.4 6.6t-6.1 15.9v55.3z m146.9 60.4q0 10.3 6.1 15.9 14.4 14.3 32.3 0l38.4-38.4q6.7-6.7 6.7-16.9 0-9.7-6.7-16.4t-16.4-6.6q-9.2 0-16.4 6.6l-38.4 39.4q-6.1 5.7-6.1 15.9z m21 315.9q0 9.8 7.2 15.9l16.3 16.9q8.2 6.7 16.4 6.7t15.9-6.7q6.7-6.1 6.7-15.9 0-9.2-6.7-16.4l-17.4-16.3q-6.1-6.7-15.4-6.7t-15.8 6.7q-7.2 6.6-7.2 15.8z m39.4-169.4q0 9.7 7.2 15.8 7.2 7.2 16.4 7.2h54.2q9.3 0 15.9-6.7t6.2-16.3-6.2-16.4-15.9-6.7h-54.2q-9.8 0-16.4 6.7t-7.2 15.9z" /></svg>