<svg height="512" width="492.7" xmlns="http://www.w3.org/2000/svg"><path d="m-70.7 214q0 10.8 7.7 17.9t19.5 7.2h45q10.8 0 18.5-7.2t7.6-17.4q0-11.7-7.6-18.9t-18.5-7.7h-45q-11.8 0-19.5 7.2t-7.7 18.9z m47.1 164.9q0 38.9 28.2 67.1t67.1 28.6h182.8q38.9 0 66.5-28.1t27.7-67.6q0-20-5.1-32.8 33.2-21.5 52.7-56.8t19.4-75.8q0-32.8-12.8-61.9t-34.3-51.2-51.2-34.4-61.9-12.8q-43.5 0-80.9 21.6t-57.9 58.3-21 80.4v9.2q-39.9 23.1-52.7 66.6-30.2 9.7-48.6 33.8t-18.5 55.8z m42-377.9q0 11.3 7.2 17.9l43 45.1q19 14.3 37.4 0 7.7-7.7 7.7-18.9 0-10.8-7.7-19l-44-43.5q-8.8-7.7-18.5-7.7-11.2 0-17.9 7.7t-7.2 18.4z m11.3 377.9q0-16.9 10.7-28.7t27.2-13.3l16.4-2.1q5.1 0 5.1-6.1l2.5-14.8q2.6-23.1 19.5-38.4t39.4-15.4q23.6 0 40.5 15.4t19.9 38.4l2.6 17.4q2.6 6.1 6.7 6.1h34.8q17.4 0 30.2 12.3t12.8 29.7q0 17.9-12.8 30.7t-30.2 12.8h-182.8q-17.9 0-30.2-12.8t-12.3-30.7z m118.3-170.5q2.5-43.5 33.8-73.7t74.7-29.7q44.6 0 75.8 31.7t31.2 76.8q0 28.2-13.3 51.7t-36.9 38.4q-23.5-19.4-54.2-19.4-11.8-34.9-41-55.8t-66.5-21h-3.1z m82.4-233.5q0 10.8 7.7 18.4t18.4 7.7q11.3 0 18.4-7.7t7.7-18.4v-62.5q0-10.7-7.7-17.4t-18.4-7.1q-10.7 0-18.4 7.1t-7.7 17.4v62.5z m168.4 406q0 10.8 7.2 19l43.5 43q16.4 16.9 37.4 0 7.2-6.7 7.2-17.9 0-10.8-7.2-18l-44.5-44.5q-7.2-6.7-18.5-6.7t-17.9 7.2-7.2 17.9z m0-336.4q0 11.3 7.2 19.5 7.2 7.2 17.9 7.2 11.3 0 18.5-7.2l44.5-45.1q7.2-6.6 7.2-17.9 0-10.7-7.7-18.4t-18.4-7.7q-10.8 0-18.5 7.7l-43.5 43.5q-7.2 7.2-7.2 18.4z m69.2 169q0 10.8 7.6 17.9t19.5 7.2h44.5q10.8 0 18.5-7.2t7.7-17.4q0-11.8-7.7-18.9t-18.5-7.7h-44.5q-11.8 0-19.5 7.2t-7.6 18.9z" /></svg>