<svg height="512" width="637.0" xmlns="http://www.w3.org/2000/svg"><path d="m1 306.7q0 53.2 37.4 91.6t90.6 41q4.6 0 4.6-4.6v-35.9q0-4.6-4.6-4.6-34.3-1.5-58.3-27.1t-24.1-60.4q0-32.8 23-57.4t56.4-28.6l13.8-1.6q5.1 0 5.1-4.6l1.5-14.3q4.1-43.5 36.9-72.7t76.3-29.2q43.5 0 76.3 29.2t37.3 72.7l2.1 15.4q0 5.1 4.6 5.1h43q35.3 0 61.5 25.6t26.1 60.4q0 34.8-24.1 60.4t-58.4 27.1q-5.1 0-5.1 4.6v35.9q0 4.6 5.1 4.6 53.3-1.5 90.1-40.5t36.9-92.1q0-29.2-11.3-53.8 31.3-38.4 31.3-88 0-37.9-19-70.7t-51.2-51.2-70.1-18.9q-62 0-103.4 46.6-32.8-17.5-72.2-17.5-56.3 0-100.4 35.4t-56.3 89.6q-44 10.7-72.7 46.6t-28.7 81.9z m143.9 182.8q0 6.6 4.1 13.3t12.8 8.7q4.6 1 7.7 1 15.3 0 20.5-16.9l42.4-156.7q2.6-9.7-2-17.9t-14.3-10.2q-8.7-2.6-16.9 2t-10.8 13.3l-42.5 157.7q-1 4.1-1 5.7z m69.1 82.4q0 7.7 4.1 13.8t13.8 7.7q4.6 1 7.2 1 6.1 0 11.8-4.6t7.1-12.8l64-238.1q2.6-9.2-1.5-16.9t-13.3-10.7q-9.2-2.6-17.4 2t-10.8 13.4l-64 238q0 0.5-0.5 3.6t-0.5 4.1z m11.8-592.9q0 9.7 6.6 16.4l17.5 17.4q8.1 6.1 16.3 6.1 8.7 0 15.4-6.1t7.2-15.9q0-9.7-6.7-16.9l-16.9-17.4q-7.2-6.6-15.9-6.6-10.2 0-16.9 6.6t-6.6 16.4z m99.3 511.5q0 6.7 4.1 12.8t12.3 8.7q4.6 1 6.7 1 7.1 0 13.3-4.1t7.7-13.3l42.4-156.7q2.6-9.2-2-16.9t-13.3-10.7q-9.7-2.6-17.4 2t-10.3 13.4l-42.5 157.7q-1 4.6-1 6.6z m43.5-393.2q28.2-26.6 66.1-26.6 39.4 0 67.1 27.6t27.6 67.1q0 25.1-13.8 49.1-38.9-38.9-93.2-38.9h-8.7q-11.3-46.1-45.1-78.3z m43.6-140.3q0 9.2 6.6 15.9t16.4 6.6q9.2 0 15.9-6.1t6.6-15.9v-54.8q0-10.2-6.1-16.9t-15.9-6.6q-10.2 0-16.4 6.6t-6.1 16.9v54.8z m147.4 60.9q0 9.7 7.2 15.9 5.6 6.1 14.8 7.2t16.9-7.2l38.4-38.4q7.2-6.7 7.2-16.9 0-9.7-6.7-16.4t-16.3-6.6q-8.2 0-15.4 6.6l-38.4 38.4q-7.2 6.7-7.2 16.9z m22 315.9q0 9.8 6.7 16.9l16.9 16.9q7.2 5.6 15.9 5.6l1 0.6q9.2 0 15.3-6.7t6.7-16.4q0-9.7-7.2-15.3l-16.4-17.4q-7.1-6.7-16.3-6.7t-15.9 6.7-6.7 16.3z m38.9-168.9q0 9.7 6.7 15.8 7.2 7.2 16.9 7.2h54.3q9.2 0 15.8-6.7t6.7-16.3-6.7-16.4-15.8-6.7h-54.3q-9.7 0-16.4 6.7t-7.2 16.4z" /></svg>