<svg height="512" width="542.8" xmlns="http://www.w3.org/2000/svg"><path d="m-73.7 417.3q0-9.7 6.6-16.4t16.9-6.7h497.7q10.2 0 16.4 6.7t6.1 16.4q0 9.2-6.6 15.3t-16.4 6.2h-497.7q-10.2 0-16.9-6.2t-6.6-15.3z m69.6-84q0-9.7 7.2-15.9 6.1-6.1 15.8-6.1h498.2q9.2 0 15.4 6.1t6.1 15.9-6.1 16.4-15.4 6.7h-498.2q-9.7 0-16.3-6.7t-6.7-15.9z m3.6-63.5q0 3.6 4.1 3.6h38.4q2.5 0 5.6-4.1 9.7-21 28.2-33.8t41.4-14.8l14.4-2.1q4.6 0 4.6-4.6l1.5-13.3q4.1-43.5 36.9-72.2t75.8-28.7q43 0 75.2 28.7t36.9 71.7l2 15.4q0 4.6 5.2 4.6h42.5q25.6 0 47.1 13.8t31.2 36.3q2.6 4.1 5.6 4.1h38.4q4.6 0 3.6-6.1-11.8-41-46.6-67.1t-79.3-26.1h-8.7q-13.4-53.2-55.9-87t-97.2-33.8q-55.8 0-99.4 35.3t-55.8 89.6q-33.8 8.2-59.9 32.3t-35.8 57.8v-1q-0.5 0.5-0.5 2.5z m43 228.9q0-9.7 7.2-15.9 6.1-6.1 15.8-6.1h498.2q9.7 0 16.4 6.1t6.7 15.4q0 9.7-6.7 16.4t-15.9 6.6h-498.2q-9.2 0-16.3-6.6t-6.7-16.4z" /></svg>