<svg height="512" width="552.8" xmlns="http://www.w3.org/2000/svg"><path d="m0.5 306.7q0 53.2 37.4 91.6t90.6 41q4.6 0 4.6-4.6v-35.9q0-4.6-4.6-4.6-34.3-1.5-58.4-27.1t-24-60.4q0-32.8 22.5-57.4t55.8-28.6l14.4-1.1q5.1 0 5.1-5.1l1.5-14.3q4.1-43.5 36.4-72.2t75.7-29.2q43.6 0 76.3 29.2t37.4 72.2l2 15.4q0 4.6 4.7 4.6h43q35.3 0 61.4 25.6t26.1 60.4q0 34.8-24 60.4t-58.4 27.1q-5.1 0-5.1 4.6v35.9q0 4.6 5.1 4.6 26.1-0.5 49.6-11.8t40.5-28.7 27.1-41.9 10.3-50.2q0-35.9-17.9-66.1t-48.7-47.6-66-17.4h-8.7q-12.8-53.8-56.4-87.5t-98.3-34.4q-56.3 0-99.8 34.9t-55.8 89.6q-44 10.2-72.7 46t-28.7 82z m145.4 192q3.6 8.7 12.3 12.3 8.2 4.1 16.9 0.5t11.8-11.8q4.1-8.7 0.5-17.4t-11.8-11.8q-8.2-4.1-16.4-0.5t-12.8 12.3q-3.6 6.7-0.5 16.4z m16.9-75.3q0 6.2 4.1 12.3t12.3 8.7q7.7 4.6 16.4 0.5t11.8-15.8l24-90.2q2.6-10.2-2-17.9t-14.4-9.7q-3-0.5-6.6-0.5-6.2 0-12.3 4.1t-8.7 11.8l-23.6 90.6q-1 5.6-1 7.1z m49.7 149q0 4.6 1.5 7.7 3.6 8.7 11.8 11.8 3.6 2 8.7 2 2.6 0 8.2-1.5 9.2-3.1 12.8-11.8t0-17.4-11.8-12.3-16.9 0q-7.7 3.1-10.7 9.7t-3.6 12.3z m19.4-69.6q0 14.8 16.9 19.4 4.6 1.1 6.7 1.1 6.1 0 10.2-2.1 8.2-3.1 10.8-15.3l44.5-168q2.6-9.7-1.5-17.4t-13.3-10.2q-3.6-0.5-7.2-0.5-6.6 0-13.3 4.1t-7.7 11.7l-45.6 169q-1 5.6-1 8.2z m91.7-12.3q0 4.6 2 8.7 3.1 7.7 11.8 11.8 4.6 2 9.2 2 2.6 0 8.2-1.5 8.7-3.1 12.3-11.8 3.1-8.7 0-16.9t-11.3-12.3q-9.2-4.1-17.4-0.5t-12.3 12.3q-2 3.6-2 8.2z m18.9-68.6q0 5.6 4.1 11.8t12.3 8.7q6.2 1.5 7.2 1.5 3.6 0 9.7-2.6 8.2-3.5 10.8-13.8l24-89.1q0-0.5 0.5-3t0.5-3.6q0-6.2-4-12.3t-12.3-8.2q-3.6-0.5-7.2-0.5-6.7 0-12.3 4.1t-8.2 11.8l-24 89.6q0 1-0.6 3t-0.5 3.6z" /></svg>