<svg height="512" width="571.2" xmlns="http://www.w3.org/2000/svg"><path d="m1 306.7q0 35.8 17.4 66t47.6 48.2 66.1 17.9h288.3q35.8 0 66-17.9t48.1-48.2 17.9-66q0-26.1-11.2-53.3 30.2-36.8 30.2-88 0-37.9-18.4-70.2t-50.7-50.7-70.2-18.9q-59.9 0-103.4 46.6-30.7-17.4-71.7-17.4-56.3 0-99.3 34.8t-55.3 89.1q-44.5 10.2-73.2 45.6t-28.2 81.9z m45.6 0q0-33.3 22.5-57.4t55.8-28.1l18.5-1 1.5-19.5q5.6-43.5 37.9-72.2t75.2-29.2q28.7 0 53.8 13.3t40.5 36.9 18.4 51.7l2.5 20h47.7q35.3 0 60.9 25.6t25.6 60.4q0 35.8-25.6 62t-60.9 25.6h-288.3q-34.8 0-60.4-26.2t-25.6-61.4z m321-208.9q27.7-26.6 65-26.6 39.5 0 67.1 27.1t27.7 67.1q0 25.1-13.4 49.1-38.4-38.4-93.1-38.4h-8.2q-11.3-45-44.6-78.3z" /></svg>