<svg height="512" width="574.3" xmlns="http://www.w3.org/2000/svg"><path d="m-1 306.7q0 53.2 37.4 91.6t90.6 41q5.1 0 5.1-4.6v-35.9q0-4.6-5.1-4.6-34.3-2-58.4-27.6t-24.1-60.4q0-33.3 23.1-57.9t56.3-28.7l13.8-1q5.1 0 5.1-4.6l2.1-14.3q4.1-43 36.9-72.7t76.2-29.2q43.6 0 76.3 29.2t37.4 72.7l2.1 15.3q0 5.2 4.6 5.2h43q36.3 0 61.9 25.6t25.6 60.9q0 34.8-24 60.4t-58.4 27.7q-5.1 0-5.1 4.6v35.8q0 4.6 5.1 4.6 53.2-1.5 90.6-40.4t37.4-92.2q0-28.7-11.8-53.8 31.8-38.4 31.8-88.5 0-37.9-19-70.7t-51.2-51.2-70.1-18.9q-62 0-104 46-32.2-17.4-72.2-17.4-56.3 0-100.3 35.4t-56.3 89.6q-44.1 10.7-73.2 46.6t-28.7 81.9z m170.5 109.6q0 8.7 6.6 15.3t15.4 6.7q9.2 0 15.9-6.2t6.1-15.8-6.1-15.9-15.9-6.2-15.9 6.2-6.1 15.9z m0 96.7q0 9.8 6.6 15.4 6.7 6.6 15.4 6.6 9.7 0 15.9-6.1t6.1-15.9-6.1-16.4-15.9-6.6-15.9 6.6-6.1 16.4z m85-46.1q0 9.3 6.6 16.4t15.4 7.2q9.2 0 16.4-7.2t7.1-16.4q0-8.7-7.1-15.3t-16.4-6.7q-8.7 0-15.4 6.7t-6.6 15.3z m0-95.7q0 9.2 6.6 15.4t15.9 6.6q9.7 0 16.4-6.6t6.6-15.9-6.6-15.9-16.4-6.6q-9.2 0-15.9 6.6t-6.6 15.9z m0 193.5q0 9.3 6.6 15.9t15.9 6.7q9.7 0 16.4-6.7t6.6-15.9q0-8.7-7.1-15.3t-16.4-6.7q-8.7 0-15.4 6.7t-6.6 15.3z m86-148.4q0 8.1 6.6 15.3 6.7 6.7 15.9 6.7t15.9-6.2 6.1-15.8-6.1-15.9-15.9-6.2-16.4 6.2-6.6 15.9z m0 96.7q0 8.7 6.6 15.4t15.9 6.6 15.9-6.1 6.1-15.9-6.1-16.4-15.9-6.6-15.9 6.6-6.6 15.9z m26.1-416.7q27.1-27.2 66.6-27.2t66.5 27.7 27.7 67q0 23.6-13.4 49.2-38.4-38.4-93.6-38.4h-8.2q-11.8-46.6-45.1-78.3z" /></svg>