<svg height="512" width="637.0" xmlns="http://www.w3.org/2000/svg"><path d="m-2.6 416.3q0 9.7 7.2 15.8 6.7 6.7 16.4 6.7h153.1q10.7 0 18.4 7.7t7.7 17.9q0 10.7-7.7 18.4t-18.4 7.7q-10.3 0-18.5-8.2-7.1-6.7-16.3-6.7-9.8 0-16.4 6.7t-6.7 15.9q0 8.7 6.7 15.8 21 21 50.7 21t50.1-21 21-50.6q0-29.7-21-50.7t-50.1-21h-153.1q-9.7 0-16.4 6.6t-6.7 16.4z m0-80.4q0 9.2 7.2 15.3t16.4 6.7h289.8q29.7 0 50.2-21t21-50.2-21-50.2-50.2-20.4q-30.7 0-50.7 20.4-6.1 6.2-6.1 16.4t6.1 15.9 15.9 6.1 16.4-6.1q7.6-7.7 18.4-7.7 10.2 0 17.9 7.7t7.7 18.4q0 10.8-7.7 18.5t-17.9 7.6h-289.8q-9.7 0-16.4 7.2t-6.6 16.4z m67.1-63q0 3.6 4.1 3.6h38.4q3.1 0 5.6-4.1 9.3-22 28.2-35.9t42-15.8l13.8-2.1q5.1 0 5.1-4.6l2.1-13.8q4.1-43.5 36.8-72.2t76.3-29.2 76.3 29.2 36.9 72.7l2 15.4q0 4.6 4.6 4.6h43.6q36.3 0 61.9 25.1t25.6 60.9-25.6 60.9-61.4 25.6h-184.4q-4.6 0-4.6 4.6v36.4q0 4.6 4.6 4.6h184.4q35.8 0 66-17.9t48.1-48.2 18-66q0-35.3-18.5-66.1 29.2-28.1 40.5-68.6l4.1-17.9q0.5-0.5 0.5-2 0-2.1-3.6-4.1l-15.9-5.7q-22.5-7.1-38.9-22.5t-23-32.8-6.7-34.8q0-10.7 2.1-21l3.6-16.4q1-3.5-3.6-6.1l-21-6.7q-17.4-4-33.3-4-14.8 0-30.2 3.5t-31.8 10.8-31.7 21.5-26.6 32.8q-28.2-12.3-62-12.3-56.3 0-99.8 34.8t-54.8 89.1q-34.3 8.2-60.4 32.7t-36.4 58.9v1q-0.5 1.1-0.5 2.1z m352.8-183.8q12.3-22 34.3-33.8t45.6-11.8q5.6 0 8.1 0.5-0.5 3.6-0.5 9.8 0 37.8 21 72.2t57.9 51.7q-6.2 14.8-20 27.6-35.3-30.7-84.5-30.7h-8.7q-10.7-50.2-53.7-85.5z" /></svg>