<svg height="512" width="571.2" xmlns="http://www.w3.org/2000/svg"><path d="m-1.5 307.7q0 26.1 10.2 50.2t27.1 41.5 40.5 28.1 49.7 11.8q4.6 0 4.6-4.6v-35.9q0-4.6-4.6-4.6-34.9-2.5-58.4-27.6t-23.6-59.4q0-33.3 22.6-58.4t55.8-27.6l13.8-1.6q5.1 0 5.1-4.6l2.1-13.8q2.5-28.7 18.4-51.7t40.4-36.3 53.8-13.4q43.5 0 75.8 28.7t37.4 71.7l1.5 15.4q0 4.6 5.1 4.6h43q35.9 0 62 25.6t25.6 60.9q0 34.3-23.6 59.4t-58.4 27.6q-5.1 0-5.1 4.6v35.9q0 4.6 5.1 4.6 53.8-2.6 90.2-40.5t36.8-91.1q0-25.6-12.3-54.8 31.8-39.9 31.8-87 0-37.9-19-70.2t-51.2-51.2-70.1-18.9q-63.5 0-102.9 46.1-32.8-16.9-71.2-16.9-56.3 0-99.8 35.3t-55.8 90.1q-44.6 10.3-73.3 46.1t-28.1 81.9z m203.7 123.4q-1 5.6 3.6 5.6h57.9l-35.3 111.1h7.6l111.6-149q1.6-1.5 1.1-3.5t-3.6-2.1h-58.4l61.5-113.1q3-5.7-3.6-5.7h-78.4q-3 0-5.6 3.6z m161.8-333.3q26.7-26.6 66.1-26.6t66.5 27.6 27.2 67.1q0 23.5-13.8 48.1-39-37.4-92.2-37.4h-8.2q-11.8-47.6-46.1-78.8z" /></svg>