<svg height="512" width="582.8" xmlns="http://www.w3.org/2000/svg"><path d="m0.5 306.7q0 44.5 26.6 79.3t68.6 47.7l-17.4 45q-1.5 5.7 3.6 5.7h56.3l-34.3 111.6h7.7l112.7-150q1.5-1.6 0.5-3.6t-3.6-2.1h-57.9l66.1-123.9q2.5-5.6-3.6-5.6h-78.9q-3.5 0-6.1 4.1l-28.7 76.8q-28.6-7.2-47.6-31.3t-18.9-53.7q0-33.3 22.5-57.9t56.3-28.6l13.8-2.1q5.2 0 5.2-4.6l2-13.3q4.1-43 36.9-72.7t76.3-29.2q43.5 0 76.2 29.2t37.4 72.2l2.1 15.3q0 5.2 4.6 5.2h43q36.3 0 61.9 25.6t25.6 60.9q0 33.8-24 58.9t-58.9 27.6q-5.1 0-5.1 5.1v36.4q0 4.6 5.1 4.6 53.2-1.5 90.6-40.5t37.4-92.1q0-34.8-17.4-65 31.2-29.7 40.4-70.2l4.6-18.4q0.6-0.5 0.6-1.5 0-3.1-4.1-4.1l-16.4-4.7q-23.1-6.6-38.9-22.5t-22.6-32.7-6.1-33.8q0-11.3 2.6-23.1l3-16.4q1-4.1-3.6-6.1l-21.5-6.7q-18.9-3.5-33.2-3.5-14.9-0.6-30.3 3t-31.7 10.8-31.2 21-26.7 32.2q-33.7-12.3-63.4-12.3-56.4 0-100.4 35.4t-56.3 89.6q-44 10.7-73.2 46.6t-28.7 81.9z m218.1 263.2q0 6.1 4.1 12.2t12.3 8.7q6.2 1.6 7.2 1.6 3.6 0 9.7-2.6 8.2-4.1 11.3-13.8l7.6-28.2q2.6-8.7-2-16.9t-14.3-10.7q-8.7-2.6-16.9 2t-10.8 14.4l-7.2 26.6q0 1-0.5 3.1t-0.5 3.6z m35.9-127q0 17.4 16.3 19.9 5.7 1.6 7.2 1.6 14.9 0 20.5-16.9l8.2-27.1q2.5-8.8-2.1-16.9t-14.3-10.8q-9.2-2.6-16.9 2.1t-10.7 14.3l-6.7 27.1q-1 3.6-1 7.7z m74.7 44.5q0.5 6.7 4.6 12.8t12.8 9.2q6.7 1.6 9.2 1.6 13.4 0 19-17.9l6.6-27.2q2.6-9.2-1.5-17.4t-13.3-11.3q-10.2-2.5-17.9 2.1t-9.8 14.3l-7.6 27.7q0 1-0.5 3.1t-0.6 3z m31.8-397.3q13.3-22.5 35.8-34.3t47.1-12.3h5.6v8.7q0 25.6 9.3 49.7t27.1 44.5 43 32.3q-6.7 14.8-20.5 27.6-36.3-31.2-86-31.2h-8.7q-11.3-50.2-53.3-84.5z m5.1 269.3q0 17.4 17.4 22 5.6 1.1 8.2 1.1 14.3 0 19.9-17.4l7.7-27.7q0.5-2 0.5-5.6 0.6-6.7-3.5-13.3t-12.8-8.7q-0.6 0-2.6-0.6t-3.6-0.5q-6.6 0-12.8 4.1t-8.7 12.8l-7.7 27.2q0 0.5-0.5 2.5t-0.5 3.6z" /></svg>