<svg height="512" width="582.8" xmlns="http://www.w3.org/2000/svg"><path d="m0.5 306.7q0 53.2 37.4 91.6t90.6 41q5.1 0 5.1-4.6v-35.3q0-4.6-5.1-4.6-34.3-1.6-58.4-27.2t-24-60.4q0-33.3 22.5-57.9t55.8-28.6l13.8-1.1q5.2 0 5.2-4.6l2-14.3q4.1-43 36.9-72.2t76.3-29.2q43.5 0 76.2 29.2t37.4 72.2l1.6 15.4q0 5.1 4.6 5.1h43q35.3 0 61.4 25.6t26.1 60.4q0 34.8-24 60.4t-58.4 27.2q-5.1 0-5.1 4.6v35.3q0 4.6 5.1 4.6 34.8-1 64.5-19.5t46.1-48.1 16.9-65q0-34.8-18.4-65 31.7-30.2 41.4-68.6l3.6-19.5q0.5-0.5 0.5-1.5 0-3.1-4.1-4.1l-15.3-4.6q-23.1-6.7-38.9-22.1t-23.1-32.2-6.6-34.3q0-11.8 3-23.1l3.6-16.3q1-4.1-3.6-6.2l-21.5-6.6q-17.9-4.1-33.8-4.1-14.3 0-29.7 3.5t-31.7 10.8-31.8 21-26.6 32.2q-32.7-12.2-62.4-12.2-56.4 0-100.4 35.3t-56.3 89.6q-44 10.7-72.7 46.6t-28.7 81.9z m158.2 23.5q0 15.4 11.3 26.2t27.1 10.7 26.6-10.7 10.8-26.2q0-10.2-9.2-27.1t-17.4-26.1q-6.2-7.2-10.8-11.3l-9.7 11.3q-10.8 11.8-20 27.6t-9.2 26.7z m79.9 106.5q0 26.1 18.4 44.1t44.1 17.9q26.1 0 44.5-18.4t18.4-44.1q0-22-21.5-53.2-17.9-23.1-34.3-40-3-2-7.1-6.1l-6.2 6.1q-15.9 14.4-33.8 39.5-9.7 13.3-15.9 27.6t-6.1 25.6z m39.4-177.6q0 10.2 7.7 17.4t18.4 7.1q10.3 0 17.4-7.1t7.2-17.4q0-16.9-24.6-43.5l-6.6 7.1q-7.7 8.2-13.9 18.5t-6.1 17.4z m81.9-168.5q13.9-23 35.9-34.3t45.5-11.8q4.7 0 7.2 0.6v8.1q0 38.4 21 72.8t58.4 52.7q-6.2 14.8-20 27.6-36.9-30.7-86-30.7h-8.7q-12.3-52.7-53.8-85z" /></svg>