<svg height="512" width="582.8" xmlns="http://www.w3.org/2000/svg"><path d="m-0.5 307.2q0 53.2 37.4 91.6t90.6 41q4.6 0 4.6-4.6v-36.4q0-4.6-4.6-4.6-34.8-2.5-58.4-27.6t-23.5-58.9q0-32.8 22.5-57.3t55.8-28.7l13.8-2.1q5.1 0 5.1-4.6l2.1-13.8q4.1-43.5 36.9-72.2t76.2-29.2q43.6 0 76.3 29.2t36.9 72.7l2 15.4q0 4.6 4.7 4.6h43q35.8 0 61.9 25.1t25.6 60.9q0 33.8-23.5 58.9t-58.4 27.6q-5.1 0-5.1 4.6v36.4q0 4.6 5.1 4.6 53.2-1.5 90.1-40.4t36.9-92.2q0-34.8-17.4-65 32.7-29.2 42.5-69.7v-3.5l5.1-21-20.5-5.7q-32.3-9.7-50.7-36.3t-17.9-54.3q0-10.7 2-21l5.2-21.5-22.6-6.6-3.6-1.1q-18.9-3.5-32.7-3.5-14.9 0-30.7 3.5t-32.3 11.3-32.3 21.5-26.6 32.8q-29.7-12.8-63-12.8-56.3 0-99.8 34.8t-55.3 89.6q-45 10.2-73.7 46.1t-28.7 81.9z m143.9 180.7q0 6.2 4.1 11.8t11.7 8.7q8.7 3.1 16.9-1.5t11.3-13.8l7.7-28.2q2.5-8.2-2.1-16.4t-13.8-11.3q-9.2-2.5-17.4 2.1t-11.3 14.3l-6.6 26.7q-1.1 5.1-1.1 7.1z m34.3-126.4q0 5.1 2.5 9.7 3.1 6.7 14.4 10.2 9.7 2.6 17.4-1.5t10.7-13.8l7.2-27.7q2.5-9.2-1.5-17.4t-13.4-10.2q-9.7-2.6-17.9 2t-10.7 13.9l-7.2 27.1q-1.5 5.6-1.5 8.2z m33.8 209.4q0 6.6 4.1 13.3t12.2 8.7q4.6 1.5 6.2 1.5 3.6 0 10.2-2.5 8.2-3.1 11.3-14.9l8.2-28.1q2.5-8.7-2.1-16.9t-13.8-11.3q-9.7-2.6-17.9 2.1t-10.8 14.3l-6.6 27.1q-0.5 3.1-0.5 6.7z m35.3-127.5q0 6.1 4.1 11.8t12.3 8.7q9.2 2.5 16.9-1.6t10.7-13.8l7.2-27.6q2.5-8.7-1.6-16.9t-13.3-10.8q-9.7-2.5-17.9 2.1t-11.2 14.3l-6.7 26.6q0 1-0.5 2.1t-0.5 2.5 0 2.1z m74.7 47.1q0 15.4 16.9 20 3.1 0.5 6.7 0.5 6.1 0 9.7-1.6 8.2-3 11.8-15.3l7.7-27.2q2.5-10.2-2.1-17.9t-14.3-9.7q-9.2-2.6-16.9 2t-10.8 13.9l-7.6 27.6q0 1-0.6 2.6t-0.5 3 0 2.6z m36.9-128.5q0 6.1 4.1 12.3t12.3 8.7q5.6 1 6.1 1 3.6 0 10.3-2.6 8.2-3 11.7-14.8l7.2-27.7q2.6-8.7-2-16.9t-13.9-10.7q-8.7-2.6-16.9 2t-10.7 13.9l-6.7 28.1q-1 5.7-1 6.7z m1-270.9q12.8-22.5 35.4-34.8t48.6-12.3h5.6q-0.5 7.2-0.5 10.3 0 37.9 21 72.2t57.9 52.2q-8.7 16.9-21 29.2-37.4-32.3-86.6-32.3h-8.7q-10.2-47.1-51.7-84z" /></svg>