<svg height="512" width="574.3" xmlns="http://www.w3.org/2000/svg"><path d="m-0.5 306.7q0 53.2 37.4 91.6t91.1 41q4.6 0 4.6-4.6v-36.4q0-5.1-4.6-5.1-34.8-2.5-58.9-27.6t-24-58.9q0-33.8 22.5-58.9t56.3-27.6l13.8-1.6q5.1 0 5.1-5.1l1.6-13.3q4.1-43.5 36.8-72.7t76.3-29.2q44.1 0 76.3 29.2t37.4 72.7l1.5 15.4q0 4.6 5.2 4.6h43q36.3 0 61.9 25.6t25.6 60.9q0 33.8-23.5 58.9t-58.4 27.6q-5.6 0-5.6 5.1v36.4q0 4.6 5.6 4.6 53.2-1.5 90.6-40.5t37.4-92.1q0-29.7-11.8-53.8 31.8-38.4 31.8-89.6 0-37.9-19-70.1t-51.2-51.2-70.1-19q-61 0-105 46.6-33.3-16.9-71.2-16.9-56.3 0-100.3 34.9t-56.3 89.6q-44.6 10.7-73.2 46.5t-28.7 82z m158.2 23.5q0 14.9 11.3 26.2t27.1 11.2 26.6-10.7 10.8-26.1q0-10.3-9.2-27.2t-17.5-26.6q-1-1-5.1-5.6t-5.6-6.7l-9.7 10.8q-10.8 11.7-20 28.1t-9.2 27.2z m79.9 106.5q0 25.1 18.4 43.6t44 18.4q25.6 0 44.6-18.4t18.4-43.6q0-10.7-6.1-25.6t-14.9-27.6q-18.4-23.6-34.3-39.9-2-1.6-7.2-6.7l-15.3 15.4q-17.9 16.9-32.3 41.4t-14.3 42.5z m39.4-178.7q0 10.8 7.7 18t18.9 7.1q10.3 0 17.4-7.1t7.2-18q0-16.3-24.6-43l-6.6 7.2q-7.7 8.2-13.9 18.4t-6.1 17.4z m90.6-160.7q26.6-26.6 66.1-26.6 38.9 0 66.5 27.1t27.7 66q0 25.1-13.3 49.2-40-38.4-93.7-38.4h-8.2q-11.3-47.1-45.1-77.8z" /></svg>