<svg height="512" width="582.8" xmlns="http://www.w3.org/2000/svg"><path d="m-0.5 307.7q0 44.6 26.6 80.4t68.6 47.1q3.6 1 6.7-2l30.2-37.4q-34.8 0-60.4-26.1t-25.6-62q0-33.3 22.5-57.8t56.3-27.2l13.3-1.5q5.1 0 5.1-5.1l2.1-14.4q5.1-43.5 37.4-72.7t76.3-29.2q43.5 0 76.2 29.2t37.4 72.7l1.6 15.4q0 4.6 4.6 4.6h43q35.3 0 60.9 25.6t25.6 60.9q0 33.8-22.5 59.4t-55.3 27.7q-17.9 2-23.1 7.6l-62.4 77.4q-6.2 6.6-4.6 16.9 1 9.7 8.2 15.8t15.3 6.2q9.2 0 16.9-10.3l54.3-69.1q24.6-2.6 47.1-13.8t37.9-28.7 25.1-40.4 9.2-48.2q0-34.8-18.4-65 32.7-29.7 42.4-70.1v-2.6l5.2-20.5-20.5-7.1q-23.1-6.7-38.9-22.1t-23.1-32.7-7.1-34.8q0-10.3 2-21.5l5.1-21-22.5-6.2q-0.5-0.5-1-0.5t-1-0.5-1.1-0.5-1-0.5q-17.4-4.1-33.3-4.1-15.3 0.5-30.7 3.6t-32.2 11.2-32.3 21.5-26.6 32.8q-30.2-12.8-62.5-12.8-56.3 0-100.3 34.8t-56.4 89.6q-45 11.3-73.7 46.6t-28.1 81.9z m98.8 213q0 5.1 1.5 8.2 3.6 8.7 11.8 12.3 8.7 4.1 17.9 1t12.3-11.8q4.1-8.7 0.5-17.9t-12.3-12.3q-8.7-4.1-17.4-0.5t-12.2 12.3q-1.6 3.6-1.6 9.2z m49.2-65v3.1q0.5 9.2 8.7 14.8 5.1 6.1 14.3 5.6t17.4-8.7l62-77.8q5.6-7.2 4.6-16.9t-8.2-15.4-16.9-4.6-15.4 9.3l-61.9 76.2q-5.2 5.7-5.2 14.4z m14.8 138.7q3.6 8.7 12.3 12.3 4.1 2.1 8.7 2.1 2.6 0 8.2-1.6 8.7-3.6 11.8-11.7 3-8.7 0.5-17.5t-11.8-12.8q-8.7-3-16.9 0t-12.3 11.8q-4.6 7.7-0.5 17.4z m43-71.1v2q1 9.2 8.2 15.4t14.9 6.1q8.7 0 15.8-9.2l115.2-142.8q5.7-6.7 5.1-16.4t-7.6-15.4q-8.2-5.6-18-5.1t-15.3 7.7l-114.2 142.8q-5.1 6.2-5.1 13.8z m93.2 29.7q0 4.6 2 8.7 3.1 9.2 12.8 12.3 9.3 3.5 16.4 0.5 8.7-3.6 12.3-12.3 4.1-8.7 0.5-16.9t-11.7-12.3q-8.8-3.1-17.5 0t-12.8 11.3q-2 4.6-2 8.7z m61.4-461.9q12.3-23 34.9-35.3t47.1-11.8q4.6 0 7.1 0.5v8.2q0 38.9 21.5 73.3t58.4 52.2q-10.2 18.9-21 29.7-35.3-31.8-86-31.8h-8.7q-12.3-51.7-52.8-85.5z" /></svg>