<svg height="512" width="582.8" xmlns="http://www.w3.org/2000/svg"><path d="m-0.5 307.2q0 53.2 37.4 91.6t90.6 41q4.6 0 4.6-4.6v-36.4q0-4.6-4.6-4.6-34.8-2.5-58.4-27.6t-23.5-58.9q0-33.3 22.5-58.4t55.8-27.6l13.8-2.1q5.1 0 5.1-4.6l2.1-13.8q4.1-43.5 36.9-72.2t76.2-29.2q43.6 0 76.3 29.2t36.9 72.7l2 15.4q0 4.6 4.7 4.6h43q36.3 0 61.9 25.1t25.6 60.9q0 33.8-23.5 58.9t-58.4 27.6q-5.1 0-5.1 4.6v36.4q0 4.6 5.1 4.6 53.2-1.5 90.1-40.4t36.9-92.2q0-35.8-18.5-66 32.3-29.2 41.5-68.7l4.1-19.4q0.5-0.5 0.5-1.5 0-3.1-4.1-4.1l-15.3-4.7q-23.1-6.6-38.9-22t-23.1-32.7-6.6-35.4q0-9.7 2.5-21l3.6-16.3q1-3.6-3.6-6.2l-21-6.6q-17.4-4.1-33.3-4.1-14.3 0-29.7 3.5t-31.7 10.8-32.3 21.5-26.6 32.8q-28.1-12.3-62.4-12.3-56.4 0-100.4 34.8t-56.3 89.6q-44 10.8-72.7 46.6t-28.7 81.9z m204.3 123.9q-2.1 5.6 3.6 5.6h57.3l-34.8 110.6h8.2l111.1-149q1.5-1.5 0.5-3.5t-3.6-2.1h-58.4l61.5-112.1q2.5-5.7-3.6-5.7h-78.3q-3.1 0-5.7 3.6z m154.6-340q13.3-22.5 35.3-34.8t46.1-12.3q5.1 0 7.2 0.5v8.2q0 38.4 21 72.7t57.8 52.3q-6.1 14.8-19.9 28.6-36.9-31.7-86.1-31.7h-8.7q-11.2-49.7-53.2-84z" /></svg>