<svg height="512" width="637.0" xmlns="http://www.w3.org/2000/svg"><path d="m-33.3 415.7q0 10.3 7.2 15.9 6.6 7.2 16.4 7.2h254.4q9.3 0 15.9-6.7t6.7-16.4-6.7-16.3-15.9-6.7h-254.4q-9.8 0-16.4 6.7t-7.2 16.3z m70.7-80.9q0 9.3 7.1 15.4 6.7 6.7 15.9 6.7h255q9.7 0 15.9-6.2t6.1-15.9-6.6-16.3-15.9-6.7h-255q-9.7 0-16.4 6.7t-6.6 16.3z m30.7-62.4q0 3.1 5.1 3.1h37.9q3.6 0 6.1-3.6 9.3-21.5 28.2-35.9t42.5-15.8l14.3-2.1q4.6 0 4.6-4.6l2.1-13.3q4.1-43 36.9-72.7t76.8-29.2 76.2 29.2 36.9 72.7l2.1 15.4q0 5.1 4.6 5.1h43q36.3 0 61.9 25.1t25.6 60.9q0 35.3-25.6 60.9t-61.9 25.6h-184.3q-4.7 0-4.7 4.6v36.9q0 4.6 4.7 4.6h184.3q36.3 0 67-17.9t48.7-48.2 17.9-66.5q0-28.2-11.8-53.8 31.3-40.4 31.3-87.5 0-37.9-19-70.7t-51.2-51.2-70.6-18.9q-61 0-102.4 44.5-33.8-16.4-72.2-16.4-56.9 0-100.4 34.9t-55.3 89.6q-34.8 8.1-60.9 32.2t-36.4 57.9z m16.4 225.3q0 9.2 7.1 15.3 6.7 6.7 15.9 6.7h255q9.7 0 16.4-6.2t6.6-15.8-6.6-16.4-15.9-6.7h-255q-9.7 0-16.4 6.7t-6.6 16.4z m346.6-402q27.1-26.1 65.5-26.1 39.5 0 67.6 27.7t28.2 67.1q0 25-13.3 47.1-39.5-38.4-93.7-38.4h-8.7q-9.8-43.6-45.6-77.9z" /></svg>