<svg height="512" width="582.8" xmlns="http://www.w3.org/2000/svg"><path d="m-0.5 307.2q0 53.2 37.4 91.6t90.6 41q4.6 0 4.6-4.6v-35.8q0-4.6-4.6-4.6-34.3-1.6-58.4-27.2t-24-60.4q0-33.3 22.5-57.9t55.8-28.6l13.8-1.1q5.1 0 5.1-4.6l2.1-14.3q4.1-43.5 36.8-72.7t76.3-29.2q43.6 0 75.8 29.2t37.4 72.7l2 15.4q0 4.6 4.6 4.6h43.1q35.3 0 61.4 25.6t26.1 60.4q0 34.8-24.1 60.4t-58.3 27.1q-5.1 0-5.1 4.6v35.9q0 4.6 5.1 4.6 53.2-1.5 90.1-40.5t36.8-92.1q0-34.3-16.8-64.5 31.2-29.2 40.9-69.7l3.6-18.4q1-0.5 1-1.5 0-3.1-4.6-4.1l-14.8-4.6q-23.1-6.7-38.9-22.6t-23.1-33.2-6.6-35.4q-0.6-9.7 2-21l3.6-15.3q1-3.6-3.6-5.6l-21.5-6.7q-16.9-5.1-34.8-5.1-13.8 0-29.2 3.6t-31.2 10.7-31.8 21.5-26.6 32.8q-30.2-12.8-63-12.8-56.3 0-100.3 34.8t-55.8 89.6q-44.1 10.2-73.3 46.1t-28.6 81.9z m145.9 187.4q3.6 8.7 12.3 12.3 7.7 4.1 16.4 0.5t12.3-11.8q4.1-8.7 0.5-17.4t-11.8-11.8q-8.2-4.1-16.4-0.5t-12.8 12.3q-4.1 6.2-0.5 16.4z m16.9-75.3q0 6.2 4.1 11.8t12.3 8.7q10.2 4.1 17.9 0t10.8-15.4l23-85.5q2.6-10.2-2-17.9t-14.4-9.7q-8.7-2.6-16.9 1.5t-10.7 13.3l-23.1 86.1q0 1-0.5 3t-0.5 3.6z m49.7 149.5q0 5.2 1.5 7.7 3.6 8.7 11.8 11.8 3.6 2 8.7 2 2.5 0 8.2-1.5 9.2-3.1 12.8-11.8t0-17.4-11.8-12.3-16.4 0q-7.7 3.1-11.2 9.8t-3.6 12.2z m19.9-70.6q0 15.3 16.9 21 3.6 1 6.7 1 4.1 0 9.2-2.1 8.7-3 12.3-15.3l44-163.3q2.6-9.8-2-17.5t-13.3-10.7q-9.3-2.6-17.4 1.5t-10.8 13.3l-45.1 164.4q-1 3.6-1 6.7z m91.7-11.3q0 5.1 1.5 8.2 3.1 8.2 11.8 11.8 4.6 2 9.2 2 2.6 0 8.2-1.5 8.7-3.6 11.8-11.8 3.1-8.7 0-16.9t-11.3-12.3q-8.7-4.1-17.4-0.5t-12.8 12.3q-1.5 3.1-1.5 8.7z m18.9-68.1q0 6.2 4.1 12.3t12.3 8.2q6.7 1 7.2 1 15.9 0 20.5-16.4l23.5-84.4q2.6-9.8-2-17.5t-13.3-10.7q-9.3-2.6-16.9 1.5t-10.8 13.9l-23.5 84.9q-1.1 4.7-1.1 7.2z m17.4-326.6q12.3-23.1 34.9-34.9t47.1-11.7q4.6 0 6.6 0.5v8.2q0 38.9 21 73.2t57.9 51.7q-7.7 17.4-20 28.7-35.3-31.3-86.5-31.3h-8.7q-10.3-50.1-51.8-84.4z" /></svg>