<svg height="512" width="582.8" xmlns="http://www.w3.org/2000/svg"><path d="m-1 307.7q0 53.3 37.4 91.7t90.6 40.4q5.1 0 5.1-4.6v-35.8q0-4.6-5.1-4.6-33.8-1.6-58.4-27.7t-24.1-59.4q0-33.8 23.1-58.9t56.3-27.6l14.3-1.6q5.2 0 5.2-4.6l1.5-13.3q4.1-44 36.9-73.2t76.2-29.2q43.6 0 76.3 29.2t37.4 72.7l2.1 15.4q0 5.1 4.6 5.1h43q36.3 0 61.9 25.6t26.1 61.4q0 22.1-11.2 41.5t-30.2 31.8-41.5 13.3q-5.1 0-5.1 4.6v35.8q0 4.6 5.1 4.6 26.1-1 50.2-11.8t40.9-28.6 27.2-41.5 10.2-50.2q0-35.3-18.4-67 33.3-29.7 42.5-70.2l3.6-18.4q0.5-0.5 0.5-2.1 0-2-4.1-4.1l-14.9-4.6q-17.4-5.1-31.2-15.8t-21.5-23.1-12.3-26.1-4.1-25.6q-1-9.7 2.1-22l3.5-15.4q1.6-4.1-3.5-6.1l-21.6-6.7q-16.3-4.6-34.3-4.6-14.3 0-29.7 3.6t-31.7 11.3-31.7 21.5-26.7 32.7q-32.7-12.3-62.4-12.3-56.3 0-100.4 35.4t-56.3 90.1q-45.1 11.3-73.2 47.1t-28.2 82.4z m144.4 187.9q0 6.7 4.1 13.3t12.2 9.2q9.3 2.6 16.9-1t10.8-14.8l3.6-16.4q2-9.2-2.6-16.9t-13.8-10.8q-9.2-2.5-17.4 2.1t-10.8 14.3l-3.6 15.9q-0.5 1.5-0.5 5.1z m20.4-77.3q0 8.7 6.7 15.4 6.1 6.6 15.4 6.6 9.7 0 15.8-6.6t6.7-15.9-6.7-15.9-15.8-6.6q-9.3 0-15.4 6.1t-6.1 15.9z m16.4-60.9q-0.5 6.1 3.6 12.3t12.8 8.7q8.2 2.5 16.9-2.1t11.3-13.8l7.6-24.1q3.1-9.7-2-17.4t-14.8-10.2q-8.8-2.6-16.9 1.5t-10.8 13.3l-6.7 24.6q-0.5 6.7-0.5 7.2z m30.7 221.2q0 6.6 4.1 13.3t12.8 8.7q3.6 1 6.7 1 17.4 0 21.5-16.4l3.6-15.9q2.5-10.2-2.1-17.9t-14.3-9.7q-8.7-2.6-16.4 2t-10.7 13.9l-3.6 15.8q-1 4.6-1 6.2z m21-77.4q0 9.3 6.7 15.4t15.4 6.7q9.7 0 15.8-6.2t6.2-15.9q0-9.2-6.2-15.3t-15.8-6.2-15.9 6.2-6.2 15.3z m16.4-60.4q-0.5 6.2 3.6 12.8t12.3 8.2q9.2 2.6 16.9-1.5t11.3-14.9l7.1-24q2.6-8.7-2-16.9t-14.4-10.8q-8.7-2.5-16.9 2.1t-10.7 14.3l-6.2 24.1q-0.5 3.6-0.5 7.1z m73.7 57.4q0 6.6 4.1 12.8t12.3 8.7q1.1 0 3.6 0.5t3.6 0.5q16.4 0 20.5-17.4l3.6-15.9q2.5-8.7-2.1-16.9t-13.8-11.2q-9.7-2.6-17.9 2t-10.8 14.3l-2.5 15.9q0 0.5-0.6 3.1t-0.5 3.6z m20-78.9q0 9.2 6.7 15.4 6.1 6.6 15.3 6.6t15.9-6.1 6.1-15.4q0-9.7-6.1-15.8t-15.9-6.2-15.8 6.2-6.2 15.8z m16.4-61.9q0 6.6 4.6 12.8t13.3 8.7q1 0 3.1 0.5t3.6 0.5q4.1 0 9.7-2.6 8.2-4.1 10.8-13.8l6.6-24q2.6-9.3-2-16.9t-13.3-10.8q-9.3-2.6-16.9 1.5t-10.8 13.4l-7.7 24q0 1-0.5 3.1t-0.5 3.6z m1.5-267.8q12.8-23 34.9-35.8t46-12.3q3.6 0 8.2 0.5v8.7q-0.5 39.4 20.5 73.7t59.4 51.7q-8.2 15.9-21.5 29.7-36.9-30.7-86-30.7h-8.2q-12.3-52.2-53.3-85.5z" /></svg>