<svg height="512" width="582.8" xmlns="http://www.w3.org/2000/svg"><path d="m-0.5 307.7q0 53.3 37.4 91.7t90.6 40.4q4.6 0 4.6-4.6v-35.8q0-4.6-4.6-4.6-33.8-1.6-58.4-27.7t-24-59.4 22.5-58.9 56.3-27.6l14.3-2.1q5.2 0 5.2-4.6l1.5-13.8q4.1-44 36.9-73.2t76.2-29.7q43.6 0 76.3 29.2t37.4 72.7l2.1 15.3q0 4.6 4.6 4.6h43q36.3 0 61.9 25.6t26.1 61.5q0 33.8-24.5 59.4t-58.4 27.6q-5.1 0-5.1 4.6v35.9q0 4.6 5.1 4.6 34.8-1 64.5-19t46.1-48.1 16.9-65q0-35.9-17.4-66.1 29.7-26.6 40.9-68.6l4.6-19.4q0.6-0.5 0.6-2.1 0-3-4.1-4.1l-16.4-4.6q-17.4-5.1-31.3-15.3t-21.5-22.6-11.7-25.1-4.1-25.6q0-10.7 2.5-23l3.1-16.4q1-3.6-3.6-6.1l-21.5-6.7q-17.4-4.1-33.3-4.1-14.8 0-30.2 3.6t-31.7 11.3-31.8 21.5-26.6 32.7q-32.2-13.3-63.5-13.3-56.3 0-100.3 35.4t-56.3 90.1q-45.1 11.2-73.3 47.1t-28.1 82.4z m170.5 109.1q0 9.7 6.6 16.4t15.9 6.6q9.7 0 15.9-6.6t6.6-16.4q0-9.2-6.6-15.4t-15.9-6.6q-9.2 0-15.9 6.6t-6.6 15.4z m0 96.7q0 9.3 6.6 15.4t15.4 6.7q9.7 0 15.9-6.2t6.6-15.9-6.6-15.8-15.9-6.2-15.9 6.2-6.1 15.8z m85.5-45q0 9.7 6.6 15.9 6.7 6.6 15.4 6.6 9.7 0 16.4-6.6t6.6-15.9q0-9.7-6.6-16.4t-16.4-7.2q-8.7 0-15.4 7.2t-6.6 16.4z m0-97.3q0 9.7 6.6 15.4 6.7 6.6 15.4 6.6 9.7 0 16.4-6.1t6.6-15.9q0-9.2-6.6-15.9t-16.4-6.6q-9.2 0-15.4 6.6t-6.6 15.9z m0 195.1q0 8.7 6.6 15.3t15.4 6.7q9.7 0 16.4-6.2t6.6-15.8q0-9.8-6.6-16.4t-16.4-7.2q-8.7 0-15.4 7.2t-6.6 16.4z m86.5-150q0 9.7 6.7 16.3t15.8 6.7 15.9-6.7 6.7-16.3q0-9.3-6.7-15.4t-15.9-6.7-15.8 6.7-6.7 15.4z m0 96.7q0 9.2 6.7 15.4t15.8 6.6q9.3 0 15.9-6.6t6.7-15.9q0-9.7-6.2-15.9t-15.8-6.1-15.9 6.1-6.7 15.9z m18.4-423.4q12.3-22 34.9-33.8t45.5-12.3q5.7 0 8.7 0.5v8.2q0 38.9 21 73.2t58.4 52.3q-6.1 14.3-20.5 28.6-35.3-31.7-86-31.7h-8.2q-11.3-49.2-53.2-85.5z" /></svg>