<svg height="512" width="571.2" xmlns="http://www.w3.org/2000/svg"><path d="m-72.2 414.2q0 9.2 6.7 15.4t16.3 6.1h496.2q9.7 0 16.4-6.1t6.6-15.4q0-9.7-6.6-16.4t-16.4-6.6h-496.2q-9.7 0-16.3 6.6t-6.7 16.4z m69.6-82.9q0 9.7 7.2 15.8 5.6 7.2 15.9 7.2h496.1q9.2 0 15.4-6.7t6.1-16.3q0-9.3-6.1-15.4t-15.4-6.1h-496.1q-9.7 0-16.4 6.1t-6.7 15.4z m4.1-64.5v-1.1q-1.5 6.2 3.1 6.2h38.4q2.1 0 5.1-4.1 9.8-21 28.7-33.8t41.5-14.9l14.3-2q5.1 0 5.1-4.6l1.6-13.3q4.1-43 36.3-71.7t75.8-28.7q43 0 75.3 28.7t36.8 71.2l1.6 15.3q0 4.6 5.6 4.6h42.5q25.6 0 46.6 13.8t31.2 36.4q2.6 4.1 5.6 4.1h37.9q4.6 0 4.1-6.1-8.7-22.6-12.3-28.2 29.2-26.1 40-68.6l4.6-17.4q1-2.6-0.5-4.1t-3.1-1.6l-16.4-5.6q-35.8-10.2-54.3-42.5t-9.7-68.1l3.6-15.3q2-3.6-3.6-6.2l-22.5-6.1q-44-10.8-86 7.1t-65.6 56.4q-31.7-12.3-60.9-12.3-55.3 0-98.8 34.8t-55.8 89.1q-33.8 8.2-59.4 32.2t-35.3 57.9z m42.5 228.8q0 9.7 7.2 15.9 6.7 7.2 15.9 7.2h497.1q9.2 0 15.9-6.7t6.7-16.4q0-9.2-6.7-15.3t-15.9-6.2h-497.1q-9.8 0-16.4 6.2t-6.7 15.3z m306.7-407q13.8-23.1 37.9-35.4t49.7-10.2q-2.6 42 18.9 78.3t59.4 53.8q-6.1 13.8-20 28.7-36.8-30.2-83.9-30.2h-8.7q-12.8-52.8-53.3-85z" /></svg>