<svg height="512" width="582.8" xmlns="http://www.w3.org/2000/svg"><path d="m-1 306.2q0 44.5 26.6 79.3t68.6 47.7l-17.4 45q-1 5.6 4.1 5.6h56.8l-26.1 93.7h7.7l104.4-131.5q1.6-2.1 0.6-4.1t-4.1-2.1h-57.9l66.1-123.4q3-5.6-3.6-5.6h-78.9q-3.6 0-6.1 3.6l-28.7 76.8q-28.7-7.2-47.6-31.3t-19-53.7q0-33.3 22.6-57.9t56.3-28.7l13.8-2q5.1 0 5.1-4.6l2.1-13.8q4.1-43.6 36.8-72.7t76.3-29.2q43.6 0 76.3 29.2t37.9 72.2l1.5 15.8q0 4.6 5.2 4.6h43q36.3 0 61.9 25.6t25.6 61q0 33.8-24 58.8t-58.9 27.7q-5.1 0-5.1 4.6v36.9q0 4.6 5.1 4.6 34.8-1.1 64.5-19.5t46.1-48.1 16.9-65.5q0-34.9-17.4-65.6 31.7-30.2 41.4-70.1l3.6-19.5q0.5-0.5 0.5-2 0-2.6-4.1-4.1l-15.3-4.6q-33.3-9.8-51.2-35.9t-17.4-54.2q0-10.8 2-21.6l3.6-16.3q1.5-4.1-3.6-6.2-8.7-3.6-24-7.1t-30.8-3.6q-14.3 0-29.7 3.6t-31.7 10.7-31.8 21.5-26.6 32.8q-33.3-12.3-63.5-12.3-56.3 0-100.3 34.8t-56.3 89.6q-44.1 10.2-72.7 46.6t-28.7 82.4z m216 262.1q0 6.7 3.6 12.3t11.8 8.2q4.1 1 8.2 1 16.4 0 20.5-16.9l61.4-234.5q2.6-9.7-2-17.4t-13.3-10.2q-9.3-2.6-17.5 1.5t-10.7 13.3l-62 235.6q-1 3.5-1 7.1z m111.1-80.4q0 6.7 4.1 12.3t12.3 8.2q1.6 0 4.1 0.5t4.6 0.5q14.9 0 19-16.9l39.9-154.1q2.6-9.7-2-17.4t-13.3-10.2q-9.3-2.6-17.5 1.5t-10.2 13.3l-39.9 155.2q-1.1 5.6-1.1 7.1z m33.3-398.3q13.3-22.5 35.4-34.8t47.1-11.8q4.6 0 7.1 0.5v8.7q0 38.4 21 72.7t57.9 52.8q-7.2 16.3-21.5 28.6-36.9-31.7-86-31.7h-8.8q-11.2-50.2-52.7-84.5z" /></svg>