<svg height="512" width="554.2" xmlns="http://www.w3.org/2000/svg"><path d="m0.5 307.7q0 44.6 26.1 79.9t68.1 47.6q3.6 1 6.7-2l30.7-38.4q-35.3 0-60.9-25.6t-25.1-61.5q0-33.8 22.5-58.9t55.8-27.6l13.8-1.6q4.6 0 4.6-3.5l2.1-14.9q5.1-44 36.9-72.7t75.7-28.7q44.1 0 76.8 29.2t36.9 72.7l2 15.4q1.1 4.6 5.7 4.6h43q35.8 0 61.4 25.1t25.1 60.9q0 33.3-22.5 58.4t-55.3 28.7q-5.1 0-13.3 1.5-7.7 1-10.8 6.1l-63.5 74.8q-5.6 7.2-4.6 16.9t8.2 15.3q4.1 5.2 15.4 5.2 10.7 0 16.4-9.3l56.3-65q49.7-5.1 84-43t34.3-88.6q0-27.1-10.3-51.7t-28.1-42-42-28.1-51.2-10.8h-8.7q-13.3-53.2-56.9-87t-99.3-33.8q-37.4 0-70.1 15.9t-55.3 44-30.2 64.5q-45.1 10.3-73.3 46.1t-28.1 82.4z m90.1 214q0 2.6 1.6 8.2 3.5 8.7 11.7 11.8 8.7 4.1 18 0.5t12.2-11.8q4.1-8.7 0.6-17.4t-12.3-11.8q-9.2-4-17.4-0.5t-12.3 12.3q-2.1 4.1-2.1 8.7z m49.2-65v2.6q1 9.2 8.2 14.8 9.2 5.1 16.4 5.1 9.2 0 16.3-8.7l62-73.7q5.6-7.2 5.1-17.4-1-8.7-7.2-14.3t-13.8-5.7q-2 0-3.6 0.5-9.7 2.1-15.3 8.7l-63 74.3q-5.1 6.1-5.1 14.3z m20.5 126q0 4.6 2 8.7 3.1 8.7 11.8 12.2 4.1 2.1 9.2 2.1t8.2-2.1q9.2-3.5 12.3-10.7 4.1-8.7 0.5-17.9t-11.8-12.3q-8.7-4.1-17.9-0.5t-12.3 11.8q-2 3.5-2 8.7z m44.5-62.5v3.1q1 8.7 8.2 14.8t14.8 5.6q9.3 0 16.9-8.7l116.3-139.7q4.6-5.7 4.6-13.9v-3q-1.1-9.2-7.2-14.4t-14.3-5.1h-3.6q-9.2 0.5-14.9 8.2l-116.2 138.8q-4.6 6.6-4.6 14.3z m93.7 30.7q0 3.6 1.5 8.2 3.6 8.7 12.3 12.3 5.7 1.5 8.2 1.5 5.6 0 9.2-2 9.2-3.6 12.3-11.3 4.1-6.6 0.5-17.9-3-8.2-11.7-11.8l-9.3-2.5q-4.1 1-8.7 2-8.7 3.1-11.7 11.8-2.1 4.6-2.1 9.7z" /></svg>