<svg height="512" width="557.0" xmlns="http://www.w3.org/2000/svg"><path d="m-0.5 307.7q0-46.1 28.7-82.4t74.2-46.1q11.8-54.8 55.3-90.6t100.3-35.4q55.9 0 99.4 33.8t56.8 88.1h8.7q27.1 0 51.7 10.8t42 28.1 27.7 42 10.2 51.7q0 53.8-36.9 91.7t-90.1 39.9q-5.1 0-5.1-4.6v-35.9q0-4.6 5.1-4.6 33.8-2.5 57.9-27.6t24-59.4q0-35.8-25.6-61.4t-60.9-25.6h-43.5q-4.6 0-5.6-4.6l-2.1-15.4q-2.5-28.7-18.4-51.7t-41-36.4-54.3-13.3q-44 0-76.2 29.2t-36.9 72.7l-1.5 14.3q0 3.6-4.1 3.6l-13.9 2.1q-33.8 2.5-56.3 27.6t-22.5 58.9q0 34.8 23.5 59.9t57.9 27.1q4.6 0 4.6 4.6v35.9q0 4.6-4.6 4.6-26.1-1-50.2-11.8t-40.9-28.1-27.2-41.5-10.2-50.2z m144.4 180.7q0-1 0.5-3.5t0.5-3.1l7.2-27.7q2.5-9.2 10.7-13.8t17.4-2q9.2 2.5 13.8 10.7t2.1 16.9l-6.7 27.2q-5.1 17.4-20.4 17.4-1.1 0-2.6 0t-3.1-0.5-2.5-0.6q-8.7-2.5-12.8-9.2t-4.1-12.8z m35.3-128.5q0-1 0.5-3t0.5-2.6l8.2-28.2q2.6-7.6 8.7-11.7t12.3-4.1l6.7 0.5q9.2 2.5 13.8 10.7t2 16.9l-6.6 26.7q-2.6 11.2-10.8 15.8t-17.4 0.5q-8.7-2.5-12.8-9.2t-4.1-12.8z m32.8 212q0-1 0.5-3.6t0.5-3.1l7.7-26.6q2.5-9.7 10.7-14.3t17.4-2.1q9.2 2.6 13.9 10.8t2 17.4l-6.7 27.6q-4 16.4-21.5 16.4-2 0-6.6-1-8.7-1.5-13.3-8.2t-4.6-13.8z m35.8-127.5q0-3.6 0.5-6.6l7.7-27.7q2.6-9.2 10.8-13.8t17.4-2.1q9.2 2.6 13.3 10.3t1.5 17.4l-6.6 26.6q-5.2 17.9-19 17.9-1.5 0-8.2-1.5-8.7-1.5-13.3-7.7t-4.6-13.3z m75.3 44.6q0-2.6 1-6.7l7.7-26.6q2.5-9.7 10.7-14.4t16.9-2.5q9.2 2.5 14.4 10.7t2.5 16.9l-7.7 28.2q-4.1 16.4-21.5 16.4-3 0-6.6-0.5-8.2-1.6-12.3-8.2t-4.6-13.9z m36.8-127q0-1 1.6-7.2l8.2-27.6q1.5-8.7 7.6-12.8t12.8-3.6q1.6-0.5 6.7 1 8.7 2.1 13.8 10.2 4.6 6.7 2.1 17.5l-6.7 27.6q-5.1 17.4-20.5 17.4-2.5 0-9.2-1.5-8.2-2.6-12.3-8.2t-4.1-12.3z" /></svg>