<svg height="512" width="552.8" xmlns="http://www.w3.org/2000/svg"><path d="m-0.5 307.2q0-46.1 28.7-81.9t72.7-46.1q12.3-54.3 55.8-89.6t100.3-34.8q55.3 0 97.8 33.8t56.3 87.5h8.2q35.9 0 66.1 17.4t48.1 47.7 17.9 66q0 53.8-36.8 92.2t-90.2 40.4q-5.1 0-5.1-4.6v-35.3q0-4.6 5.1-4.6 34.4-1.6 58.4-27.2t24.1-60.4-26.1-60.4-61.5-25.6h-43q-5.1 0-5.1-4.6l-2-15.4q-4.1-43-36.9-72.2t-76.3-29.1q-43.5 0-76.3 29.1t-36.9 72.2l-1.5 14.4q0 4.6-5.1 4.6l-13.8 0.5q-32.8 1.5-55.8 26.6t-23.1 59.4q0 34.8 24.1 60.4t58.4 27.2q4.6 0 4.6 4.6v35.3q0 4.6-4.6 4.6-53.8-2.6-90.7-41t-37.3-91.6z m158.2 23.6q0-9.8 9.7-26.7t18.5-27.1q8.7-9.7 10.2-11.3l9.7 10.8q10.3 11.2 19 27.1t8.7 26.6q0 15.9-10.8 26.2t-26.6 10.7q-15.9 0-27.1-10.7t-11.3-26.2z m79.4 106.4q0-11.2 6.1-25.6t15.9-27.1q7.1-10.2 17.9-22.5t15.9-17.4q5.6-5.1 6.6-6.2l6.7 6.2q14.8 13.3 33.8 38.9 9.7 13.3 15.8 27.6t6.2 25.6q0 25.6-17.9 44.1t-44.6 17.9q-25.6 0-44-17.9t-18.4-44.1z m39.4-177.6q0-16.9 26.1-42.5l6.1 6.6q19 23.1 19 35.9 0 10.2-7.2 17.9t-17.4 7.2q-10.7 0-18.4-7.2t-7.7-17.9z" /></svg>