<svg height="512" width="214.3" xmlns="http://www.w3.org/2000/svg"><path d="m0.5 181.8q0-10.3 10.3-27.2t19.4-27.6q2.6-3.1 6.2-7.2t4-5.1l9.8 11.8q11.2 12.3 20.5 28.6t9.2 27.2q0 16.4-11.3 28.1t-27.6 11.8-28.2-11.8-11.8-28.1z m83.5 110.6q0-11.8 6.6-27.2t15.9-28.1q7.7-10.3 18.9-23.1t16.4-17.9q1-0.5 6.7-6.7l7.1 6.7q14.9 13.8 34.9 40.4 10.2 13.9 16.9 28.7t6.6 26.6q0 27.2-18.9 46.1t-46.6 19q-27.2 0-45.6-19t-18.9-45.5z m40.4-183.9q0-16.9 27.2-45l6.6 7.7q7.7 8.7 13.8 19.4t6.2 17.9q0 11.3-7.7 18.5t-18.4 7.1q-11.8 0-19.5-7.1t-7.7-18.5z" /></svg>