<svg height="512" width="552.8" xmlns="http://www.w3.org/2000/svg"><path d="m0.5 307.2q0 44 26.6 79.4t68.6 47.6l-17.4 44.5q-1.5 5.7 3.6 5.7h56.9l-27.7 100.8h7.7l106-139.2q1.5-1.6 0.5-3.6t-3.6-2.1h-57.9l66.1-123.9q2.5-5.6-3.6-5.6h-78.3q-3.6 0-6.2 3.6l-28.6 76.3q-28.7-7.2-47.2-31.3t-18.4-53.7q0-33.3 22.5-57.9t55.9-28.7l13.8-2q5.1 0 5.1-4.6l2-13.8q4.1-43.6 36.4-72.7t76.3-29.2q43.5 0 76.3 29.2t37.3 72.7l1.6 15.3q0 4.6 4.6 4.6h43.5q36.4 0 62 25.1t25.6 60.9q0 33.8-23.6 58.9t-58.4 27.7q-5.1 0-5.1 5.1v36.3q0 4.6 5.1 4.6 26.2-1 49.7-11.7t40.5-28.7 27.1-42 10.2-50.2q0-35.8-17.9-66.5t-48.1-48.1-66.1-17.5h-8.7q-13.3-53.2-56.3-87t-98.3-33.8q-56.3 0-100.3 34.8t-55.9 89.6q-44 10.3-72.7 46.1t-28.6 81.9z m217.6 263.2q0 6.1 4.1 12.3t12.3 8.7q5.6 1 7.2 1 3.5 0 10.2-2.6 8.2-3.6 11.3-13.8l7.6-28.2q2.6-8.7-2-16.9t-14.3-10.7q-8.7-2.6-16.9 2t-10.8 14.4l-7.2 26.6q-1 6.7-1 7.2z m35.9-127.5q0 5.6 4 11.8t12.3 8.7q9.3 3 16.9-1.6t10.8-13.8l8.2-27.6q2.5-8.8-2.1-16.9t-14.3-10.8q-9.2-2.6-17.4 2.1t-11.3 13.8l-6.6 27.1q-1.1 6.7-1.1 7.2z m75.2 44q0 6.7 4.6 13.3t12.8 9.2q1 0 3.1 0.6t3.1 0.5q5.1 0 10.2-2.1 7.7-3.1 11.3-15.3l6.6-27.2q2.6-9.2-1.5-17.4t-13.3-11.3q-10.3-2.5-17.9 2.1t-9.8 14.3l-7.1 27.7q-1.1 2-1.1 5.1z m36.4-128q-0.5 6.2 4.1 12.3t12.8 10.2q3 1.6 7.1 1.6 3.6 0 8.7-2.1 8.2-4.1 11.8-15.3l7.7-27.7q1-5.1 1-5.6 0-6.7-4.6-13.3t-13.3-8.7q-1 0-3.1-0.5t-3-0.6q-6.7 0-12.8 4.1t-8.8 12.8l-7.6 27.2q-0.5 2-0.5 5.6z" /></svg>