<svg height="512" width="637.0" xmlns="http://www.w3.org/2000/svg"><path d="m-10.2 265.7q0-10.2 8.2-18.4 9.2-7.7 18.9-7.7h61.9q10.8 0 18 7.7t7.1 18.4q0 11.3-7.1 19.5t-18 7.7h-61.9q-10.8 0-18.9-8.2t-8.2-19z m88.5-213q0-10.7 7.2-18.4 9.2-7.7 18.9-7.7 10.8 0 18.5 7.7l44 44q7.7 8.7 7.7 18.5 0 11.2-7.2 18.9t-17.4 7.7q-9.7 0-18.9-7.7l-44.6-43.5q-7.1-8.7-7.1-19.5z m53.3 360q0-11.3 7.7-18.5 7.1-7.1 18.4-7.1h70.1l83-77.9q4.1-3 9.2 0l84.5 77.9h73.7q10.8 0 18.4 7.1t7.7 18q0 10.7-7.7 18.4t-18.4 7.7h-90.1q-4.1 0-7.7-2.1l-64.5-60.4-64 60.4q-3.1 2.1-7.7 2.1h-86.5q-10.8 0-18.4-7.7t-7.7-18.4z m24.6-147.5q0 38.9 16.3 70.7 1.1 4.6 6.7 4.6h50.2q3 0 4.1-2.1t-0.5-5.1q-25.6-30.7-25.6-68.1 0-45 32.2-76.8t76.8-31.7q44.6 0 76.3 31.7t31.7 76.8q0 37.4-25 68.1-2.1 2.6-1.1 5.1t4.1 2.1h50.7q5.1 0 6.2-4.6 16.3-30.7 16.3-70.7 0-32.8-12.8-61.9t-34.3-50.7-50.6-33.8-62-12.8q-32.3 0-61.9 12.8t-51.2 33.8-34.4 50.7-12.8 61.9z m134.1-238.6v-61.4q0-11.3 7.7-19t18.9-7.6q11.3 0 18.5 7.6t7.1 19v61.4q0 11.8-7.1 19t-18.5 7.1q-11.2 0-18.9-7.1t-7.7-19z m169.5 70.2q0-10.3 7.1-18.5l43.6-44q7.6-7.7 18.9-7.7t18.4 7.7 7.7 18.4q0 11.8-7.1 19.5l-45.1 43.5q-8.7 7.7-18.9 7.7-10.8 0-17.5-7.2t-7.1-18.9z m69.6 168.4q0-10.7 7.2-18.4t17.4-7.7h63q10.7 0 18.4 7.7t7.7 18.4q0 10.8-7.7 19t-18.4 8.2h-63q-10.8 0-17.9-7.7t-7.2-19.5z" /></svg>