<svg height="512" width="637.0" xmlns="http://www.w3.org/2000/svg"><path d="m-5.6 268.3q0-11.3 8.2-17.9 7.1-7.2 18.4-7.2h61.4q10.8 0 18 7.2t7.1 17.9q0 11.3-7.1 18.9t-18 7.7h-61.4q-10.8 0-18.4-7.7t-7.7-18.4z m87.5-209.4q0-10.8 7.2-17.9 8.2-8.2 18.4-8.2 11.8 0 17.9 8.2l43.6 43.5q18.4 17.4 0 35.8-7.7 7.7-17.4 7.7-8.8 0-18-7.7l-44.5-43.5q-7.2-7.7-7.2-17.9z m52.8 353.8q0-10.8 8.1-18.5 7.2-7.1 18-7.1h85.5q4.1 0 7.7 2l62.9 59.4 64-59.4q2.6-2 7.7-2h88.1q10.7 0 18.4 7.7t7.7 18.4-7.7 18.4-18.4 7.7h-71.7l-83.5 75.8q-5.1 3.6-9.2 0l-82.4-75.8h-69.1q-10.8 0-18.5-7.7t-7.6-18.4z m25-144.4q0 39.4 15.9 70.1 2.1 4.1 7.2 4.1h49.6q3.1 0 4.1-2t-2-4.6q-23.6-29.7-23.6-67.6 0-44 31.8-74.8t75.8-30.7q44 0 75.2 31.2t31.3 74.8q0 37.9-23.6 67.6-2.6 2.5-2 4.6t4.1 2h50.1q5.2 0 6.2-4.1 16.4-31.2 16.4-70.1 0-31.7-12.8-60.9t-33.8-50.7-50.7-33.8-61.5-12.8-61.4 12.8-50.7 33.8-33.8 50.7-12.8 60.9z m132.1-235v-62q0-10.7 7.7-18.4t18.5-7.7 18.4 7.7 7.7 18.4v62q0 10.7-7.7 18.4t-18.4 7.7-18.5-7.7-7.7-18.4z m167.5 69.1q0-11.8 6.6-17.9l43.5-43.5q6.7-8.2 18-8.2 10.7 0 18.4 7.6t7.2 18.5q0 11.2-7.2 17.9l-44 43.5q-9.3 7.7-18.5 7.7-10.7 0-17.4-7.2t-6.6-17.9z m68.6 165.9q0-10.8 7.1-17.9t18-7.2h61.4q10.8 0 18.4 7.2t7.7 17.9q0 10.7-7.7 18.4t-18.4 7.7h-61.4q-10.8 0-18-7.7t-7.1-18.9z" /></svg>