<svg height="512" width="552.8" xmlns="http://www.w3.org/2000/svg"><path d="m0.5 307.2q0 44 26.6 79.4t68.6 47.6l-17.4 44.5q-1 5.7 3.6 5.7h56.9l-26.2 114.6h7.7l104.5-153q1.5-1.6 0.5-3.6t-3.6-2.1h-57.9l66.1-123.9q2.5-5.6-3.6-5.6h-78.8q-3.6 0-6.2 4.1l-28.7 76.3q-28.6-7.2-47.1-31.3t-18.9-53.7q0-33.3 22.5-57.9t56.3-28.7l13.9-2q5.1 0 5.1-4.6l1.5-13.3q4.1-43.5 36.9-72.7t76.3-29.2q43.5 0 76.3 29.2t37.3 72.7l1.6 15.3q0 4.6 4.6 4.6h43q36.3 0 61.9 25.6t25.6 61q0 33.8-24 58.9t-58.9 27.6q-5.1 0-5.1 4.6v36.4q0 4.6 5.1 4.6 53.2-1.6 90.6-40.5t37.4-92.1q0-35.9-17.9-66.6t-48.2-48.1-66.5-17.4h-8.2q-13.3-53.3-56.3-87.1t-98.3-33.8q-56.3 0-100.4 34.9t-55.8 89.6q-44 10.2-73.2 46t-28.7 82z m217.1 259.1q0 15.8 15.9 20.5 0.5 0 3 0.5t3.6 0.5q6.7 0 13.3-4.1t8.7-12.8l59.9-232q2.6-9.7-1.5-17.4t-13.3-10.7q-6.7-0.5-7.2-0.5-6.6 0-12.8 4.1t-8.2 11.7l-60.4 232.5q-1 3.1-1 7.2z m110.6-81.9q0 4.6 3.1 10.2 5.6 8.7 13.3 11.8 4.1 1 8.2 1t8.7-2.1q8.2-3.5 10.7-15.3l38.9-151.1q1.1-4.6 1.1-7.1 0-6.2-4.1-12.3t-12.3-8.7q-6.7-0.5-7.2-0.5-6.6 0-12.3 4.1t-8.2 12.3l-38.9 152q0 1-0.5 3.1t-0.5 3.1z" /></svg>