<svg height="512" width="371.3" xmlns="http://www.w3.org/2000/svg"><path d="m1 259.1q0 17.9 18.5 30.2 33.7 23.5 101.8 23.5 30.8 0 56.9-5.1 27.6-6.1 45.5-18.9t17.5-29.7q0-5.1-2.1-10.8 35.3-8.7 55.8-23.5t20.5-34.3q0-4.6-1.5-10.3 58.3-21 58.3-55.8 0-22.5-25.6-39.9-50.2-33.3-146.4-33.3-45.1 0-82.4 8.2-40 8.2-64.6 25.6t-24.5 39.4q0 12.8 8.7 24.1-30.7 17.4-30.7 42 0 18.9 18.9 33.8-24.6 14.3-24.6 34.3z m10.3 76.8q0 18.9 23 29.2t57.9 10.7q35.3 0 58.8-10.7t23.1-29.2q0-7.2-4.6-11.8t-11.3-4.6q-5.6 0-10.2 4.1t-5.7 9.7q-5.1 4.1-18.9 7.2t-31.2 3.6q-28.2 0-45.6-8.2 4.1-4.1 4.6-10.3t-2.6-10.7q-4.1-5.7-10.2-6.7t-11.8 2.1q-14.8 10.2-14.8 25.1z m21.5-76.8q0.5-0.5 3-3.1 2.1-2 9.8-5.6t16.4-6.2l2-1q41.5 13.8 96.8 13.8 24 0 44-2.5l4.6 4.1q-2 4.1-11.3 8.7-10.2 5.6-31.7 9.7t-45.6 4.1-45.5-4.1-32.3-9.7q-8.7-3.6-10.7-7.7z m2 143.8q0 16.4 18.4 25.1t45.6 8.7q27.7 0 46.6-8.7t18.4-25.1q0-6.6-4.6-11.7t-11.2-5.2q-12.3 0-15.9 12.3-10.2 6.2-33.3 6.2-21 0-32.8-6.2-3.5-12.3-15.8-12.3-6.7 0-10.8 4.7t-4.6 11.7z m3.1-211.9q0-1.6 2.5-4.6 6.2-7.7 24.1-14.9 49.2 26.1 134.7 26.1 44 0 82.4-8.2v1.6q0 4.1-4.6 7.7-10.8 9.2-39.4 17.4-31.3 9.2-77.3 9.2-47.1 0-77.9-9.2-29.7-8.2-39.9-17.4-5.1-4.1-5.1-7.7z m22.5-66.1q0-4.6 6.2-10.2 11.2-10.8 45.5-21 36.4-10.8 87.6-10.8 51.7 0 88.6 10.8 34.3 10.2 45.5 21 5.7 5.6 5.7 10.2t-5.7 9.8q-11.2 10.7-45.5 20.9-36.9 10.8-88.6 10.8-51.2 0-87.6-10.8-34.3-10.2-45.5-20.9-6.2-5.2-6.2-9.8z" /></svg>