<svg height="512" width="385.5" xmlns="http://www.w3.org/2000/svg"><path d="m1.5 247.3q0-38.9 15.4-74.8t41-61.4 61.4-41 74.7-15.3 74.8 15.3 61.4 41 41 61.4 15.4 74.8-15.4 74.7-41 61-61.4 40.9-74.8 15.4-74.7-15.4-61.4-40.9-41-61.5-15.4-74.2z m42.5 0q0 61.4 44.6 105.5 44 44 105.4 44 41 0 75.3-20t54.8-54.2 20-74.8q0-30.2-11.8-57.8t-32.3-48.2-48.1-32.2-58.4-11.8q-30.2 0-57.8 11.8t-47.6 32.2-32.3 48.2-12.3 57.8z m83.5-65q-1-2.6 0.5-4.1t4.1 0l59.4 22.5q2.5 1 5.6 0l58.9-22.5q2.6-1 4.1 0t0.5 4.1l-63.5 150q-1 2.5-3.1 2.5-1.5 0-2.5-2.5z" /></svg>