<svg height="512" width="385.5" xmlns="http://www.w3.org/2000/svg"><path d="m1.5 246.3q0-39.5 15.4-74.8t41.5-61.4 61.4-41 74.8-15.3 74.7 15.3 61.5 41 40.9 61.4 15.4 74.8-15.4 75.2-40.9 61.5-61.5 40.9-74.7 15.4q-39.5 0-75.3-15.4t-61.4-40.9-41-61.5-15.4-74.7z m42.5 0q0 61.4 44.6 106 44 44 106 44 40.9 0 75.2-20.5t54.8-54.8 20.5-75.2-20.5-75.3-54.8-54.8-75.2-20.5q-40.5 0-75.3 20.5t-54.8 54.8-20.5 75.3z m62 0q0-2.1 2.5-2.6l150.6-64.5q2.5-1.5 4.1 0.5t0 4.1l-22 59.9q-1.6 2.6 0 5.1l22 59.4q1.5 2.6 0 4.1t-4.1 0l-150.6-64q-2.5-0.5-2.5-2.5z" /></svg>