<svg height="512" width="385.5" xmlns="http://www.w3.org/2000/svg"><path d="m2 295.9q-13.3-50.1 0-99.3 5.7-20.5 15.9-40.4t27.2-39 37.3-32.7 48.7-23.1 58.3-8.7q79.4 0 136.2 56.9 36.9 36.8 50.2 86.5t0 99.3q-5.6 20.5-15.9 40.5t-27.1 38.9-37.4 32.8-48.1 23-58.4 8.7q-80.4 0-136.7-56.3-37.4-36.9-50.7-87.1z m36.9-49.6q0 62.4 44 106.5t107.1 44q40.4 0 75.2-20t54.8-54.8 20-75.7q0-30.7-11.8-58.4t-32.3-48.1-48.1-32.3-58.4-11.8q-40.9 0-75.7 20t-54.8 54.8-20 75.3z m54.8-2.1q0-2.5 2.6-3.6l57.8-26.1q2.6-1 3.6-3.6l25.6-57.3q2-3.1 4.1-3.1t2.6 3.1l61.9 151q0.5 2.6-0.5 3.6t-4.1 0.5l-151.6-61.9q-2.5-1-2.5-3.1z" /></svg>