<svg height="512" width="385.5" xmlns="http://www.w3.org/2000/svg"><path d="m6.7 196.6q5.6-20.5 15.8-40.4t27.2-38.4 37.3-32.8 48.2-22.5 58.3-8.7q79.9 0 136.2 56.3 36.9 36.8 50.2 86.5t0 99.3q-5.6 20.5-15.9 40.5t-27.1 38.4-36.9 32.8-48.1 23-58.4 8.7q-79.8 0-136.2-56.3-36.8-36.9-50.6-86.6t-0.6-99.3z m36.8 49.7q0 62.4 44.1 106.5t106.4 44q30.8 0 58.4-11.8t48.1-32.2 32.3-48.2 11.8-58.3q0-41-20-75.3t-54.8-54.8-75.2-19.9q-30.8 0-58.4 11.7t-48.1 32.3-32.3 48.1-11.8 58.4z m54.8 2q0-2 2.6-2.5l151-62.5q2.6-0.5 4.1 1t0.5 4.1l-61.9 151.1q-0.6 2.5-2.6 2.5-2.6 0-4.1-2.5l-25.6-57.4q-2-3.6-3.6-3.6l-57.3-26.1q-2.6-1-2.6-3.6z" /></svg>