<svg height="512" width="385.5" xmlns="http://www.w3.org/2000/svg"><path d="m0.5 247.3q0-52.2 26.1-96.8t70.2-70.1 96.2-25.6q38.9 0 74.8 15.3t61.4 41 41 61.4 15.3 74.8q0 38.9-15.3 74.7t-41 61.5-61.4 40.9-74.8 15.4q-39.4 0-74.7-15.4t-61.5-40.9-40.9-60.9-15.4-74.3z m42.5 0q0 60.4 44.6 105.5 44 44 105.4 44 40.5 0 74.8-20t54.8-54.8 20.4-75.2-20.4-75.3-54.8-54.8-74.8-19.9-75.2 19.9-54.8 54.8-20.5 75.3z m83.5 64.5l64-150q0.5-2.6 2.5-2.6t2.6 2.6l64 150q1 2.6-0.5 4.1t-4.1 0l-58.9-22.5q-2.6-1-5.1 0l-59.9 22.5q-2.6 1.5-4.1 0t-0.5-4.1z" /></svg>