<svg height="512" width="385.5" xmlns="http://www.w3.org/2000/svg"><path d="m2.6 246.3q0-38.9 15.3-74.8t41-60.9 60.9-41 74.2-15.3q39.5 0 74.8 15.3t61.4 41 41 60.9 15.4 74.3q0 38.9-15.4 74.7t-41 61.5-61.4 40.9-74.8 15.4q-38.9 0-74.2-15.4t-60.9-40.9-41-61-15.3-74.7z m41.9 0q0 40.4 20 74.7t54.8 54.3 74.7 20q30.3 0 57.9-11.8t48.1-31.8 32.3-47.6 11.8-57.8q0-61.5-44.1-105.5-44.5-44-106-44-30.2 0-57.8 11.7t-47.6 32.3-31.8 47.6-11.7 57.9z m80.9 61.9l22.6-59.9q1-2.5 0-5.1l-22.6-58.9q-1-2.5 0-4.1t4.1-0.5l150.1 63q2.5 0.5 2.5 2.5t-2.5 2.6l-150.1 64.5q-2.5 1-4.1-0.5t0-4.1z" /></svg>