<svg height="512" width="480.0" xmlns="http://www.w3.org/2000/svg"><path d="m0 256q0-49.2 18.9-93.2t51.2-76.3 76.3-51.2 93.2-18.9q48.7 0 93.2 18.9t76.8 51.2 51.2 76.3 18.9 93.2q0 48.6-18.9 93.2t-51.2 76.8-76.8 51.2-93.2 18.9q-49.1 0-93.2-18.9t-76.3-51.2-51.2-76.8-18.9-93.2z m198.1-100.9l13.9 125q1 10.2 8.7 17.9t18.4 8.7q12.3 1 22-6.7t10.8-20.4l13.8-125v-8.7q-2.1-17.9-15.9-29.7t-31.7-9.7-29.7 15.9-9.7 31.7z m6.2 210.5q0 15.3 10.7 26.6t26.7 10.7 26.6-10.7 10.7-26.6-10.7-26.7q-10.3-10.2-26.6-10.2t-26.7 10.2q-10.7 10.8-10.7 26.7z" /></svg>