<svg height="512" width="480.0" xmlns="http://www.w3.org/2000/svg"><path d="m0 256q0-49.2 18.9-93.2t51.2-76.3 76.3-51.2 93.2-18.9q48.7 0 93.2 18.9t76.8 51.2 51.2 76.3 18.9 93.2q0 48.6-18.9 93.2t-51.2 76.8-76.8 51.2-93.2 18.9q-49.1 0-93.2-18.9t-76.3-51.2-51.2-76.8-18.9-93.2z m59.9 0q0 49.2 24.1 90.1t65.5 65.5 90.1 24.1q49.2 0 90.1-24.1t65.6-65.5 24-90.1q0-48.6-24-90.1t-65.6-65.5-90.1-24.1q-36.3 0-69.6 14.3t-57.4 38.4-38.4 57.4-14.3 69.6z m138.2-100.9q-1.5-17.9 9.8-31.7t29.7-15.9q17.9-1.5 31.7 9.7t15.9 29.7q0.5 4.7 0 8.7l-13.8 125q-1.1 12.3-10.8 19.9t-22 6.7q-10.8-1-18.4-8.7t-8.7-17.9z m6.2 210.5q0-15.9 11.3-26.7 10.2-10.2 26.1-10.2t26.1 10.2q11.2 10.3 11.2 26.7t-11.2 26.6q-10.3 11.3-26.6 11.3-15.9 0-26.2-11.3-11.2-10.2-11.2-26.6z" /></svg>