<svg height="512" width="463.2" xmlns="http://www.w3.org/2000/svg"><path d="m0 209.9q0.5-10.7 7.7-21 7.7-11.7 19.9-17.9t25.1-5.1q1.6 0 4.1 0.5 21 2 38.4-3.6 47.1-15.3 122.4-90.1 27.6-27.6 65-37.4t74.3 0 64.5 37.4 37.4 65 0 74.3-37.4 64.5q-21 21-36.9 39.4t-26.1 32.3-16.9 26.6-9.7 21-4.1 16.9-1 13.3 0.5 10.7q0.5 3.1 0.5 4.6 1 12.3-5.1 25.1t-18 20.5q-10.2 6.7-21 7.2t-23.5-3.1q0 0-5.1-1t-10.3-2.6-14.8-5.1-19-8.2-22.5-12.3-26.1-16.9-28.7-22.5-31.2-28.7q-13.8-13.8-26.1-28.1t-21-26.1-16.4-23.6-12.3-21.5-8.7-18.4-6.1-15.9-3.6-11.8-2.1-8.7-1-4.1q-3.6-12.8-3.1-23.5z m50.2 33.3q2.5 15.4 11.8 34.3t26.6 42 39.4 45q45.1 45.1 87 66.6t56.4 6.7q10.7-11.3 1-39t-35.9-61.4q-4.1 5.6-7.1 8.7-16.9 16.9-41.5 16.9t-41.5-16.9q-16.9-16.9-16.9-41.5t16.9-41.4q3.1-2.6 8.7-6.7-33.8-26.1-61.4-36.3t-38.9 1q-7.7 7.2-5.1 22z" /></svg>