<svg height="512" width="480.0" xmlns="http://www.w3.org/2000/svg"><path d="m0 256q0-48.6 18.9-93.2t51.2-76.8 76.8-51.2 93.2-18.9 93.2 18.9 76.8 51.2 51.2 76.8 19 93.2-19 93.2-51.2 76.8-76.8 51.2-93.2 18.9-93.2-18.9-76.8-51.2-51.2-76.8-18.9-93.2z m133.6 79.4q0 11.2 8.2 18.9 7.7 8.2 19 8.2t19.4-8.2l60.4-60.4 61 60.4q7.6 8.2 18.9 8.2 10.8 0 19-8.2 7.6-7.7 7.6-18.9t-7.6-19l-61-60.4 61-60.9q7.6-7.7 7.6-19t-7.6-18.9-19-7.7-18.9 7.7l-61 60.9-60.4-60.9q-8.2-7.7-18.9-7.7t-19 7.7q-8.2 7.7-8.2 18.9t8.2 19l60.5 60.9-60.5 60.4q-8.2 7.7-8.2 19z" /></svg>