<svg height="512" width="662.8" xmlns="http://www.w3.org/2000/svg"><path d="m0 189.4q0-55.3 34.8-101.8t94.7-74.3 130.6-27.1q53.2 0 101.4 15.8t82.9 43.6 55.3 65 20.5 78.8q0 33.3-13.3 64t-36.9 56.4-55.8 44-71.7 29.2-82.4 10.2q-52.7 0-99.3-15.3l-59.4 41.4q-33.3 21-47.1 12.3t-5.7-49.6l11.8-62q-29.2-27.1-45.6-60.4t-15.8-70.2z m332.8 239.7q60.4-11.8 110.1-42t80.9-74.3 38.4-95.2q45.5 18.4 72.7 52.2t27.1 75.3q0 25.1-11.2 49.1t-31.3 42.5l8.7 43.6q5.1 28.6-4.6 34.8t-32.8-8.7l-41.4-29.7q-32.3 10.7-69.7 10.7-44.5 0-83.4-15.8t-63.5-43.1z" /></svg>