<svg height="512" width="480.0" xmlns="http://www.w3.org/2000/svg"><path d="m0 255q0-19.5 3.6-42 25.6 1.5 48.1-10.2t35.9-34.4q12.8-23.5 11.7-49.1t-15.3-46.6q32.7-28.7 76.8-44 11.7 21 32.7 33.8t46.1 12.8 46.1-12.8 32.8-33.8q43.5 15.3 76.8 44-10.8 20.5-10.8 43.5t11.8 44.1q12.3 20.9 33.3 32.7t44.5 11.8q5.6 25.1 5.6 50.2 0 16.4-3.5 38.4-23.1 0.5-43 12.3t-32.3 32.7q-12.8 22.6-12.3 47.1t13.8 45.6q-33.8 31.2-74.2 47.6-11.8-21.5-32.8-34.3t-46.1-12.8q-26.6 0-48.6 14.4t-32.8 37.8q-41.9-13.3-78.3-41.9 14.3-21 15.4-46.6t-12.3-48.7q-13.3-23.5-37.4-35.8t-50.2-8.7q-4.6-21-4.6-46.6z m150 0q0 37.4 26.1 63.5t63.5 26.1 63.5-26.1 26.1-63.5-26.1-63.5-63.5-26.1-63.5 26.1-26.1 63.5z" /></svg>