<svg height="512" width="404.7" xmlns="http://www.w3.org/2000/svg"><path d="m0 451.1v-389.7q0-18.4 13.3-31.7t31.8-13.3h314.8q18.5 0 31.8 13.3t13.3 31.7v389.7q0 18.4-13.3 31.7t-31.8 13.3h-314.8q-18.5 0-31.8-13.3t-13.3-31.7z m91.6-150.6q0 30.3 14.9 55.9t40.4 40.4 55.9 14.8q46 0 78.3-32.2t32.8-78.3-32.8-78.4-78.3-32.7q-22.6 0-43.1 8.7t-35.3 23.5-23.5 35.3-8.7 43z m30.3-3.5q1.5-32.3 25-54.8t55.9-22.6q30.7 0 53.2 20t27.1 49.7q0 0 0 1t0 1q0 10.8-7.6 18.5t-18.5 7.6q-10.7 0-18.4-7.1-27.7-27.7-66.6-27.7-27.6 0-49.6 14.4z m178.1-197.7q0 9.2 6.7 15.9t15.9 6.7 15.8-6.7 6.7-15.9-6.7-15.8-15.8-6.7q-9.8 0-15.9 6.7t-6.7 15.8z" /></svg>