<svg height="512" width="480.0" xmlns="http://www.w3.org/2000/svg"><path d="m0 256q0-49.2 18.9-93.2t51.2-76.3 76.3-51.2 93.2-18.9q43 0 83 14.8t71.1 41.5q21 15.9 36.4 38.4 49.1 64.5 49.1 145.4 0 48.7-18.9 93.2t-51.2 76.8-76.8 51.2-93.2 18.9q-49.1 0-93.2-18.9t-76.3-51.2-51.2-76.8-18.9-93.2z m48.1-31.7q26.1-7.2 52.3-7.2h2.5q0 0 0.5 2.5t1 3.1q-35.3 36.4-52.7 84 5.6 22 17.4 43 11.3-60.9 54.3-106 8.7 5.1 18.9 5.1 21 0 33.3-16.9 34.3 13.3 62.5 37.9t45.5 57.4q-12.8 12.3-12.8 29.7 0 14.8 10.3 26.6-27.7 40.9-70.2 65.5 14.9 2.1 29.2 2.1 8.7 0 17.9-0.5 28.7-23.6 47.7-53.3h1q2.5 15.9 2.5 28.7l-0.5 12.8q15.9-6.2 29.2-13.8 0-16.4-2.5-33.8 18.4-12.8 18.4-34.3 0-20-15.9-32.3 7.2-28.2 7.2-56.3 0-33.8-10.8-70.2 3.6-3 6.7-7.6 56.8 18.9 94.7 65 0-22.5-5.6-46.1-36.9-31.7-83-46.6-1.5-15.3-13.3-26.1t-27.1-10.7q-4.6 0-9.2 1-30.7-41-73.2-65-22.6 2-45.6 9.7 58.4 21 95.7 70.1-3 3.6-5.6 9.8-53.2 1-99.3 24.5-11.8-9.2-26.1-9.2-11.8 0-21.5 6.2t-14.9 16.9q-1 0-2.6 0t-2.5 0q-21 0-45.1 4.6-4.6 14.3-7.6 30.7z m135.2-24.1q41-20 83.5-21 4 12.3 14.8 20.5t24.6 8.2h0.5q9.2 31.2 9.2 59.9 0 24.6-6.1 47.6-20-37.9-52.8-66.6t-73.2-44q0-0.5 0-2t-0.5-2.1z" /></svg>