<svg height="512" width="480.0" xmlns="http://www.w3.org/2000/svg"><path d="m0 392.2v-36.9q0-16.9 12.3-29.2t29.2-11.7 29.2 11.7 11.7 29.2v36.9q0 9.2 6.2 15.4t15.3 6.1h272.4q8.7 0 15.4-6.1t6.1-15.4v-36.9q0-16.9 11.8-29.2t29.2-11.7 29.2 11.7 12.3 29.2v36.9q0 43-30.3 73.2t-73.2 30.7h-272.4q-43 0-73.2-30.7t-30.2-73.2z m79.4-183.8q0-16.9 12.2-29.2 11.8-11.8 29.2-11.8t29.2 11.8l53.8 53.8v-176.2q0-16.9 11.8-29.2t29.1-11.7 29.2 11.7 12.3 29.2v176.2l56.3-56.4q11.8-11.7 29.2-11.7t29.2 11.7q12.3 11.8 12.3 29.2t-12.3 29.2l-126.5 126.5q-12.3 12.3-29.2 12.3-16.3 0-29.1-12.3l-123.9-123.9q-12.3-12.3-12.3-29.2z" /></svg>