<svg height="512" width="617.2" xmlns="http://www.w3.org/2000/svg"><path d="m0 294.9q1.5-28.1 12.3-52.7t31.7-45.1 48.7-31.2q32.7-13.8 78.8-7.7 20.5-40.4 57.9-65t83.9-24.6q42 0 77.9 21t55.8 56.3 20.5 76.3v14.9h3.5q41.5-16.4 81.4 2t57.4 57.9q16.4 41.4-2.1 81.4t-57.8 57.3l-8.7 2.1t-8.2 2-6.7 1.5-7.1 1.1-6.7 0.5h-370.7q-43 0-78.8-25.1t-52.2-68.6q-11.8-26.6-10.3-54.3z m229.4-53.2q-3.1 5.1 2 10.2l67.1 112.1q3.6 4.1 7.7 4.1 1.5 0 3.6-1t3-2l1.1-1.1 71.6-112.1q3.1-6.1 0-10.7t-11.2-4.7h-26.1v-52.2h-78.9v52.2h-30.2q-6.1 0-9.2 5.2z" /></svg>