<svg height="512" width="480.0" xmlns="http://www.w3.org/2000/svg"><path d="m0 389.1v-250.9q0-35.8 25.6-60.9t60.9-25.6h66.1q14.3 0 24.6 10.3t10.2 24q0 14.4-10.2 24.6t-24.6 10.2h-66.1q-7.7 0-12.8 5.2t-5.1 12.8v250.8q0 7.2 5.1 12.8t12.8 5.2h301.1q7.7 0 12.8-5.2t5.1-12.8v-30.7q0-13.8 10.2-24.1t24.1-10.2q14.3 0 24.1 10.2t10.2 24.1v30.7q0 35.9-25.1 61t-60.9 25h-301.1q-35.8 0-60.9-25t-25.6-61z m124.9-46.1q23.1-41.4 62-67.5t86-30.3q21.5-1 37.4 1.1v52.7q0 11.3 5.6 15.4t13.8-2.1l144.9-106q5.1-4.1 5.1-10.2 0-2.6-1-5.1t-2.5-3.6l-1.1-1-144.9-105.5q-7.6-6.1-13.8-2.6t-5.6 15.4v43.5q-3.1 0-10.3 0.5-36.8 3.1-69.6 21t-56.3 45.1-36.4 64-12.8 75.8z" /></svg>