<svg height="512" width="291.3" xmlns="http://www.w3.org/2000/svg"><path d="m0 161.8q0-29.7 11.8-56.3t31.2-46.6 46.6-31.3 56.3-11.2q39.4 0 72.7 19.4t53.3 52.8 19.4 72.7q0 50.7-31.2 90.1t-79.9 51.2v40.4h49.2q14.3 0 24.6 10.3t10.2 24.6-10.2 24.5-24.6 10.3h-49.2v48.6q0 14.3-10.2 24.6t-24.6 10.2-24.6-10.2-10.2-24.6v-48.6h-48.6q-14.4 0-24.6-10.3t-10.3-24.5 10.3-24.6 24.6-10.3h48.6v-40.4q-48.1-11.8-79.4-51.2t-31.2-90.1z m69.6 0q0 31.2 22 53.8t53.8 22 53.8-22 22-53.8-22-53.8-53.8-22-53.8 22-22 53.8z" /></svg>