<svg height="512" width="536.2" xmlns="http://www.w3.org/2000/svg"><path d="m0 406v-260.1q0-17.9 12.8-30.7t30.7-12.8h14.9q1-16.9 13.8-28.2t29.7-11.7h97.3q16.9 0 29.7 11.7t13.8 28.2h179.7q17.9 0 30.7 12.8t12.8 30.7v43.5h33.8q17.9 0 28.2 12.8t7.1 30.8l-50.6 173.5q-3.1 17.9-18.5 30.7t-33.8 12.8h-388.6q-17.9 0-30.7-12.8t-12.8-30.7z m43.5-87l25.1-86.6q3.6-17.9 19-30.7t33.7-12.8h301.1v-43.5h-378.4v173.6z m20.5 87h368.1q2.6 0 5.7-2.5t3.5-5.2v-2l0.6-2.1 47.1-161.2h-368.2q-2 0-5.6 2.5t-3.6 5.1v2.1l-0.5 2z" /></svg>