<svg height="512" width="480.0" xmlns="http://www.w3.org/2000/svg"><path d="m0 279q0 59.9 17.9 95.8 19.5 37.9 59.9 56.3 41 19.5 83.5 23.6 38.4 4.6 82.9 4.6 19.5 0 48.2-1.6 24-1.5 51.7-6.6t47.1-13.3q22.5-9.8 41.4-25.6t29.7-37.4q17.4-35.9 17.4-95.8 0-68.6-39.4-114.6 7.7-23.1 7.7-48.7 0-33.8-14.3-62.5-29.7 0-53.3 10.3t-55.3 35.3q-39.4-9.2-80.9-9.2-45.5 0-89.1 10.2-32.7-25.6-56.3-36.3t-53.2-10.3q-14.9 28.7-14.9 62.5 0 25.6 7.7 49.2-39.4 46-39.4 114.1z m64.5 50.7q0-35.3 20.5-59.4t53.8-23.5q13.3 0 56.3 6.1 22 3.1 45 3.1t45.6-3.1q43.5-6.1 56.3-6.1 33.3 0 53.3 23.5t20.4 59.4q0 25.1-9.2 44.6-9.2 18.4-23 29.2t-35.3 17.4q-35.4 10.7-83.5 10.7h-48.6q-23.6 0-43-2-20.5-2.1-41.5-8.7t-34.3-16.9q-14.9-11.3-23.6-30.8t-9.2-43.5z m46.1 0q0 11.8 3.6 23.6 3.6 12.8 12.8 22.5t20.5 9.2q11.7 0 20.9-9.7 15.9-18.4 15.9-45.6 0-11.2-3.1-23.5-3.5-12.8-12.8-22.6t-20.4-9.2q-11.8 0-21 10.3-15.9 17.4-15.9 45z m184.8 0q0 11.8 3.6 23.6 3.6 12.8 12.8 22.5t20.5 9.2q12.3 0 21-9.7 15.9-18.4 15.9-45.6 0-10.7-3.6-23.5t-12.8-22.6-20.5-9.2q-11.8 0-20.5 10.3-16.4 17.4-16.4 45z" /></svg>