<svg height="512" width="480.0" xmlns="http://www.w3.org/2000/svg"><path d="m0 256q0-48.6 18.9-93.2t51.2-76.8 76.8-51.2 93.2-18.9 93.2 18.9 76.8 51.2 51.2 76.8 19 93.2-19 93.2-51.2 76.8-76.8 51.2-93.2 18.9-93.2-18.9-76.8-51.2-51.2-76.8-18.9-93.2z m101.4 15.9q0 33.8 10.2 54.2 11.8 22.6 34.3 32.3 23.6 10.8 47.6 13.3 20.5 2.6 47.7 2.6 15.3 0 27.6-0.5 31.7-1.6 56.3-11.3 29.2-12.3 41-36.4 10.2-20.9 10.2-54.2 0-39.5-22.5-65.6 4.6-12.8 4.6-27.6 0-19-8.2-35.9-16.9 0-30.7 6.2t-31.2 20.5q-22.6-5.7-46.6-5.7-26.7 0-50.7 6.2-19-14.9-32.3-21t-30.2-6.2q-8.7 16.9-8.7 35.9 0 12.8 4.6 28.1-22 26.2-22 65.6z m36.8 29.2q0-20.5 11.8-34.3t30.7-13.9q7.2 0 31.8 3.6 10.7 1.5 26.1 1.5 14.8 0 25.6-1.5 25.6-3.6 32.2-3.6 19 0 30.8 13.9t11.7 34.3q0 14.3-5.1 25-9.7 20-33.3 26.7-20.4 6.1-47.6 6.1h-27.6q-14.4 0-24.6-1-27.6-3.1-43-14.9-18.4-13.8-18.4-41.9z m26.2 0q0 7.6 2 13.3 2 7.6 7.2 12.8t11.7 5.1q6.7 0 11.8-5.6 9.2-10.3 9.2-26.2 0-7.6-2-13.8-2.1-7.7-7.2-12.8t-11.8-5.1q-6.6 0-11.7 5.6-9.2 10.8-9.2 26.1z m105.4 0q0 7.6 2.1 13.3 2 7.6 7.1 12.8t11.8 5.1q7.2 0 12.3-5.6 8.7-10.3 8.7-26.2 0-7.6-2-13.8-2.1-7.7-7.2-12.8t-11.8-5.1-11.2 5.6q-9.3 10.3-9.3 26.1z" /></svg>