<svg height="512" width="480.0" xmlns="http://www.w3.org/2000/svg"><path d="m0 256q0-48.6 18.9-93.2t51.2-76.8 76.8-51.2 93.2-18.9 93.2 18.9 76.8 51.2 51.2 76.8 19 93.2-19 93.2-51.2 76.8-76.8 51.2-93.2 18.9-93.2-18.9-76.8-51.2-51.2-76.8-18.9-93.2z m93.7 100.9q0 15.8 9.7 27.1t24.1 14.8q13.3 3.6 30.2 3.6 62.5 0 62.5-52.2 0-12.8-6.7-21.5t-17.9-12.3q-0.5 0-8.7-2.5t-12.3-3.1q-24.6-6.2-24.6-17.9 0-12.3 13.8-14.4 21.5-4.1 34.3-19.9t12.8-37.4q0-6.2-3-14.4 11.7-3 13.8-3.5v-35.4q-21.5 8.2-37.9 8.2-14.3-8.2-31.2-8.2-24.1 0-41 15.9t-16.4 39.9q0 14.4 8.2 28.7t20.5 18.4v0.6q-10.2 5.1-10.2 24 0 14.4 11.2 21.5v1.1q-31.7 10.7-31.7 38.9z m35.3-2.1q0-17.9 27.2-17.9 29.1 0 29.1 17.4 0 18.4-26.1 18.4-30.2 0-30.2-17.9z m3.6-131.6q0-25.1 21-25.1 10.2 0 15.4 7.2t5.6 17.9q0 23.6-21 23.6t-21-23.6z m100.9-106.5q0 10.3 7.1 18t16.9 7.6 16.9-7.6 7.2-17.5q0-10.2-6.7-17.9t-16.9-7.7-16.8 7.7-6.7 17.9z m4.1 202.8h38.9q-0.5-11.3-0.5-25.1v-104.4q0-11.8 0.5-21.6h-38.9q1 9.8 1 22.1v105.4q0 12.8-1 23.1z m54.8-118.3l10.2-0.5h3.6q1.5 0 3 0v0.5h-0.5v61.5q0 20.9 4.1 33.7 5.2 16.9 19 22.1 8.2 3.5 18.9 3.5 17.4 0 30.2-7.1v-33.8q-8.7 6.1-19.4 6.1-14.9 0-14.9-23v-63h14.4q4.1 0 7.6 0t7.7 0v-32.8h-29.7q0-23 0.5-28.6h-39.4q1 6.1 1 15.3v13.3h-16.9v32.8z" /></svg>