<svg height="512" width="480.0" xmlns="http://www.w3.org/2000/svg"><path d="m0 256q0-49.2 18.9-93.2t51.2-76.3 76.8-51.2 93.2-18.9 93.2 18.9 76.8 51.2 51.2 76.3 19 93.2q0 48.6-19 93.2t-51.2 76.8-76.8 51.2-93.2 18.9-93.2-18.9-76.8-51.2-51.2-76.8-18.9-93.2z m45.1 0q0 38.9 14.8 74.2t40.5 61.5 60.4 41.5 73.7 16.8q-3.6-4-5.6-17.4-0.5-3-1.1-12.8t-1.5-14.3q-0.5-3.1-9.2-27.6-2.6-7.7-5.6-9.8t-11.3-2.5q-4.6 0-12.8-0.5t-13.8-0.6-13.3-1-12.8-3.1-10.3-5.6-8.7-9.2-4.6-13.3q-5.6-31.8 19.5-52.7 12.8-10.3 26.6-14.4t32.8-3.1q12.2 0 21.5 7.2 11.2 9.2 22.5 9.7 2.5 0 11.2 1.1t14.4 1 12.8-0.5 12.3-3.6v-3.1q0-1 0.5-4.1t0.5-4.6-0.5-4.1-2.6-3.1q-2-1-10.2-0.5t-10.3-2q-4.6-4.1 1.1-8.7t15.3-8.2 10.8-5.1q7.1-7.7-3.1-9.8t-20 2.1q-2 1-3 2-4.6 4.1-9.2 14.9-1.1 3.1-4.7 8.2t-4.6 7.7q-0.5-1.1-2.5-3.1t-2.6-3.1q-1.5-1.5-5.6-10.2-0.5-1-1-3.1t-1.1-3.6-1.5-3.1-2-2.5-2.6-1.5-3.6 0q-0.5 5.1 3.6 11.7t4.1 10.3q0 6.6-3.1 6.1t-7.2-6.6q-1-1.6-2.5-4.7t-2.6-4.6-3-3-4.7-2.1-6.1 0q-6.7 1-10.2 3.6-1.1 0.5-3.6 4.1t-5.1 4.1q-1.6 8.7-13.4 8.2-0.5 0-3 0t-4.1 0-4.1-0.5-3.6-1-2-2.1q-1.1-2.6 1-10.7t4.6-10.8 5.1-3.6 9.7-0.5 6.7 0q1-4.6-2.6-8.2t-4.1-5.1q-0.5-2.6-0.5-4.1t1.6-2.1 3-0.5h3.6t3.1 0q9.2-1.5 15.3-7.6 0 0 2.1-1.6t2.6-2l2.5-1.6t2.6-1 3-0.5 3.1 0.5q1 0 3.1 2.6t3.1 2.5q1.5 0.5 8.2-1.5t9.7-5.1 6.6-9.2q6.7-10.3 2.1-18-3.1-4.1-7.7-3t-7.2 6.1q-0.5 1.5-1.5 5.6t-2 6.2-3.1 4.1q-2.6 1.5-8.2 2t-8.7-1q-2.1-1-3.1-3.1t-1-3.5 0.5-5.2 0.5-4.6q0-2 0.5-3.6t1-3 2.1-2.6 2-2.6 2.6-2.5 2.6-2.6q4.1-4.1 8.2-6.1t9.7-2.1 8.7 0 10.2 2.1 9.2 2q8.7 1.6 18.5-9.2 1.5-2 4.6-4.6t4.1-4.6 1-5.6q0-3.6-0.5-12.3t-1-14.4 1-13.3 4.1-12.3q-31.8-11.7-66.1-11.7-24 0-48.1 6.1v1q0 9.8 1 10.8 2.1 2.5 8.2 3.6t11.3 1 9.2 3.6 2.1 9.2q-1.6 7.2-9.8 15.9t-16.4 14.8q-10.2 7.7-25 9.7 0 0-3.1 0.6t-3.6 0.5-4.1 0-4.6 0-4.1-0.5-4.1-1.1-2.6-1.5-2-2.6-0.5-3.5q0-4.7 4.6-8.2t8.7-5.2 10.7-3.5 8.8-2.6q0.5-6.1-1.6-8.2t-6.1-1-8.7 3.1-8.7 3-7.7-0.5q-1-4.1 3.1-6.6t4.6-3.6q2-5.1-4.6-9.8-14.9 8.2-26.7 18 5.2 0.5 8.7 3t3.1 7.2q0 2.6-1 4.6t-2.1 3.1-3 3.1-3.1 2.5q-7.7 7.2-10.8 12.8-1.5 2.1-3.5 10.8t-5.7 10.7q-5.6 3.1-7.7 0t-2.5-9.7v-4.1t-0.5-1.5-2.1-1.6q-3-1-9.2 0.5-34.8 49.7-34.8 111.1z m252.4 36.9q-0.5 15.3 10.2 27.1 13.8 14.3 26.6 16.4 5.2 1 14.9-0.5t12.8-1.6q0 8.7-9.7 27.2-10.8 18.9-16.9 25.1-1.1 1-3.6 3.5t-3.6 3.1-2.6 3.1-2 3.6-0.5 3.6 1 4.6q0.5 1 2 4.6t1.6 4.1-0.5 4.6q-0.5 2-2.1 3t-3.6 2.1-3 1.5q-2.1 1.6-5.7 4.1t-6.6 5.1-6.2 4.1q59.4-19.4 97.3-70.1t37.9-114.7q0-6.6-1-18.4-2.1 2.5-2.1 6.1-1 8.7-1 10.8 0 1.5 0.5 7.1t0 9.3-2 6.1q-1.6 1.5-3.1 2.1t-3.6-1.1-3.6-2.5-3.6-3.6-3.5-2.6q-4.6-3-7.2-4.6t-6.7-3.1-7.6-1-8.2 2.1q-9.3 4.6-20 4.6-1.5 0-5.6 0t-6.2 0-5.6 0.5-5.1 2q0.5 5.7 4.1 10.3t8.7 5.1q2.5 0 3.6-1t2.5-2.6 2.6-2q3.6-2.6 11.7-2.1 0.6 12.8 0 15.9t-3 6.1-3.1 6.2q0 1-1 5.1t-1 5.1-2.1 4.1-3.6 4.1q-4.1 3.1-8.7 4.6t-8.7-1q-1.5-1-4.1-5.1t-4.6-5.1q-1.5-1.1-2.5-2.1t-2.6-2.6-2.1-2.5-2-3.1-2.1-3.1q-3-4.1-10.7-9.2t-9.7-7.7q-2.1 1.1-2.6 2.1t-0.5 4.6z" /></svg>