<svg height="512" width="480.0" xmlns="http://www.w3.org/2000/svg"><path d="m0 256q0-49.2 18.9-93.2t51.2-76.3 76.8-51.2 93.2-18.9 93.2 18.9 76.8 51.2 51.2 76.3 19 93.2q0 48.6-19 93.2t-51.2 76.8-76.8 51.2-93.2 18.9-93.2-18.9-76.8-51.2-51.2-76.8-18.9-93.2z m79.9-111.1q7.1-1 9.2 0 1 0.5 2 1t0.5 1 0 1.6v2.5q0.6 14.9 10.3 9.3 3.6-2.1 5.6-10.8t3.1-10.7q2.6-4.7 11.3-12.8 1-0.6 3-2.6t3.1-3.1 2-3.1 1.1-4.6q0-4.6-3.6-7.1t-8.7-3.1q-22.5 17.9-40 42z m42.5 188.9q1.5 9.2 6.1 15.4t10.3 9.7 14.3 5.1 14.8 2.1 16.4 0.5 14.9 0.5q8.7 0.5 11.2 2.6t5.7 9.7q1 2.6 3 8.7t3.6 10.2 2.1 8.7q1 5.2 1.5 14.4t1 12.8q2.1 12.3 5.7 16.9 1 0 3 0t3.1 0q30.2 0 61.4-10.3 3.6-2 9.8-7.1t7.7-5.7q1-0.5 3-1.5t3.6-2.1 2.1-3.5q1-1.6 0.5-3.6t-0.5-3.1-1.6-3.1-1.5-3.5q-1-2.6-1-4.7t0.5-4.1 2-3.5 2.6-3.1 3.6-3.1 3.5-3.6q6.7-6.6 16.9-25.1t10.3-27.1q-3.6 0-12.8 1.5t-14.9 1.1q-12.8-2.1-26.6-16.4-11.3-11.8-10.2-27.7 0-3 0.5-4.1t2.5-2q2.6 2.6 10.3 7.7t10.2 9.2q1 1 2.6 3.6t2.5 3.6 2.6 3 3.6 3.1 4.6 5.1 4.6 5.1q4.1 2.6 8.7 1.1t8.7-4.6q2.1-1.6 3.6-4.1t2-4.1 1.1-5.2 1-4.6q0.5-2.5 3.1-6.6t3-6.2 0-15.8q-8.2 0-11.7 2-1.1 0.5-3.1 3.1t-5.1 2.5q-5.7 0-8.7-5.1t-3.6-10.2q2-1.5 5.1-2.1t5.1-0.5 6.7 0 5.6 0q9.2 0 20-4.6 4.1-2 8.2-2.5t7.6 1 6.7 3.1 7.2 4.6q1 1 3.6 3t3.5 3.6 3.6 2.6 3.6 1 3.1-2q1.5-2.1 2-6.2t0-9.7-0.5-6.7l1-10.2q0-1.5 2.1-6.2-5.6-56.8-40.5-101.3t-87.5-63.5q-3.6 6.1-4.6 14.8t0 21.5 1 15.9q0 3.6-1 5.6t-4.1 4.6-4.6 4.1q-9.8 10.8-18.5 9.3-2.5-0.6-9.7-2.1t-10.2-2-8.7 0-9.8 2-8.7 6.2q-0.5 0.5-3 3t-3.1 3.1-2.1 3.1-2 3.6-0.5 4q0 1.1-0.5 4.7t-0.5 5.1 1 3.6 3.1 3.5q3 1.6 8.2 1.1t8.1-2.1q2.6-2 4.7-8.7t2-7.2q2.6-5.1 7.2-6.1t7.6 3.1q4.7 7.1-2 17.9-3.6 6.1-7.2 9.2t-9.7 5.1q-0.5 0-2 1.1t-3.1 1-3.1 0q-1-0.5-3.1-2.6t-3-2.5q-6.2-1.6-15.4 7.1-7.2 6.7-15.4 7.7-1 0-3 0h-3.6t-3.1 0.5-1.5 2.1 0.5 4.1q0.5 1.5 4.1 5.1t2.6 8.2q-1.6 0-5.7 0t-6.6 0-5.7 1-4.6 3.1q-2 3-4.6 11.2t-1 10.3q2 4.1 17.4 4.1 11.8 1 13.3-8.2 2.1-1 5.1-4.1t4.1-4.1q3.6-3.1 10.3-3.6 3.6-0.5 6.1 0t4.6 2.1 3.1 3 2.6 4.6 2.5 4.6q5.1 7.7 8.7 6.7 2.1-0.5 1.6-6.1 0-3.6-4.1-9.8t-3.6-11.2q2.5 0 4.1 0t3 2 2.1 3.6 1.5 4.1 1.6 3.6q2.5 7.1 5.1 10.2 0 0 2.5 2.6t3.1 3.6q0.5-1.1 4.1-6.7t5.1-9.2q4.1-10.3 9.2-14.9t18-4.6q10.7 0 10.7 5.1 0 2.1-3.1 4.7-1.5 1.5-10.7 5.1t-15.4 8.2-1 8.7q2.6 2.5 10.2 2t10.3 0.5q2 1.1 2.5 3.1t0.6 3.6-0.6 4.6-0.5 4.1v3.1q-6.1 3.5-14.3 4.1t-22-0.6-14.4-1q-10.7-0.5-22.5-9.7-5.6-4.1-9.7-5.6t-11.8-1.6q-36.3-1-59.4 17.4-25.6 21-19.9 52.8z m21-228.8q3 1.5 7.6 0.5t9.3-3.1 8.7-3.1 6.1 1.1 1.5 8.1q-2 0.6-8.7 2.6t-10.7 3.6-8.7 5.1-4.6 8.2q0 2 0.5 3.6t2 2.5 3.1 1.6 4.1 1 4.1 0.5 4.6 0 4.1 0 3.6-0.5 3.1-0.5q14.8-2.1 25-9.2 23.1-17.4 26.2-30.7 1.5-6.2-2.1-9.3t-9.2-3.5-11.3-1.1-8.2-3.6q-1-1-1-10.7 0-1 0-1-33.3 10.7-45 17.4 6.6 4.6 4.6 9.7-0.5 1-4.6 3.6t-3.1 6.6z" /></svg>