<svg height="512" width="480.0" xmlns="http://www.w3.org/2000/svg"><path d="m0 256q0-48.6 18.9-93.2t51.2-76.8 76.8-51.2 93.2-18.9 93.2 18.9 76.8 51.2 51.2 76.8 19 93.2-19 93.2-51.2 76.8-76.8 51.2-93.2 18.9q-49.1 0-94.2-19.4h0.5q54.3 0 87.1-26.1t32.2-62q0-23.5-12.3-41-10.2-13.3-26.6-26.1-9.2-7.1-12.3-10.2-12.8-10.8-12.8-21 0-12.8 16.9-27.6 4.6-4.1 13.8-13.9 16.9-17.9 16.9-47.6 0-19.4-8.1-36.3t-23.6-26.7h28.7l29.2-16.3h-93.2q-19 0-40 4.1-30.2 6.6-50.1 30.2t-20 53.2q0 31.2 22.5 52.2t54.8 21q3.1 0 14.9-1 0 1-1.6 5.1t-1.5 4.1q-1 3.6-1 9.2 0 14.4 13.8 31.8-15.9 0-31.8 2.5-41.9 7.2-64 23.1-11.2 8.2-18.4 19.9t-9.2 24.1q-49.7-64-49.7-145.9z m88.1 144.4q0-13.8 5.6-23.1 9.7-16.9 35.8-25.6 21-7.1 45.6-7.1 5.6 0 10.8 0.5 1 0.5 13.3 9.2 0.5 0.5 3.6 2.6t5.6 4.6 3.6 3 3.6 3.1 5.1 4.6 3.6 3.6q0 1 4.1 6.7 3 4.1 3.5 7.6 3.1 9.3 3.1 16.4 0 27.2-21.5 39.5-19.5 10.7-45.6 10.7-28.1 0-52.2-12.8-12.3-6.7-20-17.9t-7.6-25.6z m23-213q0-21.5 11.3-35.8t30.7-14.4q13.3 0 25.1 8.7t18.4 22.5q13.3 28.7 13.3 54.8 0 22-9.7 34.8t-29.7 12.8q-10.2 0-21-5.6-17.4-10.7-28.7-34.3-10.2-21.5-10.2-43z m155.7 16.9h54.2v54.3h27.2v-54.3h54.7v-27.1h-54.7v-54.3h-27.2v54.3h-54.2v27.1z" /></svg>