<svg height="512" width="480.0" xmlns="http://www.w3.org/2000/svg"><path d="m0 256q0-49.2 18.9-93.2t51.2-76.3 76.3-51.2 93.2-18.9q48.7 0 93.2 18.9t76.8 51.2 51.2 76.3 18.9 93.2q0 48.6-18.9 93.2t-51.2 76.8-76.8 51.2-93.2 18.9q-49.1 0-93.2-18.9t-76.3-51.2-51.2-76.8-18.9-93.2z m59.9 0q0 36.4 14.3 69.6t38.4 57.4 57.4 38.4 69.6 14.3 69.6-14.3 57.4-38.4 38.4-57.4 14.3-69.6q0-49.2-24-90.1t-65.6-65.5-90.1-24.1-90.1 24.1-65.5 65.5-24.1 90.1z m110.6-90.6l15.9 52.2q23-14.8 47.6-14.8 25.1 0 25.1 11.7 0 2.1-1.1 3.6t-2 3.1-3.1 2.5-3.6 2.1-4.1 2l-4 2.1-20.5 10.7q-10.8 6.2-14.4 12.8t-3 19v18.9h59.9v-8.2q0-3.5 0-5.1t1-3.1 3.1-2.5q0.5 0 5.1-2.6t8.7-4.1 9.7-5.1 9.7-6.6q9.8-8.8 14.9-19t5.1-28.2q0-25-21.5-42.4t-54.3-17.5q-42.5 0-75.7 19z m24.6 171q0 16.4 10.2 25.1t28.2 8.7q17.4 0 27.6-8.7t10.3-25.1-10.3-25.1-27.6-9.2q-17.9 0-28.2 9.2t-10.2 25.1z" /></svg>