<svg height="512" width="480.0" xmlns="http://www.w3.org/2000/svg"><path d="m0 256q0-48.6 18.9-93.2t51.2-76.8 76.3-51.2 93.2-18.9q48.7 0 93.2 18.9t76.8 51.2 51.2 76.8 18.9 93.2-18.9 93.2-51.2 76.8-76.8 51.2-93.2 18.9q-49.1 0-93.2-18.9t-76.3-51.2-51.2-76.8-18.9-93.2z m170.5-90.1l15.9 52.2q23.5-14.8 47.1-14.8 25.6 0 25.6 11.2 0 2.1-1.1 4.1t-3 3.6-3.6 2.6-5.1 3-4.6 2.6l-20.5 10.8q-10.8 6.1-14.4 12.8t-3 18.9v19.5h59.9v-8.2q0-3.6 0-5.2t1-3 3.6-2.6q0 0 5.1-2.6t9.2-4.6 9.2-5.1 9.3-6.6q10.2-8.7 15.3-19t5.1-28.7q0-25-21.5-42.4t-54.2-17.5q-43.6 0-75.8 19z m24.6 170.5q0 16.4 10.2 25.1t28.2 8.7q17.4 0 27.6-8.7t10.3-25.1-10.3-25.1-27.6-9.2q-17.9 0-28.2 9.2t-10.2 25.1z" /></svg>