<svg height="512" width="300.0" xmlns="http://www.w3.org/2000/svg"><path d="m0 454.1v-35.8q0-11.3 6.1-25.1t12.3-23.5 19.5-28.2l12.3-16.4t13.8-18.4 11.3-16.9 9.2-17.9 3.1-15.4-3.1-15.3-9.2-18-11.3-16.9-13.8-18.4l-12.3-16.4q-13.3-18.9-19.5-28.1t-12.3-23.6-6.1-25.1v-35.8q0-17.4 12.3-29.7t30.2-12.3h214.5q17.9 0 30.2 12.3t12.3 29.7v35.8q0 11.3-6.1 25.1t-12.3 23.6-19.5 28.1l-12.3 16.4t-13.8 18.4-11.2 16.9-9.3 18-3 15.3 3 15.4 9.3 17.9 11.2 16.9 13.8 18.4l12.3 16.4q12.8 18.4 19.5 28.2t12.3 23.5 6.1 25.1v35.8q0 17.5-12.3 29.7t-30.2 12.3h-214.5q-17.9 0-30.2-12.3t-12.3-29.7z m51.2-17.9h20.5q0-4.1 1-8.7t4.6-9.2 6.2-8.7 8.7-8.7 9.7-8.2 11.3-8.7 11.7-8.2 12.8-8.7 12.3-8.7q4.1 2.6 13.8 9.7t14.4 10.3 12.8 9.2 12.3 10.2 9.7 9.8 8.2 10.2 5.1 9.7 2.1 10.3h20.4v-18q0-3.5-6.6-15.8-4.1-7.2-21.5-32.3-27.2-38.4-36.4-55.3-17.4-32.2-17.4-58.9 0-13.3 4.1-27.6t12.8-29.7 15.4-25.1 18.4-26.1l3.6-5.1q16.9-23.6 21.5-32.3 3.1-5.1 4.6-8.7t2-5.1v-19h-197.6v18q0 4.1 6.7 15.3 5.1 8.7 21.5 32.3 27.1 38.4 36.3 55.3 17.4 32.2 17.4 58.9 0 13.3-4.1 27.6t-12.8 29.7-15.3 25.1-18.5 26.1q-0.5 0.5-1 1t-1 1.1-1 1.5-1.1 1.5q-17.4 25.1-21.5 32.3-6.6 12.3-6.6 15.9v17.9z" /></svg>