<svg height="512" width="480.0" xmlns="http://www.w3.org/2000/svg"><path d="m0 256q0-48.6 18.9-93.2t51.2-76.8 76.8-51.2 93.2-18.9 93.2 18.9 76.8 51.2 51.2 76.8 19 93.2-19 93.2-51.2 76.8-76.8 51.2-93.2 18.9-93.2-18.9-76.8-51.2-51.2-76.8-18.9-93.2z m90.1 0q0 40.4 20 75.3t54.8 54.7 75.2 20 75.3-20 54.8-54.7 19.9-75.3q0-41-19.9-75.3t-54.8-54.7-75.3-20-75.2 20-54.8 54.7-20 75.3z m90.6 76.8q50.7-3.1 85.5-40.4t34.9-88.1q0-13.8-2.6-27.1 18.4 13.3 28.7 34.3t10.7 44q0 40.4-28.7 68.6t-68.6 28.7q-33.2 0-59.4-20.5z" /></svg>