<svg height="512" width="419.0" xmlns="http://www.w3.org/2000/svg"><path d="m0.5 450.6q-2-15.9 2.6-39.5l22.5-105.9q12.3-46.1 41-46.1h62.4v-201.8q0-16.9 23.6-29.1t56.8-12.3 56.8 12.3 23.6 29.1v201.8h62.5q28.6 0 40.9 46.1l22.5 105.9q4.7 23.1 2.6 39.5t-10.2 26.1-17.4 14.8-20 4.6h-323.1q-10.2 0-20-4.6t-17.4-14.8-10.2-26.1z m88.6-113.7q0 25.6 35.3 44t85 18.5q50.2 0 85-18.5t35.3-44q0-13.3-10.7-25.6t-29.7-21v45.6q0 16.9-23.6 29.2t-56.8 12.2-56.8-12.2-23.6-29.2v-45.6q-18.9 8.7-29.2 21t-10.7 25.6z m78.3-279.6q0 9.3 12.3 15.4t29.7 6.7 29.7-6.7 12.3-15.4-12.3-15.3-29.7-6.2-29.7 6.2-12.3 15.3z" /></svg>