<svg height="512" width="465.0" xmlns="http://www.w3.org/2000/svg"><path d="m1 129.5q4.6-21.5 23.1-33.2 18.4-12.3 39.9-7.7t33.8 23q9.2 14.9 8.7 31.2t-10.2 29.7q11.2 16.4 23 27.7t21 16.4 16.4 7.1 13.3 2.1q1 0 10.2-1.5 10.8 0 18.5-8.2t11.2-22.1 5.1-27.1 2.1-29.2q-16.4-5.1-26.6-18.9t-10.3-31.2q0-22.1 15.4-37.4t37.9-15.4 37.9 15.4 15.3 37.4q0 17.4-10.2 31.2t-26.6 18.9q0 15.9 2 29.2t5.1 27.1 11.3 22.1 18.4 8.2q1 0 3.1 0.5t3.6 0.5 3 0.5q6.2 0 13.4-2.1t16.3-7.1 21-16.4 23.1-27.7q-10.3-13.3-10.8-29.7t8.7-31.2q11.8-18.4 33.3-23t39.9 7.7q18.5 11.7 23.1 33.2t-7.2 40q-9.7 14.3-25.1 20.5t-31.7 2q-14.9 22.5-27.7 50.7t-17.4 45l-5.1 16.9q-3.6 16.4-8.2 41.5t-8.2 50.2-5.1 32.8q-2.6 14.3-18.9 25.6t-36.9 16.9-39.9 5.6q-19.5 0-40.5-5.6t-36.9-16.9-18.9-25.6q-1-7.2-4.6-32.8t-7.7-50.7-8.7-41.5q-1.5-7.1-5.1-18.9t-16.4-41.5-28.2-52.2q-16.3 4.1-31.7-2.1t-25.1-20.4q-11.8-18.5-7.7-40z" /></svg>