<svg height="512" width="454.2" xmlns="http://www.w3.org/2000/svg"><path d="m4.1 386q-8.7-33.7 0-67.5t34.3-58.9l67.1-67.1q25.1-25.1 58.9-34.3t67.5 0 58.9 34.3q10.3 10.3 10.3 25.6t-10.3 25.6-25.6 10.3-25.6-10.3q-17.4-17.4-42-17.4t-41.4 17.4l-67.1 67.1q-16.9 17.4-16.9 42t16.9 42q17.4 16.8 41.5 16.8t41.4-16.8l13.9-13.9q39.9 19.5 83.9 17.9l-46.6 46.6q-25.1 25.1-58.8 34.3t-67.6 0-58.9-34.3-34.3-58.8z m149-91.6q0-14.8 10.7-25.6 10.3-10.2 25.6-10.2t25.6 10.2q16.9 17.4 41.5 17.4t42-17.4l67.1-67.1q17.4-17.4 17.4-42t-17.4-41.4q-16.9-17.4-41.5-17.4t-42 17.4l-13.8 13.3q-39.4-19-83.5-17.9l46.6-46.6q25.1-25.1 58.9-33.8t67.6 0 58.9 33.8q25.1 25.1 34.3 58.9t0 67.5-34.3 58.9l-67.1 67.1q-25.1 25.1-58.9 34.3t-67.6 0-58.3-34.3q-10.8-10.3-10.8-25.6z" /></svg>