<svg height="512" width="480.0" xmlns="http://www.w3.org/2000/svg"><path d="m0 406v-300q0-37.4 26.1-63.5t63.5-26.1h300q37.4 0 63.5 26.1t26.1 63.5v300q0 37.4-26.1 63.5t-63.5 26.1h-300q-37.4 0-63.5-26.1t-26.1-63.5z m79.9 0q0 4.1 3 7.2t7.2 3.1h59.9q4.1 0 7.2-3.1t3.1-7.2v-199.7q0-4.1-3.1-7.1t-7.2-3.1h-59.9q-4.1 0-7.2 3.1t-3 7.1v199.7z m0-270.8q0 15.8 11.2 27.1t27.2 11.3q16.9 0 27.6-11.3 11.3-11.3 11.3-27.1t-11.3-27.2-27.1-11.2-27.2 11.2-11.2 27.2z m99.8 270.8q0 4.1 4.6 7.2t9.7 3.1h56.9q3.6 0 6.1-3.1t2.6-7.2v-109q0-43.6 35.8-43.6 14.9 0 19.5 6.7t4.6 23.5v122.9q0 4.1 3.6 7.2t8.2 3.1h57.8q4.1 0 7.2-3.1t3.1-7.2v-135.7q0-39.4-22.6-59.9t-63.5-20.9q-28.1 0-49.1 14.3-4.1 2.5-4.6 3.6 0-11.3-10.8-11.3h-54.8q-5.1 0-9.7 2.6t-4.6 6.1v201.2z" /></svg>