<svg height="512" width="480.0" xmlns="http://www.w3.org/2000/svg"><path d="m0 256q0-48.6 18.9-93.2t51.2-76.8 76.8-51.2 93.2-18.9 93.2 18.9 76.8 51.2 51.2 76.8 19 93.2-19 93.2-51.2 76.8-76.8 51.2-93.2 18.9-93.2-18.9-76.8-51.2-51.2-76.8-18.9-93.2z m116.2 77.3q0 19.5 13.8 32.8t32.8 13.3h154.6q19.5 0 32.8-13.3t13.8-32.8v-154.6q0-19.5-13.8-32.8t-32.8-13.3h-154.6q-19.4 0-32.8 13.3t-13.8 32.8v154.6z m41.5 0v-102.9q0-2 1.5-3.6t3.6-1.5h31.2q2.1 0 3.6 1.5t1.6 3.6v102.9q0 2.1-1.6 3.6t-3.6 1.5h-31.2q-2 0-3.6-1.5t-1.5-3.6z m0-139.8q0-8.2 5.6-13.8t13.9-6.1q8.1 0 14.3 5.6t5.6 14.3-5.6 13.9q-6.2 6.1-14.3 6.1t-13.9-5.6-5.6-14.4z m51.7 139.8v-103.9q0-2.1 2.6-3.1t4.6-1h28.6q5.7 0 5.7 5.6 0-0.5 2-2 11.3-7.2 25.6-7.2 21 0 32.8 10.7t11.8 31.3v70.1q0 2.1-1.6 3.6t-3.5 1.5h-30.3q-2 0-4.1-1.5t-2-3.6v-63q0-8.7-2.6-11.7t-10.2-3.6q-18.4 0-18.4 22.5v56.3q0 2.1-1.6 3.6t-3 1.6h-29.7q-2.1 0-4.6-1.6t-2.6-3.6z" /></svg>