<svg height="512" width="353.0" xmlns="http://www.w3.org/2000/svg"><path d="m0 450.6v-201.3q0-7.1 5.1-12.2t12.8-5.2h229.9v-76.3q0-32.2-21.5-55.2-21-21.6-49.7-21.6t-49.6 21.6q-21 22.5-21 55.2v19.5h-64.5v-19.5q0-28.1 10.2-53.2t28.7-45.1q18.4-19.4 43.5-30.7t53.3-10.7 53.2 10.7 43.5 30.7q18.5 19.5 28.7 45.1t10.2 53.2v76.3h23.1q7.7 0 12.8 5.2t5.1 12.2v201.3q0 6.6-4.1 9.7t-13.8 7.2q-5.1 2-17.9 6.1t-33.8 9.2-50.2 9.2-57.4 3.6q-79.3 0-158.7-28.7-8.7-2.5-13.3-6.6t-4.6-10.3z m95.7-87.6q0 6.2 4.1 10.2l43.6 42.5q4.1 4.1 10.2 4.1 6.7 0 10.2-4.1l89.6-87.5q4.6-4.6 4.6-10.8t-4.6-10.7q-4.1-4.1-10.2-4.1t-10.2 4.1l-79.4 77.3-32.8-31.7q-4.6-4.7-10.7-4.7t-10.8 4.7q-4.1 4.1-4.1 10.2z" /></svg>