<svg height="512" width="547.3" xmlns="http://www.w3.org/2000/svg"><path d="m16.4 251.9v-95.7q0-27.7 10.2-53.3t28.2-45q18.4-20 43-30.8t52.2-10.7 52.2 10.7 42.5 30.8 28.2 44.5 10.2 53.2v75.8h231.5q7.1 0 12.2 5.1t5.2 12.3v201.2q0 4.7-2.6 7.7t-5.1 4.6-9.7 4.6q-5.7 2.1-18 6.2t-33.8 9.2-50.1 9.2-57.4 3.6q-79.3 0-158.7-28.7-8.7-3-13.3-6.6t-4.6-10.3v-201.2q0-7.1 5.1-12.3t12.3-5.1h23v-75.8q0-31.7-21-54.7-20.4-21.6-48.6-21.6-29.2 0-48.6 21.6-21 22.5-21 54.7v23.6l-30.7 36.9h30.7v35.3l-30.2 22.5z" /></svg>