<svg height="512" width="480.0" xmlns="http://www.w3.org/2000/svg"><path d="m0 251.4q0-16.9 12.3-29.2t29.2-11.8h176.1l-56.8-56.8q-11.8-11.8-11.8-29.2t11.8-29.2q12.3-11.7 29.2-11.7t29.1 11.7l126.5 127q12.3 11.8 12.3 29.2t-12.3 29.2l-123.9 124.4q-11.8 11.8-29.2 11.8t-29.2-11.8-11.7-29.2 11.7-29.2l53.8-53.7h-176.1q-16.9 0-29.2-12.3t-12.3-29.2z m298 203.3q0-16.9 12.3-29.2t29.2-12.3h36.8q9.2 0 15.4-6.2t6.1-15.3v-272.4q0-8.7-6.1-14.9t-15.4-6.1h-36.8q-16.9 0-29.2-12.3t-12.3-29.2 12.3-29.2 29.2-11.7h36.8q43 0 73.7 30.2t30.3 73.2v272.4q0 43-30.8 73.7t-73.2 30.2h-36.8q-16.9 0-29.2-12.3t-12.3-29.2z" /></svg>