<svg height="512" width="480.0" xmlns="http://www.w3.org/2000/svg"><path d="m0 451.1v-389.7q0-18.4 13.3-31.7t31.8-13.3h59.9v90.1h269.8v-90.1h59.9q18.4 0 31.7 13.3t13.3 31.7v389.7q0 18.4-13.3 31.7t-31.7 13.3h-59.9v-90.1h-269.8v90.1h-59.9q-18.5 0-31.8-13.3t-13.3-31.7z m37.9-22.6v30.3h30.2v-30.3h-30.2z m0-45h30.2v-30.2h-30.2v30.2z m0-74.8h30.2v-30.2h-30.2v30.2z m0-75.2h30.2v-30.2h-30.2v30.2z m0-74.8h30.2v-30.2h-30.2v30.2z m0-75.2h30.2v-30.3h-30.2v30.3z m67.6 247.8h269.8v-150.1h-269.8v150.1z m306.7 97.2v30.3h30.2v-30.3h-30.2z m0-45h30.2v-30.2h-30.2v30.2z m0-74.8h30.2v-30.2h-30.2v30.2z m0-75.2h30.2v-30.2h-30.2v30.2z m0-74.8h30.2v-30.2h-30.2v30.2z m0-75.2h30.2v-30.3h-30.2v30.3z" /></svg>