<svg height="512" width="480.0" xmlns="http://www.w3.org/2000/svg"><path d="m0 402.4v-292.3q0-20 14.3-34.3t34.3-14.4h286.2q20 0 34.4 14.4t14.3 34.3v32.7h48.1q20 0 34.3 14.4t14.4 34.3v211.4q0 20-14.4 34.3t-34.3 14.4h-383q-19.9 0-34.3-14.4t-14.3-34.3z m44.5-22q0 10.3 7.2 17.4t17.4 7.7h265.2q3.1 0 3.6-3.1v-270.3q0-10.8-7.7-18.4t-18.4-7.7h-241.7q-10.7 0-18.4 7.2t-7.7 17.9v248.8z m37.9-35.8q0-9.2 6.7-15.9t15.9-6.7h68.1q9.2 0 15.8 6.7t6.7 15.9-6.7 15.8-15.8 6.7h-68.1q-9.3 0-15.9-6.7t-6.7-15.8z m0-88.6q0-9.2 6.7-15.9t15.9-6.6h173q9.2 0 15.9 6.6t6.6 15.9q0 9.2-6.6 15.9t-15.9 6.6h-173q-9.3 0-15.9-6.6t-6.7-15.9z m0-88.6q0-9.2 6.7-15.8t15.9-6.7h173q9.2 0 15.9 6.7t6.6 15.8q0 9.2-6.6 15.9t-15.9 6.7h-173q-9.3 0-15.9-6.7t-6.7-15.9z m301.1 213q0 10.3 7.2 17.4t16.9 7.7h2.5q10.3-0.5 17.4-7.7t7.2-17.9v-188.9q0-3.6-3.1-3.6h-48.1v193.5z" /></svg>