<svg height="512" width="480.0" xmlns="http://www.w3.org/2000/svg"><path d="m0 256q0-48.6 18.9-93.2t51.2-76.8 76.8-51.2 93.2-18.9 93.2 18.9 76.8 51.2 51.2 76.8 19 93.2-19 93.2-51.2 76.8-76.8 51.2-93.2 18.9-93.2-18.9-76.8-51.2-51.2-76.8-18.9-93.2z m45.1 0q0 52.7 26.1 97.8t70.6 71.2 97.8 26.1 97.8-26.1 71.2-71.2 26.1-97.8q0-39.4-15.4-75.8t-41.4-62.4-62.5-41.5-75.8-15.4-75.8 15.4-62.4 41.5-41.5 62.4-15.4 75.8z m60.4-102.4q3-3.6 11.7 0l270.9 109.1q5.6 2 7.7 5.1t0.5 6.1-6.7 5.7l-48.1 23-33.8 59.4q-4.6 7.2-12.3 8.2t-13.8-5.7l-6.7-6.6q-0.5-0.5-1-0.5l-14.8-14.9-36.4 16.9q-8.2 3.6-16.4 0.5t-12.3-11.2l-88-183.3q-4.1-8.2-0.5-11.3z m51.7 33.3q0 0.5 1 2.5t4.6 5.2l96.3 86q7.1 6.1 16.9 7.7t17.4-1.6q7.7-3.1 7.7-9.2t-8.2-10.2l-128-76.3q-4.1-2.1-6.2-3.1t-2.5-0.5z" /></svg>