<svg height="512" width="480.0" xmlns="http://www.w3.org/2000/svg"><path d="m0 388.1v-261.6q0-18 13.3-30.8t31.8-12.8h30.2v-7.1q0-18.5 13.3-31.3t31.7-12.8h239.6q18.5 0 31.8 12.8t13.3 31.3v10.2q0-0.5 0.5-1.5t0.5-1.6h29.2q18.4 0 31.7 12.8t13.4 30.8v261.6q0 17.9-13.4 30.7t-31.7 12.8h-30.2v5.1q0 18.5-13.3 31.3t-31.8 12.8h-239.6q-18.4 0-31.7-12.8t-13.3-31.3v-5.1h-30.2q-19 0-31.8-12.8t-13.3-30.7z m105 48.6q0 5.7 4.1 9.8t10.2 4.1h239.6q6.2 0 10.8-4.1t4.6-9.8v-173.5q-10.8-6.2-23.1-6.2h-224.7q-11.8 0-22.1 6.2v173.5z m0-313.3q7.6 3.1 14.8 3.1h239.6q6.2 0 14.9-2.6v-48.1q0-5.7-4.6-9.8t-10.8-4h-239.6q-6.1 0-10.2 4t-4.1 9.8v48.1z" /></svg>