<svg height="512" width="540.0" xmlns="http://www.w3.org/2000/svg"><path d="m0 418.3v-89.1h117.2q13.9 0 26.2-5.1 16.3 43 50.6 74.2-36.3 19.5-76.8 19.5h-117.2z m0-235v-88.6h117.2q32.8 0 63 12.8t51.7 34.3 34.3 51.7 12.8 63q0 30.2 21.5 51.2t51.8 21.5h43q0.5 0 2 0t2.1 0v-27.1q0-8.2 4.6-10.8t11.2 1.6l119.8 73.7q4.1 2.6 4.1 7.2 0 1.5-1 3.5t-2 2.6l-1.1 1-119.8 73.2q-6.6 4.1-11.2 1.6t-4.6-10.8v-27.6q-0.6 0-2.1 0t-2 0h-43q-32.8 0-63-12.8t-51.7-34.3-34.3-51.7-12.8-63q0-30.2-21.5-51.7t-51.8-21.5h-117.2z m275.5-69.6q34.8-19.5 76.8-19.5h43q0.5 0 2 0t2.1 0v-27.6q0-8.2 4.6-10.8t11.2 1.5l119.8 73.8q4.1 3 4.1 7.1 0 2.1-1 3.6t-2 2.6l-1.1 0.5-119.8 73.7q-6.6 4.1-11.2 1.6t-4.6-10.8v-27.1q-0.6 0-2.1 0t-2 0h-43q-13.4 0-26.2 5.1-16.3-43.5-50.6-74.8z" /></svg>