<svg height="512" width="626.0" xmlns="http://www.w3.org/2000/svg"><path d="m0 182.8q0-29.7 21-50.2t50.2-21q29.7 0 50.7 21t20.9 50.2q0 20.5-10.7 37.4l144.4 143.8q10.2-6.1 20.5-8.7v-199.1q-23.6-5.7-39-25.1t-15.3-44.1q0-29.7 21-50.1t50.7-21q29.7 0 50.1 21t21 50.1q0 25.1-15.3 44.1t-38.9 25.1v199.1q10.2 2.6 20.4 8.7l144.4-143.8q-10.2-17.4-10.2-37.4 0-29.7 21-50.7t50.2-21 50.1 21 21 50.2-21 50.7-50.1 21q-19 0-36.9-10.8l-144.4 144.4q10.8 16.9 10.8 36.8 0 29.7-21 50.7t-50.2 21q-29.7 0-50.7-21t-21-50.7q0-19.9 10.8-36.8l-144.4-144.4q-18.5 10.8-36.9 10.8-29.7 0-50.2-21t-21-50.7z" /></svg>