<svg height="512" width="510.8" xmlns="http://www.w3.org/2000/svg"><path d="m1.5 212q-6.1-15.9 8.2-25.6t46.6-9.2h123.9l37.9-114.2v-0.5q7.7-23.1 17.4-34.9t20.5-11.7q10.2 0 20 11.7t17.4 34.9l0.5 0.5 37.4 114.2h123.9q32.2 0 46.6 9.2t8.2 25.6-32.8 34.8l-2.6 2-97.3 69.7 37.4 113.1 0.5 1.6q9.8 30.7 5.7 46.5t-20.5 15.9q-19 0-44.6-19.4l-1.5-1.1-1.5-0.5-96.8-69.6-98.3 70.1-1.5 1.1q-26.7 19.9-45.1 19.9-16.4 0-20.5-16.4t5.7-47.1l0.5-1.5 37.3-113.1-97.2-69.7-1.1-1-1.5-0.5q-26.1-19-32.8-34.8z m84.5 13.3l104 74.2-10.8 33.3-29.2 88.6 105-75.3 104.9 75.3-29.1-88.6-10.8-33.3 103.9-74.2h-128.5l-10.7-32.8-29.7-89.6-41 122.9h-128.5z" /></svg>