<svg height="512" width="528.2" xmlns="http://www.w3.org/2000/svg"><path d="m0 119.3l125.4-125.4 42 41.9-21 21 22 22q29.7-17.9 63-26.6v-52.2h118.3v52.2q50.7 13.3 91.1 46.1t63.5 80.9 23.1 102.4q0 48.1-19 92.2t-50.7 75.7-75.7 50.7-92.2 19-92.2-19-75.7-50.7-50.7-75.7-19-92.2q0-63 31.8-118.3l-23.1-22.5-21 21z m113.7 161.8q0 48.1 24 89.1t64.5 65 89.1 24.1 89.1-24.1 65-65 24.1-89.1-24.1-89.1-65-64.5-89.1-24.1-89.1 24.1-64.5 64.5-24 89.1z m60.4-66.6q0-12.3 8.7-21t21-8.7 21 8.7l71.6 71.7h101.4q12.3 0 21 8.7t8.2 21q0 12.8-8.7 21-9.2 9.2-21 9.2h-113.7q-2 0-6.1-0.5l-2.6-1q-0.5 0-1.5-0.5t-1.5 0q-0.5 0-1.6-1.1t-1-0.5l-2-1.5q-1.6-0.5-4.6-3.6l-80.4-80.4q-8.7-8.7-8.7-21z" /></svg>