<svg height="512" width="480.0" xmlns="http://www.w3.org/2000/svg"><path d="m0 403.5q0 15.3 10.8 26.1t26.1 10.7h16.3q15.4 0 26.2-10.7t10.7-26.1-10.7-26.2-26.2-10.7h-16.3q-15.4 0-26.1 10.7t-10.8 26.2z m0-147.5q0 15.4 10.8 26.1t26.1 10.8h16.3q15.4 0 26.2-10.8t10.7-26.1-10.7-26.1-26.2-10.8h-16.3q-15.4 0-26.1 10.8t-10.8 26.1z m0-147.5q0 15.4 10.8 26.2t26.1 10.7h16.3q15.4 0 26.2-10.7t10.7-26.2-10.7-26.1-26.2-10.7h-16.3q-15.4 0-26.1 10.7t-10.8 26.1z m119.8 295q0 15.3 10.8 26.1t26.1 10.7h286.2q15.3 0 26.1-10.7t10.7-26.1-10.7-26.2-26.1-10.7h-286.2q-15.4 0-26.1 10.7t-10.8 26.2z m0-147.5q0 15.4 10.8 26.1t26.1 10.8h286.2q15.3 0 26.1-10.8t10.7-26.1-10.7-26.1-26.1-10.8h-286.2q-15.4 0-26.1 10.8t-10.8 26.1z m0-147.5q0 15.4 10.8 26.2t26.1 10.7h286.2q15.3 0 26.1-10.7t10.7-26.2-10.7-26.1-26.1-10.7h-286.2q-15.4 0-26.1 10.7t-10.8 26.1z" /></svg>