<svg height="512" width="480.0" xmlns="http://www.w3.org/2000/svg"><path d="m0 256q0-48.6 18.9-93.2t51.2-76.8 76.8-51.2 93.2-18.9 93.2 18.9 76.8 51.2 51.2 76.8 19 93.2-19 93.2-51.2 76.8-76.8 51.2-93.2 18.9-93.2-18.9-76.8-51.2-51.2-76.8-18.9-93.2z m97.3 101.9q0 2.5 2 4.1 3.1 2.5 13.9 8.2 37.3 18.9 78.3 18.9 51.7 0 93.2-26.1 19.9-12.8 35.3-30.7t24.6-37.4 13.8-38.9 4.1-37.9v-5.6q17.9-12.8 28.2-29.7 1-1.6 1-2.6 0-2-1.6-3.6t-3.5-1.5l-3.6 1q-9.8 4.1-11.3 4.1 4.1-5.1 8.2-12.3t4.1-10.7q0-1.6-1.5-3.1t-3.6-1.5q-1 0-2.6 0.5-18.4 10.2-32.7 13.3-18.5-17.9-44.6-17.9t-44.5 18.4-18.5 44.6q0 3 0.5 7.6-53.2-5.1-92.6-40.4-7.2-6.7-17.4-17.9-1.6-2.1-4.1-2.1t-3.6 2.6q-9.2 12.3-9.2 31.7 0 22.6 14.8 40-0.5 0-5.1-2.1-3.6-1.5-5.1-1.5-2.6 0-4.1 1.5t-1.6 4.1q0 16.4 8.2 30.7t22.1 23.1h-0.6q-0.5 0-1 0t-2 0q-2.1 0-3.6 1.5t-1.6 3.6q0 0 0.6 1.5 5.1 15.9 16.9 27.2t28.1 15.3q-26.6 16.4-58.9 16.4-0.5 0-7.1-0.5-1.6 0-4.1 0t-2.6 0q-1.5 0-3.1 1.5t-1.5 3.6z" /></svg>