<svg height="512" width="480.0" xmlns="http://www.w3.org/2000/svg"><path d="m0 400.4q0 3.6 3.6 6.6 6.1 4.1 22 12.3 60.9 31.3 128 31.3 83.5 0 151.6-43 32.2-20.5 57.8-49.2t39.9-60.4 22.1-63 6.6-61.4v-8.7q29.2-21 45.6-48.2 1.5-3 1.5-4.6 0-3-2.5-5.6t-5.7-2.6q-1.5 0-6.1 2.1-3.1 1-7.2 2.5t-7.7 2.6-4.1 1.5q6.7-7.1 13.4-19.4t7.1-17.9q0-3.1-2.5-5.7t-6.2-2.5q-2 0-4.1 1-28.7 15.4-53.2 21-30.2-28.7-72.2-28.7-43 0-73.2 30.2t-30.2 72.7q0 7.7 1 12.3-42-3.6-81.4-20.5t-70.7-45q-7.2-7.2-28.1-29.2-3.1-3.1-7.2-3.1-3.1 0-6.2 4.1-6.6 9.7-10.2 24.1t-3.6 27.6q0 37.4 23.1 65.1l-7.2-3.6q-6.2-2.6-9.2-2.6-4.1 0-7.2 2.6t-3.1 6.6q0 26.1 13.3 49.7t36.4 37.4l-3.1-0.5q-0.5 0-1.5 0t-1.5-0.6-0.6 0q-3 0-5.6 2.6t-2.5 5.6q0 0 0.5 2.6 8.7 26.1 28.1 44t46.1 24.6q-43.5 26.6-95.7 26.6-3.6 0-11.3-0.5-10.2-0.5-11.3-0.5-3 0-5.6 2.6t-2.6 5.6z" /></svg>