<svg height="512" width="480.0" xmlns="http://www.w3.org/2000/svg"><path d="m0 392.2v-36.9q0-16.9 12.3-29.2t29.2-11.7 29.2 11.7 11.7 29.2v36.9q0 9.2 6.2 15.4t15.3 6.1h271.9q8.7 0 15.4-6.1t6.1-15.4v-36.9q0-16.9 11.8-29.2t29.2-11.7 29.2 11.7 12.2 29.2v36.9q0 43-30.2 73.2t-73.2 30.7h-271.9q-43 0-73.2-30.2t-30.7-73.7z m79.4-208.4q0-16.9 11.7-29.2l126.5-126.4q11.8-11.8 29.2-11.8 16.9 0 29.2 11.8l124.4 123.9q11.8 12.3 11.8 29.1t-11.8 29.2q-12.3 11.8-29.2 11.8t-29.2-11.8l-53.7-53.7v176.6q0 16.9-11.8 29.2t-29.2 12.3q-16.9 0-29.2-12.3t-12.3-29.2v-176.6l-56.3 56.3q-11.8 11.8-29.2 11.8t-29.2-11.8-11.7-29.2z" /></svg>