<svg height="512" width="615.0" xmlns="http://www.w3.org/2000/svg"><path d="m0 410.1q10.2-4.1 30.7-11.3t35.9-13.3 25.6-11.2q18.9-9.8 29.1-28.7t10.3-38.9q0-13.8-15.9-32.3-9.7-10.7-16.9-31.2-23-9.2-23-38.9 0-22 7.1-31.2-2.5-20-4.6-42-2-28.2 13.9-55.3t43-43 56.3-16.4q22 0 43.5 9.7t36.9 25.6 25.1 36.9 7.1 42.5q-2.5 28.6-4.6 42 7.2 9.7 7.2 31.2 0 29.7-23.1 38.9-7.6 21-16.3 31.2-16.4 19-16.4 32.3 0 20.5 10.2 38.9t29.7 28.7q15.4 7.7 47.6 19.4t57.9 22 33.8 19.5q9.2 9.2 13.8 24.1t5.6 26.1l0.5 10.7h-449.5v-85.5z m361-153.1q0-17.9 6.1-25.6-2.6-16.9-3.6-34.3-1.5-23 11.3-45.5t35.3-36.4 46.1-14.3 46.1 14.3 35.3 36.4 11.3 45.5q-1.1 17.9-3.6 34.3 6.1 7.7 6.1 25.6 0 24.1-18.9 31.8-5.7 16.9-13.3 25.6-4.6 5.1-6.7 8.2t-4.6 8.2-2.6 10.2q0 16.4 8.7 31.7t24.1 23.6q9.2 4.6 22 9.7t30.2 11.3 25.6 9.7v69.1h-130q0-2 0-5.6t-1.5-13.3-3.6-18.4-7.2-19.5-11.8-16.9q-12.3-12.3-27.1-22.5t-41-19q13.9-17.4 13.9-39.9 0-5.1-2.6-10.2t-4.6-8.2-6.2-8.2q-7.1-7.7-13.8-25.1-18.9-8.2-18.9-31.8z" /></svg>