<svg height="512" width="509.5" xmlns="http://www.w3.org/2000/svg"><path d="m0 496.1q0-4.6 0.5-11.7t5.6-23.1 13.9-25.1q8.7-8.7 33.2-18.9t56.9-22 46.6-19q16.4-8.7 26.6-24t12.3-33.3h-41.5q-1-4.6-2.5-12.3t-5.2-30.2-6.1-44.1-3.6-49.1 0.5-49.7 7.7-41.4 16.9-29.2q9.7-9.8 21.5-13.3t17.4 0q0.5 0 0.5 0 0-0.5 1-4.1 6.7-17.4 21-24.6 9.2-4.6 31.8-4.1 1 0 3.6 0t3.5 0h0.6q12.8 1 28.6 5.6 13.9 4.1 25.6 10.3t24.1 17.9 20.5 27.1 12.8 38.4 3 51.7q-1.5 34.3-4.6 62.5t-5.6 44-5.1 26.7-4.1 14.3l-1.5 3.6h-41.5q2 17.9 11.8 33.3t26.6 24q14.8 7.7 46.6 19t56.8 22 33.8 18.9q8.7 9.2 13.8 24.1t5.7 25.6l0.5 10.2h-509.5z" /></svg>