<svg height="512" width="500.5" xmlns="http://www.w3.org/2000/svg"><path d="m0 496.1q0-4.6 0.5-11.2t5.1-23.1 13.9-24.6q8.7-8.7 32.7-18.4t55.8-21.5 46.1-18.9q18.4-9.2 28.7-27.2t10.2-37.9q0-13.8-15.8-31.2-9.3-10.7-15.9-30.2-22-9.2-22-37.4 0-21 7.1-30.2-2-13.8-4.6-41.5-0.5-4-1-10.7t1-22.5 7.7-27.2q9.7-16.9 24.1-23t24-2.6q0.5-2.5 2.1-6.6t7.1-10.8 12.8-10.7q4.1-2.1 12.8-3.1t22.1 0 26.6 4.1 27.6 10.7 25.1 19.5 17.9 30.2 7.2 43q0 5.1 0 10.3-2 23-4.6 41.4 7.2 9.2 7.2 30.2 0 28.2-22 37.4-6.7 19-15.9 30.2-15.9 17.9-15.9 31.3 0 19.4 10.3 37.8t28.6 27.2q14.9 7.7 46.1 18.9t55.8 21.5 33.3 18.5q8.7 8.7 13.3 23.5t5.1 25.1l0.5 10.2h-500.2z" /></svg>