<svg height="512" width="455.2" xmlns="http://www.w3.org/2000/svg"><path d="m3.6 369.7q-8.7 8.7 2.5 29.7t29.7 39.9 39.5 30.2 29.7 2.1l114.1-114.2q-28.1-19.5-54.7-46.1-11.8-11.8-23.6-25.6t-16.9-21.5l-5.6-7.7z m138.7-120.9q-4.1-12.3 1.6-17.4 5.6-5.6 11.7-21t8.8-31.2l2-10.2q2.6-15.9 15.4-31.8t27.1-22l203.3-90.6q14.8-6.2 17.4-2.6t-9.2 15.4l-104 103.4q-21.5 22-27.1 27.1-10.8-5.1-23.6-3t-21.5 10.7q-11.2 11.3-11.2 27.7t11.2 28.1q11.8 11.8 28.2 11.8t27.6-11.8q8.7-8.7 10.8-21t-3.1-23q7.2-7.7 27.1-27.1l104-104q11.2-11.2 14.8-9.2t-2.5 17.4l-90.7 203.3q-6.6 14.3-22.5 26.6t-31.7 15.4l-10.3 2q-15.8 2.6-31.2 8.7t-21 11.8-17.4 1.5-23.5-15.3l-45.1-44.6q-11.3-11.2-15.4-23.5z" /></svg>