<svg height="512" width="628.0" xmlns="http://www.w3.org/2000/svg"><path d="m0 414.7l69.6-69.6 24.1 24.1 112.6-112.7q-15.3-22.5-12.8-50.7t22.6-48.1q19.9-20 48.1-22.5t50.7 13.3l112.6-113.2-24-24 69.1-69.2 69.6 69.2-69.6 69.6-24.1-24.1-72.7 72.7q33.8-8.2 62.5-8.2 51.7 0 99.3 20t84 56.3q6.6 6.7 6.6 15.9t-6.6 15.9-15.9 6.6-15.9-6.6q-30.7-30.7-69.6-46.6t-81.9-15.9q-49.7 0-93.7 21.5 7.7 20.5 2.5 42.5t-21 38.4q-16.3 15.9-38.4 21t-41.9-2.6q-19.5 40-21.5 84t13.8 86.5 48.6 74.8q6.7 6.6 6.7 15.9t-6.7 15.8q-6.6 6.7-15.9 6.7-8.7 0-15.3-6.7-49.2-49.1-66.6-114.7t-1-131l-73.2 72.7 24.1 24-69.2 69.7z m41.5 0l27.6 27.7 27.2-27.7-27.2-27.6z m403.4-402.9l27.2 27.6 27.6-27.6-27.6-27.2z" /></svg>