<svg height="512" width="511.0" xmlns="http://www.w3.org/2000/svg"><path d="m2.6 293.9q-9.3-65 14.8-133.1 26.1-65.1 80.9-107t119.3-51.2 132.6 14.8q65 26.1 107.5 80.9t51.2 119.3-15.3 132.6q-26.1 65-80.4 107.5t-119.3 51.2-133.1-15.3q-65.1-26.1-107-80.4t-51.2-119.3z m45.5-120.8q-34.3 86 2.1 171.5t122.3 119.3 171.6-2.6 119.3-122.4-2.6-171-122.4-119.3-171 2.1-119.3 122.4z m29.7 11.7q29.2-74.2 101.9-104.9 8.2-4.1 10.8 3.6t-4.1 10.7q-67.1 29.2-94.2 96.8-3.1 7.1-10.8 4.1t-4.6-10.3z m30.2 11.8q24.1-61.9 85-88.1 7.2-3 10.8 4.7t-4.6 10.7q-53.8 23-76.8 78.9-3.1 7.1-10.3 4t-4.1-10.2z m29.2 10.8q20-48.2 68.1-69.2l1-1q7.2-3.1 10.3 4.6t-4.1 10.8q-43 17.9-59.9 60.9-3.1 8.2-10.8 5.1t-4.6-10.7z m30.2 11.7q14.9-36.8 51.7-52.7t73.8-0.5 52.7 51.7 0.5 73.7-51.7 52.8-73.7 0.5-52.8-51.7-0.5-73.8z m29.7 12.3q-9.7 24.6 1 49.2t34.9 33.8 49.1-1.1 33.8-34.8-1-49.1-34.8-33.8-49.2 1-33.8 34.8z m29.7 11.3q5.1-11.8 17.4-17.4t24.6-0.5 17.4 17.4 0.5 24.6-17.4 17.4-24.6 0.5-17.4-17.4-0.5-24.6z m15.4 17.9q2.5 6.2 8.7 8.7t11.8 0 8.7-8.7 0-11.8-8.7-8.7-11.8 0-8.7 8.7 0 11.8z m54.2 107.5q-3-7.7 4.1-10.7 43.1-17.9 59.9-61 3.1-8.1 10.8-5.1t4.6 10.8q-20 49.1-68.1 70.1h-1q-7.2 3.1-10.3-4.6z m12.3 29.7q-3.5-7.1 4.6-10.7 54.8-23.1 76.8-77.9 3.1-8.1 10.8-5.1t4.6 10.8q-25.1 60.9-86 87-7.2 3.1-10.8-4.1z m12.3 29.7q-3-7.7 4.1-10.7 67.1-29.2 94.2-96.8 3.1-7.2 10.8-4.1t4.6 10.2q-29.2 74.3-101.9 105v1q-8.2 3.1-10.8-4.6z" /></svg>