<svg height="512" width="512.0" xmlns="http://www.w3.org/2000/svg"><path d="m0 344.1q0-28.2 13.8-52.3t37.9-37.8q-4.1-10.8-4.1-22.1 0-30.2 21-51.2t51.2-21q10.2 0 22 4.1 16.9-37.8 52.2-60.9t77.9-23q55.8 0 96.2 37.3t46.6 92.7q42 8.2 69.7 41t27.6 76.8q0 50.2-34.8 85t-85 34.8h-287.8q-43 0-73.7-30.7t-30.7-73.8z m31.7 0q0 30.2 21 51.2t51.2 21h287.8q35.8 0 61.9-26.2t26.1-61.9q0-31.8-19.9-55.8t-51.2-30.2q-17.9-4.1-21.5-7.7t-4.6-21.5q-4.1-43-35.9-72.2t-74.7-29.2q-31.8 0-59.9 17.4t-41 47.6q-5.1 10.3-6.1 12.3t-4.6 6.7-7.7 3.1-10.8-3.1q-10.7-5.1-22-4.1-16.9 0-28.7 11.3t-11.2 28.6q0 5.1 2 11.8 7.2 16.9 5.1 23t-18.9 14.9q-35.8 21-35.8 61.9z" /></svg>