<svg height="512" width="512.0" xmlns="http://www.w3.org/2000/svg"><path d="m0 224.3q0-79.9 74.8-136.2t180.7-55.8 180.7 55.8 74.8 136.2-74.8 136.1-180.7 55.9q-24.1 0-49.2-4.1-14.8 17.9-45.5 39.9t-62.5 28.2h-5.1q-6.2 0-10.3-4.1t-4.1-10.3q0-3.1 1.1-6.1 0-1 6.6-10.8t9.2-14.8 7.2-14.9 6.7-18.4 2-16.4v-1q-52.2-27.1-81.9-68.6t-30.2-90.6z m31.7 0q0 37.8 25.1 73.2t70.2 56.8q16.9 9.2 16.9 29.2v3.1q0 21-10.8 47.1 31.3-19 49.2-41 9.2-11.8 25.1-11.8 2 0 4.1 1.1 23 3 45 3 93.2 0 158.7-47.1t65.6-113.1-65.6-113.2-158.7-47.1-158.7 47.1-65.5 113.2z m48.2 0q0-46.1 52.2-78.9t123.9-32.8q8.2 0 8.2 8.2t-8.2 8.2q-64 0-112.1 29.2t-48.2 67.1q0 8.2-8.1 8.2t-8.2-8.2z" /></svg>