<svg height="512" width="448.0" xmlns="http://www.w3.org/2000/svg"><path d="m0 160.3v-48.2q0-12.8 8.7-22t21.5-10.2l20-57.9q7.1-22 30.2-22h287.7q23.1 0 30.2 22l20 57.9q11.8 1 21 10.2t9.2 22v48.2q0 12.8-9.7 22.5t-22.5 9.7h-16.9l0.5 1.5q0.5 1.6 0.5 2.6l-31.8 287.8q-2 11.7-10.7 19.9t-21 8.2h-223.7q-11.8 0-21-8.2t-10.8-19.9l-31.7-287.8q0-1 0.5-2.6l0.5-1.5h-16.9q-12.8 0-22.5-9.7t-9.8-22.5z m31.7 0h384v-48.2h-384v48.2z m31.8-79.9h320l-15.9-48.1h-287.7z m15.9 112.1l5.1 48.1h278l5.1-48.1h-287.7z m7.1 64l17.9 159.8h238.1l17.9-159.8h-273.9z m20 176.1l5.1 48.2h223.8l5.1-48.2h-234z" /></svg>