<svg height="512" width="448.0" xmlns="http://www.w3.org/2000/svg"><path d="m0 408.1v-304.2q0-50.1 67.1-76.8t157.2-27.1 157.1 27.1 67.1 76.8v304.2q0 50.1-67.1 76.8t-157.1 27.1-157.2-27.1-67.1-76.8z m31.7 0q0 30.2 55.9 51.2t136.1 21 136.2-21 55.8-51.2v-59.9q-24 25-76.8 38.4t-115.2 13.3-115.2-13.3-76.8-38.4v59.9z m0-95.8q0 30.2 55.9 51.2t136.1 21 136.2-21 55.8-51.2v-59.9q-24 25.1-76.8 38.4t-115.2 13.3-115.2-13.3-76.8-38.4v59.9z m0-95.7q0 30.2 55.9 51.2t136.1 21 136.2-21 55.8-51.2v-54.8q-30.2 23-81.9 34.8t-110.1 11.8-110-11.8-82-34.8v54.8z m0-112.2q0 30.3 55.9 51.2t136.1 21 136.2-21 55.8-51.2-55.8-51.2-136.2-20.9-136.1 20.9-55.9 51.2z m320 311.9q0-7.2 4.7-11.3t11.2-4.6 11.3 4.6 4.6 11.3-4.6 11.2-11.3 4.6-11.2-4.6-4.7-11.2z m0-95.8q0-7.2 4.7-11.3t11.2-4.6 11.3 4.6 4.6 11.3-4.6 11.3-11.3 4.6-11.2-4.6-4.7-11.3z m0-95.7q0-7.2 4.7-11.3t11.2-4.6 11.3 4.6 4.6 11.3-4.6 11.2-11.3 4.6-11.2-4.6-4.7-11.2z" /></svg>