<svg height="512" width="512.0" xmlns="http://www.w3.org/2000/svg"><path d="m0 178.2q0-13.8 9.2-23.1l81.9-80.9q9.3-10.2 22.1-10.2h286.2q12.8 0 22 10.2l81.9 80.9q9.2 9.3 9.2 22.1 0 11.7-8.2 22l-223.7 238q-10.3 10.8-24.1 10.8t-24.1-10.8l-223.7-238q-8.2-9.2-8.2-21z m31.7-2.1h69.2l43-43-36.9-31.2z m13.9 15.9l157.2 167.9-99.9-167.9h-56.8z m74.7 0l117.8 196.1-38.9-196.1h-78.9z m2.1-15.9h73.2l-40-32.7z m1-79.8l31.2 26.1 26.1-26.1h-56.8z m43 35.8l41 33.8 35.8-30.2-44-35.9z m49.2 59.9l39.9 199.2 39.9-199.2h-79.8z m4-15.9h72.2l-35.8-29.2z m0-79.8l35.9 30.2 34.8-30.2h-71.2z m49.2 39.9l34.8 30.2 41-33.8-32.8-31.7z m4.1 251.9l117.8-196.1h-78.9z m35.8-28.2l157.2-167.9h-56.8z m7.2-183.8h73.2l-32.7-32.7z m14.9-79.8l26.1 26.1 31.2-26.1h-56.8z m36.8 36.8l43 43h68.1l-74.2-74.2z" /></svg>