<svg height="512" width="511.0" xmlns="http://www.w3.org/2000/svg"><path d="m0 260.6v-9.2q0-0.5 1-1.5v-2.1q35.9-67.1 105.5-109.6t148.5-42.5 149 42.5 104.9 110.6l0.5 0.5 0.6 0.6v2q1 3.1 1 4.1t-1 4.1v2l-0.6 0.6-0.5 0.5q-34.8 68.1-104.9 110.6t-149 42.5-148.5-42.5-105.5-110.6v-1.1q-1-1-1-1.5z m33.8-4.6q32.8 57.9 93.7 93.2t128 34.8 128-34.8 93.7-93.2q-32.8-57.9-93.7-93.2t-128-34.8-128 34.8-93.7 93.2z m109 0q0-46.1 32.8-78.8t78.9-32.8 78.8 32.8 32.8 78.8-32.8 78.8-78.8 32.8-78.9-32.8-32.8-78.8z m15.9 0q0 39.9 28.2 68.1t68.1 28.2 68.1-28.2 28.1-68.1-28.1-68.1-68.1-28.2-68.1 28.2-28.2 68.1z m31.8 0q0-27.1 18.9-45.6t45.1-18.4q8.2 0 8.2 8.2t-8.2 8.2q-19 0-33.3 13.8t-14.4 33.8q0 8.2-8.1 8.2t-8.2-8.2z" /></svg>