<svg height="512" width="512.0" xmlns="http://www.w3.org/2000/svg"><path d="m0 375.8q0-16.9 11.3-28.7t28.6-11.2h43q10.8-62 59.9-102.9t113.2-41q52.2 0 95.2 28.2t65.1 74.2l73.2-35.8q6.1-3.1 11.7-1.1t9.3 8.2 1 11.8-8.2 9.2l-76.8 38.9q2 6.2 3.1 10.8h43q16.9 0 28.6 11.2t11.3 28.7q0 11.8-8.2 21l-55.8 63v11.8q0 16.9-11.3 28.6t-28.6 11.3h-304.2q-16.8 0-28.6-11.3t-11.3-28.6v-11.8l-55.8-63q-8.2-9.2-8.2-21z m31.7 0l64 72.2v24.1q0 8.2 8.2 8.2h304.2q8.2 0 8.2-8.2v-24.1l64-72.2q0-8.2-8.2-8.2h-432.2q-8.2 0-8.2 8.2z m67.1-39.9h16.9q10.8-49.2 50.2-80.4t90.1-31.8q43 0 78.3 23.6t52.8 61.4l13.8-8.2q-18.9-41.9-57.9-67.5t-87-25.6q-56.8 0-101.4 36.3t-55.3 91.7z m28.2-149q-8.2-20 8.2-57.9 12.8-31.2 7.1-46.1h-1v-3q0-8.2 8.2-8.2 5.1 0 7.2 5.1 9.2 21-7.2 57.9-12.8 31.7-6.1 47.1v2q0 8.2-8.2 8.2-5.2 0-7.2-4.1v-1h-1z m5.1 149h16.9q10.2-34.8 39.4-57.4t67.6-22.5q33.8 0 61.4 18.4t40.5 48.7l14.8-7.2q-15.8-33.8-47.6-54.8t-69.6-21q-44 0-78.3 27.2t-45.6 69.1z m33.8 0h16.9q9.2-22 29.2-34.8t44-12.8 44 12.8 29.2 34.8h3.1l11.8-6.2q-10.8-26.1-34.9-42t-53.2-15.8q-31.2 0-55.3 17.9t-34.3 46.1z m34.8 0h18.9q14.9-15.9 35.9-15.9t34.8 15.9h20q-19-31.8-54.8-31.8t-54.8 31.8z m38.9-220.2v-1q-8.2-20 7.2-57.9 13.8-31.2 7.2-46v-3.1q0-8.2 7.1-8.2 6.2 0 8.2 5.1 9.2 21-7.2 57.9-12.8 31.7-7.1 47.1 1 1 1 2 0 8.2-8.2 8.2-5.1 0-8.2-4.1z m81.9 69.1v-1q-8.2-20 8.2-56.8 12.8-31.8 6.2-46.1v-3.1q0-8.2 8.2-8.2 5.1 0 7.1 5.2 9.2 19.9-7.1 57.8-12.8 31.2-7.2 46.1v1q1 1 1 2.1 0 8.2-8.2 8.2-5.1 0-7.1-5.2h-1.1z m82 151.1h9.2q0-1.1-0.5-2.1t-0.6-2z" /></svg>