<svg height="512" width="496.1" xmlns="http://www.w3.org/2000/svg"><path d="m0 247.8q0-102.9 72.7-175.6t175.6-72.7 175.6 72.7 72.7 175.6-72.7 175.6-175.6 72.7-175.6-72.7-72.7-175.6z m31.7 8.2q4.1 85 64 144.9 27.2-18.9 55.9-31.2-22.1-53.8-24.1-114.2h-95.8z m0-15.9h95.8q2-53.2 18.9-99.8-31.7-12.8-59.9-34.8-52.2 57.8-54.8 135.1z m66.1-146.9q26.1 20 54.8 31.7 22-52.2 59.9-90.1-67.1 10.8-115.2 57.9z m10.2 319q45.1 38.9 105 49.1-32.8-32.8-53.8-75.8-27.1 10.3-51.2 27.2z m35.9-156.2q2 56.8 23 109.1 34.8-10.8 73.2-12.8v-95.8h-95.7z m0-15.9h95.7v-79.8q-39.9-2.1-77.8-14.9-15.9 45.1-17.9 95.2z m24-110.1q34.9 11.8 72.2 13.9v-112.2h-1q-46.1 39-71.2 97.8z m6.2 248.9q25.1 51.2 65 85h1v-95.8q-34.8 2.1-66 10.8z m81.9 85h1q40-33.8 65-85-31.2-9.2-66-10.8v95.8z m0-112.2q37.9 2.1 73.2 12.8 21-52.2 23.1-109h-95.8v95.7z m0-112.1h95.7q-2-50.2-17.9-95.2-37.9 12.8-77.8 14.8v79.9z m0-95.7q36.9-2.1 72.2-13.9-25.1-58.8-71.2-97.7h-1v112.1z m27.1 316.9q59.9-10.2 105-49.2-24.1-16.8-51.2-27.1-21 43-53.8 75.8z m0-426q37.9 37.9 59.9 90.1 29.2-11.7 54.8-31.7-48.1-47.1-115.2-57.9z m61 334.9q29.1 11.7 55.8 31.2 59.9-59.9 64-144.9h-95.8q-2 59.9-24 114.2z m5.1-229.9q16.9 47.1 18.9 99.8h95.8q-3.1-76.8-54.8-135.2-28.2 22.1-59.9 34.9z" /></svg>