<svg height="512" width="512.0" xmlns="http://www.w3.org/2000/svg"><path d="m0 128q0-16.9 10.8-30.2t26.6-16.9l207.8-48.1q6.2-1.1 10.8-1.1t10.8 1.1l207.8 48.1q15.9 4.1 26.6 16.9t10.8 30.2-10.8 30.2-26.6 16.9l-43 10.2v135.2q0 34.8-43 57.4t-133.1 22.5-133.1-22.5-43-57.4v-135.2l-43-10.2q-15.9-4.1-26.7-16.9t-10.7-30.2z m31.7 0q0 12.8 11.8 15.9l207.9 48.1h8.2l207.9-48.1q11.7-3.1 11.7-15.9t-11.7-15.9l-207.9-48.1h-8.2l-207.9 48.1q-11.8 3.1-11.8 15.9z m79.9 192q0 10.2 14.9 20.5t49.6 18.9 79.4 8.7 79.3-8.7 49.7-18.9 14.9-20.5v-128l-133.2 31.2q-6.1 1.1-10.7 1.1t-10.8-1.1l-133.1-31.2v128z m335.9 128q0-15.9 10.2-39.9t22-24.1 22.1 24.1 10.2 39.9q0 12.8-9.7 22.5t-22.6 9.8-22.5-9.8-9.7-22.5z m15.9-95.7v-143.9q0-7.2 4.6-11.3t11.2-4.6 11.3 4.6 4.6 11.3v143.9q0 7.1-4.6 11.2t-11.3 4.6-11.2-4.6-4.6-11.2z" /></svg>