<svg height="512" width="512.0" xmlns="http://www.w3.org/2000/svg"><path d="m0 416.3v-112.2q0-4.1 1-9.2l64-240.1q3.1-10.3 11.3-16.4t19.4-6.7h320q10.8 0 19.5 6.7t11.3 16.4l64 240.1q1 5.1 1 9.2v112.2q0 27.1-18.4 45.5t-45.6 18.5h-384q-27.1 0-45.6-18.5t-18.4-45.5z m31.7 0q0 12.8 9.8 22.5t22.5 9.7h384q12.8 0 22.5-9.7t9.8-22.5v-112.2l-64-240.1h-320l-64 240.1v112.2z m30.3-116.3l54.7-192q3.1-11.7 14.9-11.7h247.8q11.8 0 14.8 11.7l54.8 192q2.1 8.2-2.5 13.9t-12.3 6.1h-73.2l-23.1 46.1q-9.2 17.9-29.2 17.9h-108q-20 0-29.2-17.9l-23-46.1h-73.2q-8.2 0-12.3-6.1t-2.6-13.9z m23-11.7h65q20 0 29.2 17.9l23 46.1h108.1l23-46.1q9.2-17.9 29.2-17.9h65l-47.1-176.2h-247.8z" /></svg>