<svg height="512" width="512.0" xmlns="http://www.w3.org/2000/svg"><path d="m0 480.3v-48.2q0-10.2 9.2-19.9l194.1-194.1q-10.8-29.2-10.8-57.8 0-66.1 47.1-113.2t113.2-47.1 113.1 47.1 47.1 113.2-47.1 113.1-113.1 47.1q-29.2 0-57.9-10.7l-37.9 36.8v37.9q0 12.8-9.7 22.5t-22.5 9.8h-31.8v31.7q0 12.8-9.7 22.5t-22.5 9.8h-36.9l-23 23q-9.3 9.2-20 9.2h-48.1q-12.8 0-22.6-9.7t-9.7-22.5z m31.7 0h45.1l23-23.1q9.3-9.2 23.1-9.2h36.8v-31.7q0-12.8 9.8-22.6t22.5-9.7h31.7v-37.9q0-12.8 9.3-22l31.2-31.2 17.9-18 5.1-5.1q31.3 17.9 65.1 17.9 53.2 0 90.6-37.3t37.4-90.7-37.4-90.6-90.6-37.4-90.7 37.4-37.3 90.6q0 33.8 17.9 65.1l-23.1 23-186.8 185.9v46z m287.8-365.1q0-2 1-5.1 11.8-32.8 45.1-45.1 8.2-3 13.8 2.1 37.9 27.1 65 65 3.1 4.1 3.1 9.2 0 2.1-1 5.1-11.8 32.8-45.1 45.1-8.2 3.1-13.8-2.1-37.9-27.1-65-65-3.1-4.1-3.1-9.2z m15.9 0q26.1 35.8 60.9 60.9 26.1-9.2 34.8-34.8-25.1-34.8-60.9-60.9-26.1 9.2-34.8 34.8z" /></svg>