<svg height="512" width="351.7" xmlns="http://www.w3.org/2000/svg"><path d="m0 176.1q0-73.2 51.7-124.4t124.4-51.7 124.4 51.7 51.8 124.4q0 28.2-14.9 62t-36.3 72.2-28.7 58.9q-8.2 19.9-15.9 48.6t-12.3 41.5-13.3 27.6-21.5 20-32.2 5.6-32.3-5.6-21-20-13.3-27.6-12.8-41.5-15.9-48.6q-7.1-22.1-28.7-59.4t-36.3-71.7-14.9-62z m31.7 0q0 32.8 42 109.1 19 32.8 27.2 51.2h150q8.2-17.9 27.1-51.2 42-76.8 42-109.1 0-59.9-42-101.9t-101.9-41.9-101.9 41.9-41.9 101.9z m48.2 0q0-39.9 28.1-68.1t68.1-28.1q8.2 0 8.2 8.2t-8.2 8.2q-32.7 0-56.3 23.5t-23.5 56.3q0 8.2-8.2 8.2t-8.2-8.2z m33.8 192q6.1 16.9 10.2 31.3l109.1-13.9q1-6.1 5.1-16.9h-123.9z m14.8 46.1q5.1 17.9 9.2 31.2l78.9-10.2q3-8.2 6.1-18.9 1-3.1 2.6-8.2t1.5-6.2z m14.9 46.1q6.1 12.8 12.2 16.4t19.5 3.6q14.9 0 22-5.2t13.8-23z" /></svg>