<svg height="512" width="384.0" xmlns="http://www.w3.org/2000/svg"><path d="m0 192q0-79.9 55.8-136.2t136.2-55.8 136.2 55.8 55.8 136.2q0 39.9-14.3 81.9t-43.6 85-51.7 72.2-56.3 68.1q-10.2 12.8-25.1 12.8h-2q-14.9 0-25.1-12.8-33.8-38.9-56.3-68.1t-51.7-72.2-43.6-85-14.3-81.9z m31.7 0q0 36.9 14.4 76.8t43.5 81.9 48.6 66.1 51.8 60.9h1q1 1 1 2l2-2q31.8-36.9 51.2-60.9t48.7-66.1 44-81.9 14.4-76.8q0-66-47.1-113.2t-113.2-47.1-113.2 47.1-47.1 113.2z m64-4.1q0-39.9 28.2-68.1t68.1-28.2 68.1 28.2 28.2 68.1-28.2 68.1-68.1 28.2-68.1-28.2-28.2-68.1z m15.9 0q0 32.8 23.6 56.3t56.3 23.6 56.3-23.6 23.6-56.3-23.6-56.3-56.3-23.6-56.3 23.6-23.6 56.3z" /></svg>