<svg height="512" width="512.0" xmlns="http://www.w3.org/2000/svg"><path d="m0 352.3v-207.9q0-26.1 18.4-45.1t45.6-18.9h384q27.1 0 45.6 18.9t18.4 45.1v207.9q0 27.1-18.4 45.5t-45.6 18.5h-384q-27.1 0-45.6-18.5t-18.4-45.5z m31.7 0q0 12.8 9.8 22.5t22.5 9.7h384q12.8 0 22.5-9.7t9.8-22.5l-125-94.3-70.1 52.3q-12.8 10.2-29.2 10.2t-29.2-10.2l-70.1-52.3z m0-20l112.2-84-112.2-83.9v167.9z m0-187.9l125 94.2 13.8 10.2 66 50.2q8.2 6.2 19 6.2t18.9-6.2l204.8-154.1q0-12.8-9.7-22.5t-22.5-9.8h-384q-12.8 0-22.6 9.8t-9.7 22.5z m335.9 103.9l112.1 84v-167.9z" /></svg>