<svg height="512" width="512.0" xmlns="http://www.w3.org/2000/svg"><path d="m0 224.3q0-33.8 18.4-56.9t45.6-23h148q31.7 0 60.9-23.1t49.1-64h1.1q30.2-56.8 76.8-56.8 52.2 0 81.9 67.1t30.2 157.2-30.2 157.2-81.9 67q-47.1 0-76.8-56.8h-1.1q-39.9-78.9-101.8-86-3.1 1-4.1 1v1q-3.1 1-5.2 4.1-1 1-1 2.1-2 3-2 6.1v113.2q0 4.1 8.2 13.3t8.2 18.4v15.9q0 12.8-9.8 22.5t-22.5 9.7h-64q-12.8 0-22.5-9.7t-9.8-22.5v-143.9q0-12.8-9.7-22.5t-22.5-9.7q-27.1 0-45.6-23.1t-18.4-56.8z m31.7 0q0 19.9 9.8 33.7t22.5 13.9h112.1q-15.8-19-15.8-48.2t15.8-48.1h-112.1q-12.8 0-22.5 13.8t-9.8 33.8z m87.1 79.8q9.2 14.9 9.2 31.8v143.8h64v-13.8l-1-1-1-1q-13.9-16.9-13.9-31.8v-112.1q0-8.2 3.1-15.9h-59.9z m56.8-79.8q0 19.9 9.7 33.7t22.6 13.9h4.1q44 0 82.9 31.7-7.2-37.9-7.2-79.9 0-40.9 7.2-79.8-38.9 31.7-82.9 31.7h-4.1q-12.8 0-22.6 13.8t-9.7 33.8z m143.9 0q0 24 3.1 48.1h45q12.8 0 22.5-13.8t9.8-33.8-9.8-33.8-22.5-13.8h-45q-3.1 24-3.1 48.1z m7.2 79.8q10.2 50.2 29.7 80.9t43.5 31.3q32.7 0 56.3-55.9t23.5-136.1-23.5-136.2-56.3-55.8q-24.1 0-43.5 31.2t-29.7 80.9h40.9q27.2 0 45.6 23t18.4 56.9-18.4 56.8-45.6 23h-40.9z" /></svg>