<svg height="512" width="512.5" xmlns="http://www.w3.org/2000/svg"><path d="m1.5 310.8q15.9-50.2 54.8-89.1 30.2-31.2 104-74.2 66-37.9 91.1-63 28.2-28.2 37.9-62 3.1-8.2 8.2-13.8 7.1-6.1 14.8-8.2 17.9-4.1 31.3 8.2l159.7 159.7q12.8 13.9 8.2 31.8-15.9 51.2-54.8 89.1-30.2 31.2-103.9 74.2-66.1 37.9-91.2 63-28.1 27.1-37.9 61.9-3 8.2-8.1 13.9-7.2 6.1-14.9 8.2-17.9 4.1-31.2-8.2l-159.8-159.8q-12.8-13.8-8.2-31.7z m31.3 9.2l50.7 50.7 58.8 58.9 50.7 50.7q12.8-40 43-71.7t65.6-52.2l71.1-41t66.1-52.2 42.5-71.7l-80.4-80.4-79.4-79.4q-11.7 40-42.5 71.7t-66 52.2l-71.2 41t-65.5 52.2-43 71.7z m139.7 101.9l10.8-14.9q10.7-13.8 24.1-27.1 10.7-11.8 28.1-25.1 6.2-5.1 10.8 0 6.1 6.2 0 11.8h-1.1q-15.8 12.8-27.1 24.1-11.8 11.7-22 25l-10.2 13.9q-1.1 1-1.1 2-6.1 6.2-11.7 0-4.1-5.1-1.1-10.2z m13.9-183.8q1-9.2 5.1-16.9 4.1-9.2 10.2-15.9 0-1-3-3.1-2.1-1-2.1-3.5t2.1-5.2 4.6-2.5 3.5 2q2.1 2.1 4.1 3.1 4.1-4.1 10.8-8.2t13.8-6.1 14.9-0.6 12.3 7.7q4.1 4.1 4.1 9.2t-4.1 8.2q-3.1 3.1-8.2 2.1-3.1-1-9.3-2.1-5.1-2-10.7-1.5t-11.3 5.6q10.3 10.3 26.1 29.2 7.2-4.1 15.9-7.2 8.2-3 15.9-4t15.9 1.5 15.8 8.7q7.2 6.1 10.3 12.8 2 7.2 1 14.8 0 8.2-5.1 16.9-4.1 10.3-10.8 19 4.1 3.1 8.2 7.1 2.1 1.1 2.6 3.6t-1.6 4.6-4.6 2.6-4.6-1.5q-5.1-4.1-8.2-8.2-9.2 9.2-17.9 11.7-8.2 3.1-16.9 3.1-8.2-1-14.3-4.1t-10.8-7.7-4.1-9.2 4.1-8.2 7.2-3.5 6.7 1.5 6.6 4.1 7.2 3.6 8.7 0 10.7-6.2q-10.7-10.7-29.2-31.7-15.8 9.2-32.7 10.2-14.9 1-26.1-8.2-7.2-6.1-10.3-12.8t-2-14.8z m21.5-5.7q-0.5 3.6 0.5 7.2t4.1 5.6q5.1 5.2 11.2 4.7t16.4-5.7q-14.8-15.8-25.1-26.1-3 4.1-5.1 7.7t-2.5 7.2z m57.3-73.7q-5.1-5.1 0-10.7 1-1.1 2.1-1.1 15.8-12.8 27.1-24 11.8-11.8 22-25.1l10.3-13.8q1-2.1 2-2.1 6.1-6.1 10.8 0 5.1 5.1 1 10.8l-10.8 14.8q-10.7 13.8-24 27.2-10.8 11.7-28.2 25-6.1 5.2-11.8-1z m2.1 99.9q15.8 17.9 27.1 29.1 3.1-3 5.1-7.1t3.1-8.2 0-7.7-4.6-7.2-7.7-4.6-8.2-0.5-8.2 2.6q-2 1-7.1 3z" /></svg>