<svg height="512" width="512.0" xmlns="http://www.w3.org/2000/svg"><path d="m0 160.3q0-39 31.7-64v-48.2q0-19.9 13.9-33.8t33.8-13.8 33.8 13.8 13.8 33.8v48.2q31.7 25 31.7 64t-31.7 64v240.1q0 20-13.8 33.8t-33.8 13.8-33.8-13.8-13.9-33.8v-240.1q-31.7-25.1-31.7-64z m31.7 0q0 6.1 2.1 12.8l1 3q2.1 7.2 6.2 11.8 4.1 6.1 10.2 10.8t12.8 6.6q8.2 3.1 15.9 3.1t15.8-3.1q7.2-2 12.8-7.2 6.2-4.1 10.3-10.2 4.1-5.1 6.1-11.8l1.1-3q2-7.2 2-12.8t-2-12.8q-1.1-2.1-1.1-3.1-2-7.2-6.1-11.8-4.1-6.1-10.3-10.7t-12.8-6.7q-8.1-3.1-15.8-3.1t-15.9 3.1q-7.2 2-12.8 7.2-5.1 4.1-10.2 10.2-4.1 5.1-6.2 11.8l-1 3.1q-2.1 7.1-2.1 12.8z m31.8 304.1q0 7.2 4.6 11.2t11.3 4.7 11.2-4.7 4.6-11.2v-225.8q-8.2 2-15.8 2t-15.9-2v225.8z m0-382q8.2-2 15.9-2t15.8 2v-33.8q0-7.1-4.6-11.2t-11.2-4.6-11.3 4.6-4.6 11.2v33.8z m112.1 269.9q0-39 31.8-64v-240.2q0-19.9 13.8-33.8t33.8-13.8 33.8 13.8 13.8 33.8v240.2q31.7 25 31.7 64t-31.7 64v48.1q0 20-13.8 33.8t-33.8 13.8-33.8-13.8-13.8-33.8v-48.1q-31.8-25.1-31.8-64z m31.8 0q0 6.1 2 12.8l1 3q2.1 7.2 6.2 11.8 4.1 6.1 10.2 10.8t12.8 6.6q8.2 3.1 15.9 3.1t15.9-3.1q7.1-2 12.8-7.2 6.1-4.1 10.2-10.2 4.1-5.1 6.1-11.8 0-1 1.1-3 2-7.2 2-12.8t-2-12.8l-1.1-3.1q-2-7.2-6.1-11.8-4.1-6.1-10.2-10.2-6.2-5.2-12.8-7.2-8.2-3.1-15.9-3.1t-15.9 3.1q-7.2 2-12.8 7.2-5.1 4.1-10.2 10.2-4.1 5.1-6.2 11.8l-1 3.1q-2 7.1-2 12.8z m31.7 112.1q0 7.2 4.6 11.2t11.3 4.7 11.2-4.7 4.6-11.2v-33.8q-8.1 2-15.8 2t-15.9-2v33.8z m0-190q8.2-2 15.9-2t15.8 2v-225.8q0-7.1-4.6-11.2t-11.2-4.6-11.3 4.6-4.6 11.2v225.8z m112.1-114.1q0-39 31.8-64v-48.2q0-19.9 13.8-33.8t33.8-13.8 33.8 13.8 13.8 33.8v48.2q31.8 25 31.8 64t-31.8 64v240.1q0 20-13.8 33.8t-33.8 13.8-33.8-13.8-13.8-33.8v-240.1q-31.8-25.1-31.8-64z m31.8 0q0 6.1 2 12.8l1 3q2.1 7.2 6.2 11.8 4.1 6.1 10.2 10.8t12.8 6.6q8.2 3.1 15.9 3.1t15.9-3.1q7.1-2 12.8-7.2 6.1-4.1 10.2-10.2 4.1-5.1 6.2-11.8 0-1 1-3 2-7.2 2-12.8t-2-12.8l-1-3.1q-2.1-7.2-6.2-11.8-4.1-6.1-10.2-10.2-6.2-5.2-12.8-7.2-8.2-3.1-15.9-3.1t-15.9 3.1q-7.1 2-12.8 7.2-6.1 4.1-10.2 10.2-4.1 5.1-6.2 11.8l-1 3.1q-2 7.1-2 12.8z m31.7 304.1q0 7.2 4.6 11.2t11.3 4.7 11.3-4.7 4.6-11.2v-225.8q-8.2 2-15.9 2t-15.9-2v225.8z m0-382q8.2-2 15.9-2t15.9 2v-33.8q0-7.1-4.6-11.2t-11.3-4.6-11.3 4.6-4.6 11.2v33.8z" /></svg>