<svg height="512" width="512.0" xmlns="http://www.w3.org/2000/svg"><path d="m0 456.2q0-2.1 0.5-4.1t0.5-4.1 0.5-4.1 0.5-3.1v-1l37.9-137.2q5.2-15.9 15.9-27.1l165.9-165.9v-1.1l1-1 76.8-77.8q31.3-30.2 74.8-30.2 53.7 0 95.2 40.9 37.9 37.9 41.5 87.6t-29.7 82.4l-244.2 245.8q-11.8 11.8-28.2 15.9l-135.2 35.8-1.5 0.5q-1.5 0.5-3.6 1t-4.6 0.6-5.1 0.5-4.6 0.5q-23.1 0-39.5-16.4t-16.3-39.4z m31.7 0q0 10.2 7.2 16.9t16.9 7.2q3.1 0 10.8-2.1l58.8-15.9q2.1-30.2-22-53.7-23-23.1-53.7-22l-15.9 60.9q-2.1 7.2-2.1 9.2z m23.1-86q33.8 1 59.9 27.1t27.1 60.9l58.9-14.8 6.1-3.1q21-24 16.9-58.9t-31.2-61.9q-26.1-25.1-58.9-30.2t-56.8 11.8q-4.1 5.1-6.1 10.7z m67.1-115.2q23 1 46 10.2l151.1-151q-45.1-10.8-74.3 16.9z m60.9 17.9q18.9 10.2 32.8 23 10.7 10.8 20.9 28.2l152.1-153.1q-8.2-15.9-20-28.2-14.8-14.8-33.8-23z m61.9 66q9.3 21 10.8 42v11.8l123.9-124.9v-1q31.2-31.3 15.9-79.9z m52.3-260.1q53.7 0 95.2 41 35.8 36.9 39.9 85v10.8l27.2-28.2q23-23 21-56.8-3.1-37.9-31.8-67.1-31.7-31.8-73.2-31.8-31.2 0-52.2 21z" /></svg>