<svg height="512" width="512.0" xmlns="http://www.w3.org/2000/svg"><path d="m0 224.3v-15.9q0-15.9 10.2-29.2l48.2-64q2-3.1 6.1-7.2v-75.7q0-12.8 9.7-22.6t22.6-9.7h320q12.8 0 22.5 9.7t9.7 22.6v75.7q4.1 4.1 6.2 7.2l48.1 64q10.2 12.8 10.2 29.2v15.9q0 19.9-13.8 33.7t-33.8 13.9v207.8q0 12.8-9.7 22.6t-22.5 9.7h-351.8q-12.8 0-22.5-9.7t-9.7-22.6v-207.8q-20 0-33.8-13.9t-13.9-33.7z m31.7 0q0 7.1 4.7 11.2t11.2 4.6h30.2l64-112.1h-46.1q-8.1 0-12.8 6.1l-48.1 64q-3.1 5.2-3.1 10.3v15.9z m48.2 256h103.9v-159.8q0-7.2 4.6-11.3t11.3-4.6h119.8q7.2 0 11.3 4.6t4.6 11.3v159.8h95.7v-207.9h-351.7v207.9z m15.8-240.2h67.1l31.8-112.1h-34.9z m0-143.8h320v-64h-320v64z m84 143.8h68.1v-112.1h-35.8z m20 240.2h119.8v-159.8h-119.8v159.8z m64-240.2h68.1l-31.8-112.1h-35.8v112.1z m53.2-112.1l31.8 112.1h67l-64-112.1h-34.8z m53.3 0l64 112.1h30.2q7.2 0 11.2-4.6t4.7-11.2v-15.9q0-5.1-3.1-10.3l-48.1-64q-5.2-6.1-12.8-6.1h-46.1z" /></svg>