<svg height="512" width="512.5" xmlns="http://www.w3.org/2000/svg"><path d="m0 352.3q0-20 13.8-33.8l50.2-50.2v-220.2q0-14.8 8.2-27.1t22-16.9q8.2-4.1 17.9-4.1 20 0 33.8 13.8l351.8 351.8q23 23 10.2 52.2-5.1 13.8-16.9 22t-27.1 8.2h-220.2l-50.2 50.2q-13.8 13.8-33.8 13.8t-33.7-13.8l-112.2-112.2q-13.8-13.8-13.8-33.7z m31.7 0q0 7.1 5.2 10.7l112.1 112.1q4.1 5.2 10.7 5.2t10.8-5.2l50.2-50.1h1l-135.2-135.2v1l-50.1 50.2q-5.2 4.1-5.2 10.7z m63-76.8l141.8 141.8q6.2-1 7.2-1h193l-341-341v193q0 1-1 7.2z m1-222.3l363.1 363.1h5.1q10.7 0 14.8-10.3t-4.1-16.9l-351.7-351.7q-4.1-5.1-10.8-5.1-3 0-6.1 1-10.3 4.1-10.3 14.8v5.1z m176.2-36.8q0-7.2 4.6-11.3t11.2-4.6q93.2 0 158.8 65.5t65.5 158.8q0 7.1-4.6 11.2t-11.3 4.6-11.2-4.6-4.6-11.2q0-78.9-56.4-135.7t-135.6-56.3q-7.2 0-11.3-4.6t-4.6-11.3z m8.2 55.8q0-8.2 8.2-8.2 66 0 113.1 47.1t47.1 113.2q0 8.1-8.2 8.1t-8.2-8.1q0-59.9-42-101.9t-101.8-42q-8.2 0-8.2-8.2z" /></svg>