<svg height="512" width="512.5" xmlns="http://www.w3.org/2000/svg"><path d="m2 201.2q7.2-21 29.2-24l134.2-20 57.8-119.8q10.3-21 32.8-21t32.8 21l57.8 119.8 134.2 20q22 3 29.2 24t-8.2 35.9l-97.8 97.7 22 135.2q4.1 22-14.9 34.8-9.2 7.2-21 7.2-9.2 0-17.9-4.1l-116.2-63-116.2 63q-9.2 4.1-17.9 4.1-11.8 0-21-7.2-19-12.8-14.9-34.8l22-135.2-96.7-97.7q-15.9-14.9-9.3-35.9z m34.9 10.8l97.8 97.8q12.8 12.8 10.2 31.2l-23 135.2 116.2-63q8.2-4.1 17.9-4.1t17.9 4.1l116.2 63-23-135.2q-3.1-17.9 10.2-31.2l97.8-97.8-133.1-19q-20-3-28.1-21l-57.9-119.8-57.9 119.8q-8.1 18-28.1 20z" /></svg>