<svg height="512" width="512.0" xmlns="http://www.w3.org/2000/svg"><path d="m2 138.2q-7.1-21 10.3-34.8l79.9-64q9.2-7.1 19.9-7.1h287.8q10.7 0 19.9 7.1l79.9 64q16.9 13.8 10.3 34.8l-31.8 95.8q-5.1 14.8-20 20-5.1 2-10.2 2-9.2 0-15.9-4.1v196.1q0 12.8-9.7 22.5t-22.5 9.8h-287.8q-12.8 0-22.5-9.8t-9.7-22.5v-196.1q-7.2 4.1-15.9 4.1-5.1 0-10.2-2-14.9-5.2-20-20z m30.3-10.2l31.7 95.7 48.1-31.7v256h287.8v-256l48.1 31.7 31.7-95.7-79.8-64h-67.1q-7.2 21-28.2 34.3t-49.1 13.3-49.2-13.3-28.1-34.3h-67.1z m163.8-64q7.2 13.8 23 23t36.9 9.3 36.9-9.3 23-23h-119.8z" /></svg>