<svg height="512" width="512.0" xmlns="http://www.w3.org/2000/svg"><path d="m0 463.9v-256q0-20 13.8-33.8t33.8-13.8h48.1q16.4 0 31.3 11.7 6.1-3 16.9-8.2 62.9-32.7 64-116.2 0-20 13.8-33.8t33.8-13.8q29.2 0 53.7 32.8t25.1 74.7q0 33.8-4.1 53.3 120.9 3 136.2 7.1 22 6.2 33.3 22.1t11.3 31.7v11.8q-1 19.9-13.8 34.8 9.2 16.9 6.1 37.9-4.1 28.1-21 44 8.2 19 0 43-9.2 30.2-27.1 42 4.1 13.8 0 28.2-3.1 9.2-7.2 16.9-16.9 31.2-56.8 31.2h-88.1q-47.1 0-95.2-10.8-47.1-10.7-65.1-14.8h-1q0-1-1.5-1h-2.6v-1.1q-13.8 28.2-43 28.2h-48.1q-20 0-33.8-13.8t-13.8-33.8z m31.7 0q0 7.1 4.7 11.2t11.2 4.6h48.1q7.2 0 11.3-4.6t4.6-11.2v-256q0-7.2-4.6-11.3t-11.3-4.6h-48.1q-7.2 0-11.2 4.6t-4.7 11.3v256z m15.9-24.1q0-10.2 7.2-16.9t16.9-7.2 16.9 7.2 7.1 16.9-7.1 16.9-16.9 7.2-16.9-7.2-7.2-16.9z m15.9 0q0 8.2 8.2 8.2t8.2-8.2-8.2-8.2-8.2 8.2z m64-2q0 11.7 13.8 13.8 10.8 3.1 74.3 17.9 45 10.2 88 10.2h88.1q21 0 29.2-13.8 3-8.2 4.1-11.8 3-6.1-1.1-13.8t-14.8-8.2h-25.1q-8.2 0-8.2-8.2t8.2-8.2h26.1q15.9 0 25.1-5.6t11.3-10.2 5.6-15.4q10.7-32.8-20-32.8h-31.7q-8.2 0-8.2-8.1t8.2-8.2h37.9q29.2 0 34.8-33.8 1-10.8-4.6-20.5t-21.5-9.7h-31.3q-8.1 0-8.1-8.2t8.1-8.2h31.8q31.2 0 31.7-23.1v-10.7q0-19-18.9-24.1-23.1-6.1-173.1-6.1 10.3-30.2 12.3-43t2.6-41q0-29.2-16.4-52.7t-30.7-23.6q-15.9 0-15.9 15.9-1 47.1-23.5 88.6t-72.8 62.4q-1 0-2 0.5l-1 0.6q-12.8 4.1-12.8 16.9v221.1z" /></svg>