<svg height="512" width="448.0" xmlns="http://www.w3.org/2000/svg"><path d="m0 143.9v-34.8q1-19 14.8-31.8t32.8-12.8h48.1v-15.9q0-19.9 13.9-33.8t33.8-13.8h159.7q20 0 33.8 13.8t13.8 33.8v15.9h48.1q19 0 32.8 12.8t14.9 31.8v34.8q0 12.8-9.8 22.5t-22.5 9.7v271.9q0 27.1-18.4 45.6t-45.6 18.4h-256q-27.1 0-45.6-18.4t-18.4-45.6v-271.9q-12.8 0-22.5-9.7t-9.7-22.5z m31.7 0h384v-31.8q0-7.1-4.6-11.2t-11.2-4.6h-351.8q-7.1 0-11.2 4.6t-4.6 11.2v31.8z m31.8 304.1q0 12.8 9.7 22.5t22.5 9.8h256q12.8 0 22.6-9.8t9.7-22.5v-271.9h-320v271.9z m31.7-15.9v-207.8q0-7.2 4.6-11.3t11.3-4.6h31.7q7.2 0 11.3 4.6t4.6 11.3v207.8q0 7.2-4.6 11.3t-11.3 4.6h-31.7q-7.2 0-11.3-4.6t-4.6-11.3z m15.9 0h31.7v-207.8h-31.7v207.8z m15.9-368.1h192v-15.9q0-7.1-4.6-11.2t-11.3-4.6h-159.7q-7.2 0-11.3 4.6t-4.6 11.2v15.9z m64 368.1v-207.8q0-7.2 4.6-11.3t11.2-4.6h31.8q7.2 0 11.3 4.6t4.6 11.3v207.8q0 7.2-4.6 11.3t-11.3 4.6h-31.8q-7.1 0-11.2-4.6t-4.6-11.3z m15.8 0h31.8v-207.8h-31.8v207.8z m79.9 0v-207.8q0-7.2 4.6-11.3t11.3-4.6h31.7q7.2 0 11.3 4.6t4.6 11.3v207.8q0 7.2-4.6 11.3t-11.3 4.6h-31.7q-7.2 0-11.3-4.6t-4.6-11.3z m15.9 0h31.7v-207.8h-31.7v207.8z" /></svg>