<svg height="512" width="512.0" xmlns="http://www.w3.org/2000/svg"><path d="m18.4 411.1q-36.8-155.1 0-309.7 5.2-22 27.2-24.1 104.9-12.8 209.9-12.8t209.9 12.8q23 2.1 28.2 24.1 36.8 155.1 0 309.7-6.2 22.1-28.2 24.1-48.1 6.1-100.9 9.2 3.1 2.1 3.1 4.1 0 7.2-32.8 11.3t-78.8 4.6-78.8-4.6-32.8-11.3q0-2 3.1-4.1-53.3-3.1-100.9-9.2-22-2-27.1-24.1z m31.3-8.2q205.8 26.2 413.1 0 34.9-146.9 0-293.8-206.8-26.2-413.1 0-34.9 146.9 0 293.8z m31.2-43q-33.8-105.9 0-210.9 3.1-9.2 11.8-10.8 66-12.8 131-12.8t131.1 12.8q9.2 2.1 11.8 10.8 16.9 52.2 16.9 105t-16.9 105.9q-3.1 9.3-11.8 10.8-66 12.8-131.1 12.8t-131-12.8q-9.2-2.1-11.8-10.8z m15.9-5.1q126.9 26.1 254.9 0 32.8-100.8 0-201.2-128-27.1-254.9 0-32.8 99.8 0 201.2z m31.7-107l4.1-45q2.1-7.2 10.2-8.2l73.3-6.2q8.2 0 8.2 8.2t-8.2 8.2l-59.9 4.1q-8.2 1-9.3 9.2l-3 30.2q0 8.2-8.2 8.2t-7.2-8.2z m255 112.1q0-8.2 8.2-8.2h48.1q8.2 0 8.2 8.2t-8.2 8.2h-48.1q-8.2 0-8.2-8.2z m15.9-48.1q0-8.2 8.2-8.2h48.1q8.2 0 8.2 8.2t-8.2 8.2h-48.1q-8.2 0-8.2-8.2z m0-48.1q0-8.2 8.2-8.2h48.1q8.2 0 8.2 8.2t-8.2 8.2h-48.1q-8.2 0-8.2-8.2z m0-95.8q0-10.2 7.1-16.9t16.9-7.1 16.9 7.1 7.2 16.9-7.2 16.9-16.9 7.2-16.9-7.2-7.1-16.9z m15.8 0q0 8.2 8.2 8.2t8.2-8.2-8.2-8.2-8.2 8.2z" /></svg>