<svg height="512" width="513.5" xmlns="http://www.w3.org/2000/svg"><path d="m2 489q-7.1-22.1 12.8-35.9 61-39.9 149-58.9-43-53.7-60.9-131-5.1-28.2-5.6-62.5t11.2-75.8 33.8-70.6q43-53.8 114.2-53.8t114.2 53.8q22 29.2 33.8 70.6t11.2 75.8-5.6 62.5q-17.9 76.8-60.9 131 88 19 149 58.9 19.9 13.8 12.8 36.4t-31.3 22.5h-448q-10.7 0-19.4-6.7t-11.3-16.3z m31.3-9.3h448q-55.8-36.8-137.2-54.7l-40-8.2q-23 14.8-47.1 14.8t-47.1-14.8l-39.9 8.2q-81.9 17.9-137.2 54.7z m98.8-308.2q-7.2 53.3 8.2 106.5t49.1 95.8l5.2 7.1q29.1 32.8 62.9 32.8t63-32.8l5.1-7.1q33.8-42 49.2-95.8t8.2-106.5q-7.2-57.8-38.9-98.8t-86.1-41-86 41-38.9 98.8z" /></svg>