<svg height="512" width="512.0" xmlns="http://www.w3.org/2000/svg"><path d="m0 423.9v-320q0-35.8 26.1-61.9t62-26.1h328.2q19.9 0 33.7 13.8t13.9 33.8v143.9q48.1 35.8 48.1 95.7t-48.1 95.7v24.1q0 35.9-26.1 62t-62 26.1h-287.7q-35.9 0-62-26.1t-26.1-62z m31.7 0q0 23.1 16.4 39.5t39.5 16.3h287.7q23 0 39.4-16.3t16.4-39.5v-24h-143.9q-32.7 0-56.3-23.6t-23.5-56.3 23.5-56.3 56.3-23.6h143.9v-31.7q0-7.2-4.6-11.3t-11.3-4.6h-328.2q-31.7 0-55.8-20v251.9z m0-320q0 23.1 15.9 38.9v-62.9q0-7.2 4.6-11.3t11.3-4.6h335.9q7.1 0 11.2 4.6t4.6 11.3v79.8q8.2 0 15.9 3.1v-98.8q0-7.2-4.6-11.3t-11.3-4.6h-328.2q-23 0-39.4 16.4t-16.4 39.4z m31.8 50.2q11.8 6.2 24.1 6.2h311.8v-15.9h-335.9v10.2z m0-26.1h335.9v-15.9h-335.9v15.9z m0-31.7h335.9v-15.9h-335.9v15.9z m176.1 223.7q0 20 13.8 33.8t33.8 13.8h163.9q28.1-26.1 28.1-64 0-30.2-17.9-53.2v1q-2 4.1-4.1 7.2-10.2 12.8-26.1 12.8h-143.9q-19.9 0-33.8 13.8t-13.8 33.8z m15.9 0q0-12.8 9.7-22.5t22.5-9.8 22.6 9.8 9.7 22.5-9.7 22.5-22.6 9.8-22.5-9.8-9.7-22.5z" /></svg>