<svg height="512" width="569.9" xmlns="http://www.w3.org/2000/svg"><path d="m569.9 150.5q0 34.3-13.9 66.6t-37.9 56.3l-229.3 227.3-31.8-31.2 229.4-227.3q37.9-36.9 37.9-91.2 0-45.5-30.2-75.7t-75.8-30.2q-52.2 0-92.2 38.4l-252.4 250.3q-30.2 30.2-30.2 68.1 0 29.2 19 48.1t48.1 19q38.4 0 68.6-30.2l193-190.5q27.2-28.1 27.2-49.6 0-10.8-8.2-16.9t-19.5-6.2q-24.6 0-44 20.5l-174.1 172-31.2-31.2 173.5-172q33.8-33.8 75.8-33.8 29.7 0 51.2 18.9t21.5 48.1q0 40-40.4 81.5l-193.1 190.4q-43 43-100.3 43-47.6 0-79.9-31.7t-32.2-79.4q0-56.3 43-99.3l252.4-250.4q53.2-51.7 123.9-51.7 64 0 107.5 43t43.5 107z" /></svg>