<svg height="512" width="603.6" xmlns="http://www.w3.org/2000/svg"><path d="m603.6 238.1q0 64.5-40.4 119.8t-110.1 87-151.5 31.8q-62.5 0-119.8-20l1 1.5-182.8 54.8q22.5-30.2 36.4-65t16.3-54.3l2.1-19.4q-54.3-61.5-54.3-136.2 0-64.5 40.5-119.3t110-86.5 151.6-31.8 151.5 31.8 110.1 86.5 40.5 119.3z m-128 0q0-14.9-10.7-25.6t-26.1-10.8q-14.9 0-25.6 10.8t-10.8 25.6q0 15.3 10.8 26.1t25.6 10.7q15.3 0 26.1-10.7t10.7-26.1z m-128 0q0-14.9-10.7-25.6t-26.1-10.8q-14.9 0-25.6 10.8t-10.8 25.6q0 15.3 10.8 26.1t25.6 10.7q15.3 0 26.1-10.7t10.7-26.1z m-128 0q0-14.9-10.7-25.6t-26.1-10.8q-14.9 0-25.6 10.8t-10.8 25.6q0 15.3 10.8 26.1t25.6 10.7q15.3 0 26.1-10.7t10.7-26.1z" /></svg>