<svg height="512" width="512.0" xmlns="http://www.w3.org/2000/svg"><path d="m512 256.5q0 69.6-34.3 128.5t-93.2 93.2-128.5 34.3-128.5-34.3-93.2-93.2-34.3-128.5 34.3-128.5 93.2-93.2 128.5-34.3 128.5 34.3 93.2 93.2 34.3 128.5z m-59.9 0q0-80.9-57.9-138.7t-138.7-57.9q-64.5 0-115.7 37.9l1 1q-24.6 17.9-42.5 42.5l-1-1q-37.9 51.2-37.9 115.7 0 80.9 57.8 138.8t138.8 57.8q64.5 0 115.7-37.9l-1-1q24.6-17.9 42.5-42.5l1 1q37.9-51.2 37.9-115.7z m-103.9 102.4q0 12.8-9.3 22t-22 9.2q-13.3 0-21.5-9.2l-61.4-61.4q-9.2-9.2-9.2-31.8v-163.8q0-12.8 9.2-22t22-9.2 22 9.2 9.2 22v161.3l52.3 52.7q9.2 8.2 9.2 21.5z" /></svg>