<svg height="512" width="512.0" xmlns="http://www.w3.org/2000/svg"><path d="m512 219.6v72.8l-94.7 13.3q-5.1 13.8-10.8 25.6l61.5 80.3-52.3 51.2-81.4-60.4q-10.2 5.2-26.1 10.8l-15.3 99.3h-73.3l-13.8-100.9q-10.7-3.5-22-9.2l-82.4 61-51.7-51.2 61.9-82q-5.6-10.7-9.7-23.5l-101.9-14.3v-72.8l101.9-14.3q3.6-10.7 9.7-23l-61.4-81.4 51.7-51.2 81.9 60.9q7.7-4.1 24.1-10.2l14.3-99.9h73.2l14.4 99.9q11.2 3.5 24.5 9.7l80.9-59.9 52.3 51.2-61 79.8q6.7 13.9 10.3 24.6z m-178.2 36.9q0-30.7-22-52.2t-52.7-21.5-52.8 21.5-22 52.2 22 52.2 52.8 21.5 52.7-21.5 22-52.2z" /></svg>