<svg height="512" width="473.6" xmlns="http://www.w3.org/2000/svg"><path d="m473.6 498.7h-135.2q-7.6-20.5-9.2-47.1-61.4 60.9-156.7 60.9-48.6 0-86.5-14.8t-61.9-48.7-24.1-82.9q0-20.5 4.6-37.9t10.8-30.7 18.4-24.6 22-18.9 27.7-14.4 29.7-10.7 32.7-7.7 32.8-5.6 33.8-4.7q25.6-3 51.2-7.6 12.3-2.1 18.9-3.6t17.4-5.7 16.4-8.7 10.3-13.3 4.6-19.9q0-64.5-87.1-64.5-44.5 0-67 16.3t-29.2 58.4h-125q3.1-46.1 22.6-78.8t51.7-50.7 69.1-26.1 81.4-8.2q34.8 0 64 4.1t57.4 14.8 47.6 28.2 31.2 45.5 11.8 66.1v208.9q0 32.7 0.5 46.6t4.6 39.9 12.3 45.6z m-145.4-181.3v-54.2q-16.9 9.7-44.6 15.8t-51.7 9.8-46.6 10.2-35.8 22-13.3 40.5q0 31.7 20.5 48.6t52.7 16.9q52.7 0 85.5-28.2t32.8-79.8z" /></svg>