<svg height="512" width="512.0" xmlns="http://www.w3.org/2000/svg"><path d="m512 45.6v421.9q0 18.4-13.3 31.7t-31.8 13.3h-421.8q-18.5 0-31.8-13.3t-13.3-31.7v-421.9q0-18.5 13.3-31.8t31.8-13.3h421.8q18.5 0 31.8 13.3t13.3 31.8z m-121.3 122.3h61.9v-30.7h-61.9v-62.4h-30.8v62.4h-62.4v30.7h62.4v62h30.8v-62z m-110.1-83.4q0-5.7-11.3-5.7-1.5-0.5-26.6-0.5h-36.9q-12.3 0-31.2 2.1t-30.2 5.6q-29.7 9.7-47.6 31.8t-18 52.2q0 35.8 22.6 57.8 22 21.5 56.8 21.5h4.6q0 12.3 1 18t2.6 6.1 4.1 2.6 4.6 7.6q-28.2 0-52.7 6.2t-44.1 24.6-19.4 46.6q0 39.4 31.7 58.8t73.8 19.5q47.1 0 81.9-23.6t34.8-68.6q0-19.4-10.3-37.3t-22.5-28.2-22.5-20-10.2-14.8q0-5.6 7.6-13.3t17.4-14.9 17.4-24 7.7-37.9q0-38.9-22.5-54.8 0.5 0 8.2-1t10.7-1.6 8.7-2.5 8.2-5.2 2.6-8.1z m-69.1 87q0 17.9-8.2 30.7t-25.1 12.8q-22 0-35.4-23.5t-13.3-47.1q0-17.9 8.2-30.7t25.1-12.8q22 0 35.3 23.5t13.4 47.1z m28.1 176.7q0 22.5-22 36.3t-46.1 13.8-44-12.3-20-34.8q0-24.5 21-36.8t47.1-12.3q23.6 0 43.5 12.3t20 34.3z" /></svg>