<svg height="512" width="512.0" xmlns="http://www.w3.org/2000/svg"><path d="m512 136.7q0 57.3-39.9 96.3l-89.6 90.1q-40 39.9-96.8 39.9-49.7 0-87.6-32.2l58.9-58.9q13.3 8.7 28.7 8.7 22.5 0 38.4-15.9l89.6-90.1q15.9-14.9 15.9-37.9 0-22.5-15.9-38.4t-38.4-15.9q-12.8 0-25.6 6.2t-16.9 17.4h-121.9l67.6-66.1q41-39.9 96.3-39.9 56.3 0 96.2 39.9t40 96.3z m-198.1 45.6l-58.9 58.9q-13.3-8.8-28.7-8.8-22.5 0-38.4 15.9l-89.6 90.1q-15.9 14.9-15.9 37.9 0 22.5 15.9 38.4t38.4 15.9q12.8 0 25.6-6.2t16.9-17.4h121.9l-67.6 66.1q-41 39.9-96.3 39.9-56.3 0-96.2-39.9t-40-96.3q0-57.3 40-96.2l89.6-90.1q39.9-40 96.7-40 49.7 0 87.6 32.3z" /></svg>