<svg height="512" width="512.0" xmlns="http://www.w3.org/2000/svg"><path d="m512 45.6v421.9q0 18.4-13.3 31.7t-31.8 13.3h-421.8q-18.5 0-31.8-13.3t-13.3-31.7v-421.9q0-18.5 13.3-31.8t31.8-13.3h421.8q18.5 0 31.8 13.3t13.3 31.8z m-170 364.5h66.1v-126.5q0-45.5-21-69.1t-54.8-23.5q-24.1 0-41 10.7t-25.1 24.1h-1l-3.1-30.2h-56.8q1.5 58.4 1.5 68.6v145.9h65.6v-123.4q0-10.7 2-16.9 10.3-25.1 33.8-25.1 33.3 0 33.3 46.6v118.8z m-181.7-298q-9.8-9.7-25.1-9.7t-25.1 9.7-9.7 24.1 9.7 24.1 24.6 9.7q16.3 0 26.1-9.2 9.2-9.2 9.2-22.6 0-15.8-9.7-25.6z m-58.4 298h65.5v-214.5h-65.5v214.5z" /></svg>