<svg height="512" width="512.0" xmlns="http://www.w3.org/2000/svg"><path d="m512 60.4v109.1h-342.5v-109.1h342.5z m0 171v109.1h-342.5v-109.1h342.5z m-411.6-160.2v98.3h-21.6v-64h-23.5v-14.9q25.1 0 28.7-19.4h16.4z m411.6 331.7v109.1h-342.5v-109.1h342.5z m-393.2-82.4v16.9h-72.2q0.5-14.3 8.7-25.1t17.9-15.3 17.4-12.3 8.2-15.4q0-6.1-4.1-10.2t-10.7-4.1q-14.9 0-15.9 21h-18.9q0-17.4 9.2-28.2t26.6-10.7q14.3 0 24.1 8.1t9.7 22.1q0 12.8-8.7 21t-20.5 15.8-17.4 15.4h46.6z m0.5 155.1q0 14.9-10.8 23.6t-25.6 8.7q-16.3 0-26.6-9.2t-10.2-25.1v-1.5h19.4q0 18.9 16.4 18.9 7.2 0 11.8-4.1t4.6-11.3-5.1-11.2-12.8-3.6h-4.6v-13.8h3q17.5 0 17.5-12.3 0-5.6-4.1-9.2t-10.3-3.6q-14.8 0-14.8 16.9h-19q0.5-15.4 9.8-24.1t24.5-8.7q13.3 0 23.1 7.2t9.7 20q0 6.6-4.1 12.2t-10.2 7.2q17.4 4.1 17.4 22.5z" /></svg>