<svg height="512" width="512.0" xmlns="http://www.w3.org/2000/svg"><path d="m512 45.6v421.9q0 18.4-13.3 31.7t-31.8 13.3h-421.8q-18.5 0-31.8-13.3t-13.3-31.7v-421.9q0-18.5 13.3-31.8t31.8-13.3h421.8q18.5 0 31.8 13.3t13.3 31.8z m-144.9 391.6h69.6q0-73.2-28.6-140.2t-77.3-115.8-115.8-77.3-140.2-28.6v69.1q78.8 0 146.4 39.4t106.5 106.5 39.4 146.9z m-122.9 0h69.7q0-64.5-32.3-119.8t-87-87-119.8-32.3v69.2q69.6 0 119.2 49.6 49.7 48.7 49.7 119.8z m-78.3-45q0-19-13.3-32.3t-32.3-13.3q-18.4 0-31.7 13.3t-13.3 32.3q0 18.4 13.3 31.7t31.7 13.3q19 0 32.3-13.3t13.3-31.7z" /></svg>