<svg height="512" width="512.0" xmlns="http://www.w3.org/2000/svg"><path d="m512 45.6v421.9q0 18.4-13.3 31.7t-31.8 13.3h-421.8q-18.5 0-31.8-13.3t-13.3-31.7v-421.9q0-18.5 13.3-31.8t31.8-13.3h421.8q18.5 0 31.8 13.3t13.3 31.8z m-233.5 186.3h93.7l-0.5-60.9h-94.2l1-92.7h-57.3q-1.6 34.9-19 60.5-1.5 2.5-4.6 8.1t-6.1 9.8-5.6 6.1q-9.8 7.7-39 7.7h-7.6v61.4l46.6 1.6v155.1q0 20 7.6 33.3t21 19.4 25.6 7.7 28.7 2.1h23q25.6 0 41.5-2.1t22-4.1 13.9-6.1v-65.6q-27.7 18-53.8 18-13.8 0-25.1-6.7t-11.3-12.8v-139.8z" /></svg>