<svg height="512" width="491.0" xmlns="http://www.w3.org/2000/svg"><path d="m68.1 65.5h422.9v323.1c0 30.2-26.1 56.8-53.8 56.8h-367.6c-45.5 0-69.6-23.5-69.6-81.4v-236h68.1v-63z m0 299v-201.7h-33.3v201.7c0 29.7 7.2 43.6 15.9 43.6 10.7 0 17.4-14.4 17.4-43.6z m388.6 24.6v-288.7h-353.8v264.1c0 20.5-4.1 35.4-9.7 46.6h344.6c11.7 0 19.4-13.3 19.4-22.5z m-217.6-69.1v11.8h-81.4v-11.8h81.4z m0 36.4v11.7h-81.4v-11.7h81.4z m32.3-15.9v-130.1h136.2v130.1h-136.2z m-32.3-92.2v11.8h-81.4v-11.8h81.4z m0 36.4v11.7h-81.4v-11.7h81.4z m0-74.3v11.8h-81.4v-11.8h81.4z m-69.1-37.3v-22.6h213v22.6h-213z" /></svg>