<svg height="512" width="407.0" xmlns="http://www.w3.org/2000/svg"><path d="m394.2 154.6c8.2 21 12.8 45.1 12.8 71.2 0 34.8-9.2 68.1-23.5 92.7-20 31.2-48.1 47.6-83.5 47.6-14.3 0-27.1-4.1-35.8-10.8-6.7-4.6-12.3-10.7-15.4-18.4-13.3 17.4-35.3 28.2-58.3 28.2-26.1 0-48.7-9.8-63-29.7-14.3-18-21-43-21-72.2s8.2-56.4 25.1-75.8c17.4-21 42.5-32.8 72.2-32.8 17.9 0 34.8 7.7 46.1 19.5l4.1-13.3h43.5l-9.2 132.6c-0.6 10.7 0.5 18.4 4.6 22.5 2 2.6 5.1 4.1 10.2 4.1 38.9 0 52.7-63 52.7-93.7 0-37.4-12.2-68.1-34.8-90.1-25.6-26.1-61.9-38.9-107-38.9-43 0-80.9 13.3-109.6 38.9-33.2 30.2-51.7 73.2-51.7 125.4 0 44.1 15.9 84.5 43.6 113.2 27.1 27.1 62.9 41.5 104.9 41.5 48.7 0 86-7.2 123.4-23.6l7.7-4.1v49.2l-3.1 1.5c-35.3 17.4-76.8 25.6-128.5 25.6-55.3 0-102.4-16.9-137.7-49.2-41.5-37.8-63.5-94.2-63.5-158.2 0-60.9 20.5-112.6 59.4-150.5 19.4-18.4 42.5-33.3 68.1-43 27.1-10.8 55.8-15.9 86.5-15.9 58.4 0 110.1 19.5 145.4 54.3 15.4 14.8 27.7 32.8 35.3 52.7z m-196.6 162.8c15.4 0 27.7-7.1 35.4-20.4 7.1-12.8 9.2-31.3 9.2-43.6 0-15.8-3.1-28.6-8.2-37.8-7.2-10.3-17.4-14.9-30.7-14.9-14.9 0-25.6 6.7-32.8 20-6.7 10.7-9.7 27.1-9.7 42.5 0 16.9 4.1 54.2 37.3 54.2z" /></svg>