<svg height="512" width="412.7" xmlns="http://www.w3.org/2000/svg"><path d="m183.8 405c0 23.5-19.4 43-43 43s-43-19.5-43-43 19.4-43 43-43 43 19.4 43 43z m207.4 0c0 23.5-19.5 43-43 43-23.1 0-42.5-19.5-42.5-43s19.4-43 42.5-43c23.5 0 42.5 19.4 43 43z m-3.1-268.8c14.3 0.5 25.1 11.8 25.1 25.6v143.9c0 14.8-11.8 26.1-26.1 26.1h-244.8c-12.3 0-23-9.8-25.1-22l-45.5-162.9s-7.7-29.7-21-33.2c-21-5.7-50.7 5.6-50.7-28.2 0-22 20-22 20-22 0.5 0 4.6-0.5 9.7-0.5 30.7 0 67.1 11.8 81.4 52.7z m-21 86v-41.5l-58.4-4.6v46.1h58.4z m-142.8 0h64v-47.6l-64-4.6v51.7z m64 14.9h-64v49.1h64v-49.1z m-84.5-68.1l-81.9-5.2 19.4 58.4h63v-53.2z m-57.9 68.1l15.4 49.1h42.5v-49.1h-57.9z m162.8 49.1h58.4v-49.1h-58.4v49.1z" /></svg>