<svg height="512" width="415.2" xmlns="http://www.w3.org/2000/svg"><path d="m71.2 396.3c23 0 40.4 17.9 40.4 40.4 0 22.1-17.4 40-40.4 40-22 0-40-17.9-40-40 0-22.5 18-40.4 40-40.4z m271.3 0c22.6 0 40 17.9 40 40.4 0 22.1-17.4 40-40 40s-40.4-17.9-40.4-40c0-22.5 17.9-40.4 40.4-40.4z m-244.7-301.6h289.3c19.4 0 28.1 11.8 28.1 25.6v119.8c0 13.3-10.2 24.6-23.5 25.6l-258.6 28.7c-21 2.6-23.5 30.2 1.6 30.2h245.2c28.2 0 28.2 41.5 0 41.5h-250.4c-56.3 0-77.3-62-33.2-94.7l22.5-16.9-79.4-173.6h-38.9c-30.2 0-30.2-46.1 0-46.1h45.6c23 0 29.7 10.8 36.3 27.7z m176.6 35.9h-66.5l13.3 43.5h63.5z m-160.2 0l19.9 43.5h64.6l-14.4-43.5h-70.6z m55.8 123.4l51.2-5.2-16.9-51.7h-60.9z m73.7-7.7l57.9-5.7-12.8-43.5h-61z m136.2-14.9v-34.8h-68.1l10.2 40.5z m0-57.8v-43.6h-82.4l9.7 43.6h73.2z" /></svg>