<svg height="512" width="416.3" xmlns="http://www.w3.org/2000/svg"><path d="m207.9 47.6c114.7 0 207.8 92.7 207.8 207.9 0 114.7-93.7 207.9-207.8 207.9-115.2 0-207.9-93.7-207.9-207.9 0-115.2 92.7-207.9 207.9-207.9z m0 370.2c89.6 0 161.8-73.2 161.8-162.8s-72.2-161.8-161.8-161.8-162.8 72.2-162.8 161.8 73.2 162.8 162.8 162.8z m61.4-137.2h-65.5c-7.2 0-12.8-2.6-16.9-7.7l-73.7-79.9c-20-21 12.8-51.7 33.2-31.2l66.6 73.2h55.8c31.2 0 28.2 46.1 0 46.1z m-74.2-147.5c0-6.6 5.6-12.3 12.3-12.3s12.2 5.7 12.2 12.3-5.6 12.3-12.2 12.3-12.3-5.6-12.3-12.3z m85 33.3c0-6.7 5.6-12.3 12.3-12.3s12.2 5.6 12.2 12.3-5.6 12.3-12.2 12.3-12.3-5.6-12.3-12.3z m37.9 87.6c0-6.7 5.6-12.3 12.2-12.3s12.3 5.6 12.3 12.3-5.6 12.2-12.3 12.2-12.2-5.6-12.2-12.2z m-33.8 86c0-6.7 5.6-12.3 12.2-12.3s12.3 5.6 12.3 12.3-5.6 12.3-12.3 12.3-12.2-5.7-12.2-12.3z m-89.6 37.3c0-6.6 5.6-12.2 12.2-12.2s12.3 5.6 12.3 12.2-5.6 12.3-12.3 12.3-12.2-5.6-12.2-12.3z m-83.5-33.2c0-6.7 5.6-12.3 12.3-12.3s12.3 5.6 12.3 12.3-5.7 12.3-12.3 12.3-12.3-5.7-12.3-12.3z m-38.4-89.6c0-6.7 5.6-12.3 12.3-12.3s12.3 5.6 12.3 12.3-5.7 12.3-12.3 12.3-12.3-5.7-12.3-12.3z" /></svg>