<svg height="512" width="576.5" xmlns="http://www.w3.org/2000/svg"><path d="m0 259.6c191.5 0 285.7-221.7 476.7-222.2 32.7 71.1 66.5 142.8 99.8 214.5-191.5 0-271.9 206.3-476.7 222.2-33.2-71.7-66.5-142.8-99.8-214.5z m61.4 33.8c22.1 46.6 43.6 92.6 65.6 139.8 54.2-10.3 100.3-37.4 144.9-69.7-25.1-9.7-43.5-30.2-54.3-53.2-12.3-27.2-14.3-56.3-10.2-86-44.1 32.2-90.2 59.3-145.4 69.1z m453.7-75.8c-22.6-46.6-43.5-93.7-65.6-139.8-54.2 10.3-101.3 37.4-145.4 70.7 25.6 9.2 43.5 30.2 54.3 52.7 12.3 27.2 14.8 56.3 10.2 86 44.1-32.7 91.2-59.4 146-69.1z m-336.9 156.2c-3.1-6.7-5.7-12.3-9.2-18.5-1.6 0.5-3.1 1.6-5.2 1.6 0.6 7.1 2.1 13.3 3.1 20.4 4.1-0.5 7.7-1.5 10.8-3z m14.3-11.8c2.1-3.1 4.1-7.2 5.6-10.8-7.1-2-13.3-4.1-19.9-6.6-0.5 2-2.1 4.1-2.6 5.1 5.1 4.1 10.8 8.2 16.9 12.3z m-43 11.8c2.6-6.7 4.6-12.3 7.2-18-2.1-0.5-4.1-2-4.6-2.5-4.6 5.1-9.3 9.7-13.3 14.8 3 2.6 7.1 5.1 10.7 5.7z m49.2-41c-0.6-4.1-1.6-7.7-2.6-11.8h-0.5c-5.6 4.1-11.8 7.2-17.9 10.3v0.5c1.5 1.5 1.5 3 1.5 5.1 7.7-1.5 13.3-2.6 20-4.6z m-71.2 21c7.2-2.6 12.8-4.6 19.4-7.7-0.5-2-1.5-2.5-1.5-4.6-7.2 0.5-14.8 0.5-22 0.5 0.5 4.1 2 7.7 4.1 11.8z m45-28.2c4.1-5.6 8.2-11.7 12.3-17.4-3-2.5-6.6-4.6-9.7-5.1-2.6 6.7-5.1 12.8-7.2 20 1.6 0.5 3.1 2 4.6 2.5z m-26.1 8.2c1.6-1.5 2.1-3 2.6-5.1-5.1-4.1-10.2-8.2-15.9-12.8-3.1 3.1-4.6 5.6-5.6 10.2 6.6 2.6 13.3 5.2 19.4 7.7z m14.4-11.8c-0.5-7.1-2.1-13.3-2.6-20.4-4.1 0.5-7.7 2-11.8 3 2.1 4.1 2.6 5.7 4.6 9.8-2-4.1-2.5-5.7-4.6-9.8 3.1 6.7 5.7 12.8 9.2 19.5 2.1-1.5 3.1-1.5 5.2-2.1z m245.7-120.8c-7.1-16.9-14.8-32.2-22.5-48.1-4.1 2-6.7 3.1-9.7 5.6 7.7 15.9 14.3 32.3 22 48.1 4.1-2.5 5.6-4 10.2-5.6z m45.1-22c-7.2-15.4-15.4-31.2-22.5-47.6-4.1 1.5-5.7 2.5-10.3 4.6 7.7 15.4 15.4 31.2 22.5 46.6 4.7-1.6 6.7-2.1 10.3-4.1z m-22.5 10.2c-7.7-16.9-15.4-32.2-23.1-48.1-4.1 2.1-5.6 3.1-9.7 5.1 7.7 15.4 15.3 31.3 22.5 47.6 4.1-1.5 5.6-2.5 10.3-4.6z" /></svg>