<svg height="512" width="415.2" xmlns="http://www.w3.org/2000/svg"><path d="m207.9 48.6c115.7 0 207.3 92.2 207.3 206.9 0 115.7-91.6 207.9-207.3 207.9-115.2 0-207.9-92.2-207.9-207.9 0-114.7 92.7-206.9 207.9-206.9z m11.7 375.8c33.3 0 51.2-57.8 59.4-86.5-19.9 2.1-39.9 3.1-59.4 4.1v82.4z m-66-41.4c9.7 23 24.6 41.4 41.5 41.4v-82.4c-20-0.5-40-2-58.9-4.1 4.1 16.9 9.7 31.3 17.4 45.1z m-114.2-104c8.2 9.8 29.7 22.6 68.1 29.7-2.5-15.8-4.1-33.8-4.1-51.2 0-12.8 0.5-23 2.1-35.3-29.7-5.6-46.6-10.2-60.4-15.9-4.7 15.4-7.2 32.8-7.2 49.2 0 8.2 0 16.9 1.5 23.5z m87.1-22c0 18.5 1.5 38.4 4.1 55.8 22 4.1 43 5.7 64.5 6.7v-90.1c-23.1-0.5-46.1-2.1-68.1-4.6 0 11.7-0.5 21-0.5 32.7z m67-169.4c-28.6 11.7-53.2 56.3-63.5 115.2 21 2 43.1 3 64.6 4v-119.2h-1.6z m42.5 9.2c-5.6-4.1-12.3-9.2-16.9-9.2v119.2c22.6-0.5 43.6-2 65.6-4-8.2-46.1-27.2-86.6-48.7-106.5z m-16.9 222.7c22.6-0.5 43.6-2.6 64.5-5.6 3.1-17.5 4.1-37.4 4.1-56.4 0-11.7 0-21-0.5-32.2-22 2-44 3.1-68.1 4.1v90.1z m90.1-97.3c1.6 12.3 1.6 22.5 1.6 35.3 0 17.4-1.6 35.9-3.1 51.7 66.6-10.7 69.1-26.1 69.1-53.7 0-15.9-2.5-33.3-7.6-48.7-12.3 5.2-33.8 12.8-59.4 15.4z m50.7-37.9c-17.9-39.9-51.7-71.7-91.6-86 19.4 25.1 31.2 60.4 37.9 101.9 34.8-6.7 48.6-12.3 53.7-15.9z m-271.8-47.6c-14.9 13.3-25.6 30.2-33.3 46.6 5.6 5.1 15.3 5.6 53.2 15.9 7.2-41 19.5-74.8 38.4-100.4-22 10.3-40.9 19.5-58.3 37.9z m0 238.1c15.3 16.9 34.8 28.1 54.2 36.3-14.8-20.4-24.5-46.6-30.7-77.3-25.6-5.6-48.6-12.8-64-21 9.7 23.6 22 45.1 40.5 62z m238.6 0c17.9-16.9 30.2-37.4 38.4-59.4-16.9 7.7-38.4 14.3-62 19.4-7.2 30.8-15.9 55.9-31.2 76.8 19.9-8.1 39.9-19.9 55.3-36.3z" /></svg>