<svg height="512" width="496.6" xmlns="http://www.w3.org/2000/svg"><path d="m0 446.5v-381h496.6v381h-496.6z m265.7-230.9v81.4h81.4v-81.4h-81.4z m0 196.6h81.4v-80.9h-81.4v80.9z m81.4-311.8h-81.4v80.8h81.4v-80.8z m115.2 196.6v-81.4h-80.9v81.4h80.9z m-80.9 115.2h80.9v-80.9h-80.9v80.9z m80.9-231v-80.8h-80.9v80.8h80.9z m-427.5 34.9v81.4h81.4v-81.4h-81.4z m0 196.6h81.4v-80.9h-81.4v80.9z m81.4-311.8h-81.4v80.9h81.4v-80.9z m115.2 196.6v-81.4h-80.9v81.4h80.9z m-80.9 115.2h80.9v-80.9h-80.9v80.9z m80.9-230.9v-80.9h-80.9v80.9h80.9z" /></svg>