<svg height="512" width="372.7" xmlns="http://www.w3.org/2000/svg"><path d="m235 202.2c76.3 0 137.7 61.5 137.7 137.3 0 76.2-61.4 137.7-137.7 137.7-75.8 0-137.7-61.5-137.7-137.7 0-39 16.9-74.8 43.5-99.9v-108c0-24.6-20-44-45.1-44-24.5 0-44 19.9-44 44v66.5h-51.7v-66.5c0-53.3 43-96.3 96.3-96.3s96.7 43 96.7 96.3v77.3c13.3-4.6 27.7-6.7 42.5-6.7z m-54.3 152.6v-30.7h-43.5l-6.6 15.4 6.6 15.3h43.5z m27.2 33.3l-22-22-31.3 32.2 6.7 15.4 15.3 5.6z m43 5.1h-30.7v43.5l15.3 6.7 15.4-6.7v-43.5z m33.3-27.1l-22.1 22 31.3 31.2 15.8-5.6 5.7-15.4z m5.1-42.5v30.7h43.5l6.7-15.4-6.7-15.3h-43.5z m-27.2-33.8l22.1 22 31.2-31.2-5.6-15.4-15.9-6.6z m-42.5-5.1h30.8v-43.5l-15.4-6.7-15.4 6.7v43.5z m-33.7 27.1l22-22-31.3-31.2-15.3 5.6-6.7 15.9z" /></svg>