<svg height="512" width="275.5" xmlns="http://www.w3.org/2000/svg"><path d="m233.5 228.9c25.6 25.1 41.4 59.4 41.4 97.8 0 76.2-61.9 137.7-137.7 137.7-76.3 0-137.7-61.5-137.7-137.7 0-38.4 15.3-73.3 40.9-97.8v-85c0-53.3 43.6-96.8 96.8-96.8s96.3 43.5 96.3 96.8v85z m-140.8-85v53.2c28.1-10.2 58.9-10.2 89.1 0v-53.2c0-24.6-20-45.1-44.1-45.1-25.1 0-45 20.5-45 45.1z m-10.3 198.6v-30.7h-43.5l-6.6 15.4 6.6 15.3h43.5z m27.2 33.3l-22-22-31.3 32.2 6.7 15.4 15.3 5.6z m43 5.1h-30.7v43.5l15.3 6.7 15.4-6.7v-43.5z m33.3-27.1l-22.1 22 31.3 31.2 15.8-5.6 5.7-15.4z m5.1-42.5v30.7h43.5l6.7-15.3-6.7-15.4h-43.5z m-27.2-33.8l22.1 22 31.2-31.2-5.6-15.4-15.9-6.6z m-42.5-5.1h30.8v-43.5l-15.4-6.7-15.4 6.7v43.5z m-33.7 27.1l22-22-31.3-31.2-15.3 5.6-6.7 15.9z" /></svg>