<svg height="512" width="416.3" xmlns="http://www.w3.org/2000/svg"><path d="m207.4 118.8c-53.8 0-82 29.7-82 83.4h66.6c0-19.9 4.6-29.7 14.8-29.7 9.8 0 14.4 9.8 14.4 29.7 0 25.1-12.3 33.8-35.9 33.8-2 0-5.6 0-10.2-0.5v63h66.6v-26.1c32.7-8.2 49.1-32.3 49.1-69.6 0-49.2-35.3-83.5-83.4-83.5z m0.5 207.3c-21 0-38.9 18-38.9 40 0 21 17.9 39.9 38.9 39.9s38.9-18.4 38.9-39.9-17.9-40-38.9-40z m0-278.5c114.7 0 207.8 92.7 207.8 207.9 0 114.7-93.7 207.9-207.8 207.9-115.2 0-207.9-93.7-207.9-207.9 0-115.2 92.7-207.9 207.9-207.9z" /></svg>