<svg height="512" width="417.8" xmlns="http://www.w3.org/2000/svg"><path d="m340.5 158.2l-5.1 119.3-124.5 215c-5.6 10.3-18.4 14.4-28.1 8.2l-172-99.8c-10.3-5.6-14.4-18.4-8.2-28.7l124.4-215 101.4-63.5 48.6 27.6c3.1-9.2 2.6-9.7 4.6-18.4 4.6-20 9.2-55.3 48.6-85 13.4-11.8 33.8-11.8 52.8-2 10.2 4.6 19.4 12.3 25.6 20.5 6.6 9.7 9.7 19.9 10.2 29.6-0.5 12.3-6.6 28.7-33.3 41.5-21 9.7-38.9 12.3-55.8 14.4-14.8 2-26.1 3-35.8 9.7z m-5.1-132.6c-35.9 27.6-41 58.9-44.1 78.3 0 3.1-0.5 5.2-1.5 7.7-0.5 3.1 0 5.1-1.5 9.2 11.7-7.6 23.5-8.2 38.9-9.7 15.3-2 33.2-4.6 52.7-13.3 17.9-7.7 27.1-19.5 27.7-32.3 0-14.8-10.8-30.2-27.2-38.9-0.5-0.5-2-1.5-3.1-2-15.3-7.7-30.7-7.7-42.5 1.5z m-112.2 204.8c22 12.3 50.2 5.1 62-16.9 10.2-17.4 7.2-38.4-5.1-52.7l-22.1-13.3c-19.4-6.7-40.9 2-51.7 20.4-12.3 22.1-5.1 49.2 16.9 62z" /></svg>