<svg height="512" width="395.8" xmlns="http://www.w3.org/2000/svg"><path d="m382 326.1c11.7 23.1 2 46.6-14.4 58.4 37.4 115.7-214 53.3-233.5 34.8v29.7c0 8.2-7.1 15.4-14.8 15.4h-105c-7.6 0-14.8-7.2-14.8-15.4v-246.2c0-7.7 7.2-14.9 14.8-14.9h105c7.7 0 14.8 7.2 14.8 14.9v16.8c50.2-32.7 75.8-114.6 76.3-117.7 7.7-33.3 27.2-52.7 54.3-52.7 28.7 0 63 28.1 63 87.5 0 14.9-5.7 37.9-14.9 55.3h9.2c37.9 0 80.9 17.9 66.6 72.2 14.9 25.1 5.1 52.7-6.6 63z m-56.4-0.5c-8.2-1.5-8.2-8.2 0-8.2 36.4 0 37.9-38.4 4.6-39.9-7.1-0.5-7.1-7.7 0-7.7 33.3 0 27.7-42.5-8.2-42.5h-37.8c-13.4 0-20-8.2-20-16.9 0-15.3 27.1-48.6 27.1-74.2 0-32.8-15.8-51.7-26.1-51.7-10.7 0-16.9 9.2-17.9 19.9-7.7 51.2-64 136.2-112.6 157.7v115.8c68.6 33.7 128.5 36.3 157.7 37.8 43.5 1.6 65.5-33.2 20.4-43-9.7-1.5-9.2-9.7-2-9.7 45.6 0 48.6-33.8 15.3-37.9z" /></svg>