<svg height="512" width="389.1" xmlns="http://www.w3.org/2000/svg"><path d="m40.4 61.4h307.8c28.6 0 40.9 12.3 40.9 40.5v307.7c0 27.1-12.3 40.4-40.9 40.4h-307.8c-26.1 0-40.4-13.3-40.4-40.4v-307.7c0-28.2 14.3-40.5 40.4-40.5z m220.7 263.2h-41.5c-28.6-2-49.1-21-49.1-48.6v-27.2h91.1c16.9 0 30.2-13.3 30.2-30.2 0-17.4-13.3-30.7-30.2-30.7h-91.1v-37.9c0-16.9-14.3-30.7-29.7-30.7-17.4 0-30.2 14.3-30.2 30.7v125.5c0 29.7 10.2 58.3 31.2 76.8 20 19.9 46.1 31.2 75.8 32.7h43.5c16.9 0 30.2-13.3 30.2-30.7 0-16.9-13.3-30.2-30.2-30.2z" /></svg>