<svg height="512" width="452.6" xmlns="http://www.w3.org/2000/svg"><path d="m366.1 97.8h86.5v10.7l-68.1 43.6c5.6 40.9-27.6 59.4-27.6 59.4s25.6 70.6-25.1 129.5c-58.9 68.6-122.9 43.5-133.1 40.4-10.3-2.5-9.8 4.6-9.8 4.6 12.3 49.2 0 66.6-27.1 69.2-29.7 2.5-24.6-45.1-24.6-45.1-50.7 45.1-67.1 20-63.5 3.1 6.7-25.1 38.4-55.3 38.4-55.3-92.6 0-113.1-69.1-113.1-69.1s45 11.7 75.8 5.1c32.2-6.7 64.5-30.7 76.2-81.4 10.3-45.6 59.4-64 59.4-64 0-69.7 56.9-91.7 90.1-91.7 54.3 0 64.6 40.5 64.6 40.5z m-80.9 27.6c0 14.4 11.8 25.6 25.6 25.6s25.6-11.7 25.6-25.6-11.8-25.6-25.6-25.6-25.6 11.8-25.6 25.6z" /></svg>