<svg height="512" width="697.9" xmlns="http://www.w3.org/2000/svg"><path d="m462.3 340c0-16.9-12.8-35.4-12.8-35.4s-1.5 7.2-9.2 4.1c-7.1-4.1-14.3-13.3-15.9-22-0.5-7.7-7.1-22-9.7-25.1-2.5-5.1-0.5-15.3 11.8-16.9 0 0-4.6-9.7-0.5-14.3 0 0-12.8 0.5-7.2-10.8 0 0-26.1-9.2-4.6-30.2 0 0-14.3-14.8 2.6-17.4 0 0-24.6-27.6 8.2-38.9 0 0-29.7-72.2 24.5-75.8 28.2-4.1 47.7 13.4 73.3 24.6 0 0 35.3-28.7 55.2-25.1 35.4 7.2 45.6 41.5 25.1 71.7 22.1-5.6 29.7 28.2 12.3 41 0 0 10.3 11.7 0 24.5 0 0 15.4 22.1-4.1 30.8 0 0-3 12.8-7.7 18.4 0 0 8.2-1.5 10.8 5.1 3.1 7.7 4.6 14.4-2 24.6-6.7 9.7-7.7 15.9-10.3 22-2 5.1-4.1 21-17.9 12.3-19.5 23.6-25.6 61.4-12.8 94.7l3.1 5.7c44 9.2 97.8 18.4 123.4 29.6v29.7h-358.4v-1.5h-339.5s2.6-32.2 29.7-45.6c27.6-13.3 130.6-43 138.2-46l0.5-23.6 10.3-2.6s3.1-38.4 3.1-43.5c0 0-14.9-30.7-18.5-47.6 0 0-12.8 0-14.8-14.3-1.6-13.3 0-22-2.6-31.3-2-9.7 5.1-19.9 11.8-17.9 0 0-13.3-68.6 0-88.6 9.7-13.3 37.9-47.6 105.5-59.3 0 0 16.9-1.6 22.5 0.5 4.6 1.5 4.1 2.5-5.1 11.7 0 0 35.3 22.1 46.1 56.4 7.6 21 4.6 67 0 79.3 0 0 10.7-2 9.7 10.8-2.1 20.5-3.1 58.9-17.4 52.7 0 0-0.5 41.5-14.4 50.7 0 0-3 33.8 2.6 35.3h8.2s4.1 27.7 10.2 34.8c0 0 31.3 12.8 67.1 21 15.4 4.1 34.8 5.2 54.3 4.6 6.6-17.4 15.3-20.9 14.8-62.9z" /></svg>