<svg height="512" width="459.3" xmlns="http://www.w3.org/2000/svg"><path d="m459.3 456.2h-458.3s-2-5.6 0-36.4c26.1-13.3 150-46.6 156.7-50.1l0.5-23.1 9.7-2.5s4.1-35.9 4.1-41.5c0 0-14.8-28.7-17.9-45.6 0 0-12.3 0-13.3-12.3-2-12.8 0-21-3.1-30.7-2-9.2 5.1-18.4 10.8-16.9 0 0-12.8-66 0-83.9 9.2-12.8 36.3-45.6 101.4-56.9 0 0 15.8-2 20.9 0.5 4.1 1.6 3.1 2.6-4.6 10.8 0 0 33.3 20.5 44.1 53.2 6.6 20.5 4.1 64.5 0 76.3 0 0 9.7-2 8.2 10.3-2.1 19.9-2.6 56.3-16.9 49.1 0 0-0.5 41-12.8 49.2 0 0-4.1 32.2 2 33.2h8.2s3.1 26.2 9.7 33.3c0 0 137.3 35.4 150.6 50.7 0.5 16.9 0 32.8 0 32.8z" /></svg>