<svg height="512" width="486.9" xmlns="http://www.w3.org/2000/svg"><path d="m486.9 199.2c7.2 7.1 7.2 17.9 0 25.6l-34.8 35.3c-7.2 7.2-17.9 7.2-25.6 0l-7.7-8.2c-5.6-5.1-8.2-14.8-5.1-19.5 5.6-4 4.1-15.3-7.2-25.6-15.3-15.8-35.3-16.8-43-8.1-3.1 2.5-13.3 13.3-13.3 13.3l-47.6-46.6 7.7-7.7s2-2.1 5.6-6.7c14.9-14.8-0.5-31.2-0.5-31.2-41.5-41-99.8-40.4-99.8-40.4l-0.6-14.9c117.3-30.2 161.3 21 177.2 37.4l33.8 33.8c8.2 8.2 0 32.2 12.3 45.5 5.6 5.7 13.3 8.2 19.4 8.2 6.7-5.6 16.9-4.1 22 2.1z m-207.9 86.5l112.7 101.4c15.9 15.8 15.3 41.4-0.5 58.3-16.9 15.9-42.5 15.9-58.4-0.5l-102.9-109-96.3 115.7c-9.2 9.7-25.1 9.7-34.8 0l-25.1-25.6c-9.7-9.2-9.7-25.1 0-34.8l110.1-102.4-53.2-51.2c-17.4-16.9-27.7-22-41.5-17.4-14.3 5.1-33.8 5.1-52.7-7.2-40-25.6-37.4-73.7-37.4-73.7l3-5.2s35.9 23.1 40.5 25.6c5.6 4.7 25.6 13.4 43.5-14.3 18.4-27.6 3.1-45-2-48.1-4.6-2.6-40.5-26.1-40.5-26.1l3.1-5.2s41.5-20.9 80.9 2.1c0 1.5 9.7 7.2 13.3 10.2 25.1 22.6 25.1 47.7 20.5 68.1-4.1 18.5 0 25.1 14.8 41l53.3 53.2 63.5-64.5 46 47.6z m97.8 145.4c8.2-7.7 8.2-22.5 0-30.7s-22-8.2-30.7 0c-7.7 8.2-7.7 22.5 0 30.2 9.2 8.2 22.5 9.7 30.7 0.5z" /></svg>