<svg height="512" width="4687.596" xmlns="http://www.w3.org/2000/svg"><path d="M4162.244,49.055v94.538h-176.76v365.052c-0.711,0-106.826,0-107.506,0V146.041h-176.695V49.055H4162.244L4162.244,49.055z M4687.596,48.298v92.883h-367.776v96.948h291.396v80.002h-291.396v92.062h367.776l0.354,98.452h-468.5V48.298H4687.596z M2077.248,221.13v287.515h-97.93V49.055h93.154l343.944,298.091V49.055h88.346l-0.194,459.588h-88.709C2415.859,506.477,2077.248,221.13,2077.248,221.13L2077.248,221.13z M1357.723,377.38v-14.331c0-37.27-27.985-80.832-27.985-81.336c0-5.102,28.663-28.86,28.663-75.115v-13.547v-13.08c0-90.146-87.729-131.683-115.961-131.683H835.277l0.089,461.288h422.688c15.047-0.943,18.377-5.363,40.59-16.984c17.17-8.969,59.066-50.438,59.066-95.05v-19.377v-0.785H1357.723L1357.723,377.38z M1252.964,384.796c-0.565,15.817-7.312,33.599-23.306,34.263c-19.891,0.888-292.688-0.385-301.525-0.385v-93.211c0,0,289.914-0.646,304.857,0.206c12.492,0.683,19.676,14.146,19.975,32.465l0.257,19.246L1252.964,384.796L1252.964,384.796z M1253.785,193.051l-0.467,13.646c0,15.877-7.338,33.642-23.307,34.287c-19.945,0.877-292.688-0.355-301.525-0.355v-93.238c0,0,289.881-0.649,304.813,0.2c12.522,0.711,20.007,14.113,20.007,32.471v12.991h0.479V193.051L1253.785,193.051z M1731.219,309.199h-150.42l76.123-138.961L1731.219,309.199L1731.219,309.199z M1690.316,49.055h-73.998L1365.18,508.644h99.485l63.248-108.112h246.018l63.072,108.112h98.692L1690.316,49.055L1690.316,49.055z M3027.92,274.5c-0.16,84.047-79.629,126.031-110.037,126.031h-167.094c-24.047,0-112.332-22.592-112.332-130.926c0-84.065,89.106-126.014,114.649-126.014h162.438c38.621,0,112.215,51.145,112.215,130.907L3027.92,274.5L3027.92,274.5z M3130.678,273.146l-0.271-10.812c-2.195-108.555-107.412-214.046-186.354-214.046h-212.266c-123.611,0-200.771,136.574-200.771,204.354v65.478c5.896,133.271,128.029,186.858,169.613,191.457c29.514,3.248,250.764,0,250.764,0c20.062-0.945,157.687-31.297,179.021-198.717L3130.678,273.146L3130.678,273.146z M3579.26,188.814c0,23.067-9.137,43.775-29.02,47.134c-10.014,0-295.363,0.2-297.961-0.267l0.26-90.558h289.006C3566.061,145.124,3579.26,166.808,3579.26,188.814L3579.26,188.814z M3665.396,170.228c-3.529-73.923-74.918-121.173-150.425-121.173h-358.26v459.588h97.957V318.131h148.062c7.931,0,145.031,190.514,145.031,190.514h117.754L3524.5,322.96c7.531,0.532,36.521-1.151,36.521-1.151c56.178-1.202,104.375-25.979,104.375-107.951C3665.396,209.401,3665.75,176.319,3665.396,170.228L3665.396,170.228z"/></svg>