<svg height="512" width="2460.553" xmlns="http://www.w3.org/2000/svg"><path d="M3.606,297.338c12.242,99.358,89.547,184.634,187.16,207.238
	c111.783,25.884,208.892-27.979,263.981-104.685c7.735-10.772,5.188-19.326-5.592-25.863c-9.69-5.877-19.565-11.46-29.477-16.963
	c-20.447-11.356-31.271-8.711-46.778,9.259c-43.46,50.357-98.763,68.775-162.742,53.24c-64.24-15.601-105.309-58.18-119-122.832
	c-13.989-66.068,7.647-121.8,61.312-162.604c67.799-51.547,164.388-39.95,220.885,24.394c14.919,16.993,26.349,19.075,46.032,8.159
	c9.912-5.498,19.802-11.058,29.495-16.93c11.529-6.983,13.774-15.923,5.057-26.958C404.951,60.774,342.599,21.335,262.742,16.156
	C120.64,6.938,0.874,121.008,0,263.56C1.194,274.818,2.222,286.101,3.606,297.338z M1227.652,484.854
	c-0.094,14.619,5.825,20.367,20.33,20.212c41.3-0.44,82.685,1.398,123.889-0.675c29.633-1.488,59.922-4.58,88.367-12.525
	c132.45-36.999,187.484-187.104,109.015-295.664c-37.695-52.152-93.109-74.979-154.254-80.641
	c-54.807-5.076-110.286-3.033-165.47-3.865c-18.412-0.279-21.674,3.217-21.694,21.548c-0.063,58.344-0.021,116.686-0.021,175.03
	C1227.812,367.133,1228.036,425.993,1227.652,484.854z M1295.812,194.66c0.038-17.745,3.289-21.179,20.429-21.221
	c40.14-0.099,80.38-1.966,119.646,9.657c82.432,24.401,120.288,108.729,82.885,185.77c-18.923,38.977-52.964,59.813-93.275,66.528
	c-37.802,6.297-76.785,5.797-115.287,7.451c-12.229,0.518-14.553-8.771-14.502-19.238c0.193-38.676,0.079-77.348,0.079-116.021
	C1295.783,269.943,1295.727,232.302,1295.812,194.66z M919.009,111.638c-19.539,0.039-22.662,3.062-22.695,22.14
	c-0.065,36.629-0.02,73.261-0.02,109.893c0,78.939-0.011,157.879,0.007,236.814c0.005,22.204,2.292,24.396,25.075,24.426
	c9.287,0.014,18.573,0.02,27.861,0c21.739-0.044,24.298-2.491,24.315-23.639c0.034-43.853-0.043-87.707,0.036-131.564
	c0.034-18.315,3.154-21.316,21.856-21.377c29.923-0.099,59.87,0.63,89.769-0.27c58.149-1.752,107.701-47.002,111.301-100.64
	c3.682-54.858-36.06-107.69-95.19-115.675 M987.397,266.622c-9.796,0.281-14.069-3.65-13.923-13.632
	c0.325-22.144-0.417-44.319,0.538-66.425c0.194-4.475,5.949-12.462,9.162-12.475c33.388-0.12,66.995-0.965,100.104,2.52
	c26.758,2.819,39.221,19.658,39.175,43.4c-0.045,23.213-13.315,37.919-39.539,43.806c-3.511,0.788-7.017,2.146-10.543,2.207
	c-14.93,0.247-29.866,0.103-44.8,0.103c0,0.135-0.001,0.267-0.001,0.398C1014.179,266.523,1000.778,266.235,987.397,266.622z
	 M1655.213,484.681c-0.127,14.482,5.519,20.86,20.154,20.36c16.49-0.562,33.016-0.206,49.523-0.117
	c11.498,0.061,17.061-5.451,17.057-16.994c-0.045-97.001-0.053-194.003,0.006-291.004c0.009-11.489-5.365-17.183-16.91-17.141
	c-15.994,0.056-31.987-0.062-47.984,0.019c-18.375,0.095-21.636,3.285-21.663,21.617c-0.07,46.437-0.021,92.873-0.021,139.307
	C1655.374,388.714,1655.638,436.701,1655.213,484.681z M1921.79,348.357c-0.092,13.204,5.805,20.264,19.376,20.233
	c15.963-0.037,31.923-0.037,47.883-0.005c13.576,0.03,19.406-7.036,19.376-20.237c-0.114-44.28-0.127-88.56,0-132.841
	c0.044-14.282-6.89-20.556-20.928-20.292c-14.927,0.279-29.866-0.096-44.794,0.106c-15.55,0.21-20.729,5.608-20.842,21.739
	c-0.15,21.625-0.038,43.25-0.038,64.875C1921.828,304.076,1921.938,326.219,1921.79,348.357z"/>
</svg>
