<svg height="512" width="2460.553" xmlns="http://www.w3.org/2000/svg"><path d="M1741.953,196.926c-0.059,97.001-0.051,194.003-0.006,291.004c0.004,11.543-5.559,17.056-17.057,16.994c-16.508-0.089-33.033-0.445-49.523,0.117c-14.635,0.5-20.281-5.878-20.154-20.36c0.425-47.979,0.161-95.967,0.162-143.952
	c0-46.435-0.049-92.871,0.021-139.308c0.026-18.332,3.287-21.522,21.662-21.617c15.997-0.081,31.99,0.037,47.984-0.019
	C1736.588,179.743,1741.962,185.437,1741.953,196.926z M152.47,134.128c67.799-51.547,164.388-39.95,220.885,24.394
	c14.919,16.993,26.349,19.075,46.032,8.159c9.912-5.498,19.803-11.058,29.495-16.93c11.529-6.983,13.774-15.923,5.058-26.958
	C404.951,60.774,342.599,21.335,262.742,16.156C120.64,6.938,0.874,121.008,0,263.561c1.194,11.258,2.222,22.541,3.606,33.777
	c12.242,99.358,89.547,184.634,187.16,207.238c111.783,25.884,208.892-27.979,263.981-104.686
	c7.735-10.771,5.188-19.325-5.592-25.862c-9.69-5.877-19.565-11.46-29.478-16.963c-20.447-11.356-31.271-8.712-46.778,9.259
	c-43.46,50.356-98.763,68.774-162.742,53.24c-64.24-15.602-105.309-58.181-119-122.832
	C77.169,230.664,98.805,174.932,152.47,134.128z M2136.893,272.686l-64.719,0.01c-7.812-0.002-16.606-0.952-16.914,10.43
	c-0.302,11.284,8.062,11.182,16.183,11.169c47.907-0.054,18.356-0.063,66.26,0.011c8.183,0.014,16.497-0.022,16.158-11.223
	C2153.516,271.801,2144.741,272.676,2136.893,272.686z M1733.877,12.54c-23.677-0.358-47.366-0.393-71.04,0.018
	c-16.218,0.283-25.724,9.898-25.983,26.2c-0.386,23.675-0.386,47.364-0.004,71.041c0.273,16.915,10.075,26.088,27.35,26.416
	c11.322,0.214,22.649,0.042,33.975,0.04c11.844-0.003,23.688,0.215,35.521-0.054c16.998-0.386,26.543-9.827,26.779-26.992
	c0.318-23.163,0.303-46.335,0.006-69.498C1760.26,22.415,1750.918,12.797,1733.877,12.54z M1569.253,196.202
	c78.469,108.56,23.435,258.665-109.015,295.664c-28.445,7.944-58.734,11.037-88.367,12.524
	c-41.204,2.073-82.589,0.235-123.889,0.676c-14.506,0.154-20.424-5.594-20.33-20.213c0.384-58.86,0.16-117.721,0.162-176.579
	c0-58.344-0.043-116.687,0.021-175.03c0.021-18.331,3.282-21.827,21.694-21.548c55.184,0.832,110.662-1.211,165.47,3.865
	C1476.145,121.223,1531.559,144.05,1569.253,196.202z M1435.887,183.096c-39.266-11.623-79.506-9.756-119.646-9.657
	c-17.14,0.042-20.392,3.476-20.429,21.221c-0.086,37.642-0.029,75.283-0.025,112.926c0,38.673,0.113,77.345-0.079,116.021
	c-0.051,10.467,2.272,19.756,14.502,19.237c38.502-1.653,77.485-1.153,115.287-7.451c40.312-6.715,74.353-27.551,93.274-66.527
	C1556.175,291.825,1518.318,207.497,1435.887,183.096z M1196.514,227.421c-3.6,53.638-53.151,98.888-111.301,100.64
	c-29.898,0.9-59.846,0.172-89.769,0.271c-18.702,0.061-21.822,3.062-21.856,21.377c-0.079,43.857-0.002,87.711-0.036,131.563
	c-0.017,21.148-2.575,23.596-24.314,23.64c-9.288,0.02-18.574,0.014-27.861,0c-22.783-0.03-25.07-2.222-25.075-24.426
	c-0.018-78.936-0.007-157.875-0.007-236.814c0-36.632-0.045-73.264,0.021-109.893c0.032-19.078,3.155-22.101,22.694-22.14
	l182.315,0.108C1160.454,119.731,1200.196,172.563,1196.514,227.421z M1122.453,220.01c0.046-23.742-12.417-40.581-39.175-43.4
	c-33.109-3.485-66.716-2.64-100.104-2.52c-3.213,0.013-8.968,8-9.162,12.475c-0.955,22.106-0.213,44.281-0.538,66.425
	c-0.146,9.982,4.127,13.912,13.923,13.632c13.382-0.388,26.782-0.099,40.174-0.099c0-0.131,0.001-0.262,0.001-0.397
	c14.934,0,29.87,0.144,44.8-0.103c3.526-0.062,7.032-1.42,10.543-2.207C1109.138,257.93,1122.408,243.223,1122.453,220.01z
	 M866.999,264.461c25.451,110.945-52.749,224.548-165.813,240.886c-85.1,12.296-167.521-28.115-210.178-103.053
	c-7.432-13.056-5.477-21.847,6.831-30.348c2.114-1.461,4.421-2.638,6.621-3.979c37.72-22.971,37.398-22.723,63.849,11.343
	c30.252,38.965,70.441,56.765,119.411,50.222c50.884-6.795,82.968-38.24,101.579-84.517c6.912-17.183,2.803-22.736-15.525-22.795
	c-46.443-0.144-92.89-0.049-139.338-0.057c-45.414-0.009-90.828,0.019-136.238-0.022c-23.598-0.021-30.676-7.524-29.242-30.763
	c5.432-87.958,76.107-167.181,162.91-182.607C741.201,89.337,842.162,156.188,866.999,264.461z M775.477,250.232
	c-1.78-6.106-2.11-13.231-5.567-18.164c-43.015-61.394-145.545-72.283-202.656,4.685c-2.503,3.374-5.073,10.58-3.544,12.231
	c2.916,3.146,8.756,4.85,13.411,4.911c30.442,0.405,60.892,0.208,91.34,0.212c29.935,0,59.868,0.199,89.797-0.176
	C764.011,253.859,769.737,251.524,775.477,250.232z M2071.412,219.982c47.908-0.055,18.355-0.066,66.261,0.01
	c8.182,0.015,16.496-0.021,16.157-11.223c-0.344-11.279-9.119-10.405-16.969-10.396l-64.719,0.009
	c-7.812-0.002-16.607-0.953-16.912,10.43C2054.926,220.097,2063.291,219.996,2071.412,219.982z M2387.806,343.97l-86.407,0.008
	c-7.812-0.003-16.606-0.951-16.914,10.428c-0.302,11.286,8.062,11.181,16.185,11.174c47.907-0.057,40.042-0.066,87.949,0.007
	c8.181,0.014,16.495-0.021,16.155-11.22C2404.429,343.087,2395.655,343.959,2387.806,343.97z M2415.689,272.686
	c-23.183,0.028-18.476,0.012-41.655,0.012c-24.212-0.002-48.423,0.001-72.636-0.004c-7.812-0.002-16.606-0.951-16.914,10.429
	c-0.302,11.286,8.062,11.183,16.185,11.173c47.907-0.057,67.929-0.066,115.833,0.01c8.181,0.012,16.496-0.024,16.157-11.222
	C2432.312,271.803,2423.54,272.676,2415.689,272.686z M2366.119,415.146l-64.721,0.01c-7.812-0.004-16.606-0.954-16.914,10.429
	c-0.302,11.286,8.062,11.184,16.185,11.172c47.907-0.055,18.354-0.066,66.261,0.008c8.182,0.016,16.496-0.02,16.157-11.221
	C2382.742,414.263,2373.968,415.138,2366.119,415.146z M2071.412,365.578c47.908-0.055,18.355-0.066,66.261,0.007
	c8.182,0.021,16.496-0.019,16.157-11.22c-0.344-11.279-9.119-10.405-16.969-10.396l-64.719,0.01
	c-7.812-0.005-16.607-0.953-16.912,10.43C2054.926,365.694,2063.291,365.591,2071.412,365.578z M2460.543,208.723
	c-0.344-11.279-9.119-10.406-16.968-10.396c-23.184,0.029-46.36,0.01-69.541,0.01c-24.212,0.001-48.423,0.004-72.636-0.001
	c-7.812-0.002-16.606-0.953-16.914,10.427c-0.302,11.287,8.062,11.183,16.185,11.174c47.907-0.058,95.812-0.067,143.717,0.007
	C2452.566,219.958,2460.882,219.921,2460.543,208.723z M1940.771,154.883c9.808-0.2,19.623-0.214,29.426-0.006
	c38.531,0.824,38.511,0.305,38.393-37.99c-0.14-44.8,2.088-43.023-43.156-42.48c-8.263,0.002-16.523,0.138-24.783-0.03
	c-12.774-0.259-19.037,5.736-18.898,18.63c0.158,14.452,0.141,28.908,0.006,43.36
	C1921.639,149.299,1928.04,155.143,1940.771,154.883z M2225.301,293.805c0,60.932,0.04,121.86-0.021,182.79
	c-0.021,22.952-8.656,31.432-31.858,31.439c-72.294,0.033-144.587,0.262-216.867-0.37c-7.18-0.065-15.99-3.75-21.182-8.734
	c-32.762-31.472-64.925-63.581-96.688-96.062c-4.412-4.507-7.801-12.234-7.824-18.483c-0.454-118.243-0.375-236.489-0.294-354.735
	c0.016-20.21,9.165-29.525,29.073-29.554c78.485-0.113,156.975-0.225,235.457,0.289c6.32,0.041,14.078,3.299,18.67,7.68
	c28.018,26.726,55.644,53.889,82.551,81.728c4.98,5.154,8.521,14.027,8.604,21.23
	C2225.588,171.944,2225.301,232.876,2225.301,293.805z M2200.305,117.184c-0.019-5.277-3.593-11.665-7.464-15.621
	c-22.736-23.227-45.732-46.222-69.431-68.453c-4.922-4.616-13.152-7.985-19.887-8.038c-71.719-0.569-143.44-0.363-215.168-0.322
	c-3.969,0.001-7.942,0.427-11.922,0.656c-0.531,2.431-1.125,3.876-1.125,5.323c-0.064,115.582-0.186,231.164,0.229,346.743
	c0.018,5.232,3.793,11.547,7.7,15.5c27.188,27.528,54.563,54.903,82.69,81.468c5.25,4.959,14.104,8.43,21.366,8.552
	c45.912,0.761,91.841,0.387,137.765,0.387c24.64,0,49.281,0,75.57-0.001C2200.629,359.661,2200.723,238.421,2200.305,117.184z
	 M2008.425,348.348c-0.114-44.279-0.127-88.56,0-132.841c0.044-14.282-6.89-20.556-20.928-20.292
	c-14.927,0.279-29.866-0.096-44.794,0.106c-15.55,0.21-20.729,5.608-20.842,21.739c-0.15,21.625-0.038,43.25-0.038,64.875
	c0.005,22.141,0.114,44.283-0.033,66.422c-0.092,13.203,5.806,20.264,19.376,20.232c15.963-0.037,31.923-0.037,47.883-0.005
	C2002.625,368.615,2008.455,361.549,2008.425,348.348z M2137.21,415.226c-23.182,0.03-53.257-0.005-76.438-0.005
	c-24.209,0-48.422,0.005-72.634-0.002c-7.811,0-16.606-0.95-16.913,10.432c-0.303,11.287,8.062,11.182,16.184,11.172
	c47.906-0.059,102.707-0.055,150.613,0.02c8.182,0.014,16.494-0.021,16.156-11.22
	C2153.833,414.342,2145.058,415.214,2137.21,415.226z"/>
</svg>
