<svg height="512" width="2460.553" xmlns="http://www.w3.org/2000/svg"><path d="M2301.398,343.978c-7.811-0.003-16.606-0.952-16.913,10.427
	c-0.302,11.286,8.062,11.181,16.184,11.174c47.907-0.057,40.042-0.066,87.949,0.007c8.181,0.014,16.495-0.021,16.156-11.22
	c-0.345-11.279-9.119-10.407-16.968-10.396 M2301.398,415.155c-7.811-0.004-16.606-0.954-16.913,10.429
	c-0.302,11.286,8.062,11.184,16.184,11.172c47.907-0.055,18.354-0.067,66.261,0.008c8.181,0.015,16.496-0.02,16.157-11.221
	c-0.345-11.28-9.119-10.405-16.968-10.397 M2301.398,272.694c-7.811-0.002-16.606-0.952-16.913,10.428
	c-0.302,11.286,8.062,11.182,16.184,11.173c47.907-0.057,67.929-0.066,115.833,0.009c8.181,0.013,16.496-0.024,16.157-11.221
	c-0.346-11.28-9.119-10.407-16.969-10.397c-23.183,0.028-18.476,0.011-41.656,0.011
	C2349.822,272.696,2325.611,272.698,2301.398,272.694z M773.773,322.22c18.328,0.058,22.438,5.612,15.526,22.795
	c-18.611,46.276-50.696,77.721-101.579,84.516c-48.97,6.543-89.16-11.257-119.411-50.221
	c-26.451-34.066-26.129-34.314-63.849-11.343c-2.2,1.342-4.507,2.518-6.621,3.979c-12.308,8.501-14.263,17.292-6.831,30.348
	c42.656,74.937,125.078,115.349,210.178,103.053c113.064-16.338,191.264-129.941,165.813-240.886
	c-24.837-108.273-125.798-175.124-235.134-155.69c-86.802,15.426-157.478,94.649-162.91,182.607
	c-1.434,23.238,5.645,30.742,29.242,30.763c45.411,0.041,90.825,0.013,136.239,0.022C680.884,322.171,727.33,322.076,773.773,322.22
	z M577.12,253.895c-4.655-0.061-10.495-1.765-13.411-4.911c-1.529-1.651,1.041-8.857,3.544-12.231
	c57.111-76.968,159.641-66.079,202.656-4.685c3.457,4.933,3.787,12.058,5.568,18.164c-5.74,1.292-11.466,3.627-17.22,3.699
	c-29.929,0.375-59.863,0.176-89.797,0.176C638.012,254.103,607.562,254.3,577.12,253.895z M2224.922,111.022
	c-0.083-7.203-3.623-16.076-8.604-21.23c-26.907-27.839-54.533-55.002-82.55-81.728c-4.592-4.381-12.35-7.639-18.671-7.68
	c-78.482-0.514-156.971-0.402-235.456-0.289c-19.909,0.029-29.058,9.344-29.074,29.554c-0.081,118.246-0.16,236.492,0.294,354.735
	c0.024,6.249,3.413,13.976,7.825,18.483c31.762,32.482,63.925,64.591,96.687,96.063c5.192,4.984,14.002,8.669,21.181,8.734
	c72.281,0.632,144.574,0.403,216.868,0.37c23.202-0.008,31.838-8.487,31.858-31.439c0.061-60.93,0.021-121.859,0.021-182.79
	C2225.301,232.876,2225.588,171.944,2224.922,111.022z M2125.059,483.378c-45.924,0-91.853,0.374-137.765-0.387
	c-7.262-0.122-16.116-3.593-21.367-8.552c-28.127-26.564-55.501-53.939-82.69-81.467c-3.907-3.953-7.682-10.268-7.7-15.5
	c-0.414-115.58-0.293-231.161-0.228-346.743c0-1.447,0.593-2.892,1.124-5.323c3.98-0.229,7.954-0.655,11.923-0.656
	c71.727-0.041,143.449-0.247,215.167,0.322c6.735,0.053,14.965,3.422,19.887,8.038c23.698,22.231,46.694,45.226,69.431,68.453
	c3.871,3.956,7.445,10.344,7.464,15.621c0.418,121.237,0.324,242.477,0.324,366.193
	C2174.34,483.378,2149.698,483.378,2125.059,483.378z M1733.695,136.201c16.999-0.386,26.544-9.827,26.78-26.992
	c0.318-23.163,0.302-46.335,0.006-69.498c-0.221-17.296-9.563-26.914-26.604-27.171c-23.677-0.358-47.366-0.393-71.04,0.018
	c-16.218,0.283-25.723,9.898-25.984,26.2c-0.385,23.675-0.385,47.364-0.003,71.041c0.273,16.915,10.075,26.088,27.349,26.416
	c11.322,0.214,22.65,0.042,33.975,0.04C1710.017,136.252,1721.862,136.47,1733.695,136.201z M2301.398,198.336
	c-7.811-0.002-16.606-0.953-16.913,10.427c-0.302,11.287,8.062,11.183,16.184,11.174c47.907-0.058,95.812-0.067,143.717,0.007
	c8.181,0.014,16.496-0.023,16.157-11.221c-0.344-11.279-9.119-10.406-16.968-10.396c-23.183,0.029-46.36,0.01-69.541,0.01
	C2349.822,198.338,2325.611,198.341,2301.398,198.336z M1940.65,74.377c-12.774-0.259-19.037,5.736-18.898,18.63
	c0.158,14.452,0.141,28.908,0.006,43.36c-0.119,12.932,6.282,18.776,19.014,18.516c9.807-0.2,19.623-0.214,29.425-0.006
	c38.531,0.824,38.511,0.305,38.393-37.99c-0.14-44.8,2.087-43.023-43.157-42.48C1957.171,74.409,1948.91,74.545,1940.65,74.377z"/>
</svg>
