<svg height="512" width="2460.553" xmlns="http://www.w3.org/2000/svg"><path d="M2136.892,272.686c7.849-0.01,16.624-0.885,16.968,10.396
	c0.339,11.2-7.975,11.237-16.158,11.223c-47.903-0.075-18.353-0.065-66.26-0.011c-8.121,0.013-16.484,0.115-16.182-11.169
	c0.307-11.382,9.101-10.432,16.913-10.43 M2072.143,198.382c-7.812-0.002-16.608-0.953-16.913,10.43
	c-0.304,11.285,8.061,11.184,16.182,11.17c47.908-0.055,18.356-0.066,66.261,0.01c8.182,0.015,16.496-0.021,16.157-11.223
	c-0.344-11.279-9.119-10.405-16.968-10.396 M2072.143,343.979c-7.812-0.005-16.608-0.954-16.913,10.429
	c-0.304,11.286,8.061,11.183,16.182,11.17c47.908-0.055,18.356-0.066,66.261,0.007c8.182,0.021,16.496-0.019,16.157-11.22
	c-0.344-11.279-9.119-10.405-16.968-10.396 M1988.138,415.219c-7.811,0-16.607-0.95-16.913,10.431
	c-0.303,11.288,8.062,11.182,16.183,11.172c47.907-0.058,102.707-0.054,150.613,0.02c8.182,0.013,16.495-0.021,16.157-11.22
	c-0.345-11.28-9.12-10.408-16.968-10.396c-23.182,0.03-53.257-0.005-76.438-0.005
	C2036.562,415.221,2012.35,415.226,1988.138,415.219z"/>
</svg>
