<svg height="512" width="2460.553" xmlns="http://www.w3.org/2000/svg"><path d="M2646.283,255.64c0,114.84,31.694,184.275,123.389,185.092c51.943,0.815,93.875-3.639,126.387-13.609
	v-54.241c0,0-57.717,4.008-109.76,4.008c-57.195,0-70.627-39.096-70.627-120.26c0-109.646,19.578-121.25,70.354-121.25
	c48.601,0,109.537,6.854,110.031,6.854v-54.24c-39.055-11.606-75.535-16.457-126.387-16.457
	C2671.039,71.537,2646.283,139.833,2646.283,255.64z M2927.357,151.81v285.953h69.392V291.791l146.485-4.675v-56.963l-146.485-5.222
	v-56.518c0-13.362,0-27.714,25.771-27.714h143.267V83.415c-31.894-4.355-159.619-7.919-159.619-7.919
	C2968.133,74.556,2927.357,92.694,2927.357,151.81z M3353.949,75.496h-154.17v362.267h154.17
	c88.567,0,125.864-72.997,125.864-179.647C3479.814,168.364,3458.379,75.496,3353.949,75.496z M3348.494,375.975h-79.326V136.617
	h79.326c38.686,0,61.934,24.077,61.934,121.002C3410.428,330.296,3393.477,375.975,3348.494,375.975z M3517.914,75.496v362.267
	h69.391V75.496H3517.914z M218.368,228.605l-148.177-5.283v-57.197c0-13.523,0-28.047,26.07-28.047H241.18V80.105
	c-32.263-4.407-161.464-8.014-161.464-8.014C41.246,71.138,0,89.496,0,149.321v289.388h70.191V290.984l148.177-4.733V228.605z
	 M336.376,72.091L212.54,438.709h75.405l26.472-81.239h120.201l26.07,81.239h74.728L416.217,72.091H336.376L336.376,72.091z
	 M332.64,295.343l44.12-130.846l41.237,130.846H332.64z M533.97,254.398c0,116.219,32.063,186.487,124.814,187.315
	c52.542,0.828,94.959-3.681,127.848-13.772V373.05c0,0-58.384,4.056-111.027,4.056c-57.855,0-71.443-39.566-71.443-121.706
	c0-110.962,19.803-122.707,71.169-122.707c49.157,0,110.8,6.936,111.302,6.936V84.737c-39.507-11.745-76.409-16.652-127.848-16.652
	C559.014,68.085,533.97,137.201,533.97,254.398z M800.486,136.7h99.02v302.009h70.189V136.7h102.028V72.091H800.486V136.7z
	 M1307.698,278.439c0,80.909-21.309,98.163-68.186,98.163c-52.594,0-71.192-14.351-71.192-98.163V72.091h-70.191v206.349
	c0,166.779,73.198,162.772,141.383,162.772c60.665,0,138.877-1.002,138.877-162.772V72.091h-70.691V278.439z M1672.321,186.409
	c0-87.547-42.615-114.317-99.895-114.317h-160.561V438.71h70.191V292.963l61.667,7.014l60.664,138.732h78.989l-69.487-144.368
	C1634.268,287.932,1672.321,277.162,1672.321,186.409z M1565.531,237.87h-83.201V134.447h83.201
	c22.061,0,36.098,10.316,36.098,51.962C1601.63,230.709,1589.973,237.87,1565.531,237.87z M1816.967,72.091l-123.838,366.618h75.406
	l26.471-81.239h120.203l26.069,81.239h74.728L1896.809,72.091H1816.967z M1813.23,295.343l44.117-130.846l41.24,130.846H1813.23z"/>
</svg>
