<svg height="512" width="1710.555" xmlns="http://www.w3.org/2000/svg"><path d="M1500.038,304.158h18.603v-85.035c0.297-31.89,13.288-56.102,45.47-56.102c23.619,0,32.181,17.126,31.886,37.797v103.34h18.603v-86.214c0-28.345,9.153-54.923,41.335-54.923c26.573,0,36.024,13.585,36.024,38.681v102.456h18.597v-103.34c0-36.023-17.12-53.44-50.486-53.44c-20.078,0-39.267,9.743-48.423,29.821c-5.61-20.078-23.619-29.821-43.698-29.821c-24.21,0-40.151,11.807-49.9,30.112h-0.883v-25.688h-17.126V304.158L1500.038,304.158z M1409.904,163.021c35.726,0,53.438,32.484,53.438,64.961c0,32.479-17.713,64.955-53.438,64.955c-35.729,0-53.445-32.476-53.445-64.955C1356.459,195.505,1374.176,163.021,1409.904,163.021L1409.904,163.021z M1409.904,147.378c-46.65,0-72.043,36.908-72.043,80.604c0,43.699,25.393,80.653,72.043,80.653c46.652,0,72.04-36.954,72.04-80.653C1481.944,184.286,1456.557,147.378,1409.904,147.378L1409.904,147.378z M1328.034,199.638c-4.134-34.843-29.233-52.26-61.71-52.26c-46.651,0-72.042,36.908-72.042,80.604c0,43.699,25.391,80.653,72.042,80.653c33.951,0,57.867-22.491,62.891-59.098h-18.602c-2.361,25.387-21.257,43.399-44.289,43.399c-35.728,0-53.441-32.476-53.441-64.955c0-32.477,17.713-64.961,53.441-64.961c24.211,0,38.085,13.882,43.108,36.617H1328.034L1328.034,199.638z M1188.884,304.158v-31.299h-24.799v31.299H1188.884z"/></svg>