<svg height="512" width="1710.555" xmlns="http://www.w3.org/2000/svg"><path d="M1037.333,359.37c-0.117,10.494,8.705,15.156,18.131,15.156c11.569,0,17.708-5.853,17.708-13.664c0-9.664-9.537-11.634-12.637-12.404c-10.675-2.747-12.707-3.16-12.707-6.442c0-3.575,3.461-4.831,6.439-4.831c4.473,0,8.115,1.314,8.41,6.442h9.065c0-9.842-8.17-13.72-17.056-13.72c-7.69,0-15.924,4.177-15.924,12.884c0,7.989,6.382,10.435,12.706,12.106c6.26,1.667,12.644,2.444,12.644,7.034c0,4.355-5.012,5.307-8.294,5.307c-5.005,0-9.42-2.207-9.42-7.868H1037.333L1037.333,359.37z M1117.884,352.395c0,12.281,7.753,22.132,20.93,22.132c13.179,0,20.932-9.851,20.932-22.132c0-12.644-7.752-22.487-20.932-22.487C1125.637,329.907,1117.884,339.751,1117.884,352.395L1117.884,352.395z M1127.246,352.395c0-7.457,3.16-14.611,11.568-14.611c8.41,0,11.569,7.154,11.569,14.611c0,7.095-3.159,14.251-11.569,14.251C1130.406,366.646,1127.246,359.489,1127.246,352.395L1127.246,352.395z M1207.142,373.505h30.11v-7.877h-20.75v-34.702h-9.361V373.505L1207.142,373.505z M1319.652,330.926h-9.365v26.476c0,6.323-2.146,9.244-8.824,9.244c-7.574,0-8.763-4.595-8.763-9.244v-26.476h-9.362v26.476c0,11.568,6.678,17.125,18.125,17.125c11.395,0,18.189-5.613,18.189-17.125V330.926L1319.652,330.926z M1378.135,373.505h9.362v-34.712h12.765v-7.867h-34.886v7.867h12.759V373.505L1378.135,373.505z M1446.167,373.505h9.358v-42.579h-9.358V373.505L1446.167,373.505z M1502.918,352.395c0,12.281,7.752,22.132,20.932,22.132s20.936-9.851,20.936-22.132c0-12.644-7.756-22.487-20.936-22.487S1502.918,339.751,1502.918,352.395L1502.918,352.395z M1512.28,352.395c0-7.457,3.16-14.611,11.569-14.611c8.407,0,11.567,7.154,11.567,14.611c0,7.095-3.16,14.251-11.567,14.251C1515.44,366.646,1512.28,359.489,1512.28,352.395L1512.28,352.395z M1592.175,373.505h8.764v-28.509h0.12l17.715,28.509h9.361v-42.579h-8.767v28.563h-0.118l-17.773-28.563h-9.302V373.505L1592.175,373.505z M1674.689,359.37c-0.115,10.494,8.711,15.156,18.131,15.156c11.569,0,17.707-5.853,17.707-13.664c0-9.664-9.535-11.634-12.637-12.404c-10.681-2.747-12.707-3.16-12.707-6.442c0-3.575,3.461-4.831,6.44-4.831c4.473,0,8.114,1.314,8.409,6.442h9.066c0-9.842-8.172-13.72-17.058-13.72c-7.691,0-15.924,4.177-15.924,12.884c0,7.989,6.385,10.435,12.707,12.106c6.261,1.667,12.644,2.444,12.644,7.034c0,4.355-5.014,5.307-8.295,5.307c-5.006,0-9.42-2.207-9.42-7.868H1674.689z"/></svg>