<svg height="512" width="1710.555" xmlns="http://www.w3.org/2000/svg"><path d="M1153.251,93.345h-58.462v41.041h58.462V93.345L1153.251,93.345z M1094.79,304.158h58.462v-153.24h-58.462V304.158L1094.79,304.158z M919.79,353.807h58.462v-66.479h0.592c8.86,12.991,24.509,20.72,41.924,20.72c51.376,0,65.253-43.751,65.253-79.775c0-38.378-20.962-81.192-64.363-81.192c-28.641,0-37.5,10.924-44.883,20.666h-0.588v-16.828H919.79V353.807L919.79,353.807z M976.187,227.687c0-18.307,4.721-38.088,25.688-38.088c20.963,0,25.688,19.781,25.688,38.088c0,18.009-4.726,37.79-25.688,37.79C980.908,265.477,976.187,245.695,976.187,227.687L976.187,227.687z M898.033,93.345h-58.458v41.041h58.458V93.345L898.033,93.345z M839.574,304.158h58.458v-153.24h-58.458V304.158L839.574,304.158z M831.397,240.678c0-59.643-26.278-93.597-87.101-93.597c-48.423,0-80.897,36.315-80.897,80.901c0,51.074,36.904,80.066,85.917,80.066c34.841,0,67.022-15.408,78.832-48.477h-54.62c-4.723,7.384-15.058,10.927-24.505,10.927c-18.308,0-28.344-12.405-29.821-29.82H831.397L831.397,240.678z M719.496,210.264c2.657-16.533,12.696-25.688,30.118-25.688c15.059,0,25.686,11.516,25.686,25.688H719.496L719.496,210.264z M599.121,227.39c0,18.306-4.723,38.087-25.688,38.087c-20.963,0-25.687-19.781-25.687-38.087c0-18.01,4.724-37.791,25.687-37.791C594.398,189.599,599.121,209.38,599.121,227.39L599.121,227.39z M655.517,93.345h-58.463v74.401h-0.59c-8.858-12.991-24.504-20.666-41.928-20.666c-51.372,0-65.251,43.698-65.251,79.722c0,38.383,20.965,81.246,64.368,81.246c28.639,0,37.497-10.978,44.877-20.72h0.59v16.83h56.396V93.345z"/></svg>