<svg height="512" width="1710.555" xmlns="http://www.w3.org/2000/svg"><path d="M545.146,406.508c0,57.327-46.76,104.085-104.089,104.085c-57.326,0-104.084-46.758-104.084-104.085c0-57.332,46.759-104.088,104.084-104.088C498.387,302.42,545.146,349.176,545.146,406.508z M226.189,315.171c-54.038,0-98.113,44.073-98.113,98.109c0.001,54.042,44.076,98.116,98.113,98.116c54.041,0,98.116-44.073,98.116-98.116C324.305,359.244,280.229,315.171,226.189,315.171z M164.512,290.27c0-45.204-36.865-82.068-82.064-82.068c-45.2,0-82.066,36.865-82.066,82.068c-0.001,45.201,36.866,82.066,82.066,82.066C127.648,372.336,164.512,335.471,164.512,290.27z M88.139,200.563c39.09,0,70.97-31.884,70.97-70.972c0-39.093-31.88-70.973-70.97-70.973c-39.09,0-70.973,31.88-70.973,70.973C17.167,168.679,49.049,200.563,88.139,200.563z M201.669,110.487c30.52,0,55.412-24.89,55.412-55.41c0-30.519-24.892-55.411-55.412-55.411c-30.521,0-55.412,24.892-55.412,55.411C146.257,85.597,171.148,110.487,201.669,110.487z M305.582,120.107c22.833,0,41.457-18.624,41.457-41.458c0-22.83-18.624-41.453-41.457-41.453c-22.832,0-41.455,18.624-41.455,41.453C264.127,101.483,282.75,120.107,305.582,120.107z M329.696,141.245c-0.001,19.475,15.885,35.356,35.358,35.356c19.476,0,35.36-15.881,35.36-35.356c0-19.48-15.885-35.362-35.36-35.362C345.581,105.883,329.696,121.765,329.696,141.245z M338.367,216.567c0,17.088,13.937,31.022,31.024,31.022c17.087,0,31.023-13.934,31.023-31.022s-13.937-31.021-31.023-31.021C352.304,185.546,338.367,199.479,338.367,216.567z M358.417,270.219c0-13.43-10.956-24.386-24.387-24.386c-13.431,0-24.386,10.956-24.386,24.386c0,13.432,10.955,24.385,24.386,24.385C347.462,294.604,358.417,283.65,358.417,270.219z"/></svg>