<svg height="512" width="3727.621" xmlns="http://www.w3.org/2000/svg"><path d="M2382.653,113.921v46.785h-45.587v16.9h45.587v286.875h20.332V177.606h72.54v-16.9h-72.54v-46.785c0-50.151,32.96-72.702,75.818-72.702h2.174V22.051h-3.813C2426.06,22.051,2382.653,52.5,2382.653,113.921z M2591.02,155.06c-31.32,0-65.363,10.146-85.695,20.869l7.124,17.458c18.125-10.145,51.651-19.158,78.571-19.158c46.692,0,82.952,15.781,82.952,72.703v29.315c-89.552,5.075-186.792,14.646-186.792,104.818c0,53.544,38.477,89.052,112.623,89.052c34.6,0,75.25-9.021,95.036-20.852V246.931C2694.839,179.306,2649.25,155.06,2591.02,155.06z M2673.972,437.984c-13.186,6.764-46.155,12.969-74.169,12.969c-62.609,0-91.735-28.187-91.735-69.889c0-77.773,90.633-81.72,165.904-86.215V437.984z M2864.832,174.229c22.005,0,44.529,7.895,59.892,18.599l8.782-16.898c-16.465-11.846-43.361-20.869-68.674-20.869c-57.649,0-122.476,42.279-122.476,157.254c0,114.969,64.826,157.802,122.476,157.802c25.312,0,51.119-8.441,68.674-20.852l-8.782-16.903c-15.362,10.709-37.887,18.592-59.892,18.592c-47.218,0-101.053-34.939-101.053-138.639C2763.779,208.609,2817.614,174.229,2864.832,174.229z M3017.26,73.359l-20.33,9.565v77.782h-47.783v16.9h47.783v218.105c0,47.919,32.426,71.019,73.076,71.019c8.226,0,13.722-0.549,17.578-2.248v-19.164c-4.402,1.7-10.99,2.26-17.578,2.26c-28.021,0-52.746-15.216-52.746-51.866V177.606h70.324v-16.9h-70.324V73.359z M3308.568,437.436c-14.837,6.754-44.5,13.518-78.561,13.518c-56.024,0-84.033-26.477-84.033-82.277v-207.97h-20.866v207.97c0,68.2,38.455,101.44,104.899,101.44c41.219,0,79.125-9.59,99.447-20.852V160.706h-20.887V437.436z M3389.068,175.929v288.553h20.877V187.757c17.008-7.892,47.781-13.529,74.165-13.529c7.671,0,15.382,0.565,18.66,1.124l4.937-19.152c-7.131-0.569-14.799-1.141-21.956-1.141C3451.688,155.06,3412.143,164.083,3389.068,175.929z M3623.779,155.06c-31.297,0-65.35,10.146-85.689,20.869l7.152,17.458c18.126-10.145,51.633-19.158,78.537-19.158c46.718,0,82.964,15.781,82.964,72.703v29.315c-89.536,5.075-186.779,14.646-186.779,104.818c0,53.544,38.466,89.052,112.612,89.052c34.61,0,75.262-9.021,95.045-20.852V246.931C3727.621,179.306,3682.021,155.06,3623.779,155.06z M3706.743,437.984c-13.185,6.764-46.146,12.969-74.167,12.969c-62.62,0-91.715-28.187-91.715-69.889c0-77.773,90.623-81.72,165.882-86.215V437.984z"/></svg>