<svg height="512" width="2296.993" xmlns="http://www.w3.org/2000/svg"><path d="M452.386,237.717c-62.952-1.519-113.864-27.995-106.838-97.834c8.344-82.591-23.984-139.785-90.172-139.785c0,0-65.771-3.184-104.076,57.194c-33.067,52.091-10.282,100.581-10.916,140.048c0,0,11.548,63.76-53.322,98.596C62.103,309.366,4.185,331.456,0.318,399.188c-3.868,67.706,28,108.523,64.881,112.414c32.993,3.497,94.82-14.688,91.221-108.479c-2.978-78.277-19.913-147.283,90.59-170.938C357.535,208.51,360.105,328.179,360.737,347.9c0.631,19.724,12.2,98.624,71.33,126.886c59.096,28.272,144.553,2.621,158.04-71.021C603.583,330.151,572.979,240.593,452.386,237.717z"/></svg>