<svg height="512" width="3191.877" xmlns="http://www.w3.org/2000/svg"><path d="M3191.877,254.697c-107.985-90.685-25.652-258.928-323.359-249.382C2987.241,68.556,2919.826,282.141,3191.877,254.697z
			 M3000.962,254.697c-107.985-90.686-25.651-258.928-323.358-249.382C2796.327,68.556,2728.911,282.141,3000.962,254.697z
			 M2810.05,254.697c-107.987-90.685-25.655-258.928-323.362-249.382C2605.414,68.556,2537.996,282.141,2810.05,254.697z
			 M2519.708,472.853c-4.617,0-8.522,1.603-11.71,4.795c-3.188,3.189-4.783,7.104-4.783,11.731s1.596,8.537,4.783,11.733
			c3.188,3.191,7.093,4.792,11.71,4.792s8.517-1.601,11.708-4.792c3.184-3.196,4.782-7.106,4.782-11.733s-1.6-8.542-4.782-11.731
			C2528.225,474.454,2524.326,472.853,2519.708,472.853z M2706.379,311.559c-6.82-1.537-13.195-2.587-19.132-3.14
			c-5.938-0.548-12.532-0.826-19.788-0.826c-13.635,0-25.892,2.37-36.773,7.106c-10.885,4.741-20.232,11.236-28.033,19.501
			c-7.809,8.263-13.802,18.068-17.977,29.416c-4.179,11.352-6.268,23.745-6.268,37.184c0,13.221,1.979,25.563,5.938,37.019
			c3.958,11.461,9.614,21.376,16.983,29.747c7.363,8.377,16.377,14.981,27.045,19.83c10.662,4.846,22.81,7.272,36.443,7.272
			c8.575,0,15.94-0.223,22.1-0.662c6.152-0.444,12.531-1.213,19.128-2.312c3.299-0.66,4.835-2.646,4.618-5.949l-0.988-12.229
			c-0.223-2.422-1.979-3.19-5.277-2.312c-6.382,1.767-12.097,2.976-17.152,3.636c-5.06,0.661-11.435,0.992-19.129,0.992
			c-10.337,0-19.516-2.035-27.538-6.115c-8.028-4.074-14.842-9.585-20.446-16.525c-5.608-6.94-9.897-14.926-12.864-23.964
			c-2.97-9.03-4.452-18.509-4.452-28.424c0-10.794,1.427-20.766,4.287-29.912c2.854-9.142,7.145-17.021,12.863-23.632
			c5.715-6.61,12.806-11.733,21.272-15.369c8.461-3.636,18.304-5.454,29.518-5.454c6.375,0,12.204,0.388,17.48,1.157
			c5.276,0.773,10.771,2.039,16.49,3.801c2.854,0.66,4.503-0.329,4.948-2.975l0.988-10.577
			C2710.882,314.534,2709.456,312.442,2706.379,311.559z M2858.418,314.037c-10.554-4.734-22.758-7.105-36.609-7.105
			c-27.486,0-48.926,9.586-64.312,28.756c-13.414,16.971-20.117,38.784-20.117,65.442c0,13.005,1.813,25.068,5.44,36.192
			c3.629,11.13,8.519,20.879,14.677,29.251c7.693,9.255,16.929,16.413,27.706,21.482c10.771,5.067,22.973,7.603,36.606,7.603
			c13.631,0,25.778-2.534,36.443-7.603c10.664-5.069,19.844-12.229,27.541-21.482c6.153-8.372,11.101-18.121,14.844-29.251
			c3.735-11.124,5.604-23.188,5.604-36.192c0-26.219-6.817-48.034-20.448-65.442
			C2878.095,325.993,2868.972,318.779,2858.418,314.037z M2877.713,430.547c-2.753,9.037-6.545,16.971-11.379,23.797
			c-5.721,6.833-12.261,12.121-19.623,15.865c-7.37,3.75-15.668,5.619-24.902,5.619c-18.031,0-32.871-7.158-44.524-21.484
			c-5.062-6.826-8.959-14.76-11.707-23.797c-2.753-9.033-4.123-18.84-4.123-29.417c0-10.354,1.37-20.049,4.123-29.086
			c2.748-9.032,6.646-17.073,11.707-24.127c5.718-6.828,12.256-12.064,19.625-15.7c7.362-3.637,15.666-5.454,24.899-5.454
			c18.248,0,33.09,7.056,44.525,21.154c4.834,7.054,8.626,15.095,11.379,24.127c2.747,9.037,4.123,18.731,4.123,29.086
			C2881.836,411.707,2880.46,421.514,2877.713,430.547z M3168.602,324.945c-4.944-5.396-10.883-9.638-17.81-12.726
			c-6.925-3.084-14.677-4.628-23.252-4.628c-13.413,0-25.229,3.254-35.454,9.751c-10.225,6.502-17.646,16.03-22.264,28.59
			c-2.199-12.56-8.243-22.088-18.139-28.59c-9.896-6.497-21.438-9.751-34.631-9.751c-12.531,0-23.087,2.37-31.663,7.106
			c-8.575,4.741-15.393,11.186-20.448,19.335v-17.849c0-3.084-1.541-4.628-4.617-4.628h-12.201c-3.084,0-4.617,1.544-4.617,4.628
			c0.437,4.851,0.768,9.974,0.988,15.369c0.217,5.401,0.331,12.726,0.331,21.979v132.208c0,3.084,1.533,4.628,4.617,4.628h12.86
			c3.076,0,4.617-1.544,4.617-4.628V379.316c0-15.865,4.288-28.644,12.863-38.342c8.575-9.692,20.334-14.543,35.291-14.543
			c25.503,0,38.257,15.097,38.257,45.281v114.029c0,3.084,1.536,4.628,4.617,4.628h13.193c3.075,0,4.616-1.544,4.616-4.628v-94.197
			c-0.222-8.811,0.711-17.188,2.805-25.12c2.086-7.934,5.275-14.874,9.564-20.823c4.286-5.948,9.451-10.628,15.5-14.047
			c6.046-3.413,12.914-5.123,20.613-5.123c25.282,0,37.929,15.097,37.929,45.281v114.36c0,2.86,1.536,4.297,4.617,4.297h12.533
			c3.075,0,4.616-1.544,4.616-4.628V367.086c0-8.148-1.318-15.864-3.957-23.136C3177.339,336.678,3173.55,330.348,3168.602,324.945z
			 M2032.814,24.701c-22.498,0-42.832,3.957-60.98,11.861c-18.159,7.913-33.654,18.782-46.477,32.616
			c-12.832,13.843-22.6,30.152-29.306,48.924c-6.717,18.783-10.063,39.047-10.063,60.786c0,22.535,3.449,42.8,10.359,60.785
			c6.902,17.994,16.67,33.414,29.307,46.257c12.628,12.853,27.725,22.737,45.292,29.65c17.558,6.922,37.003,10.378,58.315,10.378
			c7.493,0,15.189-1.083,23.092-3.262c7.89-2.167,15.484-4.938,22.791-8.303c7.3-3.354,14.007-7.311,20.129-11.859
			c6.116-4.541,10.955-9.191,14.508-13.937c-2.768,18.977-7.014,36.768-12.73,53.371c-5.725,16.605-13.522,31.041-23.385,43.291
			c-9.871,12.26-22.007,21.851-36.411,28.763c-14.412,6.923-31.879,10.379-52.396,10.379c-13.819,0-26.549-0.594-38.187-1.779
			c-11.646-1.188-22.6-3.753-32.858-7.709c-5.531-2.373-8.688-0.788-9.474,4.744l-1.774,47.441
			c-0.398,3.947,1.184,6.522,4.735,7.709c9.073,3.159,20.62,5.728,34.636,7.709c14.006,1.975,26.733,2.967,38.186,2.967
			c36.708,0,67.688-6.524,92.952-19.57c25.254-13.047,45.679-30.634,61.276-52.779c15.588-22.137,26.733-48.128,33.45-77.983
			c6.706-29.846,10.064-61.377,10.064-94.586c0-73.925-12.535-128.391-37.597-163.379
			C2115.2,42.195,2079.383,24.701,2032.814,24.701z M2087.282,240.859c-14.606,15.624-34.735,23.424-60.39,23.424
			c-24.078,0-42.728-7.903-55.947-23.72c-13.228-15.809-19.832-37.361-19.832-64.64c0-28.466,7.492-51.001,22.496-67.605
			c14.996-16.605,34.34-24.907,58.021-24.907c11.046,0,21.315,2.576,30.788,7.709c9.472,5.143,17.657,12.157,24.568,21.052
			c6.9,8.896,12.332,19.273,16.279,31.134c3.941,11.86,5.924,24.518,5.924,37.954
			C2109.189,205.38,2101.879,225.245,2087.282,240.859z M2391.583,24.701c-22.496,0-42.83,3.957-60.979,11.861
			c-18.159,7.913-33.654,18.782-46.477,32.616c-12.831,13.843-22.6,30.152-29.306,48.924c-6.718,18.783-10.063,39.047-10.063,60.786
			c0,22.535,3.449,42.8,10.36,60.785c6.901,17.994,16.67,33.414,29.305,46.257c12.628,12.853,27.726,22.737,45.292,29.65
			c17.559,6.922,37.003,10.378,58.316,10.378c7.492,0,15.188-1.083,23.089-3.262c7.892-2.167,15.485-4.938,22.795-8.303
			c7.298-3.354,14.006-7.311,20.129-11.859c6.115-4.541,10.952-9.191,14.507-13.937c-2.767,18.977-7.014,36.768-12.73,53.371
			c-5.726,16.605-13.523,31.041-23.385,43.291c-9.871,12.26-22.008,21.851-36.411,28.763c-14.411,6.923-31.878,10.379-52.396,10.379
			c-13.819,0-26.55-0.594-38.185-1.779c-11.647-1.188-22.603-3.753-32.859-7.709c-5.531-2.373-8.688-0.788-9.473,4.744
			l-1.775,47.441c-0.398,3.947,1.185,6.522,4.735,7.709c9.073,3.159,20.62,5.728,34.636,7.709
			c14.004,1.975,26.734,2.967,38.187,2.967c36.707,0,67.688-6.524,92.951-19.57c25.254-13.047,45.679-30.634,61.276-52.779
			c15.589-22.137,26.733-48.128,33.451-77.983c6.705-29.846,10.063-61.377,10.063-94.586c0-73.925-12.534-128.391-37.595-163.379
			C2473.969,42.195,2438.152,24.701,2391.583,24.701z M2446.051,240.859c-14.606,15.624-34.736,23.424-60.389,23.424
			c-24.08,0-42.729-7.903-55.948-23.72c-13.229-15.809-19.833-37.361-19.833-64.64c0-28.466,7.494-51.001,22.497-67.605
			c14.996-16.605,34.339-24.907,58.021-24.907c11.045,0,21.312,2.576,30.787,7.709c9.473,5.143,17.657,12.157,24.567,21.052
			c6.902,8.896,12.334,19.273,16.281,31.134c3.941,11.86,5.92,24.518,5.92,37.954
			C2467.956,205.38,2460.648,225.245,2446.051,240.859z M188.541,4.318C179.501,1.446,169.026,0,157.118,0
			c-38.202,0-63.675,14.805-76.402,44.416c-8.222,19.741-12.323,52.031-12.323,96.852v25.292H8.625
			c-5.757,0-8.625,2.882-8.625,8.637v18.506c0,5.764,2.869,8.637,8.625,8.637h59.767v289.322c0,5.755,2.869,8.637,8.626,8.637
			h24.029c5.748,0,8.626-2.882,8.626-8.637V202.34h67.777c5.748,0,8.626-2.873,8.626-8.637v-18.506c0-5.755-2.878-8.637-8.626-8.637
			h-67.777v-29.61c0-33.717,1.435-55.52,4.313-65.391c6.979-24.261,22.586-36.396,46.827-36.396c4.929,0,9.242,0.308,12.939,0.925
			c3.697,0.617,7.797,1.754,12.323,3.393c2.051,0.829,3.899,0.926,5.545,0.309c1.637-0.617,2.667-2.159,3.082-4.626l1.231-17.89
			C196.339,10.285,193.875,5.966,188.541,4.318z M470.114,430.59V275.751c0-39.481-9.454-68.987-28.343-88.524
			c-18.898-19.529-48.888-29.302-89.958-29.302c-19.312,0-37.075,1.542-53.297,4.626c-16.232,3.084-31.53,8.54-45.903,16.348
			c-5.757,2.882-8.626,7.2-8.626,12.955v23.442c0,2.062,0.924,3.394,2.773,4.01c1.848,0.616,3.792,0.309,5.854-0.925
			c14.788-9.042,30.394-15.519,46.827-19.433c16.425-3.903,33.889-5.86,52.373-5.86c27.515,0,47.135,6.786,58.842,20.357
			c11.707,13.572,17.561,33.312,17.561,59.222v18.507h-8.01c-61.21,0-106.593,5.35-136.168,16.039
			c-24.242,9.052-42.207,22.622-53.913,40.715c-11.707,18.103-17.56,39.692-17.56,64.773c0,10.699,1.636,21.495,4.929,32.387
			c3.283,10.901,8.212,20.464,14.788,28.687c19.302,24.261,49.696,36.396,91.189,36.396c23.818,0,45.903-5.766,66.236-17.272
			c20.333-11.52,34.812-27.761,43.438-48.734v47.5c0,5.755,2.869,8.637,8.627,8.637h22.181c5.748,0,8.626-2.882,8.626-8.637
			c-0.828-9.051-1.444-18.4-1.85-28.068C470.316,453.938,470.114,442.928,470.114,430.59z M428.216,347.31
			c0,20.569-2.465,38.769-7.394,54.596c-4.931,15.837-11.919,29.101-20.949,39.791c-9.04,10.697-19.621,18.921-31.732,24.675
			c-12.121,5.764-25.368,8.637-39.742,8.637c-20.545,0-36.969-4.936-49.292-14.806c-6.989-4.937-12.121-11.817-15.404-20.666
			c-3.292-8.839-4.929-18.4-4.929-28.687c0-16.856,4.313-31.354,12.939-43.489c8.626-12.126,21.565-21.283,38.817-27.452
			c11.909-4.521,26.803-8.116,44.671-10.795c17.868-2.67,38.297-3.597,61.307-2.776h11.707L428.216,347.31L428.216,347.31z
			 M590.258,233.185c10.677-12.338,23.924-21.899,39.742-28.686c15.808-6.785,34.196-10.178,55.145-10.178
			c11.909,0,22.798,0.723,32.656,2.159c9.858,1.446,20.121,3.808,30.808,7.094c5.333,1.234,8.413-0.616,9.241-5.552l1.85-19.741
			c0.404-6.168-2.262-10.072-8.01-11.721c-12.736-2.872-24.646-4.829-35.736-5.86c-11.091-1.022-23.414-1.542-36.969-1.542
			c-25.475,0-48.368,4.424-68.701,13.264c-20.333,8.848-37.797,20.974-52.373,36.396c-14.585,15.423-25.782,33.727-33.58,54.903
			c-7.808,21.188-11.707,44.319-11.707,69.4c0,24.676,3.697,47.713,11.09,69.093c7.395,21.389,17.965,39.896,31.732,55.521
			c13.758,15.635,30.596,27.963,50.523,37.014c19.919,9.041,42.611,13.571,68.085,13.571c16.021,0,29.777-0.414,41.282-1.233
			c11.495-0.828,23.414-2.266,35.737-4.318c6.162-1.232,9.03-4.935,8.626-11.104l-1.85-22.824c-0.414-4.521-3.696-5.957-9.857-4.317
			c-11.919,3.297-22.596,5.552-32.04,6.784c-9.454,1.234-21.363,1.853-35.737,1.853c-19.312,0-36.458-3.799-51.447-11.413
			c-15-7.605-27.728-17.89-38.201-30.845c-10.476-12.954-18.484-27.856-24.03-44.726c-5.545-16.857-8.318-34.545-8.318-53.053
			c0-20.146,2.667-38.758,8.011-55.828C571.562,260.232,579.572,245.523,590.258,233.185z M978.428,472.539
			c0-2.468-0.924-4.106-2.771-4.937c-1.85-0.818-3.803-0.818-5.854,0c-14.383,4.937-27.321,7.403-38.816,7.403
			c-29.575,0-44.362-18.295-44.362-54.903V202.34h68.393c5.747,0,8.626-2.873,8.626-8.637v-18.506c0-5.755-2.879-8.637-8.626-8.637
			h-68.393V83.28c0-6.169-2.676-9.253-8.01-9.253h-25.878c-5.344,0-8.011,3.084-8.011,9.253v83.28h-57.917
			c-5.757,0-8.626,2.882-8.626,8.637v18.506c0,5.764,2.869,8.637,8.626,8.637h57.917v196.789c0,37.428,3.485,63.539,10.476,78.345
			c10.677,21.794,32.655,32.696,65.928,32.696c16.838,0,33.888-3.085,51.14-9.255c5.748-2.467,8.213-6.583,7.395-12.336
			L978.428,472.539z M1279.718,423.188V175.198c0-5.755-2.879-8.637-8.626-8.637h-24.646c-5.757,0-8.626,2.882-8.626,8.637v171.496
			c0.404,17.271-1.646,33.727-6.161,49.351c-4.525,15.635-11.091,29.303-19.717,41.024c-8.627,11.721-19.207,20.974-31.732,27.76
			c-12.534,6.786-26.6,10.179-42.206,10.179c-53.403,0-80.099-34.95-80.099-104.872V175.197c0-5.755-2.88-8.637-8.626-8.637h-24.646
			c-5.757,0-8.626,2.882-8.626,8.637v206.042c0,85.96,38.403,128.931,115.22,128.931c27.11,0,49.601-5.456,67.47-16.349
			c17.868-10.901,32.136-28.686,42.82-53.36v51.201c0,5.755,2.869,8.637,8.627,8.637h22.183c5.747,0,8.625-2.882,8.625-8.637
			c-0.413-10.698-0.721-21.379-0.924-32.078C1279.814,448.895,1279.718,436.76,1279.718,423.188z M1521.237,161.625
			c-9.454-2.468-18.898-3.701-28.343-3.701c-39.029,0-68.604,25.909-88.726,77.728v-60.455c0-5.755-2.879-8.637-8.626-8.637h-22.798
			c-5.757,0-8.626,2.882-8.626,8.637c0.404,10.699,0.712,20.666,0.924,29.919c0.202,9.253,0.309,21.283,0.309,36.088v250.458
			c0,5.755,2.868,8.637,8.625,8.637h24.03c5.748,0,8.626-2.882,8.626-8.637V335.589c0-36.599,5.748-66.624,17.253-90.066
			c14.786-30.016,37.373-45.033,67.775-45.033c12.324,0,22.181,1.233,29.575,3.701c2.051,0.829,4.102,0.829,6.162,0
			c2.051-0.819,3.081-2.468,3.081-4.935v-25.91c0-3.287-0.926-5.861-2.773-7.711
			C1525.858,163.785,1523.702,162.455,1521.237,161.625z M1820.064,430.59V275.751c0-39.481-9.457-68.987-28.346-88.524
			c-18.897-19.529-48.886-29.302-89.957-29.302c-19.312,0-37.074,1.542-53.298,4.626c-16.23,3.084-31.528,8.54-45.901,16.348
			c-5.758,2.882-8.627,7.2-8.627,12.955v23.442c0,2.062,0.926,3.394,2.773,4.01c1.848,0.616,3.792,0.309,5.854-0.925
			c14.788-9.042,30.394-15.519,46.827-19.433c16.426-3.903,33.888-5.86,52.372-5.86c27.516,0,47.137,6.786,58.844,20.357
			c11.705,13.572,17.561,33.312,17.561,59.222v18.507h-8.011c-61.211,0-106.595,5.35-136.169,16.039
			c-24.24,9.052-42.206,22.622-53.914,40.715c-11.705,18.103-17.561,39.692-17.561,64.773c0,10.699,1.637,21.495,4.931,32.387
			c3.284,10.901,8.212,20.464,14.786,28.687c19.304,24.261,49.696,36.396,91.191,36.396c23.818,0,45.902-5.766,66.236-17.272
			c20.331-11.52,34.811-27.761,43.437-48.734v47.5c0,5.755,2.869,8.637,8.626,8.637h22.184c5.746,0,8.625-2.882,8.625-8.637
			c-0.826-9.051-1.444-18.4-1.849-28.068C1820.264,453.938,1820.064,442.928,1820.064,430.59z M1778.166,347.31
			c0,20.569-2.466,38.769-7.396,54.596c-4.927,15.837-11.916,29.101-20.948,39.791c-9.039,10.697-19.62,18.921-31.73,24.675
			c-12.121,5.764-25.369,8.637-39.739,8.637c-20.547,0-36.972-4.936-49.295-14.806c-6.986-4.937-12.119-11.817-15.401-20.666
			c-3.293-8.839-4.929-18.4-4.929-28.687c0-16.856,4.312-31.354,12.938-43.489c8.627-12.126,21.566-21.283,38.817-27.452
			c11.91-4.521,26.804-8.116,44.672-10.795c17.868-2.67,38.297-3.597,61.307-2.776h11.707L1778.166,347.31L1778.166,347.31z"/></svg>
