<svg height="512" width="3909.009" xmlns="http://www.w3.org/2000/svg"><path d="M2004.249,466.568h14.312v14.379h-96.492v-13.443l17.079-0.936c7.312-0.387,15.24-6.148,15.24-16.707v-109.12c0-21.962-22.342-41.426-41.912-41.466c-14.043-0.021-41.854,16.117-56.442,25.218v125.823c0,7.324,7.463,16.252,14.769,16.252h14.324v14.379h-96.504v-13.443l17.076-0.936c7.317-0.387,15.232-6.126,15.232-16.707V332.487c0-8.647-0.138-17.312-8.293-21.807c-8.168-4.479-24.015,4.644-24.015,4.644v-15.29c22.187-5.649,42.899-14.313,61.406-27.381h6.005v37.006c15.712-17.291,37.423-35.704,68.141-36.375c36.412-0.804,65.305,37.526,65.305,64.522v112.51C1989.477,457.641,1996.947,466.568,2004.249,466.568z M3609.194,230.309c13.016,0,23.638-10.62,23.638-23.633c0-13.021-10.622-23.641-23.638-23.641c-13.027,0-23.652,10.62-23.652,23.641C3585.542,219.689,3596.167,230.309,3609.194,230.309z M1389.443,450.316v-112.51c0-26.996-28.889-65.326-65.301-64.522c-30.712,0.671-52.434,19.084-68.147,36.375v-37.006h-6.005c-18.518,13.067-39.22,21.731-61.416,27.381v15.29c0,0,15.854-9.122,24.007-4.644c8.17,4.494,8.322,13.159,8.322,21.807v117.374c0,10.581-7.929,16.32-15.237,16.707l-17.093,0.936v13.443h96.514v-14.379h-14.323c-7.309,0-14.77-8.928-14.77-16.252V324.493c14.583-9.101,42.388-25.238,56.44-25.218c19.568,0.04,41.914,19.504,41.914,41.466v109.12c0,10.559-7.93,16.32-15.239,16.707l-17.083,0.936v13.443h96.505v-14.379h-14.302C1396.911,466.568,1389.443,457.641,1389.443,450.316z M1177.963,448.474l0.456,11.146l-41.094,20.868c0,0-10.406,6.713-16.627,2.331c-6.225-4.418-8.528-14.84-9.22-23.199c0,0-20.321,16.7-39.249,21.326c-18.935,4.648-44.792,7.883-58.649-6.494c-13.857-14.378-23.088-33.86-12.932-55.671c10.164-21.806,38.793-33.864,54.954-39.904c16.159-6.014,54.019-19.937,54.019-19.937s0.158-25.933-0.465-36.188c-0.621-10.269-8.516-27.693-24.47-30.613c-15.935-2.935-30.474,1.38-37.393,8.81c-6.931,7.428-8.783,14.83-7.864,20.413c0.934,5.568,4.629,14.839,4.629,14.839l-29.554,13.445c0,0-9.695-20.876-6.462-31.997c3.229-11.141,17.886-23.394,34.971-33.861c17.082-10.479,37.252-12.545,55.528-9.272c18.276,3.259,46.636,16.166,46.636,43.134c0,6.022,0,110.882,0,110.882s0.458,21.787,6.46,24.114c6.006,2.327,16.164,1.39,19.866-0.457C1175.192,450.316,1177.963,448.476,1177.963,448.474z M1110.541,441.978l-0.456-65.875c0,0-62.795,21.114-72.038,34.797c-9.23,13.685-7.091,33.861,14.311,45.916C1073.768,468.869,1110.563,443.912,1110.541,441.978z M1526.964,451.125c-23.959-12.252-21.302-49.006-21.302-49.006V296.688h66.044l7.462-21.305h-73.507v-64.457l-6.926-0.521c-18.278,35.698-43.841,61.396-73.491,81.488v4.256h44.731v114.511c0,34.648,10.122,54.301,31.954,64.444c21.85,10.122,52.192,5.846,52.192,5.846l34.091-28.761l-7.99-9.574C1580.224,442.614,1550.932,463.374,1526.964,451.125z M897.178,306.635c-19.942-9.947-60.473-25.238-75.091-37.194c-14.619-11.966-31.222-41.193-27.238-61.803c3.973-20.594,23.916-35.213,43.192-38.535c19.268-3.32,39.196-5.32,59.137,7.97c19.929,13.293,25.911,29.238,27.9,40.53c1.999,11.306,3.334,20.604,3.334,20.604h17.266v-77.077c0,0-54.484-13.964-84.384-13.964c-29.911,0-60.221,8.667-79.738,29.907c-19.514,21.243-23.925,37.884-25.251,52.49c-1.323,14.63,0.662,47.852,25.914,67.778c25.249,19.94,83.058,45.183,95.693,51.825c12.619,6.646,32.547,19.939,39.192,36.556c6.647,16.596,3.989,41.188-5.312,55.152c-9.308,13.942-33.23,29.912-55.16,29.912c-21.928,0-47.839-4.675-61.783-21.291c-13.953-16.599-17.95-25.913-19.941-33.213c-1.996-7.292-2.646-15.284-2.646-15.284h-15.305v76.429c0,0,51.177,7.947,73.104,9.297c21.938,1.325,53.825,0,74.426-11.969c20.592-11.968,47.175-34.556,51.826-65.767c4.657-31.237-1.336-48.529-12.632-63.802C932.386,329.904,917.107,316.608,897.178,306.635z M1775.84,448.474l0.463,11.146l-41.097,20.868c0,0-10.399,6.713-16.614,2.331c-6.232-4.418-8.534-14.84-9.241-23.199c0,0-20.311,16.7-39.24,21.326c-18.931,4.648-44.786,7.883-58.646-6.494c-13.857-14.378-23.088-33.86-12.922-55.671c10.154-21.806,38.783-33.864,54.941-39.904c16.162-6.014,54.023-19.937,54.023-19.937s0.157-25.933-0.471-36.188c-0.619-10.269-8.523-27.693-24.459-30.613c-15.953-2.935-30.485,1.38-37.416,8.81c-6.916,7.428-8.771,14.83-7.845,20.413c0.93,5.568,4.626,14.839,4.626,14.839l-29.555,13.445c0,0-9.697-20.876-6.473-31.997c3.239-11.141,17.908-23.394,34.984-33.861c17.082-10.479,37.25-12.545,55.528-9.272c18.279,3.259,46.634,16.166,46.634,43.134c0,6.022,0,110.882,0,110.882s0.458,21.787,6.467,24.114c6.001,2.327,16.157,1.39,19.851-0.457C1773.069,450.316,1775.841,448.476,1775.84,448.474z M1708.428,441.978l-0.466-65.875c0,0-62.799,21.114-72.027,34.797c-9.245,13.685-7.092,33.861,14.299,45.916C1671.657,468.869,1708.439,443.912,1708.428,441.978z M3517.686,142.851c26.304-5.288,44.464,13.001,50.679,38.458l10.38,2.789l-1.123-57.732c-22.248-3.475-48.142-4.692-70.057,0.922c-21.938,5.618-39.598,23.013-48.483,38.21c-8.88,15.17-13.312,48.967-13.312,67.072v46.755h-36.485l-3.093,20.169h39.578v150.368c0,10.559-7.945,16.32-15.243,16.707l-17.077,0.936v13.443h96.504v-14.379h-14.312c-7.305,0-14.772-8.928-14.772-16.252V299.493h60.935l9.506-20.169h-70.438v-56.712C3480.869,188.291,3491.381,148.139,3517.686,142.851z M3362.341,272.513c-13.708,0.261-26.891,9.407-37.362,19.627c-6.192,6.028-13.4,19.338-18.287,29.243v-48.728h-5.998c-18.526,13.067-39.223,27.379-61.426,33.004v15.313c0,0,15.857-9.121,24.027-4.646c8.14,4.478,8.315,13.161,8.315,21.803v111.732c0,10.559-7.952,16.32-15.246,16.707l-17.097,0.936v13.443h96.504v-14.379h-14.288c-7.325,0-14.794-8.928-14.794-16.252V348.171c0.886-2.982,1.971-5.89,3.215-8.453c6.184-12.638,20.982-28.497,41.139-34.406c20.162-5.931,32.252,16.662,32.252,16.662l7.54,0.263v-43.813C3390.835,278.423,3376.043,272.242,3362.341,272.513z M3629.27,450.316V272.653h-6.023c-18.503,13.067-39.205,21.731-61.398,27.381v15.29c0,0,15.854-9.122,23.998-4.644c8.167,4.494,8.319,13.159,8.319,21.807v117.374c0,10.581-7.931,16.32-15.251,16.707l-17.068,0.936v13.443h96.5v-14.379h-14.304C3636.719,466.568,3629.27,457.641,3629.27,450.316z M3894.694,466.568c-7.315,0-14.764-8.928-14.764-16.252v-112.51c0-26.996-28.895-65.326-65.318-64.522c-30.713,0.671-52.412,19.084-68.14,36.375v-37.006h-5.996c-18.526,13.067-39.227,21.731-61.423,27.381v15.29c0,0,15.854-9.122,24.024-4.644c8.167,4.494,8.298,13.159,8.298,21.807v117.374c0,10.581-7.927,16.32-15.227,16.707l-17.098,0.936v13.443h96.502v-14.379h-14.305c-7.304,0-14.778-8.928-14.778-16.252V324.493c14.573-9.101,42.403-25.238,56.435-25.218c19.59,0.04,41.922,19.504,41.922,41.466v109.12c0,10.559-7.929,16.32-15.25,16.707l-17.069,0.936v13.443h96.502v-14.379H3894.694z M2256.122,453.601l23.02-6.324l-0.221,14.163l-62.252,25.524c-7.946-13.098-9.831-19.156-10.291-33.861c-16.747,20.938-40.379,33.861-69.206,33.861c-57.517,0-92.915-47.891-92.915-106.604c0-58.709,42.596-105.869,104.429-106.588c24.63-0.294,43.703,5.107,57.567,15.697V179.8c0-8.657-0.156-17.333-8.318-21.809c-8.172-4.484-24.027,4.649-24.027,4.649v-15.316c22.196-5.632,42.898-14.299,61.428-27.377h5.993v317.404C2241.328,444.671,2249.058,455.529,2256.122,453.601z M2206.252,321.8c-9.692-17.594-25.765-29.929-51.459-30.748c-49.721-1.582-75.325,35.612-75.325,82.836c0,47.197,29.904,84.277,76.154,84.277c23.798,0,40.353-9.455,50.63-24.413V321.8z M2330.188,363.802c0,0-0.717,20.878,7.926,47.528c8.648,26.655,22.351,42.507,53.309,52.587c30.97,10.081,82.835-15.832,82.835-15.832l-0.646,15.743c-20.439,17.336-54.062,23.136-82.188,23.136c-55.152,0-101.545-48.768-101.545-107.667c0-58.932,46.393-107.695,101.545-107.695c51.106,0,87.858,37.539,90.135,92.2H2330.188z M2442.094,346.841c-0.783-27.15-21.377-57.956-53.626-56.937c-32.258,1.018-58.133,22.903-58.713,56.937H2442.094z M3074.324,363.802c0,0-0.72,20.878,7.925,47.528c8.644,26.655,22.33,42.507,53.304,52.587c30.976,10.081,82.843-15.832,82.843-15.832l-0.654,15.743c-20.436,17.336-54.085,23.136-82.188,23.136c-55.146,0-101.569-48.768-101.569-107.667c0-58.932,46.423-107.695,101.569-107.695c51.087,0,87.858,37.539,90.137,92.2H3074.324z M3186.228,346.841c-0.757-27.15-21.379-57.956-53.652-56.937c-32.253,1.018-58.103,22.903-58.711,56.937H3186.228z M2618.206,272.513c-13.705,0.261-26.891,9.407-37.358,19.627c-6.188,6.028-13.398,19.338-18.289,29.243v-48.728h-5.998c-18.526,13.067-39.229,27.379-61.427,33.004v15.313c0,0,15.859-9.121,24.024-4.646c8.169,4.478,8.321,13.161,8.321,21.803v111.732c0,10.559-7.929,16.32-15.252,16.707l-17.094,0.936v13.443h96.532v-14.379h-14.315c-7.317,0-14.792-8.928-14.792-16.252V348.171c0.89-2.982,1.979-5.89,3.234-8.453c6.173-12.638,20.965-28.497,41.118-34.406c20.179-5.931,32.259,16.662,32.259,16.662l7.536,0.263v-43.813C2646.706,278.423,2631.908,272.242,2618.206,272.513z M2931.7,306.635c-19.915-9.947-60.466-25.238-75.087-37.194c-14.62-11.966-31.208-41.193-27.239-61.803c4-20.594,23.92-35.213,43.208-38.535c19.263-3.32,39.205-5.32,59.118,7.97c19.942,13.293,25.919,29.238,27.917,40.53c1.999,11.306,3.325,20.604,3.325,20.604h17.263v-77.077c0,0-54.478-13.964-84.38-13.964c-29.912,0-60.215,8.667-79.745,29.907c-19.502,21.243-23.906,37.884-25.237,52.49c-1.344,14.63,0.654,47.852,25.914,67.778c25.236,19.94,83.061,45.183,95.682,51.825c12.62,6.646,32.562,19.939,39.204,36.556c6.644,16.596,3.978,41.188-5.323,55.152c-9.292,13.942-33.202,29.912-55.148,29.912c-21.907,0-47.844-4.675-61.797-21.291c-13.944-16.599-17.936-25.913-19.937-33.213c-1.98-7.292-2.649-15.284-2.649-15.284h-15.291v76.429c0,0,51.175,7.947,73.114,9.297c21.916,1.325,53.821,0,74.412-11.969c20.594-11.968,47.176-34.556,51.828-65.767c4.646-31.237-1.326-48.529-12.615-63.802C2966.933,329.904,2951.64,316.608,2931.7,306.635z M398.729,238.295c-0.543-14.24,1.148-35.32-9.153-58.528c-15.066-33.917-48.332-71.787-75.221-109.135C287.562,33.432,293.72,5.739,292.111-6c-11.896,7.415-41.529,38.522-26.546,91.596c14.86,52.585,70.269,110.644,87.332,140.871c17.062,30.235,14.26,57.886,9.351,74.959c-4.9,17.053-14.169,24.066-21.766,28.936c0.501-11.317,0.098-26.66-6.833-43.078c-6.923-16.406-40.627-55.659-65.107-84.536c-24.478-28.876-48.242-72.177-37.53-106.594c-10.571,6.439-33.105,34.676-31.909,67.649c1.193,32.971,28.615,77.662,45.589,98.788c16.964,21.114,46.471,63.467,52.293,86.755c5.822,23.301,3.735,39.938-1.246,52c-4.16,9.963-18.3,21.196-18.3,21.196s1.248-16.226-4.583-28.696c-5.822-12.469-73.202-103.971-79.855-113.543c-6.084-8.74-21.885-26.869-21.061-43.58C71.057,258.092,0,307.94,0,365.782C0,442.979,126.586,505.97,281.784,505.97c155.204,0,281.796-62.991,281.796-140.188C563.581,309.311,495.84,260.461,398.729,238.295z"/></svg>
