<svg height="512" width="4086.293" xmlns="http://www.w3.org/2000/svg"><path d="M4072.649,352.475l-27.566-60.382h-103.438l-27.566,60.382h-13.658l86.107-187.436
	h13.657l86.107,187.436H4072.649z M3993.364,178.697l-47.008,102.901h94L3993.364,178.697z M3884.96,300.489
	c0.523,34.136,1.576,45.149,5.249,51.985h-12.084c-3.404-3.15-4.458-14.965-5.245-43.588c-0.789-32.548-11.279-41.732-48.301-41.732
	h-83.492v85.32h-12.08V165.039h95.826c35.979,0,63.279,10.24,63.279,49.623c0,19.41-11.815,40.423-38.328,46.458v0.521
	C3872.625,264.524,3884.694,280.276,3884.96,300.489z M3876.032,213.861c0-30.438-23.633-38.315-50.146-38.315h-84.799v81.115h81.65
	C3834.554,256.661,3876.032,256.661,3876.032,213.861z M3610.897,356.668c-55.123,0-82.959-25.193-82.959-73.494V165.039h12.085
	v117.602c0,40.17,18.903,63.533,70.874,63.533c51.986,0,70.889-23.363,70.889-63.533V165.039h12.082v118.135
	C3693.868,331.475,3666.033,356.668,3610.897,356.668z M3436.866,352.475h-12.082V175.546h-75.602v-10.507h163.299v10.507h-75.615
	V352.475z M3246.293,346.174c41.479,0,72.986-24.15,80.073-64.842h12.084c-4.205,35.697-35.965,75.336-92.157,75.336
	c-56.964,0-99.765-35.967-99.765-97.911c0-45.417,30.984-97.922,99.765-97.922c45.165,0,79.554,21.266,89.005,63.012h-12.081
	c-8.918-35.965-41.744-52.506-76.924-52.506c-53.56,0-87.683,40.17-87.683,87.416C3158.61,305.75,3188.796,346.174,3246.293,346.174
	z M3095.372,292.093h-103.451l-27.567,60.382h-13.644l86.107-187.436h13.657l86.107,187.436h-13.655L3095.372,292.093z
	 M3043.64,178.697l-46.993,102.901h93.999L3043.64,178.697z M2830.226,250.093h117.095v10.493h-117.095v91.889h-12.081V165.039
	h135.998v10.507h-123.917V250.093z M2602.248,370.83c-63.427,0-114.838-51.41-114.838-114.836
	c0-63.413,51.411-114.824,114.838-114.824c63.412,0,114.836,51.411,114.836,114.824C2717.084,319.42,2665.66,370.83,2602.248,370.83
	z M2680.985,245.66h-71.677v-71.636h-17.422v71.636h-71.676v17.409h71.676v71.649h17.422v-71.649h71.677V245.66z"/></svg>