<svg height="512" width="2373.622" xmlns="http://www.w3.org/2000/svg"><path d="M256.621,0C114.891,0,0,114.583,0,255.921c0,141.323,114.891,255.907,256.621,255.907
	c141.729,0,256.643-114.584,256.643-255.907C513.264,114.583,398.351,0,256.621,0z M385.858,320.961
	c-0.454,35.805-12.729,63.199-34.209,84.959c-27.434,27.809-65.436,31.281-123.155,31.281V383.48
	c42.233,2.697,71.236-5.607,83.918-16.635c12.756-11.094,19.118-26.406,19.118-45.885v-31.934
	c-8.958,12.217-19.564,20.826-31.867,25.82c-12.308,4.979-27.394,7.475-45.27,7.475c-33.108,0-60.957-10.426-83.524-31.266
	C148.28,270.217,137,241.903,137,206.084V74.799h54.321v131.285c0,19.505,6.268,34.777,18.797,45.884
	c12.509,11.094,29.504,16.661,50.977,16.661c21.474,0,38.462-5.566,50.978-16.661c12.509-11.107,19.004-26.379,19.458-45.884V74.799
	h54.328V320.961z"/></svg>