<svg height="512" width="2373.622" xmlns="http://www.w3.org/2000/svg"><path d="M2191.036,435.186c-139.708,0-182.584-111.928-182.584-179.186
	c0-67.257,42.876-179.184,182.584-179.184c139.709,0,182.586,111.927,182.586,179.184
	C2373.622,323.258,2330.745,435.186,2191.036,435.186z M2191.036,96.026c-103.569,0-160.415,77.818-160.415,159.974
	c0,82.143,56.846,159.975,160.415,159.975c103.583,0,160.426-77.832,160.426-159.975
	C2351.462,173.844,2294.619,96.026,2191.036,96.026z M1814.843,427.508h-157.05V84.492h160.907
	c81.417,0,154.16,38.916,154.16,171.508C1972.86,356.406,1921.798,427.508,1814.843,427.508z M1813.881,103.716h-133.926v304.569
	h139.233c76.111,0,131.512-46.592,131.512-152.286C1950.7,147.424,1895.298,103.716,1813.881,103.716z M1322.541,403.959
	l270.265-300.243h-254.373V84.492h279.423v22.094l-270.265,301.699h274.117v19.223h-299.167V403.959z M1022.456,84.492h271.714
	v19.225h-249.544V240.14h239.426v19.224h-239.426v148.922h252.428v19.223h-274.598V84.492z M824.503,427.508h-22.162V283.381
	L642.88,84.492h30.832l139.715,178.237L956.021,84.492h27.94L824.503,283.381V427.508z M228.494,437.201V383.48
	c42.233,2.697,71.236-5.607,83.918-16.635c12.756-11.094,19.118-26.406,19.118-45.885v-31.934
	c-8.958,12.217-19.564,20.826-31.867,25.82c-12.308,4.979-27.394,7.475-45.27,7.475c-33.108,0-60.957-10.426-83.524-31.266
	C148.28,270.217,137,241.903,137,206.084V74.799h54.321v131.285c0,19.505,6.268,34.777,18.797,45.884
	c12.509,11.094,29.504,16.661,50.977,16.661c21.474,0,38.462-5.566,50.978-16.661c12.509-11.107,19.004-26.379,19.458-45.884V74.799
	h54.328v246.162c-0.454,35.805-12.729,63.199-34.209,84.959C324.215,433.729,286.213,437.201,228.494,437.201z"/></svg>