<svg height="512" width="2373.622" xmlns="http://www.w3.org/2000/svg"><path d="M256.621,0C114.891,0,0,114.583,0,255.921c0,141.323,114.891,255.907,256.621,255.907
	c141.729,0,256.643-114.584,256.643-255.907C513.264,114.583,398.352,0,256.621,0z M385.858,320.961
	c-0.454,35.805-12.729,63.199-34.209,84.959c-27.434,27.809-65.436,31.281-123.155,31.281V383.48
	c42.233,2.696,71.236-5.607,83.918-16.636c12.756-11.094,19.118-26.405,19.118-45.885v-31.935
	c-8.958,12.218-19.564,20.826-31.867,25.82c-12.308,4.979-27.394,7.476-45.27,7.476c-33.108,0-60.957-10.427-83.524-31.267
	C148.28,270.217,137,241.903,137,206.084V74.799h54.321v131.285c0,19.505,6.268,34.777,18.797,45.884
	c12.509,11.095,29.504,16.661,50.977,16.661c21.474,0,38.462-5.566,50.979-16.661c12.509-11.107,19.004-26.379,19.458-45.884V74.799
	h54.328L385.858,320.961L385.858,320.961z M2191.036,76.816c-139.707,0-182.584,111.927-182.584,179.184
	c0,67.258,42.877,179.186,182.584,179.186c139.709,0,182.586-111.928,182.586-179.186
	C2373.622,188.743,2330.745,76.816,2191.036,76.816z M2191.036,415.975c-103.568,0-160.414-77.832-160.414-159.975
	c0-82.156,56.846-159.974,160.414-159.974c103.584,0,160.426,77.818,160.426,159.974
	C2351.461,338.143,2294.62,415.975,2191.036,415.975z M1818.7,84.492h-160.906v343.016h157.049
	c106.955,0,158.018-71.102,158.018-171.508C1972.86,123.408,1900.118,84.492,1818.7,84.492z M1819.188,408.285h-139.232V103.716
	h133.926c81.416,0,136.818,43.708,136.818,152.283C1950.7,361.693,1895.299,408.285,1819.188,408.285z M1347.59,408.285h274.117
	v19.223h-299.166v-23.549l270.266-300.243h-254.373V84.492h279.422v22.094L1347.59,408.285z M1044.626,408.286h252.427v19.223
	h-274.597V84.492h271.714v19.225h-249.544V240.14h239.425v19.224h-239.425V408.286z M956.021,84.492h27.939L824.503,283.381v144.127
	h-22.162V283.381L642.88,84.492h30.832l139.715,178.236L956.021,84.492z"/></svg>