<svg height="512" width="512.0" xmlns="http://www.w3.org/2000/svg"><path d="m410.2 30.2c-54.3 0-97.6 120.2-319.7 157.4-5.2-5.1-11.1-8-17.4-8-21.7 0-39.2 34.3-39.2 76.6 0 42.3 17.5 76.6 39.2 76.6 6.3 0 12.2-2.9 17.4-8 9.9 1.6 19.3 3.4 28.5 5.4l-10.1 21.1-6.2 12.9c-2.7 5.6-0.3 12.4 5.3 15.1l12.8 6.2 127.2 62.7 12.8 6.2c2.6 1.2 5.5 1.4 8.1 0.6 0.2-0.1 0.3-0.1 0.5-0.2 0 0 0.1 0 0.2 0 2.6-1 4.9-3 6.2-5.7l6.1-12.9 14.8-30.9c56.4 39.5 83.2 76.9 113.5 76.9 37.2 0 67.4-101.2 67.4-226 0-124.8-30.2-226-67.4-226z m-156.5 379.9l-106.8-53 8.5-17.9c45.1 12.7 80.9 29 110.1 46.1l-11.8 24.8z m106-153.9c0-25.9 1.9-51.8 5.7-77.5 22.4 14.5 37.7 43.8 37.7 77.5 0 33.7-15.3 63-37.7 77.4-3.8-25.7-5.7-51.5-5.7-77.4z" /></svg>