<svg height="512" width="512.0" xmlns="http://www.w3.org/2000/svg"><path d="m357.9 148.1c-16.8 0-30.5-13.9-30.5-31l21.6-89.5-1-1h-253.5c-16.9 0-30.6 13.9-30.6 31v396.8c0 17.2 13.7 31.1 30.6 31.1h323.6c16.9 0 30.6-13.9 30.6-31.1v-325.8l-2.1-2.1-88.7 21.6z m8.2 63.6l-124.6 157.6c-4 4.4-11 4.8-15.6 1l-70.3-59.6c-4.5-3.8-5-10.4-1-14.8l21.2-23.3c3.9-4.4 10.9-4.8 15.5-1l34.9 29.3 93.1-124.1c3.7-4.6 10.6-5.5 15.4-2l29.3 22.1c4.8 3.5 5.8 10.1 2.1 14.8z m13.7-85.7h68.9l-99.5-99.3v68.3c0 17.1 13.7 31 30.6 31z" /></svg>