<svg height="512" width="512.0" xmlns="http://www.w3.org/2000/svg"><path d="m114.6 62c0.8-1.7-3.9 0-2.9-0.2-2.5 0.4 2.2 0.4 2.9 0.2z m12.3-8.1c0.9-1-2.8-0.8-1.9 0-1.7 0.2 1.1 0 1.9 0z m9.8 3.1c-0.3 0.2 1.1 0.6 1.2 0.6 0.9-0.1 2.9 0 3.8-0.5-1.2-0.2-3.9-1-5-0.1z m-6.5-4.4c-0.1 0-0.2 0-0.3 0 1 0 2.5 0.2 3 0.2-1.1 0-2.1 0.1-3.1 0.3 0.1 0.2 0.3 0.3 0.6 0.3 0.6-0.2 3.3 0 4.1-0.1 0-0.1-0.1-0.1-0.1-0.2 1-0.2 2.6-0.3 3.6 0.4-0.6 0-5-0.5-3.1 0.4-0.7 0-1.4 0.2-2.1 0.3 3.4-0.3 9 1.7 11.3-0.6 0.1-0.1-0.8-0.1-1.2 0 0.5-0.5 1.8-0.3 2.1-1 1.4-0.1 2.1-0.4 3.6-0.7 0-0.1-0.3-0.2-0.6-0.2 0.5 0 0.9 0 1-0.2-0.2 0-0.5 0-0.8 0 3.1-0.8 6.5-0.7 9.6-1.6-0.6 0-1.6 0.1-1.8 0 0.3 0 3.8 0 4-0.4 0.3-0.5-5.6 0.4-3.4-0.2-4.3-1.5-16.4-0.5-20.6 1.1 0.7 0 1.5-0.1 2.3-0.1-0.5 0.1-0.7 0.1-1.2 0.2 0.9 0.2 1.7-0.2 2.6-0.1-0.9 0.1-1.7 0-2.5 0.3 0.5 0 1 0 1.5 0-0.4 0-0.7 0.1-1.1 0.1 0.2 0.3 0.9 0.4 1.9 0.4 0.5 0.1 0.3 0.2-0.6 0.2 0.4 0.1 1.4 0.4 1.3 0.5-2 1.3-2.3-0.2-3.4 0.5 0.6-0.4 0.7-0.5-0.2-0.5 0.1 0 0.1 0.1 0.1 0.1-0.8 0.4-3.2-0.6-4.4-0.6-0.2 0.1 0.3 0.1 0.6 0.2-0.7 0-1.4 0-2.1 0.1 0.1 0.1 0.2 0.1 0.3 0.2-0.5 0-1.1-0.1-1.5 0.2 0.2 0.1 0.5 0.1 0.7 0.2 0.1 0 0.2 0 0.4 0-0.2 0-0.3 0-0.4 0-0.5 0-1 0-1.5 0-0.4 0.3 0.2 0.3 1.4 0.3z m-4.2 0.1c0.1-0.1 0.3-0.1 0.4-0.2-0.2 0-0.7 0-1.2 0-0.5 0.3 1.4 0.2 0.8 0.2z m1.3 1.6c0.3 0 0.7-0.1 1-0.3-1 0.1-2.1 0-3 0.3 0 0 1.8 0 2 0z m-4.9 1.8c-0.1 0-0.6 0.1-0.8 0.2 0 0 4.3 0.2 3.1-0.4-0.8-0.3-1.6-0.2-2.3 0.2z m-2.9-0.2c-0.5 0.1-1.5 0.2-2 0.6 0.8-0.5 4.6 0.6 4.6-1.3 0 0-3.1 0-3.3 0-0.2 0.2 0.3 0.2 0.9 0.2-0.8 0.5-1.5-0.2-2.2 0.2 0 0.1 0.1 0.1 0.2 0.2 0.7-0.1 1.3-0.1 1.7 0.1z m-3.7 0c-0.1 0-0.1 0-0.1 0.1 0.5 0 1.2-0.1 2-0.2-0.5-0.1-2.1-0.7-2.1-0.3 0 0 0 0 0 0l-0.4 0.2c0.1 0.1 0.2 0.2 0.6 0.2z m1.9-0.1c0 0 0 0 0 0 0 0 0.1 0 0.1 0 0 0-0.1 0-0.1 0z m-5.3 3c1.3 1.8 4.7 0.6 6.1-0.3-0.2 0-0.6 0-0.7 0 0.9-0.7-0.4-0.3-0.9-0.2 0.7-0.2 1.4-0.4 2.1-0.7-0.3 0.2-6.4 0.5-3.7 0.5-1 0.7-1.9 0-2.9 0.7z m5.2-4.9c0.3 0.2 1.3 0.3 2.4 0.3-0.3 0.1-0.5 0.1-0.8 0.1 0.5 0 0.8 0 1.1-0.1 1.3 0 2.5-0.2 2.1-0.5 0.2 0 0.4-0.1 0.5-0.1-0.7-0.7-3.7-0.4-4.7-0.3-0.2 0.2-0.2 0.2 0.3 0.2-0.2 0-0.3 0.1-0.5 0.1 0.1 0.1 0.5 0 1.2 0-0.5 0.2-1 0.4-1.6 0.3z m-1.6 1.1c0.2 0 0.6-0.1 0.7-0.2-0.5-0.1-0.1-0.4-1-0.3-0.3 0.2-0.1 0.5 0.3 0.5z m14.6-1.6c-0.1 0-0.1 0-0.2 0-0.1 0-0.1 0.1-0.2 0.1 0.2 0 0.3-0.1 0.4-0.1z m103.6-3.7c-0.3-0.2-0.7-0.3-1-0.5-0.5 0.1 0.4 0.4 1 0.5z m-107.4 6c-2.4 0.5 2.1 0.5 2.7 0.5 2.5-1.4 7.6 1.1 10.4-0.6 0 0-0.3 0-0.5 0 0.2-0.1 0.5-0.2 0.7-0.2-0.1-0.7-11.1 0.3-10.3 0.1-0.3-0.1-1.6 0.1-1.2-0.3 0.5 0 1 0 1.5 0-0.2-0.6-5.9-0.7-6.4-0.3 0.5 0.2 1.1 0.4 1.8 0.4 0.7-0.5 1.1-0.3 1.3 0.4z m130.1 8.7c-0.3 0-1.7 0.7-0.9 1.3 0.3-0.4 0.6-0.9 0.9-1.3z m4.9 0.3c0.7 0.1 1-0.5 1.1-1.1-0.4-0.1-1.8-0.5-0.6 0.4-0.5 0-0.7 0.1-1.2 0.1 0.1 0.2 0.2 0.6 0.7 0.6z m31.3 42.4c-1 0.1-2.5 0.5-3.4 0.8 0.5 1.9 3.4 0.1 3.4-0.8z m-41-8.8c0.1 0.8 4 2.9 4.8 3 0.1 0 0.1-2.1 0.2-2.7-0.8-0.2-4.3-0.5-5-0.3z m-121.5-44.9c0.1 0 0.2 0 0.2 0 0 0-0.1 0-0.2 0z m102.6-4.2c0 0 0 0 0 0 0 0 0 0 0 0v0z m-8.2 25.6c0 0.6 0.4 1.1 0.4 1.6-0.6 0.1-5.4-0.9-5.4 0.2 0 1.6 8.2 2.5 6.4 5.5 0.1-0.1 0.1-0.1 0.1-0.1 0.3 4.2-0.9 3.1-3.9 3.5-2.7-0.3-5.3-1-8-1.2-3.1-0.2-1.9 1.8-1.9 3.4 0 1.1-2.1 9.1 0.3 9.3 2.4 0.2 3.3-0.7 4.8 1.6 1.2 1.8 4.8-1 6.8-0.2 1.6-0.7 3.5-2 4.6-3.7-3.9-1.7 5.1-5.5 5.2-5.9-1.7-4.3 4.7-0.9 6.7-1.9 4-2 4.5-0.8 7.5 2.3-0.5-1.2 13.1 9.5 8.9 9.1 0.3 1.8 2.5-1.8 2.6-1.4-0.5-3-2.1-2.6 2-1.5-0.1-2.5-4.4-2-4.8-4.2-2.8-0.3-7.3-4.1-7.6-6.8-0.3-1.8 8.3 4.2 9 4.2 0.4 2 4.6 2.4 5.1 5.4 0.3 1.8 3.9 5.3 5.5 5.4-0.9 1.9 0.4 2.9 2.6 3.2-0.4-0.2-0.9-2.6-1-3 0.9 0.8 1.9 1.4 3 0.8-1.8-1.5-2.7-3-4.3-4.5-0.3-1.4 2.4 0.5 2.4 0.5 0-0.5 0-0.8-0.3-1.3 1.6-0.3 1.8-1 3.4 0.2 2.2 1.5 1.9-0.5 3.8-0.2 0 0.3 0.6 0.6 0.7 0.8-0.8 0.3-5.7-0.5-5.3 1.4 0.3 1.3 2.3 0.4 0.3 2.5 1.9 1 2.9 2.1 4.5 3.5 0 0.1-0.3 0.2-0.4 0.3 5.3 0.5 9.7 2.7 15 1.2 0.6 2.5 0.1 4.4 0 6.9-0.1 0.7 0.1 3.1-0.5 3.6-0.2 0.2 2.2 4.8 2.3 5.7 0.3 6.5 10 10.1 11.4 16.1 0.8 3.6 3.7 5.7 5.8 8.5 2.8 3.8 3.8 6.6 5.9 10.6 3.9 7.6 8.9 1.4 15.1-0.3-1-7.2-2.6-14.2-4.7-21-1.6-1.1-0.7-2.7-1.4-4.2-0.6 0.1-0.2 1.1-0.9 1.2-1.1-2.9-4.5-4.3-6-7.2-2.9-5.9 3.2-2.2 5 0.4-3.2-8.3-7-16.4-12-23.6 0.1 0 0.3-0.1 0.5-0.1-7.3-12-16.2-22.9-26.6-32.4-6.7-6.2-17.7-17.5-26.8-18.3 0.4-1.4-4.3-0.5-2.9-0.3-1.9 0.3-4.1-0.3-5.9 0.3 0.2 0.1 0.2 0 0.5 0.1-0.7 0-1.4 0-2 0.2 0.4 0 0.4 0.1 0.8 0.1-0.1 0-4-0.3-4.1 0.2 0 0 0.5 0.1 0.8 0.1-0.2 0-0.7 0.1-0.9 0.2 1.1 0 1.6-0.2 2.7-0.2-0.2 0.9-8.8 4.4-9.9 4.5 0.5 0 0.7 0.1 1.3 0.2-1.7-0.2-9.1 1.2-5.3 3.9-0.3 0.2-0.6 0.4-0.7 0.8 0.6-0.1 0.6-0.1 1.4-0.1 0.1 0.9-0.9 0.3-0.9 0.9 0.2 2 5.7 0.6 6.3 0.2 2-1.2 2.4 0.1 3.6 1.7 0.4 0.6 2.2 4.1 3 4.1 1 0.1 5.4-0.9 5.3-2.4-3.6-0.6 2.2-3 2.1-3.3-0.4-1.8-2.8-1.2-3.1-3.1-0.3-1.8 5.6-1.3 5.2-2.5 0.5-0.7 4.7-3 5.8-0.4 0.1 0.2-5.3 2.1-5.7 2.1 0.5 0.7 0.4 1.4 1.5 1.8-2 2.3 10.9 2 12 3.1-2.7 1-5.7-0.9-8.3 0.4-0.8 0.4 2.1 1.5 2.2 2.4-0.1-1-6.7 0.5-6.2 4.1-0.6 0-1.3-0.1-2-0.1 0-0.1 0.1-0.2 0.2-0.4-1.7-0.6-8.5 1.8-8.2-0.3-1.8-0.3-3.9-0.2-5.7-0.3-0.2 0.4-0.1-0.2 0.1-1 0.4 0.1 1-0.1 1.1 0.5 0.2-0.9-0.3-1.1-0.9-1.2 0.1-0.7 0.3-1.3 0.5-1.3-0.3-0.5-0.8-0.8-1-1.9-3.5 1.4-3.5 1.4-1.6 4.7 0.9 1.5-2.6 1.3-3.6 1.2-3.3-0.2-2.9 2.7-5.6 3.3-3.3 0.7-3.9 2.1-7.7 1.8z m20.8-6.6c-0.1-0.2-0.3-0.2-0.4 0 1.7 1.2 1.2-0.9 2.3-1-1.3-2.3-3.7 0.1-1.2 0.6 0 0.2-0.3 0.4-0.7 0.4z m32.5 38.4c-1.2-0.5-2.8-0.9-4.2-0.8 0.9 0.5 3.2 1.3 4.2 0.8z m-58.3-39.6c-0.4 0.1-0.4 0.2-0.4 0.4 0.3 0 0.5 0.1 0.6 0.1 0-0.2 0.1-0.4 0.1-0.5-0.1 0-0.3 0-0.3 0z m15-17.4c-0.1 0-0.2 0-0.3 0 0.5 0.3 2.2 0.1 3.2 0.1-0.8 0.1-2.2 0.3-2.2 0.3 0.1 0.4 2.5 0.3 2.8 0.4-0.8 0-1.5-0.1-2.3-0.1 0.1 1.8 4.9 0.1 6.5-0.3 0.2 0.2 0.5 0.3 0.7 0.4 0 0.2-0.4 0.1-0.5 0.3 0.5 0.1 1.4 0.1 1.8 0.2-0.1 0.1 0 0.1 0.1 0.3 1-0.1 1.4-0.3 2.5-0.4-1.2-0.6-2.6-0.8-3.8-0.9 0.2 0 0.3 0 0.4 0-0.2-0.1-0.6-0.2-0.9-0.3 2.2 0.2 6-0.4 6.8-0.6-2.3-1.1-6.1-0.6-8.6-0.6 0.1 0 0.2 0.1 0.2 0.1-0.2 0-0.4 0-0.6 0 0 0 0 0 0 0-0.4 0-0.8 0-1.2 0 0.2 0.4 1.5 0.4 1.8 0.4 0.1 0 1.6 0.1 1.8 0.1-0.6 0-1.1 0-1.7 0 0.1 0.1 0.2 0.2 0.4 0.3-0.9-0.2-1.8-0.3-2.5-0.2 0-0.1 0.1-0.2 0.1-0.2 0-0.1-3-0.9-1.6 0.3-0.2 0-1.9-0.2-1.9-0.2 0.1 0 0.1 0 0.1 0-0.1 0-0.1 0-0.1 0-0.2-0.1-0.5-0.1-0.7-0.1 0.1-0.1 0.2-0.1 0.3-0.2-0.8-0.1-1.7-0.1-2.5 0.1 0.3 0.2 0.7 0.3 1 0.4-0.1 0.1 0.3 0.2 0.9 0.4z m-22.9 21.3c3.1 0.2 4.9-0.7 5-3.4 0-0.4 2.5-2-0.9-2.2-0.5 0-3.5-0.2-2.4 1-0.4 0.3-2.3 0.1-2.4 0.7 0.4 0.3 0.7 0.6 1.1 0.9-0.2 0.8-3.5 2.8-0.4 3z m21.6 22.5c0 0.1 1.4 1.1 1.3 0.4-0.1-0.8-0.6-0.9-1.3-0.4z m-15.4-31.1c0 0.1-1.4-0.2-1.5-0.2 0 0.4 0.4 0.5 1.3 0.7-0.1 1.1 0.2 0.8 0.2 2.1 0.1 0.1 0.3 0.1 0.4 0.1-0.1-0.2-0.3-0.3 0-0.6 2 1 0.4 0.4 0.4 1.7 0 0.6 2.4 0.3 2.8 0.3-0.7 0.9 0 1.1 1 1.1 0 1.2-1.7 1.2-2.7 1.1 0 1.4-1.1 1.6-1.1 2.4 0 0.2 3.2 0.7 3.6 0.3 0 0.7-3.3 1.2-4 2.4 1.2 0.1 11.3-0.8 11.3-1.3-0.4-0.1-0.8-0.2-1.2-0.3 1.4-1.5 1.4-3 0-2.4-0.2 0.1-0.2 0.2-0.7 0.3-0.1-2.3-3.5-4.7-5.8-5.2 0.2-0.6 2.2-1.4 1.9-2.3-1.7 0.8-2.9 0.6-3.4-0.5 0.4-0.2 0.9-0.5 1.4-0.8 0-1.9-4.9 0.7-3.9 1.1z m27 28.8c0.2-0.3 0.2-1.5 0.3-2.1-0.1-0.1-0.2-0.4-0.3-0.6-0.4 0.3-0.9 0.5-1.4 0.5 0.4 0.5 0.8 2.1 1.4 2.2z m-0.6 2.3c0.6 5.2 4-2-0.8-1.3 0.1 0.5 0.7 0.8 0.8 1.3z m-28.4-31.7c0.6 0 1.1-0.3 1.1-0.7-0.1 0-2.2 0.6-1.1 0.7z m-76.7 23.5c-1-0.5-1.7-1.3-3.7-1 0.9 0.6 2.5 1.8 3.7 1z m-55 51c0.1-0.3-0.2-1.7-0.4-1.3-0.1 0.2-0.4 2.9 0.4 1.3z m9.7 21c0 0.1 0 0.1 0 0.1-0.2-0.8-0.2-0.6 0-0.1z m19.3-100.5c0.5 0.1 0.8-0.1 1-0.4-0.6 0.1-1.1 0.2-1.6 0.4 0.3 0 0.3 0 0.6 0z m-30.7 103.1c1.3-3.7 4.5 2.1 4.6 2.1 0.5 0.1 2.6-3.3 2.8-1.8 0 0 4.6 0 4.8 0.1 0 0.1-0.5-2-0.8-3-0.9-1.5-0.6-3.7-2.8-4.1-1.1-0.2-2.3 0.8-3.1-0.4-1.6-2.6-1.7 4-1.8 4.7-0.4-0.2-7.3 0.4-3.7 2.4z m1.8-7.8c-0.9-1.3 0.5-2.5-1.5-3 0.2-1.2-2.7-5.4-4-6.7-4-3.9-6.8-3.1-10.5 1.5 3.6 0.5 4-4.5 5.2-0.5 4.5 0.5 5.5 5.3 4.2 8.3 2.3 0.4 4.5 3.2 6.6 0.4z m-8.5 5.5c-0.5-0.1-2.4 2.4 1.9 2.2 0.1-0.4 0.1-0.8-0.3-1.1 0.1 0.1 0.1 0.2 0.1 0.2-0.3-0.3-1-1.1-1.7-1.3z m-4.7-13.2c-0.5 0.1-0.8 0.4-1 1 0.3-0.7 0.5 1.5 1.6-1.7-0.4-0.4-0.3 0.2-0.6 0.7z m114.6-82.1c-0.1 0-0.3 0.1-0.4 0.1 4 0.4 6.3 2.1 10.6 0.2 0.3-0.5-1.4-1.4-0.3-1.7-0.5 0-5-0.5-5.1 0-0.6-0.3-1.3 0.2-1.8-0.4-0.4 0.2-1.8 0.7-1.2-0.6-0.6 0-1.5 0.2-2.1 0.3-0.1 0.2 1.7 1.1 1.6 1-0.5 0.1-1.6 0.1-2.2 0.1 0.2 0.3 1.1 0.1 1.6 0.2-0.2 0.3-0.5 0.5-0.7 0.8z m-7.7-2.3c1.1-0.1 0.5-0.2 0.6-0.7 0.5 0.1 4.2 1.5 4.4 0.7 0.3-1.2-2.7-1.7-3.2-2 0.4-1.1 2.5 1.8 3.1 0-0.5-0.3-1.2-0.6-1.8-0.8 1.1 0 3 0.9 4-0.3-0.2 0-0.4-0.1-0.3-0.3 0.7 0 1.6-0.2 2-0.5-0.6 0.1-1.1 0-1.5-0.3 0.2-0.5 1.2 0.2 1.5-0.6 0.3-0.8-1.6-0.7-1.5-0.9 0.4-1 3.4 0.4 3.8-0.6-0.5-0.2-1-0.4-1.5-0.5 0.2 0 0.5 0 0.8-0.1-0.9-0.2-1.8-0.3-2.7-0.2 1-0.5 6.8-1.8 7.2-2.6 1.6 0 4.7-0.2 5.1-0.9 0.1-0.3-14.2 1.5-15 1.6 0.2-0.1 3.1-1.1 3.2-1.2 0-0.1-0.6 0-1.4 0.1 1-0.2 1.9-0.5 2.4-0.9-7.6-0.2-15.8-0.6-23.2 1.1 0.1 0 0.3 0 0.5 0.1-0.4 0-0.8 0-1.2 0.2 0.3 0.2 0.6 0.3 0.9 0.3-1-0.1-3.3-0.4-3.6 0.1-0.1 0 0 0.1 0 0.2-0.5-0.2-1.4-0.4-1.7 0.1-1 0.1-8.5 0.4-9.3 2 0.5 0.2 0.9 0.2 1.4 0.1-0.8 1.5-4.2 0.2-4.8 1.6-0.3 0.4 3 0.2 3.3 0.2-0.6 0.7-2.5-0.1-3 0.7 0.4-0.1 0.9 0 1.3 0.1-0.1 0.2-0.3 0.2-0.5 0.3 0.5 0.2 1 0.3 1.4 0.2 0-0.1-0.1-0.1-0.1-0.1 1.4-0.4 6.8-0.4 5.8 2.1 0.7 0.2 0.7 0.5 0 0.8 0.6 0 2.2 0.9 2.4 0.9-0.5 0.7-1.4-0.1-2.1 0 0 0.5 1.7 0.5 2.4 0.7-0.8 0.9-2.7 1.1-3.1 2.3 0.2 0 0.3 0 0.5 0.1-1 1.2 0.6 1.4 1.1 1.9-2.1 1.1 3.5 3.7 4.3 3.8 1.2 0.1 4-4.6 6.2-5 0 0.1 0 0.2-0.1 0.4 2.5 0 3.8-1.4 6-2 3.3 0.1 6.8-0.5 9.9-1.6-0.7-0.1-4.1-0.1-3.9-0.6z m-13.7-9.3c0 0 0.1 0 0.2 0 0 0-0.1 0-0.2 0z m164.9 118.7c0.1-1.8 0-3.4-0.5-4.8-2.7 0.9-5.3 2.3-8.1 2.9-5 0.9-6.9 2.4-8.3-3.6-1-4.2-8.2-7.1-9.2-11.6-0.7-3.4-1.5-4.6-3.7-7.1-2.1-2.3-1.3-6.3-3-9.1-1.4-2.5-1.8-5.1-3.1-7.6-1.9-3.8-6-8.9-6.2-13.2 1.3 1.5 2.7 5.3 4.3 5.6 1-4.2 1.1-5.2-0.5-9.2-2.7 0.7-5.1-1-7.7 0-3.5 1.3-6.3 0.8-9.8-0.5-2.5-0.8-12.5-6.7-12.4 0.1 0.2 7.9-9.2-2.4-11.6-3.1-2.6-0.9-7 0.6-6.9-3.9 0-2.6 0.9-4.5 1.1-6.8-0.8 0.7-1.4 0.7-2.1-0.2-1.1-1.7-2.7 0.6-4 0.6-2.6 0.1-5 0-7.6 0.1-3.9 0.2-8 2.3-11.3 4.1-4.2 2.4-7.8-1.1-10.2 2.1 0.1 0 0.1 0 0.2 0-2.1 2.7-4.5 5.2-6.5 8-1.4 1.9-0.9 4.4-1.6 6.6-0.7 2-3 4-4.9 4.7-3.5 1.3-4.9 5.3-6.4 8.5-1.2 2.5-2.1 5-3.5 7.4-1.8 3.3 0.6 8.4 0.5 11.9-0.1 2.5-1 5.4-2.3 7.5-1.3 2 0.4 4.5 0.3 7.1-0.1 0.1-0.1 0.1-0.2 0.1 1.3 2.1 3 4.1 4.7 5.9 3 3.4 3.7 7.9 6.9 11.1 2.4 2.5 5.3 6.4 9.2 5 1.8-0.6 3.2-1.7 5.2-1.8 1.6 0 2.9 1.4 4.5 1.4 3.8-0.1 7.5-5.4 12.1-5.5 3.3-0.1 3.1 5.6 5.9 5.6 9.4-0.2 8.3 6.5 5.9 13-1.5 4.2 2.6 8.1 4.9 11 2.3 3 2.6 7.4 3.6 11 0.8 3.3 2.5 8.6 1.6 12-0.8 3.5-3.6 5.9-4.3 9.5-0.4 2.4-0.2 4.8 0.4 7.1h4.4c9 0 16.3 7.3 16.3 16.4v27.7c0.1 0 0.1 0 0.1 0 2.8-1.5 5.2-0.8 8.1-1.1v-108.5c0-9 7.4-16.4 16.4-16.4h39.3z m-241.7-21.8c1.1 0.1 1.6-0.3 1.7-1.3-0.2 0.3-2.7 1.1-1.7 1.3z m65.4 67.8c-3.1-0.6-4.8-2.4-7.7-3.2-2.9-0.9-6.1 0.1-8.6 0.3-0.5-2.3-1.3-2.2-3.3-3-5.3-2.3-2.8 2.7-5.5 2.9-2.8 0.3-5.9-3.2-3.7-6.1 1.4-1.9-3.7-9.3-6.8-9.1-2.6 0.1-9.5-0.5-11.1-2.9-2.1-3.1-9.5-3.9-10.1-7.3 0.2 0.1 0.7 0 1-0.2-2.1 0-5 2-6.5 1.4-1.1-0.4-4.3 0.1-5.1-0.8-1-1.2-3.1-2.7-4.9-2.7 0.2 1 1.2 0.5 1.6 1.4-4.9 0.3-1.3 5.4-2.2 5.4-2.2 0.1-1.6-4.5-1.6-5.5 0.6-0.5 0.7-1 0.2-1.5-0.9-1.2-1.6 0.9-2.3 1.2-3 1.3-8 4.1-7.2 8.1-3.8 1.6 0 6.5 0.6 9.5-0.3 0.6-0.1 1.1 0.8 1.4 0 3.1-4.1 6.3-4.2 9.4-0.1 3.5-1 4 2.2 5.7 0 2.2-2.3 3.2-1.7 5.6 0.7 2.5 2.9 2.6 4 4.2 2.3 3.3 5.1 6.7 7.9 9.7 3.3 3.6 4.2 8.3 9.6 9.3 4.3 0.5 9.1 3.2 10.8 7.2 1.5 3.6 2 7.4 3.4 11.1 0.6 3.9 0.2 10.7 2.6 13.8 2.2 5.5 2.6 8.9 2.6 14.3 0 2.8 1.6 3.1 2.5 5.2 0.9 1.9-0.6 3.6 2.3 5.3 0.1-0.6 0.5-1 1.1-1 2.6 5.4 12.8 8.3 18.3 10.5 0.4-2.1-8-3.6-3.7-6.2 2.5-1.2 0.5-4.6-0.2-6 0.5-0.1 2.8 0.7 2.1-0.8 0.4 0.9-6.2-2.1-3.6-2.8 1.5-0.4 5 0.7 4-1.6 0-1.2-2.3-3.7-0.1-4.2 1.8-0.5 4.9-0.9 5.8-2.9 2.5-5.7-2.8-4.1-4.2-7.8 0.3 0.8 7.8-0.4 8.3-2.9 0.7-3.6 2-6.8 2.5-10.4 0 0 0 0 0 0 0-1.4 0.5-2.6 1.4-3.7-0.6-1.6-1.1-3.2-1.6-4.8-0.3-1.8 2.2-4.5 3.6-5.4 4.9-3.1 5.7-5.1 7.2-10.7 0.4-3.3-2.9-10.8-1.8-13 1.6-2.9 7.8-15 1.3-16.4z m-66.8-85.3c-0.3 0-0.9 0.3-1.2 0.6 0.4 0.1 0.9 0.2 1.6 0.2 0-0.3 0-0.7-0.4-0.8z m1.4 1.3c-0.2 0.2-0.3 0.8 0 0.7 0-0.2 0-0.5 0-0.7z m9.6 30.8c-0.6 1.6 2.2 2.4 3 1.3 0-0.8-2.5-2.9-3-1.3z m7.6-106.6c0.8-0.1 1-0.2 0.6-0.4-0.9-0.1-1.6 0.3-2.1 1 0.7 0 1.2-0.1 1.5-0.6z m-1.2 1.6c0.1 0 0.4-0.1 0.7-0.2 0 0.1 0 0.1 0 0.1 2.6-0.6 6.5 0.6 8.9-0.8 0.3-0.2-3.1 0-1.5-0.8-0.3 0-3.4 0.6-1.9 0.6-0.3 0.2-0.5 0.3-0.8 0.3 0.1 0 0.2 0 0.6 0-1.8 0.7-3.6-0.5-5.3-0.3-0.1 0.1 0 0.1 0.1 0.1-0.4 0-0.7 0.1-1.1 0.2 0.1 0 0.2 0.1 0.3 0.1-0.5-0.1-0.7 0-1.1 0.2 0.1 0 0.2 0 0.3 0.1-0.5-0.1-0.9 0.1-1.3 0.6 0.7 0.1 1.4 0 2.1-0.2z m-7.8 5.6c0.4 0.5 10.5 0.1 12.2-0.7 0 0-0.2-0.4-0.3-0.4 0.5-0.4 1.7-0.2 2.4-0.4-1.3-1-2.3 0.1-1.5-1.7 0.2-0.4 2.2-1.7 2.4-1.6-2.4-0.8-4.2 1.9-6 2 0.3 0-2.7-1.1-4.5-0.6 0.1-0.5 0-0.6-0.3-0.6 0-0.1 0.1-0.3 0-0.5-0.3 0.2-0.6 0.4-0.8 0.6 0 0.1 0.1 0.1 0.2 0.1-1.2 0.5-3 2.1-3.5 2.5 0.6-0.1 1.7-0.3 2.4 0-1.8 0.2-2.6 0.1-4.1 1.3 0.5-0.1 1.2-0.1 1.4 0z m37.6 26.3c-0.1 0-0.3 0.2-0.4 0.3-0.2 0.5 2.5 2 3.2 0.5-1.1 0.4-2.1 0.1-2.8-0.8z m-24.6-33.9c0.7 0 2-0.2 2.4-0.4-1.4 0-1.2 0 0.8-0.2 0-0.1-0.1-0.2-0.2-0.2 0.2 0 0.4-0.1 0.5-0.1-1 0-2.7-0.1-3.3 0.2 0.5-0.1 1-0.1 1.4 0-1.2 0.2-2.5 0.8-1.6 0.7z m-14.8 7.9c-0.3 0.3-0.6 0.5-1 0.8 0.4-0.1 1.1-0.1 1.3-0.2 0.1-0.5 0.2-0.6-0.3-0.6z m11.9-7.2c0.3 0 0.7-0.1 1-0.3-0.4 0.1-0.8 0.1-1.1 0.1-0.3 0.1-0.1 0.2 0.1 0.2z m-1.6 1.2c-0.5 0.1-0.9 0.3-1.3 0.5 0.9 0.2 1.3 0 1.3-0.5z m41.4 28.9c-0.3 0.1-0.6 0.2-0.9 0.2 0 0 0.1-0.2 0.1-0.2-0.4 0-0.8 0-1.2 0 0.1-0.4 0.3-0.6 0.6-0.6-0.7-0.4-1.3-0.3-2 0.1 0.1-0.2 3.6-3 2.7-3-2.9 0-5 4-7.6 4.8 0 0.2 0.2 0.3 0.4 0.3-0.4 0.7-1.4 0.5-1.7 1.1-0.1 0.1 6.7 0.6 7.4 0.6-0.4 0.2-0.7 0.4-1 0.8-0.2 0.3 2.9-1.3 2.9-1.3 1.2 1.3 1.1 3.3 2.4-0.2-0.4 0.2-0.3 0.3-0.9 0.3 0.3-1 0.2-0.5 0.7-1.5-0.2 0-0.6 0.1-0.7 0.2 0.2-0.7 0.5-1.1 0.6-1.5-0.3 0.1-1.2 0.1-1.8-0.1z m-30.4-16.7c0.8-0.1 2.4-0.7 3.1-1-1-0.2-1.9 0.3-2.8 0.7-0.1 0.1-0.2 0.2-0.3 0.3z m24.6 20.4c0.1-0.2-0.2-0.3-0.3-0.5-0.8 0.4-1.6 0.9-2.2 1.6-0.3 0.7 2.2 0.6 2.6-0.3-1.4-0.1-0.4-0.3-0.1-0.8z m-82.7 39c2.2-3.8 4.9-5.5 8.7-7.6 2.5-1.3 4.2 2.5 6.1 1.6-0.3-0.6 0.5-1.2 1.2-2.2-0.4 0.1-0.3 0.2-0.7-0.1 1.1-0.4 2.1-0.1 3.1-0.4-0.4 0.7 6 1.7 6 1.8 0.3 0.9-4 11.9-1.8 12.2 2.6 0.3 4.6-7.3 4.8-9 0.7-6.8 5.8-9.2 11.5-11.7-0.1 0-0.1 0-0.1-0.1 1.4-0.9 3.1-1.1 4.4-2.2-1-1.2 0.6-0.8 1.2-1.6-0.3-0.1-0.6-0.1-0.5-0.6 0.7-0.2 1.3-0.7 1.5-1.4-0.1 0-0.3 0-0.4 0-0.2-0.5 1.6-3.4 2-3.8-0.1 0.2-0.8 3-0.9 3 2 0.1 2.4-3.2 3.4-3.8-0.4-0.8 5.2-2.8 6.5-3.2-0.3-0.3-1.6 0-2 0 2.2-1 5.2-0.9 7.3-1.6-3.3 0 2.7-5 4.7-4.6 2 0.4 5.9-2.3 8.3-2.3-0.4 0.5-0.3 0.8 0.2 0.7 0.1 0 0.2 0 0.3 0-0.1 0-0.2 0-0.3 0-3 0.4-5.3 4.2-2.9 2.9 1.4-0.7 7.8-1.7 8.4-2.9 0.4-0.8-7.1-0.3-3.8-4.4-0.3 0-0.8-0.1-1.4-0.1 1-0.6 2.7-0.4 3.4-1.5 0.7-1.3-8.6 0.8-9.1 0.9 3.9-3.1 22.4-2.5 20.6-8.7-0.6 0.1-6.6 1.7-6.7 1 1.4-0.4 4.8-0.7 5.5-1.4 0.5-0.6-4.8-0.1-3.7-1.9l0-0.1c-1.2 0.1-1.7-0.4-2.2-0.7 3.2-1-0.8-6.3-2.6-3.9 0.2 0.3 0.5 0.5 0.8 0.7-0.8-0.3-1.4-0.4-0.5-2.1-1.5 2.8-7.7 1-9.8 0-7.2-3.4-5 1.3-10.4 2.6 0.1 2.5 3.8 2.6-1.2 4.5-4 1.6-1.7 2.5-3.7 4.8-1.8 0-2.5-0.2-2.7-0.4 0.3 0.1 0.7 0.2 1 0.1 0.4-0.5-0.5-0.5-1-0.4 0.2-0.8 2.2-2.1 0.8-3.1-4.2 0.2-3.7-2.9-8.9-2.7 1.4-1.4 1.6-2.3-0.6-1.9 2.9-2 8.3-3.6 10.6-5.7-0.2-0.2-0.4-0.3-0.6-0.3 2.6 0.2 6.9-0.3 8.6-1.8-1.2-0.1-2.7 0.1-2.6-0.6 1.2 0.4 2.7 0.4 4.3 0.2-1.4 0.6-3.3 1.6-4 2.2 0.4 0 1.3-0.2 1.9-0.1-0.4 0.3-0.8 0.5-0.2 0.5 2-0.1 5.4-0.5 7.4-1-0.1-0.3-1-0.2-1.4-0.4-0.1-0.1 0.2-0.3 0.1-0.4-0.2-0.5-2.1-0.8-2.6-0.6 0-0.2 0-0.3 0-0.4 0.5-0.1 0.9-0.2 1.4-0.4-0.2 0.2 0 0.3 0.5 0.3-0.1-0.1 0.2-0.4-0.4-0.3 2.8-0.8 5.6-2.1 6.9-3.3-0.7 0.1-1.5-0.3-2.2-0.3 1-0.1 1.9-0.1 2.4-0.1-0.7 0.5 2.6-0.3 3.5 0.1 0 0-0.1 0.1-0.1 0.1 0.3 0 0.5 0.1 0.8 0.3-0.4 0.1-0.7 0.2-1 0.3 0.3 0 2.1 0.1 2.5 0.3-0.8-0.1-1.6 0.1-2.4 0.6 0 0 2.8 0.8 2.9-0.3 1.8 1.2-3.5 2.2-2.1 2.7-1.8 0.8-5.4 0.2-6.7 2-0.2 0.3 5.8-0.4 6.4-0.1 1.4 0.7 4.1 2.4 6.4 1.9 1.8-0.5-1.6-2.1-1.6-2.1 3.1-0.5 3 1.1 3.8-1.6-1.1 0.1-1.4-0.9-2.1-0.8 0.1-0.5 0.4-0.2 0.6-0.6 1.4 0.2 4.3 1.1 4.6-0.8 0-0.1-3.9-1.4-4.2-1.5 0.3-0.3 0.6-0.3 1-0.4-0.3-0.2-0.7-0.2-1.1-0.1 0.3-0.2 0.6-0.2 1-0.3-0.3-0.2-0.6-0.4-1-0.3 0 0 0-0.1 0.1-0.2-3.2-0.1-6.1-1.2-9.5-1.2 0.2 0 0.6-0.7 0.5-0.8-0.4-1.3-8.4 1.4-6.6 0.5-0.9 0 2-0.7 2.6-0.8-1.6-0.1-3.2-0.1-4.9 0.2 0.6-0.2 1.2-0.3 1.8-0.6-3.6 0.2-4.9 0.1-7.5 2 0.8 0 1.6-0.2 2.4-0.7-0.2 0-0.3 0.1-0.5 0.1 0.9-0.5 2.5-0.4 3.4-0.6-0.6 0.3-3.8 0.6-3.3 1.6 0 0 2.2 0.1 2.5 0.2-0.7 0.6-1.6 0.6-2.6 0.2-0.9 0.7 6.3 0.8 6.4 0.8-0.9 0.3-4.5 3.5-5.7 2.3-0.2-0.8 0.3-1.1 1.3-1.1 0.8-0.6-3 0.2-3.3 0.3 0 0 0 0 0 0 0 0 0 0 0 0 1.1-0.9-0.9-0.5 0.8-0.9-0.4-0.2-1.5 0-1.6-0.2 0.5-0.2 1-0.4 1.5-0.5 1.2-0.9-3.8-0.8-5.1 0.2-0.4 0.3 1.8 0.5 1.4 0.8-0.4 0.2-0.7 0.4-1.1 0.6 0.4-0.1 0.7-0.2 1.1-0.3-0.5 0.8-2.6 0.5-3.9 1.5-0.7 0.2-0.6 0-0.3-0.2-1.8 0.5-6.8-0.1-9.9-0.2-1.1 1-3.2 1.1-3.9 0.9-4-1.4-7.1 1.4-9.7 3.8-8 7.1-15.2 15.1-21.5 23.8-12.7 17.7-21.4 38.1-25.4 59.5 1.2 0 1.6 4.7 3.1 5.1 1.2 0.4 2.5-3.2 3.2-0.4 1 0.2 0.5 5 0.9 5.9 1 2.6 2.9 3.9 4.9 4.6-0.6 2.1-0.3 3.9-0.1 6.1 0.1 2.4-1.9 4.8-1.3 7.1 0.2 0 0.4 0.1 0.6 0.2-0.1-0.3 0.1-0.8 0.4-1.1 2.2 0.7 0.7 12.1 3.7 13.3 1.5 0.7 1.8-6.7 4.9-5.6 1.5 0.6 0.3 4.5 0.4 5.6 0 0 2.5-2.2 2.7-2.6-0.5-1.8-0.6-6.9-3.9-5.4-7 3-4-9.2-2.6-12.8 1.6-4.2 7.6-11.8-0.4-12.3-6.7-0.4 1-6.7 1.8-8.2 0.7-0.7 1.2-1.3 1.8-2.6 0.9-2 2.6-3.4 3.6-5.4-7.6-1.3-7.9 8.5-14.9 6.9-5.1-1 6-19.4 6.6-20.7 0 0 0 0 0.1 0z m42.6-65.5c-0.3 0.2 1.7-0.1 2.4-0.2-1.2 0-2.1 0-2.4 0.2z m2.4-0.2c0 0 0 0 0.1 0 0 0 0 0 0 0 0.1 0 0 0-0.1 0z m32.1-1.6c-0.1 0-0.1 0-0.1 0 0 0 0 0 0.1 0z m319.5 34.3h-49.2c-9 0-16.3 7.4-16.3 16.4v335.8c0 9 7.3 16.3 16.3 16.3h49.2c9 0 16.4-7.3 16.4-16.3v-335.8c0-9-7.4-16.4-16.4-16.4z m-106.5 81.9h-49.1c-9.1 0-16.4 7.3-16.4 16.4v253.9c0 9 7.3 16.3 16.4 16.3h49.1c9.1 0 16.4-7.3 16.4-16.3v-253.9c0-9.1-7.3-16.4-16.4-16.4z m-106.4 81.9h-49.2c-9 0-16.4 7.3-16.4 16.4v172c0 9 7.4 16.3 16.4 16.3h49.2c9 0 16.3-7.3 16.3-16.3v-172c0-9.1-7.3-16.4-16.3-16.4z m-106.5 81.9h-49.1c-9.1 0-16.4 7.3-16.4 16.4v90.1c0 9 7.3 16.3 16.4 16.3h49.1c9 0 16.4-7.3 16.4-16.3v-90.1c0-9.1-7.4-16.4-16.4-16.4z" /></svg>