<svg height="512" width="512.0" xmlns="http://www.w3.org/2000/svg"><path d="m432.1 442.9h-352.1c-27.5 0-49.9-22.4-49.9-50.2v-181.5c0-27.7 22.4-50.2 49.9-50.2h63.1v-7.7c0-12.6 10.1-22.9 22.5-22.9h22.6l15.1-38.1c0-12.6 10.1-22.9 22.6-22.9h60.2c12.5 0 22.6 10.3 22.6 22.9l15.1 38.1h22.6c12.5 0 22.6 10.3 22.6 22.9v7.6h0.1v0.1h63c27.5 0 49.8 22.5 49.8 50.2v181.5c0 27.8-22.3 50.3-49.8 50.3z m-146-343c0-4.2-3.3-7.6-7.5-7.6h-45.2c-4.1 0-7.5 3.4-7.5 7.6v30.5c0 4.2 3.4 7.6 7.5 7.6h45.2c4.2 0 7.5-3.4 7.5-7.6v-30.5z m-30.1 312.7c-62.4 0-113-51.2-113-114.4 0-63.2 50.6-114.4 113-114.4 62.4 0 113 51.2 113 114.4 0 63.2-50.6 114.4-113 114.4z m0-184.8c-38.4 0-69.5 31.5-69.5 70.4 0 38.9 31.1 70.4 69.5 70.4 38.4 0 69.6-31.5 69.6-70.4 0-38.9-31.2-70.4-69.6-70.4z m0 96.8c-14.4 0-26.1-11.8-26.1-26.4 0-14.6 11.7-26.4 26.1-26.4 14.4 0 26.1 11.8 26.1 26.4 0 14.6-11.7 26.4-26.1 26.4z" /></svg>