<svg height="512" width="512.0" xmlns="http://www.w3.org/2000/svg"><path d="M428.265,113.929c-1.174-10.63-4.452-20.085-30.488-20.085c-48.081,0-105.012-33.198-139.122-67.317c-35.446-35.447-37.136-36.07-75.576,2.366c-32.516,32.521-85.542,66.143-151.21,66.143c-9.456,0-23.454,0-23.454,23.616c0,0-11.176,122.83,25.174,217.307C69.938,430.441,169.356,512,219.695,512c46.482,0,145.281-72.112,185.144-178.397C444.71,227.304,429.438,124.558,428.265,113.929z M219.546,373.258c-66.333,0-120.107-53.87-120.107-120.324c0-66.45,53.775-120.32,120.107-120.32c66.337,0,120.107,53.87,120.107,120.32C339.653,319.388,285.883,373.258,219.546,373.258z M216.656,293.894c-11.13,0-20.18,9.491-20.18,21.177c0,11.687,9.049,21.178,20.18,21.178s20.18-9.491,20.18-21.178C236.836,303.385,227.786,293.894,216.656,293.894z M214.872,178.952c-14.951,0-30.29,3.369-41.551,8.417l11.456,30.489c6.408-3.152,16.31-6.096,24.271-6.096c12.621,0,17.086,3.577,17.086,10.72c0,8.833-12.232,13.89-27.571,17.042l3.106,36.806h30.868l1.941-17.461c15.145-6.097,31.265-17.458,31.265-38.481C265.743,191.992,247.492,178.952,214.872,178.952z"/></svg>