<svg height="512" width="512.0" xmlns="http://www.w3.org/2000/svg"><path d="m255.7 24.1c-128 0-231.8 103.8-231.8 231.9 0 128.1 103.8 232 231.8 232 128.1 0 231.9-103.9 231.9-232 0-128.1-103.8-231.9-231.9-231.9z m0 416.8c-102 0-184.8-82.8-184.8-184.9 0-102.1 82.8-184.9 184.8-184.9 102.1 0 184.8 82.8 184.8 184.9 0 102.1-82.7 184.9-184.8 184.9z m112.1-267.2l-30.2-22.5c-5-3.6-12.1-2.7-15.9 2.1l-96 126.4-36-29.9c-4.7-3.9-11.9-3.4-16 1.1l-21.9 23.7c-4.1 4.5-3.6 11.2 1.1 15.1l72.5 60.7c4.8 3.9 11.9 3.5 16-1l128.6-160.6c3.7-4.8 2.8-11.5-2.2-15.1z" /></svg>