<svg height="512" width="512.0" xmlns="http://www.w3.org/2000/svg"><path d="m255.7 75.6c-57.7 0-104.4 46.1-104.4 103.1 0 56.9 46.7 103 104.4 103s104.4-46.1 104.4-103c0-57-46.7-103.1-104.4-103.1z m61.3 63.3l-72 89.1c-2.3 2.5-6.4 2.7-9 0.6l-40.6-33.7c-2.6-2.2-2.9-5.9-0.6-8.4l12.2-13.2c2.3-2.4 6.3-2.7 9-0.5l20.1 16.6 53.8-70.2c2.2-2.7 6.1-3.2 8.9-1.2l16.9 12.5c2.8 2 3.4 5.7 1.3 8.4z m105.7 39.9c0-91.1-74.7-165-167-165-92.2 0-167 73.9-167 165 0 57.4 29.8 108 74.8 137.5l-53.8 181.9 146.1-87 146.2 87-53.9-182c45-29.5 74.6-80 74.6-137.4z m-167 131.5c-73.5 0-133.1-58.9-133.1-131.5 0-72.7 59.6-131.5 133.1-131.5 73.6 0 133.2 58.8 133.2 131.5 0 72.6-59.6 131.5-133.2 131.5z" /></svg>