<svg height="512" width="512.0" xmlns="http://www.w3.org/2000/svg"><path d="m195.7 191.8h7.6c4.2 0 7.6-3.4 7.6-7.5v-7.6c0-4.2-3.4-7.6-7.6-7.6h-7.6c-4.2 0-7.6 3.4-7.6 7.6v7.6c0 4.1 3.4 7.5 7.6 7.5z m-46.4 99.1v-7.6c0-4.2-3.4-7.6-7.6-7.6h-7.5c-4.2 0-7.6 3.4-7.6 7.6v7.6c0 4.2 3.4 7.6 7.6 7.6h7.5c4.2 0 7.6-3.4 7.6-7.6z m8.5 44.9h-7.6c-4.1 0-7.5 3.4-7.5 7.6v7.6c0 4.2 3.4 7.6 7.5 7.6h7.6c4.2 0 7.6-3.4 7.6-7.6v-7.6c0-4.2-3.4-7.6-7.6-7.6z m0-121.2h-7.6c-4.1 0-7.5 3.4-7.5 7.5v7.6c0 4.2 3.4 7.6 7.5 7.6h7.6c4.2 0 7.6-3.4 7.6-7.6v-7.6c0-4.1-3.4-7.5-7.6-7.5z m197.1 15.1c0 4.2 3.3 7.6 7.5 7.6h7.6c4.2 0 7.6-3.4 7.6-7.6v-7.6c0-4.1-3.4-7.5-7.6-7.5h-7.6c-4.2 0-7.5 3.4-7.5 7.5v7.6z m-37.9-37.9h7.5c4.2 0 7.6-3.4 7.6-7.5v-7.6c0-4.2-3.4-7.6-7.6-7.6h-7.5c-4.2 0-7.6 3.4-7.6 7.6v7.6c0 4.1 3.4 7.5 7.6 7.5z m-61.2-16h7.6c4.1 0 7.5-3.4 7.5-7.6v-7.6c0-4.2-3.4-7.6-7.5-7.6h-7.6c-4.2 0-7.6 3.4-7.6 7.6v7.6c0 4.2 3.4 7.6 7.6 7.6z m114.2 160h-7.6c-4.2 0-7.6 3.4-7.6 7.6v7.6c0 4.2 3.4 7.6 7.6 7.6h7.6c4.2 0 7.6-3.4 7.6-7.6v-7.6c0-4.2-3.4-7.6-7.6-7.6z m16.1-61.2h-7.6c-4.2 0-7.6 3.4-7.6 7.6v7.6c0 4.2 3.4 7.6 7.6 7.6h7.6c4.2 0 7.6-3.4 7.6-7.6v-7.6c0-4.2-3.4-7.6-7.6-7.6z m-182.8 106.7h-7.6c-4.2 0-7.6 3.4-7.6 7.6v7.5c0 4.2 3.4 7.6 7.6 7.6h7.6c4.2 0 7.6-3.4 7.6-7.6v-7.5c0-4.2-3.4-7.6-7.6-7.6z m63.8-295.2h4.1v-15.4h4.7c9.9 0 18-8 18-18v-2.2c0-9.9-8.1-17.9-18-17.9h-43.8c-9.9 0-13.7 8-13.7 17.9v2.2c0 10 3.8 18 13.7 18h9v15.4h4.5c-103.8 5.6-186.2 91.6-186.2 196.7 0 108.8 88.1 197 196.9 197s197-88.2 197-197c0-105.1-82.4-191.1-186.2-196.7z m-10.8 355.9c-87.9 0-159.1-71.3-159.1-159.2s71.2-159.1 159.1-159.1 159.1 71.3 159.1 159.1-71.3 159.2-159.1 159.2z m68.2-60.7h-7.5c-4.2 0-7.6 3.4-7.6 7.6v7.5c0 4.2 3.4 7.6 7.6 7.6h7.5c4.2 0 7.6-3.4 7.6-7.6v-7.5c0-4.2-3.4-7.6-7.6-7.6z m-53-98.5c0-1.9-0.4-3.7-1-5.3l86.4-91-90.5 85c-2.6-2.4-6.2-3.9-10.1-3.9-8.3 0-15.1 6.8-15.1 15.2 0 3 0.9 5.9 2.4 8.3l-32.7 37.1 37.4-32.6c2.3 1.5 5.1 2.3 8 2.3 8.4 0 15.2-6.8 15.2-15.1z m-7 114.6h-7.6c-4.2 0-7.6 3.4-7.6 7.5v7.6c0 4.2 3.4 7.6 7.6 7.6h7.6c4.1 0 7.5-3.4 7.5-7.6v-7.6c0-4.1-3.4-7.5-7.5-7.5z" /></svg>