<svg height="512" width="512.0" xmlns="http://www.w3.org/2000/svg"><path d="m256.3 31.2c118.3 0 214.3 96 214.3 214.3 0 118.3-96 214.3-214.3 214.3-118.3 0-214.2-96-214.2-214.3 0-118.3 95.9-214.3 214.2-214.3z m-26.9 263c0.1 0.2 0.2 0.4 0.4 0.5 1.1 1.2 2.5 1.9 3.8 2.8 1.9 1.5 3.7 3 6 3.9 1.4 0.6 3.1 0.7 4.7 1 1.8 0.5 3.6 1.3 5.6 1.3 0.1 0 0.1-0.1 0.2-0.1 0.6 0 1 0.3 1.6 0.3h109.1c16.8 0 30.5-13.3 30.5-29.6 0-16.4-13.7-29.6-30.5-29.6h-82.4v-110.4c0-16.9-12.8-30.6-28.5-30.6s-28.5 13.7-28.5 30.6v138.8c0 0 0 0.1 0 0.1 0 0.4-0.2 0.7-0.2 1.1 0 7.7 3.2 14.6 8.2 19.9z" /></svg>