<svg height="512" width="512.0" xmlns="http://www.w3.org/2000/svg"><path d="m167.4 308.8h-6.6c-3.6 0-6.6 2.9-6.6 6.6v6.6c0 3.6 3 6.6 6.6 6.6h6.6c3.6 0 6.6-3 6.6-6.6v-6.6c0-3.7-3-6.6-6.6-6.6z m177.8-85.6h6.5c3.7 0 6.6-2.9 6.6-6.6v-6.6c0-3.6-2.9-6.5-6.6-6.5h-6.5c-3.7 0-6.6 2.9-6.6 6.5v6.6c0 3.7 2.9 6.6 6.6 6.6z m-138.3 125.1h-6.6c-3.6 0-6.6 3-6.6 6.6v6.6c0 3.6 3 6.6 6.6 6.6h6.6c3.6 0 6.6-3 6.6-6.6v-6.6c0-3.6-3-6.6-6.6-6.6z m-46.9-79.5v-6.6c0-3.6-2.9-6.6-6.6-6.6h-6.6c-3.6 0-6.5 3-6.5 6.6v6.6c0 3.7 2.9 6.6 6.5 6.6h6.6c3.7 0 6.6-2.9 6.6-6.6z m-0.5-187.5l-17-17c-7.8-7.8-20.5-7.8-28.3 0l-66.2 66.2c-7.8 7.8-7.8 20.5 0 28.4l18.9 18.9c0.2 0.1 0.3 0.2 0.4 0.3 19-41.7 51.7-75.8 92.2-96.8z m94 88.4h6.6c3.6 0 6.5-2.9 6.5-6.5v-6.6c0-3.7-2.9-6.6-6.5-6.6h-6.6c-3.7 0-6.6 2.9-6.6 6.6v6.6c0 3.6 2.9 6.5 6.6 6.5z m52.2 14h6.5c3.7 0 6.6-2.9 6.6-6.6v-6.6c0-3.6-2.9-6.5-6.6-6.5h-6.5c-3.7 0-6.6 2.9-6.6 6.5v6.6c0 3.7 2.9 6.6 6.6 6.6z m-138.3 19.8h-6.6c-3.6 0-6.6 2.9-6.6 6.5v6.6c0 3.7 3 6.6 6.6 6.6h6.6c3.6 0 6.6-2.9 6.6-6.6v-6.6c0-3.6-3-6.5-6.6-6.5z m269.9 59.3c0-101.8-82.5-184.3-184.3-184.3-101.8 0-184.3 82.5-184.3 184.3 0 52.1 21.6 99.2 56.5 132.7l-22.2 22.2c-5.1 5.1-5.1 13.5 0 18.6l9.3 9.3c5.2 5.2 13.5 5.2 18.6 0l25.7-25.7c28.1 17.2 61.1 27.2 96.4 27.2 31.8 0 61.7-8.1 87.8-22.3l24.8 24.9c5.3 5.2 13.8 5.2 19 0l9.4-9.5c5.3-5.2 5.3-13.7 0-18.9l-19.7-19.8c38.6-33.8 63-83.4 63-138.7z m-184.4 138.2c-76.3 0-138.2-61.9-138.2-138.2s61.9-138.3 138.2-138.3 138.3 61.9 138.3 138.3-61.9 138.2-138.3 138.2z m6.2-38.7h-6.6c-3.6 0-6.6 2.9-6.6 6.6v6.5c0 3.7 3 6.6 6.6 6.6h6.6c3.6 0 6.6-2.9 6.6-6.6v-6.5c0-3.7-3-6.6-6.6-6.6z m106.6-105.7h-6.6c-3.6 0-6.6 3-6.6 6.6v6.6c0 3.6 3 6.6 6.6 6.6h6.6c3.7 0 6.6-3 6.6-6.6v-6.6c0-3.6-2.9-6.6-6.6-6.6z m98.6-126.1l-66.1-66.2c-7.9-7.8-20.6-7.8-28.4 0l-18.9 18.9c-0.1 0.1-0.2 0.2-0.3 0.3 39.7 21.7 71.5 56.2 89.6 98 1.9-0.9 3.7-2.2 5.2-3.7l18.9-18.9c7.8-7.9 7.8-20.6 0-28.4z m-186.9 122.3c-4-9.6-13.4-16.4-24.4-16.4-1.5 0-2.9 0.1-4.3 0.3l-38.7-53.8c2.1-1.1 3.5-3.3 3.5-5.8v-6.6c0-3.6-3-6.5-6.6-6.5h-6.6c-1.2 0-2.3 0.3-3.3 0.9l-6-8.3 4.2 9.8c-0.9 1.1-1.5 2.6-1.5 4.1v6.6c0 3.7 3 6.6 6.6 6.6h2.2l27.8 65.6c-2.3 3.9-3.7 8.5-3.7 13.4 0 14.6 11.8 26.4 26.4 26.4 8.4 0 15.9-4 20.7-10.2l67.5-13-63.8-13.1z m34.8 95.5h-6.5c-3.7 0-6.6 3-6.6 6.6v6.6c0 3.6 2.9 6.6 6.6 6.6h6.5c3.7 0 6.6-3 6.6-6.6v-6.6c0-3.6-2.9-6.6-6.6-6.6z m39.5-39.5h-6.5c-3.7 0-6.6 2.9-6.6 6.6v6.6c0 3.6 2.9 6.6 6.6 6.6h6.5c3.7 0 6.6-3 6.6-6.6v-6.6c0-3.7-2.9-6.6-6.6-6.6z" /></svg>