<svg height="512" width="512.0" xmlns="http://www.w3.org/2000/svg"><path d="m384.4 121h71.6l-103.3-103v70.9c0 17.7 14.2 32.1 31.7 32.1z m-22.6 23c-17.5 0-31.7-14.4-31.7-32.2l22.4-92.9-1-1h-263.1c-17.6 0-31.8 14.4-31.8 32.2v411.9c0 17.8 14.2 32.2 31.8 32.2h335.9c17.5 0 31.7-14.5 31.7-32.2v-338.3l-2.1-2.1-92.1 22.4z m-140 196l-12.1 11.9c-5.3 5.3-14.1 5.4-19.5 0.3l-60.4-57.2c-2.7-2.5-4-5.9-4-9.3 0-3.4 1.4-6.7 4.2-9.3l59.5-55.1c5.2-4.8 13.7-4.6 18.9 0.3l12 11.4c5.3 5 5.4 12.9 0.3 17.8l-34.6 36.2 35.4 34.4c5.4 5.1 5.5 13.4 0.3 18.6z m161.1-45.2l-60.3 57.2c-5.5 5.1-14.2 5-19.5-0.3l-12.1-11.9c-5.2-5.2-5.1-13.5 0.2-18.6l35.4-34.5-34.5-36.1c-5.2-4.9-5.1-12.9 0.2-17.9l12-11.3c5.3-5 13.7-5.1 18.9-0.3l59.6 55.1c2.7 2.6 4.1 5.9 4.2 9.3 0 3.3-1.3 6.7-4.1 9.3z" /></svg>