<svg height="512" width="512.0" xmlns="http://www.w3.org/2000/svg"><path d="m465.8 212.9h-41c-4.2-16.5-10.8-32.1-19.4-46.3l28.9-28.9c4.4-4.4 4.4-11.5 0-15.9l-45.1-45c-4.4-4.4-11.5-4.4-15.9 0l-29.2 29.2c-14.2-8.4-29.6-14.7-46-18.8v-40.6c0-6.3-5-11.3-11.2-11.3h-63.8c-6.2 0-11.2 5-11.2 11.3v41.3c-16 4.2-31.2 10.7-45 19l-28.9-28.8c-4.4-4.4-11.5-4.4-15.9 0l-45.1 45.1c-4.3 4.3-4.3 11.5 0 15.9l29.3 29.2c-8.1 13.8-14.4 28.7-18.5 44.6h-41c-6.2 0-11.2 5.1-11.2 11.3v63.7c0 6.2 5 11.2 11.2 11.2h41c4.1 15.9 10.4 30.9 18.5 44.7l-29.3 29.2c-4.4 4.4-4.4 11.5 0 15.9l45.1 45.1c4.4 4.4 11.5 4.4 15.9 0l28.9-28.9c13.8 8.4 29 14.8 45 19v41.4c0 6.2 5 11.3 11.2 11.3h63.8c6.2 0 11.2-5.1 11.2-11.3v-40.7c16.4-4 31.8-10.4 46-18.7l28.6 28.6c4.3 4.3 11.5 4.3 15.9 0l45-45.1c4.4-4.4 4.4-11.5 0-15.9l-28.2-28.2c8.6-14.3 15.2-29.8 19.4-46.4h41c6.2 0 11.3-5 11.3-11.2v-63.7c0-6.2-5.1-11.3-11.3-11.3z m-308.3 89.9c0 0.1 0 0.2 0 0.3h-24.3c-6.6 0-5.4-11.9-5.4-20 0-15.4 24.3-18.6 46.1-24.7 13.1-3.7 15.9-11.1 15.9-18.7 0-7.6-4.5-10-8.1-14.6-3.6-4.6-3.6-22.8-3.6-22.8 0-24.7 6.9-36.6 27-36.6 9.4 0 16 2.7 20.2 8.1-13.4 12.1-13.4 33-13.4 41.7 0 10.7 1 24.8 6.2 31.4 1.2 1.7 2.5 3 3.6 4.2 2.7 2.9 2.8 3.1 2.8 4.8 0 3.7 0 6.9-8.8 9.4-3.7 1-7.6 2-11.4 3-10.7 2.7-20.7 5.2-28.9 9.3-14.8 7.5-17.9 17.8-17.9 25.2z m177 22.3h-155.5c-7.1 0-5.8-12.9-5.8-21.7 0-16.7 26.2-20.1 49.9-26.8 14.2-4 17.2-12 17.2-20.2 0-8.3-4.9-10.8-8.8-15.9-3.9-5-3.9-24.6-3.9-24.6 0-26.8 7.5-39.7 29.2-39.7 21.7 0 29.1 12.9 29.1 39.7 0 0 0 19.6-3.9 24.6-3.9 5.1-8.7 7.6-8.7 15.9 0 8.2 3 16.2 17.2 20.2 23.6 6.7 49.8 10.1 49.8 26.8 0 8.8 1.3 21.7-5.8 21.7z m45.9-21.4h-24.3v-0.3c0-7.4-3.1-17.8-17.9-25.3-8.2-4.1-18.3-6.6-28.9-9.3-3.8-1-7.7-2-11.4-3.1-8.8-2.4-8.8-5.6-8.8-9.3 0-1.8 0.1-2 2.8-4.9 1.1-1.2 2.3-2.5 3.6-4.2 5.1-6.6 6.2-20.7 6.2-31.4 0-8.7 0-29.8-13.4-41.9 4.2-5.4 10.8-8.1 20.2-8.1 20.1 0 27 12 27 36.7 0 0 0 18.2-3.6 22.9-3.6 4.6-8.1 6.9-8.1 14.6 0 7.7 2.8 15 15.9 18.7 21.8 6.2 46.1 9.3 46.1 24.8 0 8.1 1.2 20.1-5.4 20.1z" /></svg>