<svg height="512" width="512.0" xmlns="http://www.w3.org/2000/svg"><path d="m448.5 315.4c-20-11.5-45.3-5.6-58.1 13.2l-36.8-21.7c8-15.2 12.5-32.5 12.5-50.9 0-18.2-4.5-35.4-12.4-50.5l37.7-22.4c13.1 17.6 37.6 23 57.1 11.7 21-12.1 28.2-38.9 16.1-59.9-12.1-21-39-28.2-60-16.1-18.1 10.5-25.9 32-19.9 51.2l-38.6 22.9c-18.5-26.3-48.4-44.1-82.5-46.4v-44.7c20.8-3.5 36.6-21.5 36.6-43.3 0-24.2-19.6-43.9-43.9-43.9-24.2 0-43.9 19.7-43.9 43.9 0 21.8 15.9 39.8 36.6 43.3v44.7c-34.8 2.3-65.1 20.8-83.6 48l-38.2-22.4c7.4-19.7-0.3-42.4-19.2-53.3-21-12.1-47.8-4.9-59.9 16.1-12.2 21-5 47.8 16 59.9 18.9 10.9 42.4 6.2 55.8-10l38.2 22.4c-7.4 14.7-11.5 31.3-11.5 48.8 0 17.2 3.9 33.4 11 47.9l-37.5 21.7c-13.4-16.4-37.1-21.1-56-10.2-21 12.1-28.2 39-16 60 12.1 21 38.9 28.1 59.9 16 18.8-10.8 26.5-33.4 19.3-53l37.5-21.8c18.4 27.7 49 46.6 84.2 48.9v44.8c-20.7 3.4-36.6 21.5-36.6 43.2 0 24.3 19.7 43.9 43.9 43.9 24.3 0 43.9-19.6 43.9-43.9 0-21.7-15.8-39.8-36.6-43.2v-44.8c34-2.2 63.7-19.9 82.3-46.1l38.3 22.6c-5 18.8 2.8 39.3 20.4 49.4 21 12.1 47.9 5 60-16 12.1-21 4.9-47.9-16.1-60z m-159.7-13.3h5.6c0 0-0.4 0.8-0.9 2.1 3.1 2.1 5.1 5.7 5.1 9.8 0 6.6-5.2 12-11.7 12-6.5 0-11.7-5.4-11.7-12 0-4.1 2-7.7 5.1-9.8-0.5-1.3-0.9-2.1-0.9-2.1h-43.8c0 0-0.4 0.8-0.9 2.1 3.1 2.1 5.1 5.7 5.1 9.8 0 6.6-5.2 12-11.7 12-6.5 0-11.7-5.4-11.7-12 0-4.1 2-7.7 5.1-9.8-0.5-1.3-0.8-2.1-0.9-2.1h-1.3c-3.1 0-5.4-2.6-5.4-5.7 0-3.2 2.3-5.6 5.4-5.6h68.9c4.4 0 6.3-2.6 6.3-7.3 0-4-2-3.3-6.3-3.3h-63.4c-2.6 0-4.9-1.8-5.5-4.3l-14.8-53-6.9-6.8h-1.4c-3.1 0-5.7-2.4-5.7-5.6s2.6-5.7 5.7-5.7h3.8c1.5 0 3 0.6 4 1.7l9.6 9.6c0.7 0.7 1.3 1.6 1.5 2.7l14.2 50.1h59.1c10.6 0 17.3 4.1 17.3 14.6 0 11-8.7 18.5-16.9 18.6z m32.7-78l-23.4 35c-1.6 2.4-5 4-7.6 4 0 0-42.7 0-46 0-2.7 0-5.3-2.9-6.3-6.4 0 0-6-17.8-9.1-30.5-1.5-6 1.9-7.7 5.6-7.7 3.8 0 83.4 0 83.4 0 3.2-0.1 5.2 2.2 3.4 5.6z" /></svg>