<svg height="512" width="512.0" xmlns="http://www.w3.org/2000/svg"><path d="m454.2 172.3h-7.6v266.2c0 11.6-4.2 21.1 4.9 22.6-10.5-1.4-20.1-11-20.1-22.6v-365c0-12.6-10.2-22.8-22.8-22.8h-350.1c-12.7 0-22.9 10.2-22.9 22.8v365c0 12.6 10.2 22.8 22.9 22.8h395.7c12.6 0 22.8-10.2 22.8-22.8v-243.4c0-12.6-10.2-22.8-22.8-22.8z m-85.5 206.6h-270.4c-13.1 0-8.7-3.5-8.7-7.7v-7.6c0-4.2-4.4-7.6 8.7-7.6h270.4c13.2 0 8.7 3.4 8.7 7.6v7.6c0 4.2 4.5 7.7-8.7 7.7z m0-38.1h-270.4c-13.1 0-8.7-3.4-8.7-7.6v-7.6c0-4.2-4.4-7.6 8.7-7.6h270.4c13.2 0 8.7 3.4 8.7 7.6v7.6c0 4.2 4.5 7.6-8.7 7.6z m0-38.1h-270.4c-13.1 0-8.7-3.4-8.7-7.6v-7.6c0-4.2-4.4-7.6 8.7-7.6h270.4c13.2 0 8.7 3.4 8.7 7.6v7.6c0 4.2 4.5 7.6-8.7 7.6z m0-38h-270.4c-13.1 0-8.7-3.4-8.7-7.6v-7.7c0-4.2-4.4-7.6 8.7-7.6h270.4c13.2 0 8.7 3.4 8.7 7.6v7.7c0 4.2 4.5 7.6-8.7 7.6z m0-38.1h-270.4c-13.1 0-8.7-3.4-8.7-7.6v-7.6c0-4.2-4.4-7.6 8.7-7.6h270.4c13.2 0 8.7 3.4 8.7 7.6v7.6c0 4.2 4.5 7.6-8.7 7.6z m0-38.1h-270.4c-13.1 0-8.7-3.4-8.7-7.6v-7.6c0-4.2-4.4-7.6 8.7-7.6h270.4c13.2 0 8.7 3.4 8.7 7.6v7.6c0 4.2 4.5 7.6-8.7 7.6z m0-38h-270.4c-13.1 0-8.7-3.4-8.7-7.6v-7.6c0-4.2-4.4-7.6 8.7-7.6h270.4c13.2 0 8.7 3.4 8.7 7.6v7.6c0 4.2 4.5 7.6-8.7 7.6z" /></svg>