<svg height="512" width="512.0" xmlns="http://www.w3.org/2000/svg"><path d="m216.7 332.5h21.5v21.5c0 5.9 4.8 10.7 10.7 10.7h14.4c5.9 0 10.7-4.8 10.7-10.7v-21.5h21.6c5.9 0 10.7-4.8 10.7-10.8v-14.3c0-6-4.8-10.8-10.7-10.8h-21.6v-21.5c0-5.9-4.8-10.8-10.7-10.8h-14.4c-5.9 0-10.7 4.9-10.7 10.8v21.5h-21.5c-6 0-10.8 4.8-10.8 10.8v14.3c0 6 4.8 10.8 10.8 10.8z m236.9-243.8h-395.2c-20.3 0-36.7 17-36.7 38v28.9h468.6v-28.9c0-21-16.4-38-36.7-38z m-431.7 297.6c0.1 20.4 16.5 37 36.7 37h395c20.3 0 36.7-16.6 36.7-37l0-180.6h-468.3l-0.1 180.6z m234.2-147.1c41.6 0 75.3 33.7 75.3 75.3 0 41.6-33.7 75.4-75.3 75.4-41.6 0-75.3-33.8-75.3-75.4 0-41.6 33.7-75.3 75.3-75.3z" /></svg>