<svg height="512" width="512.0" xmlns="http://www.w3.org/2000/svg"><path d="m325.7 162.2c0-15.3 9.4-30.5 30.4-30.5 18.9 0 27.9 17.2 27.9 36.8v7.4h91.4c0-66.8-30-98.8-99.8-105.2v-28.5h-48.4v28.5c-64.6 9.9-96.1 45.7-96.1 106.7 0 120.9 153.4 87.5 153.4 155.3 0 17.7-11.6 32-31.5 32-19.5 0-32.6-10.4-32.6-38.9v-9.3h-94.5v13.3c0 62.4 35.1 88.9 101.3 95.8v44.2h48.4v-44.2c71.4-6.9 109.7-38.8 109.7-105.2 0-126.8-159.6-88.5-159.6-158.2z m-153.3 48h-122.2c-12.6 0-22.9 10.2-22.9 22.9v38.2c0 12.6 10.3 22.9 22.9 22.9h122.2c12.7 0 22.9-10.3 22.9-22.9v-38.2c0-12.7-10.2-22.9-22.9-22.9z" /></svg>