<svg height="512" width="512.0" xmlns="http://www.w3.org/2000/svg"><path d="m397.6 296.2c-47.6 0-86.1 38.5-86.1 86s38.5 86 86.1 86 86.2-38.5 86.2-86-38.6-86-86.2-86z m-180.5 9.5c-45.4 0-82.2 36.7-82.2 82 0 45.3 36.8 82 82.2 82 45.4 0 82.2-36.7 82.2-82 0-45.3-36.8-82-82.2-82z m-52-21.7c0-37.9-30.8-68.6-68.7-68.6-38 0-68.7 30.7-68.7 68.6 0 37.9 30.7 68.6 68.7 68.6 37.9 0 68.7-30.7 68.7-68.6z m162-16.4c0-11.3-9.1-20.4-20.5-20.4-11.2 0-20.4 9.1-20.4 20.4 0 11.3 9.2 20.5 20.4 20.5 11.4 0 20.5-9.2 20.5-20.5z m-16.7-44.3c0 14.2 11.5 25.7 25.7 25.7 14.3 0 25.8-11.5 25.8-25.7 0-14.2-11.5-25.8-25.8-25.8-14.2 0-25.7 11.6-25.7 25.8z m-7.7-62.8c0 16.4 13.3 29.6 29.6 29.6 16.4 0 29.6-13.2 29.6-29.6 0-16.2-13.2-29.5-29.6-29.5-16.3 0-29.6 13.3-29.6 29.5z m-19.9-18c19.2 0 34.7-15.4 34.7-34.5 0-19.1-15.5-34.6-34.7-34.6-19.1 0-34.6 15.5-34.6 34.6 0 19.1 15.5 34.5 34.6 34.5z m-86.8-7.1c25.8 0 46.7-20.8 46.7-46.5 0-25.7-20.9-46.6-46.7-46.6-25.7 0-46.6 20.9-46.6 46.6 0 25.6 20.9 46.5 46.6 46.5z m-95.1 74.6c32.9 0 59.5-26.6 59.5-59.3 0-32.8-26.6-59.4-59.5-59.4-32.8 0-59.5 26.6-59.5 59.4 0 32.7 26.7 59.3 59.5 59.3z" /></svg>