<svg height="512" width="512.0" xmlns="http://www.w3.org/2000/svg"><path d="m473.7 81.2h-323.6c-14.5 0-26.3 7.4-26.3 21.9h328c14.5 0 26.3 11.7 26.3 26.3v214.3c14.5 0 21.9-11.7 21.9-26.2v-210.1c0-14.5-11.8-26.2-26.3-26.2z m-88.3 87.1h-346.4c-14.5 0-26.3 11.8-26.3 26.3v210c0 14.5 11.8 26.3 26.3 26.3h346.4c14.5 0 26.3-11.8 26.3-26.3v-210c0-14.5-11.8-26.3-26.3-26.3z m-328.1 43.6h88.5v109.7h-88.5v-109.7z m309.7 175.8h-309.7v-21.9h309.7v21.9z m0-66.2h-177.2v-21.9h177.2v21.9z m0-43.8h-177.2v-21.9h177.2v21.9z m0-43.8h-177.2v-21.9h177.2v21.9z m62.4-109h-323.6c-14.5 0-26.3 7.5-26.3 22h328c14.5 0 26.3 11.7 26.3 26.2v214.4c14.5 0 21.9-11.7 21.9-26.2v-210.1c0-14.5-11.8-26.3-26.3-26.3z" /></svg>