<svg height="512" width="512.0" xmlns="http://www.w3.org/2000/svg"><path d="m136.6 365c-6.7 0-12.1-5.5-12.1-12.2v-219.1c0-6.7 5.4-12.2 12.1-12.2h181.2c6.7 0 12.1 5.5 12.1 12.2v103.8l48.3-85.1v-61.3c0-10.1-8.1-18.2-18.1-18.2h-265.8c-10 0-18.1 8.1-18.1 18.2v304.3c0 10.1 8.1 18.3 18.1 18.3h160.3l-0.1-43.4 0.1 0-0.1-0.1 2.9-5.2h-120.8z m12.1-52.8v8.1c0 4.5 2.7 8.2 6 8.2h123.5l13.8-24.4h-137.3c-3.3 0-6 3.7-6 8.1z m157-40.5v-8.2c0-4.4-2.7-8.1-6-8.1h-145c-3.3 0-6 3.7-6 8.1v8.2c0 4.4 2.7 8.1 6 8.1h145c3.3 0 6-3.7 6-8.1z m36.2-211v-6.1c0-10.1-8.1-18.2-18.1-18.2h-265.8c-10 0-18.1 8.1-18.1 18.2v304.3c0 10.1 8.1 18.2 18.1 18.2h6.1v-298.1c0-10.1 8.1-18.3 18.1-18.3h259.7z m-36.2 154.2c0-4.5-2.7-8.2-6-8.2h-145c-3.3 0-6 3.7-6 8.2v8.1c0 4.5 2.7 8.1 6 8.1h145c3.3 0 6-3.6 6-8.1v-8.1z m-31.7 155l0.1 0.1 0 0 0 30.6 45.8 26.3 29.6-13.2 0.1 0 87.2-151.6-75.6-43.7-87.2 151.5z m0.2 89.3l32.5-21.6-32.6-17.5 0.1 39.1z m31.5-293c0-4.5-2.7-8.1-6-8.1h-145c-3.3 0-6 3.6-6 8.1v8.1c0 4.5 2.7 8.1 6 8.1h145c3.3 0 6-3.6 6-8.1v-8.1z m155 22.7l-44.4-26.5c-8.1-4.8-18.6-2-23.3 6.5l-21.3 38.1 73.9 44.1 21.3-38.2c4.7-8.4 1.9-19.2-6.2-24z" /></svg>