<svg height="512" width="512.0" xmlns="http://www.w3.org/2000/svg"><path d="m461.1 211.9h-40.1c-4.1-17-10.6-33-19-47.7l28.3-29.6c4.3-4.5 4.3-11.9 0-16.4l-44.2-46.3c-4.3-4.5-11.2-4.5-15.5 0l-28.6 30c-13.9-8.5-29-15.1-45.1-19.2v-41.9c0-6.3-4.9-11.5-11-11.5h-62.4c-6.1 0-11 5.2-11 11.5v42.6c-15.7 4.3-30.5 11-44.1 19.5l-28.2-29.6c-4.3-4.5-11.3-4.5-15.6 0l-44.1 46.3c-4.3 4.5-4.3 11.8 0 16.3l28.6 30.1c-7.9 14.1-14.1 29.5-18 45.9h-40.2c-6.1 0-11 5.1-11 11.5v65.5c0 6.4 4.9 11.6 11 11.6h40.2c3.9 16.3 10.1 31.7 18 45.9l-28.6 30.1c-4.3 4.5-4.3 11.8 0 16.3l44.1 46.3c4.3 4.5 11.3 4.5 15.6 0l28.2-29.6c13.6 8.5 28.4 15.2 44.1 19.5v42.5c0 6.4 4.9 11.6 11 11.6h62.4c6.1 0 11-5.2 11-11.6v-41.8c16.1-4.2 31.2-10.7 45.1-19.2l27.9 29.3c4.3 4.5 11.3 4.5 15.6 0l44.1-46.3c4.3-4.5 4.3-11.9 0-16.4l-27.6-28.9c8.4-14.7 14.9-30.7 19-47.7h40.1c6.1 0 11-5.2 11-11.6v-65.5c0-6.4-4.9-11.5-11-11.5z m-205.1 175.1c-71.6 0-129.7-58.6-129.7-130.9 0-72.3 58.1-130.8 129.7-130.8s129.6 58.5 129.6 130.8c0 72.3-58 130.9-129.6 130.9z m38.1-96.2h-76.1c-1.7 0-3.2 2.1-3.2 4.7v4.6c0 2.6 1.5 4.6 3.2 4.6h76.1c1.7 0 3.1-2 3.1-4.6v-4.6c0-2.6-1.4-4.7-3.1-4.7z m0-27.7h-76.1c-1.7 0-3.2 2-3.2 4.6v4.6c0 2.6 1.5 4.6 3.2 4.6h76.1c1.7 0 3.1-2 3.1-4.6v-4.6c0-2.6-1.4-4.6-3.1-4.6z m31.7-104.3h-139.5c-5.2 0-9.5 4.7-9.5 10.5v173.7c0 5.7 4.3 10.4 9.5 10.4h139.5c5.2 0 9.5-4.7 9.5-10.4v-173.7c0-5.8-4.3-10.5-9.5-10.5z m-15.9 159.8c0 3.9-2.8 7-6.3 7h-95.1c-3.5 0-6.3-3.1-6.3-7v-125c0-3.9 2.8-7 6.3-7h95.1c3.5 0 6.3 3.1 6.3 7v125z m-15.8-111.1h-76.1c-1.7 0-3.2 2-3.2 4.6v4.6c0 2.6 1.5 4.7 3.2 4.7h76.1c1.7 0 3.1-2.1 3.1-4.7v-4.6c0-2.6-1.4-4.6-3.1-4.6z m0 27.8h-76.1c-1.7 0-3.2 2-3.2 4.6v4.6c0 2.6 1.5 4.7 3.2 4.7h76.1c1.7 0 3.1-2.1 3.1-4.7v-4.6c0-2.6-1.4-4.6-3.1-4.6z" /></svg>