<svg height="512" width="512.0" xmlns="http://www.w3.org/2000/svg"><path d="m228.8 14.9c-9.4 0-17.1 7.7-17.1 17.2 0 9.4 7.7 17.1 17.1 17.1 6.4 0 12-3.5 14.9-8.7 12.5 3 23.8 9.7 31.2 19 9.6 12 12.6 27.8 8.6 45.8-3.5 15.6-9.7 38.7-16.3 61.7-6.6 0.7-12.4 5.3-14.3 12.1-5.1 18.6-9.9 35.2-13.3 46.9-4.3 15.1-11.3 27.6-20.1 36.2-8.8 8.7-19.1 13-30.7 13h-3.4c-11.6 0-21.9-4.3-30.7-13-8.8-8.6-15.8-21.1-20.2-36.2-3.4-11.7-8.1-28.3-13.3-46.9-1.9-6.8-7.7-11.4-14.3-12.1-6.5-23-12.8-46.1-16.2-61.7-4-18-1-33.8 8.6-45.8 7.4-9.3 18.7-16 31.2-19 2.9 5.2 8.5 8.7 14.9 8.7 9.4 0 17.1-7.7 17.1-17.1 0-9.5-7.7-17.2-17.1-17.2-7.7 0-14.3 5.1-16.4 12.2-4.9 1-9.8 2.6-14.4 4.6-10.3 4.5-19.2 11.2-25.8 19.4-8.5 10.7-17.4 29.2-11.2 57.1 3.5 16 9.9 39.4 16.5 62.7-4.7 4.2-7 10.8-5.2 17.3 5.2 18.6 10 35.4 13.4 47.2 6 20.6 16 38.2 28.9 50.8 11.9 11.7 26.1 19 41.6 21.6v77.4c0 15.1 3 29.7 8.8 43.5 5.6 13.4 13.7 25.4 24 35.6 10.2 10.3 22.2 18.4 35.5 24 13.8 5.9 28.5 8.8 43.6 8.8h12.4c15.1 0 29.8-2.9 43.6-8.8 13.3-5.6 25.2-13.7 35.5-24 10.3-10.2 18.3-22.2 24-35.6 5.8-13.8 8.8-28.4 8.8-43.5v-120.3c16.5-6.7 28.2-22.9 28.2-41.8 0-24.8-20.2-45-45-45-24.8 0-44.9 20.2-44.9 45 0 18.9 11.6 35.1 28.1 41.8v120.3c0 20.9-8.1 40.6-22.9 55.4-14.8 14.8-34.5 23-55.4 23h-12.4c-21 0-40.6-8.2-55.4-23-14.8-14.8-23-34.5-23-55.4v-78.4c13.6-3.2 26-10.2 36.6-20.6 13-12.6 23-30.2 29-50.8 3.4-11.8 8.1-28.6 13.3-47.2 1.9-6.5-0.4-13.1-5.1-17.3 6.6-23.3 12.9-46.7 16.5-62.7 6.2-27.9-2.7-46.4-11.2-57.1-6.6-8.2-15.5-14.9-25.9-19.4-4.6-2-9.4-3.6-14.3-4.6-2.1-7.1-8.7-12.2-16.4-12.2z" /></svg>