<svg height="512" width="512.0" xmlns="http://www.w3.org/2000/svg"><path d="m355.4 353.5c-4.9-3.7-9.8-4.1-16.5 0 0 0-60.6 35.5-71.8 39.9-46.7 18.2-99.4 8.4-99.4-5.7 0-14 9.2-17.1 16.6-17.1 7.3 0 44.7 0 44.7 0 9.2 0 16.6-7.6 16.6-17.1 0-9.4-7.4-17.1-16.6-17.1h-55.8c-27.2 0-34.4 4.7-44.2 17.1 0 0-40.4 57.3-60.6 84.3-6.1 8.2-5 17.7 2.4 22.1 12.7 7.6 32 19.2 44.2 26.4 5.3 3 14.3 1.4 19.1-3.5 7.3-7.6 16.6-14.6 28.1-15.3l82.8-5.7c24.3-2.3 28.4-10.1 38.6-17.1l77.3-68.4c3.3-3 5.4-9.6 0-17.1l-5.5-5.7z m86.5-301.3c-12.7-7.7-32.1-19.2-44.2-26.4-5.3-3.1-14.3-1.4-19.1 3.5-7.4 7.5-16.6 14.5-28.1 15.3l-82.8 5.7c-24.3 2.3-28.4 10.1-38.7 17.1l-77.3 68.3c-3.2 3.1-5.4 9.6 0 17.1l5.5 5.7c4.9 3.8 9.9 4.1 16.6 0 0 0 60.6-35.5 71.8-39.9 46.6-18.1 99.4-8.3 99.4 5.7 0 14.1-9.2 17.1-16.6 17.1-7.4 0-44.7 0-44.7 0-9.2 0-16.6 7.7-16.6 17.1 0 9.5 7.4 17.1 16.6 17.1h55.7c27.3 0 34.5-4.6 44.2-17.1 0 0 40.5-57.2 60.7-84.3 6.1-8.1 4.9-17.6-2.4-22z m-137.6 222.6c0-20.6-48-82.7-48-82.7s-47.9 62.1-47.9 82.7c0 20.5 21.5 37.2 47.9 37.2s48-16.7 48-37.2z" /></svg>