<svg height="512" width="512.0" xmlns="http://www.w3.org/2000/svg"><path d="m433.6 149.9l-0.2 0.1-141.9 68.3c-11.2 6.5-20.2 21-20.2 32.4v204.9l0.2-0.4v0.3c0 11.3 9.1 15.3 20.3 8.8l141.8-68.4c11.2-6.5 20.3-21 20.3-32.3v-205c0-11.3-9.1-15.2-20.3-8.7z m-212.5 69.9l-142.1-69.1c-11.2-6.6-20.2-2.6-20.2 8.8v207.1c0 11.4 9 26 20.2 32.6l141.9 69c11.2 6.6 20.3 2.6 20.3-8.8v-0.3l0.2 0.4v-207c0-11.5-9.1-26.1-20.3-32.7z m105.8-108.3c0-39-31.6-70.5-70.6-70.5-38.9 0-70.5 31.5-70.5 70.5s31.6 70.6 70.5 70.6c39 0 70.6-31.6 70.6-70.6z" /></svg>