<svg height="512" width="512.0" xmlns="http://www.w3.org/2000/svg"><path d="m302.2 256.2c0-7.1-2.7-14.2-8.2-19.5l-120.8-119.5c-10.9-10.8-28.5-10.8-39.4 0l-24.9 24.5c-10.8 10.8-10.8 28.2 0 39l35.8 35.3-95.4 0c-13.8 0-24.9 11-24.9 24.6v31.1c0 13.6 11.1 24.7 24.9 24.7l95.4 0-35.8 35.3c-10.8 10.8-10.8 28.2 0 38.9l24.9 24.6c10.9 10.8 28.5 10.8 39.4 0l120.8-119.5c5.5-5.4 8.2-12.5 8.2-19.5z m160.6-178l-181.2 0c-13.7 0-24.9 11-24.9 24.6v39.4l85.2 84.2c8 8 12.4 18.5 12.4 29.8 0.1 11.2-4.4 21.8-12.4 29.8l-85.2 84.2v39.4c0 13.6 11.2 24.6 24.9 24.6l181.2 0c13.7 0 24.9-11 24.9-24.6v-306.8c0-13.6-11.2-24.6-24.9-24.6z m-22.5 202.5c-13.6 0-24.7-11-24.7-24.5 0-13.5 11.1-24.5 24.7-24.5 13.7 0 24.8 11 24.8 24.5 0 13.5-11.1 24.5-24.8 24.5z" /></svg>