<svg height="512" width="512.0" xmlns="http://www.w3.org/2000/svg"><path d="m418.9 40c-14.1 5.4-31.2 12.9-50.2 23.3-3.1 5.5-5.3 10-6.2 13-3.9 12.7-23.3 36-20.4 13.6 0.4-3 0.9-7.1 1.6-11.6-9.1 5.9-18.5 12.4-28 19.7-2.2-0.8-4.7-1.3-7.2-1.3h-224.3c-11.3 0-20.4 9.1-20.4 20.4v305.9c0 11.2 9.1 20.3 20.4 20.3h137.5c-3.3 27 4 41.2 9.9 26.9 5-12.1 2.2-6.5 10.4-26.9h66.5c11.3 0 20.4-9.1 20.4-20.3v-62c13.3-5.5 28.8-15.3 47-35 10.4-11.3 19-23.3 26.2-35.7-21.7 6.4-44.8 13.2-56.5 16.5-24.9 7.2-1.8-18.8 11.9-25.3 13.5-6.5 51.4-40.7 74.7-72.9 3.7-18.2 6-35.8 7.8-52.1-12.5 5.7-23.8 10.8-30.7 13.9-23.7 10.6-4.4-18.4 8.2-26.8 5.7-3.8 15.7-14.2 26.7-27.7 0.2-1.8 0.4-3.7 0.6-5.4 9.9-73.9-0.9-80.1-25.9-70.5z m-110.4 376.2c0 3.7-3.1 6.8-6.8 6.8h-51.3c1.9-4.7 4-9.9 6.5-15.9 14.5-34.9 30-35.3 51.6-40v49.1z m68.9-294.7c-10.6 12.9-60.2 75.4-94.8 145-29.9 60-49 116.4-57.3 156.5h-134.3c-3.8 0-6.8-3.1-6.8-6.8v-292.3c0-3.8 3-6.8 6.8-6.8h201.7c-4.3 3.8-8.6 7.7-12.9 11.9-12.1 26-19.7 53.9-23.1 67.1-3.3 12.8-13.3 40.7-16.2 18.4-1.1-8-2.8-21.9-4.7-36.7-69.1 89.8-38.3 137.6-24.5 164.1 16.9 28 24.1-30.9 49.8-76.7 34.8-61.7 64.7-101.6 96.6-138.4 19.4-22.4 30.3-18.2 19.7-5.3z" /></svg>