<svg height="512" width="512.0" xmlns="http://www.w3.org/2000/svg"><path d="m306.8 284.7c14.1-6.8 53.9-42.6 78.2-76.5 4-19 6.4-37.4 8.2-54.4-13.1 5.9-24.9 11.3-32.2 14.5-24.8 11.1-4.6-19.2 8.6-28 6-4 16.5-14.8 27.9-29 0.3-1.9 0.5-3.9 0.7-5.8 10.4-77.3-1-83.9-27.1-73.8-14.7 5.7-32.6 13.4-52.4 24.2-3.4 5.8-5.7 10.6-6.7 13.9-4.1 13.2-24.4 37.6-21.4 14.2 0.4-3.3 1-7.5 1.7-12.4-21.3 13.8-44 31.2-67.1 53.4-12.6 27.2-20.5 56.4-24.1 70.2-3.5 13.4-13.8 42.7-16.9 19.3-1.2-8.3-3-23-4.9-38.5-72.6 94.1-40.2 144.3-25.7 172 17.7 29.4 25.2-32.4 52.2-80.3 36.4-64.7 67.7-106.5 101.2-145.1 20.3-23.4 31.7-19 20.6-5.5-11.1 13.5-63.1 79-99.3 151.9-36.3 73-57.5 140.9-63.4 182.8-4.3 29.9 3.5 46 9.9 30.6 7.3-17.5-0.9 0.3 26.6-66.1 27.5-66.3 58.5-13.5 124.6-85 11-11.8 20.1-24.4 27.7-37.5-22.8 6.8-47.1 14-59.4 17.5-26.1 7.4-1.9-19.7 12.5-26.6z" /></svg>