<svg height="512" width="512.0" xmlns="http://www.w3.org/2000/svg"><path d="m402.1 213.1c0.1-0.5 0.1-1 0.1-1.5v-6.4c0-7-5.7-12.7-12.7-12.7h-50.9c-7 0-12.7 5.7-12.7 12.7v5.8c-8.3 2.7-16.1 6.4-23.5 11-6.7 3.4-13.8 6.1-20.9 7.9v-5.6c0-7-5.7-12.7-12.8-12.7h-0.1c-5.8-14.5-3.5-22.1 9.3-31.9 19.5-15 24.7-34 15.3-56.6-6.6-16.1-3.5-22.3 8.6-31.5 9.7-7.5 18-17.2 20.5-26.2h-19.1c-1.4 5.1-7.2 6.3-13.5 11.1-19.8 15.2-24.1 30.7-14.6 53.6 6 14.6 3.2 24.9-9.4 34.6-17.3 13.3-23 28-17.6 46.9h-4.8c-7 0-12.7 5.7-12.7 12.7v4.9c-7.4-1.9-14.9-4.6-22.5-8.1-5-3-10.2-5.7-15.7-7.9 0-0.5 0.1-1 0.1-1.6v-6.4c0-7-5.7-12.7-12.7-12.7h-50.9c-7 0-12.7 5.7-12.7 12.7v5.8c-44.3 14.6-76.2 56.3-76.2 105.5 0 60.3 48.1 109.3 108 111v0.2c0.1-0.1 0.3-0.1 0.4-0.2 0.9 0 1.8 0.2 2.8 0.2 20.8 0 40.3-5.9 56.9-15.9 33.3-11.2 65.9-11.2 94.3-0.9 16 9.9 34.6 15.9 54.5 16.6 0.2 0 0.3 0.1 0.5 0.2 0.4 0 0.9-0.1 1.4-0.1 0.7 0 1.4 0.1 2.1 0.1 61.4 0 111.2-49.8 111.2-111.3 0-46.8-29-86.9-70-103.3z m-212.8 119.2h-22.2v22.3c0 8.8-7.1 15.9-15.9 15.9-8.8 0-15.9-7.1-15.9-15.9v-22.3h-22.3c-8.7 0-15.8-7.1-15.8-15.9 0-8.7 7.1-15.8 15.8-15.8h22.3v-22.3c0-8.8 7.1-15.9 15.9-15.9 8.8 0 15.9 7.1 15.9 15.9v22.3h22.2c8.8 0 15.9 7.1 15.9 15.8 0 8.8-7.1 15.9-15.9 15.9z m123.9 6.4c-10.5 0-19-8.5-19-19.1s8.5-19 19-19c10.6 0 19.1 8.5 19.1 19 0 10.6-8.5 19.1-19.1 19.1z m50.9 50.8c-10.6 0-19.1-8.5-19.1-19 0-10.6 8.5-19.1 19.1-19.1 10.5 0 19 8.5 19 19.1 0 10.5-8.5 19-19 19z m0-101.6c-10.6 0-19.1-8.6-19.1-19.1 0-10.5 8.5-19.1 19.1-19.1 10.5 0 19 8.6 19 19.1 0 10.5-8.5 19.1-19 19.1z m50.8 50.8c-10.5 0-19.1-8.5-19.1-19.1s8.6-19 19.1-19c10.5 0 19.1 8.5 19.1 19 0 10.6-8.6 19.1-19.1 19.1z" /></svg>