<svg height="512" width="512.0" xmlns="http://www.w3.org/2000/svg"><path d="m408.5 21.3h-304.3c-24.7 0-44.8 20.1-44.8 44.8v379.8c0 24.8 20.1 44.9 44.8 44.9h304.3c24.7 0 44.7-20.1 44.7-44.9v-379.8c0-24.7-20-44.8-44.7-44.8z m-215.1 373.6h-17.7v17.7c0 9.8-7.9 17.7-17.6 17.7-9.8 0-17.7-7.9-17.7-17.7v-17.7h-17.6c-9.8 0-17.7-7.9-17.7-17.7 0-9.8 7.9-17.7 17.7-17.7h17.6v-17.7c0-9.8 7.9-17.8 17.7-17.8 9.7 0 17.6 8 17.6 17.8v17.7h17.7c9.8 0 17.7 7.9 17.7 17.7 0 9.8-7.9 17.7-17.7 17.7z m108.4 35.4c-16.8 0-30.4-13.5-30.4-30.2 0-16.7 13.6-30.2 30.4-30.2 16.8 0 30.4 13.5 30.4 30.2 0 16.7-13.6 30.2-30.4 30.2z m75.6-60.9c-16.6 0-30.1-13.6-30.1-30.3 0-16.7 13.5-30.2 30.1-30.2s30.1 13.5 30.1 30.2c0 16.7-13.5 30.3-30.1 30.3z m30.4-132.7c0 14.9-12 26.9-26.8 26.9h-250.2c-14.8 0-26.9-12-26.9-26.9v-143.9c0-14.8 12.1-26.9 26.9-26.9h250.2c14.8 0 26.8 12.1 26.8 26.9v143.9z" /></svg>