<svg height="512" width="512.0" xmlns="http://www.w3.org/2000/svg"><path d="m51.9 437.2h407.6c4.1 0 7.4-3.3 7.4-7.4v-15.2c0-4.1-3.3-7.4-7.4-7.4h-407.6c-4.1 0-7.4 3.3-7.4 7.4v15.2c0 4.1 3.3 7.4 7.4 7.4z m14.9-273.5h377.9c4.1 0 7.4-3.3 7.4-7.4v-21.2c0-4-3.3-7.4-7.4-7.4h-377.9c-4.1 0-7.4 3.4-7.4 7.4v21.2c0 4.1 3.3 7.4 7.4 7.4z m422.4 288.1h-467c-4.1 0-7.4 3.3-7.4 7.3v15.3c0 4.1 3.3 7.4 7.4 7.4h467c4.1 0 7.4-3.3 7.4-7.4v-15.3c0-4-3.3-7.3-7.4-7.3z m-378.4-271.9c-7.9 0-14.3 6.4-14.3 14.3v182.3c0 7.9 6.4 14.3 14.3 14.3h30c7.9 0 14.3-6.4 14.3-14.3v-182.3c0-7.9-6.4-14.3-14.3-14.3h-30z m86.6 0c-7.9 0-14.3 6.4-14.3 14.3v182.3c0 7.9 6.4 14.3 14.3 14.3h30c7.9 0 14.3-6.4 14.3-14.3v-182.3c0-7.9-6.4-14.3-14.3-14.3h-30z m86.7 0c-8 0-14.4 6.4-14.4 14.3v182.3c0 7.9 6.4 14.3 14.4 14.3h29.9c7.9 0 14.3-6.4 14.3-14.3v-182.3c0-7.9-6.4-14.3-14.3-14.3h-29.9z m86.6 0c-7.9 0-14.3 6.4-14.3 14.3v182.3c0 7.9 6.4 14.3 14.3 14.3h29.9c7.9 0 14.4-6.4 14.4-14.3v-182.3c0-7.9-6.5-14.3-14.4-14.3h-29.9z m-282.9-68.2h335.8c8.5 0 19.4-15.2 0-26.8l-146.7-50.3c-8.2-3-14.6-4.3-21.1-4.3 0 0-0.1 0-0.1 0 0 0 0 0 0 0-6.5 0-13 1.3-21.1 4.3l-146.7 50.3c-19.5 11.6-8.6 26.8 0 26.8z" /></svg>