<svg height="512" width="512.0" xmlns="http://www.w3.org/2000/svg"><path d="m333.9 261.7c0 0-39.1 9.9-78.3 9.9s-78.3-9.9-78.3-9.9c-9.1 0-16.5 7.3-16.5 16.5l8.4 42.7c0 9.1 7.4 16.5 16.5 16.5 0 0 1 0.2 2.9 0.6l21.8 131.5c0 0 26.4-0.1 46.7-0.1 15.7 0 45.2 0.1 45.2 0.1l20.4-131.6c1.3-0.3 2.1-0.5 2.1-0.5 9.1 0 16.5-7.4 16.5-16.5l9.1-42.7c0-9.2-7.3-16.5-16.5-16.5z m1.7-69.5c0 0-37.7 9.3-75.7 9.3-38.8 0-85.3-9.3-85.3-9.3-16.8 0-30.5 12-30.5 27s13.7 27 30.5 27c0 0 46.5 8.3 85.3 8.3 38 0 75.7-8.3 75.7-8.3 16.9 0 30.5-12.1 30.5-27s-13.6-27-30.5-27z m-161-11.4c0 0 46.5 8.4 85.3 8.4 124.5 2.8 106.2-36.6 106.2-46.6 0-14.9-13.6-27-30.5-27 0 0-37.7 20.5-75.7 20.5-38.8 0-85.3-9.3-85.3-9.3-16.8 0-30.5 12.1-30.5 27 0 14.9 13.7 27 30.5 27z m0-66.2c0 0 46.5 7.8 85.3 8.4 63.3 0.9 68.3-18.6 68.3-18.6 24.7-57.1-64.4-80.6-99.7-81.1-9.1 0 10.2 22.1-14.3 52.6-27.6 34.4-59 23.4-39.6 38.7z" /></svg>