<svg height="512" width="512.0" xmlns="http://www.w3.org/2000/svg"><path d="m463.2 46.3h-413.7c-12.7 0-23 10.2-23 22.8v284.5c0 12.6 10.3 22.8 23 22.8h149.4v22.8l-34.5 22.7c-6.4 0-11.5 5.1-11.5 11.4 0 6.3 5.1 11.4 11.5 11.4h183.9c6.3 0 11.5-5.1 11.5-11.4 0-6.3-5.2-11.4-11.5-11.4l-23-22.7v-22.8h137.9c12.7 0 23-10.2 23-22.8v-284.5c0-12.6-10.3-22.8-23-22.8z m-206.9 307.3c-12.7 0-23-7.6-23-17 0-9.5 10.3-17.1 23-17.1 12.7 0 23 7.6 23 17.1 0 9.4-10.3 17-23 17z m195.4-68.3c0 6.3-5.1 11.4-11.5 11.4h-367.7c-6.4 0-11.5-5.1-11.5-11.4v-193.5c0-6.3 5.1-11.4 11.5-11.4h367.7c6.4 0 11.5 5.1 11.5 11.4v193.5z" /></svg>