<svg height="512" width="512.0" xmlns="http://www.w3.org/2000/svg"><path d="m53.3 341.9h340.6v-237.4h-340.6v237.4z m104.3-209.7c19.7 0 35.6 15.9 35.6 35.4 0 19.6-15.9 35.5-35.6 35.5-19.7 0-35.6-15.9-35.6-35.5 0-19.5 15.9-35.4 35.6-35.4z m-86.5 121.2c11.9-12 23.7-24.1 25.3-25.7 8.3-8.4 16.9-8.7 25.5 0 16.4 16.6 34 34.6 50.7 51.4 48.1-48.6 104-105.2 108.2-109.4 9.8-10 22.1-9.7 31.6 0 4.4 4.4 38.9 39.3 63.6 64.3v90.4h-304.9v-70.9z m402-116h-13.7v-14.4c0-10.2-8.5-18.6-19-18.6h-13.8v-14.4c0-10.2-8.5-18.5-19-18.5h-368c-10.6 0-19.1 8.3-19.1 18.5v266.4c0 10.2 8.5 18.5 19.1 18.5h13.7v14.5c0 10.2 8.5 18.5 19 18.5h13.7v14.5c0 10.2 8.5 18.5 19.1 18.5h368c10.5 0 19-8.3 19-18.5v-266.4c0-10.3-8.5-18.6-19-18.6z m-432.9 218.2v-264.8h366.8v264.8h-366.8z m32.7 32.9v-13.6h334.7c10.5 0 19-8.3 19-18.5v-232.6h13.1v264.7h-366.8z m399.6 33h-366.8v-13.6h334.7c10.5 0 19-8.3 19-18.5v-232.6h13.1v264.7z" /></svg>