<svg height="512" width="512.0" xmlns="http://www.w3.org/2000/svg"><path d="m238.4 326.6c6.1 8.4 26.6 7.3 32.8 0 7.7-9.2 68.8-78.4 72.4-84.4 6.5-11.2-0.6-26.9-13.8-26.9-1.8 0-18.5 0-18.5 0s0-129.9 0-139.4c0-9.6-12.1-19.3-19.9-19.3h-69.9c-9.9 0-20.6 12.7-20.6 19.9v138.8c0 0-15.5 0-18.2 0-12.6 0-22 14-13 26 6.1 8 63.5 78.3 68.7 85.3z m215.7-35.2h-84.1c-9.1 1.7-13.4 5.9-20.7 13.2-11.4 11.3-14.8 14.7-24.1 23.8-54.6 49.9-88.1 50.2-138.3 0-9.3-9.3-14.2-14-24.1-23.8-7.4-7.3-11.6-11.5-20.7-13.2h-84.1c-14.9 0-23 8.4-23 24.5 0 24 0 95.9 0 95.9 0 13.7 11.2 24.7 25.1 24.7h391.9c13.9 0 25.1-11 25.1-24.7 0 0 0-71.9 0-95.9 0-16.1-8.4-24.5-23-24.5z" /></svg>