<svg height="512" width="512.0" xmlns="http://www.w3.org/2000/svg"><path d="m479.5 192.5h-144.2v-86.5c0-8-6.4-14.5-14.4-14.5h-57.7v-57.6c0-4-3.2-7.3-7.2-7.3-3.9 0-11 19.3-50.4 21.7l43.2 14.4v28.8h-57.7c-7.9 0-14.4 6.5-14.4 14.5v86.5h-144.2c-7.9 0-14.4 6.4-14.4 14.4v245.1c0 8 6.5 14.5 14.4 14.5h151.4v-57.7h144.2v57.7h151.4c8 0 14.5-6.5 14.5-14.5v-245.1c0-8-6.5-14.4-14.5-14.4z m-346 245.1h-86.6v-28.8h86.6v28.8z m0-57.7h-86.6v-28.8h86.6v28.8z m0-57.6h-86.6v-28.9h86.6v28.9z m0-57.7h-86.6v-28.9h86.6v28.9z m108.1 115.3h-79.3v-28.8h79.3v28.8z m0-57.6h-79.3v-28.9h79.3v28.9z m0-57.7h-79.3v-28.9h79.3v28.9z m-21.6-115.4c0-19.9 16.1-36 36-36 19.9 0 36.1 16.1 36.1 36 0 19.9-16.2 36-36.1 36-19.9 0-36-16.1-36-36z m129.8 230.7h-79.3v-28.8h79.3v28.8z m0-57.6h-79.3v-28.9h79.3v28.9z m0-57.7h-79.3v-28.9h79.3v28.9z m115.3 173h-86.5v-28.8h86.5v28.8z m0-57.7h-86.5v-28.8h86.5v28.8z m0-57.6h-86.5v-28.9h86.5v28.9z m0-57.7h-86.5v-28.9h86.5v28.9z m-192-109.4h-16.1v-15.9c0-2.4-1.9-4.4-4.1-4.4s-4.1 2-4.1 4.4v19.9c0 0 0 0.1 0 0.1 0 0-0.1 0.1-0.1 0.1 0 1.1 0.5 2.1 1.2 2.9 0 0 0 0 0.1 0.1 0.1 0.1 0.3 0.2 0.5 0.3 0.3 0.3 0.6 0.5 0.9 0.6 0.2 0.1 0.4 0.1 0.7 0.2 0.2 0 0.5 0.1 0.8 0.1 0 0 0 0 0 0 0.1 0 0.2 0.1 0.2 0.1h20c2.5 0 4.5-1.9 4.5-4.3 0-2.3-2-4.2-4.5-4.2z" /></svg>