<svg height="512" width="512.0" xmlns="http://www.w3.org/2000/svg"><path d="m418.8 212.2h-36.8c2.7 10.6 4.3 21.7 4.3 33.1 0 73.2-58.2 132.5-130 132.5-71.7 0-129.9-59.3-129.9-132.5 0-11.4 1.5-22.5 4.2-33.1h-36.8v182.1c0 9.2 7.3 16.6 16.3 16.6h292.4c9 0 16.3-7.4 16.3-16.6v-182.1z m0-115.9c0-9.1-7.3-16.5-16.3-16.5h-48.7c-9 0-16.2 7.4-16.2 16.5v49.7c0 9.2 7.2 16.6 16.2 16.6h48.7c9 0 16.3-7.4 16.3-16.6v-49.7z m-162.5 66.3c-44.8 0-81.2 37-81.2 82.7 0 45.8 36.4 82.8 81.2 82.8 44.9 0 81.3-37 81.3-82.8 0-45.7-36.4-82.7-81.3-82.7z m162.5 298h-324.9c-27 0-48.8-22.3-48.8-49.7v-331.1c0-27.4 21.8-49.7 48.8-49.7h324.9c26.9 0 48.7 22.3 48.7 49.7v331.1c0 27.4-21.8 49.7-48.7 49.7z" /></svg>