<svg height="512" width="512.0" xmlns="http://www.w3.org/2000/svg"><path d="m145.4 464.1l-16.6-9.5c-46-26.2-61.5-84.5-34.7-130.3l63.1-107.8c26.8-45.8 85.8-61.7 131.8-35.5l16.6 9.4c2.9 1.7 5.3 3.7 7.9 5.6l-30.3 51.7c-3.1-3.9-6.7-7.5-11.2-10.1l-7.6-4.3c-20.9-11.9-48.1-4.1-60.7 17.5l-56.3 96.1c-12.6 21.5-5.9 48.6 15 60.5l7.6 4.3c20.9 11.9 48.1 4.1 60.7-17.4l14.2-24.4c24.7 4.7 50.1 1.2 72.3-9.7l-40 68.3c-26.8 45.8-85.8 61.7-131.8 35.6z m77.7-132.7l-16.7-9.5c-2.8-1.6-5.2-3.7-7.8-5.5l30.3-51.7c3.1 3.9 6.6 7.4 11.2 10.1l7.6 4.3c20.9 11.9 48 4 60.7-17.5l56.2-96.1c12.6-21.6 5.9-48.7-15-60.6l-7.5-4.3c-20.9-11.9-48.1-4-60.7 17.5l-14.3 24.4c-24.6-4.7-50-1.2-72.2 9.7l40-68.4c26.8-45.8 85.8-61.7 131.8-35.5l16.6 9.5c46 26.1 61.5 84.5 34.7 130.3l-63.1 107.8c-26.8 45.8-85.8 61.7-131.8 35.5z" /></svg>