<svg height="512" width="512.0" xmlns="http://www.w3.org/2000/svg"><path d="m349.3 24.4h-185.9c-20.6 0-37.4 16.7-37.4 37.3v388.7c0 20.6 16.8 37.3 37.4 37.3h185.9c20.6 0 37.3-16.7 37.3-37.3v-388.7c0-20.6-16.7-37.3-37.3-37.3z m-118.6 40.2c0-3.7 3-6.7 6.7-6.7h40.1c3.7 0 6.7 3 6.7 6.7v4.5c0 3.7-3 6.7-6.7 6.7h-40.1c-3.7 0-6.7-3-6.7-6.7v-4.5z m25.1 404.7c-12.3 0-22.3-10-22.3-22.2 0-12.3 10-22.2 22.3-22.2 12.2 0 22.2 9.9 22.2 22.2 0 12.2-10 22.2-22.2 22.2z m104.6-69.8h-208.7v-296.9h208.7v296.9z" /></svg>