<svg height="512" width="512.0" xmlns="http://www.w3.org/2000/svg"><path d="m286 152.5l-30-129.7-29.9 129.7c9.4-3.1 19.5-4.9 29.9-4.9s20.6 1.8 30 4.9z m46.1 33.1l31-49.6-49.6 31c7 5.3 13.3 11.6 18.6 18.6z m144.2 57.4l-129.7-29.9c3.1 9.4 4.8 19.4 4.8 29.9 0 10.5-1.7 20.5-4.8 29.9l129.7-29.9z m-277.7-76l-49.6-31 31 49.6c5.3-7 11.6-13.3 18.6-18.6z m-18.6 133.4l-31 49.6 49.6-31c-7-5.3-13.3-11.6-18.6-18.6z m-19.4-57.4c0-10.5 1.8-20.5 4.9-29.9l-129.7 29.9 129.7 29.9c-3.1-9.4-4.9-19.4-4.9-29.9z m152.9 76l49.6 31-31-49.6c-5.3 7-11.6 13.3-18.6 18.6z m-87.4 14.5l29.9 136.8 30-136.8c-9.4 3.1-19.5 4.8-30 4.8s-20.5-1.7-29.9-4.8z m29.9-149.2c-32.4 0-58.7 24.6-58.7 55s26.3 55 58.7 55 58.7-24.6 58.7-55-26.2-55-58.7-55z" /></svg>