<svg height="512" width="512.0" xmlns="http://www.w3.org/2000/svg"><path d="m174.7 257.6l-120.4-120.9c-12.6-12.7-23-8.4-23 9.5v222.7c0 18 10.4 22.3 23 9.6l120.4-120.9z m81.6 37.6l182.2-183c12.7-12.7 8.4-23-9.5-23h-345.5c-17.9 0-22.1 10.3-9.5 23l182.3 183z m202.1-158.7l-120.6 121.1 120.6 121c12.6 12.7 22.9 8.4 22.9-9.5v-223c0-18-10.3-22.3-22.9-9.6z m-142.6 143.2l-29.8 29.9c-24.8 24.9-33.9 25.6-59.5 0l-29.8-29.9-120 120.4c-12.6 12.7-8.3 23.1 9.6 23.1h340c17.8 0 22.1-10.4 9.5-23.1l-120-120.4z" /></svg>