<svg height="512" width="512.0" xmlns="http://www.w3.org/2000/svg"><path d="m407.1 482.2h-301.6c-13.9 0-25.1-11.2-25.1-25.1l33.5-318.4c0-13.8 11.3-25.1 25.1-25.1h41.8c8.1-50.3 38.9-83.8 75.7-83.8 36.2 0 67.2 34.2 75.1 83.8h42c13.9 0 25.2 11.3 25.2 25.1l33.5 318.4c0 13.9-11.3 25.1-25.2 25.1z m-242.8-326.6c0 9.2 7.5 16.8 16.7 16.8 9.3 0 16.8-7.6 16.8-16.8 0-9.3-7.5-16.8-16.8-16.8-9.2 0-16.7 7.5-16.7 16.8z m92.2-108.1c-32.1 0-51.3 29.4-56.7 66.1h112.9c-5-38.8-24.6-66.1-56.2-66.1z m75.3 91.3c-9.2 0-16.7 7.5-16.7 16.8 0 9.2 7.5 16.8 16.7 16.8 9.3 0 16.8-7.6 16.8-16.8 0-9.3-7.5-16.8-16.8-16.8z" /></svg>