<svg height="512" width="512.0" xmlns="http://www.w3.org/2000/svg"><path d="m451.7 74.5h-391.3c-18.6 0-33.7 15.1-33.7 33.8v276.5c0 18.7 15.1 33.8 33.7 33.8h391.3c18.6 0 33.7-15.1 33.7-33.8v-276.5c0-18.7-15.1-33.8-33.7-33.8z m-94.5 41.2c0-7.8 6.6-14.2 14.8-14.2h4.2c8.1 0 14.7 6.4 14.7 14.2v5.4c0 7.8-6.6 14.1-14.7 14.1h-4.2c-8.2 0-14.8-6.3-14.8-14.1v-5.4z m-60.7 0c0-7.8 6.6-14.2 14.8-14.2h4.1c8.2 0 14.8 6.4 14.8 14.2v5.4c0 7.8-6.6 14.1-14.8 14.1h-4.1c-8.2 0-14.8-6.3-14.8-14.1v-5.4z m-60.7 0c0-7.8 6.6-14.2 14.8-14.2h4.1c8.2 0 14.8 6.4 14.8 14.2v5.4c0 7.8-6.6 14.1-14.8 14.1h-4.1c-8.2 0-14.8-6.3-14.8-14.1v-5.4z m-60.7 0c0-7.8 6.6-14.2 14.8-14.2h4.1c8.2 0 14.8 6.4 14.8 14.2v5.4c0 7.8-6.6 14.1-14.8 14.1h-4.1c-8.2 0-14.8-6.3-14.8-14.1v-5.4z m-60.7 0c0-7.8 6.6-14.2 14.8-14.2h4.1c8.2 0 14.8 6.4 14.8 14.2v5.4c0 7.8-6.6 14.1-14.8 14.1h-4.1c-8.2 0-14.8-6.3-14.8-14.1v-5.4z m-60.7 0c0-7.8 6.6-14.2 14.7-14.2h4.2c8.2 0 14.8 6.4 14.8 14.2v5.4c0 7.8-6.6 14.1-14.8 14.1h-4.2c-8.1 0-14.7-6.3-14.7-14.1v-5.4z m33.7 261.7c0 7.8-6.6 14.2-14.8 14.2h-4.2c-8.1 0-14.7-6.4-14.7-14.2v-5.4c0-7.8 6.6-14.1 14.7-14.1h4.2c8.2 0 14.8 6.3 14.8 14.1v5.4z m60.7 0c0 7.8-6.6 14.2-14.8 14.2h-4.1c-8.2 0-14.8-6.4-14.8-14.2v-5.4c0-7.8 6.6-14.1 14.8-14.1h4.1c8.2 0 14.8 6.3 14.8 14.1v5.4z m60.7 0c0 7.8-6.6 14.2-14.8 14.2h-4.1c-8.2 0-14.8-6.4-14.8-14.2v-5.4c0-7.8 6.6-14.1 14.8-14.1h4.1c8.2 0 14.8 6.3 14.8 14.1v5.4z m-133.6-46.5c-8.2 0-14.8-6.4-14.8-14.2v-147.1c0-7.8 6.6-14.1 14.8-14.1h152.6c8.1 0 14.7 6.3 14.7 14.1v147.1c0 7.8-6.6 14.2-14.7 14.2h-152.6z m194.3 46.5c0 7.8-6.6 14.2-14.8 14.2h-4.1c-8.2 0-14.8-6.4-14.8-14.2v-5.4c0-7.8 6.6-14.1 14.8-14.1h4.1c8.2 0 14.8 6.3 14.8 14.1v5.4z m60.7 0c0 7.8-6.6 14.2-14.8 14.2h-4.1c-8.2 0-14.8-6.4-14.8-14.2v-5.4c0-7.8 6.6-14.1 14.8-14.1h4.1c8.2 0 14.8 6.3 14.8 14.1v5.4z m60.8 0c0 7.8-6.7 14.2-14.8 14.2h-4.2c-8.2 0-14.8-6.4-14.8-14.2v-5.4c0-7.8 6.6-14.1 14.8-14.1h4.2c8.1 0 14.8 6.3 14.8 14.1v5.4z m60.7 0c0 7.8-6.7 14.2-14.8 14.2h-4.2c-8.1 0-14.8-6.4-14.8-14.2v-5.4c0-7.8 6.7-14.1 14.8-14.1h4.2c8.1 0 14.8 6.3 14.8 14.1v5.4z m0-60.7c0 7.8-6.7 14.2-14.8 14.2h-152.6c-8.2 0-14.8-6.4-14.8-14.2v-147.1c0-7.8 6.6-14.1 14.8-14.1h152.6c8.1 0 14.8 6.3 14.8 14.1v147.1z m0-195.6c0 7.8-6.7 14.1-14.8 14.1h-4.2c-8.1 0-14.8-6.3-14.8-14.1v-5.4c0-7.8 6.7-14.2 14.8-14.2h4.2c8.1 0 14.8 6.4 14.8 14.2v5.4z" /></svg>