<svg height="512" width="512.0" xmlns="http://www.w3.org/2000/svg"><path d="m481.5 213c-3.8-24.8-26.9-41.8-51.7-38.1-23.2 3.6-39.5 24.1-38.4 47l-63.1 17.7c-11.3-23.4-33.9-40.3-60.7-43.7l0-55.3c20.3-4.5 35.5-22.7 35.5-44.4 0-25-20.3-45.4-45.4-45.4-25 0-45.3 20.4-45.3 45.4 0 20.6 13.7 38 32.4 43.6l0 56.6c-25.2 4.2-46.3 20.4-57.3 42.6l-66.6-18.5c2-21.6-11.8-42.1-33.5-47.9-24.2-6.5-49 7.8-55.5 32.1-6.5 24.2 7.9 49.1 32.1 55.6 19.2 5.1 38.8-2.9 49.4-18.6l67.2 18.7c-0.8 4.3-1.2 8.8-1.2 13.3 0 19.7 7.3 37.7 19.3 51.5l-37 48.1c-20.6-8.2-44.5-0.2-55.9 19.5-12.5 21.7-5.1 49.5 16.6 62 21.7 12.6 49.4 5.1 62-16.6 9.7-16.9 7.3-37.6-4.5-51.8l35.8-46.5c12.1 7.8 26.6 12.3 42.1 12.3 13.8 0 26.9-3.7 38.2-10l34.8 45.2c-11.2 14.2-13.2 34.2-3.7 50.8 12.5 21.7 40.3 29.1 62 16.6 21.7-12.5 29.1-40.3 16.6-62-11.6-20.1-36.3-28-57.1-19.1l-34.8-45.2c13.8-14.1 22.3-33.4 22.3-54.8 0-4.2-0.3-8.3-0.9-12.3l62.9-17.7c9.3 15 26.9 23.8 45.4 21 24.8-3.8 41.8-26.9 38-51.7z" /></svg>