<svg height="512" width="512.0" xmlns="http://www.w3.org/2000/svg"><path d="m421.6 436.7v-361.3c0-12.5-10.1-22.6-22.6-22.6h-346.2c-12.4 0-22.5 10.1-22.5 22.6v361.3c0 12.4 10.1 22.5 22.5 22.5h391.4c-11.3 0-22.6-10.1-22.6-22.5z m-353.7-210.8c0-4.1 3.4-7.5 7.5-7.5h75.3c4.1 0 7.5 3.4 7.5 7.5v120.4c0 4.2-3.4 7.6-7.5 7.6h-75.3c-4.1 0-7.5-3.4-7.5-7.6v-120.4z m203.2 158.1c0 4.1-3.4 7.5-7.5 7.5h-188.2c-4.1 0-7.5-3.4-7.5-7.5v-7.6c0-4.1 3.4-7.5 7.5-7.5h188.2c4.1 0 7.5 3.4 7.5 7.5v7.6z m0-37.7c0 4.2-3.4 7.6-7.5 7.6h-82.8c-4.2 0-7.6-3.4-7.6-7.6v-7.5c0-4.1 3.4-7.5 7.6-7.5h82.8c4.1 0 7.5 3.4 7.5 7.5v7.5z m0-37.6c0 4.2-3.4 7.5-7.5 7.5h-82.8c-4.2 0-7.6-3.3-7.6-7.5v-7.5c0-4.2 3.4-7.5 7.6-7.5h82.8c4.1 0 7.5 3.3 7.5 7.5v7.5z m0-37.6c0 4.1-3.4 7.5-7.5 7.5h-82.8c-4.2 0-7.6-3.4-7.6-7.5v-7.5c0-4.2 3.4-7.6 7.6-7.6h82.8c4.1 0 7.5 3.4 7.5 7.6v7.5z m0-37.6c0 4.1-3.4 7.5-7.5 7.5h-82.8c-4.2 0-7.6-3.4-7.6-7.5v-7.6c0-4.1 3.4-7.5 7.6-7.5h82.8c4.1 0 7.5 3.4 7.5 7.5v7.6z m0-45.2c0 4.2-3.4 7.5-7.5 7.5h-188.2c-4.1 0-7.5-3.3-7.5-7.5v-45.2c0-4.1 3.4-7.5 7.5-7.5h188.2c4.1 0 7.5 3.4 7.5 7.5v45.2z m112.9 195.7c0 4.1-3.4 7.5-7.6 7.5h-82.7c-4.2 0-7.6-3.4-7.6-7.5v-7.6c0-4.1 3.4-7.5 7.6-7.5h82.7c4.2 0 7.6 3.4 7.6 7.5v7.6z m0-37.7c0 4.2-3.4 7.6-7.6 7.6h-82.7c-4.2 0-7.6-3.4-7.6-7.6v-7.5c0-4.1 3.4-7.5 7.6-7.5h82.7c4.2 0 7.6 3.4 7.6 7.5v7.5z m0-37.6c0 4.2-3.4 7.5-7.6 7.5h-82.7c-4.2 0-7.6-3.3-7.6-7.5v-7.5c0-4.2 3.4-7.5 7.6-7.5h82.7c4.2 0 7.6 3.3 7.6 7.5v7.5z m0-37.6c0 4.1-3.4 7.5-7.6 7.5h-82.7c-4.2 0-7.6-3.4-7.6-7.5v-7.5c0-4.2 3.4-7.6 7.6-7.6h82.7c4.2 0 7.6 3.4 7.6 7.6v7.5z m0-37.6c0 4.1-3.4 7.5-7.6 7.5h-82.7c-4.2 0-7.6-3.4-7.6-7.5v-7.6c0-4.1 3.4-7.5 7.6-7.5h82.7c4.2 0 7.6 3.4 7.6 7.5v7.6z m0-45.2c0 4.2-3.4 7.5-7.6 7.5h-82.7c-4.2 0-7.6-3.3-7.6-7.5v-7.5c0-4.2 3.4-7.6 7.6-7.6h82.7c4.2 0 7.6 3.4 7.6 7.6v7.5z m0-37.6c0 4.1-3.4 7.5-7.6 7.5h-82.7c-4.2 0-7.6-3.4-7.6-7.5v-7.6c0-4.1 3.4-7.5 7.6-7.5h82.7c4.2 0 7.6 3.4 7.6 7.5v7.6z m75.2 82.8h-22.5v188.1c0 12.5 10.1 22.6 22.5 22.6 12.5 0 22.6-10.1 22.6-22.6v-165.6c0-12.4-10.1-22.5-22.6-22.5z" /></svg>