<svg height="512" width="512.0" xmlns="http://www.w3.org/2000/svg"><path d="m94.7 274.2l61 21.4c-0.7-2.5-1.3-5-1.8-7.7-10.7-60.1 29.4-117.6 89.5-128.3 60.1-10.7 117.5 29.4 128.2 89.6 0.2 1.4 0.3 2.9 0.5 4.4l44.4-36.8 64.2 22.6-16.9-95.4c-4.8-26.8-30.3-44.6-57-39.8l-64.2 11.4-2.6-14.6c-2.2-12.9-14.5-21.4-27.3-19.1l-30.8 5.4-2.7-15.3c-2.3-12.9-14.5-21.4-27.3-19.1l-59.1 10.5c-12.9 2.3-21.4 14.5-19.2 27.4l2.8 15.3-30.8 5.5c-12.8 2.3-21.4 14.6-19.1 27.4l2.6 14.6-64.1 11.4c-26.7 4.8-44.5 30.4-39.8 57.1l17 95.4 52.5-43.3z m226.5-16.1c-5.8-32.8-37.1-54.7-69.9-48.9-32.8 5.9-54.6 37.2-48.8 70 0.5 2.9 1.3 5.7 2.2 8.4l50.9-42.1 66.5 23.4c0-3.5-0.2-7.2-0.9-10.8z m107.1 60.2l-54.6 36.5c-13.6 45.6-55.8 78.8-105.8 78.8-48.1 0-88.9-30.8-104.1-73.7l-62.4-41.6-59.2 39.5v52.9c0 27.2 22 49.2 49.1 49.2h347.2c27.1 0 49.1-22 49.1-49.2v-52.9l-59.3-39.5z m-161.3 64.9c21.9 0 41-11.6 51.5-29.1l-53.6-35.8-50.6 33.8c10.3 18.6 30 31.1 52.7 31.1z" /></svg>