<svg height="512" width="512.0" xmlns="http://www.w3.org/2000/svg"><path d="m256 21.2c-124.4 0-225.2 100.8-225.2 225.2 0 124.4 100.8 225.2 225.2 225.2 124.4 0 225.3-100.8 225.3-225.2 0-124.4-100.8-225.2-225.3-225.2z m42.6 372.9c-2.1 4.8-5.1 9-8.9 12.7-3.9 3.6-8.3 6.4-13.3 8.2-5 1.8-10.3 2.7-15.9 2.7-5.5 0-10.8-0.9-15.8-2.7-5-1.8-9.5-4.6-13.3-8.2-3.8-3.7-6.8-7.9-8.9-12.7-2.1-4.8-3.2-10.1-3.2-15.8 0-5.5 1.1-10.7 3.2-15.6 2.1-5 5.1-9.3 8.9-12.9 3.8-3.7 8.3-6.6 13.3-8.8 5-2.2 10.3-3.3 15.8-3.3 5.6 0 10.9 1.1 15.9 3.3 5 2.2 9.4 5.1 13.3 8.8 3.8 3.6 6.8 7.9 8.9 12.9 2.1 4.9 3.2 10.1 3.2 15.6 0 5.7-1.1 11-3.2 15.8z m10-243.3c-1.1 6.8-2.4 13.8-4 21-1.6 7.1-3.2 14-4.7 20.5-1.6 6.5-2.9 12.1-3.8 16.8l-24.2 98.4h-24.6l-26.5-112.9c-2.2-9.6-4.5-19.2-6.7-28.9-2.2-9.6-3.3-19.4-3.3-29.4 0-18.6 4.5-32 13.5-40.1 9-8.1 21.1-12.1 36.2-12.1 15.5 0 27.7 4.2 36.5 12.6 8.9 8.4 13.3 20.7 13.3 36.8 0 4.7-0.6 10.5-1.7 17.3z" /></svg>