<svg height="512" width="512.0" xmlns="http://www.w3.org/2000/svg"><path d="m119.9 288.5h114.5v28.6h43.2v-28.6h121.7v28.5h43v-50l-164.7 0v-35.9h-43.2v35.9l-157.5-0.1v50.1h43v-28.5z m330.5 42.8h-66.3c-15.3 0-27.7 12.4-27.7 27.7v66.5c0 15.3 12.4 27.7 27.7 27.7h66.3c15.3 0 27.7-12.4 27.7-27.7v-66.5c0-15.3-12.4-27.7-27.7-27.7z m-157.5 0h-66.5c-15.4 0-27.8 12.4-27.8 27.7v66.5c0 15.3 12.4 27.7 27.8 27.7h66.5c15.3 0 27.7-12.4 27.7-27.7v-66.5c0-15.3-12.4-27.7-27.7-27.7z m-164.8 0.1h-66.5c-15.2 0-27.6 12.4-27.6 27.7v66.4c0 15.3 12.4 27.7 27.6 27.7h66.5c15.3 0 27.6-12.4 27.6-27.7v-66.4c0-15.3-12.3-27.7-27.6-27.7z m86.6-114.7h89.8c20.7 0 37.4-16 37.4-35.8v-85.9c0-19.8-16.7-35.8-37.4-35.8h-89.8c-20.7 0-37.4 16-37.4 35.8v85.9c0 19.8 16.7 35.8 37.4 35.8z" /></svg>