<svg height="512" width="512.0" xmlns="http://www.w3.org/2000/svg"><path d="m471.3 118.2c-7.7 18.6-16.6 25.7-24.4 41.2-0.3-21.1-20.1-19.7-30.7-45.2 8.7 65.4 21.1 72.7 21.8 104.5 23.9-36.5 37.2-56.8 33.3-100.5z m-374.3 87.6c-0.1-0.4-0.3-0.8-0.5-1.2 0.2 0.4 0.4 0.8 0.5 1.2z m318 0c0.2-0.4 0.4-0.8 0.5-1.2-0.2 0.4-0.3 0.8-0.5 1.2z m4.2 52.7c11.9-18.7-11.6-34.9-4.2-52.7-25.8 57.6-21.1 71.8-40.5 103.4 41.3-16.8 69.1-35 90.6-72.6-18.2 12.6-31.4 5.5-45.9 21.9z m-135.5 87c-9.5 0.2-18.2 3.3-26.7 8.8-8.8-6.2-17.9-9.7-27.8-9.9-67 1.5-108.4-3-158.8-36.9 51.3 76.8 90.6 67 155.9 48.2 8.2-1 15.5 0.9 22.5 4.8-17.1 14.5-34 38.4-55.4 67.1 27.9-23.3 45.6-48.3 63.4-61.6 17.4 13.7 34.7 38.4 61.9 61.6-20.7-28.4-37.1-52.1-53.6-66.8 6.7-3.5 13.7-5.2 21.5-4.2 66 18.5 105.7 28.3 157.5-47.5-51 33.4-92.7 37.8-160.4 36.4z m-187.9-231.3c-10.5 25.5-30.3 24.1-30.7 45.2-7.8-15.5-16.7-22.6-24.4-41.2-3.8 43.7 9.5 64 33.3 100.5 0.8-31.8 13.2-39.1 21.8-104.5z m41.8 195c-19.5-31.6-14.8-45.8-40.6-103.4 7.4 17.8-16 34-4.1 52.7-14.5-16.4-27.7-9.3-45.9-21.9 21.5 37.6 49.2 55.8 90.6 72.6z m118.4 7c69.2 0 125.4-56.1 125.4-125.3 0-69.3-56.2-125.4-125.4-125.4-69.2 0-125.4 56.1-125.4 125.4 0 69.2 56.2 125.3 125.4 125.3z m35.2-218.2c1.2 0.5 1.7-0.4 2.5-0.1 0.8 0.3 1.4 0 2.4-0.4 1-0.4 2.3-0.2 4.5 0 0 0 1.7 0.7 0.3 0.7-1.4 0-3 0.3-1.6 0.8 1.5 0.4-3 0.2-3.7 0-0.8-0.2-2 0.6-2.9 0.8-0.8 0.3-0.8-0.8-2.6-0.8s-0.1-1.4 1.1-1z m0 15.8c1.2-0.6 1.8-0.8 3-0.5 1.2 0.2 1.8 0 1.5-1.2-0.2-1.2-0.7-2.8 0.7-2.4 1.4 0.4 1.1 2 2 2.4 0.9 0.4 2.5 1.1 3.4 1.2 0.9 0.1 2.3 0.2 3.2-0.1 0.9-0.4 1.8 0 2.6 0.1 0.7 0.1 1.6 0 1.9-1.2 0.2-1.2 1.5-1.9 2.6-1.7 1.1 0.1 1.4-0.2 0.7-0.8-0.8-0.6-0.4-1.4 1.2-1.1 1.5 0.2 1.5 0 2.6-0.1 1.1-0.1 2.5-0.6-0.7-0.9-3.2-0.4-2.9 0.4-4.3 0-1.5-0.5-2.7-1.3-2.7-2.1 0-0.7-0.3-1.1 1-1.5 1.3-0.5 3.2-2.6-0.1-1.5-3.3 1.1-2.6 1.7-3.7 1.7-1.1 0-3.3 1.4-1.8 2.2 1.4 0.8 1.3 2 0.3 2.2s-1.1 1.6-0.3 1.8c0.7 0.1 1 0.4-0.5 0.8-1.4 0.5-3.2 0.6-4.4-1.4-1.2-2-2.4-2.7-4-2.2-1.5 0.4-3.5 0.5-3.9-0.7-0.3-1.3-1-2.8 1.8-3.3 2.8-0.4 5.3-2.3 7.2-3.1 1.9-0.8 6.4-0.8 7.4-1.1 1-0.4 1.8-0.5 2.4 0 0.7 0.4 4.6 1.5 5.5 2 0.8 0.4 7.4 4.7 14.3 11.7 7 7.1 15 15.3 19.9 24.7 5 9.4 9 16.3 7.9 16-1.1-0.3-6.4-3.5-3.1 1.1 3.3 4.6 3.7 5.1 4 4.3 0.2-0.8 1-0.1 1.2 1.3 0.2 1.5 2.9 8.8 3.2 11.7 0.3 2.9 1 4.1 0.5 4.6-0.4 0.4-3.7 2.1-5.3 2.7-1.5 0.5-4.2 0.5-5.5-2.2-1.3-2.7-5.6-9.3-7.2-11.3-1.5-2-2-4.6-3.6-6.3-1.7-1.6-5.1-4.1-5.9-6.5-0.8-2.3-2-4.9-1.8-8.4 0.3-3.4 1.6-5.7-1.7-5.4-3.3 0.3-7.8 0-9.3-1.4-1.6-1.3-4.4-4.4-3.1-4.8 1.3-0.4 3.7-1.7 0.4-1.8-3.3-0.1-4.5 0.7-3.9 1.5 0.5 0.7 1.5 2.4 1.9 2.8 0.5 0.3-0.1 1.6-0.6 1-0.6-0.7 0.4 1.5-0.7 1-1.1-0.6-1.5-2.3-2.6-3.3s-2.1-3.3-2.8-4.7c-0.7-1.3-2.2-2.1-5-3.7-2.7-1.5-5.9-3.1-5-1.1 1 2 2.3 3.1 3.8 3.9 1.6 0.8 2.2 1.4 3.2 1.6s1.5 0.8 1.8 1.3c0.3 0.6-0.9 0.4-1.5 0.2-0.5-0.3-0.1-0.2-0.1 0.6 0 0.8-0.2 1.4-0.7 1.9-0.6 0.6 0-1.1-1.7-2-1.7-0.9-3.1-3.1-5-4-1.9-0.9-2.3-3-4-3.4-1.6-0.3-2.1 0.8-3.3 0.9-1.2 0.1-3.3-1.1-4-0.5s0.3 1.8-0.4 2.3c-0.7 0.6-3.2 1.2-4.2 2-1 0.8-0.2 2.2 0.6 2 0.7-0.1 0.8 0.2-0.7 0.9-1.6 0.8-2.9 0.5-4.6 1.7-1.8 1.3-2.4 1.1-3 0.1-0.7-1-1.8-1.1-2.6-1.1-0.7 0-2.4-1.2-1.7-3 0.6-1.8 0.3-3.4 0.3-4 0-0.7 1.4-2.1 1.4-2.1 2 0 5.5 1.3 7 0.8 1.4-0.4 2.4-1.5 2.2-2.6-0.2-1-1.5-2.5-2.8-3-1.2-0.4-2.2-1.3-0.1-1.3 2.1 0 1.1-1 4-1.4 0 0 1.3-0.5 2.4-0.6 1.1-0.2 1.7-1.5 2.9-2.2z m15.9 22.4c0 0.7-0.7 0.6-1.5 0-0.8-0.5-1.6-1.6-1.6-1.6 0.7 0.1 2.1-0.6 2.7 0 0.5 0.5 0.4 1 0.4 1.6z m-28.9-28.7c0.1-0.8 1.5-0.7 2.5-1.2 0 0-0.8 1.6-0.1 1.6 0.7 0 1.7-0.2 2 0.3 0.3 0.6-0.9 1.4 0 1.5 0.8 0.1 2.2 2 2.2 2 0.4 1 0.2 1.1 0.8 1.5 0.5 0.3 1.7 0 1.3 0.5s-0.8 1.6-1.7 1.8c-0.8 0.2-2.5 0.5-3.7 0.5-1.1 0-1.9-0.4-0.6-0.9 1.4-0.6 0.1-0.7-1.1-0.6-1.2 0.1-0.4-0.6 0-1.3 0.5-0.8 1.2-0.6 1.7-1.5 0.4-0.9-2 0-2-0.7 0-0.6-0.1-1.3-0.8-1.3s-0.6-1.5-0.5-2.2z m-5 3.1c0 0 1.3 1 1.9 0.5 0.7-0.4 0.3-1.1 1.1-1.3s1.1-0.1 1.7 0.8c0.7 0.9-0.3 1-0.6 1.9-0.3 1-1.2 1.4-2.1 1.9-0.9 0.4-3.1-0.6-2.6-1 0.6-0.5 1.8-0.6 0.6-1.1-1.2-0.6-1.7-1.3 0-1.7z m-7 36.7c0.5-2.2 3.7-7.1 4.8-8 1.1-0.8 1.7-1.6 3.8-1.6 2.2 0 3.4-0.8 7.7-2.2 4.3-1.4 6.8-1.5 7.9-1.2 1.1 0.4 3.7-0.6 4.4-0.8 0.6-0.1 0.9 0.5 1.7 0.8 0.8 0.4 1 0.4 0.5 1.8-0.6 1.4-0.6 4.2 1.2 4.8 1.7 0.7 4.5 0.5 5.8 1.9 1.4 1.5 6.3 4.4 6.6 2.4 0.2-2-0.2-4.5 4.5-2.9 0 0 3.6 2.1 6.4 2.4 2.8 0.4 5.5-0.8 6.7-0.8 1.3 0 2 0.5 3 0.5 1 0 1.4 0.3 1.6 1.5 0.2 1.1 0.4 2.5 0.3 3.7s-0.4 1.4-1.2 0.1c-0.8-1.4-3.3-4.6-1.8-1.3 1.6 3.4 3.7 7.5 4.3 8.8s1.5 4.3 2.2 5c0.8 0.7 1.4 4.2 1.6 5.5 0.2 1.4 2.1 2.5 3.2 6.3 1.1 3.8 4.6 5.2 5.8 6.8 1.1 1.6 1.4 6.4 4.9 5.5 3.6-0.9 6.3-2.4 7.1-2.6 0.8-0.2 2-0.7 1.8 1.6-0.2 2.2-1.2 8.1-4.2 12.8-3 4.7-5.1 7.4-7.8 9.6-2.6 2.2-4.5 5.8-4.7 6.5-0.2 0.7-1 3.3-2 4.2-1 0.9-0.4 4.2-0.1 5.8 0.5 3.7 1.9 4.2 2.1 6 0.2 1.8-1.5 2.2-0.9 6.1 0.5 3.8-0.2 6.3-2.8 7.8-2.5 1.4-4.1 2.6-4.3 3.6-0.2 1.4-2 1.7-2.2 2.4-0.2 0.8 1.2 4.2 1.3 6.3 0.1 2.1-2.3 3.4-3.3 4.5-1 1.1-1.2 3.6-1.4 4.6-0.2 1-2.7 3-3 4.5-0.3 1.4-2.7 5.8-4.2 6.8-1.6 1-3.3 1.3-3.9 2.1-0.5 0.8-3.3-0.3-4.4 0.4s-3.2 1.3-4.4 1c-1.2-0.4-1.8-1-2.3-3.6-0.6-2.6-3.7-7.1-5-11.1-1.3-4 0.2-5.3-1.9-10.1-2.1-4.8-5.3-11-2.6-16.3 2.6-5.4 2.8-7.4 0.6-14.4-2.2-6.9-4.7-8.4-5.3-10.9-0.5-2.6-0.1-5.8 0.3-9 0.5-3.3-2.6-4.6-3.8-4.6-1.2 0-3.2-1.1-4-3-0.8-1.9-3.2-1-4.4-0.4-1.3 0.7-4.9 3.7-6.6 3.5-1.6-0.2-3.9-1.4-6.6-0.3-2.6 1.1-5.2 0-7.3-2.9-2.1-2.9-4.9-9-6.5-10.5-1.7-1.4-2-4.2-2.2-5.1-0.2-0.9 0.8-3.8 1.3-4.9 0.6-1.2 0.9-2.7 0.9-2.7-0.7-3.3-1.6-7.6-0.7-9.7 0.9-2 2.3-4.9 3.2-6.7 0.9-1.8 2.8-4 4.5-4.8 1.6-0.8 3.4-3.2 3.8-5.5z m-13.2-49.8c3.6-0.1 1.4 1 1.4 1h8.1c0 0-5.8 1.6-7.1 1.3-1.4-0.3 0.5 2.1 0 3.1-0.6 1-2 1.1-3.9 2.7-1.9 1.5-1 1.7-2.5 1.3-1.6-0.5-6.8 1.8-6.8 1.8-4.1 0.5-3.8 4.1-8.6 2.7-2.2-0.7-1.8-3.3-0.4-4.2 1.3-0.9-0.7-2.5-2-3.6-1.3-1-4.2-0.8-3.2-1.6 0 0 0-1.2 1.4-1.4 1.4-0.2 6.6-1.4 10.5-2.3 3.9-0.9 9.4-0.7 13.1-0.8z m-36.3 2.3c1.1 0.3 5.2 0.7 4-0.3-1.2-0.9-1.9-1.1 1.6-1.5 3.6-0.3 7.2-0.5 10.1-0.5s4 1.6-1.3 2.1c-5.3 0.6-5.4 1.6-7.1 2.1-1.7 0.6-3.3 0.3-5.3 0-2-0.2-1.7-0.7-1.1-0.9 0.5-0.1-4.4-1-4.4-1 1.5-0.5 2.4-0.2 3.5 0z m-50.7 125.5c-1.7-1.5-0.6-6.7 1.2-8.6 1.8-1.8 0.9-6.5 0-8.4-0.8-1.8-2-2.7-2.8-5.2-0.8-2.5-2.8-2.9-4.1-1.5-1.4 1.3-2.4 0.8-2.7-1.2-0.3-2-0.2-5.4-0.2-7s-1.8 1.3-1.6 0c0.1-1.4 1-4.4 1-5.6 0-1.2 0.3-2.5-0.9-3.7-1.1-1.2-2.9-3-3.1-4.9-0.2-1.8-1-2.8-2.2-2.5-1.1 0.4-1.3 0.9-1.1 0 0.1-0.8-0.7-2.5-1.2-3.3-0.5-0.9-0.5-3.1 1.8-11 2.4-7.9 11.6-25.8 11.6-25.8 6.7-11.6 19-23.4 22.3-25.9 0 0 1.8-1.7 3.1-1.5 1.3 0.2 2.5-0.7 3.1-1.9 0.7-1.1 3.7-1 5.2-0.5 1.5 0.5 4.2 0.9 4.2-0.3 0-1.2 3.1-0.3 4.8-0.8 1.6-0.5 2-2.1 2.8-3.4 0.8-1.3 6.8 0 8.6 1 1.8 1 5.8 0.5 5.6 1.7-0.1 1.2 4.7 2.2 4.4 3.2s-2.5 0.6-2.9 1.5c-0.3 0.8-0.1 2.8-2 3-1.8 0.2 2.9-2-2.9-1.7-5.8 0.4-5.7-0.8-2.9-1 2.9-0.1 3.2-0.8 2.4-2.5-0.9-1.7-3.5-0.2-4.8 0-1.4 0.2-3 1.5-4 3.1-1 1.5-5.2 0.8-7.2 0.1-1.9-0.7-3.8 1.5-8.4 3.5-4.7 2 0.7 2.7 2.6 3.7 2 1 1.4 2.9 2.4 3.5s2.5-0.3 2.9-2.6c0.5-2.4 2.2-0.2 3.7-2.1 1.5-1.8 1-2.6 2-3.3 1-0.7 2-1.2 3-0.4 1 0.9 4.3 1.9 7.3 1.2 3-0.6 3.6 2.2 6.1 3.9 2.5 1.7 1.8 1.5 1 2.8-0.8 1.4-3 1.7-8.1 1.7-5.2 0-5.7 3.2-3.7 2.4 2-0.9 3.7 0.8 7 2.8 3.3 2-0.5 1.9-1.8 2.6-1.4 0.6-4-0.2-4-1.2s-3 1.5-5 1.8c-2 0.4-3.8-1-4.1 1.4-0.4 2.3-1.5 1.6-4.5 2.8-3 1.2-1.5-1-3.8 2.9-2.3 3.8-2 0-2 0s-2.2 4-3.9 6c-1.7 2-8.4 4.2-9.7 6.6-1.3 2.3-1.2 6.5-3 8.9-1.8 2.3-2.2-1-1.8-2.7 0.3-1.7 1.5-3.4 1.3-5-0.2-1.7-3.3-1.1-5.1-1.1s-1.7 1.7-3.5 1.2c-1.8-0.5-2.2-1.2-5.5 1-3.3 2.2-6.3 8.3-8.3 12.3-2 4-1 6.7 1.2 7.1 2.1 0.3 3.5-3.4 4.5-5.8 0.9-2.3 5.9-0.8 4.4 1.6-1.5 2.3-3.3 5-4.6 6.7-1.3 1.7-0.7 3.8 2 4.5 2.6 0.7 0.5 4.9-1.2 7.4-1.6 2.5-1.3 7.4-1.3 9.4 0 2 1.2 1 3.5-0.3 2.3-1.4 1.6 3.5 2.1 5.7 0.5 2.2 2.2 3.3 2.2 3.3s1.5-2.3 2.5-3.5c1-1.2 2.5-1 4.4-2.5 2-1.5 0 3.4 1.4 4.7 1.3 1.3 1-3.2 0.6-3.9-0.3-0.6 1.7-0.5 3 0 1.3 0.5 5 1.5 7 0.9 2-0.7 4.5 1.3 6.6 2.5s5.8 4.7 9 4.4c3.1-0.4 5.3 2.3 6.9 3.7 1.7 1.3-0.3 6 0.9 7.7 1.1 1.7 3.3-1.2 4.9-2.7 1.7-1.5 3 2.7 4.4 2.5 1.3-0.1 4.9-0.3 6.9 0.5 2 0.9 6.3 2 6.5 4.2 0.2 2.2-0.7 5.1-2.7 7.4-2 2.4-0.3 6.1 0.7 9.1 1 3-1 6-2.2 8.1-1.1 2-4.6 4.2-5.8 6.2-1.1 2 0.7 4 0 6.7-0.6 2.7-1.3 7.5-2.4 8.6-1.2 1-8.8 1.1-5.2 1.8 3.7 0.7 3.3 3.7 2.7 5.4-0.7 1.7-3.5 0.5-4.5 2.3-1 1.9 1 3.6-1.5 3.4-2.5-0.2-1 2.9 0.7 2.5 1.7-0.3 2.8 0.4 1.4 0.2-1.4-0.2-0.9 1.7-0.8 3.2 0.2 1.5-1.1 2.7-1.1 2.7 2.4 2.8 2.4 3.5 0.5 3-2-0.5-6.3-3-10-5.9-3.6-2.8-3.1-2.3-3.1-4.5 0-2.2-2-3.6-2.7-7.3-0.7-3.6-2.7-6.5-2.8-8.7-0.2-2.2-0.2-5.7-1-9.7-0.8-4.1-3.2-9.3-5.5-10.3-2.3-1-7-2.8-11.1-7.7-4.1-4.9-7.8-7.9-8-9.4-0.1-1.5-0.3-3.7-2-5.2z m5.6-57.4c-1.2 0.1-1.3 0.4-2.6 0.5-1.2 0.1-1.2-0.9-1.2-0.9 1.2-1.1 4.1-3.9 7.1-0.8 3 3.1 3.4 5.8 4.3 6.2 0.9 0.3 0.2 2-0.6 2.4-0.9 0.5-3.1-0.2-3.5-0.8 0 0-1.4-0.9-1.4-3.2 0.1-2.4-0.9-3.5-2.1-3.4z m5.8 10.9c0.2-0.6 1.9-0.8 2.9-0.7 1 0.1 0.7-1.8 1-2.6 0 0-0.1-0.6 0.2-1.1 0.4-0.4 2.3 0.1 3.6 1.1 1.3 0.9 1.7 2 1.9 2.9 0.1 1-0.7 2.2-1.6 2-0.9-0.3-2.1 0.5-3.4 1-1.3 0.4-2.1-2-3-2.6-0.9-0.6-1.7 0.6-1.6 0z" /></svg>