<svg height="512" width="512.0" xmlns="http://www.w3.org/2000/svg"><path d="m345.3 256.2c0-49.1-39.9-88.9-89.1-88.9-49.2 0-89.1 39.8-89.1 88.9 0 49.2 39.9 89 89.1 89 49.2 0 89.1-39.8 89.1-89z m-118.8 172.6c109.4 0 170.6-79.4 170.6-162 0-48.2-34.9-84.8-66.8-98.7 25.6 18.8 52 44.7 52 98.7 0 85.8-70.2 133.8-155.8 133.8-74 0-137.2-61.8-137.2-162 0-105.4 89-183.2 174.3-183.2 85.3 0 155.7 49.3 155.7 49.3s-72.2-63.4-155.7-63.4c-138.3 0-215.1 85.8-215.1 197.3 0 114 75.9 190.2 178 190.2z m59.3-345.3c-109.4 0-170.5 79.4-170.5 162.1 0 48.2 34.9 84.8 66.7 98.7-25.5-18.8-51.9-44.7-51.9-98.7 0-85.8 70.1-133.9 155.7-133.9 74.1 0 137.2 61.8 137.2 162.1 0 105.4-88.9 183.2-174.2 183.2-85.4 0-155.8-49.3-155.8-49.3s72.3 63.4 155.8 63.4c138.2 0 215-85.9 215-197.3 0-114-75.8-190.3-178-190.3z" /></svg>