<svg height="512" width="512.0" xmlns="http://www.w3.org/2000/svg"><path d="m187 215.4c0-9-7.3-16.3-16.3-16.3h-89.5c-9 0-16.3 7.3-16.3 16.3 0 9 7.3 16.2 16.3 16.2h89.5c9 0 16.3-7.2 16.3-16.2z m130.2 0c0 9 7.3 16.2 16.3 16.2h89.5c9 0 16.3-7.2 16.3-16.2 0-9-7.3-16.3-16.3-16.3h-89.5c-9 0-16.3 7.3-16.3 16.3z m-48.8-81.4v-89.5c0-9-7.3-16.3-16.3-16.3s-16.3 7.3-16.3 16.3v89.5c0 9 7.3 16.3 16.3 16.3s16.3-7.3 16.3-16.3z m-90.1 132.2l-58.5 58.5c-6.4 6.4-6.4 16.7 0 23 6.3 6.4 16.6 6.4 23 0l58.5-58.5c6.4-6.4 6.4-16.7 0-23s-16.6-6.4-23 0z m147.6-101.6l58.6-58.6c6.3-6.3 6.3-16.6 0-23-6.4-6.3-16.7-6.3-23 0l-58.6 58.5c-6.3 6.4-6.3 16.7 0 23.1 6.4 6.3 16.7 6.3 23 0z m-148.1-0.5c6.5 6.4 16.9 6.4 23.3 0 6.4-6.4 6.4-16.9 0-23.3l-59.3-59.3c-6.4-6.4-16.8-6.4-23.3 0-6.4 6.4-6.4 16.9 0 23.3l59.3 59.3z m189.8 209.2l79.8-11.2-203.5-146.6 0.4 0.6 57.6 239.7 42.2-67c0 0 63.5 94.8 63.8 95.1s26.5-17.1 26.4-17.4c-0.3 0-66.7-93.2-66.7-93.2z" /></svg>