<svg height="512" width="512.0" xmlns="http://www.w3.org/2000/svg"><path d="m249.5 218.6h0c-75.6 0-144.1 91.8-149.1 176.3-1.8 112.3 73.4 67.8 149.1 67.3 75.7 0.5 150.9 45 149.1-67.3-5-84.5-73.5-176.3-149.1-176.3z m-44.8-47.9c28.9-6.6 45-45.3 35.8-86.5-9.2-41.2-40-69.2-69-62.7-28.9 6.6-45 45.3-35.8 86.5 9.1 41.2 40 69.2 69 62.7z m108.5 1.5c28.9 6.9 60-20.8 69.6-61.9 9.6-41.1-6.1-79.9-34.9-86.8-28.9-6.9-60.1 20.8-69.7 61.9-9.5 41.1 6.1 79.9 35 86.8z m158.1-15.3c-24.7-13.2-59.7 4.5-78.2 39.6-18.5 35.2-13.4 74.4 11.3 87.7 24.7 13.3 59.7-4.5 78.2-39.6 18.4-35.2 13.4-74.4-11.3-87.7z m-350.3 27c-13.2-38.1-45.6-61.3-72.4-51.8-26.8 9.5-37.9 48.1-24.6 86.2 13.2 38.2 45.6 61.4 72.4 51.9 26.8-9.5 37.9-48.1 24.6-86.3z" /></svg>