<svg height="512" width="512.0" xmlns="http://www.w3.org/2000/svg"><path d="m256.3 37.7c-120.6 0-218.3 97.7-218.3 218.3 0 120.6 97.7 218.4 218.3 218.4 120.6 0 218.4-97.8 218.4-218.4 0-120.6-97.8-218.3-218.4-218.3z m0 409.4c-105.5 0-191-85.5-191-191.1 0-105.5 85.5-191 191-191 105.6 0 191.1 85.5 191.1 191 0 105.5-85.5 191.1-191.1 191.1z m-1.6-263.4c4.4-2.5 5.9-8.3 3.2-12.9l-33.5-58.2c-2.7-4.6-8.4-6.2-12.9-3.7l-24.1 14 43.2 74.8 24.1-14z m2.9 125.8l-43.1-74.8c-6.7-11.5-3-26 8.1-32.4l-41.6-72.1c-29.4 29.3-36.3 76.5-13.9 115.2l57.6 99.7c22.3 38.7 66.7 56.4 106.6 45.6l-41.6-72.1c-11.1 6.4-25.4 2.3-32.1-9.1z m77.1-5.7c-2.6-4.6-8.4-6.3-12.8-3.7l-24.1 13.9 43.1 74.8 24.2-13.9c4.4-2.6 5.8-8.4 3.2-13l-33.6-58.1z" /></svg>