<svg height="512" width="512.0" xmlns="http://www.w3.org/2000/svg"><path d="m152.8 330.3c18.5-11.4 56-40.5 105.7-90.2 49.7-49.6 78.8-87.2 90.1-105.7l3.7-6.2c-26.2-25.3-61.9-40.9-101.1-40.9-80.5 0-145.6 65.2-145.6 145.6 0 39.3 15.6 75 40.9 101.1l6.3-3.7z m145.3-50.6c-26.1 26.1-61.2 59.3-97.1 89.9 15.7 5.7 32.5 8.9 50.2 8.9 80.4 0 145.5-65.2 145.5-145.6 0-17.6-3.1-34.4-8.7-50-26.3 30.8-56.9 63.8-89.9 96.8z m157.6-245.9c-10.6-10.5-54.7 15-113 62.3 10.2 6.9 19.4 14.7 27.3 23.4 8.6 8.6-35.5 66.8-98.6 129.9-63.1 63.1-121.3 107.2-129.9 98.6-8.9-8.2-16.8-17.3-23.5-27.2-47.3 58.3-72.8 102.3-62.2 112.9 16.9 16.9 120.2-58.9 230.6-169.3 110.4-110.4 186.2-213.6 169.3-230.6z" /></svg>