<svg height="512" width="512.0" xmlns="http://www.w3.org/2000/svg"><path d="m421.5 116.3h-40.7l-3.6-13.6c-6.2-23.1-30-36.8-53.1-30.6l-167.4 44.8c-23.2 6.2-36.9 29.9-30.7 53l55.1 205.1-88.3-207.2c-6.2-23.1 7.3-46.7 30.2-52.9l163.4-43.7-10.7-18.6c-11.9-20.7-38.2-27.9-58.7-16l-148.4 86c-20.5 11.9-27.5 38.4-15.6 59.1l129.4 225.1c2.8 4.8 6.4 8.9 10.5 12.2l0.5 1.7c3.3 12.4 11.7 22.1 22.3 27.5 0 0 0 0 0 0 7.9 8.8 19.4 14.4 32.3 14.4h173.5c23.9 0 43.3-19.4 43.3-43.3v-259.7c0-23.9-19.4-43.3-43.3-43.3z m-216.9 43.3v259.7l-36.1-252.5c0-23.9 19.4-43.3 43.3-43.3h12.2c-11.7 7.8-19.4 21-19.4 36.1z m71.7 12.6l-16.2 22.7c-0.7 1-1.9 1-2.7 0l-16.1-22.7c-0.8-1-0.8-2.7 0-3.7l16.1-22.6c0.8-1.1 2-1.1 2.7 0l16.2 22.6c0.7 1 0.7 2.7 0 3.7z m93 121l-35.4 45.1c-1.7 2.1-4.3 2.1-6 0l-35.4-45.1c-1.6-2.1-1.6-5.5 0-7.5l35.4-45.2c1.7-2.1 4.3-2.1 6 0l35.4 45.2c1.6 2 1.6 5.4 0 7.5z m58.7 124.3l-16.1 22.6c-0.8 1.1-2 1.1-2.7 0l-16.2-22.6c-0.7-1-0.7-2.7 0-3.8l16.2-22.6c0.7-1 1.9-1 2.7 0l16.1 22.6c0.8 1.1 0.8 2.8 0 3.8z" /></svg>