<svg height="512" width="512.0" xmlns="http://www.w3.org/2000/svg"><path d="m459.5 103.7h-406.3c-16 0-29 13-29 29v246.7c0 16 13 29 29 29h406.3c16 0 29-13 29-29v-246.7c0-16-13-29-29-29z m-333.6 233.7v20.2h-16.6v-20.2c-22-1.4-41.6-11.3-41.6-41.4v-10.6h34.4v5.3c0 12 3.2 20.9 15.3 20.9 12.5 0 16.1-9.6 16.1-18.1 0-34.5-65.1-15.4-65.1-75.2 0-24.1 11-44.1 40.9-46.9v-17h16.6v17c29.7 2.5 40.5 20.5 40.5 43.5v3.9h-34.4c0-6.9-0.8-12.7-2.9-16.4-2.2-3.6-5.5-5.2-10.9-5.2-8.9 0-14.2 5.2-14.2 16.3 0 33.5 65.2 16.8 65.2 73.1 0 33.6-15.9 48.5-43.3 50.8z m275.5 10.5c0 9.3-7.3 16.9-16.4 16.9h-141.3c-9.1 0-16.4-7.6-16.4-16.9v-9.7c0-9.3 7.3-16.9 16.4-16.9h141.3c9.1 0 16.4 7.6 16.4 16.9v9.7z m0-65.2c0 9.4-7.3 17-16.4 17h-141.3c-9.1 0-16.4-7.6-16.4-17v-9.6c0-9.4 7.3-17 16.4-17h141.3c9.1 0 16.4 7.6 16.4 17v9.6z m21.8-72.5c0 9.3-7.3 16.8-16.3 16.8h-163.2c-9 0-16.3-7.5-16.3-16.8v-46c0-9.3 7.3-16.9 16.3-16.9h163.2c9 0 16.3 7.6 16.3 16.9v46z" /></svg>