<svg height="512" width="512.0" xmlns="http://www.w3.org/2000/svg"><path d="m277.8 168.5l-21.2-59.2-21.3 59.2-63.7 1.6 50.6 38.2-18.1 60.2 52.5-35.6 52.5 35.6-18.1-60.2 50.6-38.2-63.8-1.6z m133.7-22.5c-17.5-10-32.1-34.1-32.5-53.6-0.3-19.5-17.1-32.9-37.3-29.9-20.2 3.1-47.6-6.4-61-21.1-13.4-14.8-35.3-14.8-48.7 0-13.4 14.7-40.9 24.2-61 21.1-20.2-3-37 10.4-37.3 29.9-0.4 19.5-15 43.6-32.5 53.6-17.5 10.1-21.3 30.7-8.5 45.8 12.9 15.1 18 42.6 11.3 61-6.6 18.4 4.3 36.5 24.4 40.2 20 3.7 42.4 21.7 49.7 39.9 7.3 18.1 27.9 25.3 45.8 15.8 17.8-9.4 47-9.4 64.9 0 17.8 9.5 38.5 2.3 45.8-15.8 7.3-18.2 29.7-36.2 49.7-39.9 20.1-3.7 31-21.8 24.4-40.2-6.7-18.4-1.6-45.9 11.2-61 12.9-15.1 9.1-35.7-8.4-45.8z m-155.2 165.2c-64.3 0-116.4-52.1-116.4-116.4 0-64.3 52.1-116.5 116.4-116.5 64.3 0 116.4 52.2 116.4 116.5 0 64.3-52.1 116.4-116.4 116.4z m86.4 34.8c-8 19.9-30.5 27.7-50 17.4-19.6-10.4-51.6-10.4-71.1 0-19.5 10.3-42.1 2.5-50.1-17.4-3.1-7.8-8.8-15.6-15.9-22.4l-39 158.7 139.9-65.6 139.4 65.3-37.9-157.8c-6.8 6.7-12.2 14.2-15.3 21.8z" /></svg>