<svg height="512" width="512.0" xmlns="http://www.w3.org/2000/svg"><path d="m242.2 34.3c7.4-16 19.6-16 27.1 0l25.1 54.2c7.4 16 26.5 23 42.4 15.6l53.5-25.1c15.9-7.4 25.2 0.5 20.7 17.6l-15 57.9c-4.5 17.1 5.6 34.9 22.5 39.6l57 15.7c16.8 4.6 19 16.8 4.7 27l-48.2 34.5c-14.3 10.2-17.9 30.5-7.9 45l33.7 49.2c10 14.5 3.9 25.2-13.5 23.7l-58.8-5c-17.5-1.5-33 11.8-34.6 29.4l-5.3 59.6c-1.6 17.6-13.1 21.9-25.5 9.4l-41.8-42.2c-12.4-12.5-32.7-12.5-45.1 0l-41.9 42.2c-12.4 12.5-23.8 8.2-25.4-9.4l-5.4-59.6c-1.5-17.6-17.1-30.9-34.5-29.4l-58.8 5c-17.4 1.5-23.5-9.2-13.5-23.7l33.6-49.2c10-14.5 6.5-34.8-7.8-45l-48.2-34.5c-14.3-10.2-12.2-22.4 4.7-27l56.9-15.7c16.9-4.7 27.1-22.5 22.6-39.6l-15.1-57.9c-4.5-17.1 4.9-25 20.7-17.6l53.6 25.1c15.9 7.4 34.9 0.4 42.4-15.6l25.1-54.2z" /></svg>