<svg height="512" width="512.0" xmlns="http://www.w3.org/2000/svg"><path d="m458.9 145.8h-286.9c-8.8 0-16 7.5-16 16.8v283c0 9.3 7.2 16.8 16 16.8h286.9c8.8 0 16-7.5 16-16.8v-283c0-9.3-7.2-16.8-16-16.8z m-26.2-28.4c20.4-0.5 38.8-0.5 16-16.8l-43.4-34.1c-23.6-16.8-23.6-16.8-38.8-16.8h-264.5c-13.7-0.4-38.4 0-16 16.8l43.4 34.1c20.3 16.3 20.3 16.3 34.4 16.8h268.9z m-319.6 9.8l-59.6-44.2c-14.2-11.3-16-2.9-16 16.8v244.6c0 23.4 0 23.4 16 40.9l59.6 61.8c9.6 10.1 16 3.1 16-16.8v-262.3c0-19.1-0.5-28.8-16-40.8z" /></svg>