<svg height="512" width="512.0" xmlns="http://www.w3.org/2000/svg"><path d="m488.5 240.5l-217.3-217.2c-8.5-8.6-22.4-8.6-31 0l-217.2 217.2c-8.6 8.6-8.6 22.5 0 31l217.2 217.3c8.6 8.5 22.5 8.5 31 0l217.3-217.3c8.5-8.5 8.5-22.4 0-31z m-29.7 26.8l-191.8 191.8c-6.2 6.3-16.3 6.3-22.6 0l-191.8-191.8c-6.2-6.2-6.2-16.3 0-22.6l191.8-191.8c6.3-6.2 16.4-6.2 22.6 0l191.8 191.8c6.3 6.3 6.3 16.4 0 22.6z m-191.8-191.8c-6.2-6.2-16.3-6.2-22.6 0l-169.2 169.2c-6.2 6.3-6.2 16.4 0 22.6l169.2 169.3c6.3 6.2 16.4 6.2 22.6 0l169.3-169.3c6.2-6.2 6.2-16.3 0-22.6l-169.3-169.2z m62.9 236.4h-148.3c-6.8 0-5.6-13.2-5.6-22.1 0-17 25.1-20.5 47.6-27.3 13.6-4 16.4-12.2 16.4-20.6 0-8.4-4.6-11-8.3-16.1-3.7-5.1-3.7-25.1-3.7-25.1 0-27.3 7.1-40.4 27.8-40.4 20.7 0 27.8 13.1 27.8 40.4 0 0 0 20-3.8 25.1-3.7 5.1-8.3 7.7-8.3 16.1 0 8.4 2.9 16.5 16.4 20.6 22.5 6.8 47.5 10.3 47.5 27.3 0 8.9 1.3 22.1-5.5 22.1z" /></svg>