<svg height="512" width="512.0" xmlns="http://www.w3.org/2000/svg"><path d="m432.1 50h-351.5c-11.2 0-20.3 9.1-20.3 20.3v351.5c0 11.2 9.1 20.2 20.3 20.2h60.8v-114.9c0-7.4 6.1-13.5 13.6-13.5h202.7c7.5 0 13.5 6.1 13.5 13.5v114.9h60.9c11.2 0 20.2-9 20.2-20.2v-351.5c0-11.2-9-20.3-20.2-20.3z m-40.6 155.5c0 7.5-6 13.5-13.5 13.5h-243.3c-7.5 0-13.5-6-13.5-13.5v-87.9c0-7.4 6-13.5 13.5-13.5h243.3c7.5 0 13.5 6.1 13.5 13.5v87.9z m-148.7 169h-40.5c-7.5 0-13.6 6-13.6 13.5v54h67.6v-54c0-7.5-6-13.5-13.5-13.5z" /></svg>