<svg height="512" width="512.0" xmlns="http://www.w3.org/2000/svg"><path d="m284 308.8c-16.7 6.6-38.1 8.2-56 0l-107-43.8-0.1 36.6c0 7.6-0.1 23.6 9 29.4l98.1 39c17.7 9.1 39.1 9 56 0l98.1-39c9.6-6.9 9-22 8.8-29.7l0.1-36.3-107 43.8z m193.2-153.1l-193.2-59.6c-22.2-7.4-33.7-7.1-56 0l-193.2 59.6c-15.4 16.3-15.4 35.2 0 51.5l57.3 23.4c-6.8 12.9-0.1 29.3-1 63.5-0.1 2.8-0.1 9.8-0.1 16.8-4.4 2.6-7.4 7.4-7.4 13 0 3.2 1 6.2 2.7 8.6-1 0.6-1.8 1.5-2.4 2.8l-22.8 56.9c0 0 23.3 18.7 32.6 26.5 4.3 3.5 5.6 3.6 9.7 0 9.3-7.4 32.7-26.5 32.7-26.5l-22.9-57c-0.5-1.1-1.3-1.9-2.5-2.5 1.8-2.5 2.9-5.6 2.9-8.8 0-5.6-3-10.5-7.5-13.1 0-7-0.1-14 0-16.7 0.4-30.3-1.5-45.6 3.8-56.2l118.1 48.4c20.7 9.2 36 8.3 56 0l193.2-79.1c15.5-16.3 15.5-35.2 0-51.5z" /></svg>