<svg height="512" width="512.0" xmlns="http://www.w3.org/2000/svg"><path d="m397.7 146.5l-21.4-21.4v-30.3c0-22.1-17.9-40-40-40h-30.3l-21.4-21.4c-15.6-15.6-40.9-15.6-56.6 0l-21.4 21.4h-30.3c-22.1 0-40 17.9-40 40v30.3l-21.4 21.4c-15.6 15.6-15.6 40.9 0 56.6l21.4 21.4v30.2c0 22.1 17.9 40 40 40h13.4v186.6l66.6-53.3 66.7 53.3v-186.6h13.3c22.1 0 40-17.9 40-40v-30.2l21.4-21.4c15.7-15.7 15.7-41 0-56.6z m-141.4 108.2c-44.2 0-80-35.8-80-79.9 0-44.2 35.8-80 80-80s80 35.8 80 80c0 44.1-35.8 79.9-80 79.9z" /></svg>