<svg height="512" width="512.0" xmlns="http://www.w3.org/2000/svg"><path d="m406.5 104.2c-11.6 0-21-9.5-21-21.3l15-62.2 65.8 65.6-65.7-65.6-325.5-0.1c-17.4 0-31.4 14.2-31.4 31.8v407.3c0 17.5 14 31.8 31.4 31.8h362.5c17.3 0 31.3-14.3 31.3-31.8l0.1-370.7 0 0-62.5 15.2z m-173-53.1c12.6 0 22.8 10.3 22.8 22.9 0 12.6-10.2 22.8-22.8 22.8-12.6 0-22.8-10.2-22.8-22.8 0-12.6 10.2-22.9 22.8-22.9z m-68.1 0c12.6 0 22.9 10.3 22.9 22.9 0 12.6-10.3 22.8-22.9 22.8-12.6 0-22.8-10.2-22.8-22.8 0-12.6 10.2-22.9 22.8-22.9z m-68.8 0c12.6 0 22.8 10.3 22.8 22.9 0 12.6-10.2 22.8-22.8 22.8-12.6 0-22.8-10.2-22.8-22.8 0-12.6 10.2-22.9 22.8-22.9z m342.2 394.2c0 8.6-6.3 15.6-14 15.6h-336.9c-7.7 0-13.9-7-13.9-15.6v-287.4c0-8.6 6.2-15.6 13.9-15.6h336.9c7.7 0 14 7 14 15.6v287.4z m-17.3-356.3h47.5l-68.5-68.3v47c0 11.7 9.4 21.3 21 21.3z m-71.7 188.7h-19c-1.9-7.4-4.8-14.3-8.6-20.7l13.6-13.6c2-2 2-5.3 0-7.4l-20.9-20.9c-2.1-2.1-5.4-2.1-7.4 0l-13.4 13.4c-6.4-3.9-13.5-6.9-20.9-8.8v-19.3c0-2.8-2.3-5.2-5.2-5.2h-29.6c-2.9 0-5.2 2.4-5.2 5.2v18.9c-7.6 1.9-14.8 4.9-21.4 8.7l-13.6-13.5c-2-2.1-5.3-2.1-7.3 0l-21 20.9c-2 2-2 5.3 0 7.4l13.4 13.4c-4 6.6-7 13.8-9 21.5h-19c-2.9 0-5.2 2.3-5.2 5.2v29.6c0 2.9 2.3 5.2 5.2 5.2h19c2 7.7 5 15 9 21.6l-13.1 13.1c-2 2-2 5.3 0 7.4l21 20.9c2 2 5.3 2 7.3 0l13.3-13.3c6.6 3.9 13.8 6.8 21.4 8.7v18.9c0 2.9 2.3 5.2 5.2 5.2h29.6c2.9 0 5.2-2.3 5.2-5.2v-19.2c7.4-2 14.5-5 20.9-8.8l13.4 13.4c2 2 5.4 2 7.4 0l20.9-21c2.1-2 2.1-5.3 0-7.3l-13.6-13.6c3.8-6.4 6.7-13.4 8.6-20.8h19c2.9 0 5.2-2.3 5.2-5.2v-29.6c0-2.9-2.3-5.2-5.2-5.2z m-97.2 59.3c-21.7 0-39.3-17.6-39.3-39.3 0-21.7 17.6-39.2 39.3-39.2 21.6 0 39.2 17.5 39.2 39.2 0 21.7-17.6 39.3-39.2 39.3z" /></svg>