<svg height="512" width="512.0" xmlns="http://www.w3.org/2000/svg"><path d="m382.6 21.3h-252.5c-38.4 0-69.5 30.2-69.5 67.4v213.3c0 37.3 31.1 67.5 69.5 67.5h68.3l122.4 121.3-0.1-121.3h61.9c38.3 0 69.5-30.2 69.5-67.5v-213.3c0-37.2-31.2-67.4-69.5-67.4z m-247.2 242.8c-13 0-26.6-3.1-34.1-7.2l8.4-22.4c5.9 3.5 15.4 6.2 24.4 6.2 12.3 0 20.1-6.4 20.1-16.2 0-9.4-8.4-14.2-18.1-18.6-14.8-6.8-33.3-16.7-33.3-40.1 0-23.8 16.4-39.4 43-39.4 13 0 24.2 3.1 31 7.2l-8.1 20.9c-4.8-2.7-13.4-5.8-21.8-5.8-11.2 0-18.3 6.2-18.3 15.6 0 9.2 9 14.2 18.7 19 14.4 7.2 33.3 16.4 33.3 39.9 0 24.3-16.7 40.9-45.2 40.9z m174.3-2.2l-9.3-84.9c-0.9-8.3-1.3-18-1.3-18h-0.4c0 0-1.8 9.5-4.4 18l-25.1 84.9h-16.4l-25.3-84.9c-2.6-8.5-4.4-18-4.4-18h-0.4c0 0-0.4 9.7-1.3 18l-9.3 84.9h-24l16.5-133.3h29.3l23.1 77.9c2.2 7.7 3.8 17.1 3.8 17.1h0.4c0 0 1.6-9.4 3.8-17.1l22.9-77.9h29.3l16.5 133.3h-24z m64.4 2.2c-13 0-26.5-3.1-34-7.2l8.4-22.4c5.9 3.5 15.4 6.2 24.4 6.2 12.2 0 20.1-6.4 20.1-16.2 0-9.4-8.4-14.2-18.1-18.6-14.9-6.8-33.4-16.7-33.4-40.1 0-23.8 16.5-39.4 43.1-39.4 13 0 24.2 3.1 30.9 7.2l-8 20.9c-4.8-2.7-13.4-5.8-21.8-5.8-11.2 0-18.3 6.2-18.3 15.6 0 9.2 8.9 14.2 18.6 19 14.5 7.2 33.4 16.4 33.4 39.9 0 24.3-16.7 40.9-45.3 40.9z" /></svg>