<svg height="512" width="512.0" xmlns="http://www.w3.org/2000/svg"><path d="m32.9 427.1l64.6 21v-407.3l-64.6 21v365.3z m331.6-160.1c-47.8 0-86.5 39.2-86.5 87.5 0 48.4 38.7 87.5 86.5 87.5 47.7 0 86.4-39.1 86.4-87.5 0-48.3-38.7-87.5-86.4-87.5z m-0.1 108.7c-11.5 0-20.8-9.5-20.8-21.2 0-11.6 9.3-21.1 20.8-21.1s20.9 9.5 20.9 21.1c0 11.7-9.3 21.2-20.9 21.2z m0.1-137.9c-63.7 0-115.4 52.3-115.4 116.7 0 64.5 51.7 116.7 115.4 116.7 63.6 0 115.3-52.2 115.3-116.7 0-64.4-51.7-116.7-115.3-116.7z m0 222.3c-57.6 0-104.3-47.3-104.3-105.6 0-58.3 46.7-105.6 104.3-105.6 57.6 0 104.3 47.3 104.3 105.6 0 58.3-46.7 105.6-104.3 105.6z m-1.5-242.9c7 0 14 0.5 20.8 1.6v-157l-272.9-21v407.3l144.9-11.2c-17.7-23-28.2-51.9-28.2-83.3 0-75.4 60.6-136.4 135.4-136.4z" /></svg>