<svg height="512" width="512.0" xmlns="http://www.w3.org/2000/svg"><path d="m375.8 193.5c-37.4 0-70-20.8-86.6-51.2h-234.4v323.1c0 16 13.2 29 29.4 29h335c16.3 0 29.4-13 29.4-29v-303.8c-17.9 19.6-43.9 31.9-72.8 31.9z m-34.5 204c0 9.7-8 17.6-17.9 17.6h-143.2c-9.9 0-17.9-7.9-17.9-17.6v-132.6c0-9.7 8-17.6 17.9-17.6h143.2c9.9 0 17.9 7.9 17.9 17.6v132.6z m35.7-220.9c44.5 0 80.6-35.6 80.6-79.5 0-43.9-36.1-79.5-80.6-79.5-44.5 0-80.5 35.6-80.5 79.5 0 43.9 36 79.5 80.5 79.5z m-13.1-69.3v-51.4c0-6.3 4.8-11.4 10.7-11.4 5.9 0 10.7 5.1 10.7 11.4v40.9h31c6.4 0 11.5 4.9 11.5 11 0 6.1-5.1 11-11.5 11h-41c-0.2 0-0.4-0.1-0.6-0.1 0 0-0.1 0-0.1 0-0.7 0-1.4-0.3-2.1-0.5-0.6-0.1-1.2-0.1-1.8-0.3-0.8-0.4-1.5-1-2.2-1.5-0.5-0.3-1-0.6-1.5-1 0-0.1 0-0.2-0.1-0.2-1.9-2-3.1-4.5-3.1-7.4 0-0.1 0.1-0.3 0.1-0.4 0 0 0 0 0-0.1z m-46.9-88.4h-232.8c-16.2 0-29.4 13-29.4 29v39.1h223.3c2.8-27.8 17.4-52.2 38.9-68.1z m3.8 269.9l-18.2-13.7c-3-2.2-7.3-1.6-9.6 1.3l-57.8 76.6-21.6-18.1c-2.9-2.4-7.2-2.1-9.7 0.6l-13.1 14.4c-2.5 2.7-2.2 6.8 0.7 9.2l43.6 36.8c2.8 2.3 7.1 2.1 9.6-0.7l77.4-97.3c2.3-2.9 1.7-7-1.3-9.1z" /></svg>