<svg height="512" width="512.0" xmlns="http://www.w3.org/2000/svg"><path d="m360.3 17.9c-18.4-0.7-78.5 57.9-78.5 77.8 52.3 14.5 78.8 65.1 88.6 111.4 22.8-73.2 13.9-131.5-10.1-189.2z m-129.5 77.8c-5.3-15.7-66.7-73.6-78.9-77.8-24.1 57.7-33.1 116-10.2 189.2 18.6-43.9 51.3-98 89.1-111.4z m49.3 100.4l26.3-21.8c2.7-2.8 1.2-6.1 0-10.1-8.4-26.9-35-40.8-54.3-40.8-19.2 0-41.9 14-53.7 40.8-1.6 3.8-2.7 7.3 0 10.1l28 23.2-71.2 160c-5.1 5.2-5.1 13.7 0 19l89 113.7c5.2 5.2 13.5 5.2 18.7 0l88.9-113.7c5.2-5.3 5.2-13.8 0-19l-71.7-161.4z" /></svg>