<svg height="512" width="512.0" xmlns="http://www.w3.org/2000/svg"><path d="m383.2 130.7h-255c-15.8 0-28.7 13.3-28.7 29.6l28.7 305c0 16.3 12.9 29.5 28.8 29.5h197.5c15.9 0 28.7-13.2 28.7-29.5l28.8-305c0-16.3-12.9-29.6-28.8-29.6z m-194.5 312.5c-10.7 0.7-19.9-7.6-20.6-18.5l-13.2-217.6c-0.7-10.9 7.5-20.3 18.2-21 10.7-0.6 21.1 7.6 21.8 18.5l13.2 217.6c0.6 10.9-8.7 20.3-19.4 21z m87-19.5c0 10.9-9.2 19.7-20 19.7s-20-8.8-20-19.7v-218.1c0-10.9 9.3-19.7 20-19.7s20 8.8 20 19.7v218.1z m80.8-216.6l-13.2 217.6c-0.6 10.9-9.8 19.2-20.6 18.5-10.7-0.7-20-10.1-19.3-21l13.2-217.6c0.7-10.9 11-19.1 21.8-18.5 10.7 0.7 18.8 10.1 18.1 21z m-239-94.1h276c16.9 0 11-17.3-1.2-26.2-19.6-12.9-56.2-31.4-110.4-36.8 0.2-1.3 0.3-2.7 0.3-4.1 0-15.6-10.2-28.3-26.3-28.3-16.1 0-26.7 12.7-26.7 28.3 0 1.2 0.2 2.5 0.3 3.7-59.6 4.9-91.2 24.1-110.7 37.4-13 9.1-17.9 26-1.3 26z" /></svg>