<svg height="512" width="512.0" xmlns="http://www.w3.org/2000/svg"><path d="m461 112.4c-15.1 7-31.3 11.7-48.3 13.8 17.4-10.9 30.7-28.1 37-48.7-16.3 10.1-34.2 17.5-53.4 21.4-15.3-17.1-37.1-27.8-61.3-27.8-46.3 0-83.9 39.4-83.9 88 0 6.9 0.7 13.7 2.2 20.1-69.8-3.7-131.7-38.7-173.1-92-7.2 13-11.4 28.1-11.4 44.3 0 30.5 14.8 57.5 37.4 73.3-13.8-0.5-26.7-4.4-38.1-11 0 0.3 0 0.7 0 1.1 0 42.6 29 78.2 67.4 86.3-7.1 2-14.5 3.1-22.1 3.1-5.5 0-10.7-0.5-15.8-1.6 10.6 35 41.7 60.5 78.4 61.2-28.7 23.6-64.9 37.7-104.3 37.7-6.8 0-13.4-0.4-20-1.2 37.1 24.9 81.3 39.5 128.7 39.5 154.5 0 238.9-134.2 238.9-250.5 0-3.9-0.1-7.7-0.2-11.4 16.4-12.5 30.6-28 41.9-45.6z" /></svg>