<svg height="512" width="512.0" xmlns="http://www.w3.org/2000/svg"><path d="m256.3 173.3c-45.7 0-82.7 37-82.7 82.7s37 82.8 82.7 82.8 82.8-37.1 82.8-82.8-37.1-82.7-82.8-82.7z m43.6 91.3c-3.5 2-60.1 34.5-64.2 36.8-3 1.6-7-0.2-7-4v-73.5c0-3.4 3.6-5.9 7.1-3.9 2.9 1.6 59.2 33.9 64.1 36.6 3.1 1.9 3.1 6.2 0 8z m158.7-192.5h-404.6c-15.2 0-27.6 12.4-27.6 27.6v312.7c0 15.2 12.4 27.5 27.6 27.5h404.6c15.3 0 27.6-12.3 27.6-27.5v-312.7c0-15.2-12.3-27.6-27.6-27.6z m-18.4 303.5c0 10.1-8.2 18.4-18.3 18.4h-331.1c-10.1 0-18.4-8.3-18.4-18.4v-239.1c0-10.2 8.3-18.4 18.4-18.4h331.1c10.1 0 18.3 8.2 18.3 18.4v239.1z" /></svg>