<svg height="512" width="512.0" xmlns="http://www.w3.org/2000/svg"><path d="m412.8 418.3h-21.2c34.2 0 61.9-26.3 61.9-58.6v-179.2c0-32.4-27.8-58.6-61.9-58.6h-65.2v-11.5c0-2.8-0.4-5.5-1-8.1v0h87.4c34.2 0 61.9 26.2 61.9 58.6v198.8c0 32.3-27.7 58.6-61.9 58.6z m-86.4-282.3h51c34.2 0 62 26.3 62 58.6v165.1c0 32.3-27.8 58.6-62 58.6h-278.2c-34.2 0-61.9-26.3-61.9-58.6v-165.1c0-32.3 27.7-58.6 61.9-58.6h86.1v145.7c0 20.9 18.4 37.8 41.1 37.8h58.9c22.7 0 41.1-16.9 41.1-37.8v-145.7z m-55.2 169.4h-30.7c-22.7 0-41.1-16.9-41.1-37.8v-136.1c0-20.9 18.4-37.8 41.1-37.8h30.7c22.7 0 41.1 16.9 41.1 37.8v136.1c0 20.9-18.4 37.8-41.1 37.8z m-15.3-77.5c-15.6 0-28.3 12.6-28.3 28.2 0 15.6 12.7 28.2 28.3 28.2 15.6 0 28.2-12.6 28.2-28.2 0-15.6-12.6-28.2-28.2-28.2z m-70.6-117.5v11.5h-86.1c-0.8 0-1.6 0.1-2.5 0.1 11.4-12.1 27.9-19.7 46.3-19.7h43.3c-0.7 2.6-1 5.3-1 8.1v0z" /></svg>