<svg height="512" width="512.0" xmlns="http://www.w3.org/2000/svg"><path d="m442.8 316.4v71.2c0 14.5-9.4 26.8-22.4 31.3 23.2-1.1 39.9-8.4 39.9-27.5v-77.5c-3.8 1.6-8.1 2.5-12.5 2.5h-5z m-373-205.3h339.9c18.3 0 33.1 14.8 33.1 33.1v54.7h5c4.4 0 8.7 0.8 12.5 2.4v-71.2c0-23.9-15.1-36.8-36.8-36.8h-340.8c-27.2 0-46 18.8-46 46v4.9c0-18.3 14.8-33.1 33.1-33.1z m360.5 280.3v-75h-111.8c-18.3 0-33.2-14.8-33.2-33.1v-51.3c0-18.3 14.9-33.1 33.2-33.1h111.8v-48c0-15.2-12.4-27.6-27.6-27.6h-338.4c-15.3 0-27.6 12.4-27.6 27.6v240.5c0 15.3 12.3 27.6 27.6 27.6h338.4c15.2 0 27.6-12.3 27.6-27.6z m18.1-180.3h-123.5c-15.2 0-27.6 12.4-27.6 27.6v36.8c0 15.2 12.4 27.6 27.6 27.6h123.5c15.2 0 27.6-12.4 27.6-27.6v-36.8c0-15.2-12.4-27.6-27.6-27.6z m-106 74.1c-15.2 0-27.6-12.4-27.6-27.7s12.4-27.7 27.6-27.7c15.3 0 27.7 12.4 27.7 27.7s-12.4 27.7-27.7 27.7z" /></svg>