<svg height="512" width="512.0" xmlns="http://www.w3.org/2000/svg"><path d="m396.4 115.2h58.3l-84.2-82v56.4c0 14.2 11.6 25.6 25.9 25.6z m-287.7-56.4v157.5c9.6-8.1 20.2-14.9 31.6-20.3v-109.5c0-8.6 7-15.6 15.7-15.6h198.8v-37.7h-220.2c-14.3 0-25.9 11.4-25.9 25.6z m314.6 338.9c0 8.6-7.1 15.6-15.7 15.6h-26c-3.2 13.7-8.2 26.8-14.8 38.7h62c14.3 0 25.9-11.4 25.9-25.6v-295.6h-31.4v266.9z m-171.2-9.9c-22.7-6.8-27.5-20.3-27.5-34.4 0-14.1 7.7-18.3 14-26.9 6.2-8.5 6.2-41.9 6.2-41.9 0-45.5-11.9-67.4-46.8-67.4-34.8 0-46.8 21.9-46.8 67.4 0 0 0 33.4 6.3 41.9 6.2 8.6 14 12.8 14 26.9 0 14.1-4.8 27.6-27.6 34.4-37.9 11.3-80.1 17.1-80.1 45.5 0 15-2 36.9 9.4 36.9h249.6c11.4 0 9.3-21.9 9.3-36.9 0-28.4-42.1-34.2-80-45.5z" /></svg>