<svg height="512" width="512.0" xmlns="http://www.w3.org/2000/svg"><path d="m255.7 315.6c-32.8 0-59.3 26.5-59.3 59.2 0 32.8 26.5 59.3 59.3 59.3 32.8 0 59.4-26.5 59.4-59.3 0-32.7-26.6-59.2-59.4-59.2z m-109-33.1c-14.8 15 8.3 38.1 23.1 23 48.2-49.2 123.6-49.2 171.9 0.1 14.7 15 37.8-8.1 23.1-23.1-60.5-61.8-157.6-61.8-218.1 0z m-59.2-54.7c-14.5 15.2 8.6 38.3 23.2 23.1 79.7-83.2 210.4-83.1 290.1 0 14.6 15.3 37.7-7.8 23.1-23-91.7-95.8-244.6-95.8-336.4-0.1z m393-52.2c-121.9-128.2-327.6-128.2-449.5 0-14.5 15.2 8.6 38.4 23.1 23.1 109.9-115.6 293.3-115.6 403.3 0 14.5 15.3 37.6-7.8 23.1-23.1z" /></svg>