<svg height="512" width="512.0" xmlns="http://www.w3.org/2000/svg"><path d="m448.4 108.1l-81.3-81.4-272.9-0.1c-16.9 0-30.6 13.9-30.6 31v396.8c0 17.2 13.7 31.1 30.6 31.1h323.6c16.9 0 30.6-13.9 30.6-31.1l0-346.3v0l0 0z m-74 98.3c-9.4 0-16.5 6.7-21.2 20.1l-41.6 118.4-19.1-2.4-35.2-89.8-31.5 92.2-21.5-2.4-48.9-123.2c-1.7-4.5-4.2-7.8-7.4-9.8-3.2-2-6.7-3.1-10.3-3.1v-9.6h71.8v9.6c-7.4 0-12.2 0.7-14.4 2-2.2 1.3-3.3 3-3.3 5 0 0.6 0.2 1.3 0.6 2 0.4 0.7 0.7 1.6 1.1 2.8l32.1 87.2 25.7-71.5-8.7-21.4c-0.8-2-2.7-3.5-5.9-4.5-3.2-1.1-6.8-1.6-10.9-1.6v-9.6h71.2v9.6c-11.5 0-17.3 2.4-17.3 7 0 1.6 0.6 3.4 1.7 5.5l30.7 86.3 26.4-78.7c0.5-1.9 0.9-3.7 1.3-5.3 0.4-1.7 0.6-3.3 0.6-4.9 0-6.6-6.4-9.9-19.4-9.9v-9.6h53.4v9.6z m2.1-83.5c-13.4 0-24.2-11-24.2-24.6l14.7-71.4v55.8c0 14.1 11.2 25.4 25 25.4h56l-71.5 14.8z" /></svg>