<svg height="512" width="512.0" xmlns="http://www.w3.org/2000/svg"><path d="m107.1 412.8h15.7v-15.7h-15.7v15.7z m-31.4-219.5h78.4c4.3 0 7.8-3.5 7.8-7.8v-7.9c0-4.3-3.5-7.8-7.8-7.8h-78.4c-4.3 0-7.8 3.5-7.8 7.8v7.9c0 4.3 3.5 7.8 7.8 7.8z m0 31.3h78.4c4.3 0 7.8-3.5 7.8-7.8v-7.8c0-4.4-3.5-7.9-7.8-7.9h-78.4c-4.3 0-7.8 3.5-7.8 7.9v7.8c0 4.3 3.5 7.8 7.8 7.8z m0-62.7h78.4c4.3 0 7.8-3.5 7.8-7.8v-7.8c0-4.4-3.5-7.9-7.8-7.9h-78.4c-4.3 0-7.8 3.5-7.8 7.9v7.8c0 4.3 3.5 7.8 7.8 7.8z m399.8 70.6h-73.8c0 0 0 0 0 0h-20.3v-7.9h-23.5v-15.6h31.3c8.7 0 15.7-7 15.7-15.7v-117.6c0-8.6-7-15.7-15.7-15.7h-156.7c-8.7 0-15.7 7.1-15.7 15.7v117.6c0 8.7 7 15.7 15.7 15.7h31.3v15.6h-23.5v7.9h-203.8c-8.6 0-15.6 7-15.6 15.7v15.6c0 8.7 7 15.7 15.6 15.7h54.9v15.7h-54.9c-8.6 0-15.6 7-15.6 15.7v125.4c0 8.6 7 15.7 15.6 15.7h156.8c8.7 0 15.7-7.1 15.7-15.7v-125.4c0-8.7-7-15.7-15.7-15.7h-54.9v-15.7h275.4l30.5 31.7v140.4h23.3c0 0 0-108.8 0-125.2 0-20.1-2-25.3-8.1-31.3-3.4-3.5-8.7-9.1-14.8-15.6h30.8c8.6 0 15.6-7 15.6-15.7v-15.6c0-8.7-7-15.7-15.6-15.7z m-282.2 180.3c0 8.6-7 15.6-15.7 15.6h-125.4c-8.6 0-15.7-7-15.7-15.6v-15.7c0-8.7 7.1-15.7 15.7-15.7h125.4c8.7 0 15.7 7 15.7 15.7v15.7z m-15.7-94.1c8.7 0 15.7 7 15.7 15.7v15.7c0 8.6-7 15.6-15.7 15.6h-125.4c-8.6 0-15.7-7-15.7-15.6v-15.7c0-8.7 7.1-15.7 15.7-15.7h125.4z m62.7-148.9c-4.3 0-7.8-3.5-7.8-7.9v-78.3c0-4.4 3.5-7.9 7.8-7.9h141.1c4.3 0 7.8 3.5 7.8 7.9v78.3c0 4.4-3.5 7.9-7.8 7.9h-141.1z m78.4 23.5h-15.7v-15.7h15.7v15.7z m-195.9 141.1h-15.7v15.7h15.7v-15.7z" /></svg>