<svg height="512" width="512.0" xmlns="http://www.w3.org/2000/svg"><path d="m172.3 295.7c-11.7 0-21.2 9.6-21.2 21.5 0 11.9 9.5 21.5 21.2 21.5 11.8 0 21.3-9.6 21.3-21.5 0-11.9-9.5-21.5-21.3-21.5z m150.2 94.5v-268.1c0-11.4-9.1-20.6-20.4-20.6h-264.7c-11.2 0-20.3 9.2-20.3 20.6v268.1c0 11.4 9.1 20.7 20.3 20.7h264.7c11.3 0 20.4-9.3 20.4-20.7z m-30.5-41.2c0 11.4-9.2 20.6-20.4 20.6h-203.6c-11.3 0-20.4-9.2-20.4-20.6v-61.9c0-11.4 9.1-20.6 20.4-20.6h203.6c11.2 0 20.4 9.2 20.4 20.6v61.9z m0-123.8c0 11.4-9.2 20.7-20.4 20.7h-203.6c-11.3 0-20.4-9.3-20.4-20.7v-61.8c0-11.4 9.1-20.7 20.4-20.7h203.6c11.2 0 20.4 9.3 20.4 20.7v61.8z m183.3 206.3h-10.2v-51.6h-75.8c1.2-0.1 2.5-0.4 3.8-0.8l49.6-15.4c8.6-2.7 14.3-9.8 12-19.7-2.2-9.9-12.1-20.4-20.6-17.8l-49.6 15.5c-8.5 2.6-12.5 17.5-10.2 27.4 1.5 6.7 5.7 10.2 11 10.8h-24.8l-39.9 51.6h-212c-11.2 0-20.3 9.2-20.3 20.6v10.3c0 11.4 9.1 20.7 20.3 20.7h366.7c11.2 0 20.3-9.3 20.3-20.7v-10.3c0-11.4-9.1-20.6-20.3-20.6z m-82.2-178.3l49.6-15.4c8.6-2.7 14.3-9.7 12-19.6-2.2-9.9-12.1-20.5-20.6-17.8l-49.6 15.4c-8.5 2.7-12.5 17.5-10.2 27.4 2.2 9.9 10.3 12.7 18.8 10z m-18.8 57.8c2.2 9.9 10.3 12.7 18.8 10l49.6-15.4c8.6-2.7 14.3-9.8 12-19.6-2.2-9.9-12.1-20.5-20.6-17.8l-49.6 15.4c-8.6 2.7-12.5 17.5-10.2 27.4z m100.9-281.7h-367.2c-11.3 0-20.4 9.2-20.4 20.6v10.3c0 11.4 9.1 20.7 20.4 20.7h212.3l40 51.5h74.4c-0.2 0.1-0.4 0.1-0.6 0.2l-49.6 15.5c-8.6 2.6-12.5 17.5-10.2 27.4 2.2 9.9 10.3 12.6 18.8 10l49.6-15.5c8.6-2.6 14.3-9.7 12-19.6-1.8-8-8.6-16.4-15.6-18h25.9v-51.5h10.2c11.3 0 20.4-9.3 20.4-20.7v-10.3c0-11.4-9.1-20.6-20.4-20.6z m-302.9 139.2c-11.7 0-21.2 9.6-21.2 21.5 0 11.9 9.5 21.5 21.2 21.5 11.8 0 21.3-9.6 21.3-21.5 0-11.9-9.5-21.5-21.3-21.5z" /></svg>