<svg height="512" width="477.7" xmlns="http://www.w3.org/2000/svg"><path d="m477.7 162.3l-73.2 69.1-2.1 2.1q24.6 27.6 24.6 61.9 0 38.4-27.6 66.1t-66.1 27.6h-72.2l-21 107h-27.1l-21-107h-58.9q-35.3 0-60.4-25.1l-68.6-68.6 49.1-49.1q-24.5-10.8-38.9-33.8t-14.8-50.2q0-38.4 27.6-66t66.1-27.7h93.7v-13.3q0-15.9 11.8-27.7t28.1-11.7 28.7 11.7 11.8 27.7v13.3h77.3q34.8 0 59.4 23.6z m-143.9 173.6q15.9 0 27.7-11.8t11.7-28.7-11.7-28.1-27.7-11.8h-200.2q-13.3 0-22.5 9.2l-30.7 30.7 30.7 30.7q9.7 9.8 22.5 9.8h200.2z m33.8-142.9l32.8-30.7-32.8-30.7q-9.7-9.7-23-9.7h-250.9q-16.9 0-28.7 11.7t-11.8 28.7q0 15.9 11.8 27.7t28.7 11.7h250.9q14.3 0 23-9.2z" /></svg>