<svg height="512" width="373.2" xmlns="http://www.w3.org/2000/svg"><path d="m347.1 288.8q10.8 0 18.5 8.2t7.6 18.9q0 77.3-54.2 132.1t-132.1 54.8-132.1-54.8-54.8-132.1q0-10.7 8.2-18.9t18.9-8.2 18.5 8.2 7.6 18.9q0 48.1 30.3 85t76.2 45.6v-197.2h-107q-10.7 0-18.4-8.1t-7.7-19 7.7-18.4 18.4-7.7h107v-32.3q-23.5-8.2-38.4-28.6t-14.8-46.1q0-33.3 23.5-56.8t56.9-23.6 56.8 23.6 23.6 56.8q0 25.6-14.9 46.1t-38.9 28.6v32.3h107q10.8 0 19 7.7t8.1 18.4-8.1 19-19 8.1h-107v197.2q46.1-9.3 76.3-45.6t30.2-85q0-10.7 8.2-18.9t18.9-8.2z m-160.2-226.8q-10.8 0-19 8.1t-8.2 19 8.2 18.9 19 8.2 18.4-8.2 7.7-18.9-7.7-19-18.4-8.1z" /></svg>