<svg height="512" width="506.9" xmlns="http://www.w3.org/2000/svg"><path d="m146.4 2.6q0-32.8 23.6-56.4t56.3-23.5q33.3 0 56.8 23.5l123.4 123.4q15.9 5.7 28.7 18.5 71.2 71.1 71.2 166.9 0 104.9-74.3 179.2-34.8 33.8-75.7 52.7 2.5 9.7 2.5 22.5 0 32.8-23.5 56.4t-55.8 23.5q-33.3 0-56.9-23.5l-124.9-125q-15.4-5.6-27.7-17.9-71.1-71.2-71.1-166.9 0-105 74.2-179.2 34.8-34.8 75.8-52.7-3.1-11.8-3.1-22.1z m116.8 452.6q76.3-2.6 132.1-58.4 58.3-58.4 58.3-141.3 0-74.3-55.3-129.5-7.6-7.7-18.4-7.7-11.8 0-19.5 7.7t-7.6 18.9 7.6 18.9q22.1 22.1 30.8 42.5t9.2 49.2q0 60.9-43 103.9-38.4 38.4-91.7 42.5l33.3-33.3q7.7-7.6 7.7-18.9t-7.7-18.9-18.4-7.7q-11.8 0-19.5 7.7l-98.8 99.3 98.8 98.8q7.7 7.7 19.5 7.7 10.7 0 18.4-7.7t7.7-18.9-7.7-19z m-20.5-398.9q-76.3 4.1-130.6 58.4-58.9 58.9-58.9 141.3 0 74.2 55.3 129.5 7.7 7.7 19.5 7.7 10.8 0 18.4-7.7t7.7-18.9-7.7-19q-22-22-30.2-42.4t-8.7-49.2q0-60.9 43-103.9 38.9-38.9 92.2-43l-33.8 34.8q-7.7 7.7-7.7 18.4t7.7 18.4q8.2 8.2 18.4 8.2 10.8 0 19.5-8.2l98.8-98.8-98.8-98.8q-8.2-8.2-19.5-8.2-10.2 0-18.4 8.2-7.7 7.7-7.7 18.4t7.7 18.5z m-69.1 110.1q-40.5 36.4-40.5 89.6 0 23 7.2 38.9t25.1 33.8q19.4 19.5 14.8 45.6l63-62q15.9-15.9 37.9-15.9 21 0 36.3 14.4t16.9 34.8q40-36.4 40-89.6 0-23-6.7-38.9t-24.6-33.8-14.8-45.1l-63 63q-15.3 15.4-37.9 15.4-21 0-36.3-14.4t-16.9-34.8z" /></svg>