<svg height="512" width="508.4" xmlns="http://www.w3.org/2000/svg"><path d="m199.2 267.3q-5.7 0-9.2-4.1t-3.6-8.7q0-5.7 4.1-9.8l120.8-120.8q15.9-15.9 37.4-15.9 22.5 0 38.4 15.9 15.3 15.4 15.3 37.9t-15.3 37.9q-31.3 31.2-94.2 94.2t-94.2 94.2q-15.9 15.9-37.9 15.9t-37.9-15.9q-15.4-15.4-15.4-37.9t15.4-37.9l2.5-2.5q-18.4-24.6-18.4-56.4l-22 21q-31.2 31.3-31.2 75.8t31.2 75.8 75.8 31.2 75.7-31.2l188.5-188.9q31.2-31.3 31.2-75.3t-31.2-75.3-75.8-31.2q-43.5 0-74.8 31.2l-120.8 120.9q-20 19.9-20 46.6 0 27.6 20 47.6t46.6 19.9q27.6 0 47.6-19.9l56.8-56.4q15.4-15.3 15.4-37.8 0-22.1-15.9-37.9l-94.2 94.2q-4.1 4.1-9.7 4.1z m149-265.8q66.5 0 113.1 46.6t46.6 113.2q0 66-46.6 112.6l-188.4 188.9q-46.6 46.6-113.2 46.6t-113.1-46.6-46.6-113.1q0-66.1 46.6-112.6l188.9-189q46.6-46.6 112.7-46.6z" /></svg>