<svg height="512" width="525.3" xmlns="http://www.w3.org/2000/svg"><path d="m263.2 76.3q-25.1 0-41.5 28.1l-157.7 262.7q-16.9 28.2-5.6 48.6t44.5 20.5h320q33.3 0 44-20.5t-5.6-48.6l-157.7-262.7q-16.9-28.1-40.9-28.1z m0-53.8q54.2 0 86.5 54.3l158.2 263.2q32.3 53.7 5.6 101.9-26.1 47.6-90.1 47.6h-320q-63.5 0-91.1-47.6-27.1-47.7 5.6-101.9l158.2-263.2q32.3-54.3 87.1-54.3z m39.9 353.3q-2.6 2.6-6.7 6.7t-18.4 9.7-28.7 5.6q-19.9-1.5-28.1-17.4t-0.5-39.9l10.7-32.3q7.7-23-6.6-30.7-5.2-2-11.8-1t-11.8 3.1l-5.6 2.5q2.5-2.5 7.2-6.6t18.4-9.8 28.7-5.6q19.9 1.5 28.1 17.4t0.5 39.9l-10.7 32.3q-8.2 23 5.6 30.7 5.1 2.1 11.8 1t12.3-3z m-74.7-179.7q0-35.3 35.3-35.3 34.8 0 34.8 35.3 0 34.8-34.8 34.8-35.3 0-35.3-34.8z" /></svg>