<svg height="512" width="373.2" xmlns="http://www.w3.org/2000/svg"><path d="m293.4 2q33.3 0 56.8 23.6t23.6 56.8v373.8q0 26.1-12.3 39.9t-29.7 13.9q-22 0-41-19.5l-84.5-85q-7.6-7.7-18.9-7.7t-19 7.7l-84.4 85q-20.5 20-42 19.5t-32.8-20q-8.2-14.9-8.2-33.8v-373.8q0-33.2 23.6-56.8t56.8-23.6h213z m-213 53.8q-10.8 0-19 7.7t-8.2 18.4v264.2l65.6-60.4q28.1-26.1 68.1-26.1t68.1 26.1l65.5 60.4v-264.2q0-10.7-8.2-18.4t-18.9-7.7h-213z m163.3 311.8l76.8 76.8v-61.4l-83.4-76.8q-20.5-18.5-50.2-18.5t-50.2 18.5l-84 76.8v61.4l76.8-76.8q23.1-23 56.9-23 33.2 0 56.3 23z" /></svg>