<svg height="512" width="480.3" xmlns="http://www.w3.org/2000/svg"><path d="m399.9 122.9q33.3 0 56.8 23.5t23.6 56.9v186.3q0 33.3-23.6 56.9t-56.8 23.5h-320q-33.3 0-56.9-23.5t-23.5-56.9v-186.3q0-33.3 23.5-56.9t56.9-23.5q0-33.3 23.5-56.9t56.9-23.5h160.2q33.3 0 56.8 23.5t23.6 56.9z m-240.2-27.2q-10.7 0-18.9 8.2t-8.2 19h214q0-10.8-8.2-19t-18.9-8.2h-160.3z m266.8 293.4v-26.1h-373.8v26.1q0 10.8 8.2 19t19 8.2h320q10.7 0 18.9-8.2t8.2-19z m-373.8-53.2h373.8v-133.1q0-10.8-8.2-19t-18.9-8.2h-320q-10.8 0-19 8.2t-8.2 19v133.1z m214.1-79.9q10.7 0 18.4 8.2t7.7 18.9-7.7 18.5-18.4 7.6h-53.8q-10.8 0-18.4-7.6t-7.7-18.5 7.7-18.9 18.4-8.2h53.8z" /></svg>