<svg height="512" width="481.8" xmlns="http://www.w3.org/2000/svg"><path d="m465.4 30.7q25.1 25.1 12.3 57.9-69.1 173.5-249.9 280.6-8.2 5.1-14.8 6.6-8.2 53.3-48.1 87.6t-94.2 34.3q-12.3 0-23.6-2.1l-38.9-5.6-5.6-38.9q-10.3-64.5 28.1-114.2 34.8-44 92.2-53.3 2.5-9.2 5.1-14.3 107-180.7 280.6-249.8 9.7-4.1 19.9-4.1 22.6 0 37.9 15.3z m-394.7 412.2q36.3 0 61.9-22.5t29.7-57.9l-27.6-27.7q-40 4.7-63 35.4t-16.9 72.2q5.1 0.5 15.9 0.5z m130.5-119.8q19.5-10.8 47.6-31.3-43-43-43.5-44-17.9 25.1-31.2 48.1z m69.1-47.6q109.1-84.5 158.2-207.4-124.4 49.1-207.8 158.7z" /></svg>