<svg height="512" width="373.2" xmlns="http://www.w3.org/2000/svg"><path d="m293.4 496.1h-213q-33.3 0-56.8-23.5t-23.6-56.9v-320q0-33.2 23.6-56.8t56.8-23.5h213q33.3 0 56.8 23.5t23.6 56.8v320q0 33.3-23.6 56.9t-56.8 23.5z m-213-427q-10.8 0-19 8.2t-8.2 19v320q0 10.7 8.2 18.9t19 8.2h213q10.7 0 18.9-8.2t8.2-18.9v-320q0-10.8-8.2-19t-18.9-8.2h-213z m0 160.3q0-26.1 27.1-26.1 26.1 0 26.1 26.1 0 27.1-26.1 27.1-27.1 0-27.1-27.1z m79.9 0q0-26.1 27.1-26.1 26.1 0 26.1 26.1 0 27.1-26.1 27.1-27.1 0-27.1-27.1z m79.8 0q0-26.1 27.2-26.1 26.1 0 26.1 26.1 0 27.1-26.1 27.1-27.2 0-27.2-27.1z m-160.2 79.8q0-26.1 27.1-26.1 26.1 0 26.1 26.1 0 27.2-26.1 27.2-27.1 0-27.1-27.2z m79.8 0q0-26.1 27.2-26.1 26.1 0 26.1 26.1 0 27.2-26.1 27.2-27.2 0-27.2-27.2z m79.9 0q0-26.1 27.2-26.1 26.1 0 26.1 26.1 0 27.2-26.1 27.2-27.2 0-27.2-27.2z m-160.2 79.9q0-26.1 27.1-26.1 26.1 0 26.1 26.1 0 27.2-26.1 27.2-27.1 0-27.1-27.2z m79.8 0q0-26.1 27.2-26.1 26.1 0 26.1 26.1 0 27.2-26.1 27.2-27.2 0-27.2-27.2z m79.9 0q0-26.1 27.1-26.1 26.2 0 26.2 26.1 0 27.2-26.2 27.2-27.1 0-27.1-27.2z m27.1-266.2h-160.2v26.1h160.2v-26.1z m26.2-27.2v79.9h-213v-79.9h213z" /></svg>