<svg height="512" width="533.0" xmlns="http://www.w3.org/2000/svg"><path d="m466.4 55.8q27.7 0 47.1 19.5t19.5 47.1v266.7q0 27.7-19.5 47.1t-47.1 19.5h-266.7q-25.6 0-52.8-14.4t-41.9-34.8l-70.7-97.8q-30.2-43-31.2-44-6.7-9.2 0-17.9l4.1-5.6q4.6-6.7 12.3-17.5t15.8-21.5l69.1-97.2q14.9-20.5 42.5-34.9t53.3-14.3h266.7z m-61.4 261.1l-60.9-60.9 60.9-61.4q7.7-7.7 7.7-19t-7.7-18.9-19-7.7-18.9 7.7l-60.9 61.4-61.5-61.4q-7.6-7.7-18.9-7.7t-19 7.7-7.6 18.9 7.6 19l61.5 61.4-61.5 60.9q-7.6 7.7-7.6 19t7.6 18.9q8.2 8.2 19.5 8.2 10.2 0 18.4-8.2l61.5-60.9 60.9 60.9q8.2 8.2 19.5 8.2 10.2 0 18.4-8.2 7.7-7.7 7.7-18.9t-7.7-19z" /></svg>