<svg height="512" width="480.3" xmlns="http://www.w3.org/2000/svg"><path d="m240.1 15.9q99.4 0 169.5 70.6t70.7 169.5-70.7 169.5-169.5 70.6-169.4-70.6-70.7-169.5 70.7-169.5 169.4-70.6z m0 427q77.3 0 132.1-54.8t54.8-132.1-54.8-132.1-132.1-54.8-132.1 54.8-54.8 132.1 54.8 132.1 132.1 54.8z m18.5-186.9l71.1 70.7q6.7 6.6 2.6 14.8t-12.3 8.2q-5.6 0-9.7-4.1l-70.7-71.2-70.6 71.2q-4.1 4.1-9.8 4.1-8.2 0-12.3-8.2t2.6-14.8l71.2-70.7-71.2-70.7q-9.2-9.2 0.5-18.4t18.4-0.5l70.7 71.2 70.7-71.2q9.2-9.2 18.4 0.5t0.5 18.4z" /></svg>