<svg height="512" width="506.9" xmlns="http://www.w3.org/2000/svg"><path d="m441.9 205.3l58.8 39.9q6.7 4.7 6.7 10.8t-6.7 10.8l-58.8 39.9 31.2 63.5q4.1 7.1-0.5 12.8t-10.8 6.6l-71.1 5.2-4.7 70.6q-0.5 6.7-6.6 10.8t-12.8 1l-63.5-32.3-39.9 59.4q-4.1 5.7-10.8 5.7t-10.7-5.7l-40-59.4-63.5 32.3q-7.1 3.1-12.8-1t-6.6-10.8l-5.1-71.2-70.7-4.6q-6.6-0.5-10.7-6.6t-0.6-12.3l32.3-63.5-59.4-39.9q-5.6-4.1-5.6-10.8t5.6-10.7l59.4-40-32.3-63.5q-4.1-6.6 0.6-12.3t10.7-6.6l70.7-4.6 5.1-71.2q0.5-6.6 6.6-10.7t12.8-0.5l63.5 31.2 40-59.4q4.1-5.6 10.7-5.6t10.8 5.6l39.9 59.4 63.5-31.2q7.2-4.1 12.8 0.5t6.6 10.7l4.7 71.2 71.1 4.6q6.7 0.5 10.8 6.6t0.5 12.8z" /></svg>