<svg height="512" width="462.3" xmlns="http://www.w3.org/2000/svg"><path d="m169 36.4q0-22.1 15.8-37.4t37.4-15.9h5.1q111.6 9.7 199.2 82.4 17.4 14.9 18.9 37.9t-14.8 40.5l-15.4 14.8q47.6 69.1 47.6 152.6 0 94.2-58.8 167.9-16.9 20-41.5 20-12.3 0-23.6-5.6-55.3 35.8-118.2 35.8-91.2 0-155.2-64.5t-64.5-155.7q0-76.2 47.6-136.1t121.4-77.4v-59.3z m50.6 439.8q54.3 0 99.4-33.3l-122.9-127v-171q-60.9 9.2-101.9 55.3t-41 108.5q0 69.2 49.2 118.3t117.2 49.2z m2.6-199.2l169.5-170.5q-74.3-62-169.5-70.7v240.7z m5.6 33.8l133.7 135.2q47.6-59.4 47.6-134.7 0-75.8-47.6-135.2z" /></svg>