<svg height="512" width="400.9" xmlns="http://www.w3.org/2000/svg"><path d="m320 55.8q44 0 68.6 38.4t1.5 79.9l-16.9 29.7v172q0 33.3-23.5 56.8t-56.8 23.6h-213q-33.3 0-56.9-23.6t-23.5-56.8v-214q0-33.3 23.5-56.8t56.9-23.6h181.2q23.1-26.1 58.9-26.1z m-23 66.6l-90.2 155.6-54.2-54.3q-7.7-7.6-19.5-7.6-10.7 0-18.4 7.6t-7.7 19 7.7 18.9l79.9 79.9q7.6 7.7 18.4 7.7 15.9 0 23.5-13.3l107.1-186.9q9.2-16.9-3.1-30.2t-31.3-6.7q-9.2 4.6-12.2 10.8z m-4.1 279.5q10.7 0 18.9-7.7t8.2-18.4v-132.6l-60.4 105q-15.4 27.6-46.6 27.6-22 0-37.9-15.9l-79.9-79.8q-15.8-15.9-15.8-37.9t15.8-37.9q15.4-15.4 37.9-15.4t37.9 15.4l30.2 30.2 57.9-98.8h-178.7q-10.8 0-19 7.7t-8.2 18.4v214q0 10.8 8.2 18.4t19 7.7h213z" /></svg>