<svg height="512" width="427.0" xmlns="http://www.w3.org/2000/svg"><path d="m347.1 15.9q33.3 0 56.9 23.5t23.5 56.9v320q0 33.2-23.5 56.8t-56.9 23.5h-266.7q-33.3 0-56.8-23.5t-23.6-56.8v-320q0-33.3 23.6-56.9t56.8-23.5h266.7z m-214 53.2v27.2q0 10.7 8.2 18.9t19 8.2h107q10.7 0 18.4-8.2t7.7-18.9v-27.2h-160.3z m240.1 347.2v-320q0-10.8-7.6-19t-18.5-8.2h-27.1v27.2q0 22-15.4 37.3t-37.8 15.9h-107.1q-22 0-37.3-15.9t-15.9-37.3v-27.2h-27.1q-10.8 0-19 8.2t-8.2 19v320q0 10.7 8.2 18.9t19 8.2h266.7q10.8 0 18.4-8.2t7.7-18.9z m-53.2-27.2h-213q-13.3 0-13.3-12.8 0-5.6 4.1-9.7t9.7-4.1h213q5.6 0 9.7 4.1t4.1 9.7q0 12.8-13.3 12.8z m0-79.9h-213q-5.6 0-9.7-4t-4.1-9.8q0-12.8 13.3-12.8h213q13.3 0 13.3 12.8 0 5.7-4.1 9.8t-9.7 4z m0-79.8h-213q-13.3 0-13.3-12.8 0-5.7 4.1-9.8t9.7-4h213q5.6 0 9.7 4t4.1 9.8q0 12.8-13.3 12.8z" /></svg>