<svg height="512" width="533.0" xmlns="http://www.w3.org/2000/svg"><path d="m399.9 375.8q-10.8 0-19-8.2t-8.2-18.9 8.2-18.5 19-7.6q33.3 0 56.8-23.6t23.6-56.8-23.6-56.9-56.8-23.5q-11.8 0-22 3.1l-28.7 8.2-4.6-29.7q-7.2-38.4-36.4-63.5t-68.6-25.1q-44 0-75.8 31.2t-31.2 75.8q0 7.2 2.6 21l7.1 33.3-38.4-1.6q-20.4 0-35.8 15.9t-15.4 37.4q0 22.5 15.9 37.9t37.9 15.8q10.7 0 18.4 7.7t7.7 18.4-7.7 19-18.4 8.2q-44 0-75.8-31.2t-31.2-75.8q0-37.4 22.5-65.6t57.9-37.3v-3.1q0-66.1 47.1-113.2t113.1-47.1q51.7 0 92.7 29.7t57.9 77.3q58.3-4.6 100.3 35.4t42.5 97.8q0 55.3-38.9 94.2t-94.2 38.9z m-116.8-107l-39.9 93.7 79.9 38.9-120.3 107.5 40.4-93.7-79.9-38.4z" /></svg>