<svg height="512" width="584.2" xmlns="http://www.w3.org/2000/svg"><path d="m359.9 21.5l-26.1 79.9-27.1-79.9q-4.1-10.7 1.5-21.5t16.4-14.3q14.9-5.2 27.7 6.6t7.1 29.7z m143.4 81.4l-75.8 37.9 37.9-75.8q5.1-10.2 16.4-13.8t21.5 1.5q15.9 8.2 15.4 25.1t-15.4 24.6z m43.5 158.7l-79.9-27.1 79.9-26.1q10.8-4.1 21.5 1.5t14.4 15.9q5.1 14.8-6.7 28.2t-29.7 7.6z m-345.1-196.6l37.9 75.8-75.8-37.9q-10.7-5.1-14.3-15.9t1.5-22q8.2-15.8 25.6-15.3t25.1 15.3z m245.8 205.3q38.4 14.9 61.9 48.2t23.6 75.7q0 55.3-38.9 94.2t-94.2 39.5h-293.4q-44 0-75.8-31.3t-31.2-75.7q0-37.4 22.5-65.6t57.9-37.3v-4.1q0-32.3 11.7-60.5-15.3-14.3-4.6-33.8t33.8-12.2q48.7-53.8 119.3-53.8 0.5 0 2.1 0.5t2 0.5q35.4-40.4 89.6-40.4 49.2 0 84.5 35.3t35.3 84.5q0 18.4-5.6 35.8z m-114.2-102.4q-28.1 0-48.6 22.1 56.3 19.9 78.8 77.3 13.3-4.1 30.2-5.2 6.7-14.3 6.7-27.6 0-27.7-19.5-47.1t-47.1-19.5z m66.6 146.5q-4.1 0-14.4 2t-15.3 2.1q-20 0-25.1-19.5-0.5-0.5-1-2.6t-0.5-2.5q-7.2-37.4-35.9-61.5t-66.5-25.6h-0.6q-0.5 0.6-1.5 0.6-44 0-75.8 31.2t-31.2 75.3q0 7.6 2.6 22l6.6 32.2-37.9-0.5q-20.5 0-35.8 15.9t-15.4 37.9 15.9 37.4 37.9 15.8h293.4q33.2 0 56.8-23.5t23.5-56.9-23.5-56.8-56.8-23.5z" /></svg>