<svg height="512" width="533.0" xmlns="http://www.w3.org/2000/svg"><path d="m399.9 442.9h-293.4q-44 0-75.8-31.3t-31.2-75.7q0-37.4 22.5-65.6t57.9-37.3v-4.1q0-66.6 47.1-113.2t113.1-46.6q51.2 0 92.7 29.7t57.9 77.8q58.8-4.6 100.8 34.9t42 97.7q0 55.3-38.9 94.3t-94.2 39.4z m-296-160.8q-20.4 0-35.8 15.9t-15.4 37.9 15.9 37.3 37.9 15.9h293.4q33.3 0 56.8-23.5t23.6-56.9-23.6-56.8-56.8-23.5q-9.8 0-22 4l-28.7 8.2-4.6-29.7q-7.2-38.4-36.4-63.4t-68.6-25.1q-44 0-75.8 31.2t-31.2 75.3q0 7.6 2.6 22l6.6 32.2z" /></svg>