<svg height="512" width="608.8" xmlns="http://www.w3.org/2000/svg"><path d="m193.5 415.7q-33.2 0-56.8-23.5l-136.2-136.2 136.2-137.2q22.5-22.5 56.8-22.5t56.9 22.5q23.5 23.5 23.5 56.8t-23.5 56.8l-23.1 23.6 23.1 23q23.5 23.6 23.5 56.9t-23.5 56.8-56.4 23.6z m-117.7-160.2l98.8 98.8q7.7 7.7 18.9 7.7t19-7.7 7.7-18.9-7.7-19l-60.9-60.9 60.9-61.5q7.7-7.6 7.7-18.9t-7.7-18.9-19-7.7-18.9 7.7z m339.9 160.2q-32.7 0-56.3-23.5t-23.5-56.8 23.5-56.9l23.6-23-23.6-23.6q-23.5-23.5-23.5-56.8t23.5-56.8q22.6-22.6 56.9-22.6t56.8 22.6l136.2 137.2-136.2 136.2q-23.6 23.5-56.8 23.5z m0-266.7q-10.7 0-18.4 7.7t-7.7 18.9 7.7 19l60.9 61.4-60.9 60.9q-7.7 7.7-7.7 19t7.7 18.9 19 7.7 18.9-7.7l98.8-98.8-98.8-99.3q-7.7-7.7-19.5-7.7z" /></svg>