<svg height="512" width="493.1" xmlns="http://www.w3.org/2000/svg"><path d="m286.7 55.8h-79.9l-23 91.7-90.1-26.2-40.5 69.7 68.1 65.5-68.1 65.5 40.5 69.2 90.1-25.6 23 91.1h79.9l22.5-91.1 91.2 25.6 39.9-69.2-68.1-65.5 68.1-65.5-39.9-69.7-91.2 26.2z m0-53.2q17.9 0 32.3 11.2t18.9 29.2l9.7 37.9 37.9-10.8q7.7-2 14.9-2 30.7 0 46.1 27.1l39.9 69.2q9.2 15.8 6.7 33.7t-15.9 30.8l-28.2 27.6 28.2 27.1q12.8 12.8 15.3 30.8t-6.6 33.8l-39.9 69.6q-15.4 26.1-46.1 26.1-7.2 0-14.9-2l-37.9-10.3-9.2 37.9q-4.6 17.9-18.9 29.2t-32.8 11.3h-79.9q-18.4 0-32.7-11.3t-19-29.2l-9.7-37.9-37.4 10.8q-7.7 2-14.8 2-30.7 0-46.1-27.1l-40.5-69.1q-9.2-15.9-6.6-34.3t15.9-31.3l28.1-27.1-28.1-27.1q-12.8-12.8-15.4-31.3t6.7-34.3l40.4-69.1q15.4-27.1 46.1-27.1 7.2 0 14.8 2l37.4 10.8 9.7-37.9q4.6-17.9 19-29.2t32.7-11.3h79.9z m-40.4 200.2q-22.6 0-37.9 15.3t-15.4 37.9 15.4 37.9 37.9 15.3 37.9-15.8 15.8-37.4-15.8-37.4-37.9-15.8z m0-27.2q33.3 0 56.8 23.6t23.6 56.8-23.6 56.8-56.8 23.6-56.9-23.6-23.5-56.8 23.5-56.8 56.9-23.6z" /></svg>