<svg height="512" width="427.0" xmlns="http://www.w3.org/2000/svg"><path d="m356.4 42.5q27.6 0 48.6 21t22 60.9v132.1q0 92.2-63 152.6t-151 60.4-150.5-62.5-62.5-150.5 62.5-151 150.5-63q47.6 0 91.6 20.5 25.1-20.5 51.8-20.5z m-241.2 218.1q0-37.9 27.6-65.5t65.6-27.7q29.7 0 51.2 14.4l-38.9 37.8q-15.9 15.9-10.8 26.2t27.7 10.2h136.2v-132.1q0-28.2-16.9-28.2-10.3 0-22.6 12.3l-30.7 30.8q-41.5-32.8-95.2-32.8-64 0-109.6 45.6-45 45-45 109.5t45 109.6q45.6 45.6 109.6 45.6t109.6-45.6q12.8-12.8 20.9-25.6 9.8-14.9 1.1-31.2t-27.2-16.9q-16.9 0-25.6 14.3-12.3 18.4-33.8 30.7t-45 12.3q-37.9 0-65.6-27.6t-27.6-65.6z m27.1 0q0 27.7 19.5 46.6t46.6 19.5q27.1 0 46.6-20 5.1-5.1 9.2-11.3t6.1-9.7l1.6-3.1h-34.8q-41.5 0-52.8-25.1-10.2-24.5 17.4-51.7l6.7-3q-30.7 0-46.6 15.8-19.5 18.5-19.5 42.5z" /></svg>