<svg height="512" width="640.0" xmlns="http://www.w3.org/2000/svg"><path d="m560.1-24.1q33.3 0 56.9 23.6t23.5 56.8v293.4q0 33.3-23.5 56.8t-56.9 23.6h-160.2v53.2h79.8q10.8 0 19 8.2t8.2 19-8.2 18.9-19 8.2h-320q-10.7 0-18.9-8.2t-8.2-18.9 8.2-19 18.9-8.2h79.9v-53.2h-160.2q-33.3 0-56.9-23.6t-23.5-56.8v-293.4q0-33.3 23.5-56.8t56.9-23.6h480.2z m-186.9 506.4v-53.2h-106.4v53.2h106.4z m214.1-133.1v-293.4q0-10.7-8.2-18.9t-19-8.2h-480.2q-10.8 0-19 8.2t-8.2 18.9v293.4q0 10.7 8.2 18.9t19 8.2h480.2q10.8 0 19-8.2t8.2-18.9z m-53.8-293.4q10.8 0 18.9 7.7t8.2 18.4v214q0 10.8-8.2 18.5t-18.9 7.6h-426.5q-10.7 0-18.9-7.6t-8.2-18.5v-214q0-10.7 8.2-18.4t18.9-7.7h426.5z m0 240.1v-214h-426.5v214h426.5z" /></svg>