<svg height="512" width="480.3" xmlns="http://www.w3.org/2000/svg"><path d="m240.1 162.3q-33.3 0-56.8-23.5t-23.6-56.9 23.6-56.8 56.8-23.6 56.9 23.6 23.5 56.8-23.5 56.9-56.9 23.5z m0-106.5q-10.7 0-18.9 7.7t-8.2 18.4 8.2 19 18.9 8.2 19-8.2 8.2-19-8.2-18.4-19-7.7z m0 453.1q-33.3 0-56.8-23.5t-23.6-56.9 23.6-56.8 56.8-23.5 56.9 23.5 23.5 56.8-23.5 56.9-56.9 23.5z m0-107q-10.7 0-18.9 8.2t-8.2 19 8.2 18.4 18.9 7.7 19-7.7 8.2-18.4-8.2-19-19-8.2z m160.3-66.5h-320q-33.3 0-56.8-23.6t-23.6-56.8 23.6-56.9 56.8-23.5h320q33.3 0 56.8 23.5t23.6 56.9-23.6 56.8-56.8 23.6z m-320-107q-10.8 0-19 8.1t-8.2 19 8.2 18.9 19 8.2h320q10.7 0 18.9-8.2t8.2-18.9-8.2-19-18.9-8.1h-320z" /></svg>