<svg height="512" width="480.3" xmlns="http://www.w3.org/2000/svg"><path d="m365.6 133.1q7.6 7.7 7.6 19t-7.6 18.9l-125.5 124.9-125.4-124.9q-7.7-7.7-7.7-18.9t7.7-19 18.4-7.7q11.8 0 19.5 7.7l60.9 61.5v-178.7q0-10.8 8.2-19t18.9-8.2 19 8.2 8.2 19v178.7l60.9-61.5q7.2-7.1 19.5-7.1 11.7 0 18.4 7.1z m114.1 229.9l0.6 133.1q0 10.8-8.2 19t-19 8.2h-426.5q-10.7 0-18.9-8.2t-8.2-19q0-133.1 0.5-133.1 0-5.6 0.5-8.2l53.8-160.2q6.6-18.5 25.1-18.5h5.6q4.6 9.2 9.7 14.4l40 38.9h-35.9l-44 133.6h370.2l-44.1-133.6h-35.8l39.9-38.9q5.1-5.2 9.8-14.4h5.6q18.4 0 25.1 18.5l53.7 160.2q0.5 2.6 0.5 8.2z" /></svg>