<svg height="512" width="480.3" xmlns="http://www.w3.org/2000/svg"><path d="m240.1 496.1q-99.3 0-169.4-70.6t-70.7-169.5 70.7-169.5 169.4-70.6 169.5 70.6 70.7 169.5-70.7 169.5-169.5 70.6z m0-427q-77.3 0-132.1 54.8t-54.8 132.1 54.8 132.1 132.1 54.8 132.1-54.8 54.8-132.1-54.8-132.1-132.1-54.8z m0 40.5q61 0 104 43t43 103.4-43 103.4-104 43-103.9-43-43-103.4 43-103.4 103.9-43z m119.8 143.8q-1.5-46-32.7-79.8-23.6 32.2-61.5 55.3 9.8 20.4 11.8 26.1 41-9.2 82.4-1.6z m-53.2-97.2q-30.7-20.5-66.6-20.5-10.7 0-31.2 5.1 25.6 29.7 45.1 64 30.7-17.9 53.2-48.6z m-124.4-5.2q-46.6 25.6-58.9 78.4 53.2 10.2 106.5-12.3-20.5-36.4-47.6-66.1z m-62 105q0 46.6 32.3 80.9 37.9-51.7 99.3-74.2-1.5-3.1-3.1-6.7t-3.6-7.7-3-6.6q-41.5 17.9-84.5 17.9-15.9 0-37.4-3.1z m51.7 98.8q31.3 22 68.1 22 17.4 0 36.4-6.6-2.6-40-15.9-82.5-55.8 20-88.6 67.1z m130.1 4.1q45-27.6 55.8-78.3-38.4-7.2-71.7-0.5 12.3 41.4 15.9 78.8z" /></svg>