<svg height="512" width="480.3" xmlns="http://www.w3.org/2000/svg"><path d="m240.1 15.9q99.4 0 169.5 70.6t70.7 169.5-70.7 169.5-169.5 70.6-169.4-70.6-70.7-169.5 70.7-169.5 169.4-70.6z m185.9 220.6q-7.2-68.1-55.8-114.6-41.5 54.2-98.8 87l15.3 34.8q68.6-18.4 138.8-7.2z m-75.8-131q-50.2-36.4-110.1-36.4-27.6 0-55.8 8.2 42.5 48.7 74.8 108 54.2-31.2 91.1-79.8z m-191.5-17.4q-39.9 19.4-67.1 54.7t-35.3 78.9q94.7 15.4 179.2-23.6-32.7-60.4-76.8-110z m-105.5 167.9q0 69.1 45.6 121.9 60.9-89.6 162.8-126-7.1-15.4-14.3-30.2-68.1 32.3-139.8 32.3-25.1 0-53.7-5.2 0 1.6-0.6 4.1t-0.5 4.1z m64 140.3q53.3 46.6 122.9 46.6 32.8 0 65.6-12.3-6.7-76.8-34.9-154.1-96.2 33.8-153.6 119.8z m214.1 23q41.4-23 67.5-64.5t27.7-91.1q-66.6-11.8-130.1 5.1 27.2 71.7 34.9 150.5z" /></svg>