<svg height="512" width="506.9" xmlns="http://www.w3.org/2000/svg"><path d="m494.6 91.6q12.3 12.3 12.3 28.2t-12.3 28.2l-94.7 94.7v240.1q0 10.8-8.2 19t-19 8.2h-346.1q-10.7 0-18.9-8.2t-8.2-19v-346.1q0-10.7 8.2-18.9t18.9-8.2h240.2l94.7-94.8q12.3-12.2 28.1-12.2t28.2 12.2z m-268.3 248.9l167.9-168-57.8-57.8-168 167.9z m-68.6-35.3l2 44 45.6 2z m188.9 151v-160.3l-85 82q-10.2 10.2-32.2 17.4t-41.5 7.1h-81.4v-81.4q0-21 5.6-42.5t15.9-31.2l84.5-85h-160.3v293.9h293.9z m66.6-302.1l34.8-34.8-58.4-58.4-34.8 34.8z" /></svg>