<svg height="512" width="452.1" xmlns="http://www.w3.org/2000/svg"><path d="m320 123.9q58.4 17.4 95.2 65t36.9 110.6q0 76.8-55.3 130.1t-133.6 53.2q-63 0-113.2-37.9t-68.1-96.2h-28.7q-22.5 0-37.8-15.4t-15.4-37.9v-266.7h266.8q22 0 37.3 15.8t15.9 37.9v41z m-213 50.2l128 128q7.7 7.7 18.4 7.7 11.8 0 19.5-7.7t7.7-19-7.7-18.9l-128-128h86.5q10.8 0 18.5-8.2t7.6-18.9-7.6-18.5-18.5-7.7h-178.2v177.2q0 10.7 8.2 18.9t19 8.2 18.9-8.2 8.2-18.9v-86.5z m160.3 256.5q55.3 0 94.2-38.9t38.9-93.7-38.9-93.7-94.2-38.4q-19.5 0-44.1 10.2l68.6 68.6q15.9 15.9 15.9 37.9t-15.9 37.4q-15.8 15.9-37.8 15.9t-37.9-15.9l-76.8-76.8q-5.7 15.9-5.7 53.2 0 55.3 39.5 94.3t94.2 39.4z" /></svg>