<svg height="512" width="506.9" xmlns="http://www.w3.org/2000/svg"><path d="m499.2 197.1q7.7 7.7 7.7 19t-7.7 18.9q-33.8 33.8-72.2 73.2v161.3q0 10.8-8.2 18.9t-18.9 8.2h-373.3q-10.7 0-18.9-8.2t-8.2-18.9v-373.2q0-10.8 8.2-19t18.9-8.2h213q0-22 16.9-37.4t40.5-15.8 42.5 17.4q61.4 65.5 160.2 163.8z m-198.7 163.9q131.1-134.7 141.4-144.9-90.2-91.7-140.8-146-2.1-1.5-4.7-1.5t-4 1.5v105.5h-26.2q-24.5 0-44 8.2t-33.3 21-23.5 31.2-15.9 35.4-9.7 36.3q57.8-51.7 127-52.7h26.1v105.4q1.5 1.6 4.1 1.6 2 0 4.1-2.1z m-247.8 81.9h320v-118.3q-31.2 31.2-52.7 54.3-9.2 10.2-23.6 10.2-12.8 0-21.5-7.7t-8.7-18.4v-79.9q-91.6 2.1-160.2 106.5v-12.8q0-30.7 4.6-60.9t16.4-60.9 29.2-53.8 45.5-37.4 64.5-14.3v-26.1h-214v320z" /></svg>