<svg height="512" width="480.3" xmlns="http://www.w3.org/2000/svg"><path d="m409.6 85.5q70.7 70.7 70.7 170.5 0 99.3-70.7 169.5t-169.5 70.6q-99.8 0-170.5-70.6-69.6-69.7-69.6-169.5 0-100.4 69.6-170.5 69.2-69.6 170.5-69.6 99.9 0 169.5 69.6z m-196.6 138.8q0-31.3 20-53.3t50.1-22h37.4v53.8h-37.4q-6.6 0-11.2 4.6t-4.6 11.2v37.4h53.2v53.2h-53.2v132.1q59.4-7.6 104.9-53.2 55.3-55.3 55.3-132.1 0-78.3-55.3-132.6t-132.1-54.3q-78.3 0-132.6 54.3t-54.3 132.6q0 76.8 54.3 132.1 45.6 45.6 105.5 53.2v-132.1h-53.3v-53.2h53.3v-31.2z" /></svg>