<svg height="512" width="480.3" xmlns="http://www.w3.org/2000/svg"><path d="m240.1 496.1q-99.8 0-170.5-70.6-69.6-69.7-69.6-169.5 0-100.4 69.6-170.5 69.2-69.6 170.5-69.6 99.9 0 169.5 69.6 70.7 70.7 70.7 170.5 0 99.3-70.7 169.5t-169.5 70.6z m0-427q-78.3 0-132.6 54.3t-54.3 132.6q0 76.8 54.3 132.1t132.6 55.3q76.8 0 132.1-55.3t55.3-132.1q0-78.3-55.3-132.6t-132.1-54.3z m-79.8 253.5q-27.7 0-47.1-19.5t-19.5-47.1 19.5-47.1 47.1-19.5 47.1 19.5 19.4 47.1-19.4 47.1-47.1 19.5z m0-106.5q-16.9 0-28.2 11.7t-11.8 28.2 11.8 28.2 28.2 11.7 28.1-11.7 11.8-28.2-11.8-28.2-28.1-11.7z m160.2 106.5q-27.6 0-47.1-19.5t-19.4-47.1 19.4-47.1 47.1-19.5 47.1 19.5 19.5 47.1-19.5 47.1-47.1 19.5z" /></svg>