<svg height="512" width="427.0" xmlns="http://www.w3.org/2000/svg"><path d="m107 367.1q23 8.2 37.9 29.2t14.8 46.6q0 33.3-23.5 56.8t-56.8 23.6-56.9-23.6-23.5-56.8q0-25.6 14.8-46.6t37.9-29.2v-17.9q0-50.2 38.9-85 25.1 20.5 48.7 30.7-33.8 20-33.8 54.3v17.9z m-27.1 101.9q10.7 0 18.9-7.7t8.2-18.4-8.2-19-18.9-8.2-19 8.2-8.2 19 8.2 18.4 19 7.7z m240.1-324.6q-23-8.2-37.9-29.2t-14.8-46.6q0-33.3 23.5-56.8t56.8-23.6 56.9 23.6 23.5 56.8q0 25.6-14.8 46.6t-38.9 29.2v9.2q0 53.8-40.5 92.2-22.5-18.5-48.6-28.7 35.8-22.5 35.8-63.5v-9.2z m27.1-101.9q-10.7 0-18.9 7.7t-8.2 18.4 8.2 19 18.9 8.1 18.5-8.1 7.6-19-7.6-18.4-18.5-7.7z m25.1 324.6q24.6 7.7 40 28.7t15.3 47.1q0 33.3-23.5 56.8t-56.9 23.6-56.8-23.6-23.5-56.8q0-25.1 14.3-45.6t37.4-29.7q-7.2-36.3-36.9-60.9t-68.1-24.6q-60.4 0-105-39.9t-53.2-98.8q-24.6-7.7-39.9-28.7t-15.4-47.1q0-33.3 23.6-56.8t56.8-23.6 56.8 23.6 23.6 56.8q0 25.1-14.4 45.6t-37.3 29.6q7.1 36.4 36.3 61t68.1 24.6q60.4 0 105.5 39.9t53.2 98.3z m-291.8-324.6q-10.8 0-19 7.7t-8.2 18.4 8.2 19 19 8.1 18.9-8.1 8.2-19-8.2-18.4-18.9-7.7z m266.7 426.5q10.8 0 18.5-7.7t7.6-18.4-7.6-19-18.5-8.2-18.9 8.2-8.2 19 8.2 18.4 18.9 7.7z" /></svg>