<svg height="512" width="480.3" xmlns="http://www.w3.org/2000/svg"><path d="m399.9 95.7q33.3 0 56.8 23.6t23.6 56.8v213q0 33.3-23.6 56.9t-56.8 23.5h-320q-33.3 0-56.9-23.5t-23.5-56.9v-266.2q0-33.3 23.5-56.9t56.9-23.5h107q22 0 37.4 15.9t15.8 37.3h160.3z m0 320q10.7 0 18.9-8.1t8.2-19v-186.4h-107q-5.1 0-9.2-4.1t-4.1-9.2 4.1-9.2 9.2-4.1h107q0-10.7-8.2-18.9t-18.9-8.2h-160.3q-22.5 0-37.9-15.9t-15.3-37.4h-107q-10.8 0-19 8.2t-8.2 19v53.2h107q5.2 0 9.2 4.1t4.1 9.2-4.1 9.2-9.2 4.1h-107v186.4q0 10.8 8.2 19t19 8.1h320z m-79.9-160.2q10.8 0 18.9 8.2t8.2 18.9-8.2 18.5-18.9 7.6h-53.2v53.8q0 10.7-8.2 18.4t-19 7.7-18.9-7.7-8.2-18.4v-53.8h-53.3q-10.7 0-18.9-7.6t-8.2-18.5 8.2-18.9 18.9-8.2h53.3v-53.3q0-10.7 8.2-18.9t18.9-8.2 19 8.2 8.2 18.9v53.3h53.2z" /></svg>