<svg height="512" width="480.3" xmlns="http://www.w3.org/2000/svg"><path d="m240.1 496.1q-99.3 0-169.4-70.6t-70.7-169.5 70.7-169.5 169.4-70.6 169.5 70.6 70.7 169.5-70.7 169.5-169.5 70.6z m0-427q-77.3 0-132.1 54.8t-54.8 132.1 54.8 132.1 132.1 54.8 132.1-54.8 54.8-132.1-54.8-132.1-132.1-54.8z m24.6 227.3q0-9.2 4.6-16.3t12.3-7.2q7.2 0 11.8 7.2t4.6 16.3-4.6 15.9-12.3 7.2-12.3-7.2-4.6-15.9z m-46.6 61q-97.3 0-97.3-94.7 0-29.7 19.5-50.7-2.6-1.6-0.5-21t9.2-36.4q25.6 3.1 59.4 27.2 12.8-3.1 32.8-3.1 20.9 0 32.7 3.1 32.3-22.6 53.3-25.6l6.6-1.6q7.2 17.4 9.2 36.4 2.1 19.9-0.5 21 19.5 21 19.5 50.7 0 94.7-97.3 94.7-1.5 0-10.7 0.5t-11.8 0.5-11.3-0.5-11.3-0.5z m23.1-11.8q44 0 65.5-10.2 22.5-10.8 22.5-43 0-14.4-9.2-25.6t-22.5-14.4q-5.7-0.5-30.2 0.5t-26.1 1.6q-7.2 0-20.5-1.1t-22-1.5-17.5 1.5-14.8 7.2q-13.3 11.8-13.3 31.2 0 32.8 22 43 21 10.3 65.5 10.3h1.6z m-41.5-73.2q7.1 0 11.8 7.2t4.6 16.3-4.6 15.9-11.8 7.2q-7.7 0-12.3-7.2t-4.6-15.9 4.6-16.3 12.3-7.2z" /></svg>