<svg height="512" width="373.2" xmlns="http://www.w3.org/2000/svg"><path d="m224.8 318.5q0-14.4 7.1-25.1t19.5-11.3q11.8 0 18.9 11.3t7.2 25.1-7.2 25.1-18.9 11.2q-12.3 0-19.5-11.2t-7.1-25.1z m-37.9 95.2q-3.1 0-17.9-0.5t-17.4-0.5q-73.8 0-112.7-37.4t-38.9-110.6q0-45.6 30.2-78.8-2.6-2.1 0-32.3 3.1-33.3 12.8-56.8 37.4 4.1 92.7 42.5 19.4-5.2 51.2-5.2 32.7 0 51.2 5.2 23.5-16.9 48.1-27.7 23.6-10.7 33.8-12.8l10.2-2q10.3 25.6 13.4 56.8 2.5 29.7-0.6 32.3 30.2 33.2 30.2 78.8 0 82.4-50.1 119.8-38.4 28.2-101.9 28.2-2.6 0-16.9 0.5t-17.4 0.5z m0.5-18.4q68.1 0 101.9-15.9 34.8-15.9 34.8-66.6 0-22-14.3-40.4t-34.9-22q-9.2-1.6-48.1 0.5t-39.9 2q-10.8 0-31.8-1.5t-33.2-1.5-27.2 3-23.5 10.8q-21 19.4-21 48.6 0 50.7 33.8 66.6 32.7 15.9 101.3 15.9h2.1z m-64.5-113.2q11.8 0 18.4 11.3t7.2 25.1-7.2 25.1-18.4 11.2q-12.3 0-20-11.2t-7.7-25.1 7.7-25.1 20-11.3z" /></svg>