<svg height="512" width="480.3" xmlns="http://www.w3.org/2000/svg"><path d="m240.1 15.9q99.4 0 169.5 70.6t70.7 169.5-70.7 169.5-169.5 70.6-169.4-70.6-70.7-169.5 70.7-169.5 169.4-70.6z m53.3 53.7v-19.9q-27.2-7.2-53.3-7.2-48.1 0-90.1 20t-72.2 55.3l-14.3 17.9-9.7 15.3 78.8 78.9q0-3.1 0.5-7.7t7.2-11.8 18.9-7.1v53.2l53.3 53.8v53.2q25.1 0 35.8 0.5t23.6 3.1 16.9 8.2 4.1 15.4q16.9-8.2 22.5-11.8t14.3-10.8 9.8-11.2 4.1-16.9 2.5-23.1v-33.8l26.1-27.1-26.1-26.1v53.2h-27.1q0 10.8-8.2 19t-19 8.2-18.4-8.2-7.7-19 7.7-18.9 18.4-8.2v-79.9q0-10.7-7.6-18.4t-18.5-7.7-18.9 7.7-8.2 18.4q0 22.6-3.1 38.9t-6.6 24.1-7.7 11.8-6.7 4.6l-3 0.5v-79.9q0-22 10.7-37.3t29.7-15.9 29.7-15.9 10.2-37.4z" /></svg>