<svg height="512" width="586.8" xmlns="http://www.w3.org/2000/svg"><path d="m567.3 219.1q20 15.4 20 41 0 22-15.9 37.4t-37.9 15.8h-26.1v160.3q0 22.5-15.9 37.9t-37.9 15.9h-320q-22 0-37.3-15.9t-15.9-37.9v-160.3h-27.2q-22.5 0-37.8-15.8t-15.4-37.4q0-23.6 18.4-40.5 40.5-33.7 104.5-89t108-92.7 45.1-38.4l17.4-14.9 17.9 14.9q0.5 0.5 44.5 38.4t108.1 92.7 103.9 88.5z m-220.2 254v-133.1h-107v133.1h107z m106.5-213h79.9q-118.3-99.3-240.1-204.8-121.9 105.5-240.2 204.8h79.9v213h79.9v-160.3h160.2v160.3h79.9v-213z" /></svg>