<svg height="512" width="573.4" xmlns="http://www.w3.org/2000/svg"><path d="m520.2 255.5q0-47.6-34.3-81.4t-80.9-33.8q-48.1 0-81.4 33.3l-37.4 35.8-36.3-35.3q-33.8-33.8-82-33.8-46.6 0-80.9 33.8t-34.3 81.4 34.3 81.4 80.9 33.8q48.2 0 81.4-33.3l37.4-35.8 36.4 35.8q33.3 33.3 81.4 33.3 47.6 0 81.4-34.3t34.3-80.9z m-115.2-168.5q69.6 0 119.3 49.2t49.1 119.3-49.1 119.3q-50.2 50.2-119.3 50.2-69.6 0-118.3-48.7-48.6 48.7-118.3 48.7-69.1 0-119.2-50.2-49.2-49.2-49.2-119.3t49.2-119.3 119.2-49.2q70.7 0 118.3 48.2 48.1-48.2 118.3-48.2z m-258.6 168.5q0 9.2 6.7 15.3t15.3 6.7 15.4-6.7l16.9-15.3-15.4-14.9q-7.1-7.1-16.9-7.1-9.2 0-15.3 6.6t-6.7 15.4z m-27.1 0q0-20 14.3-34.3t34.3-14.4q20.5 0 35.4 14.9l35.3 33.8-35.8 34.8q-13.4 13.3-34.9 13.3-19.9 0-34.3-14.3t-14.3-33.8z m307.2 0q0-9.2-6.1-14.9t-15.9-6.1q-10.3 0-15.9 5.6l-15.9 15.4 15.4 14.8q7.2 7.2 16.9 7.2 9.2 0 15.4-6.7t6.6-15.3z m26.1 0q0 20-14.3 33.8t-33.8 14.3q-21 0-35.3-14.3l-35.4-33.8 35.9-33.8q14.3-14.3 34.8-14.3 19.9 0 33.8 14.3t14.3 33.8z" /></svg>