<svg height="512" width="453.1" xmlns="http://www.w3.org/2000/svg"><path d="m453.1 229.4q0 92.1-55.8 164.8t-143.9 96.3v32.8q0 10.7-8.2 18.4t-18.9 7.7-18.9-7.7-8.2-18.4v-32.8q-88.6-23.6-143.9-96.3t-55.8-164.8q0-97.8 63-173.1t159.2-93.2l4.6-0.5 5.1 0.5q96.8 18 159.3 93.2t62.4 173.1z m-199.7 205.3q65.6-22.5 106-78.9t40.5-126.9q0-77.3-49.2-137.3t-124.4-75.2q-75.8 15.3-124.4 75.2t-49.2 137.3q0 69.6 41 126.4t106.5 78.9v-79.9l-116.7-115.7q-5.7-5.6-3.1-12.8t9.2-9.2 13.3 3l97.3 97.3v-96.2l-63.5-63q-5.6-5.6-3.1-12.8t9.2-9.2 13.4 3.1l43.5 43.5v-87.6q0-10.7 8.2-18.9t18.9-8.2 19 8.2 8.2 18.9v87.6l43.5-43.5q5.6-5.7 13.3-3.1t9.2 9.2-3.1 12.8l-62.9 63v96.2l97.2-97.3q9.2-9.2 18.5 0.6t0.5 18.4l-115.7 115.7v79.9z" /></svg>