<svg height="512" width="453.1" xmlns="http://www.w3.org/2000/svg"><path d="m226.8 29.2q93.7 0 160.3 66.5t66.5 160.3-66.5 160.3-160.3 66.5-160.2-66.5-66.6-160.3 66.6-160.3 160.2-66.5z m173.6 226.8q0-41.5-19.5-78.8l-51.2 51.2q4.1 13.3 4.1 27.6t-4.1 27.6l51.2 51.2q19.5-37.3 19.5-78.8z m-347.2 0q0 41.5 19.5 78.8l51.7-51.7q-4.1-13.3-4.1-27.1 0-14.3 4.1-27.6l-51.7-51.2q-19.5 37.3-19.5 78.8z m82-53.8q14.3-23.5 37.9-37.8l-47.7-47.7-37.8 37.9z m37.9 145.4q-23.1-12.8-37.9-37.8l-47.6 47.6 37.8 37.9z m15.8-53.7q15.4 15.3 37.9 15.3t37.4-15.3q15.9-15.9 15.9-37.9t-15.9-37.4-37.9-15.8q-22 0-37.4 15.8t-15.8 37.4q0 22.5 15.3 37.9z m176.7-138.8l-37.9-37.9-47.6 47.7q23.5 14.3 37.9 37.9z m-47.6 155.2q-14.9 25.1-37.9 37.9l47.6 47.6 37.9-37.9z m-12.8-207.9q-37.4-19.5-78.9-19.5t-78.8 19.5l51.7 51.7q15.3-4.6 27.1-4.6t27.7 4.6z m-157.7 308.7q37.3 19.5 78.8 19.5t78.9-19.5l-51.2-51.7q-15.9 4.6-27.7 4.6t-27.1-4.6z" /></svg>