<svg height="512" width="399.9" xmlns="http://www.w3.org/2000/svg"><path d="m199.7 95.7q32.7 0 55.8 23.6t23.5 55.8q0 5.6-4.1 9.7t-9.7 4.1-9.7-4.1-4.1-9.7q0-22-15.4-37.4t-37.3-15.3q-12.8 0-12.8-13.3t12.8-13.4z m0 440.4q-10.8 0-18.5-8.2t-7.6-19h-53.3q-10.7 0-18.9-8.2t-8.2-18.9v-79.9q0-15.9-11.8-38.9t-46.1-73.2q-35.8-49.2-35.8-114.7 0-82.4 58.4-141.3t141.3-58.4 141.3 58.4 58.9 141.3q0 62-36.4 114.7-34.8 49.1-45.6 72.2t-11.2 39.9v79.9q0 10.7-7.7 18.9t-18.4 8.2h-53.8q0 10.8-8.2 19t-18.9 8.2z m53.7-79.9v-27.1h-107v27.1h107z m66.6-196.1q27.1-38.9 27.1-84.5 0-60.4-43-103.4t-103.9-43q-60.4 0-103.4 43t-43 103.4q0 45.1 27.1 84 54.3 79.3 63.5 116.7h30.2v-53.7q0-10.8 7.7-18.5t18.4-7.7 18.9 7.7 8.2 18.5v53.7h29.7q8.2-36.3 64-115.7z" /></svg>