<svg height="512" width="485.4" xmlns="http://www.w3.org/2000/svg"><path d="m402.4 66.6q-12.3 0-20.4 8.2l-46.1 46-8.2-8.2q-23.1-23-58.4-23t-58.4 23l-111.6 111.7q-24.5 24.5-24.5 58.8 0 33.8 24.5 58.4l7.7 8.2-45.6 45.6q-8.2 8.2-8.2 20.4t8.2 21q9.3 9.3 20.5 9.3 12.3 0 21-9.3l45.6-46 8.2 8.1q24.5 24.6 58.9 24.6 33.7 0 58.3-24.6l111.6-111.6q23.6-23.5 23.6-58.3t-23.6-58.4l-8.2-8.2 46.1-46.1q9.2-9.2 9.2-21t-9.2-20.4q-8.2-8.2-21-8.2z m-320 432.1q-33.8 0-58.3-24.6t-24.6-57.8q0-34.9 24.6-58.9l12.8-12.8q-14.9-29.7-14.9-61.5 0-56.8 40-96.7l111.6-111.6q38.9-39 96.2-39 33.3 0 61.5 14.9l13.3-13.3q23.5-23.6 58.3-23.6 33.8 0 58.4 24.6t24.6 57.9q0 35.3-24.6 58.3l-12.8 12.8q15.4 30.7 15.4 62 0 55.8-40.5 96.2l-110.6 111.6q-39.9 40-96.7 40-32.8 0-62-14.9l-12.8 12.8q-24.6 24.6-58.4 24.6z m212-240.1q-22-0.6-37.9-16.9t-16.9-37.9l-48.6 49.1q22 0.5 37.4 16.4t16.3 37.4z m-25.1-111.7q9.7 0 16.9 7.2l8.2 8.2-19.5 19.5q-9.2 9.2-9.2 21t9.2 20.4q8.2 8.2 20.5 8.2 12.8 0 21-8.2l19.5-19.4 8.2 8.2q7.1 7.1 7.1 16.9 0 10.2-7.1 17.4l-111.7 110.6q-7.1 7.1-16.8 7.1-10.3 0-17.5-7.1l-8.1-7.7 19.4-19.5q9.2-9.2 9.2-21t-9.2-20.4q-9.2-9.3-20.5-9.3-12.3 0-21 9.3l-19.4 19.4-8.2-8.2q-6.7-6.6-6.7-16.9 0-10.7 6.7-17.4l111.6-111.6q7.2-7.2 17.4-7.2z" /></svg>