<svg height="512" width="453.1" xmlns="http://www.w3.org/2000/svg"><path d="m152.6 375.8q0-34.8 34.8-34.8t34.8 34.8-34.8 34.8-34.8-34.8z m-152.6-133.1q0-22 15.4-37.4t37.8-15.9h79.9v26.2h107v-79.9q0-35.3 18.5-60.4t47.1-37.4q19.4-8.2 41.4-8.2 43.6 0 74.8 31.2t31.2 74.8v79.9q0 10.7-7.7 18.9t-18.4 8.2-18.9-8.2-8.2-18.9v-79.9q0-22.5-15.9-37.9t-37.4-15.4q-22.5 0-37.9 15.9t-15.8 37.4v53.7h27.1q22 0 37.4 15.9t15.8 37.4v186.9q0 22-15.8 37.3t-37.4 15.9h-266.8q-22.5 0-37.8-15.9t-15.4-37.3v-186.9z m320 186.9v-186.9h-266.8v186.9h266.8z" /></svg>