<svg height="512" width="373.2" xmlns="http://www.w3.org/2000/svg"><path d="m152.6 375.8q0-34.8 34.8-34.8t34.8 34.8-34.8 34.8-34.8-34.8z m34.8-346.1q43.5 0 74.7 31.2t31.3 74.8v53.7h27.1q22 0 37.4 15.9t15.9 37.4v186.9q0 22-15.9 37.3t-37.4 15.9h-266.7q-22.6 0-37.9-15.9t-15.4-37.3v-186.9q0-22 15.4-37.4t37.9-15.9h27.1v-53.7q0-30.7 14.8-54.8t37.9-37.4q24.6-14.3 53.8-14.3z m0 53.2q-22.5 0-37.9 15.9t-15.9 37.4v79.9h107v-79.9q0-22.5-15.8-37.9t-37.4-15.4z m133.1 347.2v-186.9h-266.7v186.9h266.7z" /></svg>