<svg height="512" width="427.0" xmlns="http://www.w3.org/2000/svg"><path d="m333.3 228.9h-40.4v53.7h40.4q38.4 0 66.1 27.7t27.6 66-27.6 65.6-66.1 27.1-66-27.1-27.7-65.6v-40.4h-53.2v40.4q0 38.4-27.7 65.6t-66 27.1-66.1-27.1-27.6-65.6 27.6-66 66.1-27.7h39.9v-53.7h-39.9q-38.4 0-66.1-27.7t-27.6-66 27.6-65.6 66.1-27.1 66 27.1 27.7 65.6v40.4h53.2v-40.4q0-38.4 27.7-65.6t66-27.1 66.1 27.1 27.6 65.6-27.6 66-66.1 27.7z m-40.4-93.7v40.4h40.4q15.9 0 27.7-11.8t11.7-28.6-11.7-28.2-27.7-11.8q-16.9 0-28.7 11.8t-11.7 27.7z m-160.3 240.6v-40.4h-39.9q-16.9 0-28.7 11.7t-11.8 28.7q0 15.9 11.8 27.7t28.7 11.7 28.1-11.7 11.8-28.2z m0-200.2v-40.4q0-16.9-11.8-28.2t-28.1-11.8-28.7 11.8-11.8 27.7q0 16.9 11.8 28.6t28.7 11.8h39.9z m107 107v-53.7h-53.2v53.7h53.2z m93.7 53.3h-40.4v40.4q0 15.9 11.7 27.7t28.7 11.7q15.9 0 27.7-11.7t11.7-28.2-11.7-28.7-27.7-11.7z" /></svg>