<svg height="512" width="613.4" xmlns="http://www.w3.org/2000/svg"><path d="m399.9-10.8q32.7 0 56.3 23.6t23.5 56.3v4.6q57.9 14.9 95.3 65.6t37.9 116.7q0 77.3-54.3 132.1t-132.1 54.8h-27.1q-30.8 0-53.3-20.5l-76.8 76.8q-23.5 23.6-56.8 23.6-32.8 0-56.3-23.6t-23.6-56.3q0-0.5 0.5-2.6t0.5-2.5q-57.8-14.9-95.7-65.6t-37.9-116.2q0-77.3 54.8-132.1t132.1-54.3h26.1q30.7 0 53.2 20.5l77.4-77.3q23-23 56.3-23z m27.1 399.9q55.3 0 94.2-39.4t38.9-94.2-35.3-94.2-84.5-38.9h-55.8l33.8-34.8q7.7-7.7 7.7-19t-7.7-18.9-18.4-7.7-18.5 7.7l-99.3 99.3 99.3 98.8q7.7 7.7 18.5 7.7t18.4-7.7 7.7-18.9-7.7-19l-33.8-34.8h55.8q27.7 0 47.1 23.6t19.5 56.8-23.6 56.8-56.8 23.6h-27.1q-10.8 0-19 8.2t-8.2 18.9 8.2 19 19 8.1h27.1z m-266.7-107q0-22 15.8-37.4t37.4-15.8q22.5 0 37.9 15.3l99.3 99.4q5.7-15.4 19.5-25.1t30.7-9.8h27.1q22 0 37.4-15.8t15.9-37.9q0-19.5-9.7-34.3t-23.6-18.5q6.7 10.8 6.7 26.2 0 22-15.9 37.3t-37.4 15.9q-22.5 0-37.9-15.4l-99.3-99.3q-5.6 15.4-19.5 25.1t-30.7 9.7h-26.1q-22.5 0-37.9 15.9t-15.9 37.4q0 19.4 9.8 34.3t23.5 18.4q-6.6-10.7-6.6-25.6z m79.8-133.1q0-10.8-8.2-19t-18.9-8.1h-26.1q-55.3 0-94.2 38.9t-39.5 94.2 35.4 94.2 85 39.4h55.8l-34.8 34.8q-7.7 7.7-7.7 18.5t7.7 18.4q8.2 8.2 18.4 8.2 10.7 0 19.4-8.2l98.9-98.8-98.9-98.8q-8.1-8.2-19.4-8.2-10.2 0-18.4 8.2-7.7 7.6-7.7 18.4t7.7 18.4l34.8 34.8h-55.8q-27.7 0-47.1-23.5t-19.5-56.8 23.6-56.9 56.8-23.5h26.1q10.8 0 18.9-7.7t8.2-18.4z" /></svg>