<svg height="512" width="613.4" xmlns="http://www.w3.org/2000/svg"><path d="m399.9 29.2q32.7 0 56.3 23.5t23.5 56.4v4.6q57.9 14.8 95.3 65.5t37.9 116.7q0 77.3-54.3 132.1t-132.1 54.8h-240.1q-77.3 0-132.1-54.8t-54.8-132.1 54.8-132.1 132.1-54.2h26.1q31.2 0 53.2 19.9l77.3-76.8q23.1-23 56.4-23z m27.1 399.9q55.3 0 94.2-39.5t38.9-94.2-35.3-94.2-84.5-38.9h-55.8l33.8-34.8q7.7-7.7 7.7-19t-7.7-18.9-18.4-7.7-18.5 7.7l-99.3 99.3 99.3 98.8q7.7 7.7 18.5 7.7t18.4-7.7 7.7-18.9-7.7-18.9l-33.8-34.9h55.8q27.7 0 47.1 23.6t19.5 56.8-23.6 56.9-56.8 23.5h-240.1q-33.3 0-56.9-23.5t-23.5-56.9 23.5-56.8 56.9-23.6h26.1q10.7 0 18.9-7.6t8.2-18.5-8.2-18.9-18.9-8.2h-26.1q-55.3 0-94.2 38.9t-39.5 94.2 39.5 94.2 94.2 39.4h240.1z m26.1-160.3q0 22-15.9 37.4t-37.3 15.8q-22.6 0-37.9-15.3l-99.3-99.3q-5.7 15.3-19.5 25t-30.7 9.8h-26.1q-22.6 0-37.9 15.8t-15.9 37.4q0 22.6 15.9 37.9t37.9 15.9h240.1q22 0 37.4-15.9t15.8-37.9q0-19.4-9.7-34.3t-23.5-18.4q6.6 10.7 6.6 26.1z" /></svg>