<svg height="512" width="480.3" xmlns="http://www.w3.org/2000/svg"><path d="m359.9 122.9q49.2 0 85 38.9t35.4 94.2-39 94.2-94.2 38.9q-10.7 0-18.9-7.7t-8.2-18.4 8.2-18.9 18.9-8.2q33.3 0 56.9-23.6t23.5-56.8-19.9-56.8-47.7-23.6h-55.3l33.8 34.8q7.7 7.7 7.7 19t-7.7 18.9-18.4 7.7-18.4-7.7l-99.4-99.3 99.4-98.8q7.6-7.7 18.4-7.7t18.4 7.7 7.7 18.9-7.7 19l-33.8 34.8h55.3z m-218.1 140.8q7.7-7.7 18.5-7.7t18.4 7.7l99.3 99.3-99.3 98.8q-7.7 7.7-18.4 7.7t-18.5-7.7-7.7-18.9 7.7-19l33.8-34.8h-55.3q-49.1 0-85-38.9t-35.3-94.2 38.9-94.2 94.2-38.9q10.8 0 19 7.7t8.2 18.4-8.2 18.9-19 8.2q-33.3 0-56.8 23.6t-23.6 56.8 20 56.8 47.6 23.6h55.3l-33.8-34.8q-7.7-7.7-7.7-19t7.7-18.9z" /></svg>