<svg height="512" width="427.0" xmlns="http://www.w3.org/2000/svg"><path d="m27.1 482.8q-11.7 0-19.4-8.2t-7.7-18.4v-266.8q0-10.7 7.7-18.4l120.3-120.3q7.2-7.2 17.4-7.7t17.9 5.6l114.7 91.7 104-102.9q12.8-12.8 29.1-5.1t16.4 24.5v266.3q0 10.7-8.2 19.4l-119.8 119.8q-7.1 7.2-17.4 7.7t-18.4-5.6l-114.7-91.7-102.9 102.9q-7.7 7.7-18.5 7.7z m26.1-91.1q78.4-76.8 79.9-78.4v-193.5l-79.9 79.9v191.5z m110.1-76.3l104 82.4v-199.1l-107-84.5v199.1q0.5 0.6 1.5 1.6t1.5 0.5z m209.9-4.1v-191.5q-78.3 77.3-79.8 78.9v192.5z" /></svg>