<svg height="512" width="501.8" xmlns="http://www.w3.org/2000/svg"><path d="m403.5 157.2l98.8 98.8-98.8 98.8q-8.2 8.2-18.5 8.2-10.7 0-19.4-8.2-7.7-7.7-7.7-18.4t7.7-18.4l34.8-34.9h-122.4v122.4l34.8-34.8q7.7-7.7 19-7.7t18.9 7.7 7.7 18.9-7.7 19l-99.3 98.8-98.8-98.8q-7.7-7.7-7.7-19t7.7-18.9 18.9-7.7 19 7.7l34.8 34.8v-122.4h-122.4l33.8 34.9q7.7 7.6 7.7 18.4t-7.7 18.4q-8.2 8.2-18.4 8.2-10.8 0-19.5-8.2l-98.8-98.8 98.8-98.8q7.7-7.7 19-7.7t18.9 7.7 7.7 18.4-7.7 18.4l-33.8 34.9h122.4v-122.4l-34.8 34.8q-7.7 7.7-19 7.7t-18.9-7.7-7.7-18.9 7.7-19l98.8-98.8 99.3 98.8q7.7 7.7 7.7 19t-7.7 18.9-19.4 7.7q-10.8 0-18.5-7.7l-34.8-34.8v122.4h122.4l-34.8-34.9q-7.7-7.6-7.7-18.4t7.7-18.4 18.9-7.7 19 7.7z" /></svg>