<svg height="512" width="427.0" xmlns="http://www.w3.org/2000/svg"><path d="m373.2 27.1q22.1 0 37.9 15.9t15.9 37.4v270.8q0 44.1-35.3 75.3t-85 31.2q-47.6 0-81.4-28.6-15.4 25.6-43.5 40.4t-61.5 14.9q-49.1 0-85-31.3t-35.3-75.8q0-33.7 22.5-61.9t57.9-38.9v-162.8q0-20.5 13.3-35.4t33.3-17.4l240.1-33.3q0.5 0 3.1-0.5t3-0.5z m-160.2 324.1q0-30.2 22.5-52.7t57.4-27.1v-46.1l-79.9 11.8v114.1z m160.2 0v-270.8l-240.1 33.8v211.4q-9.2-1.5-12.8-1.5-28.1 0-47.6 15.9t-19.5 37.3q0 22.6 20 37.9t47.6 15.9 47.1-15.9 19.5-37.9v-163.3l133.1-20v104.5q-9.2-1.5-13.3-1.5-27.6 0-47.1 15.8t-19.5 37.9 19.5 37.9 47.1 15.4 47.1-15.4 19.5-37.9z" /></svg>