<svg height="512" width="507.9" xmlns="http://www.w3.org/2000/svg"><path d="m387.1 2q49.1 0 85 35.9t35.8 85q0 14.3-4.6 32.2 12.8 40-15.9 68.6l-119.8 120.4q-19.4 19.4-47.6 19.4h-2l-57.9 57.9q-15.9 15.8-40.5 25.6-6.6 2.5-184.8 61.9-5.1 1.6-8.2 1.6-13.3 0-22-10.8t-4.1-23.5q59.4-178.7 62-184.9 9.7-24.5 26.1-40.9 211.9-211.5 212.5-212 36.3-35.3 84.4-35.3z m-195.1 398.4l-81.4-81.4q-1.5 4.1-7.7 22.5t-10.7 32.3l45.5 45.5q22.6-7.1 54.3-18.4z m-109.6 1.5q-4.6 12.8-13.3 40l40.5-13.4z m205.3-83.4q-7.6-11.8-6.6-25.6t11.3-24.6l98.8-98.8-73.2-73.2-190 190.9q-3.1 3.1-5.1 5.7l94.2 94.2q0.5-0.5 3.1-2.1t3.5-2.5z m161.8-132.6q9.3-9.3-0.5-18.5t-18.4-0.5l-120.3 119.8q-6.7 6.7-2.6 14.9t12.3 8.2q5.6 0 9.7-4.1z m-40.4-34.9q20-19.9 43.5-12.2 2.1-7.7 2.1-15.9 0-27.7-20-47.6-21-20-49.7-19t-49.1 21.5z" /></svg>