<svg height="512" width="480.3" xmlns="http://www.w3.org/2000/svg"><path d="m399.9 89.1q32.7 0 56.3 23.5t23.5 56.4q0 33.2-23.5 56.8-24.6 25.1-56.3 38.9v110.6q0 33.3-23.6 56.8t-56.8 23.6-56.8-23.6-23.6-56.8q0 33.3-23.5 56.8t-56.9 23.6-56.8-23.6-23.6-56.8v-127q-32.7 0-56.3-23.5t-23.5-56.4 23.5-56.3q56.8-56.8 136.2-56.8t136.2 56.8q9.7 9.8 23.6 9.8t23.5-9.8q23.6-23.5 56.3-23.5z m18.4 99.3q7.7-7.7 7.7-18.9t-7.7-19q-8.2-8.2-18.4-8.2t-18.5 8.2q-25 25.1-61.4 25.1t-61.4-25.1q-41-40.9-98.9-40.9t-98.8 40.9q-7.7 7.7-7.7 19t7.7 18.9 18.5 7.7 18.4-7.7q15.4-15.3 34.8-21v208.9q0 10.8 8.2 19t18.9 8.2 19-8.2 8.2-19v-208.9q19.4 5.7 34.8 21 29.7 29.7 71.7 37.9v150q0 10.8 8.2 19t18.9 8.2 19-8.2 8.1-19v-150q42.5-8.2 71.7-37.9z" /></svg>