<svg height="512" width="533.0" xmlns="http://www.w3.org/2000/svg"><path d="m107 188.9q0-66.5 66.6-66.5t66.5 66.5-66.5 66.6-66.6-66.6z m266.2 40.5q21 0 40 31.2 26.1 47.6 40.4 128.5h-373.2l8.2-27.1q9.2-27.7 28.6-53.8t43.1-26.1q27.6 0 64.5 20 12.8 7.1 28.6 7.1 19.5 0 44.1-28.1 29.7-33.3 46.6-43.5 14.3-8.2 28.6-8.2z m-373.2-133.7q0-22 15.4-37.3t37.8-15.9h427.1q22 0 37.3 15.9t15.9 37.3v320q0 22.6-15.9 37.9t-37.3 15.9h-427.1q-22 0-37.3-15.9t-15.9-37.9v-320z m480.3 320v-320h-427.1v320h427.1z" /></svg>