<svg height="512" width="320.0" xmlns="http://www.w3.org/2000/svg"><path d="m169.5 49.2q66 0 108 40.4t42.5 95.2q0 71.2-35.8 117.3t-92.2 46.1q-18.4 0-35.3-9.3t-23.1-20.9q-13.3 55.2-16.9 65.5-10.2 37.4-43 78.3-4.1 4.1-5.1-1.5-7.7-54.3 0.5-90.1l30.2-130.1q-7.7-14.8-7.7-37.3 0-26.2 13.4-44.1t32.7-17.4q15.4 0 23.6 9.7t8.2 25.1q0 9.8-3.6 23.6t-9.2 32.2-8.2 29.2q-4.6 18.5 7.1 32.3t30.8 13.8q32.7 0 53.7-37.4t21-89.6q0-40.4-26.1-65.5t-72.7-25.1q-52.7 0-85 33.8t-32.2 80.4q0 27.6 15.8 46.6 5.1 6.6 3.1 12.8-0.5 1.5-1.5 6.6t-1.6 7.7-2.5 6.7-4.6 4.1-6.7-0.6q-48.6-19.9-48.6-90.1 0-56.3 45.5-102.4t124.4-46z" /></svg>