<svg height="512" width="490.5" xmlns="http://www.w3.org/2000/svg"><path d="m459.8 41.5q30.2 30.2 30.2 78.3t-32.3 74.8q-27.1 21-97.3 47.6l43.1 43q7.6 7.7 7.6 18.9t-7.6 19-18.5 7.7q-11.8 0-19.4-7.7l-7.7-7.7-139.8 139.8q-15.9 15.8-40.4 25.6-0.5 0.5-14.9 5.6t-39.9 10.2-46.6 5.7q-39.9 0-58.4-18.5-12.3-12.2-16.4-32.7t-2-41.5 7.2-40.4 8.7-31.3 4.6-12.8q9.7-24.6 26.1-40.9l139.8-139.8-8.2-7.7q-7.7-7.7-7.7-18.9t7.7-19 18.9-7.7 19 7.7l43.5 43.5q27.1-71.6 46.6-97.2 26.1-33.3 75.7-33.3 46.6 0 77.4 30.7z m-403.5 403.4q12.3 10.3 69.1-4.1l-64.5-64.5q-14.3 56.9-4.6 68.6z m97.8-12.8q17.4-6.6 26.1-15.3l139.8-139.8-95.2-95.2-139.8 139.7q-7.7 7.7-15.4 25.6z" /></svg>