<svg height="512" width="427.0" xmlns="http://www.w3.org/2000/svg"><path d="m413.7 295.9q17.9 10.3 12.3 30.2t-25.6 20q-2.1 0-7.2-1.5l-139.8-40v118.3l43.6 34.8q14.8 12.8 8.2 30.2t-24.6 17.4q-5.1 0-10.3-2l-56.8-23-56.3 23q-9.2 4.1-18.4 0.5t-14.9-12.3q-5.1-8.2-3.1-18.4t9.8-16.4l43.5-34.8v-118.3l-139.8 40q-9.7 2.5-18.9-2.1t-13.4-13.3-0.5-18.4 12.3-14.9l160.3-91.6v-158.8q0-16.9 11.8-28.6t27.6-11.8 28.2 11.8 12.3 28.6v158.8z m-200.2-243.7q5.6 0 9.7-4.1t4.1-9.7q0-12.8-13.3-12.8-12.8 0-12.8 12.8 0 13.3 12.8 13.3z" /></svg>