<svg height="512" width="534.0" xmlns="http://www.w3.org/2000/svg"><path d="m493.1 249.3q26.1 14.9 36.3 44.1t-2 57.3q-12.3 27.7-39.5 40.5t-56.8 4.6l-71.7-20.5v22.5l23.6 18.5q23.5 19.4 28.6 49.6t-11.7 55.8q-16.9 26.1-46.1 34.8t-56.8-5.6q-13.4-5.1-30.8-5.1-7.6 0-15.8 1.5t-11.8 2.6l-4.1 1.5q-27.7 14.4-56.8 5.7t-46.1-34.9q-16.9-25.6-11.8-55.8t28.7-49.6l23.5-18.5v-22.5l-71.6 20.5q-29.7 8.2-56.4-4.6t-38.9-40.5-2-56.8 36.3-44l133.1-75.8v-128q0-38.4 27.7-66.1t66-27.6 65.6 27.6 27.1 66.1v128z m-14.9 79.9q4.1-9.2 0.5-18.4t-12.3-14.9l-160.2-91.6v-158.7q0-16.9-11.8-28.7t-27.6-11.8-28.2 11.8-12.3 28.7v158.7l-160.3 91.6q-8.1 4.6-11.7 14.4t0.5 18.9 12.8 13.3 18.4 2.1l139.8-40v118.3l-43.5 34.8q-8.2 6.7-9.8 16.9t4.1 19 15.4 10.7 19.5-2q22.5-10.3 55.3-10.3 14.8 0 28.1 2.6t20 5.1l6.6 2.6q9.3 5.1 19.5 2t15.4-11.2 4-19-9.7-16.9l-43.5-34.8v-118.3l139.8 40q9.7 2.5 18.9-2.1t13.3-13.3z m-224.8-289.8q0-13.3 13.4-13.3 12.8 0 12.8 13.3 0 12.8-12.8 12.8-13.4 0-13.4-12.8z" /></svg>