<svg height="512" width="373.2" xmlns="http://www.w3.org/2000/svg"><path d="m186.9 402.4q-77.3 0-132.1-54.2t-54.8-132.1h53.2q0 55.3 39.5 94.2t94.2 38.9 94.2-38.9 38.9-94.2h53.2q0 77.3-54.2 132.1t-132.1 54.2z m160.2-146.4q-10.7 0-18.9-8.2t-8.2-18.9v-79.9h-266.8v79.9q0 10.7-7.6 18.9t-18.5 8.2-18.9-8.2-8.2-18.9v-106.5q0-10.8 8.2-19t18.9-8.2h320q10.8 0 18.5 8.2t7.6 19v106.5q0 10.7-7.6 18.9t-18.5 8.2z m-214-240.1h-53.2v79.8h53.2v-79.8z m0-27.2q10.8 0 19 8.2t8.2 19v79.8q0 10.8-8.2 19t-19 8.2h-53.2q-10.8 0-19-8.2t-8.2-19v-79.8q0-10.8 8.2-19t19-8.2h53.2z m79.9 413.7h-53.3v66.6h53.3v-66.6z m0-53.2q22.5 0 37.9 15.9t15.9 37.3v66.6q0 22.5-15.9 37.9t-37.9 15.9h-53.3q-22 0-37.3-15.9t-15.9-37.9v-66.6q0-22.5 15.9-37.9t37.3-15.3h53.3z m79.9-333.3h-53.3v79.8h53.3v-79.8z m0-27.2q10.7 0 18.9 8.2t8.2 19v79.8q0 10.8-8.2 19t-18.9 8.2h-53.3q-10.7 0-18.9-8.2t-8.2-19v-79.8q0-10.8 8.2-19t18.9-8.2h53.3z m53.7 266.8h-320q-5.6 0-9.7-4.1t-4.1-9.7 4.1-9.8 9.7-4.1h320q12.8 0 12.8 13.4t-12.8 13.3z m-160.2 120.3q-12.8 0-27.2-3.1v43h53.3v-43q-14.4 3.1-26.1 3.1z m-79.9 39.9v-53.2h26.1v53.2h-26.1z m133.1 0v-53.2h27.2v53.2h-27.2z" /></svg>