<svg height="512" width="453.1" xmlns="http://www.w3.org/2000/svg"><path d="m387.1 116.7q66 66.1 66 160.3 0 94.7-66 160.8t-160.8 66q-94.2 0-160.3-66-66.5-66.6-66.5-160.8 0-93.7 66.5-160.3 33.8-33.8 79.9-19.9v-9.2q0-33.3 23.6-56.9t56.8-23.5 56.8 23.5 23.6 56.9v9.2q20.5-6.7 42.5-1.6t37.9 21z m-187.4-28.6v133.6q0 10.7 8.2 18.4t18.9 7.7 19-7.7 8.2-18.4v-133.6q0-10.8-8.2-18.5t-19-7.6-18.9 7.6-8.2 18.5z m-26.1 101.9q-4.6 12.2-12.8 20.9-27.7 27.7-27.7 66.1t27.7 66q26.1 26.2 66 26.2t66.1-26.2q27.6-27.6 27.6-66t-27.6-66.1q-7.7-7.6-12.3-20.9v32.2q0 22-15.9 37.4t-37.9 15.9q-22 0-37.4-15.4t-15.8-37.9v-32.2z m53.2 207.3q-48.6 0-84-35.3t-35.3-85q0-50.2 35.3-85 7.7-7.7 7.7-18.4t-7.7-18.5-18.9-7.6-18.9 7.6q-51.2 51.2-51.2 122.4 0 71.7 51.2 122.9 50.6 50.7 122.3 50.7 72.2 0 122.9-50.7t50.7-122.9q0-71.7-50.7-122.4-7.7-7.6-18.9-7.6t-19 7.6-7.7 18.5 7.7 18.4q35.3 35.3 35.3 85 0 49.1-35.8 85t-84.5 35.3z" /></svg>