<svg height="512" width="347.1" xmlns="http://www.w3.org/2000/svg"><path d="m300 229.4q-19.4 0-32.7 17.4t-13.9 42.5 13.9 42.5 32.7 17.4q10.8 0 22-6.7 13.4-9.2 19.5-6.1t5.6 12.3v73.7q0 15.9-11.7 27.6t-28.7 11.8h-73.2q-8.2 0-12.3-4.6t1.5-15.9q10.8-12.8 10.8-26.1 0-19.4-17.4-32.7t-42.5-13.3-42.5 13.3-17.4 32.7q0 11.8 6.6 22.6 9.2 13.3 6.2 18.9t-12.3 5.6h-73.8q-16.8 0-28.1-11.7t-11.8-27.7v-73.7q0-8.2 4.6-11.8t15.9 1.5q12.3 10.3 26.1 10.3 19.5 0 32.8-17.4t13.8-42.5-13.8-42.5-32.8-17.4q-10.7 0-22 6.6-13.3 9.2-19.5 6.2t-5.6-12.3v-46.6q0-16.9 11.8-28.7t27.6-11.8h73.8q9.7 0 12.2-5.6t-5.6-18.9q-7.2-10.3-7.2-22.6 0-19.4 17.4-32.7t42.5-13.3 42.5 13.3 17.4 32.7q0 13.4-10.7 26.2-5.1 10.7-1.5 15.8t12.2 4.6h73.3q15.8 0 28.1 11.8t12.3 28.7v46.6q0 8.2-4.6 11.8t-15.9-1.6q-12.3-10.2-26.1-10.2z" /></svg>