<svg height="512" width="506.9" xmlns="http://www.w3.org/2000/svg"><path d="m427 2.6q32.8 0 56.3 23.5t23.6 56.3-23.6 56.4l-23.5 23.5q20.5 22.5 20.5 53.3 0 36.3-28.7 60.9 2 8.2 2 17.9v161.3h-158.2q-11.8 0-19.9-2.6-24.6 29.7-62 29.7-32.3 0-54.3-21l-23.5 24.6q-23.6 23.6-55.3 23.6-32.8 0-56.3-23.6t-23.6-56.3q0-33.3 23.6-56.9l25.1-25q-18.5-22.6-18.5-51.8 0-33.7 26.1-58.3-3-15.9-3-20v-161.8h161.8q5.6 0 17.4 2.6 24.5-28.7 60.9-28.7 32.2 0 53.7 20l23.1-23.1q23.5-23.5 56.8-23.5z m-320 107v106.5q0 10.7 7.7 18.9t18.4 8.2 19-8.2 8.2-18.9v-53.3h53.2q10.8 0 18.9-8.2t8.2-18.9-8.2-18.5-18.9-7.6h-106.5z m338.4-8.2q7.7-7.7 7.7-18.5t-7.7-18.4q-8.2-8.2-18.4-8.2-10.7 0-19.4 8.2l-87.6 87.6v-42.5q0-10.8-8.2-19t-18.9-8.2-18.5 8.2-7.6 19v133.1h133.1q10.7 0 18.9-8.2t8.2-18.9-8.2-18.5-18.9-7.7h-42.5z m-205.3 301.5v-133.1h-130q-10.8 0-19 7.7t-8.2 18.4 8.2 19 19 8.2h38.9l-87.6 87.5q-7.6 7.7-7.6 19t7.6 18.9 18.5 7.7q9.7 0 17.4-7.7l89.6-91.1v45.5q0 10.8 7.7 19t18.4 8.2 18.9-8.2 8.2-19z m0-160.2v-60.4q-14.3 7.1-25.1 7.1h-28.1v26.2q0 13.3-7.7 27.1h60.9z m27.2 27.1v61.5q13.3-8.2 28.1-8.2h25.1v-28.2q0-20.5 19.5-25.1h-72.2z m1.5 106.5q0 10.8 8.2 19t18.9 8.2h105v-107.1q0-10.7-8.2-18.4t-18.9-7.7-18.5 7.7-7.7 18.4v53.8h-51.7q-10.7 0-18.9 7.7t-8.2 18.4z" /></svg>