<svg height="512" width="427.0" xmlns="http://www.w3.org/2000/svg"><path d="m293.4 42.5h133.6v133.1q0 10.8-8.2 19t-18.9 8.2-19-8.2-8.2-19v-42.5l-87.5 87.6q-7.7 7.7-18.4 7.7-11.8 0-19.5-7.7t-7.7-19 7.7-18.9l87.5-87.6h-42.4q-10.8 0-18.5-8.2t-7.7-18.9 7.7-18.4 18.5-7.7z m-151.6 247.8q7.7-7.7 18.5-7.7t18.4 7.7 7.7 18.9-7.7 19l-87.6 87.5h42.5q10.8 0 19 8.2t8.2 19-8.2 18.4-19 7.7h-133.1v-133.1q0-10.8 8.2-19t18.9-8.2 18.5 8.2 7.7 19v42.5z m-61.4-34.8q-10.8 0-19-8.2t-8.2-18.9v-133.2h133.7q10.7 0 18.4 8.2t7.7 19-7.7 18.4-18.4 7.7h-79.9v79.9q0 10.7-8.2 18.9t-18.9 8.2z m266.7 0q10.8 0 18.5 8.2t7.6 18.9v133.1h-133.1q-10.7 0-18.9-8.1t-8.2-19 8.2-18.4 18.9-7.7h79.9v-79.9q0-10.7 8.2-18.9t18.9-8.2z" /></svg>