<svg height="512" width="515.1" xmlns="http://www.w3.org/2000/svg"><path d="m268.8 469q-32.8 0-56.3-23.6t-23.6-56.3q0-5.6 0.5-10.2t2.6-9.7 3.6-8.2 5.6-11.3 7.2-13.8h-128.5q-33.3 0-56.9-23.6t-23.5-56.8 23.5-56.8 56.9-23.6h128.5q-2.6-5.6-7.2-13.8t-6.1-11.3-3.6-8.7-2.6-9.7-0.5-10.3q0-33.2 23.1-56.3 22.5-22.5 56.8-22.5t56.8 22.5l190 190-190 189.4q-23.5 23.6-56.3 23.6z m-188.9-240.1q-10.8 0-19 8.2t-8.2 18.9 8.2 18.4 19 7.7h257.5l-87.5 88.6q-7.7 7.7-7.7 18.4t7.7 18.5 18.9 7.6 18.9-7.6l152.6-151.6-152.6-152.6q-7.6-7.7-18.9-7.7t-18.9 7.7-7.7 18.5q0 11.7 7.7 19.4l87.5 87.6h-257.5z" /></svg>