<svg height="512" width="427.0" xmlns="http://www.w3.org/2000/svg"><path d="m79.9 42.5q70.6 0 134.6 27.6t110.6 73.8 73.7 110.6 27.7 134.6q0 33.3-23.6 56.9t-56.8 23.5h-240.1q-44 0-75.8-31.2t-31.2-75.8v-240.1q0-33.3 23.5-56.9t56.9-23.5z m27.1 373.8q22 0 37.4-15.9t15.9-37.9q0-22-15.4-37.4t-37.9-15.9-37.9 15.9-15.3 37.4q0 22.5 15.8 37.9t37.4 15.9z m120.3 0q16.9 0 28.2-11.8t11.8-28.7q0-71.7-50.7-122.4t-122.4-50.6q-16.9 0-28.2 11.7t-11.7 28.7 11.7 28.2 28.2 11.7q38.4 0 66.1 27.7t27.6 66q0 16.9 11.8 28.7t28.7 11.8z m106.5 0q16.9 0 28.7-11.8t11.8-28.7q0-75.8-37.9-140.3t-101.9-101.9-140.3-37.3q-16.9 0-28.2 11.7t-11.7 28.2 11.7 28.7 28.2 11.7q82.4 0 141.3 58.4t58.9 141.3q0 16.9 11.8 28.7t28.1 11.8z" /></svg>