<svg height="512" width="427.0" xmlns="http://www.w3.org/2000/svg"><path d="m53.2 362.5q22.6 0 37.9 15.9t15.9 37.3-15.9 37.4-37.9 15.9-37.8-15.9-15.4-37.4 15.4-37.3 37.8-15.9z m0-320q101.4 0 187.4 50.2t136.2 136.2 50.2 187.4q0 22-15.9 37.3t-37.9 15.9-37.8-15.9-15.4-37.3q0-110.1-78.3-188.5t-189-78.3q-22.5 0-37.9-15.9t-15.3-37.3 15.3-37.4 37.9-15.9z m0 160.3q88.6 0 151.1 62.4t63 150.5q0 22.1-15.9 37.4t-37.9 15.9-37.9-15.9-15.3-37.4q0-44-31.3-75.7t-75.8-31.3q-22.5 0-37.8-15.8t-15.4-37.4 15.4-37.4 37.8-15.9z" /></svg>