<svg height="512" width="557.1" xmlns="http://www.w3.org/2000/svg"><path d="m440.8 86q11.8-15.9 33.8-15.9 11.8 0 28.2 7.7-1.6-1.5-3.1-4.1t-4.1-5.6-4.6-4.6q-17.4-17.4-47.6-17.4-20 0-50.2 17.4-1.5 0-2.5-0.5t-2.6-0.5q-37.9 0-58.9 32.2-7.7 11.8-32.8 54.8t-40.4 60.9q-15.4-17.9-41-61.4t-32.7-54.3q-21-32.2-58.9-32.2-29.7 0-50.7 21t-21 50.6 21 50.2 50.7 21q37.4 0 58.4-30.7l44 69.6q-20.5 23.1-42 51.7t-32.8 46.6l-10.7 17.4q-11.8 20.5-7.2 44.1t15.9 42.5l11.8 19.4 94.7-174.1 94.7 174.1q2.1-2.5 5.1-7.1t9.8-18.5 10.7-26.1 3.6-27.6-8.2-26.2q-40.4-64.5-86-115.7l44-69.6q21 30.7 58.4 30.7 29.7 0 50.2-21t21-50.1q0-28.2-19.5-48.7z m-51.7 76.8q-14.8 0-23-12.3t-3.1-26.1l6.7-10.2q8.2-8.2 19.9-8.2 12.3 0 20.5 8.2t8.2 19.9-8.2 20-20.5 8.2z m-265.2 0q-11.8 0-20-8.2t-8.2-19.9 8.2-20 20-8.2q12.3 0 20.5 8.2l6.6 10.2q5.2 14.4-3.5 26.1t-23.6 12.3z m132.6 100.4q-4.6 0-7.2-3.1t-3-7.7q0-10.2 10.2-10.2 4.6 0 7.7 3t3.1 7.2-3.1 7.7-7.7 3.1z m187.4-270.9q32.3 0 57.9 13.8t41.4 36.4q26.1 35.3 2.6 66.6-12.8 16.9-32.3 20.4v4.6q0 51.2-36.8 88.1t-88.1 36.9q-9.2 0-24.6-2.6 32.3 42.5 52.8 74.8 15.8 23 17.4 50.7t-8.2 52.7-16.9 38.9-14.9 24.6q-15.8 22-43.5 22-32.2 0-46.6-27.7l-48.1-88.5-47.6 88.5q-14.9 27.7-47.6 27.7-27.2 0-43-22-7.7-10.8-14.9-24.6t-16.9-38.9-8.2-52.7 17.4-50.7q24.6-37.9 51.7-74.8-15.3 2.6-24.5 2.6-51.2 0-87.6-36.9t-36.3-88.1 36.3-87.5 87.6-36.4q64 0 103.9 55.8 14.3 21 28.7 47.7 23-40.5 31.2-50.7 33.8-48.2 92.2-51.7 32.7-18 64-18z" /></svg>