<svg height="512" width="450.0" xmlns="http://www.w3.org/2000/svg"><path d="m447 75.8q6.6 7.7 0 15.8t-15.4 4.7q-23.5-10.8-38.9-2.6 14.9 22 14.9 47.6 0 35.3-24.6 59.9t-59.9 24.6q-31.3 0-55.8-21l-17.4 31.2q28.6 32.8 38.9 46.6t33.2 50.7l9.3 14.3q30.7 42.5-21 118.3l-0.5 1.6q-4.6 5.6-11.8 5.6t-10.8-6.7l-83.4-152.5-83.5 152.5q-4.1 7.2-11.8 7.2-6.6 0-10.7-5.6-2.1-2.6-6.7-9.8t-11.7-21.5-11.3-28.6-3.1-31.3 10.8-29.7q48.1-71.6 80.9-109.5l-17.4-32.3q-24.6 21-55.8 21-35.4 0-59.9-24.6t-24.6-59.9 24.6-59.9 59.9-24.6q20.9 0 40.4 10.3t30.2 27.6q10.3 15.4 24.6 44.1t24.6 43.5q10.2-14.9 24.5-43.5t24.6-44.1q26.1-37.9 70.7-37.9h2l5.1-3q28.7-17.9 63.5-12.3t53.8 34.8z m-363 92.6q10.7 0 18.4-8.1t7.7-19-7.7-18.4-18.4-7.7-19 7.7-8.2 18.4 8.2 19 19 8.1z m119.8 90.2q5.6 0 9.7-4.1t4.1-9.3q0-5.6-4.1-9.7t-9.7-4.1-9.8 4.1-4 9.7q0 5.2 4 9.3t9.8 4.1z m120.3-90.2q10.7 0 18.4-8.1t7.7-19-7.7-18.4-18.4-7.7-18.9 7.7-8.2 18.4 8.2 19 18.9 8.1z" /></svg>