<svg height="512" width="448.0" xmlns="http://www.w3.org/2000/svg"><path d="m261.6 31.7q77.3 0 132.1 54.3t54.3 132.1-54.3 132.1-132.1 54.8q-27.6 0-58.3-9.7l-62 61.9q-25.6 22.5-58.4 22.5-34.8 0-58.8-24.5t-24.6-59.4 23.5-58.4q27.2-27.6 40.5-41l20.5-20.4q-9.8-30.8-9.8-58.4 0-77.3 54.8-132.1t132.1-54.3z m0 320q55.3 0 94.2-39.4t39-94.2-39-94.2-94.2-38.9-94.2 38.9-39.4 94.2 39.4 94.2 94.2 39.4z m0-240.1q44.1 0 75.3 31.2t31.2 75.3-31.2 75.8-75.3 31.2-75.7-31.2-31.3-75.8 31.3-75.3 75.7-31.2z m0 186.4q33.3 0 56.9-23.6t23.5-56.8-23.5-56.8-56.9-23.6-56.8 23.6-23.6 56.8 23.6 56.8 56.8 23.6z" /></svg>