<svg height="512" width="480.3" xmlns="http://www.w3.org/2000/svg"><path d="m27.1 162.3q-10.7 0-18.9-8.2t-8.2-18.9 8.2-18.5 18.9-7.6h93.7q46.6 0 80.9 35.3-16.9 17.9-31.2 45-20.5-27.1-49.2-27.1h-93.7z m204.8 83.5l-12.8 37.3q-16.9 51.2-52.7 85.5t-73.2 34.3h-66.6q-10.7 0-18.9-8.1t-8.2-19 8.2-18.4 18.9-7.7h66.6q16.9 0 39.9-23.6t35.3-59.3l12.8-37.9q16.9-50.7 59.4-85t88.6-34.3h48.7l-33.8-34.8q-7.7-7.7-7.7-19t7.7-18.9 18.9-7.7 19 7.7l98.8 98.8-98.8 99.3q-7.7 7.7-19.5 7.7-10.8 0-18.4-7.7t-7.7-18.9 7.7-19l33.8-34.8h-48.7q-27.6 0-56.8 25.1t-40.5 58.4z m112.2 31.2q7.6-7.7 18.9-7.7t19 7.7l98.8 98.8-98.8 99.3q-7.7 7.7-19.5 7.7-10.8 0-18.4-7.7t-7.7-18.9 7.7-19l33.8-34.8h-62q-60.9 0-100.3-51.2 17.9-27.1 28.6-58.3 7.2 25.1 27.2 40.4t45 15.9h62l-33.8-34.8q-7.7-7.7-7.7-19t7.7-18.9z" /></svg>