<svg height="512" width="480.3" xmlns="http://www.w3.org/2000/svg"><path d="m471 291.3q9.3 27.2 9.3 53.3 0 66-45.6 112.6-46.1 47.6-110.6 47.6-29.7 0-57.9-11.7-9.7 1.5-23.5 1.5-96.3 0-164.4-69.1-68.1-69.7-68.1-166.9 0-14.9 2.1-28.7-12.3-28.2-12.3-63 0-65.5 45.1-111.6 46-47.6 111.6-47.6 34.8 0 64.5 14.3 7.2-0.5 22-0.5 96.3 0 163.8 69.6 67.1 70.7 67.1 166.9 0 10.3-2.5 33.3z m-229.3 92.2q45.5 0 74.7-20t29.2-58.3q0-35.4-27.1-54.3-15.9-9.7-30.8-14.9-3-0.5-53.2-13.3-27.1-6.6-35.3-17.4-4.6-4.6-4.6-10.2 0-11.8 13.3-18.5t29.2-7.1q33.7 0 45.5 27.6 5.1 8.2 6.7 10.8t7.1 5.6 12.3 3.1q10.3 0 18-8.2t7.6-18.4q0-20.5-22.5-40.5-27.1-21-71.7-21-42.5 0-70.6 17.4t-28.2 52.8q0 22 11.8 37.3t29.7 22.6q20.5 9.2 47.6 14.8 15.4 3.1 32.8 7.7 25.6 9.7 25.6 28.7 0 15.3-14.9 23.5t-34.8 8.2q-28.7 0-40.4-15.9-8.2-15.8-10.8-18.4-7.2-22-26.1-22-10.8 0-18.4 7.2t-7.2 17.4q0 17.9 12.3 34.3t28.1 25.1q27.2 14.3 64.6 14.3z" /></svg>