<svg height="512" width="441.3" xmlns="http://www.w3.org/2000/svg"><path d="m418.8 340q11.8 2.5 17.9 11.7t4.1 21q-3 16.9-20.4 21.5t-28.2-8.2l-44-50.1 10.7 38.9q3.1 12.3-4.6 23t-22 10.8q-9.2 0-15.9-5.7t-9.7-14.3l-10.8-40.4q-16.9 13.3-32.7 19.4l29.7 29.7q7.6 7.7 7.6 18.4t-7.6 18.5q-8.2 8.2-18.5 8.2-10.7 0-19.4-8.2l-18.5-18.5h-6.6l17.4 53.3q4.1 10.7-1.5 21.5t-16.4 14.3q-14.9 5.2-27.7-6.6t-7.1-29.7l17.9-53.3h-7.2l-18.4 18.5q-7.7 7.6-19 7.6t-18.9-7.6-7.7-18.5 7.7-18.4l29.7-29.7q-15.9-5.6-32.8-19.5l-10.7 40.5q-2.6 9.2-9.8 14.3t-15.8 5.7q-14.4 0-21.5-10.8t-4.1-23l10.2-40-44 50.7q-7.7 8.2-19.5 9.2t-19.9-7.1q-9.3-7.7-9.8-19.5t7.2-20.5q6.6-6.6 15.4-8.2l65.5-13.3-38.9-10.7q-10.8-3.1-16.4-12.8t-3.1-20 12.3-15.9 20.5-2.5l40.4 10.2q-2-9.7-2-18.4t2-18.4l-40.4 10.2q-5.1 1.5-7.2 1.5-9.2 0-15.9-5.6t-9.7-14.3q-2.5-10.3 3.1-20t16.4-12.8l38.9-10.8-65.5-13.3q-11.8-2.5-18-11.7t-4.1-21q3.1-16.9 20.5-21.5t28.2 8.2l44 50.6-10.2-39.9q-3.1-10.7 2.5-20.5t15.9-12.3q10.8-3 20.5 2.6t12.3 15.9l10.7 40.4q16.9-13.3 32.8-19.4l-29.7-29.7q-7.7-7.7-7.7-18.5t7.7-18.4 18.9-7.7 19 7.7l28.7 28.7-21-63.5q-4.1-10.8 1.5-21.5t16.4-14.4q14.8-5.1 27.6 6.7t7.2 29.7l-21 63.5 28.7-28.7q7.7-7.7 18.9-7.7t19 7.7 7.6 18.4-7.6 18.5l-29.7 29.7q15.8 5.6 32.7 19.4l10.8-40.4q2.5-10.3 12.3-15.9t20.5-2.6 16.3 12.8 3.1 20l-10.7 38.9 44-50.1q7.7-8.2 19.4-9.3t20 7.2q9.2 7.7 9.7 19.5t-7.1 20.4q-6.7 6.7-15.4 8.2l-65.5 13.3 39.9 10.8q10.3 2.6 15.9 12.3t2.5 20.5q-2.5 9.2-9.7 14.3t-15.9 5.6q-2 0-7.1-1.5l-40.5-10.2q2.1 9.7 2.1 18.4t-2.1 18.4l40.5-10.2q10.7-3.1 20.5 2.5t12.2 15.9q3.1 10.8-2.5 20.5t-15.9 12.3l-39.9 10.7z m-197.6-17.4q27.6 0 47.1-19.5t19.4-47.1-19.4-47.1-47.1-19.5-47.6 19.5-20 47.1 20 47.1 47.6 19.5z" /></svg>