<svg height="512" width="628.7" xmlns="http://www.w3.org/2000/svg"><path d="m290.8 70.1q59.4 0 102.4 43.1 37.9-43.6 95.2-43.6 52.8 0 89.6 37.4t37.4 89.6q0 19.5-5.6 37.4 19.4 33.3 19.4 69.6 0 58.4-40.9 98.8t-99.3 40.5q-40 0-73.3-21-23 21-53.7 21h-133.1q-31.3 0-53.8-20.5-22.5 20.5-53.2 20.5-33.3 0-56.9-23.6t-23.5-56.8v-124.4q-23.1-12.8-33.3-33.8-14.9-30.2-4.1-60.9t39.4-45.6l37.4-20q15.9-8.2 36.3-8.2 23.6 0 43.1 12.3t29.7 29.7q42.4-40.9 100.3-40.9z m-142.3 79.4q0-10.2-9.7-18.4t-21.6-8.2q-5.6 0-12.2 3.1l-36.4 19.4q-10.2 4.6-13.8 14.9t1.5 20.9q7.2 14.9 26.1 14.9 5.7 0 12.3-3.1v170.5q0 10.8 8.2 19t19 8.2 18.9-8.2 8.2-19v-213z m142.3 27.1q14.9 0 25.1 10.8t10.8 25.1-10.3 25.1l-107 107q-12.8 12.8-5.1 29.2t24.6 16.3h133.1q10.7 0 18.9-8.1t8.2-19-8.2-18.4-18.9-7.7h-69.1l61.4-61.4q26.1-26.2 26.1-63 0-37.4-26.1-63.5-25.1-25.1-63.5-25.1-37.9 0-63 25.1-26.1 26.1-26.1 63.5 0 10.7 8.2 18.4t19 7.7 18.4-7.7 7.7-18.4q0-14.9 10.7-25.1t25.1-10.8z m197.6 213q35.9 0 61-25.1t25.1-60.9q0-37.9-27.7-63.5 14.9-19.9 14.9-43.5 0-30.2-22.1-51.7t-51.7-22q-44 0-65.5 39.9-6.7 12.8 1 26.1t22.6 13.3q16.8 0 23.5-14.3 5.6-10.7 17.9-10.7 8.2 0 14.4 5.6t5.6 14.3-5.6 14.4-14.4 5.6q-10.7 0-18.9 8.2t-8.2 18.9 8.2 18.5 18.9 7.6q14.4 0 23.6 9.8t9.7 24-9.7 23.6-23.6 9.7-23.5-9.7-9.8-23.6q0-10.7-8.1-18.9t-19-8.2-18.4 8.2-7.7 18.9q0 35.9 25.1 61t60.9 25z" /></svg>