<svg height="512" width="587.3" xmlns="http://www.w3.org/2000/svg"><path d="m264.2 350.7q6.6 12.8-1 25.6t-22.6 12.8q-16.9 0-23.5-14.8l-19.5-38.4h-127.5l-19.4 38.4q-4.6 10.2-14.9 13.8t-21-1.5q-10.2-4.6-13.8-14.9t1.6-21l107-214q7.1-13.3 24.5-13.3t23.6 13.3z m-166.9-68.6h73.7l-37.4-73.7z m463.3 107h-160.2q-15.4 0-23.6-14.3t2.1-28.7l128-170.5h-107q-10.8 0-19-8.2t-8.2-18.9 8.2-19 19-8.2h160.2q15.4 0 23.6 14.4t-2.1 28.7l-128 171h107q10.8 0 19 7.6t8.2 18.5-8.2 18.9-19 8.2z m-213-107h-53.7q-10.8 0-18.4-7.7t-7.7-18.4 7.7-18.9 18.4-8.2h53.7q10.8 0 18.5 8.2t7.7 18.9-7.7 18.4-18.5 7.7z" /></svg>