<svg height="512" width="480.3" xmlns="http://www.w3.org/2000/svg"><path d="m437.8 160.3q42.5 60.4 42.5 135.6 0 99.4-70.7 169.5t-169.5 70.7-169.4-70.7-70.7-169.5q0-92.1 61.4-160.2t152.6-77.8v-0.6l-0.5-1.5v-26.1h-26.1q-10.8 0-19-8.2t-8.1-18.9 8.1-19 19-8.2h106.5q10.7 0 18.9 8.2t8.2 19-8.2 18.9-18.9 8.2h-26.1v26.1l-0.5 0.5v1.6q79.8 9.2 138.2 64 0.5-0.6 1.5-2.1t1.6-2l13.3-13.4q7.7-7.6 18.9-7.6t19 7.6 7.7 19-7.7 18.9l-13.3 13.3q-2.6 2.6-7.7 5.2z m-197.7 322.5q77.3 0 132.1-54.8t54.8-132.1-54.8-132.1-132.1-54.2-132.1 54.2-54.8 132.1 54.8 132.1 132.1 54.8z m27.2-213h53.2q10.8 0 19 7.7t8.1 18.4-8.1 19-19 8.2h-79.9q-10.7 0-18.9-8.2t-8.2-19v-79.8q0-10.8 8.2-18.5t18.9-7.6 19 7.6 8.2 18.5v53.7z m-27.2-133.6q66.1 0 113.2 47.1t47.1 113.1-47.1 113.2-113.2 47.1-113.1-47.1-47.1-113.2 47.1-113.1 113.1-47.1z m0 293.9q55.3 0 94.2-39.4t38.9-94.3-38.9-94.2-94.2-38.9-94.2 38.9-38.9 94.2 38.9 94.3 94.2 39.4z" /></svg>