<svg height="512" width="501.8" xmlns="http://www.w3.org/2000/svg"><path d="m251.4 120.8l-27.1-78.3q-4.1-10.8 1.5-21.5t15.9-14.3q15.3-5.2 28.6 6.1t7.2 29.7z m-214 108.1l78.8 27.1-78.8 27.1q-10.8 4.1-21.5-1.5t-14.4-16.4q-5.1-15.3 6.2-28.7t29.7-7.1z m214 161.8l26.1 78.3q4.1 10.7-1.5 21.5t-15.9 14.3q-15.4 5.2-28.7-6.1t-7.1-29.7z m248.8-143.9q5.1 15.3-6.1 28.7t-29.7 7.1l-78.4-27.1 78.4-27.1q10.7-4.1 21.5 1.5t14.3 16.4z m-419.3-122.9q-10.8-5.1-14.3-15.9t1.5-22q8.2-15.9 25.6-15.3t25.1 15.3l36.3 74.3z m0 314.4q-15.9-8.2-15.4-25.6t15.4-25.1l74.2-36.4-36.3 74.3q-5.1 10.7-15.9 14.3t-22-1.5z m340-50.7q10.7 5.1 14.3 15.9t-1.5 22q-8.2 15.8-25.6 15.3t-25.1-15.3l-36.4-74.3z m0-314.4q15.8 8.2 15.3 25.6t-15.3 25.1l-74.3 36.4 36.4-74.3q5.1-10.7 15.8-14.3t22.1 1.5z m-169.5 62q49.1 0 84.5 35.3t35.3 85-35.3 85-84.5 35.3-85-35.3-35.3-85 35.3-85 85-35.3z" /></svg>