<svg height="512" width="453.1" xmlns="http://www.w3.org/2000/svg"><path d="m347.1 55.8q10.8 0 18.5 7.7t7.6 18.4v320q0 10.8-7.6 19t-18.5 8.2h-93.7q0 10.7-8.2 18.9t-18.9 8.2-18.9-8.2-8.2-18.9h-92.7q-10.8 0-18.9-8.2t-8.2-19v-320q0-10.7 8.2-18.4t18.9-7.7h240.1z m0 346.1v-320h-240.1v320h240.1z m26.1-426.5q33.3 0 56.9 23.6t23.5 56.8v399.9q0 33.3-23.5 56.8t-56.9 23.6h-293.3q-33.3 0-56.9-23.6t-23.5-56.8v-399.9q0-33.3 23.5-56.8t56.9-23.6h293.3z m27.2 480.3v-399.9q0-10.7-8.2-18.9t-19-8.2h-293.3q-10.8 0-19 8.2t-8.2 18.9v399.9q0 10.7 8.2 18.4t19 7.7h293.3q10.8 0 19-7.7t8.2-18.4z" /></svg>