<svg height="512" width="533.0" xmlns="http://www.w3.org/2000/svg"><path d="m517.6 178.2q15.4 15.8 15.4 37.9t-15.4 37.3l-28.6 28.7 2.5 2.6q15.4 15.8 14.9 37.9t-15.9 37.3l-186.4 186.9q-15.3 15.4-37.9 15.4t-37.8-15.4q-115.8-115.7-174.6-173-54.3-54.3-54.3-132.1 0-52.8 27.6-96.8-4.1-84.5 53.8-142.3 54.3-54.3 132.1-54.3 78.3 0 132.6 54.3z m-250.8 330.7l186.3-186.9-172-174q-38.9-38.9-94.2-38.9-55.8 0-94.7 38.9t-39 94.2 39 94.2q58.8 56.8 174.6 173z m51.7-398.8l132.6 133.6 28.6-28.7-172-174q-38.9-39-94.7-39-55.3 0-94.2 39-17.9 17.9-27.7 40.4 44.1-26.1 95.3-26.1 76.8 0 132.1 55.3z m-132.1 91.6q-16.9 0-28.7 11.8t-11.8 28.7 11.8 28.1 28.7 11.8 28.1-11.8 11.8-28.1-11.8-28.7-28.1-11.8z m0-26.1q27.6 0 47.1 19.5t19.4 47.1-19.4 47.1-47.1 19.4-47.1-19.4-19.5-47.1 19.5-47.1 47.1-19.5z" /></svg>