<svg height="512" width="373.2" xmlns="http://www.w3.org/2000/svg"><path d="m186.9 442.4q-77.3 0-132.1-54.3t-54.8-132.1 54.8-132.1 132.1-54.8 132.1 54.8 54.2 132.1-54.2 132.1-132.1 54.3z m-27.2-317q-39.9 8.2-67.5 36.4t-36.4 67.6h50.7q10.7 0 18.4 8.2t7.7 18.9-7.7 18.4-18.4 7.7h-50.7q8.2 40 36.4 68.1t67 36.4v-50.7q0-10.8 8.2-19t19-8.2 18.4 8.2 7.7 19v50.7q38.9-8.2 67.6-36.4t36.8-68.1h-50.7q-10.7 0-18.9-7.7t-8.2-18.4 8.2-18.9 18.9-8.2h50.7q-8.2-38.9-36.3-67.1t-68.1-36.3v50.6q0 10.8-7.7 18.5t-18.4 7.7-19-7.7-8.2-18.5v-50.6z" /></svg>