<svg height="512" width="480.3" xmlns="http://www.w3.org/2000/svg"><path d="m0 95.7q0-33.2 23.6-56.8t56.8-23.5h53.2q33.3 0 56.9 23.5t23.5 56.8v53.3q0 33.3-23.5 56.8t-56.9 23.6h-53.2q-33.3 0-56.8-23.6t-23.6-56.8v-53.3z m266.8 0q0-33.2 23.5-56.8t56.8-23.5h53.3q33.3 0 56.8 23.5t23.6 56.8v53.3q0 33.3-23.6 56.8t-56.8 23.6h-53.3q-33.2 0-56.8-23.6t-23.5-56.8v-53.3z m-266.8 266.8q0-33.3 23.6-56.8t56.8-23.6h53.2q33.3 0 56.9 23.6t23.5 56.8v53.2q0 33.3-23.5 56.9t-56.9 23.5h-53.2q-33.3 0-56.8-23.5t-23.6-56.9v-53.2z m266.8 0q0-33.3 23.5-56.8t56.8-23.6h53.3q33.3 0 56.8 23.6t23.6 56.8v53.2q0 33.3-23.6 56.9t-56.8 23.5h-53.3q-33.2 0-56.8-23.5t-23.5-56.9v-53.2z" /></svg>