<svg height="512" width="533.0" xmlns="http://www.w3.org/2000/svg"><path d="m107 362.5q22.5 0 37.9 15.9t15.4 37.3v53.3q0 22.5-15.9 37.9t-37.4 15.9h-53.8q-22 0-37.3-15.9t-15.9-37.9v-53.3q0-22 15.4-37.3t37.8-15.9h53.8z m0 106.5v-53.3h-53.8v53.3h53.8z m0-293.4q22.5 0 37.9 15.9t15.4 37.4v53.7q0 22-15.4 37.4t-37.9 15.9h-53.8q-22.5 0-37.8-15.9t-15.4-37.4v-53.7q0-22.1 15.4-37.4t37.8-15.9h53.8z m0 107v-53.7h-53.8v53.7h53.8z m0-293.9q22 0 37.4 15.9t15.9 37.9v53.2q0 22.1-15.4 37.4t-37.9 15.9h-53.8q-22.5 0-37.8-15.9t-15.4-37.4v-53.2q0-22.5 15.9-37.9t37.3-15.9h53.8z m0 107v-53.2h-53.8v53.2h53.8z m186.4 266.8q22.5 0 37.9 15.9t15.8 37.3v53.3q0 22.5-15.8 37.9t-37.9 15.9h-53.3q-22 0-37.3-15.9t-15.9-37.9v-53.3q0-22 15.3-37.3t37.9-15.9h53.3z m0 106.5v-53.3h-53.3v53.3h53.3z m0-293.4q22.5 0 37.9 15.9t15.8 37.4v53.7q0 22-15.8 37.4t-37.9 15.9h-53.3q-22.5 0-37.9-15.9t-15.3-37.4v-53.7q0-22.1 15.3-37.4t37.9-15.9h53.3z m0 107v-53.7h-53.3v53.7h53.3z m0-293.9q22 0 37.9 15.9t15.8 37.9v53.2q0 22.1-15.8 37.4t-37.9 15.9h-53.3q-22.5 0-37.9-15.9t-15.3-37.4v-53.2q0-22.5 15.9-37.9t37.3-15.9h53.3z m0 107v-53.2h-53.3v53.2h53.3z m186.9 266.8q22 0 37.3 15.9t15.9 37.3v53.3q0 22.5-15.9 37.9t-37.3 15.9h-53.3q-22.5 0-37.9-15.9t-15.9-37.9v-53.3q0-22 15.9-37.3t37.9-15.9h53.3z m0 106.5v-53.3h-53.3v53.3h53.3z m0-293.4q22 0 37.3 15.9t15.9 37.4v53.7q0 22-15.9 37.4t-37.3 15.9h-53.3q-22.5 0-37.9-15.9t-15.9-37.4v-53.7q0-22.1 15.9-37.4t37.9-15.9h53.3z m0 107v-53.7h-53.3v53.7h53.3z m0-293.9q22 0 37.3 15.9t15.9 37.9v53.2q0 22.1-15.9 37.4t-37.3 15.9h-53.3q-22.5 0-37.9-15.9t-15.9-37.4v-53.2q0-22.5 15.9-37.9t37.9-15.9h53.3z m0 107v-53.2h-53.3v53.2h53.3z" /></svg>