<svg height="512" width="399.9" xmlns="http://www.w3.org/2000/svg"><path d="m373.2 109.6q10.8 0 19 7.6t8.2 18.5-8.2 18.9-19 8.2v213q0 44-31.2 75.8t-75.2 31.2h-133.7q-44 0-75.2-31.2t-31.3-75.8v-213q-10.7 0-18.9-8.2t-8.2-18.9 8.2-18.5 18.9-7.6h26.1v-27.2q0-22 15.9-37.3t37.9-15.9h186.4q22.5 0 37.9 15.9t15.8 37.3v27.2h26.1z m-266.2-27.2v27.2h186.4v-27.2h-186.4z m213 293.4v-213h-240.1v213q0 22.5 15.8 37.9t37.4 15.9h133.7q22 0 37.3-15.9t15.9-37.9z m-199.7-173q5.1 0 9.2 4t4.1 9.3v160.2q0 5.1-4.1 9.2t-9.2 4.1-9.2-4.1-4.1-9.2v-160.2q0-5.2 4.1-9.3t9.2-4z m53.3 0q5.1 0 9.2 4t4.1 9.3v160.2q0 5.1-4.1 9.2t-9.2 4.1-9.2-4.1-4.1-9.2v-160.2q0-5.2 4.1-9.3t9.2-4z m53.2 0q5.1 0 9.2 4t4.1 9.3v160.2q0 5.1-4.1 9.2t-9.2 4.1-9.2-4.1-4.1-9.2v-160.2q0-5.2 4.1-9.3t9.2-4z m53.8 0q5.1 0 9.2 4t4.1 9.3v160.2q0 5.1-4.1 9.2t-9.2 4.1-9.2-4.1-4.1-9.2v-160.2q0-5.2 4.1-9.3t9.2-4z" /></svg>