<svg height="512" width="480.3" xmlns="http://www.w3.org/2000/svg"><path d="m233.5 159.2q0-40.9 29.2-69.6t70.1-28.7q43.5 0 71.2 30.2 30.7-6.6 62.9-23-10.2 34.8-43 54.3 27.7-4.1 56.4-15.9-20 30.2-49.2 51.7v12.3q0 69.6-30.7 130.6-30.7 61.9-97.3 105.4t-151.5 43.5q-83.5 0-151.1-44 10.3 1.6 24.6 1.6 68.6 0 121.8-41.5-33.2-0.5-57.8-20.5t-33.8-48.6q6.7 2.5 17.9 2.5t25.6-3.1q-33.3-7.1-55.8-33.7t-22.5-64q18.4 10.2 44 12.2-44-30.7-44-82.4 0-24.6 13.3-48.6 80.9 97.8 203.8 101.9-3.1-10.8-3.1-22.1z" /></svg>