<svg height="512" width="480.3" xmlns="http://www.w3.org/2000/svg"><path d="m479.2 369.7l0.5 133.1q0 10.7-8.1 18.9t-19 8.2h-426.5q-10.7 0-18.9-8.2t-8.2-18.9q0-133.1 0.5-133.1 0-5.7 0.5-8.2l53.8-160.3q6.6-18.4 25-18.4h107.1v53.2h-87.6l-44 133.7h370.1l-44-133.7h-87.5v-53.2h107q18.4 0 25.1 18.4l53.7 160.3q0.5 2.5 0.5 8.2z m-132.6-216.6q-12.3 0-19.4-7.2l-61-61.4v178.2q0 10.7-8.2 18.9t-18.9 8.2-18.9-8.2-8.2-18.9v-178.2l-61 61.4q-7.1 7.2-19.4 7.2-11.8 0-18.4-7.2-7.7-7.7-7.7-18.9t7.7-19l125.4-125.9 125.4 125.9q7.7 7.7 7.7 19t-7.7 18.9q-7.1 7.2-18.4 7.2z" /></svg>