<svg height="512" width="320.0" xmlns="http://www.w3.org/2000/svg"><path d="m160.3 82.4q-33.3 0-56.9 23.6t-23.5 56.8 23.5 56.8 56.9 23.6 56.8-23.6 23.5-56.8-23.5-56.8-56.8-23.6z m0-53.2q55.3 0 94.2 38.9t38.9 94.2-38.9 94.2-94.2 38.9-94.3-38.9-38.9-94.2 38.9-94.2 94.3-38.9z m0 346.1q-37.9 0-64.6 11.8t-37.3 27.6q38.4 14.9 101.9 14.9t101.3-14.9q-10.7-15.3-37.3-27.1t-63.5-11.8z m0-53.3q69.6 0 114.6 32.3t45.1 74.8q0 20.9-45.6 37.3t-114.1 15.9q-71.7 0-115.8-15.9t-44-37.3q0-42.5 44-74.8t115.8-32.3z" /></svg>