<svg height="512" width="586.8" xmlns="http://www.w3.org/2000/svg"><path d="m506.9 469h-427q-33.3 0-56.9-23.6t-23.5-56.8v-266.2q0-33.3 23.5-56.9t56.9-23.5h427q33.3 0 56.8 23.5t23.6 56.9v266.2q0 33.3-23.6 56.8t-56.8 23.6z m-427-373.3q-10.8 0-19 8.2t-8.2 19v266.2q0 10.8 8.2 19t19 8.2h427q10.7 0 18.4-8.2t7.7-19v-266.2q0-10.8-7.7-19t-18.4-8.2h-427z m160.2 240.2h-107q-10.7 0-18.4-8.2t-7.7-19 7.7-18.4 18.4-7.7h107q10.8 0 19 7.7t8.2 18.4-8.2 19-19 8.2z m0-107h-107q-10.7 0-18.4-7.7t-7.7-18.4 7.7-19 18.4-8.2h107q10.8 0 19 8.2t8.2 19-8.2 18.4-19 7.7z m107-12.8q0-53.8 53.3-53.8t53.2 53.8q0 53.2-53.2 53.2t-53.3-53.2z m53.3 75.7q28.7 0 47.6 11.8t18.9 27.2q0 7.6-19.4 13.3t-47.6 5.6q-30.2 0-48.2-5.6t-18.4-13.3q0-15.4 18.4-27.2t48.2-11.8z" /></svg>