<svg height="512" width="427.0" xmlns="http://www.w3.org/2000/svg"><path d="m107 162.3h213v186.9h-213v-186.9z m186.4 160.3v-133.2h-160.3v133.2h160.3z m53.7-320q33.3 0 56.9 23.5t23.5 56.8v347.2q0 33.3-23.5 56.8t-56.9 23.6h-79.8v-53.3h-107v53.3h-79.9q-33.3 0-56.8-23.6t-23.6-56.8v-347.2q0-33.2 23.6-56.8t56.8-23.5h79.9v53.7h107v-53.7h79.8z m26.1 107v-27.2q0-10.7-7.6-18.4t-18.5-7.7h-27.1v53.3h-213v-53.3h-27.1q-10.8 0-19 7.7t-8.2 18.4v27.2q10.8 0 19 8.2t8.2 18.9-8.2 18.4-19 7.7v27.2q10.8 0 19 8.1t8.2 19-8.2 18.4-19 7.7v27.1q10.8 0 19 8.2t8.2 19-8.2 18.4-19 7.7v27.1q10.8 0 19 8.2t8.2 19-8.2 18.4-19 7.7v27.1q0 10.8 8.2 18.9t19 8.2h27.1v-53.7h213v53.7h27.1q10.8 0 18.5-8.2t7.6-18.9v-27.1q-10.7 0-18.4-7.7t-7.7-18.4 7.7-19 18.4-8.2v-27.1q-10.7 0-18.4-7.7t-7.7-18.4 7.7-19 18.4-8.2v-27.1q-10.7 0-18.4-7.7t-7.7-18.4 7.7-19 18.4-8.1v-27.2q-10.7 0-18.4-7.7t-7.7-18.4 7.7-18.9 18.4-8.2z" /></svg>