<svg height="512" width="480.3" xmlns="http://www.w3.org/2000/svg"><path d="m252.4 228.4q3.1-18.5 19.5-33.8t34.3-14.9q39.9 0 32.2 43-6.6 40.5-38.4 79.4-29.7 35.3-55.3 53.2-7.6 4.1-14.8 4.1-17.4 0-28.2-22.5-2.5-5.1-16.9-53.3t-16.4-50.6q-1.5-2.6-4-2.6-10.3 0-20 9.7l-7.7-10.7 9.2-10.8q30.2-32.2 51.2-36.3h5.1q9.3 0 14.9 8.7t7.7 18.9 4.1 24.1 3 18.9q9.8 41.5 16.9 41.5 9.2 0 28.2-37.4 6.6-10.7 4.1-22.5t-13.3-11.8q-4.6 0-14.9 5.7z m-12.3 267.7q-99.3 0-169.4-70.6t-70.7-169.5 70.7-169.5 169.4-70.6 169.5 70.6 70.7 169.5-70.7 169.5-169.5 70.6z m0-427q-77.3 0-132.1 54.8t-54.8 132.1 54.8 132.1 132.1 54.8 132.1-54.8 54.8-132.1-54.8-132.1-132.1-54.8z" /></svg>