<svg height="512" width="572.9" xmlns="http://www.w3.org/2000/svg"><path d="m392.2 183.3q30.2 30.2 30.2 72.2 0 41.5-30.2 71.7-8.2 8.2-19.5 8.2-10.2 0-18.4-8.2-7.7-7.7-7.7-18.5t7.7-18.4q14.3-14.3 14.3-34.8t-14.3-34.8q-7.7-7.7-7.7-19t7.7-18.9 18.9-7.7 19 7.7z m53.2-53.3q51.8 51.8 51.8 125 0 74.2-51.8 125.9-7.6 7.7-18.4 7.7-11.8 0-19.4-7.7t-7.7-18.9 7.7-19q35.8-35.8 35.8-88t-35.8-88.1q-7.7-7.7-7.7-18.4t7.7-18.5 18.9-7.6 18.9 7.6z m53.3-53.7q74.2 73.2 74.2 178.7 0 104.9-74.2 179.2-7.7 7.7-18.4 7.7t-18.5-7.7-7.7-19 7.7-18.9q58.4-58.4 58.4-141.3 0-82.5-58.4-140.8-7.7-7.7-8.2-19t7.2-18.9 18.9-7.7 19 7.7z m-228.4-12.3q20 0 34.9 14.8t14.8 42.5v266.8q0 27.6-14.8 43t-34.9 15.4q-17.9 0-35.8-12.3l-71.2-47.6q-14.8-10.3-39.9-18t-43-7.6q-33.3 0-56.8-23.6t-23.6-56.8v-53.3q0-33.3 23.6-56.8t56.8-23.6q18.4 0 43.5-7.1t39.9-17.4l71.2-47.6q17.9-12.3 35.8-12.3z m-189.9 244.7q23.5 0 54.3 9.3t52.7 22v-168q-22.5 12.8-52.7 21.5t-54.3 8.7q-10.8 0-19 8.2t-8.2 19v53.2q0 10.8 8.2 19t19 8.2z m186.9 79.9v-266.7q0-0.6-0.5-2.1v-1.5q-1.6 1.5-2.6 2l-50.7 33.3v202.8l50.7 33.2q1.5 0.5 2.6 2.1v-1.6q0.5-1.5 0.5-2z" /></svg>