<svg height="512" width="525.3" xmlns="http://www.w3.org/2000/svg"><path d="m263.2 76.3q-25.1 0-41.5 28.1l-157.7 262.7q-16.9 28.2-5.6 48.6t44.5 20.5h320q33.3 0 44-20.5t-5.6-48.6l-157.7-262.7q-16.9-28.1-40.9-28.1z m0-53.8q54.2 0 86.5 54.3l158.2 263.2q32.3 53.7 5.6 101.9-26.1 47.6-90.1 47.6h-320q-63.5 0-91.1-47.6-27.1-47.7 5.6-101.9l158.2-263.2q32.3-54.3 87.1-54.3z m-35.4 333.3q0-35.3 35.4-35.3 34.8 0 34.8 35.3 0 34.9-34.8 34.9-35.4 0-35.4-34.9z m74.8-160.2q0 7.2-3.1 14.8l-36.3 91.7q-22.6-55.3-37.4-91.7-3.1-7.6-3.1-14.8 0-16.9 11.8-28.7t28.7-11.8 28.1 11.8 11.8 28.7z" /></svg>