<svg height="512" width="480.3" xmlns="http://www.w3.org/2000/svg"><path d="m399.9 69.1q32.7 0 56.3 23.6t23.5 56.3q0 30.7-20.4 53.2 20.4 22.6 20.4 53.8 0 30.7-20.4 53.2 20.4 22.6 20.4 53.3 0 33.3-23.5 56.8-56.3 56.3-136.2 56.3t-136.2-56.3q-9.7-9.7-23.5-9.7t-23.6 9.7q-23 23.1-56.3 23.1-32.8 0-56.3-23.6t-23.6-56.3q0-30.7 20.5-53.3-20.5-22.5-20.5-53.2 0-31.2 20.5-53.8-20.5-22.5-20.5-53.2 0-32.8 23.6-56.3 56.8-56.9 136.2-56.9t136.1 56.9q9.8 9.7 23.6 9.7t23.6-9.7q23.5-23.6 56.3-23.6z m18.4 312.3q7.7-7.6 7.7-18.9t-7.7-18.9-18.4-7.7-18.5 7.7q-25 25-61.4 25t-61.4-25q-41-41-98.9-41t-98.8 41q-7.7 7.6-7.7 18.9t7.7 18.9 18.5 7.7 18.4-7.7q25.6-25.6 61.4-25.6t61.5 25.6q40.9 41 98.8 41t98.8-41z m-357.4-250.8q-7.7 7.6-7.7 18.4t7.7 18.4q8.2 8.2 18.5 8.2t18.4-8.2q25.1-25.1 61.4-25.1t61.5 25.1q40.9 41 98.8 41t98.8-41q7.7-7.7 7.7-18.4t-7.7-18.4q-8.2-8.2-18.4-8.2t-18.5 8.2q-25 25-61.4 25t-61.4-25q-41-41-98.9-41t-98.8 41z m357.4 143.8q7.7-7.6 7.7-18.9t-7.7-19-18.4-7.6-18.5 7.6q-25.6 25.6-61.4 25.6t-61.4-25.6q-41-40.9-98.9-40.9t-98.8 40.9q-7.7 7.7-7.7 19t7.7 18.9 18.5 7.7 18.4-7.7q25.1-25.1 61.4-25.1t61.5 25.1q40.9 41 98.8 41t98.8-41z" /></svg>