<svg height="512" width="373.2" xmlns="http://www.w3.org/2000/svg"><path d="m266.8 422.4q-58.4 0-99.4-41-25.6-25.6-60.9-25.6t-60.9 25.6q-7.7 7.7-19 7.7t-18.9-7.7-7.7-18.9 7.7-18.9q40.9-41 98.8-41t98.8 41q25.6 25.6 60.9 25.6t61-25.6q7.6-7.7 18.9-7.7t19 7.7 7.6 18.9-7.6 18.9q-41 41-98.9 41z m0-107q-58.4 0-99.4-41-25.6-25.6-60.9-25.6t-60.9 25.6q-7.7 7.7-19 7.7t-18.9-7.7-7.7-18.9 7.7-19q40.9-40.9 98.8-40.9t98.8 40.9q25.6 25.6 60.9 25.6t61-25.6q7.6-7.6 18.9-7.6t19 7.6 7.6 19-7.6 18.9q-41 41-98.9 41z m0-107q-58.4 0-99.4-41-25.6-25.6-60.9-25.6t-60.9 25.6q-7.7 7.7-19 7.7t-18.9-7.7-7.7-18.4 7.7-18.4q40.9-41 98.8-41t98.8 41q25.6 25.6 60.9 25.6t61-25.6q7.6-7.7 18.9-7.7t19 7.7 7.6 18.4-7.6 18.4q-41 41-98.9 41z" /></svg>