<svg height="512" width="488.4" xmlns="http://www.w3.org/2000/svg"><path d="m488.4 206.8q0 41-28.1 69.2l-148.5 151q-15.4 15.9-30.2 21t-36.9 5.1q-41.4 0-70.6-32.2-142.9-143.4-153.6-154.1-8.2-8.2-14.4-25.1t-6.1-32.8q0-30.7 18.4-55.8 14.9-15.9 20-20 89.1-74.7 205.8-74.7t205.8 74.7q8.2 6.7 14.4 12.8 24.6 23.1 24.6 60.4z m-243.7 193.6q16.9 0 28.2-11.8t11.8-28.2-11.8-28.6-28.2-11.8-28.6 11.8-11.8 28.6 11.8 28.2 28.6 11.8z m104-87.1q11.7-11.7 11.7-28.6t-11.7-28.7q-43-43-104-43t-103.9 43q-11.8 11.8-11.8 28.7t11.8 28.6 28.7 11.8 28.6-11.8q20-19.9 47.1-19.9t47.2 19.9q11.7 11.8 28.1 11.8 17.4 0 28.7-11.8z m74.7-75.7q11.8-11.8 11.8-28.7t-11.8-28.7q-73.7-73.7-178.7-73.7t-179.2 73.7q-11.7 11.8-11.7 28.7t11.7 28.7 28.2 11.7 28.2-11.7q51.2-51.2 122.8-51.2t122.4 51.2q11.8 11.7 28.2 11.7t28.1-11.7z" /></svg>