<svg height="512" width="427.0" xmlns="http://www.w3.org/2000/svg"><path d="m411.6 129.5q15.4 4.6 15.4 46.1 0 55.3-39.4 94.2t-94.2 38.9q-14.4 0-27.2-2.5-15.8 19.9-46 59.4t-55.8 69.6q-28.2 33.3-71.2 33.3-38.4 0-66.1-27.2t-27.6-65.5q0-43 32.8-71.7 30.2-25.6 70.6-55.3t60.4-46.6q-3-15.8-3-27.1 0-55.3 38.9-94.2t94.2-38.9q19.9 0 39.9 6.6 7.2 2.1 9.2 9.3t-3.6 13.3l-71.1 69.1 10.2 50.7 51.2 10.2 69.6-68.1q5.7-5.6 12.8-4.1z m-317.9 272.9q10.7 0 18.9-7.6t8.2-18.5-8.2-18.9-18.9-8.2-18.9 8.2-8.2 18.9 8.2 18.5 18.9 7.6z" /></svg>