<svg height="512" width="448.0" xmlns="http://www.w3.org/2000/svg"><path d="m253.4 231.4h-133.1q-5.1 0-9.2-4.1t-4.1-9.2 4.1-9.2 9.2-4.1h133.1q5.2 0 9.3 4.1t4.1 9.2-4.1 9.2-9.3 4.1z m170.5 105.5q24.6 24.6 24.6 58.9t-24.6 59.4-58.8 24.5q-31.3 0-56.4-20.9l-64-63.5q-30.7 9.7-57.8 9.7-77.3 0-132.1-54.8t-54.8-132.1 54.8-132.1 132.1-54.3 132.1 54.3 54.2 132.1q0 30.2-9.7 58.4z m-104.4-29.7q-17.4 26.1-43.5 43.5l67 66.6q9.8 8.2 22.1 8.2 12.8 0 21.5-9.2t8.7-21q0-13.3-9.3-21z m-266.3-89.6q0 55.3 39.5 94.2t94.2 39.4 94.2-39.4 38.9-94.2-38.9-94.2-94.2-38.9-94.2 38.9-39.5 94.2z" /></svg>