<svg height="512" width="448.0" xmlns="http://www.w3.org/2000/svg"><path d="m253.4 204.8q5.7 0 9.8 4.1t4.1 9.7-4.1 9.8-9.8 4h-133.1q-5.6 0-9.7-4t-4.1-9.8 4.1-9.7 9.7-4.1h133.1z m170.5 132.6q24.6 24.6 24.6 58.9t-24.6 59.4-58.8 24.6q-36.4 0-59.4-24.6l-60.5-60.4q-30.7 9.7-58.3 9.7-77.3 0-132.1-54.8t-54.8-132.1 54.8-132.1 132.1-54.3 132.1 54.3 54.2 132.1q0 29.7-9.2 58.4 5.7 5.6 16.9 17.4t16.9 17.4z m-370.7-119.3q0 55.3 39.5 94.2t94.2 39.4 94.2-39.4 38.9-94.2-38.9-94.2-94.2-38.9-94.2 38.9-39.5 94.2z" /></svg>