<svg height="512" width="501.2" xmlns="http://www.w3.org/2000/svg"><path d="m0.5 76.8q-2-18.9 8.2-27.1t23-2.6 18 19.5l27.1 94.2q-8.2 14.8-7.2 32.7 3.1 14.9 18 104 4 27.1 16.3 42t33.3 14.8q24.1 0 37.9-18.9 16.9 19.9 42 18.9t37.9-21q13.8 19 36.3 21t37.4-13.8q6.1-8.2 10.2-15.9t6.2-18.9 2.5-16.9 0.6-20.5v-19.5q12.8 5.2 31.2-11.7 25.1-23.1 55.8-40t50.2-4.1q16.9 11.8 15.8 30.2t-17.9 28.2q-31.2 12.8-53.2 42t-33.8 57.3-29.7 59.9-39.9 47.6q-10.8 9.3-33.8 9.3h-179.2q-43-3.1-53.8-59.9z m93.2 119.8q-3.1-23 10.7-33.3t29.2-4.1 18.5 24.6l10.7 107q2.1 21-8.7 32.3t-24.1 7.7-18.4-23.1z m78.8-35.8q1.1-21 16.4-28.7t31.8 0.5 18.4 25.1l4.1 127q0 30.2-14.3 38.9t-29.2-2.6-15.4-31.7z m90.2-2.1q2-22 18.4-28.1t31.7 3.5 15.4 26.7l-3.1 130q-3.1 24.1-17.4 33.8t-28.1-0.5-14.4-34.3z" /></svg>