<svg height="512" width="512.0" xmlns="http://www.w3.org/2000/svg"><path d="m0 256q0-106 74.8-180.7t180.7-74.8 180.7 74.8 74.8 180.7-74.8 180.7-180.7 74.8-180.7-74.8-74.8-180.7z m112.1 92.2q-2 27.1 21 50.1 17.9 18 40 18 26.1-1.1 49.1-23.1 14.9-15.9 66.6-67.6t79.3-78.3q23.1-25.1 30.2-48.1 10.3-42-24-75.8-27.2-27.1-56.9-27.1h-4.1q-31.7 1-64 31.7l-134.1 135.2 22 22 134.2-134.2q27.1-26.1 49.1-24 22 3 37.4 24t10.7 40q-2 3-3 6.6t-3.1 6.7-3.6 5.1-4.1 5.1-3.6 5.1-4.6 5.2-4.6 4.6-5.1 5.1-5.1 4.6l-62.5 62.5-69.6 69.6q-13.8 12.8-23.6 14.3t-22.5-8.7q-11.8-12.8-10.8-25.1 1.1-10.7 12.8-22l122.9-122.9q16.9-16.8 23.1-11.7 4.1 9.2-10.8 24l-113.1 113.2 22 22 113.1-113.1q37.9-39 11.8-67.1-31.2-26.1-68.1 10.7l-122.9 122.9q-18.9 19-22 41z" /></svg>