<svg height="512" width="512.0" xmlns="http://www.w3.org/2000/svg"><path d="m0 256q0-106 74.8-180.7t180.7-74.8 180.7 74.8 74.8 180.7-74.8 180.7-180.7 74.8-180.7-74.8-74.8-180.7z m109.1-126q3 6.2 9.2 8.2l34.8 10.8 12.8 125.9-8.2 45.1q-1 7.2 3.6 11.8t11.2 6.1h193.1q6.1 0 10.7-4.6t4.6-10.7-4.6-10.8-10.7-5.6h-175.1l4.1-20h182.7q11.8 0 14.9-12.8l12.8-72.2q1-6.1-3.1-11.2t-10.7-6.7l-205.9-23-3-25.1q-1.1-10.3-10.3-13.9l-46-13.8q-6.2-2-11.8 1-12.8 8.2-6.2 21z m62.9 241.2q0 10.2 7.2 16.9t16.9 7.2 16.9-7.2 7.2-16.9-7.2-16.9-16.9-7.2-16.9 7.2-7.2 16.9z m140.8 0q0 10.2 7.2 16.9t16.9 7.2 16.9-7.2 7.2-16.9-7.2-16.9-16.9-7.2-16.9 7.2-7.2 16.9z" /></svg>