<svg height="512" width="329.7" xmlns="http://www.w3.org/2000/svg"><path d="m0 448.5q0-26.6 18.4-45t44.6-18.5 45 18.5 19 45-19 45.1-45 18.4-44.6-18.4-18.4-45.1z m0-192.5q0-26.1 18.4-45.1t44.6-18.9 45 18.9 19 45.1-19 45.1-45 18.9-44.6-18.9-18.4-45.1z m0-192.5q0-26.6 18.4-45.1t44.6-18.4 45 18.4 19 45.1-19 45-45 18.5-44.6-18.5-18.4-45z m202.8 385q0-26.6 18.9-45t45.1-18.5 44.5 18.5 18.4 45-18.4 45.1-44.5 18.4-45.1-18.4-18.9-45.1z m0-192.5q0-26.1 18.9-45.1t45.1-18.9 44.5 18.9 18.4 45.1-18.4 45.1-44.5 18.9-45.1-18.9-18.9-45.1z m0-192.5q0-26.6 18.9-45.1t45.1-18.4 44.5 18.4 18.4 45.1-18.4 45-44.5 18.5-45.1-18.5-18.9-45z" /></svg>