<svg height="512" width="457.2" xmlns="http://www.w3.org/2000/svg"><path d="m0 512v-331.8h457.2v331.8h-457.2z m0-361v-113.1h55.8v72.2h101.9v-72.2h140.8v72.2h101.9v-72.2h55.8v113.1h-457.2z m86-71.1v-79.9h42v79.9h-42z m30.2 316.9q0 56.8 63 56.8 24.1 0 43-15.8 20-15.9 20-41 0-34.8-40-46.1 25.1-8.2 32.8-25.1 6.2-13.8-1-36.8-13.8-31.8-54.8-31.8-26.1 0-44 13.3t-19 39.5h36.9q0-23.1 25.1-24.1 22 0 23 27.1 0 25.1-43 24.1v29.2q25.1 0 34.8 4.1 11.8 6.1 11.8 24 0 29.2-28.2 31.3-22 0-24-28.2h-36.9z m143.9-74.8q25.1-7.1 45.1-24v152h35.8v-189.9h-32.8q-18.9 18.9-48.1 30.2v31.7z m69.1-242.1v-79.9h42v79.9h-42z" /></svg>