<svg height="512" width="337.9" xmlns="http://www.w3.org/2000/svg"><path d="m0 503.8v-177.1q-1-47.1 23-73.3t66.1-27.1h160.8q46 0 66.5 28.7t21.5 71.7v177.1q-1 8.2-7.1 8.2h-46.1q-8.2-1-8.2-8.2v-158.2q-2.1-13.8-12.8-12.3t-11.8 12.3v158.2q0 8.2-7.2 8.2h-150q-7.1 0-7.1-8.2v-158.2q-2.1-13.8-12.8-12.3t-11.8 12.3v158.2q0 8.2-7.2 8.2h-48.1q-7.2-1-8.2-8.2z m66-398.3q0-43.5 31.3-74.3t74.2-31.2 74.3 31.2 31.2 74.3-31.2 74.2-74.3 30.7-74.2-30.7-31.3-74.2z m45.1 17.4q0 24 17.4 41.5t42 17.4 42-17.4 17.4-41.5h-118.8z" /></svg>