<svg height="512" width="362.0" xmlns="http://www.w3.org/2000/svg"><path d="m0 512v-462.8h115.2v32.7h-81.9v395.8h295.9v-395.8h-81.9v-32.7h115.2v462.8h-362z m66-66v-15.9h15.9v15.9h-15.9z m0-62v-15.9h15.9v15.9h-15.9z m0-62v-15.8h15.9v15.8h-15.9z m0-61.9v-15.9h15.9v15.9h-15.9z m0-62v-15.8h15.9v15.8h-15.9z m0-49.1v-48.1h66.1v-50.2q0-21 13.8-35.9t34.8-14.8 35.4 15.4 14.3 35.3q0 29.2-1 50.2h66v48.1h-229.9z m49.2 298v-16.9h180.7v16.9h-180.7z m0-62v-16.9h180.7v16.9h-180.7z m0-61.9v-16.9h180.7v16.9h-180.7z m0-62v-16.9h180.7v16.9h-180.7z m0-61.9v-16.9h180.7v16.9h-180.7z m50.2-133.2q0 7.2 4.6 11.3t11.2 4.6 11.3-4.6 4.6-11.3-4.6-11.7-11.3-5.1-11.2 5.1-4.6 11.7z" /></svg>