<svg height="512" width="512.0" xmlns="http://www.w3.org/2000/svg"><path d="m0 256q0-106 74.8-180.7t180.7-74.8 180.7 74.8 74.8 180.7-74.8 180.7-180.7 74.8-180.7-74.8-74.8-180.7z m99.8 24.1l47.1 5.1q4.1 14.8 10.8 27.1l-30.2 36.9 34.8 34.8 36.9-30.2q11.7 7.2 27.1 10.7l5.1 47.1h48.2l5.1-47.1q14.8-4.1 27.1-10.7l36.9 30.2 34.8-34.8-30.2-36.9q7.1-11.8 10.7-27.1l47.1-5.1v-48.2l-47.1-5.1q-4.1-14.8-10.7-27.1l30.2-36.9-34.8-34.8-36.9 30.2q-11.8-7.2-27.1-10.7l-5.1-47.1h-48.2l-5.1 47.1q-14.8 4.1-27.1 10.7l-36.9-30.2-34.8 34.8 30.2 36.9q-7.2 11.8-10.8 27.1l-47.1 5.1v48.2z m111.1-24.1q0-18.9 12.8-31.7t31.8-12.8 31.7 12.8 12.8 31.7-12.8 31.7-31.7 12.8-31.8-12.8-12.8-31.7z" /></svg>