<svg height="512" width="432.6" xmlns="http://www.w3.org/2000/svg"><path d="m0 291.3q-1-30.7 4.1-59.9t12.3-63.5 7.7-48.1v-87q1-13.9 10.7-23.6t22.5-9.7h178.2q12.8 1 22.5 10.7t9.8 22.6v78.8q9.2 11.8 30.2 31.2t29.2 30.3q9.2 10.7 21 17.9 10.7 5.1 39.4 9.7t40.4 15.4q11.8 29.1-2 58.8t-42 40q-38.9 13.8-87-9.2 0 28.1-1.1 139.7-2 29.2-19.4 47.7t-45.6 18.4q-27.1 0-45-19.5t-19-46.6v-54.7q-15.9-3.1-29.2-10.8-34.8 5.1-60.9-16.9-36.9-2-55.8-21.5t-20-50.2z m30.2-15.3q-1 28.1 13.3 42.5t46.6 9.7q7.2 13.8 24.1 18.4t30.2-3.6q30.2 30.2 54.8 5.2v97.8q1 13.8 10.2 23t21 10.2q14.8-1 23.6-10.2t9.7-23v-186.9q11.8 2 33.8 10.7t37.3 13.8 33.8 2.1 29.7-21.5q7.2-12.8 5.2-24.1-1.1-2-2.6-2.5t-3.6-0.5q-23-4.1-34.8-6.7t-28.7-10.8-27.6-20.9q-7.2-9.3-34.8-34.3t-35.9-44.6v-2h-178.2q0 11.7-7.6 43t-12.8 58.8-6.7 55.9z" /></svg>