<svg height="512" width="512.0" xmlns="http://www.w3.org/2000/svg"><path d="m0 268.3q3.1-25.1 32.8-55.8 39.9-41 90.1-66.1 66-31.2 133.1-31.2 14.8 0 30.2 1l37.9-66q5.1-8.2 11.8-9.2 2 0 4.1 1l26.1 15.9q9.2 4.1 1 16.9l-29.2 52.2-24 39.9-21 36.9-74.3 128-21 36.8-24 41-29.2 51.2q-8.2 12.8-15.9 8.2l-27.1-15.9q-8.2-4.1 0-16.9l25.1-44-4.1-2.1q-53.3-27.1-90.1-66-32.8-36.9-32.8-55.8z m135.2 0q0 37.9 24 68.1l25.1-43q-5.1-11.8-5.1-25.1 0-26.1 17.4-46.6t43.5-25.6l25.1-43h-9.2q-50.2 0-85.5 33.3t-35.3 81.4z m91.1 151l21-35.8h9.2q50.2 0 85.5-33.3t35.3-81.4q0-37.9-24-68.1l31.7-55.8q1 1 2.1 1.5t2 0.5q53.3 27.2 90.1 66.1 32.8 36.9 32.8 55.8-3.1 25.1-32.8 55.8-39.9 41-90.1 66.1-66 31.2-133.1 31.2-12.8 0-30.2-2.1z m46.1-78.8l55.8-96.8q5.1 12.8 5.1 25.1 0 26.1-17.4 46.1t-43.5 26.1z" /></svg>