<svg height="512" width="511.0" xmlns="http://www.w3.org/2000/svg"><path d="m0 425.5l107-351.3q2.1-6.1 8.2-6.1h71.2q6.1 0 8.2 6.1l105.9 349.2q1.1 3.1 1.1 4.1 0 8.2-8.2 8.2h-64q-6.2 0-8.2-6.1l-17.9-63h-105l-17.9 63q-2.1 6.1-8.2 6.1h-64q-10.2 0-8.2-10.2z m114.2-127h73.2l-36.9-129z m188.9 56.8q2.1-43 27.1-66 24.1-21 56.9-21 33.8 0 55.8 17.9v-15.9q0-37.9-38.9-37.9-30.2 0-54.8 26.2-9.2 7.1-12.8-2.1l-21-34.8q-2.1-6.1 2-10.2 19-19 43-28.2 29.2-11.8 66.6-9.2t58.4 23q26.1 23.1 26.1 66.1v165.9q0 8.1-8.2 8.1h-51.2q-8.2 0-9.2-8.1v-5.2q-24.1 19-55.8 19-33.8-1-56.9-23.1-26.1-25-27.1-65z m68.1 1.1q0 14.8 9.2 26.1 14.9 11.7 34.3 8.7t28.7-17.4v-34.9q-7.2-12.8-19-15.8-29.1-10.3-44 7.1-9.2 11.8-9.2 27.2z" /></svg>