<svg height="512" width="474.1" xmlns="http://www.w3.org/2000/svg"><path d="m0 436.7q0-47.1 52.2-65v-1q-18.9-10.8-18.9-35.9 0-31.2 17.9-38.9v-1q-17.9-6.1-31.7-28.1-14.9-23.1-14.9-50.2 0-41 28.2-68.1 28.1-25.1 66-25.1 27.2 0 51.2 13.8 27.2 0 62-13.8v57.8q-8.2 3.1-22 6.2 4 12.8 4 24.1 0 35.8-21.5 62.4t-55.3 31.8q-23 4.1-23 24 0 8.2 8.2 14.9 9.2 10.7 28.2 12.8 79.8 12.8 79.8 67 0 87.1-103.9 87.1-43 0-70.1-14.9-34.9-18.9-34.9-59.9z m58.9-3q0 29.1 49.1 29.1 43 0 43-31.2 0-28.1-47.1-28.1-45 0-45 30.2z m6.1-217.1q0 38.9 34.8 38.9 33.8 0 33.8-38.9 0-16.9-8.2-28.2-9.2-12.8-26.1-12.8-34.8 0-34.8 41z m165.9-175.6q0-17.4 11.3-29.7t27.6-11.8 27.7 11.8 11.2 29.7-11.2 29.7-27.7 11.7-27.6-11.7-11.3-29.7z m7.2 334.3q2-10.8 2-37.9v-175.1q0-26.1-2-35.8h64q-1 10.7-1 34.8v172q0 29.2 1 42h-64z m91.1-195.1v-53.7h27.2v-22.1q0-15.8-2.1-25h65q-1 10.7-1 24v23.1h48.1v53.7q-2 0-9.7-0.5t-14.3-0.5h-24.1v103.9q0 37.9 24.1 37.9 17.9 0 31.7-10.2v56.8q-21 10.8-50.2 10.8-40.9 0-56.8-29.2-10.7-22-10.7-69.1v-101.9h-8.2q-8.2 0-19 1z" /></svg>