<svg height="512" width="512.0" xmlns="http://www.w3.org/2000/svg"><path d="m0 256q0-106 74.8-180.7t180.7-74.8 180.7 74.8 74.8 180.7-74.8 180.7-180.7 74.8-180.7-74.8-74.8-180.7z m28.2 0q0 94.2 67 160.8t160.8 67 160.8-67 67-160.8-67-160.8-160.8-67-160.8 67-67 160.8z m72.2 54.8q-2.1-2.1 0-4.1 4-4.1 10.2-3.1t7.2 2.1q7.1 3 15.3 13.3t13.3 14.3q24.1 20 49.2 3.1 2-7.2 6.6-11.8t8.7-7.2 13.9-6.1q-32.8-3.1-53.3-11.3t-32.2-21.5q-15.9-17.9-19.5-47.1t4.6-53.2q6.2-14.9 16.9-27.2-8.2-25 3.1-56.8 31.7 2.1 57.8 22 50.2-12.8 104-1 7.1-5.1 21.5-12.3t36.3-8.7q4.1 10.8 5.7 26.1t-1.6 28.2q23.1 24 24.1 64 0 31.7-10.8 53.2t-38.9 34.8q-18.9 9.3-50.1 10.8 13.8 7.2 20.4 14.3t8.7 23.6v31.7t1.1 30.7q3 5.2 7.1 8.8t7.2 5.1 2 4.6-8.1 3.1q-16.9 0-27.2-11.8-3.1-5.1-3.1-11.8v-48.1q0-8.2-4.1-11.3t-8.1-4.6v63q0 16.9 4.1 22t5.1 10.2q1 1.1-1.6 1.6t-8.7-1.6q-12.8-3-17.9-13.3t-5.1-22.5v-62h-12.8v62q0 11.8-5.1 23-7.2 13.9-26.1 14.9-3.1-1-3.1-2.1 1-1 6.1-10.2 1.1-2.1 2.6-8.2t1.5-13.8v-63q-4.1 1-7.7 4.6t-3.5 11.3v48.1q0 7.2-3.1 11.8-9.2 11.8-27.1 11.8-7.2 0-8.2-3.1-1.1-2.1 0.5-3.6t4.6-3.6 4.1-3.1q4.1-3 6.1-8.2 3.1-4 1.6-20.9t-0.6-22.1q-26.1 9.3-53.2-9.2-8.2-8.2-15.9-23-6.1-10.8-24-26.1z" /></svg>