<svg height="512" width="512.0" xmlns="http://www.w3.org/2000/svg"><path d="m0 256q0-106 74.8-180.7t180.7-74.8 180.7 74.8 74.8 180.7-74.8 180.7-180.7 74.8-180.7-74.8-74.8-180.7z m64-29.2q10.8 13.8 24.1 22t33.2 14.9 29.7 10.7q2.1 3.1 7.7 7.7t7.7 5.6q0 3.1-1 8.2-1 10.8 0.5 20t4.1 13.8 8.2 14.4 8.7 14.3q1 3.1 0 7.2-1 8.2-4.6 32.7t-3.6 38.9q20 11.8 38.9 12.8 2-4 4.1-9.2 2-4.1 4.6-10.7t6.7-14.4q0-7.1 2.5-12.8t5.7-9.2q3-4.1 7.1-7.1 10.3-8.2 17.9-15.9t9.3-12.8q4.1-15.9 5.1-34.8 0-6.2-4.6-10.3t-10.8-8.2q-9.2-4.1-23.5-17.4t-21.5-16.4q-9.3-4-17.4-4.6t-15.4 0.6q-7.2 2-16.9 1-2.1-3.1-4.1-4.1-4.1-2.1-1-5.1 2-4.1-1.6-5.7t-7.6-0.5q-4.1-11.8-4.1-18.9 7.1 6.1 11.7 9.2t9.3 4.1 7.1 1q5.1-2 6.2-10.2t-1.1-22q2.1-2.1 2.1-4.1 2-9.3 5.6-11.3t3.6-3.6q2.1 0 2.1-1 2-1 8.1-2.1 3.1-1 5.2-1.5t5.1-1.5q4.1-2.1 2-6.2h-1q9.2-5.1 17.9-21-6.1-10.2-17.9-15.8-4.1-5.2-10.2-3.1-3.1 0-7.7-3.1t-6.7-4.1-6.1-2q-7.2-4.1-13.3-10.8t-10.8-13.3q-2-5.1-9.2-7.2-5.1-1-10.2-1h-6.2q-28.1 22-47.6 53.3t-25.6 69.1z m131.1-152q12.8 7.1 31.2 12.8t34.8 6.1q11.8 0 26.1-8.2 13.9-10.2 38.9-5.1 4.1 1 7.2 1-17.9-8.2-37.9-11.8t-40.9-4.1q-31.3 0-58.9 9.3z m83.9 196q2.1 12.8 10.3 20 6.1 6.2 12.8 7.2t12.8 0 13.8 1q4.1 2.1 5.1 2.1-3 7.1-2 10.7 0 2.1 3 9.7t3.1 12.3q-2 25.1 0 31.3 3.1 6.1 7.2 16.9t7.2 16.8q2 4.1 7.1 5.2 10.3 2 24.1-11.8 10.2-11.8 11.8-26.1 1-5.1 4.1-10.8t5.1-12.8q1-3 0-7.1 7.1-10.8 7.1-20v-7.2q1.1-2 5.2-5.6t6.1-5.6q3.1-11.8 1-15.9 0-1-2-2.1l-9.2-3q6.1-12.8 17.9-10.3l15.9-5.1v-3.1q0-46-18.5-83.4t-50.7-64.5q-52.2 6.1-65 23-6.1 10.2-8.2 16.9-1 4.1-2.5 10.8t-2.1 8.7-2.5 6.1-6.2 9.2q-2 2.1-2 5.7t3 9.7q3.1 5.1 3.1 9.2 14.9 0 19-5.1l35.8 3q12.8-15.8 29.2 0 4.1 4.1 9.2 12.8l-14.9 10.3q-10.2-5.1-16.8-8.2t-14.4-4.1-11.2-0.5-15.4 2-18.4 1.6l-2.1 4.1t-3.1 3.6-4.1 1.5q-1 2-1 5.1v4.1q-10.7 13.8-7.1 32.8z" /></svg>