<svg height="512" width="512.0" xmlns="http://www.w3.org/2000/svg"><path d="m0 512v-64q26.1-30.2 73.2-38.9 42-6.2 53.8-6.2 9.2 0 17.9 1.1 7.2 6.1 31.7 23t36.9 28.2q28.2 24 28.2 49.1 0 5.1-1.1 8.2h-241.1z m0-106v-130q46.1 33.8 103.9 26.1-13.8 34.8 1.1 58.9 7.1 10.7 14.8 22h-26.1q-67.1 2-94.2 23z m0-315.9v-90.1h512v138.8h-94.2v-95.3h-41v95.3h-95.2v38.9h95.2v95.7h41v-95.7h94.2v333.8h-226.8q10.2-36.9-3.1-67.1-12.8-29.2-43-54.8-13.8-11.7-52.2-42-20-13.8-20-31.7 1-15.9 21-36.9 29.2-22 42-41.9 17.9-27.2 17.9-64 0-33.8-15.9-61-10.2-15.8-29.1-33.8h45l42-33.8h-157.2q-37.9 1.1-74.2 12.3t-58.9 33.3z m30.2 31.2q7.2-30.2 35.8-44 12.8-6.1 28.2-7.2 23 0 41 13.9 34.8 29.2 47.1 78.8 10.2 40 1 66.1-11.8 33.8-37.9 40.9-39.9 10.8-68.1-8.2-32.8-26.1-44-72.2-8.2-34.8-3.1-69.1z" /></svg>