<svg height="512" width="503.3" xmlns="http://www.w3.org/2000/svg"><path d="m2.6 160.8q-7.2-14.9 6.1-22 7.2-3.1 13.3-1.1t9.7 7.2q10.3 15.9 29.7 26.1t35.4 10.2h160.7q-15.8 79.9-13.8 152.1-9.2 0-25.6-3.1t-24.6-3q-13.8-2.1-10.2 11.7l23 91.2q-1 25.1-19.9 28.1-8.2 0-15.9-5.6t-10.2-11.3l-29.2-114.1q-1.1-6.2-6.7-6.2t-7.7 6.2l-27.1 113.1q-5.1 17.9-22 17.9-10.8 0-17.9-9.2t-5.2-18.9l32.8-134.2 2.1-81.9q-23.1-6.1-45.6-20t-32.3-32.7z m202.2-84q-6.1-10.8 4.1-16.9 10.7-6.1 16.9 3.1l56.8 90.1q6.2 11.8-3 17.9-11.8 5.1-18-4.1z m46.1 352.8l19.9-82q1.1-4-1-8.1 1-95.3 12.8-150.1 40 52.3 108.1 66.1-2.1 6.1-6.7 17.4t-6.7 16.4q-2 7.1 2.1 21 14.8 57.8 31.2 117.7 2.1 14.9-8.2 21t-22 3.1-14.8-11.8l-23.1-88q-5.1-9.3-13.8-9.8t-11.8 9.8l-21 87q-5.1 12.8-16.9 13.8t-21-7.1-7.1-16.9z m49.1-260.1l69.2-71.2 11.7-44 27.2 31.7q3 1 13.3 3.1t15.8 4.1 11.8 6.6 9.8 10.8 6.1 23 7.2 21q6.1 6.2 12.8 10.8t16.9 16.9q9.2 17.9-25.1 35.8-13.9-1-26.7-3.1t-21.5-3q-11.7-2.1-20.9-4.1-2.1 5.1-3.6 10.7t-4.6 11.8q-30.2-6.1-57.9-22.5t-42-39.5z" /></svg>