<svg height="512" width="512.0" xmlns="http://www.w3.org/2000/svg"><path d="m0 256q0-106 74.8-180.7t180.7-74.8 180.7 74.8 74.8 180.7-74.8 180.7-180.7 74.8-180.7-74.8-74.8-180.7z m161.8-135.2q-2.1 25.1 6.1 29.2h29.2q10.8-24 35.9-23 16.9 0 29.7 16.4t5.6 33.2q-5.1 11.8-14.9 28.7t-15.8 28.7q-10.3 21-10.8 46.1t10.8 50.1l35.8 1.1q-4.1-21 4.6-40.5t29.7-45.6 23.1-29.1q12.8-20 16.3-31.8t3.6-30.7q0-35.8-25.1-62-27.1-28.1-74.2-28.1-24.1 0-55.8 18.9t-32.8 37.9z m48.1 283.2q0 17.9 12.3 31.2t30.7 12.8 31.3-12.8 12.8-31.2-12.8-30.8-31.3-12.2-30.7 12.2-12.3 30.8z" /></svg>