<svg height="512" width="512.0" xmlns="http://www.w3.org/2000/svg"><path d="m0 512v-345.1h138.2q-12.8 26.1-12.8 55.8 0 53.3 37.4 90.1t90.1 36.9 90.1-36.9 37.4-90.1q0-30.2-12.8-55.8h144.9v345.1h-512z m0-366.1v-145.9h512v145.9h-159.2q-37.9-49.1-100.4-49.1t-100.3 49.1h-152.1z m25.1-23h17.9v-97.8q-8.2 3.1-12.8 10.7t-5.1 16.4v71.2z m31.2 0h17.9v-100.9h-17.9v100.9z m30.2 0h17.9v-100.9h-17.9v100.9z m31.3 0h16.9v-100.9h-16.9v100.9z m23 100.3q0-46.6 32.8-79.3t79.3-32.8 79.4 32.8 32.8 79.3-32.8 78.9-79.4 32.2-79.3-32.2-32.8-78.9z m23-0.5q0 36.9 26.2 63t62.9 26.1 63.5-26.1 26.6-63-26.6-63-63.5-26.1-62.9 26.1-26.2 63z m216.1-130q0 11.7 9.2 21t22 9.2h48.2q11.7 0 21-9.2t9.2-21v-41q0-11.8-9.2-21t-21-9.2h-48.2q-12.8 0-22 9.2t-9.2 21v41z" /></svg>