<svg height="512" width="446.0" xmlns="http://www.w3.org/2000/svg"><path d="m1 406.5q4.6-13.8 15.9-24.5t22.5-21 10.3-16.4q-7.2-14.9-7.2-20-10.2-65 31.2-118.3t99.9-78.3q22-9.2 52.2-10.2t53.2 2 48.2-2 40.4-22.1q23.1-25 42-25 11.8 0 16.9 10.2 28.2 60.9 15.4 122.9t-49.7 113.1-86 76.8q-93.2 46.1-180.2 15.9-7.2-2-22.1-11.3t-24-9.7q-5.1 3.1-10.3 9.7t-10.7 16.4-8.2 12.8q-7.2 11.8-19 13.8t-22-8.1q-13.8-12.8-9.7-27.2z m93.2-89.6q0.5 7.7 6.7 12.3t13.3 4.1 12.3-6.1q74.2-89.1 193-86 8.2 1 13.3-4.7t5.6-12.2q0-8.2-5.1-13.4t-12.8-6.6q-65-3.1-122.4 23t-99.3 74.8q-5.1 7.1-4.6 14.3z" /></svg>