<svg height="512" width="512.0" xmlns="http://www.w3.org/2000/svg"><path d="m0 256q0-106 74.8-180.7t180.7-74.8 180.7 74.8 74.8 180.7-74.8 180.7-180.7 74.8-180.7-74.8-74.8-180.7z m115.2 12.8q1 4.1 4.6 6.7t7.7 2.5l29.2-5.1q5.1-1 7.7-4.1t2.5-7.2q-1-4.1-5.1-7.1-2.1-1.1-6.2-1.1h-2l-29.2 5.2q-4.1 0-7.2 3t-2 7.2z m0.5-87.6q-1.5 3.6 0.5 7.7t6.2 6.2l26.1 10.7q5.1 2.1 9.2 1t5.1-5.1q2.1-4.1 0-7.7t-6.1-5.6l-26.1-11.8q-2.1-1-5.2-1h-3q-5.2 2.1-6.7 5.6z m51.7-58.3q-1 4.1 2.1 8.2l15.8 24q2.1 4.1 6.7 5.7t7.7-1.6q3.1-2 3.6-6.1t-1.6-8.2l-15.8-25.1q-2.1-4.1-6.2-5.1h-3.1q-3 0-5.1 1-3.1 3.1-4.1 7.2z m23.1 149q8.2 16.9 14.8 30.2 5.1 10.7 7.2 18.9 1 4.1 2.5 11.8t3.6 12.8q1 3.1 5.1 4.1h66.1q3.1-1 5.1-4.1 2.1-5.1 3.6-14.3t2.6-10.8q2-8.2 7.1-18.9l14.9-30.2q18.9-42 5.1-73.3-6.2-11.7-15.9-20.4t-24.6-12.8-30.7-4.6h-1q-31.7 0-53.8 16.9-37.8 37.8-10.7 94.2z m27.1 138.7q0 5.1 5.1 5.1h68.1q5.1 0 5.1-5.1v-11.8q0-5.1-5.1-5.1h-68.1q-5.1 0-5.1 5.1v11.8z m0-32.7q0 5.1 5.1 5.1h68.1q5.1 0 5.1-5.1v-11.8q0-5.1-5.1-5.1h-68.1q-5.1 0-5.1 5.1v11.8z m30.2-242.2q0 4.1 2.6 7.7t7.1 3.5 7.2-3.5 2.6-7.7v-29.2q0-5.1-2.6-8.2t-6.7-3.1h-1q-4.1 0-6.1 3.1-3.1 3.1-3.1 8.2v29.2z m62.5 16.9q0.5 4.1 3.6 6.1 3 3.1 7.6 1.6t6.7-5.7l15.9-24q5.1-9.3-2.1-14.9-2-1-5.1-1h-3.1q-4.1 1-6.1 5.1l-15.9 25.1q-2 4.1-1.5 8.2z m36.3 109q0 4.1 2.6 7.2t7.7 4.1l29.1 5.1q4.1 0 7.7-2.5t4.6-6.7-2-7.2-7.2-3l-29.2-5.2h-3q-3.1 0-5.2 1.1-4.1 3-5.1 7.1z m4.1-59.9q1 4.1 5.1 5.1t9.3-1l26.1-10.7q4.1-2.1 6.1-6.2t0.5-7.7-6.6-5.6h-3.1q-3.1 0-5.1 1l-26.1 11.8q-4.1 2.1-6.2 5.6t0 7.7z" /></svg>