<svg height="512" width="451.1" xmlns="http://www.w3.org/2000/svg"><path d="m0.5 277q-1-6.2 3.6-10.8t11.3-6.1l46-8.2q7.2-1 12.8 2.6t7.2 10.2-3.6 11.8-12.3 6.6l-45 7.2q-7.2 1-12.8-2.6t-7.2-10.7z m1-128.5q-3-6.7 0-12.3t9.8-8.2 13.3 2l42 18q7.1 3 10.2 9.2t0 11.8-9.7 8.2-13.3 0l-42-20q-7.2-2.1-10.3-8.7z m82-106q1-6.7 7.1-10.8 5.1-3 11.3-1t10.7 8.2l25.1 38.9q4.1 6.2 3.1 12.8t-6.1 10.3-11.3 1.5-10.8-7.7l-26.1-38.9q-4.1-7.2-3-13.3z m29.1 123.4q9.3-20 25.1-33.8t38.4-21 48.7-7.2h2q26.1 0 48.1 7.2t38.4 21 25.6 33.8q22.1 53.2-8.1 116.2-10.8 22-24.1 47.1-7.2 12.8-12.3 37.4t-8.7 31.7q-2.1 6.2-8.2 7.2h-103.9q-6.2-1-9.2-7.2-14.9-56.8-20-69.1-12.8-25.1-24.1-47.1-30.2-67.1-8.2-116.2z m51.2 319q0-4.1 2.6-6.7t6.7-2.6h107q3 0 5.6 2.6t2.6 6.7v17.9q0 4.1-2.6 6.6t-5.6 2.6h-107q-9.3 0-9.3-9.2v-17.9z m0-34.9v-17.9q0-9.2 9.3-9.2h107q3 0 5.6 2.6t2.6 6.6v17.9q0 4.1-2.6 6.7t-5.6 2.6h-107q-4.1 0-6.7-2.6t-2.6-6.7z m48.2-386v-46.1q0-8.2 4.1-12.8t10.7-5.1q6.2 0 10.8 5.1t4.6 12.8v46.1q0 7.2-4.6 11.8t-10.8 5.1q-7.2 0-10.7-5.1t-4.1-11.8z m98.8 27.1q-1-7.1 3.1-12.8l25-38.9q5.2-6.1 10.8-8.2t11.8 1.1q5.1 4.1 6.1 10.7t-3.1 13.3l-25 38.9q-5.2 6.2-10.8 7.7t-11.3-1.5-6.6-10.3z m59.9 173.6q1-6.7 6.6-10.2t12.3-2.6l46.1 8.2q7.2 1 11.3 6.1t3.6 10.8q-1.1 7.2-6.7 10.7t-13.3 2.6l-46.1-7.2q-7.2-1-10.7-6.6t-3.1-11.8z m4.6-95.7q-2.6-6.2 0.5-11.8t9.2-9.2l43-18q6.2-4 12.3-2t9.7 8.2 0 12.3-10.2 8.7l-42 20q-7.1 2-13.3 0t-9.2-8.2z" /></svg>