<svg height="512" width="512.0" xmlns="http://www.w3.org/2000/svg"><path d="m0 259.1v-63q1-17.9 13.3-30.7t29.7-12.3h138.2q71.2-4.1 139.3-32.8t117.3-77.8q17.9 1 30.2 13.3t11.7 29.7v101.9q13.9 4.1 23.1 15.4t9.2 25.6q-1 14.8-9.7 26.1t-22.6 13.8v102.9q-1 17.9-13.3 30.2t-28.6 11.8q-106-94.2-229.9-108-33.8 16.8-27.7 65t39.4 73.2q-13.8 24.1-49.1 26.6t-53.8-15.3q-8.2-23.1-12.3-38.4t-8.7-36.4-3.5-39.9 5.6-36.9h-54.8q-17.9-1-30.7-13.3t-12.3-29.7z m223.7 5.1q122.9 23 215.1 94.2v-260.1q-104 76.8-215.1 93.2v73.2z" /></svg>