<svg height="512" width="512.0" xmlns="http://www.w3.org/2000/svg"><path d="m0 256q2-109.1 76.8-181.8t179.2-74.2q112.1 2 183.3 76.3t72.7 179.7q-2 108-76.8 181.2t-179.2 74.3q-35.8 0-72.2-10.8 7.2-10.7 13.8-25.1 8.2-16.8 20-64 3.1-12.8 9.2-34.8 7.2 11.8 24.1 22 45 21 95.2-4 52.2-30.3 72.2-93.2 17.9-66.1-4.6-122.4t-80.4-81.4q-73.2-21-141.8 4.6t-95.8 87.6q-7.1 23-8.7 45.5t1.6 44.1 14.8 38.4 31.8 26.1q5.1 2 8.2 0 4.1-2.1 8.2-15.9t3-19q-1-2-4.1-7.1-21-33.8-13.8-71.7t31.2-63.5q36.9-32.8 86.6-35.8t84.4 27.1q19 22 24.6 53.3t0 59.3-19.4 53.3q-25.1 38.9-58.9 39.9-20-1-32.3-15.3t-7.7-33.3q2.1-10.8 11.8-43t10.8-48.1q-3.1-37.9-34.8-39-25.1 3.1-36.9 22.6t-12.8 44.5q3.1 29.2 9.2 40-10.7 45-16.9 72.1-2 7.2-10.7 43.1t-10.3 54.7v28.2q-71.1-32.8-112.1-95.7t-41-138.3z" /></svg>