<svg height="512" width="512.0" xmlns="http://www.w3.org/2000/svg"><path d="m0 512v-233h233v233h-233z m0-279v-233h233v233h-233z m46.1 232.9h139.8v-139.8h-139.8v139.8z m0-280h139.8v-139.8h-139.8v139.8z m47.1 232.9v-47.1h47.1v47.1h-47.1z m0-279v-46.1h47.1v46.1h-47.1z m185.8 372.2v-233h138.8v47.1h48.1v-47.1h46.1v139.8h-139.8v-46.1h-46.1v138.8h-47.1z m0-279v-233h233v233h-233z m47.1-47.1h139.8v-139.8h-139.8v139.8z m46.1 280h46.1v46.1h-46.1v-46.1z m0-326.1v-46.1h46.1v46.1h-46.1z m94.2 326.1h46.1v46.1h-46.1v-46.1z" /></svg>