<svg height="512" width="512.0" xmlns="http://www.w3.org/2000/svg"><path d="m0 415.2v-178.1q1-12.8 10.8-22.6t22.5-9.7h78.8q11.8-9.2 31.3-30.2t30.2-29.2q10.7-9.2 17.9-21 5.1-10.7 9.7-39.4t15.4-40.5q29.2-11.7 58.9 2.1t39.9 42q13.8 38.9-9.2 87 28.1 0 139.8 1 29.1 2.1 47.6 19.5t18.4 45.6q0 27.1-19.5 45t-46.5 19h-54.8q-3.1 15.8-10.8 29.1 5.1 34.9-16.9 61-2 36.8-21.5 55.8t-50.2 20-59.9-4.1-63.5-12.3-48.1-7.7h-87q-13.8-1-23.6-10.8t-9.7-22.5z m117.8 0q11.7 0 43 7.7t58.8 12.8 55.9 6.7 42.5-13.3 9.7-46.6q13.8-7.2 18.4-24.1t-3.6-30.2q30.2-30.2 5.1-54.8h97.8q13.9-1 23.1-10.2t10.2-21q-1-14.9-10.2-23.6t-23.1-9.7h-186.8q2-11.8 10.7-33.8t13.8-37.4 2.1-33.8-21.5-29.7q-12.8-7.1-24.1-5.1-2 1-2.5 2.6t-0.6 3.6q-4.1 23-6.6 34.8t-10.8 28.7-21 27.6q-9.2 7.2-34.3 34.8t-44.5 35.9h-2.1v178.1z" /></svg>