<svg height="512" width="512.0" xmlns="http://www.w3.org/2000/svg"><path d="m0 412.7v-63h74.2q13.9 0 16.9-1.5t11.8-11.3q5.1-6.1 71.2-99.8 56.8-82 81.9-107.1 31.7-32.7 70.1-32.7h73.3v-78.9l113.1 113.2-113.1 112.1v-82.9h-73.3q-8.1 0-11.2 2t-14.4 12.8q-19.9 20-74.2 97.8-11.8 15.9-30.2 43t-27.7 40-18.4 23q-30.2 33.8-75.8 33.8h-74.2z m0-253v-62.9h74.2q46.1 0 75.8 34.8 11.8 12.8 31.2 39.9-1 2.1-3.5 5.7t-3.6 5.6q-10.8 14.8-26.1 35.8-1.1 2.1-3.1 4.6t-3.1 3.6q-30.2-43-38.9-53.2-9.2-10.8-11.8-12.3t-16.9-1.6h-74.2z m220.2 177.2q22-32.8 31.2-46.1 2-2 4.1-5.1t3.1-4.1q29.1 38.9 41.9 53.2 10.8 10.8 14.4 12.8t11.2 2.1h73.3v-80.9l113.1 112.1-113.1 113.2v-80.9h-73.3q-37.8 0-70.1-32.8-14.8-14.8-35.8-43z" /></svg>