<svg height="512" width="493.1" xmlns="http://www.w3.org/2000/svg"><path d="m1 123.4q6.2-45.6 37.9-78.3 34.8-32.8 81.9-37.9t87.1 18.9q56.8-9.2 112.6 9.2t94.7 56.9q68.1 71.1 69.2 165.8 0 26.2-5.2 51.2 13.9 29.2 13.9 61-2.1 56.8-40 95.7-43 40-96.7 40-34.9 0-64-15.9-71.2 11.8-135.2-14.9-88.1-38.9-126-124.9-27.1-72.2-12.8-138.7-23-42-16.9-87.6z m108.1 201.7q2 25.1 17.4 45.6t36.3 31.7q85 34.8 158.2 5.2 29.2-11.8 46.6-35.9t17.4-53.2q1-53.8-53.7-78.9-24.1-10.2-46.1-15.9-8.2-2-28.7-6.6t-32.2-7.7q-12.8-4.1-25.1-12.3t-11.8-19.4q2-18 18.9-25.1t36.9-8.2q37.9-1 59.9 35.8 8.2 12.8 14.9 19t18.9 6.1q13.8-1 24.1-10.7t10.2-22.6q-2-27.1-21.5-45t-47.6-27.2q-69.1-16.9-123.9 4.1-28.2 10.3-44.6 31.8t-17.4 47.6q1 23 11.3 40.4t30.2 28.2 35.8 15.9 39.5 10.7q28.1 6.2 44 10.8 33.8 11.8 33.8 35.8 0 17.9-17.9 30.2-47.1 23.1-80.9 6.2-21-10.3-33.8-38.9-11.8-27.2-33.8-28.2-13.8 1-24.1 10.2t-10.7 21z" /></svg>