<svg height="512" width="505.3" xmlns="http://www.w3.org/2000/svg"><path d="m1 244.2q8.2-6.1 22 3.1v-246.8h457.3v246.8q8.1-6.1 16.9-6.1t8.1 7.1q-3 9.2-10.7 19t-14.9 16.9-22 15.3-21.5 12.3-23.5 11.8-19.5 9.2q12.8 42 9.2 82.9-5.1 39-28.6 66.1t-61.5 28.2q-29.2 0-46.1-24.1-5.1-8.2-5.1-19v-100.8q-3.1 0-10.2-2.6t-8.2-2.5v108q0 17.9-15.9 30.7t-34.8 12.3q-36.9 0-60.9-28.2t-29.2-67q-4.1-42 9.2-82-60.9-27.1-105-71.1-9.2-15.9-5.1-20z m48.2 20q4 2 12.2 6.6t13.4 6.7l357.8-4.1q14.9-7.2 20-10.2v-236.1h-404v237.1z m73.2-51.2q0-25.1 17.9-43t43-17.9 42.5 17.9 17.4 43-17.4 42.5-42.5 17.4-43-17.4-17.9-42.5z m142.8 0q0-25.1 17.9-43t43-17.9 42.5 17.9 17.4 43-17.4 42.5-42.5 17.4-43-17.4-17.9-42.5z" /></svg>