<svg height="512" width="497.2" xmlns="http://www.w3.org/2000/svg"><path d="m0 256.5q2-103.9 75.3-176.1t173.5-73.2q75.8 1 139.8 43v239.1q-1 12.8-9.7 21t-20.5 8.2q-12.8-1.1-21.5-9.3t-9.7-19.9v-72.2q-1.1-62-40-75.8-11.7-5.1-26.1-5.1h-121.8q-34.9 1-56.9 20-24 22-24 53.2 0 23 10.2 37.9 15.9 21 46.1 27.1 5.1 1.1 18.9 3.1t21 4.1q12.8 5.1 12.8 17.9-1 12.8-14.8 16.9-10.3 2.1-36.9 2.1h-108q-8.2-32.8-8.2-62z m27.1 113.2h109.1q35.8-1.1 61.4-21t25.6-52.3q0-39.9-28.1-56.8-12.8-8.2-52.3-14.8-1 0-4-0.5t-4.1-1.1-4.1-1-4.6-1-3.6-1.6-3.1-2.5-2.6-2.6-2-3-0.5-4.1q1-22.1 35.8-22.1h74.8q21 1.1 31.2 5.2 14.8 7.1 14.8 21v74.7q2.1 39.9 27.2 62 25.1 19.9 59.9 21 36.9-1.1 59.9-21 26.1-24.1 26.1-62v-182.8q41 54.8 50.2 121.9t-16.9 127q-31.2 69.1-93.7 110.5t-135.7 41.5q-71.2-1-130.6-37.4t-91.6-97.2z" /></svg>