<svg height="512" width="508.9" xmlns="http://www.w3.org/2000/svg"><path d="m0 199.7v-122.9q1-13.8 10.8-23.6t22.5-9.7h122.9q22 0 45 13.8l193 212q9.3 11.8 9.3 24.6t-9.3 22.5l-142.8 141.8q-10.8 9.3-24.1 9.8t-22-9.8l-181.7-202.7q-23.1-28.2-23.1-55.8z m53.2-70.7q0 12.3 9.3 21.5 10.7 10.3 23.5 9.8t21.5-9.8q9.2-10.2 9.2-23t-9.2-22q-10.2-9.2-23-8.7t-22 8.7q-9.3 10.7-9.3 23.5z m161.8-84.5h47.1q36.9 2.1 55.9 23.1l181.7 202.7q9.2 10.8 9.2 24.6t-9.2 22.5l-142.8 141.9q-31.3 17.9-49.2-4.1l138.8-138.8q9.2-10.7 9.2-24t-9.2-23.1l-162.9-181.7q-11.7-15.9-35.8-29.2t-32.8-13.9z" /></svg>