<svg height="512" width="512.0" xmlns="http://www.w3.org/2000/svg"><path d="m0 256q0-106 74.8-180.7t180.7-74.8 180.7 74.8 74.8 180.7-74.8 180.7-180.7 74.8-180.7-74.8-74.8-180.7z m33.8 0q0 92.2 65 157.2t157.2 65 157.2-65 65-157.2-65-157.2-157.2-65-157.2 65-65 157.2z m82.9-1q-10.2-13.8 1.1-24.1l86-74.7q6.1-4.1 10.7-5.7t12.8-1.5h55.8q8.2 0 12.8 1.5t10.8 5.7q5.1 4.1 36.3 31.7t49.7 43q10.8 10.8 1 24.1-10.7 11.8-24 2-10.3-9.2-31.8-27.6t-32.7-29.7q0 1-1.6 0t-3.6-2.1-3-1q-3.1 0-3.1 7.2v29.7t2 34.3q1.1 10.7 1.1 12.8l25 138.7q2.1 21-16.8 25.1-9.3 2.1-16.4-3.6t-8.7-13.3q-20-113.1-20-115.2-3.1-11.8-5.1-11.8-2.1 1.1-3.1 2.6t-1 3.6-0.5 4.1l-0.5 2q0 1.1-5.2 30.2t-10.2 56.9l-5.1 28.1q-3.1 9.2-9.8 13.3t-15.3 3.6q-20-5.1-16.9-25.1l25.1-139.7q3.1-19 3.1-74.8 0-8.2-3.1-8.2t-8.2 4.1l-65 55.8q-13.9 10.3-24.1-2z m101.9-153.6q0-15.4 10.8-26.6t26.6-10.8 26.6 10.8 10.8 26.6-10.8 26.6-26.6 10.8-26.6-10.8-10.8-26.6z" /></svg>