<svg height="512" width="512.0" xmlns="http://www.w3.org/2000/svg"><path d="m255 0c-75.3 0.5-149 34.3-198.2 95.2l78.9 121.4c19.9-56.9 77.3-93.2 136.7-87.1l212 11.3c-21.6-43-55.9-80.4-100.4-106.5-40.4-23.5-85-34.3-129-34.3z m-213.5 115.7c-26.7 40.5-42 88.6-42 140.3 0 128 93.7 234 216.6 252.9l65.5-129c-59.4 11.3-119.3-20-143.9-75.3l-96.2-189.4z m453.1 48.1l-144.4 7.7c39.4 45.6 42 113.2 7.2 162.3l-115.7 178.2c48.1 2.6 97.2-8.2 142.3-33.8 110.6-64 155.6-198.1 111.1-313.8z m-238.6 5.7c-47.6 0-86.5 38.9-86.5 86.5s38.9 86.5 86.5 86.5 86.5-38.9 86.5-86.5-38.9-86.5-86.5-86.5z" /></svg>