<svg height="512" width="421.9" xmlns="http://www.w3.org/2000/svg"><path d="m89.1 25.6c-31.2 0-56.3 33.3-56.3 73.7 0 41 25.1 73.8 56.3 73.8s56.3-33.3 56.3-73.8c0-40.9-25.1-73.7-56.3-73.7z m243.7 0c-31.2 0-56.3 33.3-56.3 73.7 0 41 25.1 73.8 56.3 73.8s56.3-33.3 56.3-73.8c0-40.9-25.1-73.7-56.3-73.7z m62 286.7l-367.7 0.5c-14.8 0-27.1 12.3-27.1 27.2s12.3 27.1 27.1 27.1h71.7v37.9c0 28.2 9.7 55.3 30.2 75.8 23.6 24 53.3 30.7 84.5 30.7 29.2 0 57.3-8.7 78.9-30.2 20.4-20.5 30.7-47.6 30.7-76.3v-37.9h71.7c14.8 0 27.1-12.3 27.1-27.1s-12.3-27.2-27.1-27.2z m-241.2 55.3h114.7v36.9c0 14.3-3.6 27.1-14.3 37.9-20 19.9-66.1 19.9-86.1 0-10.2-10.3-14.3-23.1-14.3-37.4v-37.4z" /></svg>