<svg height="512" width="997.4" xmlns="http://www.w3.org/2000/svg"><path d="m27.1 0c-10.2 0-19.9 5.6-24.5 15.4-6.7 13.8-0.6 29.7 12.8 36.3l77.8 41c-1.6 23.5 4.1 47.6 17.4 65.5 10.7 14.3 26.1 25.1 44.5 25.1 46.1 0 65.1-54.8 62-91.7-61.5-27.1-118.8-58.8-178.2-89-3.6-2.1-7.7-2.6-11.8-2.6z m265.8 86.5c-15.4 0-27.7 12.3-27.7 27.7s12.3 27.6 27.7 27.6h95.2c15.4 0 27.6-12.3 27.6-27.6s-12.2-27.7-27.6-27.7h-95.2z m316.9 44.6c-21 0-39.9 8.2-53.8 22l-1 1c-2.6 2.6-5.1 5.6-7.7 8.7-5.6 7.7-9.7 16.4-12.3 26.1-9.2 3.6-17.9 7.2-26.6 11.8-14.3 7.2-28.1 15.4-42 24.6-37.3 25.6-83.4 81.4-102.9 135.7-4.1 11.2-7.1 22.5-8.7 33.8-1.5 10.7-2 22-1 32.7v2.6c4.6 34.3 18.9 58.3 39.9 71.1 4.6 2.6 9.8 5.2 14.4 6.7 4.1 1.5 8.2 2.1 12.8 3.1 1 0 2 0.5 3 0.5h2.1c27.6 1.5 51.2 1 74.7 0.5 10.3-0.5 21-0.5 30.8-0.5 60.9-0.5 73.2-47.1 86-94.2 3.6-13.3 7.1-26.1 11.7-36.4h112.2c43 0 65-23 75.2-51.7 2.1-5.1 3.6-10.7 4.6-16.4l148 0.5h1c14.9 0 26.7-11.7 26.7-26.6v-113.1c0-10.8-4.6-20-11.3-27.2-6.1-6.1-13.8-10.2-23-11.2-1.6-0.5-3.1-0.5-5.2-0.5h-25.6c-9.7 0-18.4 4.1-25 9.7l-0.6 0.5-1 1c-4.6 4.6-8.2 10.3-9.7 16.9h-83.5c-6.6-9.2-15.8-16.9-26.1-22-2.5-1.5-5.1-2.6-7.1-3.6l-2.1-1c-7.2-2.6-14.8-4.1-23-4.6-1.1 0-2.1 0-3.1 0h-140.8z m142.3 53.7c2.1 0 4.1 0.5 6.2 1.6h0.5c1 0.5 1.5 0.5 2 1 4.6 2.6 8.7 6.6 10.8 11.8 4.6 11.2 15.9 17.4 27.1 16.4h121.4c9.7 0 17.9-5.2 22.5-12.3v55.8l-145.9-0.5c-14.9 0-26.7 11.7-27.2 26.6 0 1.5 0 3.6-0.5 6.6v0.6c0 3-0.5 6.1-1.5 9.2-0.5 3-1.5 5.6-2.1 8.2-3 8.7-10.2 16.3-25 16.3h-127.5c-9.8 0-18.5 5.2-23.1 12.8-2 3.1-4.6 6.7-6.1 10.3-3.1-2.1-17.9 49.6-19 53.2-7.1 27.2-14.3 54.3-34.3 54.3-11.2 0-21.5 0.5-31.7 0.5-21.5 0.5-43.5 1-69.6-0.5h-2.6c-1 0-1.5-0.5-2.6-0.5-1-0.5-2-1-3-1.5-7.2-4.7-12.3-15.4-14.9-32.8v-1c-0.5-5.7-0.5-12.3 0.5-19 1.1-7.7 3.1-15.3 6.2-23.5 15.8-44.1 53.2-89.1 82.9-109.6 11.8-8.2 23.6-14.8 35.3-21 11.8-5.6 24.1-10.7 35.9-14.8 11.2-3.6 18.4-14.4 18.4-25.6v-1.1c0-4.6 2.1-9.2 4.6-12.8 0.5-1 1.6-2 2.6-2.5 4.1-4.1 10.2-6.7 16.4-6.7h142.3z m-525.8 90.1c-63 0-123.4 22.1-170.5 61.5-9.2 7.7-17.9 15.9-26.1 24.6s-15.9 18.4-23 28.1c-8.7 12.3-5.7 29.2 6.6 37.9s29.2 5.6 37.9-6.6c5.6-8.2 11.8-15.9 18.4-22.6 6.7-7.1 13.3-13.3 21-19.4 37.9-31.3 86-48.7 136.2-48.7 9.2 0 18.4 0.5 28.2 2.1 1 0 0.5 0 4.6 0.5 7.7 1 15.3 2.5 23 4.6 14.4 4.1 29.2-4.6 33.3-19.5 4.1-14.3-4.6-29.1-19.5-33.2-9.7-2.6-18.9-4.6-28.6-6.2-0.5 0-1.6 0-5.7-0.5-11.2-1.5-23-2-34.8-2z" /></svg>