<svg height="512" width="740.9" xmlns="http://www.w3.org/2000/svg"><path d="m380.9 0c-30.7 0-55.8 32.8-55.8 73.2s25.1 73.2 55.8 73.2 55.8-32.7 55.8-73.2-25.1-73.2-55.8-73.2z m-307.7 41.5c-14.8 0-27.1 12.3-27.1 27.1s12.3 27.1 27.1 27.1h148.5c14.8 0 27.1-12.2 27.1-27.1s-12.3-27.1-27.1-27.1h-148.5z m532.5 10.2c-8.7 0-17.9 1-28.2 3.6-57.3 25.6-55.3 89.1-47.6 136.2l-67.1-0.5c-34.8 0-63.4 27.1-63.4 63 0 17.9 4.1 36.3 15.3 50.6-5.1 5.7-9.2 12.3-11.8 19.5-9.2 24.1-5.1 53.8 11.8 73.7-2.5 2.6-9.2 13.8-9.2 13.8-14.8 29.2-5.1 73.8 23.6 91.7 8.7 5.6 19.9 8.7 32.7 8.7h193.6c46.6-1.5 85.5-38.9 85.5-86.5v-147.5c0-25.1-15.4-55.3-25.1-77.3-12.8-29.2-25.1-58.9-37.4-88.6-15.4-37.3-36.4-60.9-73.2-60.9z m1.5 58.9c15.4-0.5 22 24.6 26.1 34.3 10.8 26.6 22.1 66 33.3 92.2 10.8 24.5 19 45 19 53.2v130.6c0 21-18 37.3-38.4 37.9h-170c-8.7 0-13.3-4.7-15.4-12.3s-3-17.4 2.1-24.1c3-4.1 8.2-6.7 13.3-6.7 10.7 0.6 19.4-8.7 19.4-19.4s-8.7-19.5-19.4-19.5c-4.6 0-9.2-2-12.3-5.6-7.2-8.2-8.2-25.6 0-33.3 1.5-1.5 4.1-3.1 6.1-4.1 2.1-0.5 4.1-1 6.2-1 10.7 0 19.4-8.7 19.4-19.5s-8.7-19.4-19.4-19.4c-14.4 0-17.4-14.9-17.4-25.6 0-6.2 3.6-11.8 8.7-14.9-0.5-1 96.7-2 107-2 13.8 0 24.1-15.4 16.9-28.2-13.8-26.1-23.1-106 11.2-113.1 1.1-0.5 2.1-0.5 3.1-0.5z m-580.1 135.2c-3.5 0-7.1 1-10.7 2.5-13.8 6.2-20 22.5-13.8 36.4 34.3 75.7 99.3 130 176.1 152 14.8 4.1 30.2 7.2 46.1 8.7 15.3 1.6 30.7 2.1 46.6 1.1h2.5c14.9-1.1 26.6-14.4 25.1-29.2-1-14.9-14.3-26.6-29.2-25.1h-1.5c-12.8 1-25.6 0.5-37.9-0.5-12.3-1.6-24.6-3.6-36.9-7.2-61.4-17.4-113.6-60.9-141.3-121.8-4.6-10.3-14.8-16.4-25.6-16.4z" /></svg>