<svg height="512" width="445.4" xmlns="http://www.w3.org/2000/svg"><path d="m100.9 25.1c-31.3 0-56.4 33.3-56.4 73.7 0 41 25.1 73.7 56.4 73.7s56.3-33.2 56.3-73.7c0-40.9-25.1-73.7-56.3-73.7z m243.7 0c-31.3 0-56.3 33.3-56.3 73.7 0 41 25 73.7 56.3 73.7s56.3-33.2 56.3-73.7c0-40.9-25.1-73.7-56.3-73.7z m73.7 245.7h-391.7c-14.8 0-26.6 12.3-26.6 27.7 1.5 102.9 121.9 179.7 216.1 181.8 95.2 1.5 226.3-80.4 229.3-181.8 0-14.9-12.2-27.1-27.1-27.1z m-358.4 54.3h324.1c-31.2 62-97.3 102.9-169 100.4-66.5-2.1-125.9-42-155.1-100.4z" /></svg>