<svg height="512" width="512.0" xmlns="http://www.w3.org/2000/svg"><path d="m236.5 0c-3 0-6.1 2.6-6.1 6.1v93.2c0 3.1 2.6 6.2 6.1 6.2h35.4s0.5 0 0.5 0c3.1 0 6.1-2.6 6.1-6.2v-93.2c0-3-2.5-6.1-6.1-6.1h-35.3s-0.6 0-0.6 0z m128 24.1c-2 0-4.1 1-5.1 3l-46.6 80.9c-1.5 3.1-0.5 6.7 2.1 8.2l30.7 17.9s0 0 0.5 0c3.1 1.6 6.7 0.6 8.2-2l46.6-80.9c1.5-3.1 0.5-6.7-2.1-8.2l-31.2-17.9c-1-0.5-2-0.5-2.5-1z m-219.1 1.5c-1 0-2 0.5-2.6 1l-31.2 17.9c-2.5 1.6-3.6 5.2-2 8.2l46.6 80.4s0 0 0 0.5c1.5 3.1 5.1 3.6 8.2 2.1l31.2-17.9c2.5-1.6 3.6-5.2 2-8.2l-46.6-80.4s0 0 0-0.5c-1-2.1-3-3.1-5.1-3.1z m317.4 82.9c-1 0-2 0.6-2.5 1.1l-80.4 46.6s0 0-0.5 0c-3.1 1.5-3.6 5.1-2.1 8.2l18 31.2c1.5 2.5 5.1 3.6 8.2 2l80.3-46.6s0 0 0.6 0c3-1.5 3.5-5.1 2-8.2l-17.9-31.2c-1-2-3.1-3.1-5.1-3.1z m-414.7 2.6c-2 0-4.1 1-5.1 3.1l-17.9 31.2c-1.5 3.1-0.5 6.7 2 8.2l80.9 46.6c3.1 1.5 6.7 0.5 8.2-2.1l17.9-30.7s0 0 0-0.5c1.6-3.1 0.6-6.6-2-8.2l-80.9-46.6c-1-0.5-2-0.5-2.6-1z m365.1 119.8c-3.1 0-6.2 2.6-6.2 6.2v35.3s0 0.5 0 0.5c0 3.1 2.6 6.1 6.2 6.1h93.2c3 0 6.1-2.5 6.1-6.1v-35.3s0-0.5 0-0.5c0-3.1-2.5-6.2-6.1-6.2h-93.2z m-407.1 2.6c-3 0-6.1 2.5-6.1 6.1v35.3s0 0.6 0 0.6c0 3 2.6 6.1 6.1 6.1h93.2c3.1 0 6.2-2.6 6.2-6.1v-35.4s0-0.5 0-0.5c0-3.1-2.6-6.1-6.2-6.1h-93.2z m395.8 78.3c-2 0-4.1 1-5.1 3.1l-17.9 30.7s0 0 0 0.5c-1.6 3.1-0.5 6.7 2 8.2l80.9 46.6c3.1 1.5 6.7 0.5 8.2-2.1l17.9-31.2c1.6-3.1 0.5-6.6-2-8.2l-80.9-46.6c-1-0.5-2.1-0.5-2.6-1z m-289.8 2.6c-1 0-2 0.5-2.5 1l-80.4 46.6s0 0-0.5 0c-3.1 1.5-3.6 5.1-2.1 8.2l17.9 31.2c1.6 2.6 5.2 3.6 8.2 2.1l80.4-46.6s0 0 0.5 0c3.1-1.6 3.6-5.2 2.1-8.2l-17.9-31.3c-1.1-2-3.1-3-5.2-3z m239.1 61.9c-1 0-2 0.5-2.5 1l-31.3 18c-2.5 1.5-3.5 5.1-2 8.2l46.6 80.3s0 0 0 0.6c1.5 3 5.1 3.5 8.2 2l31.2-17.9c2.6-1.6 3.6-5.1 2.1-8.2l-46.6-80.4s0 0 0-0.5c-1.1-2.1-3.1-3.1-5.2-3.1z m-187.4 1.6c-2 0-4.1 1-5.1 3l-46.6 80.9c-1.5 3.1-0.5 6.7 2.1 8.2l31.2 17.9c3.1 1.6 6.7 0.5 8.2-2l46.6-80.9c1.5-3.1 0.5-6.7-2.1-8.2l-30.7-17.9s0 0-0.5 0c-1-0.5-2-1-2.5-1z m75.8 29.1c-3.1 0-6.1 2.6-6.1 6.2v93.2c0 3 2.5 6.1 6.1 6.1h35.3s0.6 0 0.6 0c3 0 6.1-2.5 6.1-6.1v-93.2c0-3.1-2.6-6.2-6.1-6.2h-35.4s-0.5 0-0.5 0z" /></svg>