<svg height="512" width="512.0" xmlns="http://www.w3.org/2000/svg"><path d="m254 0c-90.2 0-169.5 46.1-215.6 115.7-9.2 13.8-16.9 28.2-23 43.5-6.2 14.9-11.3 30.8-14.4 47.1 0 0 0 0.5 0 0.5 0 0.6 0 1.1 0 1.1 0 3 2.6 6.1 6.2 6.1h51.7c2.5 0 5.1-1.5 5.6-4.6 14.9-57.8 55.8-105.5 109.1-130 10.2-4.6 21.5-8.7 32.7-11.3 15.4-4.1 31.8-6.1 48.2-6.1 12.8 0 25.6 1.5 38.4 3.5 2.5 0.5 4.6 1.1 7.1 1.6s5.2 1 7.2 2c2.6 0.5 5.1-0.5 6.7-2.5l25.6-44.6c0.5-0.5 0.5-1 0.5-1.5 1-3.1-0.5-6.7-3.6-7.7-10.8-3.6-22-6.7-33.3-8.7-2-0.5-4.6-1-6.7-1-13.8-2.1-27.6-3.6-41.9-3.6z m167.4 58.4c-2.1 0-4.1 1-5.1 3l-25.6 44.6c-1.6 2.5-1.1 5.6 1 7.7 15.3 14.8 28.1 32.2 37.9 51.2 2 3.5 3.6 7.6 5.1 11.2 10.2 23.6 15.9 49.7 15.9 77.3 0 39.5-11.8 76.3-31.8 107-4.1 6.2-8.2 11.8-12.8 17.5s-9.2 10.7-14.3 15.3c-2.1 2.1-2.6 4.6-1 7.2l25.6 44.5c0 0.5 0.5 1.1 1 1.1 2 2.5 6.1 2.5 8.2 0.5 29.7-26.7 53.2-59.9 68.6-97.3 3.1-7.2 5.6-14.9 7.7-22.5 7.1-23.6 10.7-48.2 10.7-73.8 0-55.3-17.4-107-47.1-149-5.6-8.2-11.8-15.8-18.9-23.5-6.7-7.7-13.9-14.4-21-21-0.5-0.5-0.5-0.5-1.1-0.5-1-0.5-2-0.5-3-1z m-415.3 239.6c-0.5 0-1 0-1 0-3.1 0.5-5.1 3.6-4.6 7.2 17.4 84.9 76.3 154.6 154.6 187.3 15.4 6.2 31.3 11.3 47.7 14.4s33.7 5.1 51.2 5.1c20.4 0 40.4-2.6 59.9-7.2 3.5-1 7.1-2 11.2-3 3.6-1.1 7.2-2.1 10.8-3.6 0.5 0 1-0.5 1.5-0.5 3.1-1.6 3.6-5.2 2.1-8.2l-25.6-44.6c-1.6-2-4.1-3.6-6.7-2.5-7.2 2-14.3 3.6-21.5 4.6-1.5 0-2.6 0.5-4.1 0.5-8.7 1-17.9 2-26.6 2-65.6 0-123.9-32.2-159.8-81.9 0 0 0 0 0-0.5-7.1-9.7-12.8-20-17.9-30.7s-9.2-22-12.3-33.8c-0.5-3.1-3-5.1-6.1-5.1h-51.7z" /></svg>