<svg height="512" width="512.5" xmlns="http://www.w3.org/2000/svg"><path d="m255 0c-58.4 0-116.2 20-163.9 59.4 88.6-71.7 218.7-66.6 301.1 15.9 68.6 68.6 83.4 170.5 45.6 253.4-5.2 14.9-3.1 25.6 6.1 34.8 10.8 10.8 31.2 11.8 43 0 1.5-1.5 6.2-7.1 7.7-12.3 36.3-92.1 16.9-201.2-57.4-275.9-50.1-50.2-116.2-75.3-182.2-75.3z m-208.9 140.3c-7.7 0-14.9 3.1-20.5 8.2-1.5 1.5-6.1 7.1-7.7 12.3-36.3 92.1-16.9 201.2 57.4 275.9 94.7 94.8 245.2 99.9 346.1 15.9-88.6 71.7-218.6 66.6-301.1-15.9-68.6-68.6-83.4-170.5-45.5-253.4 5.1-14.9 3-25.6-6.2-34.8-5.6-5.7-13.8-8.7-22.5-8.2z" /></svg>