<svg height="512" width="512.0" xmlns="http://www.w3.org/2000/svg"><path d="m98.8 0h314.4c54.8 0 98.8 44 98.8 98.8v314.4c0 54.8-44 98.8-98.8 98.8h-314.4c-54.8 0-98.8-44-98.8-98.8v-314.4c0-54.8 44-98.8 98.8-98.8z m157.2 182.3c-27.1 0-52.2 8.7-72.7 23v-102.4c0-14.8-11.8-26.6-26.6-26.6s-26.7 11.8-26.7 26.6v195.6c-0.5 3.1 0 22.5 1.1 28.2 8.7 61.4 61.4 108.5 124.9 108.5 69.6 0 126.5-56.8 126.5-126.5s-56.9-126.4-126.5-126.4z m0 199.1c-40.4 0-72.7-32.7-72.7-72.7 0-40.4 32.8-72.7 72.7-72.7s72.7 32.8 72.7 72.7c0 40.5-32.8 72.7-72.7 72.7z" /></svg>