<svg height="512" width="256.0" xmlns="http://www.w3.org/2000/svg"><path d="m128.5 201.2c57.4-1 88.6-31.2 118.3-59.9v344.1h-57.9c-0.5-13.8-1-27.7-1-42v-96.3c0.5-36.3 1-72.7 1-108.5-8.2 2-17.4 6.6-27.6 9.2-31.3 8.2-71.7 4.1-95.8-9.7 0 16.9 0 34.3 0.5 51.2v180.2c0 5.6 0 10.8-0.5 16.4h-57.8v-345.1c29.7 31.2 62.4 62 120.8 60.9z m90.6-100.3c20.5 0 37.4-16.9 37.4-37.9s-16.4-37.9-37.4-37.9c-20.4 0-37.3 16.9-37.3 37.9s16.9 37.9 37.3 37.9z m-181.7 0c20.5 0 37.4-16.9 37.4-37.9s-16.4-37.9-37.4-37.9c-20.5 0-37.4 16.9-37.4 37.9s16.9 37.9 37.4 37.9z" /></svg>