<svg height="512" width="628.7" xmlns="http://www.w3.org/2000/svg"><path d="m552.4-0.5c-16.8 0-56.3 5.6-122.3 49.7-35.9-9.3-74.3-13.4-112.7-13.4-41.9 0-84.4 5.2-124.4 16.4-94.7-64.5-136.2-51.2-136.2-51.2-27.1 68.1-10.2 118.8-5.1 131.1-32.2 34.8-51.7 78.8-51.7 133.1 0 41 4.6 77.3 15.9 109.6 0.5 2.5 0.5 2 1.5 4.1 2.6 6.6 5.1 12.8 8.2 18.9 1 2.1 2 4.1 2 4.1 31.8 59.4 94.8 97.8 206.9 110.1h169.5c119.3-11.8 176.6-50.2 203.2-110.6l1.6-4.1c2.5-6.1 4.6-12.3 10.7-33.8 6.2-21 8.7-57.8 8.7-98.8 0-58.9-22-106-57.8-141.3 6.1-20 14.8-65-8.2-122.4 0 0-3.1-1-9.8-1z m-133.6 215.5c27.7 0 51.2 4.6 69.1 23.1 22.1 23.5 35.4 51.7 35.4 81.9 0 141.8-91.2 145.4-203.3 145.4-112.6 0-203.3-19.4-203.3-145.4 0-30.2 12.8-58.4 34.9-81.4 36.3-38.9 98.3-18.4 168.9-18.4 35.9 0 70.2-5.7 99.3-5.7z m-209.4 41.5c-23.5 0-42.5 31.8-42.5 70.7s19 70.6 42.5 70.6 42.5-31.7 42.5-70.6-18.9-70.7-42.5-70.7z m227.3 0c-23.5 0-42.5 31.8-42.5 70.7s19 70.6 42.5 70.6 42.5-31.7 42.5-70.6-18.9-70.7-42.5-70.7z" /></svg>