<svg height="512" width="473.1" xmlns="http://www.w3.org/2000/svg"><path d="m269.8 0c-10.7 0-19.9 4.1-27.6 12.3s-11.3 17.9-11.3 29.7c0 11.2 3.6 21 11.3 29.2s16.9 12.3 27.6 12.3c10.3 0 19.5-4.1 27.2-12.3s11.2-18 11.2-29.2c0-11.8-3.6-21.5-11.2-29.7s-16.9-12.3-27.2-12.3z m84 79.9c1 6.1 1.5 14.8 1.5 25.1v22h-27.6v54.2c7.7-1 14.3-1.5 18.9-1.5l8.2 0.5v1h-0.5v100.4c0 31.2 4.1 54.3 11.8 68.6 10.2 19.5 29.2 29.2 56.3 29.2 19.5 0 35.8-3.6 49.7-11.3v-55.8c-9.3 6.2-20 9.7-31.3 9.7-16.4 0-24.5-12.2-24.5-37.3v-104h24c4.6 0 9.2 0 14.4 0.5s8.7 0.6 10.2 0.6v-54.3h-48.6v-23.1c0-8.7 0.5-16.8 1.5-24h-65z m-256.5 44c-25.6 0-47.1 8.2-65.6 25.1-18.9 17.9-28.6 40.4-28.6 67.1 0 17.9 5.1 34.8 15.8 50.1 9.3 14.4 20 24.1 31.8 28.2v1c-11.8 5.1-17.9 18.5-17.9 39.4 0 15.9 6.1 28.2 18.9 35.9v1c-34.8 11.8-52.2 32.8-52.2 64.5 0 27.2 11.8 47.1 34.8 59.9 18.4 10.3 41.5 15.4 70.1 15.4 69.2 0 103.5-28.7 103.5-86.5 0-36.4-26.7-58.4-79.9-66.6-12.3-2-21.5-6.1-28.2-13.3-4.6-4.6-7.1-9.7-7.1-14.3 0-13.9 7.7-22.1 22.5-24.1 22.5-3.6 41.5-13.8 55.8-31.8s21.5-38.4 21.5-62.4c0-7.7-1.5-15.4-4.6-24.1 9.7-2 17.4-4.1 22.5-6.1v-57.9c-23.5 8.7-44 13.3-61.9 13.3-15.9-8.7-32.8-13.3-50.7-13.3z m140.3 2.6c0.5 6.6 1 18.9 1 36.3v174.1c0 17.9-0.5 30.7-1 37.9h63.5c-0.6-8.7-1.1-22.5-1.1-41.5v-172c0-16.4 0.5-28.2 1.1-35.3h-63.5z m-138.3 48.6c11.3 0 20 4.1 26.1 12.8 5.2 7.7 7.7 17.4 7.7 28.2 0 26.1-11.2 39.4-34.3 39.4-23.5 0-35.3-12.8-35.3-38.4 0-27.7 11.8-41.5 35.3-41.5z m4.1 227.8c31.3 0 47.1 9.8 47.1 28.7 0 20-14.3 30.2-43 30.2-32.7 0-49.1-9.7-49.1-29.2 0-19.9 15.3-29.7 45.5-29.7z" /></svg>