<svg height="512" width="512.5" xmlns="http://www.w3.org/2000/svg"><path d="m47.1 0c-26.1 0-47.1 13.3-47.1 47.1v40.5c2-2.1 4.1-3.6 6.1-5.7 42.5-35.3 89.1-40.9 128-41.5h157.2l-42 33.8h-45.5c18.4 15.9 45.5 44.1 45.5 94.8 0 55.3-29.1 81.4-60.4 105.9-9.7 9.8-21 20-21 36.9 0 16.4 11.3 25.6 19.5 32.3l26.6 21c32.8 27.6 75.3 59.3 75.3 111.1 0 13.8-1.6 26.1-6.2 36.8h181.3c26.1 0 47.1-14.3 47.1-40.4v-297.5h-94.2v95.2h-40.5v-95.2h-94.2v-39.4h94.2v-94.2h40.5v94.2h94.2v-87.6c0-33.8-21-47.1-47.1-47.1h-417.8z m464.9 134.7v39.4h0.5v-39.4h-0.5z m-416.3-69.2c-19.4 0-39.9 9.8-52.2 24.6-12.8 15.9-14.8 35.9-14.8 55.3 0 50.2 26.1 123.9 90.1 123.9 18.4 0 37.9-4.6 49.6-18.4 13.9-15.9 19.5-36.9 19.5-47.6 0-53.8-31.2-137.3-92.7-137.3z m-95.7 203.8v132.1c33.8-27.1 92.2-22 120.3-24.1-10.2-13.3-22.5-27.6-22.5-50.6 0-12.8 3.6-20 7.7-29.2-8.2 0.5-16.4 1.5-24.1 1.5-33.8 0-61.4-12.8-81.9-29.7z m128.5 129c-6.6 0-47.1 1.6-78.3 11.8-10.8 4.1-35.4 13.3-50.7 34.3v27.2c0 26.1 21 40.4 47.1 40.4h193c1-3.6 3.1-6.1 3.1-13.3-0.5-37.9-41-58.9-97.3-99.3-6.1-1.1-9.7-1.1-16.9-1.1z" /></svg>