<svg height="512" width="502.3" xmlns="http://www.w3.org/2000/svg"><path d="m181.8 13.8c-15.9-3.6-28.7-2-42.5 5.1-15.4 9.3-24.1 24.1-27.7 44.1-3.6 21 0 40.9 10.8 61.4l5.1 7.2-17.4-5.6c-21.5-5.2-42-2.1-62 8.7-21 10.7-33.8 26.1-42.5 47.1-8.2 19.9-7.1 39.9 3.1 57.8 4.1 8.2 10.8 14.4 16.4 19 8.7 8.7 19.4 13.8 32.2 15.8l5.2 1.6-10.8 9.2c-10.2 8.7-15.9 19.4-19.4 30.2-3.6 12.8-2.1 26.1 5.1 38.4 3.6 5.6 7.1 10.7 12.8 14.3 5.6 5.1 12.8 8.7 21.5 9.2 15.9 3.6 32.2 3.6 50.7-2l-12.8 21.5-3.6 9.2c-7.2 23.1-5.1 43.5 5.6 64 5.1 8.2 10.8 15.4 16.4 21.5 8.7 8.2 19.5 12.8 32.3 16.4 21.5 5.6 43.5 5.1 64-5.6 19.9-10.8 33.2-28.2 39.9-49.7l0.5-4.1c13.8 15.4 26.6 25.1 41 28.7 14.3 4.1 28.6 3.6 41.9-5.1 12.3-7.2 21-19.5 25.1-34.9 3.6-15.8 3.6-31.7 0-49.6 7.2 5.1 14.4 8.7 23.1 10.7 23 7.2 43.5 6.7 63.5-4.1 19.4-10.7 32.2-28.1 38.9-50.6 5.6-21.6 4.1-42.5-6.7-63l-3.6-5.7c-5.6-8.7-11.7-17.4-19.9-23-7.2-5.1-15.9-8.7-24.1-12.3 22.5-10.7 38.4-26.1 45.6-45.6 5.1-15.8 3.6-28.6-3.6-41.9v-1.6c-8.7-14.3-20-24-38.4-28.6-10.8-2.1-23.1-2.1-33.8-1.6l-24.1 5.1 8.2-17.9c7.2-23 5.1-45.5-7.1-66.5l-2.1-3.6c-10.7-17.9-26.6-28.7-48.1-34.8-22.5-5.7-43.5-3.6-63.5 7.1s-34.8 27.7-41 49.2v1.5l-0.5 5.1-3.1-5.1-7.1-12.8c-11.8-17.9-26.1-28.7-44.1-33.8z m184.3 43.5c3.6 7.2 5.6 15.9 5.6 25.1l-2 15.9c-3.1 8.2-6.7 15.4-10.8 21.5l-65 79.4c-6.7-5.2-13.8-8.7-21-12.3l-7.2-81.4-0.5-28.7 0.5-7.2c3.6-14.3 13.9-25.1 26.7-32.2s27.6-8.7 40.9-3.6c15.4 3.6 26.1 11.8 32.3 24.1z m-223.8 14.4c0.5-12.8 5.7-21.5 14.4-26.6 4.1-3.6 10.7-3.6 16.4-0.6 12.8 3.6 24 12.8 32.2 31.3 3.6 7.1 7.2 14.3 8.7 23l14.4 85-10.8 3.6-64-70.2-3.6-7.1c-5.6-12.8-9.2-25.1-7.7-38.4z m-38.9 84.5l19.5 8.2 63.5 46c-5.7 7.2-9.2 14.4-11.8 21.5l-103.9 12.8-7.2-1.5c-12.8-2-21.5-8.2-27.7-18.9-5.6-10.8-5.6-21.5-1.5-32.3 5.1-13.8 14.3-24.6 28.2-30.2 12.8-7.2 26.1-9.2 40.4-5.6z m68.6 117.7l5.2 14.4 2 5.1c-10.8 9.2-18.9 17.9-27.6 26.1l-21.6 17.9-5.6 3.6c-13.8 6.6-25.1 8.7-37.4 7.2-10.7-0.6-19.4-4.1-23-10.8l-2-8.2 1.5-6.6c3.6-10.8 12.8-21.5 29.7-29.7 8.7-3.6 15.9-7.2 21.5-8.7l57.8-10.8z m225.3-116.7c12.8-5.6 25.1-7.2 38.4-5.6 12.3 1.5 21 7.1 25.1 15.8l3.1 9.2-1.6 7.2c-5.1 12.8-15.8 23-33.8 31.2-7.1 3.6-15.3 5.2-24 6.7l-88.6 10.7-1.5-5.1-1.6-2 3.1-3.6 72.7-60.4 8.7-3.6z m-184.3 68.6c8.7-8.2 20-12.8 33.8-12.8 12.8 0 25.1 5.1 33.3 12.8 10.2 10.2 14.3 21 14.3 33.8s-4.1 25.1-14.3 33.8c-9.3 9.2-20 14.3-33.3 14.3-13.8 0-25.1-5.1-33.8-14.3-9.2-8.7-14.3-21-14.3-33.8s5.1-24.1 14.3-33.8z m16.4 104.4c1.5 24.6 3.6 50.7 7.1 78.9v28.7l-0.5 7.1c-5.1 12.8-13.8 24.1-26.6 29.7-12.8 7.2-26.6 8.7-39.9 5.1-14.4-3.5-25.1-12.2-31.3-24-3.5-7.2-6.6-15.9-6.6-24.6l3.6-16.4c1.5-7.1 5.1-14.3 10.7-19.9l60.4-72.2c7.2 3.5 14.4 7.1 22.6 7.6z m55.8-9.2l30.2 31.3 18.9 23 3.6 7.2c6.7 12.3 10.3 24 8.7 37.3-1.5 12.8-5.6 22.6-14.3 26.2-5.1 3.5-10.8 3.5-16.4 3-13.8-3.6-24.6-14.3-32.3-31.7l-8.7-24.1-10.7-63 12.3-4.1 9.2-5.1z m32.2-44.5l81.4-7.2 28.7-0.5 7.2 0.5c10.7 3.6 21 10.3 26.6 21 7.2 8.2 10.8 18.9 10.8 31.2l-2.1 14.4c-3.6 14.3-12.3 25.1-24.6 31.2-12.8 7.2-26.1 8.7-40.4 3.6-8.7-2.1-14.3-5.6-19.5-11.8l-75.7-63 5.1-10.7 2-8.7z" /></svg>