<svg height="512" width="341.5" xmlns="http://www.w3.org/2000/svg"><path d="m115.2 0c-2 0-4.6 0-6.7 0.5-9.2 1-18.9 1-28.1 2.6-17.9 2.5-34.8 8.2-51.7 14.8-6.2 2.6-12.3 5.1-17.9 8.2-2.1 1-5.7 2.1-7.2 3.6-1 1-1 3.1-1 4.1-0.6 3.6-0.6 6.6-1.1 10.2-1 12.8-2 26.1-0.5 38.9 0.5 4.1 2.1 11.8 7.2 12.3 7.7 1.1 13.8-8.7 17.9-13.8 9.2-12.3 19.5-24.1 34.3-29.7 17.4-6.6 37.4-8.2 55.8-9.2 51.7-3.6 108.6 6.1 146.5 44 5.6 5.7 10.7 11.3 14.8 17.4 16.9 24.6 26.1 52.8 30.2 82.5 2.1 13.8 3.6 27.6 0.5 41.4-5.6 24.1-19.9 44.6-36.3 62.5-11.3 12.3-24.1 23-37.4 33.3-7.2 5.6-15.9 10.2-22.5 16.4-8.2 7.1-14.9 15.8-20 25.1-13.8 25-17.4 55.3-13.3 83.4 1 5.6 1.5 11.8 3.1 17.4 0.5 1.6 0.5 4.6 1.5 6.2 2 2.5 7.7 4.1 10.7 4.1s5.7-2.6 6.2-5.2c1.5-5.1 0.5-10.7 0-15.8-1.5-10.3-3.1-21-2.6-31.3 1.1-19.4 8.2-37.3 22-51.7s32.3-22.5 48.2-34.8c31.2-24.1 59.4-56.8 70.6-95.7 4.1-13.9 5.2-28.7 3.6-43-2-18-8.7-36.4-14.8-53.3-19-52.2-51.7-101.4-103.5-125.4-20.4-9.2-41.9-13.9-64.5-16.9-10.2-1.6-21-2.6-31.2-2.6-3.6 0-7.7-0.5-11.3-0.5z m-27.1 216.1c-5.2 0-10.3 1.5-14.9 4.1-6.6 4.1-10.2 10.7-12.3 17.9-4.1 14.3-2 30.7 0.5 44.5 1.1 4.6 2.1 9.2 3.1 13.8 0.5 1.6 0.5 4.1 1.5 5.2 2.1 2.5 6.2 3 9.3 2.5 8.2-1.5 6.1-14.8 6.1-21-0.5-13.3-4.6-26.6-1-39.9 1.5-5.6 4.6-12.3 10.7-14.3 5.2-2.1 10.3 0.5 12.3 5.6 3.6 8.2 2.6 17.9 4.6 26.1 0.5 3.1 1.6 5.6 2.6 8.7 0.5 1 1 2.6 2 2.1 2.6 0 6.7-4.6 8.7-6.2 6.7-5.1 13.4-11.2 20.5-14.8 3.6-2.1 9.2-5.2 12.8-1.6 1 1.1 1.6 1.6 2.1 2.6 4.1 6.6 0 11.8-2.6 17.9-3.6 8.2-7.2 16.4-12.3 23.6-4.6 6.1-10.2 11.7-13.8 18.4-2 4.6-3.6 9.2-2.6 14.3 0.6 4.1 4.1 6.7 8.2 5.7 3.1-0.5 5.2-3.6 6.7-5.7 3.1-4.1 6.1-8.7 9.2-13.3 6.1-8.2 12.8-16.4 17.9-25.1 6.2-10.7 9.2-23 9.2-35.3 0-10.2-3.5-25.6-15.3-27.6-2.1-0.6-4.6 0-7.2 0-2.5 0.5-5.6 1.5-8.2 2.5-6.6 3.1-12.3 8.2-17.4 13.8-3.1 3.6-5.6 7.7-9.7 10.8 0-7.7-1.6-15.4-5.6-22-5.7-8.2-15.9-12.8-25.6-12.8z m-58.9 120.8c-0.5 0-1 0-1.6 0-10.2 1.5-12.8 9.7-11.2 18.4 2.5 11.8 11.8 20.5 20.5 27.7 23.5 17.9 53.2 27.6 82.9 26.6 11.3-0.5 24.1-2.6 34.3-7.2 5.6-2.5 11.8-11.7 4.1-15.8-1-0.6-2.6-1.1-3.6-1.1-3.6-0.5-7.1 1.1-10.2 1.6-5.6 1.5-11.3 3-16.9 4.1-17.4 2.5-35.9-1.1-50.2-11.3-11.8-8.2-21-18.9-29.7-30.2-5.1-6.1-9.7-13.3-18.4-12.8z m-10.8 56.8c-1.5 0-3 0-4.1 0.5-2.5 0.6-5.6 0-7.6 2.1-4.7 3.6 0.5 10.2 3 13.3 7.2 8.7 16.4 16.4 25.6 23 25.6 18 54.8 28.7 86 30.8 9.3 0.5 18 0 27.2-1.6 3.1-0.5 7.1-1 10.2-2 8.7-4.1 6.2-20-1.5-23.6-3.1-1.5-8.7 0.5-12.3 1-8.2 1.1-16.4 1.1-24.6 1.1-21.5-0.5-44.5-7.2-63.5-17.9-7.1-4.1-14.3-9.3-20.4-14.9-4.1-3.6-7.7-9.2-12.8-10.7-1.1-0.6-2.6-0.6-4.1-0.6z m1.6 48.7s-0.5 0-0.5 0c-3.6 0.5-6.7 2.5-8.7 5.1-1.6 2-3.1 3.6-4.1 6.1-5.2 12.8 8.7 25.1 18.4 31.3 10.7 6.6 22.5 11.7 34.3 16.3 27.1 9.8 58.9 15.9 86.5 7.2 8.2-2.5 16.4-7.2 22.5-13.3 3.6-3.6 5.7-8.7-0.5-11.3-3.5-1.5-8.2 2.1-11.7 3.6-8.2 3.1-16.4 5.7-24.6 6.7-11.3 1.5-21.5-1-32.3-3.6-9.2-2.6-18.4-4.6-27.6-8.2-7.7-3.1-15.4-6.1-22-10.7-2.1-1.6-4.6-2.6-6.2-4.7-5.1-6.1-9.2-12.8-14.8-18.9-2.6-2.6-5.7-5.1-9.2-5.1z" /></svg>