<svg height="512" width="512.0" xmlns="http://www.w3.org/2000/svg"><path d="m100.4 0c-55.3 0-100.4 45.1-100.4 100.4v311.2c0 55.3 45.1 100.4 100.4 100.4h311.2c55.3 0 100.4-45.1 100.4-100.4v-311.2c0-55.3-45.1-100.4-100.4-100.4h-311.2z m45.5 129.5c69.1 0 104.5 25.1 126 92.7l17.4 52.2c12.3 37.9 34.3 65.6 87 65.6 35.3 0 54.3-7.7 54.3-27.2 0-15.3-8.7-26.1-35.3-32.2l-35.4-8.2c-43-10.3-60.4-32.8-60.4-68.1 0-56.8 46.1-74.8 92.7-74.8 53.2 0 85.5 19.5 89.6 66.1l-52.2 6.1c-2.1-22.5-15.9-31.7-40.5-31.7-23 0-36.8 10.2-36.8 28.1 0 15.9 6.6 25.1 29.7 30.3l33.2 7.1c45.1 10.3 68.6 32.3 68.6 74.8 0 52.2-43.5 71.7-108.5 71.7-90.1 0-121.3-40.5-138.2-91.2l-16.9-52.2c-12.3-37.9-27.2-67.6-72.7-67.6-31.8 0-64 23-64 87 0 50.2 25.6 81.5 61.4 81.5 40.4 0 67.6-30.3 67.6-30.3l16.9 45.6s-28.2 27.7-87.1 27.7c-72.7 0-113.6-42.5-113.6-121.9 0-82.4 40.4-130.6 117.2-130.6z" /></svg>