<svg height="512" width="512.0" xmlns="http://www.w3.org/2000/svg"><path d="m100.4 0c-55.3 0-100.4 45.1-100.4 100.4v311.2c0 55.3 45.1 100.4 100.4 100.4h311.2c55.3 0 100.4-45.1 100.4-100.4v-311.2c0-55.3-45.1-100.4-100.4-100.4h-311.2z m25 84.5c26.7 0 42.5 17.4 43 39.9 0 22.5-16.8 40-43.5 40h-0.5c-26.1 0-42.5-18-42.5-40 0-23 17.4-39.9 43.5-39.9z m227.9 106.5c50.7 0 89.1 33.3 89.1 104.4v133.1h-77.3v-124.4c0-31.2-11.3-52.7-39-52.7-21.5 0-34.3 14.3-39.4 28.2-2 5.1-2.5 11.7-2.5 18.9v130h-77.4s1.1-210.9 0-232.4h77.4v32.8c10.2-15.9 28.6-38.4 69.6-38.4z m-267.3 5.6h77.3v232.5h-77.3v-232.5z" /></svg>