<svg height="512" width="512.0" xmlns="http://www.w3.org/2000/svg"><path d="m72.2 0c-39.9 0-72.2 32.3-72.2 72.2v368.1c0 40 32.3 72.2 72.2 72.2h368.1c40 0 72.2-32.2 72.2-72.2v-368.1c0-39.9-32.2-72.2-72.2-72.2h-368.1z m195.6 52.2c57.8 0 105.4 47.1 105.4 105.5 0 57.9-47.1 105.5-105.4 105.5-57.9 0-105.5-47.1-105.5-105.5 0-57.9 47.1-105.5 105.5-105.5z m-1 62c-23.6 0.5-42.5 19.9-42.5 43.5 0 24.1 19.4 43.5 43.5 43.5s43.5-19.4 43.5-43.5-19.5-43.5-43.5-43.5c-0.5 0-0.5 0-1 0z m-86.1 152.6c5.7 0 11.3 1.5 16.4 4.6 43 27.1 98.8 27.1 141.8 0 14.4-9.3 33.3-4.6 42.5 9.7s4.6 33.3-9.7 42.5c-18.9 11.8-39.9 20.5-60.9 25.1l58.9 58.9c12.3 12.2 12.3 31.7 0 43.5-12.3 12.3-31.8 12.3-43.6 0l-57.8-57.9-57.9 57.9c-6.1 6.1-13.8 9.2-22 9.2-7.7 0-15.9-3.1-22-9.2-12.3-12.3-12.3-31.8 0-43.5l58.9-58.9c-21.5-5.1-42-13.3-61.5-25.1-14.3-9.2-18.9-28.2-9.7-42.5 5.6-9.2 15.4-14.3 25.1-14.3 0.5 0 0.5 0 1 0z" /></svg>