<svg height="512" width="296.4" xmlns="http://www.w3.org/2000/svg"><path d="m148.5 0c-72.7 0-132.1 59.4-132.1 132.1s59.4 132.1 132.1 132.1 132.1-59.4 132.1-132.1-59.4-132.1-132.1-132.1z m0 77.3c30.2 0 54.8 24.6 54.8 54.8s-24.6 54.8-54.8 54.8-54.8-24.6-54.8-54.8 24.6-54.8 54.8-54.8z m-109.1 191.5c-13.3 0-26.1 6.1-33.3 17.9-11.2 17.9-6.1 42 12.3 53.3 24.1 14.8 49.7 25.6 76.8 31.7l-73.7 73.7c-15.4 15.4-15.4 39.5 0 54.8 7.7 7.7 17.4 11.3 27.1 11.3s20-3.6 27.2-11.3l72.7-72.7 72.7 72.7c15.3 15.4 39.4 15.4 54.8 0s15.3-39.4 0-54.8l-73.8-73.7c27.2-6.1 52.8-16.9 76.8-31.7 18-11.3 23.6-35.4 12.3-53.3s-35.3-23.5-53.2-12.3c-54.3 33.8-123.9 33.8-177.7 0-6.1-4.1-13.3-5.6-20-6.1z" /></svg>