<svg height="512" width="512.0" xmlns="http://www.w3.org/2000/svg"><path d="m490.5 292.9c2-12.3 3.1-24.6 3.1-36.9 0-131.1-106.5-237.6-237.6-237.6-12.8 0-25.1 1.1-36.9 3.1-22-13.3-47.6-21.5-75.2-21.5-79.4 0-143.4 64.5-143.4 143.4 0 27.6 7.7 53.2 21.5 75.2-2 12.3-3.1 24.6-3.1 36.9 0 131.1 106.5 237.6 237.6 237.6 12.8 0 25.1-1.1 36.9-3.1 22 13.3 47.6 21.5 75.2 21.5 79.4 0 143.4-64.5 143.4-143.4 0-27.6-7.7-53.2-21.5-75.2z m-121.9 71.1c-10.2 14.4-24.5 25.6-44 33.8s-42 12.3-68.6 12.3c-31.7 0-57.9-5.6-78.3-16.9-14.9-8.2-26.7-18.9-35.9-32.2s-13.8-26.7-13.8-39.5c0-7.6 3.1-14.3 8.7-19.4 5.6-5.7 12.8-8.2 21.5-8.2 7.2 0 13.3 2 17.9 6.1 5.1 4.1 9.2 10.3 12.3 18.5 4.1 9.2 8.2 17.4 12.8 23.5s11.3 11.3 19.5 15.4 19.4 6.1 33.3 6.1c18.9 0 34.3-4.1 46-12.3s17.4-17.9 17.4-30.2c0-9.7-3-17.4-9.2-23-6.1-6.2-14.3-10.8-24.6-13.8s-24-6.7-40.9-10.3c-23.1-5.1-42-10.7-57.9-17.4-15.3-6.6-28.1-15.9-37.3-27.6s-13.9-26.1-13.9-43.6c0-16.3 4.6-31.2 14.4-44s23.5-22.5 42-29.7c18.4-6.6 39.9-10.2 64.5-10.2 19.4 0 36.8 2 51.2 6.6s26.1 10.8 35.8 18c9.7 7.6 16.4 15.3 21 24 4.6 8.2 6.7 16.4 6.7 24.6 0 7.7-3.1 14.3-8.8 20-5.6 6.1-12.8 8.7-20.9 8.7-7.7 0-13.4-1.6-17.5-5.7-4-3.6-8.1-9.2-12.8-17.4-5.6-11.2-12.8-19.4-20.4-25.6s-20.5-9.2-38.4-9.2c-16.4 0-29.7 3.6-40 10.2s-14.8 14.4-14.8 23.6c0 5.6 1.5 10.8 5.1 14.8s8.2 7.7 13.8 10.8c6.2 3.1 12.3 5.6 18.5 7.2s16.3 4.1 30.7 7.6c17.9 4.1 34.3 8.2 49.1 12.8s27.2 10.3 37.4 17.5c10.2 6.6 18.4 15.3 24.6 26.1 5.6 10.2 8.7 23 8.7 38.4 0 17.9-5.1 34.3-14.9 49.1z" /></svg>