<svg height="512" width="512.0" xmlns="http://www.w3.org/2000/svg"><path d="m98.8 0c-54.8 0-98.8 44-98.8 98.8v314.4c0 54.8 44 98.8 98.8 98.8h314.4c54.8 0 98.8-44 98.8-98.8v-314.4c0-54.8-44-98.8-98.8-98.8h-314.4z m123.9 72.2h50.7v90.1h84.5v55.8h-84.5v91.7c0 20.4 1 33.8 3.1 39.9 2 5.6 6.1 10.7 12.3 13.8 7.6 4.6 16.9 7.2 27.1 7.2 17.9 0 35.8-5.6 53.8-17.4v56.3c-15.4 7.2-29.2 12.3-41.5 15.4s-25.6 4.1-39.9 4.1c-16.4 0-30.8-2.1-43.6-6.2-12.3-4.1-23-10.2-32.2-17.4-8.7-7.7-14.9-15.9-18.5-24.6s-5.1-21-5.1-37.3v-125.5h-39.4v-50.7c13.8-4.6 26.1-11.2 35.8-19.4 10.3-8.7 18-19 24.1-30.8s10.2-27.1 12.3-45.5z" /></svg>