<svg height="512" width="383.5" xmlns="http://www.w3.org/2000/svg"><path d="m383.5 448c0 17.4-6.2 32.8-19 45.1-12.8 12.8-27.6 18.9-45.5 18.9h-127c-52.7 0-98.3-18.9-135.7-56.3s-56.3-82.5-56.3-135.2v-256.5c0-17.9 6.1-33.3 18.9-45.6 12.3-12.3 27.7-18.4 45.6-18.4 17.4 0 32.8 6.1 45.1 18.9 12.3 12.3 18.9 27.7 18.9 45.1v92.7h180.7c16.4 0 30.8 5.6 42 17.4 11.8 11.8 17.4 25.6 17.4 42s-5.6 30.2-17.4 41.9-25.6 17.5-42 17.5h-181.2v45c0 17.4 6.1 32.8 18.4 45.1s27.2 18.4 45.1 18.4h127c17.4 0 32.7 6.1 45.5 18.9s19 27.7 19 45.1" /></svg>