<svg height="512" width="512.0" xmlns="http://www.w3.org/2000/svg"><path d="m98.8 0c-54.8 0-98.8 44-98.8 98.8v314.4c0 54.8 44 98.8 98.8 98.8h314.4c54.8 0 98.8-44 98.8-98.8v-314.4c0-54.8-44-98.8-98.8-98.8h-314.4z m264.7 100.9c1.6 0 3.1 0 4.6 0 37.9 1 55.3 25.6 53.3 73.2-1.6 35.3-26.6 84.5-74.8 145.9-49.6 64.5-92.1 96.8-126.4 96.8-21.5 0-39.5-19.5-54.3-58.9l-29.7-108.6c-10.8-39.4-22.5-58.8-35.3-58.8-2.6 0-12.3 5.6-28.7 17.4l-17.4-22c17.9-15.9 35.8-31.8 53.2-47.7 24.1-21 42-31.7 54.3-32.7 28.7-2.6 46.1 16.9 52.7 58.3 7.2 45.1 12.3 72.7 14.9 84 8.2 37.4 17.4 55.8 27.1 55.8 7.7 0 19-12.3 34.3-36.3s23.6-42.5 24.6-54.8c2.1-21-6.1-31.3-24.6-31.3-8.7 0-17.9 2.1-27.1 5.7 17.4-56.9 50.2-85 98.8-85.5z" /></svg>