<svg height="512" width="512.0" xmlns="http://www.w3.org/2000/svg"><path d="m100.4 0c-55.3 0-100.4 45.1-100.4 100.4v311.2c0 55.3 45.1 100.4 100.4 100.4h311.2c55.3 0 100.4-45.1 100.4-100.4v-311.2c0-55.3-45.1-100.4-100.4-100.4h-311.2z m57.3 115.7h100.9c21 0 36.8 0.5 47.6 2.6 10.7 1.5 21 5.1 30.2 10.2 10.2 5.6 17.9 12.8 23 22s7.7 20 7.7 31.8c0 13.8-3.6 26.1-10.7 37.3-7.2 10.8-16.4 19-28.7 24.1v1.5c17.4 3.6 31.7 11.3 42.5 22.6s15.8 27.1 15.8 46.6c0 14.3-2.5 26.6-8.1 37.3s-12.8 19.5-21.5 26.7c-10.8 8.2-22.6 14.3-35.4 17.9s-29.2 5.6-49.1 5.6h-114.7v-285.7z m71.7 52.2v60.5h9.2c12.3 0 21 0 25.6-0.6 5.1-0.5 10.2-1.5 15.4-4.1 5.6-2.5 9.7-6.6 11.7-11.2s3.1-10.3 3.1-16.4c0-4.6-1-9.2-3.6-14.3-2.5-4.6-6.1-8.2-11.2-10.8-4.7-2-10.3-3.1-16.9-3.6-6.7 0-15.9-0.5-28.7-0.5h-5.1z m0 109.6v71.7h4.1c18.9 0 31.7 0 38.9-0.5s14.3-2.1 22-5.1c6.7-3.1 11.3-7.2 14.3-12.3 3.1-5.7 4.6-11.8 4.6-18.5 0-8.7-1.5-15.8-5.1-20.4-3.6-5.2-9.2-8.8-16.4-11.3-4.1-1.5-10.2-2.6-17.9-3.1-7.7 0-17.9-0.5-30.7-0.5h-13.3z" /></svg>