<svg height="512" width="512.0" xmlns="http://www.w3.org/2000/svg"><path d="m90.6 0c-50.2 0-90.6 40.4-90.6 90.6v330.8c0 50.2 40.4 90.6 90.6 90.6h243.2l178.2-256-178.2-256h-243.2z m136.2 93.7h57.9c3.6 0 5.6 1.5 5.6 4.6v318.5c0 2-1 3.6-4.1 3.6h-31.2c-2.1 0-3.6-1.6-3.6-3.1v-117.8h-25.6l-70.7 117.8c-1 2-3 3.1-6.1 3.1h-35.8c-4.1 0-6.7-3.1-4.1-7.2l77.8-120.3c-41.5-15.9-65-47.7-65-90.7 0-71.6 48.1-109 104.9-109z m-1.5 27.6c-30.7 0-61.5 22.1-61.5 76.8 0 52.3 32.3 73.3 66.1 73.3h21.5v-149.5h-26.1z" /></svg>