<svg height="512" width="512.0" xmlns="http://www.w3.org/2000/svg"><path d="m230.4 71.7c-7.7 0-15.9 2-22.5 6.6-14.9 10.3-23.1 42-33.3 64.5-10.8 24.6-20.5 49.7-31.2 68.1-29.2-32.7-48.7-105.4-83.5-132.1-11.3-8.7-35.8-8.1-47.1 0-30.2 22.6 0 62.5 12.3 83.5 26.6 46.1 55.8 95.2 78.3 137.7-14.3 38.4-88 147 10.3 140.8 24-15.3 33.8-47.6 47.1-76.8 26.6-59.4 49.1-110.6 76.8-172 11.2-25.6 38.9-63.5 33.2-92.2-3-15.8-21.5-27.6-40.4-27.6z m238.6 23.5c-14.3 0-28.7 6.7-34.8 20-10.3 11.8-21.5 22.5-33.3 33.3-5.6 7.1-12.3 13.3-18.9 18.9-8.2 8.7-14.9 19-26.2 24.6v-68.1c0-36.9-69.1-36.9-69.6 0v193c3.1 13.9 9.2 24.6 24.6 26.1h21c14.3-2.5 22.5-11.2 24.6-26.1v-42c0-14.3-2.6-38.9 7.1-24.5 14.4 13.8 34.3 28.6 52.2 45 17.5 15.9 33.8 41.5 52.3 45.1 37.3 8.2 53.7-27.7 39.9-53.8-14.8-27.6-56.8-45-74.7-69.6 12.2-28.2 78.8-45.1 73.2-94.2-2.1-19.5-19.5-28.7-36.4-28.7z" /></svg>