<svg height="512" width="418.3" xmlns="http://www.w3.org/2000/svg"><path d="m166.4 484.4q-65 0-111.1-46.1t-46.1-111.6 46.1-111.7l159.2-155.1q32.3-32.8 80.9-32.8t80.4 32.8q33.3 33.8 33.3 80.9t-33.3 80.4l-142.8 140.3q-21 21-50.7 20.5t-50.7-21.6-21-50.1 21-50.7l55.3-55.3 40.4 39.9-55.8 55.8q-3.6 3.6-3.6 9.8 0 6.6 3.6 10.7 9.7 9.7 20.5 0l142.8-140.3q16.9-16.4 16.9-40.4t-16.9-40.5q-15.8-15.8-40.4-15.8t-40.4 15.8l-159.3 155.2q-28.7 29.1-28.7 70.6t29.2 70.7q28.2 28.6 70.7 28.6t70.6-28.6l71.2-71.2 41 40.5-71.7 71.6q-46.1 46.1-111.1 46.1z" /></svg>