<svg height="512" width="475.1" xmlns="http://www.w3.org/2000/svg"><path d="m466.4 484.9h-457.2v-399.9h57.4v342.5h342.5v-342.5h57.3v399.9z m-371.2-228.9v-56.8h57.4v56.8h-57.4z m114.2 0v-56.8h57.4v56.8h-57.4z m114.2 0v-56.8h57.3v56.8h-57.3z m-228.4 114.7v-57.4h57.4v57.4h-57.4z m114.2 0v-57.4h57.4v57.4h-57.4z m114.2 0v-57.4h57.3z m-200.2-257.5v-57.4q0-11.8 8.7-20t21-8.2 20.5 8.2 8.2 20.5v57.4q0 12.3-8.7 20.4t-20 8.2q-12.3 0-21-8.7t-8.7-20.4z m171.5 0v-57.4q0-11.8 8.2-20t20.5-8.2q11.8 0 20.5 8.2t8.7 20.5v57.4q0 12.3-8.7 20.4t-20 8.2-20.5-8.7-8.7-20.4z" /></svg>