<svg height="512" width="475.1" xmlns="http://www.w3.org/2000/svg"><path d="m380.9 84.5h85.5v399.9h-457.2v-399.9h86v28.7q0 23.5 16.9 40.4t40.5 16.9 40.4-16.9 16.9-40.4v-28.7h57.4v28.7q0 23.5 16.9 40.4t40.4 16.9 40.5-16.9 16.9-40.4v-28.7z m-228.3 342.5v-56.8h-57.4v56.8h57.4z m0-114.2v-57.3h-57.4v57.3h57.4z m114.2 114.2v-56.8h-57.4v56.8h57.4z m0-114.2v-57.3h-57.4v57.3h57.4z m56.8 114.2l57.3-56.8h-57.3v56.8z m57.3-114.2v-57.3h-57.3v57.3h57.3z m-257.5-200.2v-57.3q0-11.8 8.7-20t21-8.2 20.5 8.2 8.2 20.5v57.4q0 12.2-8.7 20.4t-20 8.2q-12.3 0-21-8.7t-8.7-20.5z m171.5 0v-57.3q0-11.8 8.2-20t20.5-8.2q11.8 0 20.5 8.2t8.7 20.5v57.4q0 12.2-8.7 20.4t-20 8.2-20.5-8.7-8.7-20.5z" /></svg>