<svg height="512" width="475.1" xmlns="http://www.w3.org/2000/svg"><path d="m380.4 201.7q37.9 7.2 62 34.8t24 76.8q0 57.9-33.2 86.1t-80.9 28.1h-57.4q-23.5 0-40.4 16.9t-16.9 40.5q-47.1 0-80.9-33.8t-33.8-80.9v-57.4q0-14.8 3.1-28.6h54.2q1 0 2.6 0.5t2.5 0.5q-4.6 11.8-4.6 27.6v57.4q0 28.6 22.6 45 34.3-45 91.6-45h57.4q56.8 0 56.8-57.4 0-49.1-41-55.8 10.8-24.6 12.3-55.3z m-142.8-117.2h-114.2q-20 0-32.8 5.6t-17.4 16.9-5.6 17.9-1 16.4q0 57.4 56.8 57.4h57.3q56.9 0 91.7 45.5 22.5-16.9 22.5-45.5v-57.4q0-33.3-17.4-45t-39.9-11.8z m0-57.4q47.1 0 80.9 29.7t33.8 85v57.4q0 47.1-33.8 80.9t-81.4 33.8q0-23.6-16.9-40.5t-40-16.9h-57.3q-47.6 0-80.9-28.1t-33.3-86.1q0-58.3 33.3-86.5t80.9-28.2h114.2z" /></svg>