<svg height="512" width="475.1" xmlns="http://www.w3.org/2000/svg"><path d="m352.3 170q47.1 0 80.9 33.8t33.7 80.9-33.7 80.9-80.9 33.8h-228.9q-47.1 0-80.9-33.8t-33.8-80.9 33.8-80.9 80.9-33.8q0.5 0 15.4 2 15.3-27.1 41.4-43t57.4-15.8q30.7 0 57.8 16.3t42 43q14.3-2 15.4-2z m0 171.5q23 0 39.9-16.9t16.9-40.4-16.9-40.5-40.5-16.9-40.4 16.9-16.9 40.5h-57.3q0-56.9 45.5-91.2-16.9-23.5-45.5-23.5-23.1 0-40 16.9t-16.9 40.4q0 11.3 3.6 20.5l-53.2 19.5q-7.7-18.5-7.7-39-22.5 1.1-40 17.4t-17.4 39.5 16.9 39.9 40 16.9h228.8z" /></svg>