<svg height="512" width="475.1" xmlns="http://www.w3.org/2000/svg"><path d="m466.4 284.2l-68.1 28.6q-4.1 11.3-6.1 15.9l28.2 68.1-40.5 39.9-69.1-26.6q-4.6 2.1-15.9 6.2l-28.1 68.1h-57.4l-28.7-67.6q-5.6-2.1-16.9-6.7l-67.5 27.7-40-40 27.2-68.6q-0.6-1.5-2.6-5.1t-3.1-6.1-2-5.7l-67.1-28.1v-57.4l67.1-28.7 7.1-16.9-27.6-67.5 39.9-40.5 68.1 27.7q11.3-4.6 16.9-6.7l28.2-67.6h57.3l28.7 67.6q7.2 2.6 15.9 6.7l68.1-28.2 40.9 40.5-27.6 69.1q3.1 6.1 6.1 15.3l68.1 28.7v57.3z m-229.3 56.8q35.8 0 60.9-25.1t25.1-60.4-25.1-60.9-60.9-25.6-61 25.6-25.1 60.9 25.1 60.4 61 25.1z" /></svg>