<svg height="512" width="475.1" xmlns="http://www.w3.org/2000/svg"><path d="m180.7 255q0-57.4 57.4-57.4t57.3 57.4-57.3 57.3-57.4-57.3z m190.5-161.8q0 11.8 8.2 20.5t20 8.7q9.2 0 17.9-7.2 49.1 63.5 49.1 140.3 0 65.5-32.2 117.2t-81.9 80.4q-52.8 30.7-115.2 30.7-65.6 0-117.3-31.7t-80.4-81.9q-30.7-52.8-30.7-114.7 0-76.3 48.6-139.3 7.7 6.2 16.4 6.2 12.3 0 21-8.7t8.7-20.5q0-9.2-6.1-16.9 49.1-39.4 112.1-47.6 1.5 11.2 9.7 18.9t19 7.7 18.9-7.7 9.8-18.9q61.9 7.7 111.6 46.1-6.7 7.6-6.7 18.4z m-247.8 161.8q0 46.6 33.8 80.4t80.9 33.8 80.9-33.8 33.8-80.4q0-47.1-33.8-80.9l-80.9-80.9-80.4 80.9q-33.8 33.8-33.8 80.9z" /></svg>