<svg height="512" width="475.1" xmlns="http://www.w3.org/2000/svg"><path d="m458.2 35.3q8.7 8.2 8.7 20.5t-8.7 20.5l-58.3 58.4q28.1 40.9 23 92.6t-41.5 87.6l-85.5 85.5q-41.4 42-101.3 42-43.6 0-78.4-23.6l-58.3 57.9q-8.7 8.7-20.5 8.7-10.8 0-19.5-8.7-8.2-8.7-8.2-20.5t8.2-20l57.9-58.3q-28.7-41-23.6-92.7t42-88.1l85-85q39.9-42 101.4-42 44 0 78.8 23.6l57.9-58.4q7.7-8.2 19.9-8.2t21 8.2z m-92.1 177.7q0-19.5-8.7-36.9l-43.5 44.1q-8.7 8.2-19.5 8.2-11.8 0-20.5-8.2t-8.7-20.5 8.7-20.5l43.5-43q-18.4-8.2-36.8-8.2-37.4 0-62 24.6l-83.9 86q-25.1 25.1-25.1 60.4 0 19.5 8.2 36.4l42.5-42.5q8.1-8.2 20.4-8.2t19.5 8.2q8.2 8.7 8.2 20.4t-8.2 20.5l-41 42q18.5 8.7 35.9 8.7 35.8 0 60.9-25.1l85.5-85.5q25.1-25.1 25.1-60.9z" /></svg>