<svg height="512" width="361.0" xmlns="http://www.w3.org/2000/svg"><path d="m209.4 27.1q58.9 0 100.9 42t42 100.9v228.8q0 35.4-25.1 61t-60.4 25.6h-172.1q-35.8 0-60.9-25.6t-25.1-61v-199.6h57.3v-29.2q0-58.9 42-100.9t100.9-42z m-86 142.4v29.2h171.5v-29.2q0-35.4-25.1-60.4t-60.4-25.1-60.9 25.1-25.6 60.4z m143.4 257.5q11.7 0 19.9-8.2t8.2-20.5v-142.8h-228.3v142.8q0 12.3 8.2 20.5t19.9 8.2h172.1z m-57.4-86q0 11.8-8.2 20.5t-20.5 8.7q-11.7 0-19.9-8.7t-8.2-21q0-11.8 8.2-20t20.4-8.2 20.5 8.2 8.2 20z" /></svg>