<svg height="512" width="475.1" xmlns="http://www.w3.org/2000/svg"><path d="m466.4 141.3q0 31.2-16.4 57.9t-43 42q1.1 9.7 1.1 13.8 0 70.6-50.2 121.3t-121.4 50.7q-52.7 0-95.2-28.7l-132.6 86.6 87-132.1q-30.7-45.1-30.7-97.3 0-70.7 50.2-121.4t121.3-50.6q3.1 0 9.3 1t6.6 1q15.4-26.6 41.5-42.5t57.8-15.9q47.1 0 80.9 33.8t33.8 80.9z m-229.3 227.9q47.6 0 80.9-33.3t33.2-80.4q-13.3 0-29.2-4.1l-45 45q-16.4 16.4-40.5 16.4t-40.4-16.9-16.4-40.4 16.4-41l45.6-45.5q-4.6-15.9-4.6-28.2v-0.5h-0.6q-47.1 0-80.9 33.8t-33.7 80.9 33.7 80.9 80.9 33.3z m114.6-170.5q23.6 0 40.5-16.9t16.9-40.5-16.9-40.4-40.5-16.9-40.4 16.9-16.9 40.4 16.9 40.5 40.4 16.9z" /></svg>