<svg height="512" width="475.1" xmlns="http://www.w3.org/2000/svg"><path d="m352.3 113.2q47.1 0 80.9 33.7t33.7 80.9-33.7 80.9-80.9 33.8h-228.9q-47.1 0-80.9-33.8t-33.8-80.9 33.8-80.9 80.9-33.7q0.5 0 15.4 1.5 15.3-26.6 41.4-43t57.4-16.4q30.7 0 57.8 16.4t42 42.5q14.3-1.6 15.4-1.6z m0 171.5q23 0 39.9-16.9t16.9-40.5-16.9-40.4-40.5-16.9-40.4 16.9-16.9 40.4h-57.3q0-55.8 46-91.1-16.9-23-46-23-23.1 0-40 16.8t-16.9 40q0 11.2 3.6 20.5l-53.2 19.4q-7.7-18.4-7.7-38.4-22.5 0.5-40 16.9t-17.4 38.9q0 23.6 16.9 40.5t40 16.9h228.8z m-296.5 163.3q-7.7 7.7-19.4 7.7t-19.5-8.2-8.2-19.5 8.2-19.4q4.6-4.6 24.1-14.4t36.3-16.9l17.4-7.1q-28.7 66.5-39.4 77.3z m114.2 0q-7.7 7.7-19 7.7t-19.9-7.7q-8.2-8.2-8.2-19.5t8.2-19.4q4.6-4.6 24.5-14.3t37.4-16.9l16.4-7.2q-28.2 66.5-39.4 77.3z m114.7 0q-8.2 7.7-19.5 7.7t-19.4-8.2-8.2-19.5 8.2-19.4q5.1-4.6 24.5-14.4t36.9-16.9l16.9-7.1q-28.7 66.5-38.9 77.3z" /></svg>