<svg height="512" width="475.1" xmlns="http://www.w3.org/2000/svg"><path d="m238.1 141.3q47.6 0 80.9 33.8t33.8 80.9-33.8 80.9-80.9 33.8-80.9-33.8-33.8-80.9 33.8-80.9 80.9-33.8z m29.2-86q0 12.3-8.7 21t-20.5 8.7-20-8.7-8.7-21 8.7-20.5 20-8.2q12.3 0 21 8.2t8.7 20z m-200.2 57.3q0-28.1 28.6-28.1 28.2 0 28.2 28.1 0 28.7-28.2 28.7-28.6 0-28.6-28.7z m-28.7 114.2q11.8 0 20.5 8.2t8.7 20.5-8.2 20.5-20.5 8.2-20.5-8.7-8.2-20.5q0-12.3 8.2-20.5t20.5-8.2z m28.7 171.5q0-28.1 28.6-28.1 28.2 0 28.2 28.1 0 28.7-28.2 28.7-28.6 0-28.6-28.7z m142.8 56.9q0-11.3 8.7-20t20-8.7q12.3 0 21 8.7t8.7 20-8.7 20.4-20.5 8.8-20-8.8-8.7-20.9z m151.6-36.9q-8.2-8.2-8.2-20t8.2-20.4 20.5-8.7 20.4 8.7 8.2 20.4-8.2 20-20.4 8.2-20.5-8.2z m77.8-134.7q-12.3 0-21-8.7t-8.7-20.4q0-12.3 8.7-20.5t20.5-8.2 20 8.2 8.7 20.5-8.7 20.4-20 8.2z m-37.4-151.5q-8.2 8.7-20.5 8.7t-20.4-8.7-8.2-20.5 8.2-20.5 20.4-8.7 20.5 8.7 8.2 20.5-8.2 20.5z" /></svg>